<?xml version="1.0" encoding="utf-8"?>
<!-- Generator: Adobe Illustrator 24.2.1, SVG Export Plug-In . SVG Version: 6.00 Build 0)  -->
<svg version="1.1" id="Layer_1" xmlns="http://www.w3.org/2000/svg" xmlns:xlink="http://www.w3.org/1999/xlink" x="0px" y="0px"
	 viewBox="0 0 62 50.7" style="enable-background:new 0 0 62 50.7;" xml:space="preserve">
<style type="text/css">
	.st0{opacity:0.25;}
	.st1{fill:#3B6B7C;}
	.st2{fill:#FFFFFF;}
	.st3{fill:#E7E6E5;}
	.st4{fill:#211E1F;}
	.st5{fill:#201D1E;}
</style>
<g class="st0">
	<path class="st1" d="M0.2,45.5c0.7-1.1-0.3,0,7.4-10.4l2.2-1.1l1.7-2.1c0,0,1.5-0.4,2-1c0.3-0.4,7.9-7.7,7.9-7.7l3.3-3.2l4.2-6.4
		c0,0,0.9-3.9,1.4-5.8c0.2-0.7,0.4-1.5,0.7-2.1c0.3-0.5,0.7-0.9,1.1-1.3c1.3-1.3,3.9-3.9,3.9-3.9l3.6,8.4l4.7,5.3l0.4,5.7
		c0,0,2.1,3.5,2.6,4.4c1.1,1.9,1.9,3.8,1.9,3.8l4.6,1.7l1.7,2.2c0,0,3.8,7.9,6.4,12.6"/>
</g>
<g>
	<path class="st2" d="M0.3,46.6c0.7-1.2-0.2-0.1,6.9-10.4l2-1.1l1.6-2.1c0,0,1.4-0.4,1.9-1c0.3-0.4,3.5-7.7,3.5-7.7l3,2.2l0.8-2.2
		L23,21l3.9-6.4c0,0,0.8-3.9,1.3-5.8c0.2-0.7,0.3-1.5,0.7-2.1c0.3-0.5,0.7-0.9,1-1.3c1.2-1.3,3.7-3.9,3.7-3.9l3.3,8.4l4.4,5.3
		l0.3,5.7c0,0,1.9,3.5,2.4,4.4c1,1.9,1.8,3.8,1.8,3.8l4,1.7l1.6,2.2c0,0,4.2,7.9,6.6,12.6"/>
</g>
<path class="st3" d="M31,4.2c-0.8,0.9-2.6,2-2.2,3.1c-0.1,0.3-0.1,0.6,0,0.8c-0.3,1.5-1.2,5.7-1.9,6.3c-0.9,0.7-1.4,1.7-2,2.6
	c-0.9,1.5-1.9,2.9-2.8,4.4c-0.5,0.5-1,1.1-1.3,1.8c-0.1,0.1-0.2,0.3-0.3,0.4c-0.2,0.4-0.3,0.8-0.3,1.2c-0.2,0.4-0.5,0.7-0.9,1
	c0,0,0,0,0,0c-0.1,0.1-0.2,0.1-0.2,0.2c-0.9-0.8-1.7-1.6-2.6-2.4c-0.9-0.8-1.2,0.9-1.4,1.9c-0.2,0.9-4.2,5.9-4.5,7.1
	c-0.6,0.8-1.2,1.5-1.8,2.2c-0.1,0.1-0.2,0.1-0.3,0.2c-0.8,0.5-1.4,1.2-2,1.9c-1.3,1.5-2.5,3.1-3.7,4.6c-4.9,6.4,1,4.9,2.5,4.9
	c0.7,0,1.5-0.9,1.3-1.7c-0.1-0.6,3.8-4.9,3.8-5.2c0.5-0.2,1.3-0.8,1.4-1c0.5-0.5,1-1,1.3-1.6c0.8-1.4,1.8-2.4,2-4
	c0-0.3,0-0.6-0.2-0.9c0.3-0.4,0.6-0.8,0.9-1.3c0.6-0.8,1.3-2.5,1.3-2.5l3.6,0.8c0,0,3-3.9,2.9-4.4c0.2,0,0.4-0.1,0.6-0.1
	c1.1-0.2,2.1-0.5,2.9-1.4c0.7-0.8,1.1-1.8,1.5-2.8c0.6-1.4,1.2-2.7,1.8-4.1c0.2-0.4,0.1-0.8,0-1.2c0.2-0.3,0.4-0.5,0.5-0.9
	c0.8-1.9,0.2-3.9,0.8-5.8C34.4,6.8,36.9-2.1,31,4.2z M9.9,39.7C9.9,39.7,9.9,39.7,9.9,39.7C9.9,39.7,9.9,39.7,9.9,39.7z M21.3,28
	C21.3,28,21.3,28,21.3,28C21.3,28,21.3,28,21.3,28C21.3,28,21.3,28,21.3,28z"/>
<g>
	<g>
		<g>
			<polygon class="st4" points="34.8,2.6 34.8,2.6 34.8,2.6 			"/>
			<polygon class="st4" points="29.2,4.7 29.2,4.7 29.2,4.7 			"/>
			<path class="st4" d="M57.5,45.2c-0.1,0.1-0.3,0-0.7-0.8c-1.2-2.2-2.2-4.4-3.3-6.5l0,0l-0.1-0.1l0,0c-0.7-1.4-1.5-2.8-2.3-4.2
				l-0.4-0.7l-1.5-2c-1.3-0.6-2.7-1.1-4-1.7L45,28.2c-0.6-1.4-1.2-2.8-2-4.2l-1.1-2.1l-0.6-1L41,20.5l0-0.4l0-0.6
				c-0.1-1.6-0.2-3.1-0.3-4.7l-4.1-4.9l-0.3-0.3l-3-7.5l0,0L31.5,4c-0.7,0.8-1.7,1.6-2.1,2.4C29,7,28.9,7.8,28.7,8.6
				c-0.2,1-0.4,1.9-0.7,2.8c-0.1,0.3-0.2,0.8-0.3,1.2c-0.1,0.5-0.2,1-0.3,1.5c-0.1,0.2-0.2,0.3-0.3,0.5c-0.8,1.3-1.6,2.6-2.4,3.9
				c-0.4,0.7-0.8,1.4-1.3,2.1c-0.6,0.6-1.1,1.1-1.6,1.7l0,0c-0.5,0.5-1,1-1.4,1.4c-0.1,0.2-0.1,0.3-0.2,0.5
				c-0.1,0.3-0.2,0.6-0.3,0.9l-0.5,1.3l-2-1.5l-0.7-0.6l-0.3-0.3l-0.1,0.3l-2,4.4c-0.4,0.8-0.7,1.5-1.1,2.3
				c-0.1,0.2-0.3,0.5-0.4,0.6c-0.2,0.2-0.4,0.3-0.6,0.4c-0.2,0.1-0.4,0.2-0.6,0.3c-0.2,0.1-0.4,0.2-0.5,0.2l-1.6,2l-2,1.1l-1,1.5
				C5.1,39.2,4,41,2.8,42.8l0,0c-0.9,1.4-1.7,2-2.3,2.8C0.2,45.9,0,46,0,45.8c0-0.2,0.2-0.7,0.6-1.3c1.5-2.5,3-4.8,4.6-7.2l1.5-2.2
				l2-1.1l1.6-2.1c0.2-0.1,0.4-0.1,0.5-0.1c0.6-0.2,1.2-0.5,1.3-0.8c0.3-0.6,0.6-1.2,0.9-1.8l0,0c0,0,0.1-0.1,0.1-0.1l0,0
				c0.4-0.8,0.8-1.7,1.2-2.5l1.2-2.8l0.4-0.9c0.5,0.4,1,0.7,1.5,1.1c0.3,0.2,0.6,0.5,1,0.7c0.1,0.1,0.2,0.2,0.3,0.2
				c0.1,0,0.1,0.1,0.2,0.1l0.1-0.2c0-0.1,0-0.1,0.1-0.3l0.4-1.1l3.1-3.2l1.1-1.9l0.9-1.5l0,0c0.4-0.6,0.8-1.3,1.2-1.9l0.6-1l0,0
				c0.1-0.5,0.2-1.1,0.3-1.6c0.2-1.2,0.5-2.3,0.8-3.4c0-0.1,0-0.3,0.1-0.4l0,0l0.1-0.7l0-0.1l0,0c0.1-0.5,0.3-1,0.5-1.5
				c0.2-0.5,0.6-1,0.9-1.4l0.3-0.3l0,0l0,0l0,0l0,0c0,0,0,0,0,0c0.9-1,1.8-2,2.8-3l0,0L33.7,0l0.7,1.9l0,0c0,0.1,0.1,0.3,0.1,0.4
				l0,0l0.1,0.3l0.1,0.1c0.2,0.5,0.4,1,0.5,1.5l0,0c0.1,0.1,0.1,0.2,0.1,0.3l0,0l0,0l0.7,1.7l0,0c0.2,0.4,0.3,0.7,0.4,1.1
				c0,0.3,0.3,0.6,0.4,1l0,0l0,0.1l0,0L37.3,9l2.9,3.5l0,0c0.2,0.3,0.4,0.6,0.7,0.9l0.8,1c0,0.8,0.1,1.6,0.1,2.4
				c0.1,0.8,0.1,1.5,0.2,2.3l0.1,0.9c0,0.2,0,0.1,0.1,0.2l0.2,0.4l0.9,1.6c0.6,1.1,1.2,2.2,1.8,3.3l0.6,1.3l0.5,1.1l0,0l0,0
				c0,0,0,0,0.1,0c0.1,0,0.1,0.1,0.2,0.1l0,0l0,0c0.7,0.3,1.6,0.7,2.2,0.9c0.2,0.1,0.5,0.2,0.7,0.3c0.3,0.1,0.5,0.2,0.8,0.3
				c0.4,0.6,0.8,1.1,1.3,1.7l0.5,0.7l3,5.6c0.4,0.7,0.7,1.3,1.1,1.9c0.3,0.6,0.4,0.8,0.3,0.9c-0.1,0.3,0,0.6,0.6,1.8
				c0.3,0.6,0.9,1.7,0.4,1.5c-0.1-0.1,0.1,0.2,0.1,0.4C58,45.3,57.6,45,57.5,45.2z M27.9,7.4l-0.1,0.2c0,0,0-0.1,0.1-0.1
				C27.9,7.5,27.9,7.4,27.9,7.4z M32.3,1.5L32.3,1.5L32.3,1.5L32.3,1.5z M34.8,2.8l-0.1-0.2L34.8,2.8L34.8,2.8z M36.3,6.6l-0.1-0.3
				L36.3,6.6L36.3,6.6z M46.2,28.1L46.2,28.1L46.2,28.1L46.2,28.1z"/>
		</g>
	</g>
</g>
<g>
	<g>
		<path class="st3" d="M40.8,15.8c0.3,0.4,0.9,1.1,0.9,1.3c0,0.2-0.9,0.5-1.4,0.6c-0.2,0.1-0.4,0.1-0.6,0.1c-0.2,0-0.4-0.1-0.5-0.2
			c-0.7-0.4-1.3-0.8-2-1"/>
		<g>
			<g>
				<path class="st5" d="M39.2,17.3c0.1,0.1,0.2,0.1,0.3,0.2c0.1,0,0.2,0.1,0.3,0.1c0.1,0,0.2,0,0.2,0c0,0,0.1,0,0.1,0
					c0.1-0.1,0.2-0.1,0.3-0.1c0.1,0,0.2-0.1,0.3-0.1c0.1,0,0.2-0.1,0.3-0.1c0.1,0,0.2-0.1,0.3-0.1c0,0,0,0,0-0.1
					c-0.1-0.1-0.2-0.2-0.3-0.4c-0.1-0.1-0.1-0.2-0.2-0.3c-0.1-0.1-0.1-0.2-0.2-0.3c0-0.1,0-0.1,0.1-0.2c0,0,0.1-0.1,0.1-0.1
					c0,0,0.1,0,0.1,0c0.2,0.3,0.5,0.5,0.7,0.8c0.1,0.1,0.2,0.2,0.2,0.5c0.1,0.2-0.2,0.4-0.3,0.5c-0.3,0.1-0.5,0.2-0.7,0.3
					c-0.2,0.1-0.3,0.1-0.5,0.2c-0.2,0.1-0.4,0.1-0.7,0.1c-0.5-0.1-0.7-0.4-1.1-0.5c-0.2-0.1-0.5-0.3-0.7-0.4
					c-0.1-0.1-0.2-0.1-0.3-0.2c-0.1-0.1-0.2-0.1-0.3-0.2c-0.1,0-0.1-0.1-0.1-0.2c0-0.1,0.1-0.1,0.1-0.2c0,0,0,0,0.1,0l0.3,0.1
					c0.2,0.1,0.4,0.2,0.6,0.3c0.1,0,0.2,0.1,0.2,0.1c0.2,0.1,0.4,0.2,0.6,0.3L39.2,17.3z"/>
			</g>
		</g>
	</g>
	<g>
		<path class="st3" d="M43.7,4c2.1,1.5,4.2,3.1,6.2,4.7C50,8.8,50.1,8.9,50.2,9c0.3,0.2,0.6,0.4,0.8,0.7c1,0.8,1.9,1.6,2.9,2.4
			c0.6,0.5,1.3,1,1.8,1.7c-0.8,0.2-1.3,0.9-2.1,1c-0.4,0-0.8-0.1-1.2-0.3c-0.7-0.3-1.4-0.6-2-0.8c-0.6-0.3-1.3-0.5-1.9-0.8
			c-1.1-0.6-2.1-1.4-3.1-2.2c-0.4-0.3-0.7-0.6-1.1-0.9c-0.3-0.3-0.7-0.6-1-0.9C43.2,8.5,43,8.2,42.8,8c-0.8-1-1.5-2.1-2.3-3.1
			c0,0-0.1-0.1-0.1-0.1c0-0.1,0.1-0.2,0.2-0.2c0.9-0.3,1.7-0.6,2.6-1"/>
		<g>
			<g>
				<path d="M43,3.4L43,3.4c-0.5,0.1-1,0.4-1.6,0.6L41,4.1l-0.2,0.1c-0.1,0-0.2,0.1-0.3,0.1c-0.2,0.1-0.3,0.3-0.2,0.5
					c0,0.2,0.3,0.4,0.3,0.5c0.4,0.5,0.7,1,1,1.4c0.6,0.8,1.1,1.6,1.8,2.4c0.5,0.5,1.1,0.9,1.5,1.4l0,0l0,0l0,0
					c0.2,0.1,0.4,0.3,0.6,0.5c0.8,0.7,1.8,1.4,2.8,1.9c1,0.5,2,0.9,3.1,1.4l1,0.4c0.3,0.1,0.7,0.3,1.2,0.3c0.6,0,1-0.3,1.3-0.5
					c0.2-0.1,0.3-0.2,0.5-0.3c0.1-0.1,0.8-0.3,1.2-0.4c-0.3-0.3-0.6-0.8-0.9-1.1c-0.2-0.2-0.4-0.4-0.6-0.5l0,0
					c-0.1-0.1-0.2-0.2-0.3-0.3c-1-0.8-1.9-1.6-2.9-2.3c-0.7-0.6-1.5-1.2-2.2-1.7L47,6c-1-0.8-2-1.5-3-2.1l0,0l0,0l0,0
					c-0.2,0.1-0.1,0.4,0,0.7c0.1,0.2,0.2,0.4,0.5,0.5c0.2,0.1,0.4,0.3,0.6,0.4c0.6,0.5,1.2,1,1.8,1.5c0.6,0.4,1.1,0.8,1.7,1.2
					c1.3,0.9,2.6,2,3.9,3c0.9,0.7,1.8,1.4,2.6,2.2l0.2,0.2c0,0,0.1,0.1,0.1,0.1c0,0-0.1,0-0.1,0l0,0l-0.2,0.1l-0.6,0.4
					c-0.4,0.2-0.7,0.4-1.1,0.3c-0.4-0.1-0.8-0.3-1.3-0.5c-0.4-0.2-0.9-0.4-1.3-0.5c-0.5-0.2-1-0.4-1.5-0.7l0,0
					c-0.7-0.2-1.2-0.6-1.8-1.1c-0.5-0.3-0.9-0.7-1.3-1.1l0,0c-0.5-0.4-0.9-0.8-1.4-1.2c-0.4-0.4-0.9-0.7-1.2-1.2
					c-0.7-0.9-1.4-1.9-2.1-2.9L41,4.9c0,0,0,0,0-0.1l1.3-0.5C42.5,4.2,42.8,4.2,43,4C43.4,3.8,43.2,3.5,43,3.4z"/>
				<polygon points="49.2,12.6 49.2,12.6 49.2,12.6 				"/>
			</g>
		</g>
	</g>
	<g>
		<g>
			<g>
				<path class="st5" d="M55.6,8.5L55.6,8.5c0.1,0.1,0.1,0.2,0,0.2c-0.1,0-0.1,0.1-0.1,0.1C55.4,8.9,55.3,9,55.3,9
					c0,0,0,0.1-0.1,0.1c0,0.1-0.1,0.1-0.1,0.3c0,0.1-0.1,0.1-0.1,0.2c-0.1,0.1-0.3,0-0.4-0.1c-0.1-0.1-0.1-0.2-0.1-0.3
					c0-0.1,0-0.1-0.1-0.2c0,0,0-0.1,0-0.1c0-0.1-0.1-0.2-0.1-0.3c0-0.1,0-0.1-0.1-0.2c0.1,0,0.2,0,0.3,0c0.1,0,0.1,0,0.2,0
					c0,0,0.1,0,0.1,0c0,0,0.1,0,0.1,0c0.1,0,0.2,0,0.2,0c0.1,0,0.2,0,0.3,0C55.5,8.3,55.6,8.4,55.6,8.5C55.6,8.5,55.5,8.5,55.6,8.5
					c-0.1,0-0.2,0-0.2,0c-0.1,0-0.2,0-0.3,0c-0.2,0-0.3,0-0.5,0l-0.1,0c0,0,0,0,0,0.1c0,0.1,0.1,0.2,0.1,0.2
					c0.1,0.2,0.1,0.3,0.2,0.3c0,0,0,0,0,0c0-0.1,0.1-0.2,0.1-0.2c0.1-0.2,0.2-0.4,0.4-0.5c0,0,0.1,0,0.1-0.1
					C55.5,8.4,55.5,8.4,55.6,8.5L55.6,8.5z"/>
			</g>
		</g>
	</g>
	<g>
		<path class="st3" d="M54.9,9.2c0.2,0.6-0.2,1.2-0.7,1.6c-0.5,0.5-2.4,1.6-4.8,2.5c-2.4,0.9-12.4,3.2-12.5,3.1
			c-0.1-0.1-2.3-3.1-2.5-3.3c0.5-0.3,1.4-0.8,1.8-0.8c0.4-0.1,3.8,1.7,3.8,1.7s4.5-1.8,5-2.1c0.5-0.3,0.9-0.9,0.7-1.5
			c1.1-0.3,2.2-0.6,3.2-1.2C49.2,9,49.6,8.7,50,8.8c0.3,0,0.5,0.2,0.7,0.2c0.2,0,0.4-0.1,0.5-0.1C52.1,8.5,53,8.4,54,8.5
			c0.1,0,0.2,0,0.3,0.1c0.1,0.1,0.2,0.3,0.3,0.4c0,0.1,0.3,0.5,0.4,0.6C55.1,9.6,54.9,9.2,54.9,9.2z"/>
		<g>
			<g>
				<path class="st5" d="M39.2,13.3l0.9,0.4l0.6-0.2c0.8-0.4,1.7-0.7,2.5-1.1l1.3-0.5c0.2-0.1,0.4-0.2,0.5-0.3
					c0.1-0.1,0.3-0.3,0.4-0.4c0.1-0.1,0.1-0.2,0.1-0.3c0-0.1,0-0.1,0-0.2c0-0.1-0.1-0.3-0.1-0.4l0.9-0.2l0.6-0.2
					c0.4-0.1,0.8-0.3,1.1-0.4c0.4-0.2,0.7-0.4,1-0.6c0.2-0.1,0.4-0.2,0.7-0.3c0.3-0.1,0.6,0,0.8,0.1c0.2,0.1,0.3,0.1,0.4,0.1
					c0.1,0,0.2-0.1,0.4-0.1c0.3-0.1,0.7-0.2,1-0.3c0.4-0.1,0.7-0.1,1.1-0.1c0.2,0,0.4,0,0.5,0c0.2,0,0.4,0,0.6,0.2
					c0.1,0.1,0.2,0.2,0.2,0.3l0.1,0.2C54.8,9,55,9.2,55.1,9.3c0,0,0.1,0-0.1,0.1c-0.1,0.1,0,0.1-0.1,0.1c0,0-0.1,0-0.2,0l0,0l0,0
					c0,0,0-0.1,0-0.1c0.1-0.1,0.2-0.3,0.4-0.2c0,0,0.1,0.1,0.1,0.1c0,0,0,0,0,0.1l0,0.1c0,0,0,0,0,0.2c-0.3,0.4-0.6,0.1-0.5,0.1
					c0,0-0.1,0-0.1-0.1l-0.1-0.1c-0.2-0.2-0.2-0.3-0.4-0.5c-0.1-0.2-0.1-0.3-0.1-0.3c0,0-0.1,0-0.3,0c-0.1,0-0.3,0-0.4,0
					c-0.3,0-0.6,0-0.9,0.1c-0.3,0-0.6,0.1-0.9,0.2c-0.3,0.1-0.5,0.3-1,0.2c-0.3,0-0.4-0.2-0.6-0.2C49.9,9,49.8,9,49.7,9
					c-0.3,0.1-0.6,0.3-0.9,0.5c-0.5,0.3-1,0.5-1.5,0.7c-0.3,0.1-0.5,0.2-0.8,0.2l-0.4,0.1c-0.1,0-0.1,0-0.2,0c0,0,0,0,0,0.1
					c0,0,0,0.1,0,0.2c0,0.2-0.1,0.3-0.1,0.5c-0.1,0.3-0.3,0.5-0.6,0.7c-0.2,0.2-0.5,0.3-0.7,0.4l-1.4,0.6l-1.5,0.6l-1.6,0.6l-1-0.5
					l-0.9-0.5c-0.3-0.2-0.6-0.3-0.9-0.4c-0.2-0.1-0.3-0.1-0.5-0.2c-0.2-0.1-0.3-0.1-0.4-0.1c-0.3,0.1-0.6,0.2-0.9,0.3L35,13.2
					c-0.1,0.1-0.1,0.1-0.1,0.1l0,0l0.1,0.1l0.3,0.4l1.4,1.9l0.3,0.4c0,0,0,0,0.3,0l1.1-0.3c1.4-0.3,2.8-0.6,4.2-1
					c1.4-0.3,2.8-0.6,4.1-1.1c0.2-0.1,0.3-0.1,0.5-0.1l0,0l0.1,0l0,0c0.6-0.1,1.1-0.3,1.6-0.5c1.1-0.4,2.1-0.9,3.2-1.4
					c0.5-0.2,1.1-0.5,1.5-0.9c0.3-0.2,0.8-0.7,0.9-1.1c0-0.2,0-0.3,0.1-0.3c0-0.1,0.1-0.1,0.1-0.1c0,0,0.1,0,0.1,0
					c0.1,0.1,0.2,0.4,0.3,0.3c0.1,0,0,0.4-0.1,0.5c-0.2,0.4-0.4,0.7-0.7,0.9c-0.3,0.3-0.6,0.5-0.9,0.7c-0.6,0.4-1.2,0.7-1.9,1
					c-1.3,0.6-2.6,1.1-4,1.5c-1.8,0.5-3.7,1-5.6,1.4l-2.7,0.6l-1.4,0.3l-0.7,0.1l-0.2,0c-0.1,0-0.2,0-0.3,0c-0.1,0-0.2-0.1-0.2-0.2
					l-0.1-0.2c-0.7-0.9-1.3-1.8-2-2.6c-0.1-0.1-0.4-0.4-0.5-0.6l0.6-0.4l0.4-0.2c0.2-0.1,0.5-0.2,0.7-0.3c0.1,0,0.2-0.1,0.4-0.1
					c0.1,0,0.1,0,0.2,0c0.1,0,0.3,0,0.3,0c0.3,0.1,0.5,0.2,0.7,0.3C37.9,12.7,38.5,13,39.2,13.3L39.2,13.3z"/>
			</g>
		</g>
	</g>
	<g>
		<path class="st3" d="M49.7,9.8C49.6,9.5,49.3,9,49.3,9s0.5-0.2,0.6-0.2c0,0,0.7,0,1.2,0.2C51.2,9,49.7,9.8,49.7,9.8z"/>
		<g>
			<g>
				<path class="st5" d="M50.5,9.1C50.5,9.1,50.5,9.1,50.5,9.1C50.6,9.1,50.6,9.1,50.5,9.1C50.5,9.1,50.5,9.1,50.5,9.1
					C50.4,9.1,50.4,9.1,50.5,9.1c-0.1,0-0.1,0-0.1,0c0,0,0,0,0,0c-0.1,0-0.1,0-0.2,0c-0.1,0-0.1,0-0.1,0c-0.1,0-0.1,0.1-0.2,0.1
					c-0.1,0,0,0,0,0c0,0,0,0,0,0c0,0,0.1,0.1,0.1,0.2c0,0.1,0.1,0.1,0.1,0.2c0,0.1,0,0.1-0.1,0.2c0,0-0.1,0.1-0.2,0.1
					c0,0-0.1,0-0.1,0c-0.1-0.2-0.2-0.4-0.4-0.8c-0.2-0.2,0.1-0.2,0.2-0.2c0.1,0,0.2-0.1,0.4-0.2c0.1,0,0.1-0.1,0.3-0.1
					c0.1,0,0.2,0,0.3,0c0.1,0,0.1,0,0.2,0c0.1,0,0.2,0,0.3,0c0.2,0,0.4,0.1,0.6,0.2c0.1,0,0.3,0.1,0.4,0.1c-0.2,0.1-0.5,0.3-0.7,0.4
					c-0.2,0.1-0.3,0.2-0.4,0.3c-0.1,0-0.2,0.1-0.2,0.1c-0.1,0-0.2,0.1-0.2,0.1c-0.1,0-0.2,0.1-0.2,0.1c0,0,0,0-0.1,0
					c-0.2,0-0.2-0.1-0.1-0.1c0,0,0.1,0,0.1-0.1c0,0,0-0.1,0-0.1c-0.1,0-0.1,0-0.1-0.1c0,0,0.1-0.1,0.2-0.1c0.1-0.1,0.3-0.1,0.4-0.2
					c0,0,0.1-0.1,0.1-0.1C50.4,9.2,50.4,9.2,50.5,9.1C50.5,9.1,50.5,9.1,50.5,9.1z"/>
			</g>
		</g>
	</g>
	<g>
		<path class="st3" d="M48.5,9.5c0,0,0.9-0.5,0.9-0.4c0.1,0.1,0.3,0.6,0.4,0.8c0,0-2.1,1.1-2.1,1.1c0,0,0,0,0-0.1
			c0-0.1-0.2-0.6-0.2-0.7C47.4,10,48.3,9.5,48.5,9.5z"/>
		<g>
			<g>
				<path class="st5" d="M47.7,10.6C47.8,10.6,47.8,10.6,47.7,10.6c0.2-0.1,0.3-0.1,0.4-0.2c0.1-0.1,0.2-0.1,0.3-0.1
					c0,0,0.1,0,0.1-0.1c0.1-0.1,0.2-0.1,0.3-0.2c0.1-0.1,0.2-0.1,0.3-0.2c0.1-0.1,0.2-0.1,0.3-0.1c0,0,0,0,0,0l0,0
					c0,0-0.1-0.2-0.1-0.3c0-0.1,0,0,0,0c0,0-0.1,0.1-0.2,0.1c-0.1,0-0.2,0.1-0.3,0.1c-0.1,0-0.1,0-0.2-0.1c0-0.1-0.1-0.1-0.1-0.2
					c0,0,0-0.1,0-0.1c0.1-0.1,0.3-0.2,0.5-0.3c0.1-0.1,0.6-0.3,0.7,0c0.2,0.4,0.2,0.3,0.4,0.7l0,0.1l0,0.1l0,0l0,0c-0.1,0,0,0-0.1,0
					c0,0.1-0.3,0.3-0.4,0.4c-0.1,0.1-0.2,0.1-0.3,0.2c-0.2,0.1-0.3,0.2-0.4,0.2c-0.2,0.1-0.3,0.2-0.5,0.2L48.1,11l-0.2,0.1
					c-0.1,0-0.2,0-0.2,0c-0.1,0-0.2-0.1-0.3-0.2c0-0.1-0.1-0.2-0.1-0.2l0-0.1c0-0.1-0.2-0.4,0-0.6c0.2-0.2,0.3-0.2,0.4-0.3
					c0.1-0.1,0.2-0.1,0.3-0.2c0.1-0.1,0.2-0.1,0.3-0.2c0.1,0,0.1,0,0.2,0.1c0,0.1,0.1,0.1,0.1,0.2c0,0,0,0.1,0,0.1l-0.2,0.1
					c-0.2,0.1-0.4,0.2-0.5,0.3c-0.1,0-0.1,0.1-0.1,0.1c0,0,0,0,0,0.1L47.7,10.6C47.7,10.5,47.7,10.6,47.7,10.6z"/>
			</g>
		</g>
	</g>
	<g>
		<path class="st3" d="M45.5,11.7c0.5-0.1,2.1-0.8,2.1-0.8L47.4,10c-0.3,0.1-1.3,0.4-1.4,0.5C45.7,10.7,45.5,11.4,45.5,11.7z"/>
		<g>
			<g>
				<path class="st5" d="M46.6,10.1c0.1,0,0.2,0,0.3-0.1C47,9.9,47,9.9,47.3,9.8c0.1,0,0.2-0.1,0.2-0.1c0,0.1,0.1,0.2,0.1,0.2
					c0,0.1,0,0.1,0.1,0.2c0.1,0.1,0.1,0.2,0.1,0.3c0,0.1,0.1,0.4,0.2,0.5c-0.2,0.1-0.4,0.2-0.5,0.2c-0.1,0-0.2,0.1-0.3,0.1
					c-0.1,0.1-0.3,0.1-0.4,0.2c-0.1,0.1-0.3,0.1-0.4,0.2c-0.1,0-0.2,0.1-0.3,0.1c-0.1,0-0.2,0.1-0.3,0.1c-0.1,0-0.1,0-0.2-0.1
					c0-0.1,0-0.1-0.1-0.2c0-0.1,0-0.1,0-0.1c0.3-0.1,0.6-0.2,0.9-0.3c0.2-0.1,0.4-0.2,0.6-0.3c0.1,0,0.2-0.1,0.3-0.1c0,0,0,0,0,0
					c0,0.1-0.1-0.2-0.1-0.3c0,0,0,0,0,0c0,0-0.1,0-0.2,0l-0.2,0.1l-0.5,0.2c-0.1,0-0.2,0.1-0.2,0.1c0,0-0.1,0.1-0.1,0.2
					c0,0.1-0.1,0.2-0.1,0.3c0,0.1-0.1,0.2-0.1,0.3c0,0.1,0,0.1-0.2,0.1c-0.1,0-0.1,0-0.2,0c0,0-0.1,0-0.1-0.1c0-0.1,0-0.2,0-0.3
					c0-0.2,0.1-0.4,0.2-0.6c0-0.1,0.1-0.2,0.2-0.2c0.3-0.2,0.4-0.3,0.7-0.4L46.6,10.1z"/>
			</g>
		</g>
	</g>
	<g>
		<g>
			<g>
				<path class="st5" d="M56.2,9.1C56.1,9,56,8.9,56,8.9c-0.1-0.1-0.2-0.2-0.3-0.3c-0.1-0.1-0.1-0.2-0.1-0.3c0,0,0-0.1-0.1-0.1
					c-0.1-0.2-0.1-0.2-0.2-0.3c-0.1-0.1-0.1-0.2-0.2-0.3c0-0.1-0.1-0.1-0.1-0.1c0-0.1,0,0,0,0c0,0,0,0,0,0c0,0,0,0,0,0l0.1,0.1
					c0.1,0.2,0.2,0.3,0.3,0.4c0.1,0.1,0.1,0.2,0.2,0.3c0.1,0.1,0.1,0.2,0.2,0.3c0.1,0.1,0.1,0.1,0,0.2c0,0,0,0.1-0.1,0.1
					c0,0,0,0-0.1,0c-0.3-0.3-0.6-0.6-0.8-0.9l-0.1-0.2c0-0.1-0.1-0.2-0.2-0.3c-0.1-0.2-0.1-0.4,0.1-0.4C54.7,6.7,54.9,6.8,55,7
					c0.1,0.2,0.2,0.3,0.3,0.4c0.1,0.2,0.2,0.4,0.3,0.5c0.1,0.2,0.2,0.4,0.2,0.5c0.1,0.1,0.3,0.3,0.5,0.4c0.1,0.2,0.2,0.3,0.4,0.7
					c0,0.1,0,0.2-0.1,0.3c-0.1,0.1-0.2,0-0.3-0.1c-0.1-0.1-0.1-0.1-0.2-0.2L56,9.5c-0.1-0.1-0.2-0.3-0.2-0.4
					c-0.1-0.1-0.1-0.3-0.2-0.4c0-0.1,0-0.1,0-0.2c0,0,0.1,0,0.1,0c0,0,0,0,0.1,0c0,0.1,0.1,0.2,0.1,0.3C56,9,56.2,9.2,56.3,9.4
					c0,0,0,0.1,0.1,0.1c0,0,0,0,0.1,0c0,0,0-0.1,0-0.1l-0.1-0.1C56.3,9.3,56.2,9.2,56.2,9.1z"/>
			</g>
		</g>
	</g>
	<g>
		<path class="st3" d="M39.8,14.9c0,0-1.4-0.8-2-1c-0.6-0.2-1.1-0.5-1.2-0.5c-0.1,0-0.3-0.1-0.6,0.1c-0.2,0.1-1.7,0.7-1.7,0.7l2,2
			L39.8,14.9z"/>
		<g>
			<g>
				<path class="st5" d="M35.8,16c-0.1-0.1-0.3-0.3-0.4-0.4c-0.2-0.2-0.3-0.4-0.5-0.5c-0.2-0.1-0.3-0.3-0.4-0.4
					c-0.1-0.1-0.2-0.2-0.4-0.3c-0.1-0.1-0.2-0.2-0.2-0.2c0.1,0,0.2-0.1,0.3-0.1c0.2-0.1,0.3-0.1,0.5-0.2c0.2-0.1,0.4-0.2,0.6-0.3
					c0.2-0.1,0.4-0.2,0.6-0.2c0.2-0.1,0.6-0.1,0.8-0.1l0.1,0c0.4,0.1,0.7,0.3,1,0.4c0.3,0.1,0.6,0.3,0.9,0.4
					c0.2,0.1,0.4,0.2,0.6,0.3c0.2,0.1,0.4,0.2,0.6,0.3c0.1,0.1,0.2,0.2,0.1,0.3c0,0.1,0,0.1-0.1,0.2c0,0-0.1,0-0.1,0
					c-0.6-0.3-1.2-0.6-1.8-0.9l-0.6-0.3c-0.2-0.1-0.5-0.2-0.6-0.2l-0.1,0c-0.2,0-0.3,0-0.6,0.1l-0.7,0.3l-0.4,0.2c0,0,0,0,0,0l0,0
					l0.1,0.1l0.4,0.4l1,1.1l0.3-0.1c0.5-0.2,1-0.3,1.5-0.5c0.2-0.1,0.5-0.2,0.7-0.2c0.2-0.1,0.5-0.2,0.7-0.2c0.2-0.1,0.2,0,0.3,0.1
					c0,0.1,0,0.1,0,0.2c0,0,0,0.1-0.1,0.1l-0.5,0.2c-0.4,0.1-0.8,0.2-1.2,0.4c-0.2,0.1-0.3,0.1-0.5,0.2l-1.4,0.5l-0.1-0.1L35.8,16z"
					/>
			</g>
		</g>
	</g>
</g>
<g>
	<g>
		<g>
			<path d="M8.1,18.6C8.1,18.6,8.1,18.6,8.1,18.6L8.1,18.6z"/>
			<path d="M9,18.9c0-0.2,0-0.2,0-0.1C9,18.8,9,18.8,9,18.9c-0.1,0-0.2-0.1-0.3-0.1c-0.1,0-0.1-0.1-0.2-0.1c-0.1,0-0.2-0.1-0.3-0.1
				c0,0-0.1-0.1-0.1,0l0,0l0,0l0,0l0,0l0,0c0-0.1,0-0.1,0-0.1c0,0-0.1,0-0.1,0c0,0-0.1,0.1-0.1,0c0-0.1-0.1,0.1-0.1,0
				c-0.1,0-0.2,0-0.2,0c-0.1,0-0.2-0.1-0.2-0.1c-0.1,0-0.1,0-0.2,0c-0.1,0-0.1,0-0.2,0c-0.1,0-0.2,0-0.3,0c-0.1,0-0.2,0-0.3,0
				c0,0-0.1,0-0.1-0.1c0,0,0,0-0.1,0.1l0,0.1c-0.2,0.8-0.2,1.1-0.1,1c0.1,0,0.2,0,0.2,0c0,0,0.1,0,0.1,0c0.1,0,0.2,0,0.2,0
				c0,0,0.1,0.1,0.1,0c0,0,0.1,0,0.1,0c0.1,0.1,0.2,0,0.3,0.1c0.1,0,0.2,0,0.2,0.1c0,0,0,0,0,0c0,0,0.1,0,0.1,0
				c0.1,0,0.2,0.1,0.3,0.1c0,0,0.1,0,0.1,0c0,0,0,0.1,0,0.1c0-0.1,0.1,0,0.1,0c0.1,0,0.1,0.1,0.2,0.1c0.1,0,0.1,0,0.2,0
				c0.1,0.1,0.2,0.1,0.3,0.1c0,0,0,0,0.1-0.1C8.9,19.7,9,19.3,9,18.9z"/>
		</g>
		<g>
			<path d="M13.9,19.8C13.9,19.8,13.9,19.8,13.9,19.8L13.9,19.8z"/>
			<path d="M14.9,20c0-0.2,0-0.2,0-0.1C14.8,19.9,14.8,19.9,14.9,20c-0.1,0-0.2-0.1-0.3-0.1c-0.1,0-0.2-0.1-0.2-0.1
				c-0.1,0-0.2-0.1-0.3-0.1c0,0-0.1-0.1-0.1,0l0,0l0,0l0,0l0,0l0,0c0-0.1,0-0.1,0-0.1c0,0-0.1,0-0.1,0c0,0-0.1,0.1-0.1,0
				c0-0.1-0.1,0.1-0.1,0c-0.1,0-0.2,0-0.2,0c-0.1,0-0.2-0.1-0.2,0c-0.1,0-0.1,0-0.2,0c-0.1,0-0.1,0-0.2,0c-0.1,0-0.2,0-0.3,0
				c-0.1,0-0.2,0-0.3,0c0,0-0.1,0-0.1-0.1c0,0,0,0-0.1,0.1l0,0.1c-0.1,0.8-0.2,1.1,0,1c0.1-0.1,0.2,0,0.3,0c0,0,0.1,0,0.1,0
				c0.1,0,0.2,0,0.2,0c0,0,0.1,0.1,0.1,0c0-0.1,0.1,0,0.1,0c0.1,0.1,0.2,0,0.3,0.1c0.1,0,0.2,0,0.2,0.1c0,0,0,0,0,0c0,0,0.1,0,0.1,0
				c0.1,0,0.2,0.1,0.3,0.1c0,0,0.1,0,0.1,0c0,0,0,0.1,0,0.1c0-0.1,0.1,0,0.1,0c0.1,0,0.1,0.1,0.2,0.1c0.1,0,0.1,0,0.2,0
				c0.1,0.1,0.2,0.1,0.3,0.1c0,0,0,0,0.1-0.2C14.8,20.8,14.9,20.4,14.9,20z"/>
		</g>
		<g>
			<path d="M19.8,20.3C19.8,20.3,19.8,20.3,19.8,20.3L19.8,20.3z"/>
			<path d="M20.8,20.3c0-0.2,0-0.2-0.1-0.1C20.7,20.2,20.7,20.2,20.8,20.3c-0.1,0-0.2,0-0.3,0c-0.1,0-0.2,0-0.2,0
				c-0.1,0-0.2,0-0.3,0c0,0-0.1,0-0.1,0.1l0,0l0,0l0,0l0,0l0,0c0-0.1,0-0.1,0-0.1c0,0-0.1,0-0.1,0c0,0-0.1,0.1-0.1,0
				c0-0.1-0.1,0.1-0.1,0c-0.1,0-0.2,0-0.2,0c-0.1,0-0.2,0-0.2,0c0,0-0.1,0-0.1,0c-0.1,0-0.1,0-0.2,0.1c-0.1,0-0.2,0.1-0.3,0.1
				c-0.1,0-0.2,0-0.3,0c0,0-0.1,0-0.1,0c0,0,0,0,0,0.2l0,0.1c0,0.8,0,1.1,0.1,1c0.1-0.1,0.2,0,0.3,0c0,0,0.1,0,0.1,0
				c0.1,0,0.1-0.1,0.2,0c0,0,0.1,0.1,0.1,0c0-0.1,0.1,0,0.1,0c0.1,0.1,0.2,0,0.3,0c0.1,0,0.2,0,0.2,0.1c0,0,0,0,0,0c0,0,0.1,0,0.1,0
				c0.1,0,0.2,0.1,0.3,0c0,0,0.1,0,0.1,0c0,0,0,0.1,0,0.1c0-0.1,0.1,0,0.1,0c0.1,0,0.1,0,0.2,0.1c0.1,0,0.1,0,0.2,0
				c0.1,0,0.2,0,0.3,0c0,0,0-0.1,0-0.2C20.8,21.1,20.8,20.7,20.8,20.3z"/>
		</g>
		<g>
			<path d="M25.6,19.5C25.6,19.5,25.6,19.5,25.6,19.5L25.6,19.5z"/>
			<path d="M26.5,19.3c-0.1-0.2-0.1-0.2-0.1-0.1C26.4,19.2,26.4,19.2,26.5,19.3c-0.1,0.1-0.2,0-0.3,0c-0.1,0-0.2,0-0.2,0
				c-0.1,0-0.2,0-0.3,0.1c0,0-0.1,0-0.1,0.1l0,0l0,0l0,0l0,0l0,0c0-0.1,0-0.1-0.1-0.1c0,0-0.1,0-0.1,0c0,0-0.1,0.1-0.1,0
				c-0.1-0.1,0,0.1-0.1,0c-0.1,0-0.2,0.1-0.2,0.1c-0.1,0-0.2,0-0.2,0.1c0,0-0.1,0-0.1,0.1c-0.1,0.1-0.1,0.1-0.2,0.1
				c-0.1,0.1-0.2,0.1-0.3,0.1C24,20,24,20,23.9,20.1c0,0-0.1,0-0.1,0c0,0,0,0,0,0.2l0,0.1c0.1,0.8,0.2,1.1,0.3,1
				c0.1-0.1,0.2-0.1,0.2-0.1c0,0,0.1,0,0.1,0c0.1,0,0.1-0.1,0.2-0.1c0,0,0.1,0,0.1,0c0-0.1,0-0.1,0.1-0.1c0.1,0,0.2-0.1,0.3-0.1
				c0.1,0,0.1-0.1,0.2,0c0,0,0,0,0,0c0,0,0.1,0,0.1-0.1c0.1-0.1,0.2,0,0.3-0.1c0,0,0.1,0,0.1,0c0,0,0.1,0.1,0.1,0.1
				c0-0.1,0.1,0,0.1,0c0.1,0,0.1,0,0.2,0c0.1,0,0.1-0.1,0.2,0c0.1,0,0.2,0,0.3-0.1c0,0,0-0.1,0-0.2C26.8,20.1,26.6,19.7,26.5,19.3z"
				/>
		</g>
		<g>
			<path d="M31.1,17.4C31.1,17.4,31.1,17.4,31.1,17.4L31.1,17.4z"/>
			<path d="M31.9,17C31.8,16.9,31.8,16.9,31.9,17C31.8,17,31.8,17,31.9,17c-0.1,0.1-0.2,0.1-0.3,0.1c-0.1,0-0.2,0-0.2,0.1
				c-0.1,0-0.2,0-0.3,0.1c0,0-0.1,0-0.1,0.1l0,0l0,0l0,0l0,0l0,0c0-0.1-0.1,0-0.1,0c0,0-0.1,0-0.1,0c0,0,0,0.1-0.1,0
				c-0.1-0.1,0,0.1-0.1,0c-0.1,0.1-0.1,0.1-0.2,0.1c-0.1,0-0.2,0-0.2,0.1c0,0-0.1,0-0.1,0.1c0,0.1-0.1,0.1-0.2,0.1
				c-0.1,0.1-0.2,0.1-0.3,0.2c-0.1,0-0.1,0.1-0.2,0.1c0,0-0.1,0-0.1,0c0,0,0,0,0,0.2l0,0.1c0.3,0.7,0.5,1,0.6,0.9
				c0-0.1,0.1-0.1,0.2-0.1c0,0,0.1-0.1,0.1-0.1c0.1,0,0.1-0.1,0.2-0.1c0,0,0.1,0,0.1-0.1c0-0.1,0-0.1,0.1-0.1c0.1,0,0.2-0.1,0.3-0.1
				c0.1,0,0.1-0.1,0.2,0c0,0,0,0,0,0c0,0,0.1,0,0.1-0.1c0.1-0.1,0.2,0,0.3-0.1c0-0.1,0.1,0,0.1-0.1c0,0,0.1,0.1,0.1,0.1
				c0-0.1,0.1,0,0.1,0c0,0,0.1,0,0.2,0c0.1,0,0.1-0.1,0.2-0.1c0.1,0,0.2-0.1,0.3-0.1c0,0,0-0.1,0-0.2C32.3,17.8,32.1,17.4,31.9,17z"
				/>
		</g>
	</g>
</g>
<g>
	<g>
		<g>
			<path d="M22.2,44.2c-0.1,0.4,0.1,0.8,0.3,1.1c0.1,0.2,0.2,0.4,0.4,0.5c0.3,0.3,0.8,0.3,1.2,0.3c0.2,0,0.4,0,0.6-0.1
				c0.4-0.2,0.6-0.6,0.8-0.9c0.1-0.2,0.2-0.5,0.2-0.7"/>
			<g>
				<g>
					<path class="st5" d="M25.5,44.4L25.5,44.4c0.4-0.1,0.4,0,0.4,0.3c0,0.1-0.1,0.3-0.1,0.4c-0.1,0.2-0.1,0.3-0.2,0.5
						c0,0.1-0.1,0.1-0.1,0.2c-0.1,0.2-0.2,0.3-0.3,0.4c-0.1,0.1-0.1,0.1-0.2,0.2c-0.2,0.1-0.4,0.2-0.5,0.2c-0.2,0-0.3,0.1-0.5,0
						c-0.1,0-0.2,0-0.4,0c-0.1,0-0.1,0-0.2,0c-0.1,0-0.3-0.1-0.4-0.2c-0.2-0.1-0.4-0.2-0.5-0.4c-0.1-0.1-0.1-0.1-0.2-0.2
						c0-0.1,0-0.1-0.1-0.2c0-0.1-0.1-0.1-0.1-0.2c0-0.1-0.1-0.2-0.2-0.4c0-0.2-0.1-0.4-0.1-0.6c0-0.1,0.2-0.2,0.3-0.1
						c0.1,0,0.1,0,0.2,0.1c0,0.1,0,0.1,0,0.2c0,0.1,0.1,0.2,0.2,0.4c0.1,0.2,0.2,0.4,0.3,0.6c0.2,0.2,0.5,0.4,0.9,0.4
						c0.2,0,0.5,0,0.7-0.1c0.2-0.1,0.3-0.2,0.4-0.4c0.1-0.3,0.3-0.6,0.3-0.8c0,0,0-0.1,0-0.1c0,0,0,0,0.1,0L25.5,44.4z"/>
				</g>
			</g>
		</g>
		<g>
			<path d="M7.5,44.6c0.3-0.8,0.9-1.5,1.6-2.1c1.1-1.1,4.6-4.3,8.7-5.3c0.4-1.2-1-2.1-0.8-2.3c0.1-0.1,1-0.5,1.8-0.2
				c1.2,0.5,2.3,1.8,2.4,1.8c1.2,0,2.1-0.2,4.6-0.1c2.5,0.1,5.6,1.2,6.8,4.1c0.2,0.4,0.3,0.8,0.2,1.2c-0.1,0.4-0.6,0.7-1,0.9
				c-4.7,2.7-7.4,1.7-11.7,1.2c-3.1-0.4-6.4-0.6-9.3,0.6c-0.6,0.2-1.1,0.6-1.5,1s-0.6,1.2-0.3,1.8c0.1,0.3,0.3,0.5,0.4,0.8
				c0.3,0.7-1.6,2.3-2.4,2.4c0.4-1.6,0.4-2.8,0.2-4.5c-1.5-0.7-3.3-0.4-4.5,0.6C3.1,43.3,5.6,43.6,7.5,44.6"/>
			<g>
				<g>
					<path class="st5" d="M7.4,44.3L7.4,44.3c-1-0.5-2.4-0.9-3.6-0.2c-0.4,0.3-0.7,0.7-1,1.1c-0.1,0.2-0.2,0.4-0.3,0.7
						c-0.1,0.3-0.2,0.8-0.2,1c0.3-0.2,0.6-0.5,0.9-0.7c0.2-0.1,0.3-0.2,0.5-0.3c0.4-0.2,0.7-0.3,1.1-0.3c0.4,0,0.8,0,1.2,0
						c0.2,0,0.4,0.1,0.6,0.1c0.1,0,0.2,0.1,0.3,0.1c0,0,0,0,0,0.1c0.1,1,0.2,2.1,0,3.1l-0.1,0.4L6.7,50c-0.1,0.2-0.1,0.4-0.1,0.6
						c0.2-0.1,0.4-0.1,0.6-0.2c0.2-0.1,0.4-0.2,0.5-0.2C7.9,50.1,8,50.1,8.1,50c0.2-0.2,0.4-0.3,0.6-0.5c0.3-0.3,0.5-0.5,0.7-0.9
						c0.1-0.2,0.2-0.5,0-0.7c-0.1-0.2-0.2-0.3-0.3-0.5c-0.4-0.5-0.2-1.3,0.2-1.7l0,0l0.1-0.1l0,0c0.3-0.4,0.8-0.7,1.3-0.9
						c2.2-0.9,4.6-1,6.9-0.8c2.4,0.1,4.7,0.6,7.1,0.8c1.5,0.1,3.1-0.1,4.6-0.6c0.7-0.3,1.3-0.5,2-0.9c0.3-0.2,0.6-0.3,0.9-0.5
						c0.3-0.2,0.7-0.5,0.8-1c0.1-0.4,0-0.8-0.2-1.2c-0.2-0.3-0.3-0.7-0.5-1c-0.4-0.6-0.9-1.2-1.5-1.6l0,0c-0.2-0.2-0.5-0.4-0.7-0.5
						c-1.2-0.7-2.6-1.1-3.9-1.2c-1.3-0.1-2.7-0.1-4,0l-0.7,0c-0.2,0-0.1,0-0.1,0L20.9,36c-0.3-0.3-0.7-0.7-1.1-1
						c-0.4-0.3-0.8-0.6-1.4-0.7c-0.3,0-0.5,0-0.8,0c-0.1,0-0.3,0.1-0.4,0.1c-0.1,0-0.1,0-0.2,0.1c-0.1,0-0.2,0.1-0.3,0.2
						c-0.1,0.1-0.1,0.3,0,0.5c0.2,0.4,0.4,0.5,0.5,0.8c0.1,0.2,0.3,0.5,0.3,0.7c0,0.1,0,0.3,0,0.3c0,0,0,0-0.2,0.1
						c-0.3,0.1-0.6,0.2-0.9,0.3c-1.1,0.4-2.2,0.9-3.2,1.6c-1.2,0.7-2.2,1.5-3.3,2.4c-0.5,0.4-1,0.9-1.4,1.4
						C8.2,43.2,7.7,43.7,7.4,44.3L7.4,44.3l0,0.2l0,0c0,0.3,0.3-0.3,0.7-0.6c0.2-0.2,0.6-0.6,1-1c0.3-0.4,0.7-0.7,1.1-1.1
						c1.3-1.1,2.6-2.1,4.1-2.9c0.6-0.4,1.3-0.7,2-1c0.3-0.1,0.7-0.3,1-0.4c0.2-0.1,0.3,0,0.6-0.2l0.1-0.2c0-0.1,0-0.1,0-0.2
						c0-0.1,0-0.2,0-0.3c0-0.4-0.2-0.7-0.4-1c-0.2-0.3-0.5-0.6-0.4-0.6c0,0,0.2-0.1,0.4-0.1c0.2,0,0.3-0.1,0.5-0.1
						c0.3,0,0.6,0.1,0.9,0.2c0.6,0.3,1.1,0.8,1.6,1.3c0.1,0.1,0.2,0.2,0.4,0.4c0.1,0,0.1,0.1,0.2,0l0.1,0l0.3,0l1.1-0.1
						c0.7-0.1,1.4-0.1,2.1,0c1.2,0,2.4,0.2,3.5,0.6c1.1,0.4,2.2,1,3,1.9c0.4,0.5,0.8,1,1,1.6c0.1,0.3,0.2,0.6,0.2,0.9
						c0,0.3-0.2,0.5-0.5,0.7c-1.1,0.7-2.3,1.3-3.6,1.7c-2,0.6-4,0.4-6.1,0.1c-1.2-0.2-2.3-0.3-3.5-0.5l0,0c-1.5-0.1-3.1-0.2-4.7-0.1
						c-1.2,0.1-2.5,0.3-3.7,0.8l0,0c-0.6,0.3-1.3,0.6-1.7,1.2c-0.4,0.6-0.6,1.4-0.2,2.1c0.2,0.3,0.4,0.6,0.3,0.7
						c-0.1,0.2-0.3,0.5-0.5,0.7c-0.2,0.2-0.4,0.4-0.7,0.6c-0.1,0.1-0.3,0.2-0.4,0.3l-0.2,0.1l0,0c0,0,0,0,0,0l0-0.2
						c0.1-0.3,0.1-0.7,0.1-1c0.1-0.7,0.1-1.3,0-2l0-0.5l-0.1-0.6c-0.3-0.1-0.4-0.2-0.6-0.2c-0.2-0.1-0.3-0.1-0.5-0.1
						c-0.7-0.1-1.4-0.1-2,0.1c-0.3,0.1-0.6,0.2-0.9,0.3c-0.1,0-0.1,0.1-0.2,0.1l-0.1,0l0,0c0,0,0,0,0,0c0,0,0,0,0-0.1l0.1-0.2
						c0.1-0.3,0.3-0.6,0.5-0.8c0.4-0.5,1.1-0.7,1.8-0.6c0.5,0,1,0.2,1.5,0.4C7.7,44.8,7.7,44.6,7.4,44.3z"/>
					<path class="st5" d="M18.9,43.5L18.9,43.5C18.9,43.5,18.9,43.5,18.9,43.5L18.9,43.5z"/>
				</g>
			</g>
		</g>
		<g>
			<path class="st2" d="M25.5,38.2c1.2-0.2,1.8,0.3,1.9,0.5c0.1,0.3-0.1,0.7-0.3,0.8c-0.3,0.2-0.6,0.2-0.9,0.2
				c-0.6,0.1-1.3,0-1.9-0.3c-0.1-0.1-0.2-0.2-0.3-0.3c-0.1-0.1,0-0.3,0-0.4C24.2,38.2,25.5,38.2,25.5,38.2z"/>
			<g>
				<g>
					<path class="st5" d="M26.3,40c-0.1,0-0.2,0-0.3,0c-0.4,0-0.9,0-1.4-0.1c0,0,0,0-0.1,0l0,0c-0.3-0.1-0.5-0.2-0.7-0.6
						c-0.2-0.5,0.2-0.8,0.5-1c0.3-0.2,0.6-0.2,0.9-0.2c0.1,0,0.3,0,0.3,0.1c0,0.1-0.1,0.2-0.2,0.2c-0.4,0-0.8,0.1-1,0.4
						c-0.1,0.1-0.1,0.2-0.1,0.3c0,0.1,0,0.1,0.1,0.2c0.2,0.1,0.5,0.3,0.7,0.3c0.5,0.1,1,0.1,1.5,0c0.5-0.1,0.8-0.4,0.8-0.7
						c0-0.1-0.1-0.2-0.3-0.3c-0.2-0.1-0.3-0.2-0.5-0.2c-0.1,0-0.2,0-0.3,0l0,0c-0.1-0.1-0.2,0-0.3,0l0,0c0,0-0.1,0-0.1,0
						c-0.2,0-0.2,0-0.2-0.2c0,0,0-0.1,0-0.1l0,0l0,0c0.1-0.1,0.3-0.1,0.4-0.1c0.3,0,0.7,0,1,0.2c0.2,0.1,0.3,0.1,0.5,0.3
						c0.1,0.1,0.2,0.2,0.2,0.3c0,0.1,0,0.2,0,0.3c-0.1,0.5-0.6,0.8-1,0.9C26.5,39.9,26.4,40,26.3,40L26.3,40z"/>
				</g>
			</g>
		</g>
		<g>
			<path class="st2" d="M8.9,45.4c1.1-1.7,2.7-3.1,4.5-3.8c1.9-0.8,4-0.9,5.9-0.5c-0.1,0,4.4,1.7,6.6,0.7c0.6-0.3,1.2-0.6,1.8-1
				c1.2-0.8,3-0.5,3.8-0.1c0.3,0.2,0.7,0.4,0.9,0.7c0.1,0.1,0.1,0.3,0.1,0.4c0,0.1-0.1,0.1-0.2,0.2c-1.9,1.5-4.3,2.2-6.7,2.4
				c-2.4,0.1-4.7-0.6-7.1-0.9c-1-0.1-1.4-0.1-2.6-0.1c-0.6,0-1.2,0.2-1.8,0.2c-0.6,0.1-1.1,0.2-1.7,0.3
				C11.2,44.3,10.1,44.9,8.9,45.4"/>
			<g>
				<g>
					<path class="st5" d="M30.3,40.1c0.7,0.1,1.4,0.3,2.1,0.8c0.1,0.1,0.3,0.3,0.3,0.4c0.1,0.1,0.1,0.2,0.1,0.3c0,0.1,0,0.3-0.1,0.4
						c-0.1,0.1-0.1,0.2-0.2,0.3l-0.2,0.1c-0.1,0.1-0.2,0.2-0.4,0.3c-0.2,0.2-0.5,0.3-0.8,0.5c-0.5,0.3-1.1,0.5-1.6,0.7
						c-1.1,0.4-2.3,0.7-3.4,0.8c-0.1,0-0.3,0-0.4,0l0,0c-1.6,0.1-3.2-0.2-4.8-0.5c-0.9-0.2-1.8-0.3-2.7-0.4c-0.9,0-1.8-0.1-2.7-0.1
						c-1.8,0.3-3.6,0.4-5.2,1.2C10,45.3,9.1,45.7,9,45.5c-0.1-0.2,0.4-0.6,1.3-1c0.6-0.3,1.1-0.5,1.7-0.6c0.6-0.1,1.2-0.2,1.8-0.3
						c0.6-0.1,1.2-0.2,1.8-0.3c0.6,0,1.2,0,1.8,0c1.8,0,3.5,0.4,5.2,0.7c1.7,0.3,3.4,0.3,5.1-0.1c0.8-0.2,1.6-0.5,2.4-0.8
						c0.4-0.2,0.8-0.4,1.1-0.6c0.2-0.1,0.3-0.2,0.5-0.3c0.2-0.1,0.4-0.3,0.4-0.3c0.1,0-0.1-0.4-0.4-0.5c-0.3-0.2-0.6-0.3-0.9-0.4
						c-0.6-0.2-1.3-0.3-2-0.2c-0.3,0-0.7,0.1-0.9,0.3c-0.3,0.2-0.6,0.4-0.9,0.6c-0.3,0.2-0.7,0.4-1,0.5c-0.4,0.2-0.8,0.3-1.1,0.3
						c-1.5,0.2-3-0.2-4.5-0.6l-0.6-0.2l-0.3-0.1l-0.2-0.1l-0.1,0l0,0l0,0l0,0l0,0c0,0.1,0-0.1,0-0.1c0,0,0,0,0,0c0,0,0,0,0.1,0
						c0,0,0.1-0.1,0-0.1c-0.1-0.1-0.1,0-0.1,0l-0.1,0.3c-2-0.5-4.1-0.3-6,0.5c-0.5,0.2-1.1,0.5-1.5,0.9l0,0
						c-0.6,0.3-1.1,0.9-1.6,1.3l0,0c-0.2,0.2-0.3,0.3-0.5,0.5c-0.6,0.8-0.8,1-0.8,0.6c0-0.1-0.1-0.1,0-0.3l0,0l0,0
						c0.3-0.7,0.9-1.3,1.5-1.9c2.4-2.2,5.8-3,8.9-2.3l-0.2,0.5c0,0,0,0-0.1-0.1c0,0-0.1-0.1,0-0.2c0.1-0.1,0.2-0.2,0.2-0.2
						c0.1,0,0.1,0,0.1,0l0,0l0,0l0,0l0,0l0.1,0l0.1,0l0.3,0.1l0.5,0.2c0.4,0.1,0.7,0.2,1.1,0.3c1.1,0.3,2.3,0.4,3.4,0.3
						c0.6-0.1,1-0.3,1.6-0.6c0.3-0.1,0.5-0.3,0.7-0.5c0.2-0.2,0.5-0.4,0.8-0.5C28.9,40,29.6,40,30.3,40.1L30.3,40.1z"/>
				</g>
			</g>
		</g>
		<g>
			<path d="M16.3,40.1c-0.3,1.3-1.1,3-1.8,4.1c-0.1,0.2-0.2,0.3-0.2,0.5c0,0.5,0.5,0.7,1,0.7c0.9,0,1.8-0.6,2.4-1.3
				c0.8-0.8,2.1-2.7,2.8-3.6"/>
			<g>
				<g>
					<path class="st5" d="M17.9,44.4c-0.2,0.2-0.3,0.3-0.5,0.4c-0.2,0.2-0.5,0.3-0.7,0.5c-0.2,0.1-0.4,0.2-0.6,0.3
						c-0.1,0-0.2,0.1-0.3,0.1c-0.3,0.1-0.6,0.1-0.9,0c-0.3-0.1-0.6-0.2-0.8-0.5c-0.2-0.3-0.1-0.7,0-0.9c0.1-0.2,0.3-0.4,0.4-0.7
						c0.2-0.3,0.3-0.6,0.5-1c0.1-0.3,0.3-0.6,0.4-1c0.1-0.2,0.1-0.4,0.2-0.6c0.1-0.2,0.2-0.4,0.2-0.7c0.1-0.2,0.1-0.2,0.3-0.2
						c0.1,0,0.1,0,0.2,0c0.1,0,0.1,0.1,0.1,0.2c-0.2,0.8-0.5,1.5-0.8,2.2c-0.2,0.5-0.4,1-0.7,1.5c-0.1,0.2-0.3,0.5-0.3,0.6
						c0,0.2,0,0.2,0.1,0.3c0.2,0.1,0.5,0.2,0.8,0.1c0.3-0.1,0.7-0.2,1-0.4c0.6-0.4,1.1-0.9,1.6-1.5c0.4-0.4,0.7-0.9,1.1-1.3
						c0.2-0.2,0.3-0.4,0.5-0.6l0.5-0.7c0.1-0.2,0.2-0.2,0.3-0.1c0.1,0,0.1,0.1,0.2,0.2c0,0,0,0.1,0,0.1l-0.4,0.5
						c-0.3,0.4-0.6,0.7-0.8,1.1c-0.1,0.2-0.2,0.3-0.3,0.4c-0.3,0.4-0.6,0.8-0.9,1.2C18.1,44.1,18,44.3,17.9,44.4z"/>
				</g>
			</g>
		</g>
	</g>
</g>
</svg>
