<?xml version="1.0" encoding="utf-8"?>
<!-- Generator: Adobe Illustrator 24.2.1, SVG Export Plug-In . SVG Version: 6.00 Build 0)  -->
<svg version="1.1" id="Layer_1" xmlns="http://www.w3.org/2000/svg" xmlns:xlink="http://www.w3.org/1999/xlink" x="0px" y="0px"
	 viewBox="0 0 53.7 80.6" style="enable-background:new 0 0 53.7 80.6;" xml:space="preserve">
<style type="text/css">
	.st0{opacity:0.25;}
	.st1{fill:#396A7C;}
	.st2{fill:#FFFFFF;}
	.st3{fill:#231F20;}
	.st4{fill:#EAEAE9;}
</style>
<g class="st0">
	<path class="st1" d="M8.3,17.4C21.1,13.4,34,9.8,47,6.5c0,3.9,0.1,7.8,0.1,11.6"/>
</g>
<g class="st0">
	<polygon class="st1" points="7.3,80.6 53.7,80.3 53.7,17.7 6.8,17.7 	"/>
</g>
<g>
	<path class="st2" d="M0.1,11.6C12.9,7.6,25.9,4,38.9,0.7c0,3.9,0.1,7.8,0.1,11.6"/>
	<g>
		<g>
			<path class="st3" d="M30.3,2.3l1.9-0.5c1.9-0.5,3.8-1,5.8-1.5L39.4,0l0.1,6.2c0,1.6,0,3.2-0.1,4.7c0,0.3,0,0.6,0,0.9
				c0,0.1,0,0.3-0.1,0.3c-0.3,0-0.5,0.2-0.8,0.1c-0.1-0.1-0.2-0.2-0.2-0.4l0-5.2c0-0.8,0.1-1.6,0-2.4c0-0.6,0-1.2,0-1.8l0-1.3
				l-0.2,0L35,2.1C34,2.4,32.9,2.7,31.8,3c-1.5,0.4-2.9,0.7-4.4,1.1L24.2,5l-4.9,1.4c-1.5,0.4-3,0.9-4.5,1.2c-1.5,0.4-3,0.8-4.4,1.3
				C10.3,9,10.1,9,10,9.1l0,0L9.9,9.2l0,0C9.3,9.3,8.7,9.5,8.1,9.7c-1.2,0.4-2.4,0.8-3.6,1.1c-0.6,0.1-1.2,0.3-1.9,0.6
				c-0.5,0.2-1.1,0.3-1.6,0.5c-0.6,0.3-0.6,0.1-0.8,0c-0.1,0,0-0.1,0-0.2c0.1-0.2,0.3-0.4,0.2-0.6c-0.1-0.1,0.3-0.2,0.4-0.2
				c2.8-1,5.7-1.8,8.6-2.7l5.9-1.7c1.9-0.6,3.9-1,5.8-1.6c1.1-0.3,2.3-0.7,3.4-0.9c1.2-0.3,2.4-0.6,3.6-0.9
				C28.9,2.8,29.6,2.6,30.3,2.3L30.3,2.3z"/>
		</g>
	</g>
</g>
<g>
	<polygon class="st2" points="1.1,75.2 47.5,74.9 47.5,12.3 0.5,12.3 	"/>
	<g>
		<g>
			<path class="st3" d="M23.2,12.9c-2.8,0-5.6,0-8.5,0c-4.5,0-9.1,0-13.6,0L1.2,23c0.1,8.8,0.1,17.7,0.2,26.5c0,6.6,0.1,13.3,0,19.9
				c0,1.3,0,2.7,0.1,4c0,0.5,0,1.3-0.1,1.3c-0.3,0.2-0.6,0.8-0.9,0.2c-0.1-0.3-0.2-0.9-0.2-1.8L0.3,51.4c0-3.3,0.1-6.7,0-10
				c-0.1-6-0.1-12-0.2-18L0,11.8l9.3,0l8.8,0c6.4,0,12.8,0,19.2,0.1l10.7,0l0,4.1c0,7.1,0,14.2,0,21.3c0,6.5,0,13.1,0,19.6
				c0,3,0,6-0.1,9l0,4.5l0.1,5.1c-0.6,0-1.2,0-1.8,0c-0.8,0-1.6-0.1-2.3,0l0,0l-0.5,0l0,0c-2.6,0-5.1,0.1-7.7,0.1
				c-5.3,0-10.6,0.2-16,0.1c-2.6,0-5.4,0-8.3,0c-2.3,0-5,0-7.2,0.1c-2.7,0.1-2.6-0.1-3.1-0.3c-0.2-0.1,0-0.1,0.2-0.2
				c0.6-0.2,1.8-0.3,1.5-0.6c-0.2-0.1,1.3-0.1,2-0.1c12.6-0.2,25.3-0.3,38-0.3l4,0l0-20.6c0-8.4,0.1-16.9,0-25.3c0-5,0-10,0-15
				l0-0.3l0,0c-4.6,0-9.3,0-13.9-0.1C29.7,12.9,26.4,12.9,23.2,12.9L23.2,12.9z"/>
		</g>
	</g>
</g>
<g>
	<g>
		<g>
			<path class="st3" d="M22.1,53.8c0.3,0,0.5,0,0.8,0c0.3,0,0.6,0,0.9,0c0.3,0,0.5,0,0.7,0c0.1,0,0.2,0,0.3,0c0.2,0,0.6,0,0.8,0
				c0.2-0.1,0.6-0.1,0.9-0.1c0.3,0,0.5,0,0.8,0c0.3,0,0.6,0,0.8,0c0.4,0,0.8-0.1,1.3-0.1c0.4,0,0.8,0,1.2,0c0.3,0,0.5-0.1,0.8-0.1
				c0.3,0,0.5,0,0.8,0c0.2,0,0.3,0.1,0.3,0.3c0,0.1,0.1,0.1,0.2,0.2c0,0,0,0.1-0.1,0.1c0,0-0.1,0.1-0.1,0.1
				c-0.9,0.1-1.8,0.2-2.6,0.2c-0.6,0-1.1,0.1-1.8,0.2c-0.6,0-1.2,0-1.8,0c-0.2,0-0.3,0.1-0.6,0.1l-0.7,0c-0.5,0-1,0-1.4-0.1
				c-0.9,0-1.7,0-2.6-0.1c-0.7,0-1.3,0-2-0.1c-0.3,0-0.6-0.1-1-0.1c-0.3,0-0.6,0-1-0.1c-0.2,0-0.3-0.1-0.3-0.3
				c0-0.1,0.1-0.2,0.1-0.4c0-0.1,0.1-0.1,0.2-0.1l0.7,0c0.5,0,1,0.1,1.5,0.1c0.2,0,0.4,0,0.6,0c0.6,0,1.2,0,1.7,0L22.1,53.8z"/>
		</g>
	</g>
</g>
<g>
	<g>
		<g>
			<path class="st3" d="M22.1,51.1c0.1,0,0.2,0.1,0.3,0.1c0.1,0,0.2,0,0.3,0c0.3,0,0.6-0.1,0.9-0.1c0.2-0.1,0.5-0.1,0.7-0.1
				c0.1,0,0.2,0,0.3-0.1c0.4,0,0.6,0,0.9,0.1c0.3,0,0.5,0.1,0.8,0.1c0.2,0,0.5,0,0.7,0c0.3,0,0.5,0,0.8,0c0.4,0,0.8-0.1,1.2-0.2
				c0.4-0.1,0.8-0.2,1.2-0.3c0.3,0,0.5-0.1,0.8-0.2c0.3,0,0.5-0.1,0.9-0.1c0.2,0,0.4,0.1,0.4,0.3c0,0.1,0,0.2,0,0.3
				c0,0.1,0,0.1-0.1,0.1c-0.7,0.1-1.6,0.4-2.4,0.6c-0.6,0.1-1.2,0.3-1.8,0.3c-0.6,0.1-1.2,0-1.8,0l-0.6-0.1c-0.2,0-0.5-0.1-0.6-0.1
				c-0.4,0-0.8,0.1-1.3,0.1L22.9,52l-0.4,0c-0.1,0-0.4,0-0.4,0c-0.4-0.1-0.8-0.2-1.2-0.3c-0.5-0.1-1.2,0-1.9-0.1c-0.2,0-0.3,0-0.5,0
				c-0.1,0-0.2,0-0.3,0c-0.1,0-0.2,0-0.4-0.2c0,0-0.1-0.1-0.3-0.1L17.1,51c-0.1,0-0.2-0.1-0.3-0.2c0,0-0.1-0.2-0.1-0.2
				c0-0.1,0.1-0.2,0.2-0.1c0.1,0.1,0,0.1,0.1,0c0,0,0.1-0.1,0.1-0.1c0-0.1,0-0.1,0-0.1c0,0,0,0,0.1,0c0.2,0.1,0.4,0.1,0.7,0.2
				c0.1,0,0.1,0,0.2,0.1c0,0,0.1,0,0.3,0.3c0.1,0-0.5,0.2-0.3,0.1l0,0l0,0l0,0l0,0l0,0l0,0c0,0,0,0,0,0c0,0,0.1-0.1,0.1-0.1
				c0-0.1,0.1,0,0.2,0c0.2,0,0.5,0,0.7,0c0.2,0,0.4,0,0.6,0c0.3,0,0.5,0,0.9,0c0.3,0,0.6,0.1,0.9,0.2L22.1,51.1z"/>
		</g>
	</g>
</g>
<g>
	<path class="st4" d="M19.1,39.5c-0.9-0.9-1.2-2.3-0.9-3.5c0.3-1.2,1.3-2.2,2.5-2.6c0.9-0.3,2-0.2,2.7,0.4c0.8,0.5,1.2,1.6,1,2.5
		c0.1-1.1,1-2.1,2-2.6c1-0.6,2.4-0.9,3.4-0.2c0.5,0.4,0.8,1,1,1.6c0.7,2.8-0.9,5.5-2.6,7.8c-1,1.4-2.2,2.7-3.3,4
		c0,0-0.1,0.1-0.1,0.1c-0.1,0-0.2-0.1-0.2-0.1c-2.2-2.3-4.1-4.7-5.8-7.4"/>
	<g>
		<g>
			<path class="st3" d="M30.3,40.7c-0.3,0.5-0.6,1-0.9,1.5c-0.5,0.8-1.1,1.4-1.6,2.1l-1.7,2l-0.4,0.5l-0.3,0.3
				c-0.1,0.1-0.3,0.2-0.4,0.3c-0.3,0.1-0.5-0.2-0.8-0.4l-0.4-0.4L23,45.7c-0.5-0.5-1-1.1-1.4-1.7c-0.9-1.1-1.7-2.2-2.4-3.4
				c-0.1-0.2-0.3-0.5-0.5-0.7c-0.1-0.1-0.2-0.2-0.1-0.3c0.2-0.1,0.3-0.4,0.5-0.4c0.1,0,0.2,0.1,0.3,0.2c0.8,1.3,1.7,2.5,2.6,3.7
				c0.4,0.5,0.8,1.1,1.3,1.6l0.9,1l0.4,0.5l0.1,0.1c0,0,0,0.1,0.1,0c0.1,0,0,0,0.2-0.2l0.4-0.4l1.9-2.3c0.6-0.8,1.2-1.5,1.8-2.4
				c0.7-1.1,1.3-2.3,1.6-3.5c0.2-0.9,0.1-1.8-0.1-2.7c-0.2-0.7-0.6-1.2-1.1-1.4c-0.6-0.2-1.2-0.2-1.9,0.1c-1.1,0.4-2.2,1.3-2.5,2.5
				l0,0.2l-0.8-0.1c0.1-0.5,0-1.1-0.3-1.5c-0.3-0.5-0.8-0.8-1.4-0.9c-0.1,0-0.3-0.1-0.4-0.1l0,0l-0.1,0l0,0
				c-0.5-0.1-0.9,0.1-1.4,0.2c-0.9,0.4-1.6,1.2-1.9,2.1c-0.2,0.4-0.2,1-0.1,1.5c0.1,0.4,0.2,0.9,0.5,1.2c0.3,0.4,0.2,0.4,0.2,0.6
				c0,0.1-0.1,0.1-0.1,0.1c-0.2,0-0.4-0.1-0.5,0c-0.1,0.1-0.2-0.2-0.3-0.3c-0.8-1.2-0.9-3-0.1-4.3c0.7-1.3,2.2-2.2,3.7-2.1
				c0.9,0,1.8,0.4,2.4,1.1c0.6,0.7,0.9,1.6,0.8,2.6l-1-0.2c0-0.3,0.1-0.7,0.3-1c0.5-0.9,1.2-1.6,2.1-2.1c0.9-0.4,1.8-0.8,2.9-0.5
				c0.6,0.1,1.2,0.6,1.6,1.1c0.3,0.5,0.5,1.1,0.6,1.7c0.2,1.2,0,2.3-0.3,3.4C30.9,39.4,30.6,40.1,30.3,40.7L30.3,40.7z"/>
		</g>
	</g>
</g>
</svg>
