<?xml version="1.0" encoding="utf-8"?>
<!-- Generator: Adobe Illustrator 24.2.1, SVG Export Plug-In . SVG Version: 6.00 Build 0)  -->
<svg version="1.1" id="Layer_1" xmlns="http://www.w3.org/2000/svg" xmlns:xlink="http://www.w3.org/1999/xlink" x="0px" y="0px"
	 viewBox="0 0 196.8 156.3" style="enable-background:new 0 0 196.8 156.3;" xml:space="preserve">
<style type="text/css">
	.st0{opacity:0.25;fill:#396A7C;}
	.st1{fill:#E9E9E9;}
	.st2{fill:#FFFFFF;}
	.st3{fill:#221F1F;}
</style>
<path class="st0" d="M183.6,52.9C173.2,29,160.6,12,154.5,7.2C110.2,21.4,23,50.5,23,50.5c21.5,24.9,31.2,57.4,37.2,90.1
	c-1,0.1-2,0.5-2.8,1.1c-0.6-0.1-1.4-0.1-2.1-0.1c-1.3-0.1-2.7,0-3.9,0.3c-2.7,0.6-4.6,2.1-6.2,4.3c-2.4,3.2,0.9,7.4,4.3,7.5
	c3.8,0.1,7.3,0.9,10.8,2.4c0.8,0.3,1.7,0.3,2.5,0.1c0,0,0,0,0,0.1c28.7-12.4,58.1-22.9,88.1-31.5c14.6-4.2,45.2-12.8,45.7-13.3
	C197.4,110.7,193.9,76.9,183.6,52.9z"/>
<path class="st1" d="M45.1,146.3c0.2-0.5,0.2-1,0-1.4c-0.2-0.5-0.4-1-0.6-1.5c0.2-0.8-0.1-1.8-0.8-2.3c0.2-0.5,0.4-1,0.4-1.6
	c-0.2-4.8-0.9-11.2-3.7-15.7c1.2-1.1,1.9-2.7,1.2-4.8c-0.1-0.3-0.2-0.5-0.3-0.8c0.4-1.2,0.4-2.6-0.3-4c-0.6-1.2-1.3-2.5-1.9-3.7
	c-2.5-5.9-3.2-12.4-4.7-18.6c-1.9-7.6-5.3-14.6-10-20.8c-0.8-1.1-1.7-1.8-2.7-2.1c0.4-0.2,0.6-0.4,0.7-0.6c0.1-0.6-0.4-0.9-0.7-1.4
	c-0.1-0.1-0.4,0-0.7,0.1c-0.6,0.3-1.2,0.6-1.8,0.8c-3.1,1.1-6.2,2.4-9.3,3.6L3.7,74l-2.1,0.9l-1.4,0.6c-0.2,0,0,0.2,0.1,0.2L0.5,76
	L1,76.6l2.6,3.1c2.7,3.2,5.2,6.4,7.8,9.7c0.9,1.1,1.7,2.2,2.5,3.4l0,0c1,1.2,1.9,2.6,2.8,3.9c1.4,2.1,2.8,4.3,4.1,6.5
	c1.2,2.2,2.4,4.3,3.6,6.5c2,3.7,3.6,7.5,5,11.4c1.4,4,2.6,8.1,3.8,12.3c0.9,3.1,2,6.1,3.5,9c1.5,2.9,3.6,5.6,6.3,7.6
	c0.3,0.2,0.9,0.7,1,0.4c0.1-0.2,0.2-0.3,0.4-0.3c0.1,0,0.1,0,0.2,0C47,150.2,47.2,146.7,45.1,146.3z M31.6,120.9
	C31.6,120.9,31.6,120.9,31.6,120.9c0,0,0-0.1-0.1-0.1C31.6,120.8,31.6,120.8,31.6,120.9z M3.5,76.6l-0.2-0.3c0,0-0.1-0.1-0.1-0.1
	l0.2-0.1l1.4-0.6l0.1,0c-0.3,0.7-0.4,1.4-0.4,2.2L3.5,76.6z M11,85.5c0.3,0.3,0.6,0.7,0.9,1c0.1,0.1,0.1,0.3,0.2,0.4
	C11.7,86.4,11.3,86,11,85.5z"/>
<g>
	<path class="st2" d="M137.8,0.5c6.1,4.8,18.7,21.8,29.1,45.7s13.8,57.7,13.1,58.4c-0.5,0.5-31.2,9.1-45.7,13.3
		c-30,8.6-59.4,19.2-88.1,31.5C40.4,111.8,31.3,72.7,6.4,43.8C6.4,43.8,93.6,14.6,137.8,0.5z"/>
	<g>
		<g>
			<path class="st3" d="M137.6,0.7c0-0.2-0.1-0.3,0-0.5c0.1-0.3-1.9,0.2-4,0.6c-1.2,0.3-3,0.7-6.3,1.8L82.5,17.5
				c-9,2.9-18,5.9-26.9,8.8c-4.8,1.6-9.8,3.2-14,4.6c-7.5,2.5-14.9,5-22.4,7.5c-4.5,1.5-9,3-13.5,4.4l-0.7,0.2l-0.4,0.1
				c0,0-0.2,0-0.1,0.1l0.1,0.1l1,1.2l1.5,1.9L9.3,49c0.7,0.8,1.3,1.7,2,2.6l1.9,2.7c0.9,1.2,1.7,2.4,2.5,3.7
				c0.8,1.3,1.6,2.5,2.5,3.9c6,10.1,10.7,21,14.4,32.2c5.5,16.4,9,33.3,11.8,50.4c0.3,2.2,0.7,4.4,1,6.6l0,0l7.1-3l5.9-2.5
				c3.9-1.6,7.9-3.2,11.8-4.7c7.9-3.1,15.9-6,23.9-8.8c13.5-4.7,27-8.9,40.8-12.9c8.1-2.3,16.3-4.7,24.3-6.9c3.4-1,6.8-2,10.3-3
				l5.1-1.5l2.6-0.8l1.3-0.4l1.4-0.4c0.4-0.1,0.7-0.4,1.1-0.6c0.2-0.3,0.4-0.7,0.4-1.1c0-0.2,0-0.5,0-0.6l0-0.4l0-0.7
				c0-0.9-0.1-1.8-0.2-2.7c-0.2-1.8-0.4-3.6-0.6-5.3c-0.5-3.5-1-7.1-1.7-10.6c-1.8-9.5-4-19.1-7-28.4c-1-3.1-2.1-6.1-3.4-9
				c-1.3-3-2.6-5.9-4-8.7c-2.8-5.8-5.9-11.4-9.3-16.8c-3.4-5.5-7-10.8-11.1-15.8c-2.7-3.3-4.6-4.8-5.2-5.1c-0.7-0.3-0.9-0.2-0.5,0.4
				c0.4,0.6,0.7,1.2,1,1.7c0.3,0.6,0.6,1.1,0.8,1.6c0.2,0.7,0.2,0.4,3.5,4.5c0.6,0.7,1.1,1.4,1.6,2.1C151,18,155.8,26,160.1,34.4
				c1.7,3.3,3.4,6.8,4.8,9.8c1.1,2.3,2.1,4.6,3,7c2,5.3,3.6,11.1,5.1,16c0.1,0.3,0.4,1.4,0.4,1.8c0.5,2.4,1.1,4.5,1.6,6.7
				c0.7,2.9,1.3,5.8,1.8,8.9c0.7,4.4,1.4,8.7,1.9,13.1c0.1,1.1,0.2,2.2,0.3,3.3l0.1,1.6l0,0.8l0,0.2c0,0,0,0.1,0,0.1
				c0,0.1-0.1,0.1-0.2,0.1l-0.6,0.2l-1.6,0.5l-3.2,1c-11,3.3-21.7,6.1-32.8,9.4c-0.5,0.2-1.3,0.4-1.8,0.5c-4.6,1.1-9.9,2.7-14.7,4.2
				c-4.6,1.4-8.7,2.8-13.3,4.2c-1.7,0.5-4.5,1.4-6.1,2c-3.2,1.1-5.9,2-8.9,3c-7,2.4-14.2,4.9-20.9,7.7c-0.9,0.3-1.6,0.6-2.2,0.8
				c-2.8,0.9-6.7,2.5-8.7,3.4c-3.1,1.3-6,2.5-8.7,3.6c-3.3,1.4-5.2,2.1-8.1,3.3l-0.3,0.2c-0.5-3.2-1.1-6.4-1.7-9.6
				c-0.6-3.7-1.3-7.3-2-11c-0.5-2.2-0.9-4.5-1.4-6.7c-0.5-2.2-1-4.5-1.6-6.7c-0.4-1.4-0.8-3-1-4.3c-0.3-1.3-0.6-2.8-1.1-4.3
				c-3.1-11.2-7-22.3-12-32.9c-1.5-2.8-2.8-5.7-4.4-8.4c-0.8-1.4-1.5-2.8-2.4-4.1l-2.6-4c-0.8-1.4-1.8-2.6-2.7-3.9
				c-0.9-1.3-1.8-2.6-2.8-3.8l-3-3.7l-0.2-0.2c0,0-0.1-0.1,0-0.1l0.1,0L9.3,44c1-0.3,2.5-0.8,3-1c1.4-0.6,3.3-1.2,5.3-1.8
				c1.8-0.6,3.8-1.2,5.6-1.8c4.2-1.4,8.4-2.8,12.5-4.1c6.2-1.9,12.5-4,18.8-6.1c8-2.6,16-5.2,24-7.9c9.4-3.1,18.9-6.2,28.3-9.3
				c7.8-2.6,15.5-5.1,23.2-7.7c5.3-1.7,6.4-2.1,7.5-2.8C138.5,1,137.8,0.9,137.6,0.7z"/>
		</g>
	</g>
</g>
<g>
	<g>
		<g>
			<path class="st3" d="M27.9,111.8l0.9,1.9l0.9,2c1.7,3.8,3,7.9,4.1,11.9c1.2,4.2,2.4,8.5,4.1,12.4c1.4,2.9,3.1,5.7,5.4,7.9
				c0.2,0.2,0.5,0.4,0.7,0.6l0.8,0.5c0.2,0.1,0.5,0.3,0.4,0.5c-0.2,0.5-0.2,1.1-0.7,1.4c-0.2,0.1-0.6,0-0.9-0.3
				c-0.8-0.5-1.5-1.2-2.2-1.9c-0.7-0.7-1.3-1.4-1.9-2.2c-1.2-1.5-2.1-3.2-2.9-4.9c-0.7-1.5-1.2-3.2-1.8-4.8
				c-1.1-2.8-1.9-5.8-2.7-8.7c-1.3-4.6-3-9-4.8-13.3c-1.3-2.9-2.6-5.8-4.2-8.5c-0.5-1-1.1-2-1.7-2.9c-0.6-1-1.2-1.9-1.8-2.9
				c-1.9-3-3.9-5.9-6-8.7c-1.9-2.6-3.9-5.2-5.9-7.8c-1-1.3-2-2.5-3-3.8c-0.5-0.6-1-1.2-1.6-1.8c-0.8-0.8-1.5-1.6-2.3-2.4
				c-0.2-0.3-0.5-0.6-0.6-0.8c0.3-0.1,0.7-0.3,0.9-0.4l0,0l0.4-0.2l0,0c0.3-0.1,0.6-0.2,0.9-0.3l0.7-0.3l0.9-0.4
				c0.6-0.3,1.2-0.5,1.8-0.8c2.5-1,4.9-2.2,7.4-3c1.2-0.4,2.5-0.9,3.8-1.5c1-0.5,2.4-0.8,3.3-1.4c1.2-0.7,1.3-0.3,1.6-0.1
				c0.1,0.1,0.1,0.2,0.1,0.4c-0.1,0.4-0.6,0.9-0.3,1.2c0.2,0.2-0.5,0.4-0.8,0.6c-2.9,1.3-5.8,2.6-8.7,3.8l-8.3,3.4c0,0-0.1,0,0,0
				l0,0l0.3,0.3L6,79c1.4,1.6,2.8,3.3,4.2,5c2.6,3.3,5.1,6.8,7.6,10.2c1.5,2.1,2.9,4.2,4.1,6.3l1.9,3.4l1.9,3.4
				C26.4,108.9,27.1,110.4,27.9,111.8L27.9,111.8z"/>
		</g>
	</g>
</g>
<g>
	<g>
		<g>
			<path class="st3" d="M62,41.7c0.6,1.7,1.8,3.1,2.3,4.9c0.1,0.6,0.6,1.4,1.2,1.9c0.3,0.2,0.7,1.8,0.5,2.2
				c-0.1,0.4-0.5,0.1-0.8-0.1l0,0l0,0c-1-0.4-1.9-1.1-2.6-2.7c-0.4-0.9-1.1-1.6-1.4-2.5c-0.3-0.7-0.7-1.4-0.8-2.1c0-0.1,0-0.2,0-0.2
				c-0.2-0.2-0.3-0.3-0.4-0.5c-0.2-0.3-0.4-0.6-0.5-1c-0.3-0.7-0.7-1.4-0.9-2c-0.1-0.4-0.2-0.8,0-1c0-0.1,0.1-0.1,0.1-0.2
				c0,0,0-0.1,0.1-0.1l0,0l0,0c0,0,0.1,0.1-0.1-0.1l0,0l0,0l0,0l0,0l0,0l0,0l0,0c0.1-0.1,0.2-0.2,0.4-0.3c0.1-0.1,0.2-0.1,0.4-0.1
				c0.2,0,0.4,0,0.6,0.1c0.6,0.3,1.2,0.7,1.6,1.1c0.1,0.2,0.4,0.4,0.8,0.5c0.2,0.1,0.4,0.2,0.5,0.2c0.1,0,0.2,0.1,0.4,0.1
				c0.6,0.1,1.2,0.3,1.6,0.8c0,0,0.1,0.1,0.2,0.1c1.3,0.3,2.2,1.4,3.4,1.7c1.4,0.4,2.3,1.1,3.3,1.8c0.8,0.5,1,0.3,1.3,0.5
				c0.1,0.1,0.1,0,0.3,0.1c0.1,0,0.2,0.1,0.1,0.1c0-0.1-0.1-0.2-0.1-0.2c-0.1-0.1-0.1-0.2-0.2-0.3c-0.1-0.1-0.1-0.1,0-0.2l0,0l0,0
				c-0.3-0.2-0.3-0.2-0.3-0.2c0,0,0,0,0-0.1l0-0.1c0,0,0-0.1,0-0.2l0,0c0-0.1,0.2-0.1,0-0.3c-0.4-0.7-0.7-1.4-1.1-2.1
				c-0.1-0.1-0.1-0.3-0.2-0.3c-0.6-0.5-1-1.1-1.1-1.8c0,0,0-0.1,0-0.1c-0.7-0.3-0.8-1.3-1.4-1.8c-0.6-0.5-0.8-2.3-0.3-2.5
				c0.1,0,0.3,0.1,0.4,0.2l0,0c0.9,0.6,1.6,1.4,2.4,2.4c0.7,0.9,0.9,1.9,1.5,2.7c0.5,0.7,1,1.4,1.4,2.1c0.1,0.2,0.3,0.5,0.4,0.7
				c0.2,0.3,0.5,0.8,0.7,1.2c0.5,0.9,1,1.9,0.9,2.4c0,0.3-0.2,0.5-0.3,0.8c0,0.1-0.1,0.1-0.1,0.2l0,0l0,0l0,0c0,0-0.1-0.1,0.1,0.1
				l0,0l0,0l0,0l0,0c0,0,0,0,0,0L76,47.3c-0.1,0.1-0.2,0.1-0.4,0.1c-0.3,0-0.7,0.1-1.2-0.1c-0.6-0.2-1.2-0.5-1.8-0.7l-0.9-0.4
				l-0.5-0.3c-0.3-0.2-0.6-0.4-0.9-0.6c-0.5-0.3-1.1-0.7-1.7-0.7l0,0c-0.7-0.6-1.5-0.6-2.2-1c-1.2-0.7-2.6-1.3-3.7-2.1
				c-0.1-0.1-0.4-0.2-0.6-0.2c-0.2,0.1-0.1,0.1-0.2-0.1c-0.2-0.2-0.5-0.4-0.3-0.2c0,0.1,0.1,0.2,0.2,0.3c0,0,0,0-0.2-0.1
				c-0.1,0-0.1,0-0.1,0C62.2,41.6,61.6,41.1,62,41.7L62,41.7z"/>
		</g>
	</g>
</g>
<g>
	<g>
		<g>
			<path class="st3" d="M75.7,31.9c1.1-0.1,2-1,3.2-1.1c0.4,0,0.9-0.3,1.2-0.8c0.1-0.2,1.1-0.4,1.4-0.2c0.3,0.2,0.1,0.5,0,0.7l0,0
				l0,0c-0.1,0.9-0.5,1.7-1.6,2c-0.6,0.2-1,0.7-1.7,0.8c-0.5,0.1-0.9,0.3-1.4,0.3c0,0-0.1,0-0.1,0c-0.2,0.2-0.5,0.4-0.7,0.5
				c-0.1,0-0.2,0-0.3,0.1c0,0,0,0.1-0.1,0.1l0,0c0,0,0.1,0.1,0.2,0.2c0.1,0,0.1,0,0.1,0c0.1,0.2,0,0.4-0.1,0.7
				c-0.1,0.2,0,0.6,0.3,0.8c0.3,0.3,0.6,0.6,0.5,1c0,0,0,0.1,0,0.1c0.7,0.6,0.6,1.6,1.1,2.1c0.7,0.6,0.8,1.4,1,2.2
				c0.1,0.5,0.6,0.8,0.8,1.3c0.1,0.2,0.3,0.3,0.3,0.5c0,0.1,0,0.2,0.1,0.2c0.1,0,0.2,0,0.2,0c0,0,0.1,0,0.1,0c0,0,0,0,0.1,0.1l0,0
				l0,0c0.1-0.2,0-0.2,0.1-0.2c0.2,0,0.4,0,0.6,0l0,0c0.1,0.1,0,0.2,0.2,0.1c0.5-0.2,1-0.2,1.5-0.3c0.1,0,0.2-0.1,0.2-0.1
				c0.3-0.4,0.8-0.6,1.3-0.5c0,0,0.1,0,0.1,0c0.2-0.5,0.9-0.4,1.3-0.7c0.4-0.4,1.6-0.1,1.7,0.4c0,0.1-0.1,0.2-0.1,0.3l0,0
				c-0.4,0.7-0.9,1.2-1.7,1.6c-0.6,0.4-1.3,0.3-1.9,0.6c-0.5,0.3-1,0.5-1.5,0.7c-0.3,0.1-0.6,0.3-0.9,0.4c-0.5,0.1-1.3,0.5-1.7,0
				l-0.1-0.1l0,0l0,0l0,0l0,0l0,0l0,0l-0.1,0.2l0,0l0,0l0,0l-0.2-0.2c-0.1-0.1-0.3-0.3-0.4-0.4c-0.2-0.3-0.4-0.6-0.5-0.9
				c-0.4-0.8-1-1.5-1.2-2.4c-0.1-0.4-0.3-0.8-0.7-1l0,0c-0.1-0.6-0.6-0.8-0.8-1.3c-0.3-0.9-0.9-1.6-1-2.6c0-0.1-0.1-0.3-0.2-0.3
				c-0.3-0.2-0.4-0.5-0.4-0.8c0-0.1-0.1-0.5-0.3-0.8c-0.1-0.3-0.3-0.6-0.5-0.9c-0.2-0.3-0.5-0.7-0.6-1c0.2,0,0.4-0.1,0.6-0.1
				c0.1,0,0.3,0,0.4-0.1c0.2-0.3,0.7-0.5,1.2-0.6c0.2-0.1,0.4-0.1,0.6-0.2C75.5,32,75.6,32,75.7,31.9L75.7,31.9z"/>
		</g>
	</g>
</g>
<g>
	<g>
		<g>
			<path class="st3" d="M79.8,37.5L79.8,37.5L79.8,37.5z"/>
			<path class="st3" d="M77.1,38.8c-0.1-0.1-0.1-0.2,0-0.2c0.1,0,0.1,0,0.1,0.1c0,0,0,0,0,0c-0.1-0.2-0.1-0.2-0.1-0.3
				c-0.1-0.2,0,0,0,0c0,0,0.1,0,0,0c0,0,0,0,0,0c0.1,0.1,0.1,0,0-0.1c0-0.1,0-0.1,0-0.1c0.1,0.1,0.2,0,0.3,0c0.1,0,0.1,0,0.2,0
				c0,0,0.1,0.1,0.1,0.1l0,0c0-0.1,0-0.2,0.1-0.1c0-0.1,0.1,0.1,0.1,0c0,0,0,0,0,0c0.1,0,0.1,0,0.2-0.1c0,0,0,0,0.1,0.1
				c0.1,0,0-0.2,0.1-0.1c0.1,0.1,0.1,0,0.1,0c0,0,0.1,0,0.1,0c0,0,0,0,0.1,0c0,0,0-0.1,0.1-0.1c0.1,0.1,0.1,0.1,0.1,0c0,0,0,0,0,0
				c0,0.1,0,0.1,0,0c0-0.1,0.1,0,0.1-0.1c0-0.1,0.1,0,0.2-0.1c0,0,0.1-0.1,0.1-0.1c0.1,0,0.1,0,0.2-0.1c0-0.1,0.1,0,0.2-0.1
				c0,0,0,0,0.1,0l0,0l0,0l0,0c0,0,0-0.1,0-0.1c0.1,0,0.1-0.2,0.3-0.1c0,0,0-0.1,0-0.1c0.1,0,0.2,0,0.3-0.2c0,0,0,0,0.1,0
				c0,0,0,0,0,0c0-0.2,0-0.1,0.1-0.2c0.1-0.1,0.3-0.2,0.4-0.3c0.1-0.1,0.2-0.2,0.3-0.2c0,0,0.1,0,0.1,0c0.1,0.1,0.1,0,0.1,0.3l0,0
				l0,0c0.1-0.1,0.2-0.1,0.3,0.2c0,0,0,0.1,0,0.1c0,0,0,0,0,0.1c0,0.2,0,0.3,0,0.3c0,0,0,0,0,0.1c0,0.1,0,0,0,0c0,0,0,0.1,0.1,0.1
				c0,0.1,0.1,0,0.1,0.1c0,0,0,0.1,0,0.2c0,0.1,0,0.3-0.1,0.3c0,0,0,0.1,0,0c0,0,0,0,0,0l0,0c0,0.1,0,0,0,0.1c0,0.1,0,0.1,0,0.2
				c0,0.2,0,0.3,0,0.3c0,0-0.1,0-0.1,0.1c0,0,0,0-0.1,0c0,0,0,0.1,0,0.1c-0.1,0.1-0.2,0-0.3,0.1c-0.1,0-0.2,0.1-0.3,0.1
				c-0.1,0-0.1,0.1-0.2,0.1c-0.1,0-0.2,0.1-0.3,0.1c0,0,0,0.1-0.1,0.1c-0.1,0-0.1,0-0.2,0c-0.1,0.1-0.1,0.1-0.2,0.1
				c-0.1,0-0.1,0.1-0.2,0.1c-0.1,0-0.1,0.1-0.1,0.1c0,0-0.1,0-0.1,0c0,0,0,0-0.1,0.1c0,0,0,0.2-0.1,0c0,0.1,0,0,0,0.1
				c0,0.1-0.1,0-0.1,0c0,0-0.1-0.1-0.1-0.1c0,0-0.1-0.1,0,0c0.1,0.2,0,0.2-0.1,0c0-0.1,0-0.1,0,0c0,0.1,0,0.1,0,0.1c0,0,0,0,0,0
				c0.1,0.2,0,0,0,0.1c0,0,0,0,0-0.1c-0.1-0.1-0.1-0.1,0,0c0,0.1,0,0.1,0,0.1c-0.1,0-0.1,0.1-0.2,0c-0.1,0-0.2,0.1-0.3,0
				c-0.1,0-0.1,0.1-0.1,0.1c0,0-0.1,0-0.2,0c-0.1-0.1-0.1,0-0.2,0c0,0,0,0-0.1-0.1c0-0.1-0.1-0.2-0.2-0.2c0-0.1-0.1-0.2-0.1-0.2
				c0,0,0-0.1,0-0.2c0-0.1,0.1,0,0.1-0.1c0,0,0.1,0,0.1,0c0,0,0,0,0,0c0,0,0-0.1,0-0.1c0-0.1,0,0,0,0c-0.1,0.1-0.2,0-0.3,0
				c-0.1,0-0.1,0-0.2-0.1c0,0,0,0,0,0C77.2,39.1,77.2,39,77.1,38.8z M81.9,38.1C81.9,38.1,81.9,38.1,81.9,38.1
				C81.9,38.1,81.9,38.1,81.9,38.1C81.9,38.1,81.9,38.1,81.9,38.1z M81.9,37L81.9,37L81.9,37L81.9,37z M81.5,36.7
				C81.5,36.7,81.5,36.7,81.5,36.7L81.5,36.7z"/>
		</g>
	</g>
</g>
<g>
	<g>
		<g>
			<path class="st3" d="M89.3,39.3c-0.2-0.4-0.4-0.7-0.6-1.1c-0.1-0.2-0.3-0.4-0.4-0.6c-0.3-0.4-0.6-0.8-0.8-1.2
				c-0.6-0.8-1.1-1.7-1.5-2.6c-0.2-0.6-0.8-1.5-1.5-1.9c-0.3-0.2-1-1.8-0.9-2.2c0.1-0.4,0.5-0.1,0.8,0.1l0,0l0,0
				c1.1,0.3,2.1,1,3,2.7c0.5,0.9,1.3,1.6,1.8,2.6c0.4,0.7,0.9,1.4,1.1,2.1c0,0,0,0.1,0,0.1c0,0,0,0,0,0c0.2,0,0.2,0.1,0.3,0.2
				c0.1,0.1,0.1,0.3,0.2,0.3c0,0,0.1,0,0.1-0.1c0,0,0,0,0,0c0,0,0-0.3-0.1-0.5C90.7,37,90.6,37,90.7,37c0,0,0.1,0,0.1,0
				c0.1,0,0.1-0.1,0.3-0.1c0.1-0.2,0.2-0.9,0-1.4c-0.1-0.3-0.2-0.7-0.2-1c0-0.2,0-0.3,0-0.5c0-0.2,0-0.5,0.1-0.7c0-0.1,0-0.2,0-0.3
				c-0.2-1.1-0.3-2.6,0.1-2.9c0.1-0.2,0.2-0.5,0.3-0.6c0.3,0.2,0.4,0.2,0.7,0.3c0.2,0,0.5,0,0.9,0.4c0.4,0.4,0.7,0.9,1.1,1.3
				l0.5,0.7l0.2,0.3l0.1,0.2c0.2,0.3,0.4,0.6,0.5,0.9c0.2,0.3,0.5,0.7,0.8,1l0.2,0.2l0.1,0.1l0.1,0c0.1,0.1,0.1,0.1,0.2,0.2
				c0.1,0.1,0.2,0.1,0.2,0.2c0,0.1,0.1,0.2,0.1,0.2c0.1-0.1,0.1-0.2,0.1-0.3c0,0,0,0,0.1,0c0,0,0,0,0.1,0l0,0l0,0
				c-0.4-0.8-0.2-0.4,0-0.4l0,0c0.1,0,0.2,0.2,0.2,0.1c0-0.1,0-0.2,0-0.2l0-0.1l0-0.3c0-0.4,0-0.9-0.1-1.3c0-0.1,0-0.3-0.1-0.4
				c-0.4-0.7-0.5-1.5-0.3-2.3c0,0,0-0.1,0-0.1c-0.5-0.6-0.2-1.7-0.5-2.5c-0.3-0.8,0.3-2.7,0.8-2.6c0.1,0,0.2,0.2,0.2,0.4l0,0
				c0.5,1,0.8,2.1,1.1,3.5c0.2,1.2,0,2.3,0.3,3.3c0.1,0.5,0.2,0.9,0.3,1.4c0.1,0.5,0.1,0.8,0.2,1.7c0.1,0.5,0.1,1.1,0.2,1.6
				c0.1,0.5,0.2,1.1,0.2,1.6c0,0.2-0.1,0.3-0.1,0.5c-0.1,0.1-0.1,0.2-0.2,0.3c-0.1,0.2-0.2,0.3-0.4,0.4l-0.1,0c0,0-0.1,0-0.1,0
				l-0.2-0.1c-0.1,0-0.2-0.1-0.4-0.1c-0.3-0.1-0.5,0.1-1-0.5c-0.4-0.5-0.9-1-1.3-1.5L94.8,36c-0.5-0.6-1-1.2-1.3-1.9l-0.1-0.2
				c0-0.1-0.1-0.2-0.1-0.2c0,0,0-0.1-0.1-0.1c-0.1-0.1-0.1-0.1-0.1,0.1l0,0c0-0.2-0.1-0.2-0.1-0.1c0,0.1,0.1,0.3,0.1,0.2
				c-0.1-0.1,0,0-0.1,0l0,0l0,0c0,0,0,0,0,0l0,0.1c0,0.4,0,0.8-0.1,1.2c0,0.2,0,0.5,0.1,0.7c0.1,0.3,0.1,0.5,0.1,0.8l0,0.3l0,0.3
				c0,0.2,0,0.5,0,0.7c0,0.5-0.1,1.1-0.1,1.6c0,0.3,0,0.5,0,0.7c0,0.2,0,0.5-0.1,0.6c-0.1,0.4-0.2,0.6-0.5,0.8c0,0-0.1,0.1-0.2,0
				c-0.1,0-0.1,0-0.2-0.1c-0.1,0-0.2-0.1-0.2-0.1c-0.2,0.1-0.5,0.3-1.1-0.3C90.3,40.7,89.8,39.9,89.3,39.3L89.3,39.3z"/>
		</g>
	</g>
</g>
<g>
	<g>
		<g>
			<path class="st3" d="M100.1,27c0.1-1,0.5-1.9,1.1-2.6c0.6-0.7,1.4-1.2,2.3-1.2c0.6,0,1.4-0.2,2-0.5c0.3-0.2,1.6,0.3,1.8,0.6
				c0.2,0.3-0.2,0.5-0.5,0.6l0,0l0,0c-0.7,0.7-1.4,1.1-2.5,1.1c-0.6,0.1-0.9,0.6-1.4,0.9c-0.3,0.2-0.5,0.5-0.7,0.8
				c0,0-0.1,0.1-0.1,0.1c0.2,0.5,0.2,0.9,0.4,1.2c0.1,0.1,0.3,0.1,0.4,0.2c0.2,0.1,0.4,0.2,0.7,0.1c0.4-0.1,0.8-0.1,1.2,0.3
				c0.1,0.2,0.6,0.2,1,0.1c0.5-0.2,1-0.2,1.4,0c0,0,0.1,0,0.1,0c1-0.3,2.1,0.2,3.1,0.2c1.2,0,2.3,0.8,2.9,1.8c0.2,0.3,0.4,0.6,0.6,1
				c0.2,0.3,0.3,0.9,0.2,1.4c0,0.1-0.1,0.3-0.1,0.4c-0.1,0.2-0.2,0.5-0.5,0.6c-0.1,0.1-0.2,0.1-0.3,0.2c-0.4,0.6-0.9,1.1-1.6,1.3
				l0,0l0,0c-0.4,0.5-1,0.7-1.6,0.7l0,0c-0.1,0,0-0.2-0.2-0.1c-0.7,0.3-1.4,0.2-2.1,0.2c-0.1,0-0.3,0-0.3,0
				c-0.6,0.3-1.3,0.2-1.9-0.3c0,0-0.1,0-0.1,0c-0.7,0.2-1.3-0.5-1.9-0.8c-0.4-0.1-0.7-0.6-0.8-1.1c-0.1-0.5,0-0.9,0.2-1
				c0.1,0,0.2,0.1,0.4,0.1l0,0c0.8,0.4,1.5,0.6,2.3,0.8c0.7,0.2,1.2,0.7,1.8,0.6c0.6-0.1,1.1-0.2,1.6-0.3c0.7-0.2,1.2-0.7,1.9-0.8
				c0.4-0.1,0.8-0.5,1.2-0.8c0.1,0,0-0.1,0.1-0.1c0-0.1,0,0-0.1-0.3c-0.1-0.2-0.2-0.4-0.4-0.7c-0.2-0.3-0.5-0.5-0.9-0.4l0,0
				c-0.4-0.4-1-0.1-1.5-0.3c-0.5-0.1-1-0.1-1.5-0.1c-0.5,0-1-0.1-1.6-0.2c-0.1,0-0.3,0-0.5,0c-0.4,0.2-0.8,0.2-1.2,0
				c-0.5-0.1-1-0.2-1.6-0.2c-0.5,0-1-0.1-1.3-0.6c0-0.1-0.2-0.2-0.2-0.2c-0.5-0.1-0.8-0.6-1-1.1C100.2,27.9,100.1,27.5,100.1,27
				L100.1,27z"/>
		</g>
	</g>
</g>
<g>
	<g>
		<g>
			<path class="st3" d="M63.1,63.1c-4.3,1.2-8.5,3.1-12.9,4.3c-1.4,0.4-3.6,1.3-5.1,2.2c-0.7,0.4-4.4,1.6-5.2,1.6
				c-0.8,0,0.2-0.6,0.8-1.1l0,0l-0.1,0c1.6-1.5,3.8-2.9,8-4.3c2.3-0.8,4.4-1.9,6.9-2.6c1.8-0.5,3.6-1.2,5.4-1.6
				c0.2,0,0.4-0.1,0.4-0.1c2-1,4.3-1.6,6.4-2.3c0.8-0.3,1.6-0.6,2.4-0.9c1.2-0.4,2.2-0.7,3.3-1.2c1.5-0.7,3.2-1.3,4.5-1.2
				c0.5,0,2-0.4,3.1-0.9c1.4-0.6,2.9-1.1,4.4-1.3c0.1,0,0.4-0.1,0.5-0.1c3-1.3,6.4-1.7,9.2-2.9c3.2-1.3,6.1-1.9,9.2-2.7
				c1.8-0.5,3.7-1.3,5.7-1.9c0.7-0.2,1.5-0.5,2.3-0.7c0.3-0.1,0.6-0.1,0.8-0.2c1.8-0.8,3.7-1.5,5.8-2l0,0l-0.1,0
				c1.5-0.8,3.1-1.2,4.8-1.5l0,0c0.2,0,0,0.2,0.6,0c1.9-0.7,3.9-1.1,5.8-1.7c0.3-0.1,0.7-0.2,0.9-0.3c1.6-0.8,3.3-1.4,5.2-1.6
				c0.1,0,0.2,0,0.2-0.1c1.4-0.8,3.7-1,5.4-1.7c1.8-0.7,6-1.1,5.9-0.6c0,0.1-0.5,0.3-0.7,0.4l0,0c-2.2,1.1-4.7,2-7.7,2.9
				c-0.7,0.2-1.3,0.4-2,0.5c-0.6,0.2-1.3,0.4-1.9,0.5c-1.2,0.3-2.4,0.6-3.5,1.1c-2,0.8-4.2,1.5-6.1,2.1c-2.5,0.8-4.9,1.8-7.6,2.4
				c-1.5,0.3-3.4,1-5.1,1.5c-3.4,1.1-6.7,2.3-10.2,3.1c-1.4,0.3-3.1,0.8-4.5,1.5l0,0c-2.1,0.4-3.8,1.3-5.9,1.9
				c-3.4,0.9-6.9,2.1-10.3,2.9c-0.5,0.1-1.1,0.3-1.5,0.5c-1.2,0.5-2.3,0.8-3.5,1.1c-1.4,0.3-2.8,0.7-4.2,1.4c-1,0.5-2.1,0.9-3.2,1
				c-0.2,0-0.6,0.1-0.7,0.2C67.4,61.8,65,62.3,63.1,63.1L63.1,63.1z"/>
		</g>
	</g>
</g>
<g>
	<path class="st1" d="M107.7,84.5c1.3,3,1.7,3,4.5,12.8c2.9,9.7,3.6,14.3,3.8,14.4c0.3,0.2,35.6-11.7,43.9-14.6
		c-0.7-2.8-0.2-4.9-3.1-14.8s-4.7-11.7-4.8-11.8C151.7,70.4,115.9,81.9,107.7,84.5"/>
	<g>
		<g>
			<path class="st3" d="M120.2,111.1c-0.7,0.2-1.4,0.4-2.1,0.6l-1.1,0.3c-0.1,0-0.5,0.2-0.8,0.1c-0.1,0-0.3,0-0.4,0
				c-0.1,0-0.2-0.2-0.3-0.3l-0.2-0.5c0-0.1,0-0.2-0.1-0.2l0-0.1l-0.1-0.5l-0.3-1.1l-0.5-2.2c-0.7-2.9-1.5-5.8-2.2-8.7
				c-0.5-1.9-1.4-4.9-2.2-7c-0.2-0.5-0.6-2-1.1-3.4c-0.5-1.4-1.1-2.8-1.2-3.3c-0.3-1,0.4,0.4,1,1.3l0,0l0-0.1
				c1.5,2.3,2.8,5.5,4.3,11c0.8,3,1.8,6,2.6,9.3c0.3,1.2,0.5,2.4,0.8,3.6l0.2,0.9c0,0,0,0.2,0.1,0.1c0,0,0,0,0.1,0l0.4-0.1
				c0.3-0.1,0.6-0.2,0.8-0.2c0.2-0.1,0.5-0.1,0.6-0.1c2.7-1,5.7-1.9,8.5-2.8c1.1-0.4,2.1-0.7,3.1-1.1c1.6-0.5,2.9-1,4.3-1.5
				c2-0.7,4.2-1.5,5.8-1.8c0.6-0.1,2.6-0.8,4-1.3c1.9-0.7,3.8-1.4,5.7-1.9c0.2,0,0.5-0.1,0.6-0.2c2-0.8,4-1.4,6.1-2.1
				c1-0.3,1.9-0.6,2.9-0.9c0,0,0.1,0,0.1-0.1l0-0.2l-0.1-0.7c-0.1-0.5-0.2-1-0.2-1.5c-0.7-4.5-1.5-8.1-2.6-12.2
				c-0.6-2.4-1.5-4.9-2.5-7.4c-0.4-0.9-0.8-1.8-1.3-2.8c-0.2-0.3-0.4-0.7-0.6-0.9c-0.1-0.1-0.1-0.2-0.2-0.2c-0.1,0-0.2,0-0.5,0.1
				l-0.9,0.3c-0.6,0.2-1.2,0.4-1.8,0.6c-1.2,0.4-2.4,0.7-3.7,1.1l-0.1,0l0.1,0c-2,0.8-4.1,1.4-6.2,1.9l0,0c-0.2,0,0.1-0.1-0.8,0.1
				c-2.5,0.8-5,1.5-7.6,2.3c-0.4,0.1-0.9,0.3-1.2,0.4c-2.2,0.9-4.4,1.6-6.8,2.2c-0.1,0-0.3,0.1-0.3,0.1c-1.9,0.8-4.8,1.6-7,2.4
				c-2.3,0.9-7.7,2.3-7.5,2c0-0.1,0.6-0.3,1-0.5l0,0c2.9-1.2,6.1-2.4,10.1-3.8c3.5-1.2,6.6-2,9.6-3c2.7-0.9,5.5-1.8,8-2.6
				c3.3-1,6.5-2.2,10-3.1c0.8-0.2,1.7-0.5,2.6-0.8c0.5-0.1,1-0.3,1.4-0.4l0.7-0.2c0.1,0,0.1,0,0.2,0l0.3,0c0.1,0,0.2,0,0.3,0
				c0.1,0,0.1,0,0.2,0c0,0,0.1,0,0.1,0.1c0.1,0.1,0.3,0.3,0.4,0.4c0.1,0.1,0.1,0.2,0.2,0.3c0.1,0.2,0.2,0.4,0.3,0.5
				c1.2,2.1,2,4.3,2.8,6.5c0.8,2.2,1.4,4.5,2,6.8c0.4,1.8,1,4.1,1.5,6.1l0,0c0.2,1.4,0.4,2.7,0.6,4l0.2,1c0.1,0.4,0.1,0.5,0.3,1.3
				l0.1,0.5c-0.1,0.1-0.3,0.1-0.4,0.2l-0.8,0.3c-0.3,0.1-0.6,0.2-1,0.3c-4.4,1.5-8.9,3.1-13.3,4.4c-0.6,0.2-1.4,0.5-2,0.7
				c-1.5,0.6-3,1.1-4.6,1.5c-1.8,0.5-3.7,1.1-5.5,1.8c-1.4,0.5-2.8,1-4.2,1.4c-0.2,0.1-0.8,0.2-0.9,0.3
				C125.7,109.5,122.7,110.3,120.2,111.1L120.2,111.1z"/>
		</g>
	</g>
</g>
<g>
	<g>
		<g>
			<path class="st3" d="M65.5,76.4c-2.8,0.7-5.4,2.1-8.3,2.7c-0.9,0.2-2.3,0.8-3.2,1.5c-0.4,0.3-2.8,1-3.4,1c-0.6-0.1,0-0.5,0.4-0.9
				l0,0l0,0c0.9-1.2,2.2-2.4,4.9-3.3c1.5-0.5,2.8-1.3,4.4-1.8c1.2-0.3,2.3-0.8,3.5-1c0.1,0,0.2,0,0.3,0c1.2-0.7,2.7-1,4.1-1.5
				c0.5-0.2,1-0.4,1.5-0.6c0.8-0.2,1.4-0.5,2.1-0.8c0.9-0.5,2-0.8,2.9-0.6c0.3,0.1,1.3-0.2,2-0.5c0.9-0.5,1.8-0.8,2.8-0.9
				c0.1,0,0.2,0,0.3-0.1c1.9-1,4.1-1.1,5.8-2c2-1,3.9-1.3,5.9-1.8c1.2-0.3,2.4-0.9,3.6-1.3c0.5-0.1,0.9-0.4,1.4-0.5
				c0.2,0,0.4-0.1,0.5-0.2c1.1-0.6,2.3-1.1,3.7-1.4l0,0l0,0c0.9-0.6,2-0.8,3-1l0,0c0.1,0,0,0.2,0.4,0c1.2-0.5,2.5-0.7,3.7-1.1
				c0.2-0.1,0.5-0.2,0.6-0.2c1-0.7,2.1-1,3.3-1.1c0,0,0.1,0,0.1,0c0.8-0.7,2.3-0.8,3.4-1.4c1.1-0.6,3.8-0.8,3.9-0.3
				c0,0.1-0.3,0.3-0.4,0.4l0,0c-1.3,1-2.8,1.8-4.7,2.6c-1.6,0.7-3.3,0.9-4.7,1.5c-1.3,0.6-2.6,1.1-3.9,1.5c-1.6,0.5-3.1,1.3-4.9,1.6
				c-1,0.2-2.2,0.7-3.2,1.1c-2.2,0.7-4.3,1.6-6.6,2.1c-0.9,0.2-2,0.5-2.8,1.1l0,0c-1.4,0.2-2.4,1-3.7,1.3c-2.2,0.6-4.4,1.5-6.6,1.9
				c-0.3,0.1-0.7,0.2-1,0.3c-0.7,0.4-1.5,0.6-2.3,0.7c-0.9,0.1-1.8,0.4-2.7,0.8c-0.7,0.3-1.3,0.6-2.1,0.6c-0.1,0-0.4,0.1-0.4,0.1
				C68.3,75.7,66.7,75.8,65.5,76.4L65.5,76.4z"/>
		</g>
	</g>
</g>
<g>
	<g>
		<g>
			<path class="st3" d="M15.7,88.7c-1.8-2.6-4.1-5-6-7.7c-0.6-0.9-1.7-2.2-2.6-3c-0.4-0.4-2-2.7-2.3-3.2c-0.2-0.5,0.4,0.1,0.8,0.5
				l0,0l0,0c1.2,0.9,2.6,2.2,4.5,4.6c1.1,1.4,2.3,2.6,3.4,4c0.8,1.1,1.7,2.2,2.4,3.2c0.1,0.1,0.1,0.2,0.2,0.3c1.1,1.1,2,2.5,3,3.8
				c0.4,0.5,0.8,1,1.1,1.4c0.5,0.8,1,1.3,1.5,2c0.7,0.9,1.5,2,1.8,2.9c0.1,0.3,0.7,1.3,1.2,2c0.7,0.9,1.3,1.8,1.6,2.8
				c0,0.1,0.1,0.2,0.2,0.3c1.3,1.9,2.1,4.3,3.1,6.2c1.1,2.2,1.8,4.2,2.6,6.4c0.4,1.3,1,2.6,1.5,4c0.2,0.5,0.4,1,0.6,1.6
				c0.1,0.2,0.1,0.5,0.2,0.6c0.5,1.3,1,2.7,1.4,4.2l0,0l0,0c0.5,1.1,0.8,2.3,1,3.4l0,0c0,0.1-0.1,0,0,0.4c0.4,1.4,0.7,2.8,1.2,4.1
				c0.1,0.2,0.2,0.5,0.2,0.6c0.6,1.1,1.1,2.3,1.6,3.5c0,0,0.1,0.1,0.1,0.2c0.7,0.9,1.3,2.4,2.2,3.3c0.4,0.5,1.1,1.3,1.7,1.9
				c0.6,0.6,1.1,1.1,1,1.2c0,0-0.4-0.1-0.6-0.2l0,0c-1.5-0.8-3-2.2-4.2-4.2c-1.1-1.7-1.7-3.5-2.4-5c-0.7-1.5-1.1-3-1.5-4.4
				c-0.5-1.8-1.2-3.6-1.6-5.5c-0.2-1.1-0.7-2.4-1.1-3.6c-0.8-2.4-1.8-4.8-2.6-7.2c-0.3-1-0.8-2.2-1.3-3.1l0,0
				c-0.5-1.4-1.2-2.6-1.8-4c-1.1-2.3-2.3-4.6-3.5-6.7c-0.1-0.3-0.4-0.7-0.6-0.9c-0.5-0.7-1-1.4-1.4-2.2c-0.5-0.9-1.1-1.8-1.8-2.6
				c-0.5-0.6-1-1.2-1.4-1.9c-0.1-0.1-0.2-0.4-0.3-0.4C17.6,91.3,16.7,89.8,15.7,88.7L15.7,88.7z"/>
		</g>
	</g>
</g>
<g>
	<g>
		<g>
			<path class="st3" d="M73.6,82.6c-3.8,1-7.6,2.4-11.5,3.4c-1.2,0.3-3.3,1-4.6,1.6c-0.7,0.3-3.9,1.2-4.5,1.4
				c-0.6,0.1,0.2-0.4,0.8-0.7l0,0l0,0c1.6-1,3.7-2,7.3-3c2-0.6,4-1.4,6.1-2c1.6-0.4,3.2-1,4.7-1.3c0.1,0,0.3-0.1,0.4-0.1
				c1.8-0.7,3.8-1.2,5.7-1.8c0.7-0.2,1.4-0.5,2.1-0.7c1.1-0.4,1.9-0.7,2.9-1.1c1.3-0.6,2.8-1,3.9-1.2c0.4,0,1.8-0.5,2.7-0.8
				c1.3-0.5,2.5-0.9,3.8-1.2c0.1,0,0.3-0.1,0.4-0.1c2.6-1,5.6-1.7,8-2.6c2.8-1.1,5.3-1.7,8-2.5c1.6-0.5,3.3-1.1,5-1.7
				c0.6-0.2,1.3-0.5,2-0.7c0.2-0.1,0.6-0.2,0.7-0.2c1.6-0.6,3.3-1.2,5.1-1.7l0,0l0,0c1.3-0.6,2.7-1,4.2-1.3l0,0c0.1,0,0,0.1,0.5-0.1
				c1.7-0.6,3.4-1,5.1-1.6c0.3-0.1,0.6-0.2,0.8-0.3c1.4-0.6,2.9-1.1,4.5-1.5c0.1,0,0.2,0,0.2-0.1c1.3-0.6,3.2-1,4.7-1.6
				c1.5-0.6,5.2-1.4,5.1-1.1c0,0.1-0.4,0.2-0.7,0.3l0,0c-1.9,0.8-4.1,1.7-6.8,2.6c-2.3,0.8-4.5,1.3-6.4,2c-1.8,0.6-3.7,1.3-5.4,1.8
				c-2.2,0.7-4.3,1.5-6.7,2.1c-1.3,0.3-2.9,0.9-4.4,1.4c-3,1-5.9,2-9,2.9c-1.2,0.3-2.7,0.8-3.9,1.3l0,0c-1.8,0.5-3.4,1.2-5.1,1.7
				c-3,0.9-6,2-9,2.8c-0.4,0.1-1,0.3-1.3,0.4c-1,0.4-2,0.7-3.1,1c-1.2,0.3-2.5,0.7-3.7,1.2c-0.9,0.4-1.8,0.8-2.8,1
				c-0.2,0-0.5,0.1-0.6,0.2C77.3,81.6,75.3,82,73.6,82.6L73.6,82.6z"/>
		</g>
	</g>
</g>
<g>
	<g>
		<g>
			<path class="st3" d="M75.1,87.1c-3.8,1.1-7.6,2.6-11.4,3.6c-1.2,0.4-3.2,1.1-4.6,1.7c-0.7,0.3-3.9,1.3-4.5,1.5
				c-0.7,0.1,0.2-0.3,0.8-0.7l0,0l0,0c1.6-1,3.6-2,7.2-3.2c2-0.6,4-1.5,6.1-2.1c1.6-0.5,3.2-1,4.7-1.4c0.1,0,0.3-0.1,0.4-0.1
				c1.8-0.7,3.8-1.3,5.7-1.9c0.7-0.2,1.4-0.5,2.1-0.7c1.1-0.3,1.9-0.6,2.9-1c1.3-0.5,2.8-1,3.9-1.1c0.4,0,1.8-0.5,2.7-0.8
				c1.3-0.5,2.5-0.9,3.8-1.2c0.1,0,0.3-0.1,0.4-0.1c2.6-1,5.6-1.7,8-2.6c2.9-1.1,5.3-1.7,8-2.5c1.6-0.4,3.3-1.1,5-1.6
				c0.6-0.2,1.3-0.4,2-0.6c0.2-0.1,0.6-0.1,0.7-0.2c1.6-0.6,3.3-1.2,5.1-1.7l0,0l0,0c1.3-0.6,2.8-1,4.2-1.3l0,0c0.1,0,0,0.1,0.5-0.1
				c1.7-0.6,3.4-1,5.1-1.5c0.3-0.1,0.6-0.2,0.8-0.3c1.4-0.6,3-1.1,4.6-1.4c0.1,0,0.2,0,0.2-0.1c1.3-0.6,3.2-1,4.7-1.6
				c1.5-0.6,5.2-1.3,5.1-1c0,0.1-0.4,0.2-0.7,0.3l0,0c-1.9,0.8-4.1,1.6-6.8,2.5c-2.3,0.8-4.5,1.3-6.5,1.9c-1.8,0.6-3.7,1.2-5.4,1.7
				c-2.2,0.7-4.3,1.5-6.7,2.1c-1.3,0.3-3,0.9-4.5,1.4c-3,0.9-5.9,2-9,2.8c-1.2,0.3-2.7,0.8-3.9,1.3l0,0c-1.8,0.5-3.4,1.2-5.2,1.7
				c-3,0.9-6,1.9-9,2.7c-0.4,0.1-1,0.3-1.3,0.4c-1,0.4-2,0.7-3.1,1c-1.2,0.3-2.5,0.7-3.7,1.2c-0.9,0.4-1.8,0.7-2.8,0.9
				c-0.2,0-0.5,0.1-0.6,0.2C78.8,86,76.7,86.4,75.1,87.1L75.1,87.1z"/>
		</g>
	</g>
</g>
<g>
	<g>
		<g>
			<path class="st3" d="M66.5,96.1c-1.6,0.4-3.1,1.1-4.7,1.5c-0.5,0.1-1.3,0.4-1.9,0.8c-0.3,0.2-1.6,0.5-1.9,0.4
				c-0.3,0,0.1-0.3,0.3-0.5l0,0l0,0c0.6-0.6,1.4-1.2,2.9-1.6c0.8-0.2,1.6-0.7,2.5-0.9c0.7-0.2,1.3-0.4,2-0.5c0.1,0,0.1,0,0.2,0
				c0.7-0.4,1.6-0.6,2.3-0.9c0.3-0.1,0.6-0.2,0.9-0.3c0.4-0.1,0.8-0.3,1.2-0.5c0.5-0.3,1.1-0.5,1.7-0.4c0.2,0,0.7-0.1,1.1-0.3
				c0.5-0.3,1-0.5,1.6-0.5c0,0,0.1,0,0.2,0c1.1-0.5,2.3-0.7,3.3-1.1c1.2-0.5,2.2-0.8,3.3-1c0.7-0.2,1.3-0.5,2-0.7
				c0.3-0.1,0.5-0.2,0.8-0.3c0.1,0,0.2-0.1,0.3-0.1c0.6-0.3,1.3-0.6,2.1-0.8l0,0l0,0c0.5-0.3,1.1-0.5,1.7-0.6l0,0c0.1,0,0,0.1,0.2,0
				c0.7-0.3,1.4-0.4,2.1-0.6c0.1,0,0.3-0.1,0.3-0.1c0.6-0.4,1.2-0.6,1.9-0.7c0,0,0.1,0,0.1,0c0.5-0.4,1.3-0.5,1.9-0.8
				c0.6-0.3,2.2-0.5,2.2-0.3c0,0-0.2,0.1-0.2,0.2l0,0c-0.7,0.5-1.6,1-2.7,1.4c-0.9,0.4-1.9,0.5-2.7,0.9c-0.7,0.3-1.5,0.6-2.2,0.8
				c-0.9,0.3-1.8,0.7-2.8,0.9c-0.5,0.1-1.2,0.4-1.8,0.6c-1.2,0.4-2.4,0.9-3.7,1.2c-0.5,0.1-1.1,0.3-1.6,0.6l0,0
				c-0.8,0.1-1.4,0.5-2.1,0.7c-1.2,0.4-2.5,0.8-3.7,1.1c-0.2,0-0.4,0.1-0.5,0.2c-0.4,0.2-0.8,0.3-1.3,0.4c-0.5,0.1-1,0.3-1.5,0.5
				c-0.4,0.2-0.7,0.4-1.2,0.4c-0.1,0-0.2,0-0.3,0.1C68.1,95.7,67.2,95.8,66.5,96.1L66.5,96.1z"/>
		</g>
	</g>
</g>
<g>
	<g>
		<g>
			<path class="st3" d="M68.4,100.7c-1.6,0.4-3.2,1.1-4.9,1.3c-0.6,0.1-1.4,0.3-2.1,0.5c-0.3,0.1-1.8,0.1-2.1,0
				c-0.3-0.1,0.1-0.3,0.4-0.4l0,0l0,0c0.7-0.4,1.6-0.8,3.2-1.1c0.9-0.1,1.7-0.5,2.6-0.7c0.7-0.1,1.4-0.4,2-0.5c0.1,0,0.1,0,0.2,0
				c0.7-0.4,1.6-0.6,2.4-0.9c0.3-0.1,0.6-0.2,0.9-0.3c0.5-0.1,0.8-0.3,1.2-0.5c0.5-0.3,1.2-0.5,1.7-0.4c0.2,0,0.8-0.1,1.1-0.3
				c0.5-0.3,1-0.5,1.6-0.5c0,0,0.1,0,0.2,0c1.1-0.5,2.4-0.7,3.4-1.1c1.2-0.5,2.2-0.8,3.4-1.1c0.7-0.2,1.4-0.5,2.1-0.8
				c0.3-0.1,0.5-0.2,0.8-0.3c0.1,0,0.2-0.1,0.3-0.1c0.7-0.3,1.3-0.6,2.1-0.8l0,0l0,0c0.5-0.3,1.1-0.5,1.8-0.6l0,0c0.1,0,0,0.1,0.2,0
				c0.7-0.3,1.4-0.4,2.1-0.6c0.1,0,0.3-0.1,0.3-0.1c0.6-0.4,1.2-0.6,1.9-0.7c0,0,0.1,0,0.1,0c0.5-0.4,1.4-0.5,2-0.8
				c0.6-0.3,2.2-0.5,2.2-0.3c0,0-0.2,0.1-0.3,0.2l0,0c-0.8,0.5-1.6,1-2.7,1.4c-1,0.4-1.9,0.5-2.7,0.9c-0.7,0.3-1.5,0.6-2.2,0.8
				c-0.9,0.3-1.8,0.7-2.8,0.9c-0.6,0.1-1.2,0.4-1.9,0.6c-1.3,0.4-2.5,0.9-3.8,1.2c-0.5,0.1-1.2,0.3-1.7,0.6l0,0
				c-0.8,0.1-1.4,0.5-2.2,0.8c-1.3,0.4-2.5,0.8-3.8,1.1c-0.2,0-0.4,0.1-0.6,0.2c-0.4,0.2-0.9,0.3-1.3,0.4c-0.5,0.1-1.1,0.3-1.6,0.5
				c-0.4,0.2-0.8,0.4-1.2,0.4c-0.1,0-0.2,0-0.3,0.1C70,100.3,69.1,100.4,68.4,100.7L68.4,100.7z"/>
		</g>
	</g>
</g>
<g>
	<g>
		<g>
			<path class="st3" d="M71.4,114.2c-1.6,0.3-3.1,1-4.8,1.3c-0.5,0.1-1.4,0.4-1.9,0.7c-0.3,0.2-1.6,0.4-2,0.3
				c-0.3-0.1,0.1-0.3,0.3-0.4l0,0l0,0c0.6-0.6,1.4-1.1,2.9-1.5c0.8-0.2,1.6-0.6,2.5-0.8c0.7-0.2,1.3-0.4,2-0.5c0.1,0,0.1,0,0.2,0
				c0.7-0.4,1.6-0.5,2.3-0.8c0.3-0.1,0.6-0.2,0.9-0.3c0.4-0.1,0.8-0.3,1.2-0.4c0.5-0.3,1.1-0.5,1.6-0.4c0.2,0,0.7-0.1,1.1-0.3
				c0.5-0.3,1-0.5,1.6-0.5c0,0,0.1,0,0.2,0c1.1-0.5,2.3-0.6,3.3-1.1c1.1-0.5,2.2-0.7,3.3-1c0.7-0.2,1.3-0.5,2-0.7
				c0.3-0.1,0.5-0.2,0.8-0.3c0.1,0,0.2,0,0.3-0.1c0.6-0.3,1.3-0.6,2.1-0.8l0,0l0,0c0.5-0.3,1.1-0.5,1.7-0.6l0,0c0.1,0,0,0.1,0.2,0
				c0.7-0.3,1.4-0.4,2.1-0.6c0.1,0,0.3-0.1,0.3-0.1c0.6-0.4,1.2-0.6,1.8-0.7c0,0,0.1,0,0.1,0c0.5-0.4,1.3-0.5,1.9-0.8
				c0.6-0.3,2.2-0.5,2.2-0.3c0,0-0.2,0.1-0.2,0.2l0,0c-0.7,0.5-1.6,1-2.7,1.4c-0.9,0.4-1.8,0.5-2.6,0.9c-0.7,0.3-1.5,0.6-2.2,0.8
				c-0.9,0.3-1.7,0.7-2.7,0.9c-0.5,0.1-1.2,0.4-1.8,0.6c-1.2,0.4-2.4,0.9-3.7,1.2c-0.5,0.1-1.1,0.3-1.6,0.6l0,0
				c-0.8,0.1-1.4,0.5-2.1,0.7c-1.2,0.3-2.5,0.8-3.7,1c-0.2,0-0.4,0.1-0.5,0.2c-0.4,0.2-0.8,0.3-1.3,0.4c-0.5,0.1-1,0.2-1.5,0.5
				c-0.4,0.2-0.7,0.3-1.2,0.4c-0.1,0-0.2,0-0.3,0.1C72.9,113.8,72.1,113.9,71.4,114.2L71.4,114.2z"/>
		</g>
	</g>
</g>
<g>
	<g>
		<g>
			<path class="st3" d="M72.9,119.5c-1.5,0.4-3,1.1-4.6,1.4c-0.5,0.1-1.3,0.4-1.8,0.7c-0.2,0.2-1.6,0.4-1.9,0.4
				c-0.3-0.1,0.1-0.3,0.3-0.5c0,0,0,0,0,0l0,0c0.6-0.6,1.3-1.1,2.8-1.5c0.8-0.2,1.6-0.6,2.4-0.9c0.6-0.2,1.3-0.4,1.9-0.5
				c0.1,0,0.1,0,0.2,0c0.7-0.4,1.5-0.6,2.2-0.8c0.3-0.1,0.6-0.2,0.8-0.3c0.4-0.1,0.8-0.3,1.1-0.5c0.5-0.3,1.1-0.5,1.6-0.4
				c0.2,0,0.7-0.1,1.1-0.3c0.5-0.3,1-0.5,1.5-0.5c0,0,0.1,0,0.2,0c1-0.5,2.2-0.6,3.2-1.1c1.1-0.5,2.1-0.7,3.2-1
				c0.6-0.2,1.3-0.5,2-0.7c0.2-0.1,0.5-0.2,0.8-0.3c0.1,0,0.2,0,0.3-0.1c0.6-0.3,1.3-0.6,2-0.8c0,0,0,0,0,0l0,0
				c0.5-0.3,1.1-0.5,1.7-0.6l0,0c0.1,0,0,0.1,0.2,0c0.7-0.3,1.4-0.4,2-0.6c0.1,0,0.2-0.1,0.3-0.1c0.5-0.3,1.1-0.6,1.8-0.6
				c0,0,0.1,0,0.1,0c0.5-0.4,1.3-0.5,1.8-0.8c0.6-0.3,2.1-0.5,2.1-0.2c0,0-0.2,0.1-0.2,0.2l0,0c-0.7,0.5-1.5,0.9-2.6,1.4
				c-0.9,0.4-1.8,0.5-2.6,0.8c-0.7,0.3-1.4,0.6-2.1,0.8c-0.9,0.3-1.7,0.7-2.7,0.9c-0.5,0.1-1.2,0.4-1.8,0.6
				c-1.2,0.4-2.3,0.9-3.6,1.2c-0.5,0.1-1.1,0.3-1.6,0.6l0,0c-0.7,0.1-1.3,0.5-2,0.7c-1.2,0.4-2.4,0.8-3.6,1.1
				c-0.2,0-0.4,0.1-0.5,0.2c-0.4,0.2-0.8,0.3-1.2,0.4c-0.5,0.1-1,0.2-1.5,0.5c-0.4,0.2-0.7,0.4-1.1,0.4c-0.1,0-0.2,0-0.2,0.1
				C74.4,119.1,73.5,119.2,72.9,119.5C72.8,119.5,72.9,119.5,72.9,119.5z"/>
		</g>
	</g>
</g>
<g>
	<g>
		<g>
			<path class="st3" d="M74.4,125.8c-1.5,0.4-3,1.1-4.6,1.3c-0.5,0.1-1.3,0.3-1.9,0.7c-0.3,0.2-1.6,0.4-1.9,0.3
				c-0.3-0.1,0.1-0.3,0.3-0.4l0,0l0,0c0.6-0.6,1.4-1,2.9-1.4c0.8-0.2,1.6-0.6,2.4-0.8c0.6-0.2,1.3-0.4,1.9-0.5c0.1,0,0.1,0,0.2,0
				c0.7-0.4,1.5-0.5,2.2-0.8c0.3-0.1,0.6-0.2,0.8-0.3c0.4-0.1,0.8-0.3,1.1-0.5c0.5-0.3,1.1-0.5,1.6-0.4c0.2,0,0.7-0.1,1.1-0.3
				c0.5-0.3,1-0.5,1.5-0.5c0,0,0.1,0,0.2,0c1-0.5,2.2-0.7,3.1-1.2c1.1-0.6,2.1-0.8,3.1-1.1c0.6-0.2,1.3-0.6,1.9-0.8
				c0.2-0.1,0.5-0.2,0.8-0.3c0.1,0,0.2-0.1,0.3-0.1c0.6-0.4,1.2-0.7,2-0.9l0,0l0,0c0.5-0.4,1.1-0.5,1.6-0.6l0,0c0.1,0,0,0.1,0.2,0
				c0.7-0.3,1.3-0.4,2-0.7c0.1,0,0.2-0.1,0.3-0.1c0.5-0.4,1.1-0.6,1.8-0.7c0,0,0.1,0,0.1,0c0.4-0.4,1.3-0.5,1.8-0.8
				c0.6-0.3,2.1-0.5,2.1-0.3c0,0-0.1,0.1-0.2,0.2l0,0c-0.7,0.5-1.5,1-2.5,1.4c-0.9,0.4-1.8,0.5-2.5,0.9c-0.7,0.3-1.4,0.6-2.1,0.9
				c-0.9,0.3-1.7,0.8-2.6,1c-0.5,0.1-1.2,0.4-1.7,0.7c-1.2,0.5-2.3,1-3.5,1.3c-0.5,0.1-1.1,0.3-1.5,0.6l0,0c-0.7,0.2-1.3,0.6-2,0.8
				c-1.2,0.4-2.4,0.9-3.6,1.2c-0.2,0-0.4,0.1-0.5,0.2c-0.4,0.2-0.8,0.3-1.2,0.4c-0.5,0.1-1,0.3-1.5,0.5c-0.4,0.2-0.7,0.4-1.1,0.4
				c-0.1,0-0.2,0-0.2,0.1C75.9,125.4,75.1,125.5,74.4,125.8L74.4,125.8z"/>
		</g>
	</g>
</g>
<g>
	<g>
		<g>
			<path class="st3" d="M123,90.8c-0.6,0.7-0.8,1.7-1.4,2.4c-0.2,0.2-0.4,0.7-0.4,1.1c0,0.2-0.4,0.8-0.6,0.9
				c-0.2,0.1-0.2-0.2-0.2-0.3l0,0l0,0c-0.2-0.5-0.2-1.1,0.2-1.9c0.3-0.4,0.3-1,0.6-1.4c0.2-0.3,0.4-0.7,0.7-1c0,0,0.1-0.1,0.1-0.1
				c0.1-0.5,0.5-0.9,0.7-1.3c0.1-0.2,0.2-0.3,0.3-0.5c0.2-0.2,0.3-0.4,0.3-0.6c0.1-0.3,0.3-0.6,0.6-0.7c0.1,0,0.3-0.3,0.4-0.5
				c0.1-0.3,0.2-0.6,0.4-0.8c0,0,0-0.1,0.1-0.1c0-0.1,0-0.2,0.1-0.3c0.1-0.2,0.1-0.3,0.1-0.4c0.1-0.3,0.2-0.6,0.3-0.9
				c0.4,0.3,0.8,0.6,1.2,0.8c0.7,0.3,1.1,0.7,1.7,1c0.3,0.2,0.7,0.3,1.1,0.5c0.1,0.1,0.3,0.1,0.4,0.2c0.1,0,0.1,0.1,0.2,0.1
				c0.4,0.1,0.8,0.2,1.2,0.4l0,0l0,0c0.4,0,0.7,0.1,1,0.3l0,0c0,0,0,0.1,0.1,0.1c0.4,0.1,0.8,0.3,1.2,0.4c0.1,0,0.1,0,0.2,0
				c0.4-0.1,0.7,0,1.1,0.2c0,0,0,0,0,0c0.4-0.1,0.8,0.1,1.2,0.1c0.4-0.1,1.2,0.4,1.1,0.6c0,0-0.1,0.1-0.2,0.1l0,0
				c-0.5,0.2-1.1,0.3-1.8,0.2c-0.6,0-1.1-0.3-1.6-0.4c-0.5,0-0.9-0.2-1.3-0.3c-0.5-0.2-1.1-0.2-1.6-0.6c-0.3-0.2-0.7-0.3-1-0.4
				c-0.7-0.3-1.4-0.5-2-1c-0.2-0.2-0.6-0.4-0.9-0.5l0,0c-0.1-0.1-0.2-0.1-0.3-0.2c0,0-0.1-0.1-0.1-0.1l-0.1,0c0,0,0,0,0,0
				c0,0,0,0.1,0,0l0,0c0,0,0,0,0,0l0,0l-0.1,0.2c-0.2,0.3-0.3,0.7-0.6,0.9c-0.1,0.1-0.1,0.2-0.2,0.3c-0.1,0.3-0.2,0.5-0.4,0.7
				c-0.2,0.2-0.4,0.5-0.5,0.8c-0.1,0.2-0.2,0.4-0.4,0.6c0,0-0.1,0.1-0.1,0.1C123.5,90.1,123.1,90.4,123,90.8L123,90.8z"/>
		</g>
	</g>
</g>
<g>
	<g>
		<g>
			<path class="st3" d="M134.3,83.5c-0.4,0.7-0.4,1.6-0.9,2.3c-0.1,0.2-0.3,0.6-0.2,1c0,0.2-0.3,0.8-0.5,0.9
				c-0.2,0.1-0.2-0.1-0.3-0.3l0,0l0,0c-0.2-0.5-0.3-1,0-1.7c0.2-0.4,0.2-0.9,0.4-1.3c0.1-0.3,0.2-0.6,0.4-0.9c0,0,0-0.1,0-0.1
				c0-0.4,0.2-0.8,0.3-1.2c0-0.1,0.1-0.3,0.1-0.4c0.1-0.2,0.1-0.4,0.1-0.6c0-0.3,0.1-0.6,0.4-0.9c0.1-0.1,0.3-0.5,0.3-0.9
				c0-0.2,0.1-0.1,0.2,0c0.1,0,0.2,0.1,0.3,0.2c0.2,0.1,0.4,0.3,0.6,0.5c0,0,0.1,0.1,0.1,0.1c0.6,0.2,0.9,0.7,1.5,0.9
				c0.6,0.2,1,0.5,1.5,0.9c0.3,0.2,0.7,0.3,1,0.4c0.1,0.1,0.3,0.1,0.4,0.2c0,0,0.1,0.1,0.1,0.1c0.4,0,0.7,0.1,1,0.3l0,0l0,0
				c0.3,0,0.6,0.1,0.8,0.3l0,0c0,0,0,0.1,0.1,0.1c0.3,0.1,0.7,0.3,1,0.4c0.1,0,0.1,0,0.2,0c0.3-0.1,0.6,0,0.9,0.3c0,0,0,0,0,0
				c0.3-0.1,0.7,0.2,1,0.1c0.3,0,1,0.4,0.9,0.7c0,0-0.1,0.1-0.2,0.1l0,0c-0.5,0.2-1,0.2-1.6,0.1c-0.5-0.1-0.9-0.4-1.3-0.4
				c-0.4-0.1-0.8-0.2-1.1-0.3c-0.5-0.2-1-0.2-1.4-0.5c-0.2-0.2-0.6-0.3-0.9-0.4c-0.6-0.3-1.2-0.5-1.8-0.9c-0.2-0.2-0.5-0.3-0.8-0.4
				l0,0c-0.3-0.3-0.7-0.3-1-0.5c-0.3-0.2-0.5-0.4-0.8-0.6l-0.1-0.1c0,0,0,0,0,0l0,0c0,0,0-0.1-0.1-0.1c0,0,0,0,0,0.1
				c0,0.1,0,0.1,0,0.1c-0.1,0.2-0.2,0.5-0.3,0.8c0,0.2,0,0.4-0.2,0.6c0,0-0.1,0.1-0.1,0.1C134.6,82.8,134.3,83.1,134.3,83.5
				L134.3,83.5z"/>
		</g>
	</g>
</g>
<g>
	<g>
		<g>
			<path class="st3" d="M144,80.5c-0.4,0.5-0.3,1.1-0.7,1.6c-0.1,0.2-0.1,0.5,0,0.7c0.1,0.1-0.1,0.6-0.3,0.7
				c-0.2,0.1-0.2-0.1-0.3-0.2l0,0l0,0c-0.4-0.3-0.6-0.7-0.4-1.3c0.1-0.3,0-0.7,0.2-1c0.1-0.2,0.2-0.5,0.4-0.7c0,0,0,0,0,0
				c0-0.3,0.2-0.6,0.4-0.9c0.1-0.2,0.2-0.4,0.3-0.5c0.1-0.1,0.2-0.2,0.2-0.4c0,0,0-0.1,0.1-0.1c0,0,0.1,0,0.1,0c0.1,0,0.1,0,0.2,0
				c0.2,0,0.4,0.1,0.6,0.2c0.1,0.1,0.2,0.1,0.2,0.2c0,0,0.1,0.1,0.1,0.2c0,0.1,0.2,0.2,0.4,0.2c0.2,0,0.4,0,0.6,0.3c0,0,0,0,0.1,0
				c0.5,0,0.8,0.4,1.2,0.4c0.5,0,0.8,0.3,1.2,0.5c0.2,0.1,0.5,0.1,0.8,0.2c0.1,0,0.2,0,0.3,0.1c0,0,0.1,0,0.1,0c0.3,0,0.6,0,0.8,0.1
				l0,0l0,0c0.3-0.1,0.5,0,0.6,0.1l0,0c0,0,0,0.1,0.1,0.1c0.3,0,0.5,0.2,0.8,0.2c0,0,0.1,0,0.1,0c0.3-0.1,0.5-0.1,0.7,0.1
				c0,0,0,0,0,0c0.2-0.2,0.5,0,0.8,0c0.3-0.1,0.8,0.3,0.7,0.5c0,0-0.1,0.1-0.1,0.1l0,0c-0.3,0.2-0.7,0.3-1.2,0.3
				c-0.4,0-0.7-0.2-1-0.2c-0.3,0-0.6,0-0.9-0.1c-0.4-0.1-0.7,0-1.1-0.2c-0.2-0.1-0.5-0.1-0.7-0.2c-0.5-0.1-1-0.2-1.4-0.4
				c-0.2-0.1-0.4-0.2-0.6-0.2l0,0c-0.2-0.2-0.6-0.1-0.8-0.2c-0.4-0.2-0.9-0.4-1.3-0.7c-0.1,0-0.1-0.1-0.2-0.1
				c-0.2,0-0.4-0.1-0.4-0.2c0-0.1-0.1-0.2-0.2-0.1c0,0.1,0,0.1-0.1,0.1c0,0,0,0,0,0C144.4,80,144,80.3,144,80.5L144,80.5z"/>
		</g>
	</g>
</g>
<g>
	<g>
		<g>
			<path class="st3" d="M115.6,93.7c-0.4,0.4-0.4,1-0.8,1.3c-0.1,0.1-0.2,0.4-0.1,0.6c0,0.1-0.2,0.4-0.4,0.5c-0.2,0-0.2-0.1-0.3-0.2
				l0,0l0,0c-0.3-0.3-0.4-0.8-0.1-1.2c0.2-0.3,0.2-0.6,0.4-0.8c0.1-0.2,0.2-0.4,0.4-0.5c0,0,0,0,0,0c0-0.3,0.2-0.5,0.3-0.7
				c0-0.1,0.1-0.2,0.1-0.3c0.1-0.1,0.1-0.2,0.1-0.4c0-0.2,0.1-0.4,0.4-0.4c0.1,0,0.2-0.2,0.2-0.3c0-0.2,0-0.4,0.2-0.5c0,0,0,0,0,0
				c0-0.2,0-0.3,0.1-0.5c0.1-0.3,0.2-0.6,0.1-0.9c0-0.2,0-0.4,0-0.6c0.4,0.2,0.9,0.5,1.2,0.7c0.2,0.1,0.3,0.1,0.4,0.2
				c0.1,0,0.2,0,0.3,0.1c0.1,0,0.2,0,0.3,0.1c0,0,0.1,0.1,0.1,0.1c0.3,0,0.5,0,0.7,0.2l0,0l0,0c0.2-0.1,0.4,0,0.5,0.2l0,0
				c0,0,0,0.1,0,0.1c0.2,0.1,0.4,0.2,0.6,0.3c0,0,0.1,0,0.1,0c0.2-0.1,0.4,0,0.6,0.2c0,0,0,0,0,0c0.2-0.2,0.4,0.1,0.7,0
				c0.2-0.1,0.6,0.4,0.6,0.6c0,0-0.1,0.1-0.1,0.1l0,0c-0.3,0.2-0.7,0.3-1.1,0.3c-0.3,0-0.6-0.3-0.9-0.3c-0.3,0-0.5-0.1-0.8-0.2
				c-0.3-0.1-0.6-0.1-0.9-0.3c-0.1-0.1-0.4-0.2-0.6-0.2c-0.2-0.1-0.4-0.1-0.6-0.2c-0.1,0-0.2-0.1-0.3-0.1c0,0,0,0,0-0.1
				c0-0.1-0.1-0.1,0,0l0,0l0,0c-0.1-0.1,0.1,0.1,0,0.1c0,0,0,0,0,0l0,0.2l-0.1,0.3c-0.1,0.2-0.2,0.4-0.3,0.6c0,0-0.1,0.1-0.1,0.2
				c0,0.2-0.1,0.3-0.2,0.4c-0.1,0.1-0.2,0.3-0.3,0.5c0,0.1,0,0.3-0.2,0.4c0,0-0.1,0-0.1,0.1C115.9,93.3,115.6,93.4,115.6,93.7
				L115.6,93.7z"/>
		</g>
	</g>
</g>
<g>
	<g>
		<g>
			<path class="st3" d="M125.6,99c-1.6,0.2-3.1,0.7-4.6,1.1c-0.5,0.1-1.2,0.5-1.6,0.9c-0.1,0.1-0.4,0.3-0.8,0.5
				c-0.3,0.2-0.7,0.4-0.8,0.4c-0.3,0.1-0.1-0.3,0.1-0.5l0,0l0,0c0.3-0.8,1-1.6,2.5-2.1c0.8-0.3,1.6-0.7,2.5-0.9
				c0.7-0.1,1.3-0.3,2-0.3c0.1,0,0.1,0,0.2,0c0.7-0.3,1.6-0.3,2.3-0.5c0.3-0.1,0.6-0.2,0.9-0.2c0.4-0.1,0.8-0.2,1.2-0.3
				c0.5-0.2,1.1-0.4,1.6-0.3c0.2,0,0.7-0.1,1-0.3c0.5-0.3,0.9-0.5,1.4-0.6c0,0,0.1,0,0.2-0.1c0.9-0.7,2.1-1.1,2.9-1.7
				c1-0.7,2-1.1,3.2-1.3c0.7-0.2,1.4-0.4,2.1-0.5c0.3,0,0.5-0.1,0.8-0.1c0.1,0,0.2,0,0.3,0c0.7-0.2,1.4-0.3,2.1-0.3l0,0l0,0
				c0.5-0.2,1.1-0.2,1.7-0.3l0,0c0.1,0,0,0.1,0.2,0c0.7-0.2,1.3-0.3,2-0.6c0.1,0,0.2-0.1,0.3-0.2c0.5-0.4,1-0.6,1.7-0.8
				c0,0,0.1,0,0.1,0c0.4-0.4,1.1-0.7,1.5-1.2c0.4-0.5,1.7-1.2,1.8-1c0,0-0.1,0.2-0.1,0.3l0,0c-0.4,0.8-1.1,1.5-2,2.2
				c-0.8,0.6-1.7,0.9-2.5,1.3c-0.7,0.4-1.5,0.7-2.2,0.9c-0.9,0.2-1.8,0.6-2.9,0.5c-0.5,0-1.3,0.1-1.9,0.1c-1.2,0.1-2.4,0.4-3.5,0.7
				c-0.5,0.1-1,0.4-1.4,0.7l0,0c-0.7,0.2-1.2,0.7-1.8,1.1c-1.1,0.6-2.2,1.3-3.4,1.7c-0.2,0-0.4,0.1-0.5,0.2
				c-0.4,0.3-0.8,0.4-1.3,0.4c-0.5,0.1-1,0.2-1.5,0.4c-0.4,0.1-0.8,0.3-1.2,0.2c-0.1,0-0.2,0-0.3,0C127.2,98.8,126.3,98.8,125.6,99
				L125.6,99z"/>
		</g>
	</g>
</g>
<g>
	<g>
		<g>
			<path class="st3" d="M129.4,100.6c-1.3,0.2-2.5,0.8-3.9,1c-0.4,0.1-1.1,0.3-1.5,0.6c-0.2,0.1-1.3,0.4-1.5,0.3
				c-0.3-0.1,0-0.3,0.2-0.4l0,0l0,0c0.4-0.6,1.1-1.1,2.3-1.4c0.7-0.2,1.3-0.5,2.1-0.7c0.5-0.1,1.1-0.3,1.6-0.3c0,0,0.1,0,0.1,0
				c0.6-0.3,1.3-0.4,1.9-0.6c0.2-0.1,0.5-0.2,0.7-0.2c0.4-0.1,0.6-0.2,1-0.4c0.4-0.2,0.9-0.4,1.3-0.2c0.1,0,0.6-0.1,0.9-0.2
				c0.4-0.2,0.7-0.4,1.1-0.5c0,0,0.1,0,0.1-0.1c0.7-0.6,1.7-0.9,2.5-1.4c0.9-0.6,1.7-0.8,2.7-1.1c0.5-0.1,1.1-0.4,1.7-0.5
				c0.2,0,0.5-0.1,0.7-0.1c0.1,0,0.2,0,0.3,0c0.6-0.2,1.2-0.3,1.8-0.3l0,0l0,0c0.5-0.2,1-0.2,1.4-0.1l0,0c0,0,0,0.1,0.2,0.1
				c0.6-0.1,1.2-0.1,1.7-0.2c0.1,0,0.2,0,0.3-0.1c0.5-0.2,1-0.4,1.5-0.4c0,0,0.1,0,0.1,0c0.4-0.3,1.1-0.3,1.5-0.6
				c0.5-0.3,1.7-0.5,1.7-0.2c0,0-0.1,0.1-0.2,0.2l0,0c-0.5,0.5-1.2,1-2.1,1.3c-0.8,0.3-1.6,0.3-2.2,0.5c-0.6,0.2-1.3,0.3-1.9,0.4
				c-0.8,0.1-1.5,0.3-2.4,0.2c-0.4,0-1,0.1-1.5,0.1c-1,0.1-1.9,0.5-2.9,0.7c-0.4,0.1-0.9,0.3-1.2,0.6l0,0c-0.6,0.2-1,0.6-1.5,0.8
				c-0.9,0.4-1.8,1.1-2.9,1.4c-0.2,0-0.3,0.1-0.5,0.2c-0.3,0.2-0.7,0.3-1,0.3c-0.4,0.1-0.9,0.2-1.3,0.3c-0.3,0.1-0.6,0.3-1,0.3
				c-0.1,0-0.2,0-0.2,0C130.7,100.3,130,100.3,129.4,100.6L129.4,100.6z"/>
		</g>
	</g>
</g>
</svg>
