<?xml version="1.0" encoding="utf-8"?>
<!-- Generator: Adobe Illustrator 24.2.1, SVG Export Plug-In . SVG Version: 6.00 Build 0)  -->
<svg version="1.1" id="Layer_1" xmlns="http://www.w3.org/2000/svg" xmlns:xlink="http://www.w3.org/1999/xlink" x="0px" y="0px"
	 viewBox="0 0 159.7 125.8" style="enable-background:new 0 0 159.7 125.8;" xml:space="preserve">
<style type="text/css">
	.st0{opacity:0.25;}
	.st1{fill:#396A7C;}
	.st2{fill:#FFFFFF;}
	.st3{fill:#231F20;}
	.st4{fill:#EAEAE9;}
</style>
<g class="st0">
	<path class="st1" d="M159.6,85.9c-1-3.3-2.9-6.3-5.3-8.6c-1.4-1.4-3.3-2.6-5.2-2.2c-0.6,0.1-1.1,0.4-1.7,0.5
		c-2.2,0.4-4.3-1.6-5-3.7c-0.7-2.2-0.3-4.5-0.1-6.8c0.3-3.4,0.2-6.9-1.3-10c-1.1-2.4-4.6-3.8-7.7-4.4c-0.3-1.5-0.5-2.9-0.9-4.4
		c0,0,0,0,0,0c0,0,0,0,0,0c-0.4-1.5-0.9-3-1.7-4.3c-0.4-0.7-0.9-1.4-1.5-2.1c0,0-0.1-0.1-0.1-0.1c-0.7-1-3.4-3.8-6.5-6.7
		c-2.1-2-4.2-4.1-6.3-6.1c-1-1-2.1-2-3.4-2.7c-1.6-1.3-4.7-1.9-7.5-2.2c-5.7-1-13-1.4-18.8-0.6c0-0.1,0.1-0.2,0.1-0.2
		c0.1-0.4-0.2-0.8-0.4-1.2c-1.2-1.9-2.5-3.8-4.5-4.8c-2.1-1-4.5-0.6-6.8-0.3c-1.6,0.3-3.9,1.8-4.8,2.5c-0.2-0.2-0.4-0.5-0.6-0.7
		c-0.3-1.9-0.9-5.9-1.2-8.2c-1.4,1-2.6,2.2-3.8,3.4c-2.8-2.1-5.9-3.5-9.1-3.6c-4.8-0.1-10.3,1.6-15.4,4c-1.8-0.8-3.9-3.2-5-4.7
		c-1.6,2.4-2.6,5.2-2.7,8.1c-3.3-3.4-9.2-4-13.1-1.3c-1.8,1.3-3.3,3.1-5.3,3.9c0.7,4.4,4.6,8.2,9,8.8l0.9-0.7
		c-0.9,1.6-1.6,3.3-2.2,5c-2,5.2-4.6,11.4-5.5,16.9c-0.1,0.6,0,1.2,0.2,1.7c-0.1,0.5-0.2,0.9-0.2,1.4L16,51.7
		c-5.3,1.1-9.4,3.6-8.6,9.5c-0.1,1-0.1,2,0,3C6.9,68,8.3,72,10.5,75.9c1.7,3.7,4,7.2,6.9,10.1c1,1,2.1,2,3.2,2.9
		c7,5.5,15.9,7.4,24.8,7.5l0,0c3.1,2.3,1.7,6,2.7,9.7c0.1,0.5,0.2,1.3,0,1.2c-2.7,3.1-6.4,11-2,12.9c1.9,0.8,3.9,1.2,5.9,1.3
		c3,0.1,6.1,0.1,8.7-1.4c0.9-0.5,1.7-1.2,2.1-2.2c0.5-1.3,0.1-2.7-0.4-3.9c-0.7-2.2-3.6-6.4-3.9-6.3c0.3-2.9,0.8-5.9,1.3-8.8
		c2.1,0.1,4.2,0,6.2-0.2c0.2,0,0.4,0,0.6-0.1c0.3,0.8,0.6,1.6,1,2.4c0.7,1.7,1.4,3.5,1.7,5.3c0.3,1.6,0.3,3.3,1.2,4.6
		c-1.6,3.1-4.9,7.1-4.6,10.7c0,0.2,0,0.5,0.1,0.7c0.1,0.4,0.4,0.6,0.7,0.9c1.3,1.1,3,1.7,4.7,2c4,0.7,8.3,0.2,12-1.4
		c0.3-0.1,0.7-0.3,0.9-0.6c0.5-0.5,0.5-1.2,0.5-1.9c0.1-2,0.1-4-0.3-6c-0.4-2-1.2-3.9-2.7-5.2l-0.3-11.8c1.7-0.2,4-0.4,6.5-0.5
		c1.2,1.6,2.5,3.3,2.5,5.3l-0.9,1.4c0,0-3.3,6.8-3.2,10.3c0,0.5,0.1,1.1,0.3,1.5c0.3,0.6,0.9,0.9,1.5,1.2c3.7,1.8,8.1,1.8,11.9,0.2
		c0.7-0.3,1.5-0.7,2-1.4c0.7-1,0.8-2.5,0.7-3.8c-0.1-2.3-0.6-4.8-2.1-6.3c0.1-0.3,0.1-0.5,0.1-0.8c-0.2-2.8,1.1-5.4,2.8-7.6
		c1.8,0.2,3,0.6,3.2,1.2c0.7,2.8,1.4,5.7,3,8c-1.7,3.3-4,7.7-4.1,10.9c0,0.4,0,0.8,0.1,1.2c0.2,0.4,0.6,0.7,1,1
		c3.3,2.2,7.3,3.2,11.2,2.8c1.8-0.2,3.7-0.7,5.1-1.8c1.5-1.2,2.6-3.1,2.4-5.1c-0.1-1.5-0.8-2.9-1.6-4.2c-0.7-1.1-1.9-4.4-2.8-6.5
		c0.2-0.9,0.3-1.8,0.5-2.7c0.6-3.3,1.8-6.4,3-9.5c1.1-2.8,2.2-5.6,3.4-8.4c3-7.6,6.1-15.4,6.1-23.5c0-2.2-0.2-4.5-0.6-6.7
		c1.6,0.3,3.3,1,4,4.3c1.2,6,0.7,15.3,2.8,18.6c0.5,0.8,1.1,1.5,1.5,2.4c0.4,0.9,0.5,1.9,0.7,2.9c1.3,4.5,6.5,7.5,11,6.3
		c0.7-0.2,1.5-0.5,1.8-1.2c0.3-0.7-0.3-1.7-1-1.5c0.4-0.9,1.7-0.3,2.4,0.3c0.7,0.6,2,1.2,2.4,0.4C159.8,86.7,159.7,86.3,159.6,85.9z
		 M76.3,113.2c-0.1,0-0.1,0-0.2,0c0.3,0,0.5,0,0.8,0C76.7,113.2,76.5,113.2,76.3,113.2z"/>
</g>
<g>
	<path class="st2" d="M124.5,44.3c3.4,0.1,8.6,1.6,10,4.6c1.4,3.1,1.5,6.6,1.3,10c-0.2,2.3-0.6,4.6,0.1,6.8c0.7,2.2,2.8,4.1,5,3.7
		c0.6-0.1,1.1-0.3,1.7-0.5c1.9-0.4,3.8,0.8,5.2,2.2c2.5,2.4,4.3,5.4,5.3,8.6c0.1,0.4,0.2,0.8,0,1.1c-0.4,0.9-1.7,0.3-2.4-0.4
		c-0.7-0.6-2-1.2-2.4-0.3c0.7-0.2,1.3,0.8,1,1.5c-0.3,0.7-1.1,1-1.8,1.2c-4.5,1.2-9.8-1.8-11-6.3c-0.3-1-0.4-1.9-0.7-2.9
		c-0.4-0.9-0.9-1.6-1.5-2.4c-2.2-3.3-1.6-12.6-2.8-18.6c-1-4.9-4.5-4-6.1-4.8"/>
	<g>
		<g>
			<path class="st3" d="M125.5,48c-0.1,0.1-0.1,0.3-0.2,0.4c-0.2,0.2,0.3,0.6,0.8,0.9c0.3,0.2,0.7,0.3,1.3,0.5
				c0.7,0.2,1.3,0.4,1.7,0.8c0.4,0.4,0.8,1,1,1.7c0.2,0.7,0.4,1.5,0.5,2.3c0.1,0.8,0.2,1.7,0.3,2.5c0.2,2,0.3,4.1,0.5,6.2
				c0.1,1.1,0.2,2.3,0.4,3.3c0.3,1.8,0.6,3.5,1.6,5.4c0.6,0.9,1.1,1.6,1.4,2.3c0.3,0.7,0.4,1.6,0.7,2.7c0.1,0.4,0.2,0.7,0.4,1
				c0.2,0.3,0.3,0.7,0.5,1c1.4,2.5,3.9,4.4,6.7,5.1c1.6,0.4,3.2,0.4,4.8,0c0.4-0.1,0.8-0.3,1.3-0.6c0.4-0.3,0.9-0.7,1.1-1.3
				c0.3-0.7,0.1-1.4-0.2-2c-0.2-0.3-0.4-0.6-0.8-0.8c-0.4-0.2-0.9-0.3-1.3-0.2l1.1,1.4c-0.3-0.1-0.2-0.2-0.2,0c0,0.1,0,0.1,0,0.2
				c0,0,0,0,0,0c0,0,0.1,0,0.1,0c0.2,0,0.5,0.2,0.8,0.4l0.2,0.2c0.1,0.1,0.2,0.2,0.3,0.2c0.2,0.2,0.6,0.4,0.9,0.5
				c0.5,0.2,1.1,0.3,1.6,0.1c0.2-0.1,0.5-0.2,0.7-0.3c0.2-0.2,0.4-0.4,0.5-0.6c0.3-0.5,0.2-1.2,0-1.9l-0.2-0.7l-0.2-0.6
				c-0.3-0.8-0.6-1.5-1-2.2c-0.7-1.4-1.6-2.8-2.7-4c-1.1-1.2-2.2-2.5-3.8-3.4c-0.8-0.4-1.7-0.8-2.7-0.8c-0.5,0-1.1,0-1.5,0.2
				l-1.1,0.3c-1.2,0.4-2.5-0.6-3.3-1.8c-0.7-1-0.9-2.4-0.8-3.9c0-1.4,0.3-3,0.4-4.6c0.1-2.2,0.1-4.4-0.4-6.7
				c-0.2-0.7-0.4-1.5-0.7-2.2c-0.2-0.7-0.7-1.5-1.3-2.1c-1.2-1.2-2.6-1.9-4-2.5c-1.4-0.5-2.8-0.9-4.3-1.2c-1-0.2-1.5-0.1-1.7,0
				c-0.2,0.2-0.2,0.4-0.1,0.7c0.3,0.4,0.5,0.8,0.7,1.3c0.1,0.3,0.1,0.3,1.2,0.4l0.5,0.1c1.9,0.4,3.8,0.9,5.2,2.1
				c0.5,0.4,1,0.9,1.3,1.4c0.3,0.4,0.5,0.9,0.6,1.4c0.4,1.1,0.5,2.3,0.8,3.4c0,0.1,0,0.3,0,0.4c-0.1,0.5,0.1,1,0.1,1.5
				c0,0.6,0.1,1.3,0,2c-0.1,1.9-0.5,3.8-0.3,5.9c0.1,0.7,0.2,1.4,0.3,2c0.2,0.7,0.5,1.3,0.9,1.9c0.8,1.2,1.9,2.2,3.5,2.5
				c0.2,0,0.4,0.1,0.5,0.1c0.6,0.2,1.5,0,2-0.2c0.6-0.2,0.9-0.3,1.3-0.3c0.8,0,1.6,0.2,2.3,0.8c0.3,0.2,0.7,0.6,1,0.8
				c0.6,0.4,0.9,0.9,1.4,1.4c1,1.2,1.9,2.5,2.7,3.7c0.1,0.2,0.2,0.3,0.2,0.5c0.2,0.6,0.6,1.4,0.8,1.8c0.2,0.3,0.3,0.6,0.4,0.9
				c0,0.1,0,0.1,0.1,0.2c0,0,0,0.1,0,0.1c-0.1,0.1-0.3,0-0.3,0c0,0,0,0-0.1,0c0,0,0,0-0.2-0.1c-0.1-0.1-0.6-0.5-0.9-0.7
				c-0.4-0.2-0.8-0.4-1.4-0.5c-0.3,0-0.7,0-1,0.2c-0.4,0.2-0.7,0.5-0.8,0.9l1.1,1.1c0-0.1,0-0.1,0,0c0,0.1-0.1,0.1-0.1,0.2
				c0,0,0,0,0,0c0,0,0,0.1,0,0.2c0,0,0,0,0,0l0.1,0l0,0l0,0l0,0c-0.2-0.1-0.1,0-0.1,0l0,0l0,0l0,0l0,0l0,0c0,0,0,0,0,0
				c-0.1,0.1-0.4,0.3-0.7,0.5c-0.2,0.1-0.5,0.1-0.8,0.1c-0.3,0-0.5,0-0.8,0.1c-2.2,0.2-4.5-0.7-6.2-2.2c-0.9-0.8-1.6-1.8-2.1-2.9
				c-0.5-1-0.4-2.5-1.2-4.1c-0.1-0.2-0.3-0.6-0.4-0.7c-0.3-0.2-0.5-0.6-0.7-1c-0.2-0.4-0.4-0.7-0.5-1c-0.3-0.8-0.6-1.6-0.7-2.5
				c-0.1-1.4-0.3-2.8-0.4-4.2c-0.2-1.8-0.3-3.7-0.4-5.5c-0.1-1.1-0.2-2.2-0.3-3.3c-0.2-1.1-0.3-2.2-0.7-3.4c-0.3-1-0.9-2-1.9-2.7
				c-0.9-0.8-2.1-1.1-3-1.2c-1.3-0.2-1.3-0.2-1.6,0C125.6,47.5,125.5,47.8,125.5,48z"/>
		</g>
	</g>
</g>
<path class="st2" d="M99.8,77.1c-0.1-0.2-0.2-0.5-0.3-0.9c-0.3-1.2-0.9-2.4-1.4-3.6c-0.9-2.4-1.9-4.8-2.8-7.2
	c-1.8-4.9-3.3-9.8-4.5-14.8c-2.5-10.1-5.3-20-8.9-29.8c-3.3-9-17.8-5.1-14.5,4c1.3,3.4,2.4,6.9,3.4,10.4c-0.6,1.5-0.8,3.3-0.5,5.1
	c0.9,6.3,0.5,12.7,0.8,19c0.1,3.1,0.5,6.2,1,9.2c0.1,0.7,0.4,1.5,0.7,2.4c-0.7,0.1-1.5,0.3-2.2,0.4c-3.2,0.7-6.5,1.4-9.7,2.3
	c-5.7,1.5-12.8,2.5-14.8,9c-1.2,3.8,1.4,8.3,5.2,9.2c14.4,3.5,28.9,0.3,43.3-1.5c3.4-0.4,6.2-2,7.2-5.5
	C102.6,82.3,101.8,78.9,99.8,77.1z M98.8,76.4c-0.1-0.1-0.2-0.1-0.3-0.2C98.6,76.3,98.7,76.3,98.8,76.4z"/>
<g>
	<path class="st2" d="M77.2,16c6.9-1.7,17.5-1,24.4,0.6c1.7,0.4,3.4,0.8,4.9,1.6c1.2,0.7,2.3,1.7,3.4,2.7c3.3,3.1,6.6,6.4,9.9,9.6
		c1.6,1.7,3.3,3.4,4.5,5.4c1.5,2.6,2.1,5.7,2.6,8.7c0.6,3.5,1.2,7.1,1.2,10.7c0,8.1-3.1,15.9-6.1,23.5c-1.1,2.8-2.2,5.6-3.4,8.4
		c-1.2,3.1-2.5,6.2-3,9.5c-0.4,2.2-0.5,4.7-2.1,6.3c-2.3,2.4-6.6,1.6-8.9-0.8c-2.3-2.4-3.2-5.8-3.9-9.1c-0.6-2.4-1.1-4.8-1.7-7.1"/>
	<g>
		<g>
			<path class="st3" d="M99.1,86c-0.1,0-0.3,0.1-0.4,0.1c-0.2,0-0.3,0.6-0.3,1.3c0,0.4,0,1,0.2,2c0.6,2.3,1,4.5,1.7,6.9
				c0.7,2.3,1.6,4.8,3.5,6.7c1.2,1.2,2.6,2,4.2,2.4c1.6,0.4,3.4,0.4,4.9-0.5c0.8-0.4,1.6-1.1,2.1-1.9c0.5-0.8,0.8-1.6,1-2.3
				c0.3-1.3,0.5-2.5,0.6-3.6c0.2-1.1,0.4-2.2,0.7-3.3c0.7-2.5,1.8-4.9,2.7-7.3c0.3-0.8,0.6-1.7,1-2.5c1.3-3.3,2.7-6.5,4-9.9
				c1.8-4.9,3.4-9.9,4-15.3c0.1-0.5,0.1-1.1,0.1-1.6c0.1-2.6-0.1-5.3-0.4-7.8c-0.4-2.6-0.8-5-1.3-7.6c-0.5-2.1-1-4.3-2.2-6.4
				c-1.1-2-2.7-3.7-4.2-5.2c-1.8-1.8-3.6-3.6-5.4-5.3c-1.6-1.5-3.1-3-4.6-4.4c-0.8-0.7-1.5-1.5-2.5-2.2c-0.9-0.7-2-1.3-3.1-1.7
				c-1.5-0.5-2.9-0.8-4.4-1.2c-1.5-0.3-2.9-0.6-4.4-0.8c-3.8-0.6-7.7-0.7-11.6-0.5c-1.9,0.1-3.9,0.3-5.8,0.5c-1.3,0.1-2,0.4-2.1,0.6
				c-0.2,0.3-0.1,0.5,0.1,0.7c0.5,0.3,0.9,0.6,1.3,0.9c0.2,0.2,0.2,0.2,1.7,0l0.8-0.1c2.7-0.3,5.5-0.5,8.3-0.4
				c1.1,0.1,2.3,0.1,3.2,0.1c0.8,0,1.5,0.1,2.3,0.2c1.7,0.2,3.4,0.6,4.9,0.7c0.1,0,0.4,0.1,0.5,0.1c0.7,0.2,1.3,0.3,2,0.4
				c0.9,0.2,1.7,0.4,2.5,0.7c2.3,0.9,4,2.9,6,4.7c2.5,2.4,4.7,4.8,7.2,7.2c0.1,0.1,0.3,0.3,0.4,0.4c0.9,1.1,2.1,2.2,3,3.3
				c0.9,1,1.7,2,2.2,3.2c0.2,0.4,0.5,1.2,0.7,1.7c0.4,0.9,0.6,1.7,0.8,2.6c0.5,2.1,0.8,4.4,1.3,6.4c0.1,0.3,0.1,0.5,0.1,0.7
				c0,0.9,0.2,2.1,0.3,2.7c0.2,1,0.2,1.9,0.3,2.7c0.1,1.1-0.1,1.6-0.1,2.5c0,2.3-0.3,4.6-0.9,6.9c-0.3,1.3-0.7,2.6-1,3.9
				c-0.1,0.4-0.3,0.9-0.4,1.2c-0.2,0.3-0.3,0.8-0.5,1.2c-1.1,3.2-2.4,6.5-3.7,9.7c-1.4,3.5-2.7,7-4.2,10.5c-0.1,0.3-0.3,0.7-0.3,0.9
				c0,0.5-0.3,1-0.5,1.6c-0.2,0.5-0.4,1.2-0.5,1.7c-0.4,1.3-0.5,2.7-0.8,4c-0.4,1.8-0.9,3.6-2.1,4.4c-1.5,1.1-4,0.8-5.7-0.4
				c-1-0.7-1.8-1.7-2.5-2.9c-0.6-1.2-1.1-2.5-1.5-3.9c-0.6-2.3-1.2-4.7-1.7-7.1c-0.4-1.6-0.5-1.9-0.8-2.2
				C99.6,85.6,99.3,85.9,99.1,86z"/>
		</g>
	</g>
</g>
<g>
	<path class="st4" d="M16.7,21.2c-4.5-0.6-8.3-4.3-9-8.8c2.1-0.8,3.5-2.6,5.3-3.9c3.9-2.7,9.7-2.1,13.1,1.3c0.1-2.9,1.1-5.7,2.7-8.1
		c1.2,1.6,3.6,4.3,5.5,4.9"/>
	<g>
		<g>
			<path class="st3" d="M20.6,6C20.6,5.9,20.6,5.9,20.6,6c-0.7-0.3-1.4-0.2-2.2-0.2c-0.5-0.1-1.2,0-1.8,0.2
				c-1.1,0.3-2.1,0.6-3.1,1.1c-1.6,0.8-2.8,2.1-4,3.1c-0.3,0.3-0.6,0.5-1,0.8c-0.2,0.1-0.3,0.2-0.5,0.3l-0.1,0.1l-0.1,0
				c0,0-0.1,0-0.1,0.1l-0.6,0.2l-0.8,0.3c0.1,0.4,0.2,0.8,0.2,1.2C6.8,13.4,7,13.8,7,14c0.1,0.5,0.3,0.9,0.5,1.4
				c0.3,0.7,0.8,1.4,1.2,2c0.7,1,1.6,1.8,2.6,2.5c0.3,0.2,0.7,0.3,1,0.6c0.3,0.3,0.6,0.5,1,0.6c0.4,0.2,0.9,0.4,1.3,0.6
				c0.5,0.3,1,0.4,1.6,0.5c0.3,0,0.4,0,0.5-0.2c0.2-0.3-0.1-0.6-0.5-0.7c-0.2,0-0.3-0.1-0.4-0.2c0.2-0.1,0.3,0,0.5,0
				c0.2,0,0.5,0,0.6-0.2c0.1-0.2-0.1-0.4-0.2-0.5c-0.1-0.1-0.2-0.1-0.4-0.1c-0.2-0.1-0.4-0.1-0.6-0.3c-0.1-0.1-0.3-0.1-0.4-0.2
				c-0.5-0.1-1-0.3-1.4-0.6c-1-0.6-2-1.2-2.7-2.1c-0.4-0.5-0.9-1-1.2-1.6c-0.4-0.6-0.7-1.3-0.9-2l-0.1-0.3c0,0,0-0.1-0.1-0.2
				c0,0,0,0,0.1,0c0.1,0,0.1,0,0.1,0c0,0,0,0,0,0c0,0,0,0,0,0L9,12.9c0.3-0.2,0.6-0.4,0.9-0.6c0.9-0.6,1.5-1.4,2.4-2
				c0.6-0.4,1.1-0.9,1.6-1.2c1-0.6,2.2-1.1,3.4-1.2c1.1-0.1,2.3-0.1,3.4,0.2c0.6,0.1,1.1,0.3,1.7,0.6c0.3,0.1,0.5,0.3,0.8,0.4
				c0.1,0.1,0.3,0.1,0.4,0.2L24,9.4c1,0.8,1.9,1.7,2.8,2.6l0.2-2.4c0-0.4,0.1-0.8,0.1-1.2L27.3,8l0.1-0.3c0.2-0.7,0.4-1.5,0.7-2.2
				c0.2-0.5,0.5-1.1,0.7-1.6c0-0.1,0-0.1,0.1-0.1c0,0,0,0,0,0c0,0,0,0,0,0l0.5,0.5c0.4,0.4,0.8,0.9,1.3,1.3c0.5,0.5,1.1,0.9,1.8,1.3
				c0.3,0.2,0.7,0.3,0.8,0C33.3,7,33.4,7,33.5,7c0.6,0.1,0.7,0,0.6-0.5c0-0.2,0-0.4,0.1-0.5c0.1-0.4,0.1-0.6-0.3-0.8
				C33.2,5,32.6,4.5,32,4c-0.4-0.3-0.7-0.7-1.1-1l-0.2-0.3l-0.3-0.4c-0.3-0.3-0.6-0.7-0.9-1.1L28.7,0c-0.5,0.7-1,1.4-1.4,2.1L27,2.8
				l-0.2,0.4c-0.1,0.3-0.3,0.5-0.4,0.8c-0.1,0.3-0.2,0.7-0.5,1.1l0,0c0,0.1,0,0.2-0.1,0.2l0,0c-0.2,0.1,0,0.3-0.1,0.5
				c-0.2,0.4-0.3,0.8-0.4,1.3c0,0.1-0.1,0.2-0.1,0.3l-0.1,0.2c0,0,0,0,0,0c0,0,0,0,0.1,0.1c0,0,0,0,0,0c0,0.1-0.1-0.2-0.1-0.1
				c0,0,0,0.1,0.1,0.2c0,0,0,0,0-0.1c0-0.1,0-0.1,0-0.1l0,0.1c0-0.1,0-0.1,0-0.1c0-0.1,0-0.1,0-0.1c0,0,0,0,0,0c0,0,0,0,0,0
				l-0.2-0.1c-0.3-0.2-0.5-0.3-0.8-0.5c-0.2-0.1-0.3-0.2-0.5-0.3c-0.4,0-0.7-0.1-1.1-0.4c-0.1-0.1-0.4-0.1-0.6-0.1l0,0
				c-0.2-0.1-0.3-0.1-0.4-0.2l0,0c-0.3,0-0.5-0.2-0.8-0.2C20.7,5.9,20.7,6,20.6,6z"/>
		</g>
	</g>
</g>
<g>
	<path class="st4" d="M57.8,6.5c1.3-1.4,2.7-2.7,4.2-3.9c0.5,3.1,1.4,9.2,1.4,9.2s3.2-2.5,5.3-2.9c2.3-0.4,4.7-0.7,6.8,0.3
		c2,0.9,3.3,2.9,4.5,4.8c0.2,0.4,0.5,0.8,0.4,1.2c-0.1,0.4-0.4,0.8-0.8,1.1c-1.5,1.3-2.7,2.9-4.3,4c-1.6,1.1-3.8,1.7-5.5,0.8"/>
	<g>
		<g>
			<path class="st3" d="M75,7.9C75,7.9,75,7.9,75,7.9c-0.7-0.4-1.4-0.3-2.1-0.4c-0.5-0.1-1.2,0-1.7,0c-0.5,0.1-1,0.2-1.5,0.2
				l-0.7,0.1c-0.2,0-0.5,0.1-0.8,0.1c-0.9,0.2-1.7,0.6-2.4,1c-0.4,0.2-0.7,0.4-1,0.6L64.3,10c-0.1,0-0.1,0.1-0.2,0.1
				c0,0-0.1-0.2-0.1-0.3l0-0.1l0-0.3l-0.1-0.7c-0.1-0.5-0.2-1-0.2-1.5c-0.1-0.7-0.2-1.4-0.4-2.1L63,2.8l-0.2-1.3l-0.1-0.3
				c0-0.1,0,0-0.1,0l-0.1,0.1l-0.5,0.4c-0.5,0.4-0.9,0.8-1.3,1.1c-0.2,0.1-0.5,0.3-0.7,0.5c-0.2,0.1-0.3,0.2-0.4,0.4
				c-0.3,0.3-0.7,0.6-1,0.8c-0.4,0.3-0.8,0.6-1.1,1c-0.2,0.2-0.1,0.3-0.1,0.5c0.1,0.3,0.5,0.3,0.9,0c0.1-0.1,0.2-0.2,0.4-0.3
				c0,0.2-0.2,0.3-0.2,0.4c-0.1,0.2-0.2,0.4-0.1,0.6c0.1,0.1,0.3,0.2,0.6,0.1c0.1,0,0.2-0.1,0.3-0.2c0.2-0.2,0.3-0.3,0.5-0.4
				c0.2,0,0.3-0.2,0.4-0.3c0.2-0.2,0.4-0.4,0.6-0.6L60.9,5L61,4.9c0,0,0.1-0.1,0.1-0.1c0,0,0,0,0.1-0.1c0.1-0.1,0.1,0,0.1,0.1
				c0,0,0,0,0,0.1l0.1,0.5c0.1,0.4,0.1,0.7,0.2,1.1C61.7,7.3,61.9,8,62,8.8c0.1,0.4,0.1,0.7,0.3,1c0,0.1,0,0.5,0,0.8
				c0,0.3,0.1,0.6,0.1,0.9c0.1,0.6,0.2,1.2,0.3,1.8c0,0,0,0.1,0,0.1c0.7-0.5,1.4-1.1,2.1-1.6l0.5-0.4l0.3-0.2
				c0.2-0.1,0.4-0.3,0.6-0.3c0.6-0.3,1.2-0.7,1.8-0.9c0.3-0.1,0.5-0.2,0.8-0.2l1-0.2c0.6-0.1,1.3-0.2,1.9-0.2c1.1,0,2.2,0,3.2,0.5
				c1,0.4,1.8,1.2,2.5,2.1c0.4,0.5,0.8,1.1,1.2,1.7l0.6,0.9c0.2,0.3,0.1,0.3,0.1,0.3c0,0,0,0-0.3,0.3c-0.3,0.2-0.6,0.5-0.9,0.8
				c-1.1,1-2,2.1-3.1,2.8c-0.8,0.6-1.6,1.1-2.5,1.3c-0.5,0.1-1,0.2-1.5,0.1c-0.2,0-0.4,0-0.5,0.3c0,0.1-0.1,0.1-0.2,0.1
				c-0.4,0-0.6,0-0.6,0.4c0,0.2,0,0.4-0.1,0.5c-0.2,0.4,0,0.7,0.7,0.8c1.1,0.2,2.1,0.1,3-0.2c1.1-0.4,2.1-0.9,3-1.6
				c0.6-0.4,1.2-0.9,1.7-1.5c0.4-0.4,0.8-0.7,1.1-1.1c0.2-0.2,0.4-0.5,0.8-0.7l0,0c0-0.1,0.1-0.1,0.2-0.2l0,0c0.2,0,0.1-0.2,0.3-0.3
				c0.2-0.1,0.4-0.2,0.6-0.5c0.3-0.3,0.4-0.7,0.5-1.1l0-0.1c0.1-0.4,0.1-0.7,0-1.1c-0.1-0.4-0.2-0.6-0.5-0.7c0,0,0-0.1-0.1-0.2
				c-0.3-0.4-0.3-1-0.9-1.3c-0.1,0-0.1-0.2-0.1-0.2c-0.1-0.2-0.1-0.3-0.2-0.4l-0.1,0c0-0.1,0.1,0,0.1,0c0-0.1-0.1-0.2-0.2-0.3
				c-0.4-0.4-0.8-0.8-1.2-1.3c-0.1-0.1-0.2-0.3-0.4-0.4c-0.3-0.2-0.7-0.3-0.9-0.7c-0.1-0.1-0.4-0.2-0.6-0.2l0,0
				C76.2,8.4,76,8.4,76,8.2l0,0c-0.3-0.1-0.5-0.3-0.8-0.3C75.1,7.9,75.1,8,75,7.9z"/>
		</g>
	</g>
</g>
<g>
	<path class="st4" d="M65.2,13.8c1.5-0.5,3-0.9,4.6-1.2c1-0.2,2.1-0.3,3.1-0.1s2,0.9,2.2,1.9c0,0.1,0.1,0.3,0,0.4
		c-0.1,0.2-0.2,0.3-0.4,0.4c-1.9,1.5-4.4,2.5-6.8,2.6"/>
	<g>
		<g>
			<path class="st3" d="M76.1,14C76.1,14,76.2,13.9,76.1,14c0-0.3-0.1-0.5-0.2-0.7c-0.1-0.2-0.2-0.3-0.3-0.4
				c-0.1-0.3-0.4-0.4-0.6-0.6c-0.5-0.3-0.9-0.5-1.4-0.6c-0.8-0.3-1.5-0.2-2.2-0.2c-0.4,0-0.7,0.1-1.1,0.1c-0.4,0-0.8,0.2-1.2,0.2
				c-0.3,0-0.6,0.2-0.8,0.2c-0.4,0.1-0.9,0.2-1.3,0.4c-0.1,0.1-0.2,0.2-0.4,0.1c-0.2-0.1-0.3,0-0.4,0.1c-0.2,0.1-0.3,0.1-0.5,0.1
				c-0.2,0-0.4,0-0.6,0.1C65,12.8,65,12.9,65,13c0.1,0.3,0.3,0.5,0.4,0.5c0.1,0,0.1,0,0.2,0c0,0.1-0.1,0.1-0.1,0.2
				c-0.1,0.1-0.1,0.2-0.1,0.4c0.1,0.2,0.2,0.3,0.3,0.4c0.1,0.1,0.1,0,0.2,0c0.1,0,0.2-0.1,0.3,0c0.1,0.1,0.1,0,0.2,0
				c0.2-0.1,0.4-0.2,0.6-0.2c0.5-0.1,0.9-0.4,1.3-0.4c0.3,0,0.5-0.2,0.8-0.2c0.3-0.1,0.6-0.2,0.9-0.2c0.1,0,0.3,0,0.4-0.2
				c0.3,0.2,0.5-0.1,0.8,0c0.3,0.1,0.7-0.2,1-0.1c0.2,0.1,0.5,0,0.7,0.1c0.4,0.1,0.8,0.2,1.1,0.5c0.1,0.1,0.2,0.2,0.3,0.4
				c0.1,0.1,0.1,0.2,0.1,0.2c0,0.1,0,0.1-0.1,0.2c0,0-0.1,0-0.1,0c0,0-0.1,0.1-0.2,0.1c-0.7,0.4-1.4,0.8-2.2,1.1
				c-0.5,0.2-1,0.4-1.5,0.4c-0.4,0.1-0.8,0.2-1.2,0.3l-0.7,0.1c-0.1,0-0.2,0.1-0.2,0.4c0,0.1,0,0.1-0.1,0.2
				c-0.2,0.1-0.2,0.3-0.1,0.7c0,0.2,0.1,0.3,0.1,0.5c0,0.4,0.1,0.6,0.4,0.5c0.4-0.1,0.7-0.1,1.1-0.2c0.4-0.1,0.8-0.2,1.3-0.3
				c0.3,0,0.6-0.1,0.9-0.3c0.2-0.1,0.4-0.1,0.6-0.2c0.1-0.1,0.3-0.2,0.4-0.1l0,0c0-0.1,0-0.1,0.1,0l0,0c0.1,0.1,0.1-0.1,0.2-0.1
				c0.2,0,0.3-0.1,0.5-0.2c0.1-0.1,0.4,0,0.4-0.3c0,0,0.1,0,0.1,0c0.2-0.1,0.5,0,0.5-0.4c0,0,0.1,0,0.1,0c0.1,0,0.2,0,0.2-0.1l0-0.1
				c0.1,0,0,0.1,0,0.1c0.1,0,0.1,0,0.1,0c0.2-0.2,0.2-0.3,0.6-0.6c0.1-0.1,0.2-0.1,0.3-0.3c0.1-0.2,0.1-0.5,0.3-0.6
				c0.1-0.1,0.1-0.3,0-0.4l0,0c0-0.1,0-0.2,0.1-0.3l0,0C76.3,14.4,76.4,14.2,76.1,14C76.2,14,76.1,14,76.1,14z"/>
		</g>
	</g>
</g>
<g>
	<path class="st4" d="M19.5,17.8C18.3,18.1,17,17.7,16,17c-1-0.7-1.8-1.6-2.7-2.5c-0.3-0.3-0.6-0.7-0.4-1.1c0.1-0.2,0.4-0.3,0.6-0.4
		c3.4-1.4,7.2-2.7,10.7-1.6"/>
	<g>
		<g>
			<path class="st3" d="M15,11.3C15,11.3,15,11.2,15,11.3c-0.3-0.1-0.5,0.2-0.8,0.2c-0.2,0-0.4,0.1-0.6,0.3
				c-0.2,0.1-0.7,0.3-0.9,0.5c-0.3,0.2-0.5,0.4-0.6,0.7l0,0.1c-0.2,0.5-0.2,1.1,0.1,1.5c0.1,0.2,0.3,0.5,0.5,0.7l0.4,0.4
				c0.2,0.3,0.5,0.5,0.8,0.8c0.3,0.4,0.7,0.6,1,0.9c0.2,0.2,0.5,0.4,0.8,0.5c0.4,0.2,0.9,0.5,1.4,0.6c0.2,0,0.4,0,0.5,0.1
				c0.1,0.1,0.3,0.2,0.5,0.2c0.2,0,0.4,0.1,0.6,0.1c0.3,0.1,0.5,0.1,0.8,0c0.1,0,0.1-0.1,0.1-0.3c0-0.3-0.2-0.6-0.4-0.6
				c-0.1,0-0.1,0-0.2-0.1c0-0.1,0.1-0.1,0.2-0.1c0.1-0.1,0.2-0.2,0.1-0.4c0-0.2-0.1-0.3-0.2-0.5c-0.1-0.1-0.1-0.1-0.1-0.1
				c-0.1,0-0.1,0-0.2-0.1c0-0.1-0.1-0.1-0.1,0c-0.2,0-0.3,0-0.5,0c-0.4-0.1-0.8-0.1-1.2-0.3c-0.2-0.1-0.5-0.2-0.7-0.4
				c-0.2-0.2-0.5-0.3-0.7-0.5c-0.1-0.1-0.2-0.2-0.4-0.2c0-0.3-0.4-0.4-0.5-0.6c-0.2-0.3-0.7-0.6-0.6-0.6c0-0.1-0.1-0.1-0.1-0.2
				l0-0.1c0-0.1,0.1-0.1,0.1-0.1c0.1-0.1,0,0,0.3-0.1c0.5-0.1,0.9-0.4,1.4-0.5c0.5-0.1,1-0.3,1.5-0.4c0.9-0.2,1.7-0.4,2.6-0.4
				c0.5-0.1,1.1-0.1,1.6-0.1c0.4,0,0.8,0,1.2,0.1c0.2,0,0.5,0,0.7,0.1c0.1,0,0.2,0,0.3-0.3c0-0.1,0.1-0.1,0.1-0.1
				c0.2-0.1,0.3-0.2,0.3-0.6c0-0.2,0-0.3,0.1-0.5c0.1-0.4,0.1-0.6-0.2-0.6c-0.4,0-0.8-0.1-1.2-0.1c-0.5,0-0.9,0-1.4-0.1
				c-0.3,0-0.6,0-0.9,0c-0.2,0-0.5,0-0.7,0.1c-0.1,0-0.3,0.1-0.5,0l0,0c0,0.1-0.1,0.1-0.1,0l0,0c-0.1-0.1-0.1,0.1-0.2,0.1
				c-0.2-0.1-0.4,0-0.5,0c-0.2,0-0.4-0.1-0.5,0.1c0,0-0.1,0-0.1,0c-0.2,0-0.5-0.1-0.6,0.2c0,0-0.1,0-0.1,0c-0.1,0-0.2,0-0.2,0l0,0.1
				c-0.1-0.1,0-0.1,0-0.1c-0.1,0-0.1,0-0.1,0c-0.2,0.2-0.4,0.2-0.6,0.3c-0.1,0-0.2,0-0.2,0.1c-0.1,0.1-0.2,0.3-0.4,0.2
				c-0.1,0-0.1,0.1-0.2,0.2l0,0c-0.1,0-0.1,0.1-0.2,0l0,0C15.2,11.2,15.1,11,15,11.3C15,11.2,15,11.3,15,11.3z"/>
		</g>
	</g>
</g>
<g>
	<path class="st2" d="M97.9,88.6c-12.7,1.9-25.5,3.3-38.3,4.2C55,93.2,50,93.4,46,91"/>
	<g>
		<g>
			<path class="st3" d="M46.1,90.9c-0.1,0.1-0.2,0.3-0.2,0.4c-0.1,0.2-0.1,0.5,0.1,0.8c0.1,0.2,0.2,0.4,0.6,0.5
				c1.6,0.8,3.3,1.2,5,1.4c1,0.1,2,0.2,3,0.3c0.5,0,1.1,0,1.6,0c0.8-0.1,1.7-0.1,2.5-0.2c0.9-0.1,1.8-0.1,2.7-0.2
				c0.3,0,0.6-0.1,0.9-0.1c1.2-0.1,2.5-0.1,3.7-0.2c1.8-0.1,3.6-0.3,5.4-0.5c0.2,0,0.4,0,0.5,0c1.7-0.2,3.5-0.3,5.3-0.5
				c1.5-0.2,2.9-0.2,4.4-0.4c0.9-0.1,1.7-0.2,2.6-0.3c1.5-0.2,2.9-0.3,4.4-0.6c1-0.2,2-0.3,3-0.4c1.3-0.1,2.6-0.4,3.9-0.7
				c0.6-0.1,1.3-0.2,2-0.3c0.4,0,0.7-0.1,0.7-0.3c0-0.2,0-0.4-0.1-0.7c-0.2-0.4-0.4-0.8-0.6-1.1c-0.1-0.3-0.1-0.3-0.6-0.2l-0.3,0
				c-1,0.1-1.9,0.4-2.9,0.5c-0.4,0-0.8,0.1-1.1,0.2c-0.3,0.1-0.5,0.1-0.8,0.2c-0.6,0.1-1.2,0.1-1.7,0.3c0,0-0.1,0-0.2,0
				c-0.3-0.1-0.5,0.1-0.7,0.1c-0.3,0.1-0.6,0.2-0.9,0.2c-0.9,0.1-1.8,0.2-2.7,0.3c-1.2,0.2-2.3,0.1-3.5,0.3c-0.1,0-0.1,0-0.2,0
				c-0.5-0.1-1.1,0-1.6,0.1c-0.5,0.1-0.9,0.2-1.4,0.2c-0.2,0-0.5,0-0.7,0.1c-0.3,0.1-0.6,0.1-1,0.1c-0.8,0.1-1.5,0.1-2.3,0.3
				c-0.1,0-0.2,0-0.2,0c-0.3-0.1-0.7,0-1,0.1c-0.3,0.1-0.7,0.1-1,0.1c-0.4,0.1-0.6-0.1-0.9,0C71,90.9,70.1,91,69.3,91
				c-0.5,0-0.9,0-1.4,0.1c-0.1,0-0.3,0-0.5,0c-0.1,0-0.3,0-0.5,0l-3.6,0.3c-1.3,0.1-2.6,0.3-3.9,0.3c-0.1,0-0.3,0-0.3,0
				c-0.1,0.1-0.4,0.1-0.6,0.1c-0.2,0-0.4,0-0.6,0c-0.5,0-0.9,0.1-1.3,0.1c-0.7-0.1-1.3-0.1-2-0.1c-0.8,0-1.7-0.1-2.5-0.2
				c-1-0.1-1.9-0.3-2.8-0.5c-0.7-0.2-1.5-0.5-2.2-0.8c-0.5-0.2-0.6-0.3-0.8-0.1C46.3,90.4,46.2,90.6,46.1,90.9z"/>
		</g>
	</g>
</g>
<g>
	<path class="st2" d="M81.6,91.7c1.3,1.7,2.7,3.5,2.8,5.7c0,0.6-0.1,1.3,0.1,1.9c0.5,1.6,2.5,2,4.2,2.2c1.8,0.1,3.6,0.3,5.2-0.5
		c0.2-0.1,0.5-0.2,0.6-0.5c0.2-0.3,0.1-0.6,0.1-1c-0.2-3.9,2.3-7.4,4.9-10.2"/>
	<g>
		<g>
			<path class="st3" d="M99.7,89.4l-0.3-0.3c-0.2-0.2-0.4-0.2-0.6-0.2c-0.1,0-0.3,0-0.5,0.2c-0.7,0.8-1.3,1.6-1.9,2.4
				c-0.4,0.5-0.7,1-1.1,1.6c-0.2,0.3-0.4,0.6-0.5,0.9c-0.2,0.5-0.4,1-0.6,1.5c-0.2,0.6-0.4,1.2-0.5,1.8c0,0.2,0,0.4,0,0.6
				c-0.1,0.4-0.1,0.8-0.1,1.2c0,0.2,0,0.4,0,0.6l0,0.1l0,0l0,0c0,0,0,0.1-0.1,0.1l0,0l-0.1,0.1c-0.1,0-0.2,0.1-0.3,0.1
				c-0.4,0.2-0.9,0.2-1.3,0.3c-0.1,0-0.2,0-0.3,0c-0.9,0.1-2-0.1-3-0.2c-0.8-0.1-1.6-0.4-2.1-0.7c-0.3-0.2-0.5-0.4-0.6-0.6
				c-0.1-0.2-0.1-0.4-0.1-0.8c0-0.4,0-1-0.1-1.5c-0.1-0.7-0.3-1.4-0.6-2.1c-0.3-0.9-0.9-1.6-1.4-2.2c-0.3-0.3-0.5-0.7-0.7-1
				c-0.1-0.2-0.3-0.3-0.4-0.2c-0.2,0.1-0.4,0.2-0.5,0.4c-0.3,0.3-0.5,0.6-0.8,0.9c-0.2,0.2-0.2,0.2,0,0.4l0.1,0.1
				c0.3,0.5,0.8,0.8,1,1.3c0.1,0.2,0.2,0.4,0.4,0.5c0.1,0.1,0.2,0.2,0.3,0.4c0.2,0.3,0.2,0.6,0.5,0.8c0,0,0,0.1,0,0.1
				c0,0.2,0.1,0.2,0.1,0.4c0.1,0.1,0.1,0.3,0.1,0.5c0,0.5-0.1,1,0,1.6c0,0.4,0.1,0.9,0.3,1.4c0.2,0.5,0.5,0.9,0.9,1.1
				c0,0,0.1,0.1,0.1,0.1c0.2,0.4,0.7,0.5,1,0.6c0.4,0.1,0.7,0.1,1,0.3c0.1,0.1,0.3,0.1,0.4,0.1c0.2,0,0.4,0.1,0.6,0.1
				c0.5,0.1,1,0.2,1.5,0.1c0.1,0,0.1,0,0.2,0c0.2,0.2,0.5,0.1,0.6,0.1c0.2,0,0.4,0,0.6,0c0.2-0.1,0.4,0.1,0.6,0.1
				c0.6-0.1,1.1-0.2,1.7-0.3c0.3-0.1,0.7-0.1,1-0.3c0.1-0.1,0.2-0.1,0.3-0.1c0.1,0,0.3-0.1,0.5-0.2c0.6-0.4,0.9-1,0.9-1.7l0-1.1
				c0-0.7,0.1-1.4,0.4-2c0-0.1,0.1-0.1,0-0.2c-0.1-0.1,0-0.2,0-0.3c0.1-0.1,0.1-0.2,0.2-0.3c0.1-0.2,0.1-0.5,0.3-0.7
				c0.3-0.3,0.4-0.6,0.6-1c0.2-0.4,0.5-0.8,0.8-1.2c0.3-0.5,0.7-0.9,1.1-1.4c0.3-0.4,0.6-0.8,0.9-1.1c0.2-0.2,0.3-0.3,0.1-0.6
				C100.1,89.7,99.9,89.6,99.7,89.4z"/>
		</g>
	</g>
</g>
<g>
	<path class="st2" d="M58.9,89.2c0.8,2,1.6,4,2.4,6c0.7,1.7,1.4,3.5,1.7,5.3c0.3,1.6,0.3,3.3,1.2,4.6c1.4,1.8,4,2,6.2,2
		c1,0,2.1,0,3.1-0.3c0.6-0.2,1.2-0.4,1.4-1c0.2-0.4,0.2-0.8,0.1-1.3c-0.3-4.6-0.1-9.2,0.5-13.8c0.2-1.5,0.4-3,1.3-4.2"/>
	<g>
		<g>
			<path class="st3" d="M73.1,105.9C73.1,105.9,73.1,105.8,73.1,105.9c-0.5,0-1,0.2-1.7,0.1c-0.4-0.1-1,0-1.5,0
				c-0.9,0.1-1.8,0-2.6-0.2c-1.3-0.3-2.4-0.9-2.8-2.1c-0.2-0.6-0.4-1.4-0.5-2.2c-0.1-1-0.4-2.1-0.6-3.1c-0.2-0.7-0.5-1.4-0.7-2
				c-0.4-1-0.8-2-1.2-3c-0.1-0.3-0.4-0.6-0.4-0.9c0-0.3-0.2-0.6-0.3-1c-0.2-0.4-0.3-0.8-0.4-1.2c-0.1-0.5-0.3-0.9-0.5-1.3
				c-0.1-0.2-0.2-0.2-0.4-0.2c-0.3,0-0.5,0.4-0.4,0.8c0,0.1,0.1,0.3,0.1,0.4c-0.1-0.1-0.2-0.2-0.3-0.4c-0.1-0.2-0.3-0.4-0.5-0.3
				c-0.2,0.1-0.3,0.2-0.3,0.5c0,0.1,0,0.3,0.1,0.4c0.1,0.2,0.2,0.4,0.1,0.7c0,0.2,0.1,0.3,0.1,0.5c0.2,0.5,0.4,1,0.6,1.5
				c0.4,1.1,1,2.2,1.4,3.3c0.2,0.7,0.6,1.3,0.8,1.9c0.2,0.7,0.5,1.4,0.6,2.1c0.1,0.3,0.1,0.7,0.3,1c-0.1,0.7,0.2,1.4,0.3,2.1
				c0.1,1,0.8,2.1,1.6,3c0.6,0.6,1.4,0.9,2.2,1.2c1.4,0.5,2.8,0.4,4.1,0.4c1.2,0,2.5,0,3.8-0.4c0.4-0.1,0.8-0.3,1.1-0.6
				c0.4-0.3,0.6-0.8,0.7-1.3c0.1-0.9,0-1.4,0-2c0-2.2,0-4.3,0.2-6.5c0.1-1.4,0.2-2.8,0.4-4.1c0.1-1.1,0.2-2.2,0.4-3.2
				c0.1-0.6,0.2-1.1,0.4-1.6c0.1-0.2,0.1-0.5-0.1-0.6c-0.1-0.1-0.1-0.1,0-0.2c0.1-0.4,0-0.6-0.4-0.6c-0.2,0-0.4-0.1-0.5-0.2
				c-0.4-0.2-0.7-0.1-0.9,0.5c-0.3,0.9-0.5,1.8-0.6,2.7c-0.1,1-0.2,2-0.4,3c-0.1,0.7-0.2,1.4-0.2,2.1c0,0.5-0.1,1-0.1,1.6
				c0,0.3,0,0.7-0.1,1l0,0c0.1,0.1,0,0.2,0,0.2l0,0c-0.1,0.2,0.1,0.3,0,0.4c-0.1,0.4-0.1,0.8-0.1,1.2c0,0.4-0.2,0.8,0,1.2
				c0,0,0,0.1,0,0.2c0,0.5-0.3,1,0.1,1.5c0,0,0,0.2,0,0.3c0,0.2-0.1,0.3-0.1,0.5l0.1,0c-0.1,0.1-0.1,0-0.1,0c-0.1,0.1-0.1,0.2,0,0.3
				c0.1,0.5,0.1,1,0.1,1.6c0,0.2-0.1,0.3,0,0.4c0.1,0.2,0.2,0.3,0,0.3c-0.1,0,0,0.1,0,0.2l0,0c-0.1,0-0.1,0.1-0.2,0l0,0
				C73.5,105.7,73.3,105.6,73.1,105.9C73.2,105.8,73.2,105.9,73.1,105.9z"/>
		</g>
	</g>
</g>
<g>
	<path class="st2" d="M39,90.4c3.1,2.3,1.7,6,2.7,9.7c0.2,0.6,0.3,1.3,0.7,1.8c0.6,0.7,1.6,0.9,2.5,1c2,0.3,4.1,0.3,6.1,0.2
		c0.3,0,0.7-0.1,0.9-0.3c0.2-0.2,0.2-0.5,0.2-0.7c0.5-4.6,1.3-9.2,2.3-13.7"/>
	<g>
		<g>
			<path class="st3" d="M50.1,102.1C50.1,102.1,50.1,102,50.1,102.1c-0.5-0.1-0.9,0.1-1.4,0c-0.4-0.1-0.8,0-1.1,0
				c-0.7,0.1-1.4,0-2.1-0.1c-1.2-0.1-2.2-0.2-2.5-0.8c-0.2-0.3-0.4-0.9-0.5-1.5c-0.1-0.7-0.3-1.4-0.3-2.1c0-0.5-0.1-1-0.1-1.6
				c-0.1-0.8-0.1-1.7-0.3-2.6c-0.1-0.3-0.3-0.5-0.2-0.8c0-0.3-0.1-0.6-0.3-0.8c-0.2-0.3-0.4-0.7-0.5-1c-0.2-0.4-0.5-0.7-0.9-1
				c-0.2-0.1-0.3-0.1-0.4,0c-0.2,0.2-0.3,0.6,0,0.8c0.1,0.1,0.2,0.2,0.2,0.3c-0.1,0-0.2-0.1-0.3-0.2c-0.2-0.1-0.3-0.1-0.5,0
				c-0.1,0.1-0.2,0.3-0.2,0.5c0,0.1,0.1,0.2,0.2,0.2c0.1,0.1,0.2,0.2,0.2,0.4c0,0.1,0.1,0.2,0.1,0.2c0.2,0.2,0.4,0.5,0.5,0.8
				c0.2,0.7,0.5,1.5,0.5,2.4c0,0.5,0.1,1.1,0.1,1.6c0,0.6,0.1,1.2,0.2,1.8c0,0.3,0.1,0.6,0.2,0.8c-0.1,0.6,0.2,1.1,0.3,1.7
				c0.1,0.4,0.3,0.9,0.7,1.3c0.4,0.4,0.8,0.6,1.3,0.8c0.6,0.3,1.2,0.3,1.8,0.4c1,0.2,2,0.1,3,0.2c0.9,0.1,1.9,0,2.8,0l0.4,0
				c0.1,0,0.4,0,0.6-0.1c0.4-0.1,0.8-0.2,1-0.5c0.3-0.3,0.4-0.7,0.5-1.2l0.1-0.8c0.3-1.6,0.5-3.3,0.8-4.9c0.2-1,0.4-2.1,0.6-3.1
				c0.2-0.8,0.3-1.6,0.5-2.5l0.3-1.4c0-0.2,0-0.4-0.3-0.5c-0.1,0-0.1-0.1-0.1-0.2c0-0.4-0.2-0.5-0.6-0.4c-0.2,0-0.4,0-0.5,0
				c-0.4-0.1-0.6,0-0.7,0.4c-0.1,0.6-0.2,1.3-0.3,1.9c-0.1,0.8-0.2,1.5-0.4,2.2c-0.1,0.5-0.2,1-0.3,1.6c0,0.4-0.2,0.8-0.2,1.2
				c0,0.3,0,0.5-0.2,0.8l0,0c0.1,0.1,0,0.1,0,0.2l0,0c-0.1,0.1,0.1,0.2,0,0.3c-0.2,0.3-0.2,0.6-0.2,0.9c0,0.3-0.3,0.6-0.1,0.9
				c0,0-0.1,0.1-0.1,0.1c-0.1,0.4-0.4,0.7-0.1,1.2c0,0,0,0.1-0.1,0.2c0,0.1-0.1,0.2-0.1,0.4l0.1,0c-0.1,0.1-0.1,0-0.1,0
				c-0.1,0.1-0.1,0.1-0.1,0.2c0,0.2,0,0.4,0,0.6l0,0.3c0,0.1,0,0.2,0,0.2c0,0-0.1,0,0,0c0,0,0.1,0.1,0.1,0.1c0,0,0,0.1-0.1,0
				c0-0.1,0,0,0,0.1l0,0c0,0-0.1,0-0.2-0.1l0,0C50.5,102,50.4,101.9,50.1,102.1C50.2,102,50.2,102.1,50.1,102.1z"/>
		</g>
	</g>
</g>
<g>
	<path class="st4" d="M87,46.2c-1.9,1-4.1,2.4-4.2,4.6c-0.1,1.6,0.9,3,1.3,4.6c0.4,1.8-0.1,3.7-0.9,5.3c-0.5,0.9-1.1,1.8-1.2,2.9
		c-0.4,2.1,1.3,4.2,3.3,4.7c2,0.6,4.3-0.2,5.9-1.5c0.8-0.6,1.5-1.4,2.4-1.8c3-1.2,6.3,2.3,9.3,1.2c1.6-0.5,2.5-2.2,2.8-3.8
		c0.3-1.6,0.1-3.3,0.1-4.9c0-1,0.1-2.2-0.5-3c-1.1-1.5-3.3-1.1-5.1-1.5c-2.6-0.5-4.3-2.7-6.2-4.5c-1.9-1.8-6.1-2.3-8.4-1.3"/>
	<g>
		<g>
			<path class="st3" d="M85.5,47c0.1,0.1,0.1,0.3,0.2,0.4c0.1,0.2,0.4,0.3,0.7,0.4c0.2,0.1,0.4,0.1,0.9,0c1-0.2,2.2-0.1,3.2,0.2
				c1.1,0.3,2,0.7,2.7,1.4c1,1,2.1,2.1,3.4,3.2c0.7,0.6,1.5,1,2.3,1.3c1.5,0.5,2.8,0.4,3.9,0.5c0.6,0.1,1.1,0.3,1.3,0.5
				c0.3,0.3,0.4,0.6,0.5,1.2c0.1,0.4,0.1,0.8,0.1,1.3c0,2,0.2,3.8-0.3,5.3c-0.3,1.1-1,2.1-1.9,2.4c-0.9,0.4-2,0.1-3.2-0.3
				c-0.3-0.1-0.5-0.2-0.8-0.3c-0.6-0.2-1.3-0.5-2-0.7c-0.7-0.2-1.6-0.3-2.4-0.2c-0.4,0-0.9,0.2-1.3,0.4c-0.4,0.2-0.7,0.4-1.1,0.7
				c-0.6,0.5-1.1,1-1.5,1.3c-1.5,1.2-3.6,1.6-5.2,1c-0.9-0.4-1.6-1.3-1.9-2.1c-0.3-0.8-0.1-1.4,0.4-2.4c0.5-0.9,1.2-2,1.5-3.2
				c0.2-0.8,0.4-1.7,0.4-2.6c0-0.9-0.2-1.9-0.5-2.7c-0.4-1-0.8-1.9-0.9-2.6c-0.1-0.7,0-1.3,0.5-2c0.5-0.6,1.2-1.2,2-1.6
				c0.6-0.3,0.8-0.5,0.8-0.7c0-0.2-0.1-0.4-0.3-0.6c-0.4-0.3-0.7-0.5-1.1-0.8c-0.2-0.2-0.2-0.2-1,0.3l-0.4,0.3
				c-0.7,0.5-1.3,1-1.9,1.7c-0.6,0.7-1,1.6-1.1,2.7c-0.1,0.8,0.1,1.6,0.4,2.1c0.2,0.4,0.4,0.8,0.5,1.2c0.4,0.9,0.5,1.6,0.8,2.3
				c0,0,0,0.2,0,0.2c-0.1,0.3,0,0.6,0,0.9c0,0.4-0.1,0.8-0.2,1.3c-0.2,0.6-0.5,1.2-0.8,1.8c-0.3,0.6-0.7,1.2-1,2
				c-0.4,1-0.4,2.2-0.1,3.2c0.3,1,1,1.9,1.9,2.5c0.1,0.1,0.2,0.2,0.3,0.2c0.6,0.7,1.8,1,2.7,1c0.9,0,1.7-0.2,2.5-0.3
				c0.3,0,0.8-0.2,1.1-0.4c0.5-0.3,1-0.5,1.5-0.8c1.1-0.8,1.9-1.7,2.6-2.1c0.1-0.1,0.2-0.1,0.3-0.1c0.3,0,0.8-0.1,1.1-0.1
				c0.4,0,0.8,0.1,1.3,0.2c0.5,0.1,0.7,0.4,1.2,0.5c1.2,0.3,2.4,0.9,4,1c0.9,0,1.9-0.2,2.6-0.8c0.2-0.2,0.5-0.4,0.7-0.5
				c0.2-0.1,0.4-0.4,0.6-0.6c0.7-0.9,1.1-1.9,1.2-3c0.2-1,0.2-2,0.2-3l-0.1-1.5l0-1.5c0-0.5-0.1-1.1-0.3-1.8
				c-0.2-0.7-0.7-1.3-1.2-1.7c-0.2-0.2-0.5-0.3-0.6-0.3c-0.4,0-0.7-0.2-1.1-0.3c-0.3-0.1-0.7-0.1-1-0.2c-0.7-0.1-1.4,0-2-0.2
				c-0.8-0.2-1.6-0.6-2.3-1.1c-1-0.7-1.8-1.6-2.8-2.5c-0.3-0.3-0.5-0.5-0.9-0.9c-0.4-0.3-0.8-0.6-1.2-0.8c-0.8-0.4-1.7-0.7-2.5-0.9
				c-1.4-0.3-2.9-0.3-4.3-0.1c-1,0.2-1.2,0.4-1.3,0.7C85.1,46.5,85.3,46.7,85.5,47z"/>
		</g>
	</g>
</g>
<g>
	<path class="st4" d="M124.7,41.2c-2.4-0.1-4.3,1.9-6.6,2.7c-2.3,0.8-4.9,0.2-6.7-1.4c-0.9-0.9-1.6-2-2.8-2.5
		c-1.7-0.7-3.5,0.3-5.2,0.9c-6.2,2.1-13.2-2.2-15.6-8.2c-2-5-1.1-13.7-0.6-16c0.5-2.3,6-0.9,6-0.9s9.9-0.3,13.2,2.4
		s14.6,13.2,16.2,15.4s2.7,5.1,3.2,6.5S124.7,41.2,124.7,41.2z"/>
	<g>
		<g>
			<path class="st3" d="M124.8,41.1c0,0.1-0.1,0.3-0.1,0.4c0,0.1,0.1,0.2,0.3,0.4c0.2,0.1,0.5,0.3,1,0.2c0.2,0,0.4-0.1,0.6-0.3
				c0.2-0.2,0.4-0.5,0.5-0.8c0-0.1,0.1-0.3,0.1-0.5c0-0.1,0-0.3,0-0.4c0-0.1-0.1-0.3-0.1-0.4c0-0.1-0.1-0.2-0.1-0.3
				c-0.6-1.6-1.4-3.2-2.2-4.8c-0.5-0.8-0.9-1.5-1.5-2.3c-0.6-0.7-1.2-1.3-1.8-1.9c-1.5-1.5-3-2.9-4.4-4.4c-0.8-0.8-1.6-1.6-2.4-2.2
				c-1.3-1.1-2.6-2.3-3.9-3.4l-2.2-1.9c-0.4-0.3-0.7-0.6-1.1-1c-0.2-0.2-0.4-0.3-0.7-0.5c-0.2-0.2-0.5-0.3-0.7-0.4
				c-0.3-0.2-0.7-0.3-1-0.4c-0.3-0.1-0.7-0.2-1-0.3c-2.6-0.8-5.3-1-7.9-1.1l-1.4,0l-1.2,0L93,14.7l-0.6-0.1
				c-0.4-0.1-0.8-0.1-1.1-0.2c-0.8-0.1-1.6-0.1-2.4,0c-0.4,0.1-0.9,0.2-1.4,0.5c-0.5,0.3-1,0.8-1.2,1.4c-0.1,0.5-0.2,0.8-0.2,1.2
				l-0.2,1.1c0,0.4-0.1,0.8-0.1,1.2c-0.1,1.9-0.2,3.8-0.2,5.7c0.1,1.9,0.2,3.8,0.7,5.7c0.8,3.3,2.7,6.3,5.4,8.3
				c1.6,1.2,3.4,2.2,5.3,2.6c1.7,0.4,3.4,0.5,5.1,0.2c0.8-0.1,1.7-0.4,2.5-0.7c0.7-0.3,1.4-0.6,2.1-0.7c0.9-0.2,1.5-0.2,2.1,0.3
				c0.6,0.4,1.2,1.3,2.1,2.2c1.2,1.1,2.8,1.8,4.5,1.9c0.8,0.1,1.6,0,2.4-0.2c0.8-0.2,1.5-0.6,2.2-0.9c1.3-0.7,2.4-1.6,3.5-1.8
				c0.7-0.2,1-0.2,1.2-0.4c0.1-0.2,0.2-0.4,0-0.7c-0.3-0.4-0.6-0.8-0.9-1.1c-0.2-0.2-0.2-0.3-1.5,0.2c-0.2,0.1-0.4,0.2-0.6,0.3
				c-1,0.5-1.9,1.1-2.7,1.6c-0.8,0.5-1.6,0.8-2.5,0.8c-0.7,0-1.4,0-2-0.1c-0.5-0.1-0.9-0.3-1.3-0.5c-0.5-0.3-0.8-0.6-1.2-1
				c-0.4-0.4-0.8-0.9-1.4-1.3c-0.1-0.1-0.3-0.2-0.3-0.3c-0.4-0.5-1.1-0.7-1.7-0.8c-0.8-0.2-1.6,0-2.4,0.1c-1,0.2-2,0.6-2.8,0.9
				c-0.9,0.3-1.7,0.5-2.6,0.5c-1.2,0.1-2.3-0.1-3.4-0.5c-1.1-0.4-2.1-0.9-3.2-1.4c-0.1-0.1-0.2-0.2-0.3-0.2
				c-0.7-0.7-1.6-1.3-2.3-2.1c-0.7-0.7-1.3-1.3-1.7-2.2c-0.1-0.3-0.4-0.8-0.6-1.2c-0.4-0.6-0.5-1.1-0.7-1.8c-0.4-1.5-0.5-3-0.8-4.6
				c0-0.2,0-0.4,0-0.5c0.1-0.6,0-1.5,0-2c-0.1-0.7,0-1.4,0-2c0-0.8,0.2-1.2,0.2-1.9c0-0.8,0.1-1.7,0.2-2.5c0-0.2,0.1-0.4,0.1-0.6
				l0.1-0.3c0-0.1,0-0.1,0-0.1c0-0.1,0.1-0.2,0.4-0.3c0.7-0.2,1.6-0.1,2.5-0.1c0.3,0,0.6,0.1,0.9,0.2c0.1,0,0.3,0.1,0.4,0.1
				c0.2,0,0.3,0.1,0.5,0.1l0.1,0l1.1,0l0.9,0c0.6,0,1.2,0,1.8,0.1c1.2,0.1,2.4,0.2,3.6,0.4c1.3,0.2,2.6,0.5,3.7,0.9
				c0.3,0.1,0.5,0.3,0.8,0.4c0.3,0.1,0.4,0.3,0.7,0.5c0.5,0.4,1,0.9,1.5,1.3c0.2,0.2,0.4,0.4,0.5,0.4c0.3,0.1,0.6,0.4,0.9,0.8
				c0.3,0.3,0.6,0.6,0.9,0.9c0.7,0.7,1.5,1.2,2.1,1.9c1,1,2,2,3.1,3c1.3,1.3,2.6,2.5,3.9,3.8c0.7,0.8,1.5,1.5,2.2,2.3
				c0.4,0.4,0.6,0.7,0.9,1.1c0.3,0.4,0.5,0.9,0.8,1.3c0.4,0.8,0.8,1.5,1.2,2.3c0.2,0.4,0.4,0.8,0.5,1.2l0.2,0.6l0.1,0.3l0.1,0.1
				l0,0.1c0,0,0,0,0,0l0,0l0.1,0c0.2,0,0.3,0,0.4,0c0.1,0,0.1,0,0.2,0.1c0,0,0,0,0,0c0,0-0.1-0.2-0.2-0.3c0-0.1,0-0.2-0.1-0.2
				c0-0.1,0-0.1,0-0.1c0,0-0.1,0.1-0.2,0.2C124.8,40.6,124.8,40.8,124.8,41.1z"/>
		</g>
	</g>
</g>
<g>
	<path class="st4" d="M126.8,63.1c-2.9,0.4-5.8-1.3-8.7-1c-3.7,0.4-6.4,4.2-6.3,7.9c0.1,1.6,0.5,3.2,0.5,4.9c0,1.7-0.7,3.3-0.9,5
		c-0.6,4.3,1.8,8.9,5.7,10.9"/>
	<g>
		<g>
			<path class="st3" d="M117,90.9l0.2-0.4c0.1-0.2,0.1-0.5,0-0.7c0-0.2-0.1-0.3-0.3-0.4c-1-0.6-1.9-1.4-2.6-2.4
				c-0.4-0.6-0.8-1.2-1-1.9c-0.1-0.4-0.3-0.7-0.4-1c-0.3-0.5-0.4-1.1-0.5-1.7c-0.1-0.7-0.1-1.3,0-2c0-0.2,0-0.5,0-0.7
				c0.2-0.9,0.5-1.9,0.7-2.9c0.2-0.8,0.3-1.6,0.2-2.4c0-0.8-0.2-1.6-0.3-2.3c0-0.1,0-0.3,0-0.4c-0.3-1.4-0.2-2.6,0.2-3.8
				c0.3-1,1-1.8,1.6-2.7c0.4-0.5,0.9-0.8,1.4-1.1c0.8-0.6,1.8-0.8,2.8-0.8c0.7,0,1.4,0.1,2.2,0.3c1,0.3,2.1,0.4,3.3,0.5
				c0.6,0,1.2,0.1,1.8,0.1c0.4,0,0.6-0.1,0.7-0.3c0-0.2,0-0.4-0.1-0.7c-0.2-0.4-0.3-0.8-0.4-1.2c-0.1-0.3-0.1-0.2-0.4-0.2l-0.2,0
				c-0.7,0-1.4,0-2.1-0.2c-0.3-0.1-0.6-0.1-0.9-0.1c-0.2,0-0.4,0-0.7-0.1c-0.5-0.1-1-0.3-1.5-0.2c0,0-0.1,0-0.2,0
				c-0.2-0.1-0.4-0.1-0.6-0.1c-0.3,0-0.5,0-0.8,0c-0.8-0.1-1.7,0-2.5,0.4c-1,0.4-2.1,0.8-2.8,1.7c0,0-0.1,0.1-0.1,0.1
				c-0.5,0.2-0.8,0.6-1,1c-0.2,0.4-0.4,0.8-0.7,1.1c-0.1,0.1-0.2,0.4-0.3,0.5c-0.1,0.3-0.2,0.6-0.3,0.8c-0.2,0.7-0.5,1.4-0.4,2.1
				c0,0.1,0,0.2,0,0.2c-0.2,0.3-0.1,0.7,0,0.9c0.1,0.3,0,0.6,0.1,0.9c0.1,0.3-0.1,0.5,0,0.8c0.2,0.7,0.3,1.3,0.3,2
				c0,0.4,0,0.7,0.1,1c0,0.1,0,0.2-0.1,0.3c-0.1,0.1-0.1,0.2-0.1,0.3c-0.1,0.9-0.3,1.8-0.6,2.7c-0.2,1.1-0.4,2.3-0.4,3.4
				c0,0.1,0,0.2,0,0.3c0.1,0.1,0.1,0.3,0.1,0.5c0,0.2,0,0.4,0,0.5c0,0.4,0.2,0.8,0.2,1.2c0.1,0.6,0.3,1.2,0.5,1.8
				c0.3,0.7,0.7,1.4,1.1,2.1c0.5,0.8,1.1,1.5,1.8,2.1c0.6,0.5,1.2,1,1.9,1.4c0.5,0.3,0.6,0.3,0.8,0.1
				C116.9,91.4,116.9,91.1,117,90.9z"/>
		</g>
	</g>
</g>
<path class="st4" d="M78.3,56c-3.6-7.2-13.4-8.1-20.6-9.5c-6.8-1.4-13.5-2.6-20.3-2.7c-4.2-2.1-9.2-2.1-13.9-0.7
	c-1.3,0.4-2.5,0.8-3.8,1.3c-0.8,0.1-1.6,0.3-2.5,0.6c-0.1,0-0.1,0.1-0.2,0.1C8.7,45.1-0.3,46.7,0.9,55.3C1,55.6,1.1,56,1.2,56.3
	C-1.5,66.4,10,79.7,18.1,84c11.7,6.2,29.2,6.8,41.7,2.7c6.7-2.2,12.3-6.4,15.9-12.3C78.8,69.2,81.2,61.7,78.3,56z"/>
<path class="st2" d="M74,33.2c-0.9-4.6-2.7-9.2-4.8-13.3C65.7,12.7,57.9,2.6,49.1,2.5C40.1,2.3,28.9,8,22.4,14
	c-3.4,3.1-5.5,7.2-7.1,11.5c-2,5.2-4.6,11.4-5.5,16.9c-0.5,3.2,3.5,4.8,5.1,3c0.6,0.3,1.2,0.4,1.9,0.2c4.6-0.8,9.2-1.5,13.9-1.4
	c4.8,0.2,9,2,13.7,2.6c4.4,0.6,8.8-0.4,13.1,0.7c4.5,1,8.9,2.9,13.2,4.5c1.9,0.7,3.8-1.1,3.8-2.9C74.5,43.8,75,38.4,74,33.2z"/>
<g>
	<g>
		<g>
			<path class="st3" d="M74.4,50.2c0,0.8,0.1,1.5,0.4,2c0.4,0.6,1,1.2,1.6,1.9c1.3,1.4,2.2,3.1,2.9,4.8c1.3,3.3,1.5,7,0.8,10.4
				c-0.7,3.5-2.4,6.7-4.6,9.4c-2.2,2.7-4.9,4.9-7.9,6.6c-3,1.7-6.2,2.9-9.6,3.8c-0.7,0.2-1.3,0.4-2,0.5l0.1,0
				c-4,0.9-8.1,1.3-12.2,1.5c-4.1,0.2-8.2,0.1-12.3-0.5c-4.7-0.7-9.4-2-13.7-4.3c-2.1-1.2-4.1-2.5-5.9-4.2c-1.8-1.6-3.4-3.4-4.8-5.4
				C4.3,73,2.2,68.6,1,64c-0.6-2.3-1-4.7-1-7.2c0-2.4,0.6-5,2-7.1c0.9-1.3,2.5-2.8,4.2-3.4c1.7-0.6,3-0.3,3-0.1
				c-0.1,0.3-0.9,0.4-2.2,1c-1.2,0.6-2.9,1.8-4.1,3.8c-1.4,2.5-1.6,5.6-1.2,8.6c0.4,3,1.2,6,2.4,8.8C6.4,74,10.2,79.1,15,82.7
				c1.8,1.3,3.7,2.4,5.7,3.3c2,0.9,4.1,1.6,6.2,2.1c4.3,1.1,8.7,1.5,13.2,1.5c4.4,0,8.9-0.4,13.3-1.1c4.4-0.8,8.7-2,12.5-4.1
				c3.5-1.9,6.6-4.4,8.9-7.5c2.3-3.1,3.8-6.9,3.9-10.8c0.1-3.8-1-7.8-3.5-10.7c-0.6-0.7-1.4-1.4-2-2.4c-0.6-1.1-0.6-2.4-0.5-3.4
				c0.3-2.1,0.5-4,0.5-6c0.2-7.5-1.5-14.9-4.8-21.6c-1.6-3.3-3.7-6.5-6.1-9.3c-1.2-1.4-2.5-2.8-3.8-3.9C57.3,7.6,55.7,6.7,54,6
				c-2.9-1.1-6.1-1.5-9.2-1.2c-3.2,0.3-6.3,1.1-9.3,2.2c-3,1.2-6,2.5-8.6,4.2c-2.6,1.7-4.7,4.2-6.4,6.9c-1.7,2.5-3.3,5.4-4.3,8.1
				l0,0c-1.7,3.1-2.7,7.1-4,10.3l0,0c-0.3,1.1-0.7,2.3-0.9,3.4c-0.5,2.6-0.8,4.3-1,5c-0.2,0.8-0.4,0.7-0.6-0.3
				c-0.1-0.4-0.3,0-0.2-1.3l0-0.1l0,0c0.2-3.7,1.5-8.1,2.9-12c1.7-4.8,3.9-9.3,6.6-13.6c1.4-2.1,2.9-4.2,4.8-6
				c1.9-1.8,4.2-3.1,6.4-4.2c4.5-2.2,9.4-4,14.5-4.5c2.6-0.2,5.2-0.1,7.7,0.6c2.5,0.6,4.9,1.7,7,3.4c1.3,1,2.4,2.1,3.4,3.3l1.5,1.8
				l1.4,1.9c1.8,2.5,3.4,5.2,4.7,8.1c2.6,5.7,4.2,11.8,4.5,18c0.1,1.7,0.1,3.4,0,5.1c0,0.9-0.1,1.7-0.2,2.6
				C74.6,48.7,74.4,49.5,74.4,50.2L74.4,50.2z"/>
		</g>
	</g>
</g>
<g>
	<g>
		<g>
			<path class="st3" d="M44.9,42.5C44.9,42.5,44.9,42.5,44.9,42.5c-0.9-0.3-1.8-0.2-2.6-0.4c-0.7-0.2-1.4-0.2-2.2-0.2
				c-1.3,0-2.7-0.1-4-0.2c-2.2-0.1-4.3,0-6.5,0c-1.2,0.1-2.3,0.2-3.5,0.2c-1.4,0.1-2.8,0.3-4.2,0.4c-1,0.1-1.9,0.3-2.9,0.4
				c-1.5,0.3-3,0.5-4.4,0.9c-0.5,0.1-0.9,0.3-1.4,0.3c-0.5,0-0.9,0.1-1.4,0.2c-0.6,0.1-1.1,0.3-1.7,0.3c-0.7,0.1-1.3,0.3-2,0.5
				c-0.3,0.1-0.4,0.2-0.4,0.4c-0.1,0.3,0.4,0.5,1,0.4c0.2,0,0.4-0.1,0.6-0.1C9.1,46,8.9,46,8.7,46.1c-0.3,0.1-0.6,0.3-0.6,0.5
				c0,0.2,0.3,0.3,0.5,0.4c0.2,0,0.4,0,0.6-0.1c0.3-0.1,0.6-0.2,0.9-0.1c0.2,0,0.4-0.1,0.6-0.1c0.7-0.2,1.5-0.4,2.2-0.6
				c0.8-0.2,1.6-0.4,2.4-0.6c0.8-0.2,1.6-0.4,2.5-0.5c1-0.2,1.9-0.4,2.9-0.5c1-0.1,2.1-0.3,3.1-0.4c0.5-0.1,1-0.1,1.4-0.2
				c0.9,0.1,1.9-0.1,2.9-0.1c1.3,0,2.6-0.2,4-0.1c0.9,0,1.9,0,2.9,0c1.8,0.1,3.6,0.1,5.3,0.3c1.6,0.2,3.3,0.3,4.9,0.6l2.5,0.5
				c0.8,0.2,1.7,0.4,2.5,0.5c2.9,0.7,5.8,1.5,8.7,2.4c1.8,0.7,3.7,1.3,5.4,2c1.4,0.6,2.8,1.1,4.1,1.8c0.7,0.4,1.4,0.8,2.1,1.3
				c0.3,0.2,0.6,0.4,0.8,0.2c0.1-0.1,0.2,0,0.3,0.1c0.5,0.4,0.7,0.4,0.8-0.1c0.1-0.2,0.1-0.4,0.3-0.5c0.3-0.3,0.2-0.7-0.4-1.2
				c-1-0.8-2-1.5-3.1-2c-1.3-0.6-2.6-1.2-3.9-1.7c-0.9-0.4-1.8-0.8-2.7-1.1c-0.7-0.2-1.4-0.5-2.1-0.7c-0.5-0.1-0.9-0.3-1.4-0.5l0,0
				c-0.1,0-0.2,0-0.3-0.1l0,0c-0.2-0.2-0.4,0-0.6-0.1c-0.5-0.3-1.1-0.4-1.6-0.6c-0.5-0.2-1-0.5-1.6-0.4c0,0-0.2-0.1-0.3-0.1
				c-0.7-0.2-1.3-0.6-2.1-0.5c-0.1,0-0.2-0.1-0.3-0.1c-0.2-0.1-0.4-0.2-0.6-0.2l-0.1,0.1c-0.1-0.1,0-0.1,0.1-0.1
				c-0.1-0.1-0.2-0.1-0.4-0.1c-0.7-0.1-1.4-0.2-2.1-0.4c-0.2-0.1-0.4-0.2-0.7-0.2c-0.5,0-0.9,0.1-1.4-0.2c-0.2-0.1-0.5-0.1-0.7,0
				l0,0c-0.2,0-0.4-0.1-0.5-0.2l0,0c-0.3,0-0.7-0.2-1-0.2C45,42.5,45,42.5,44.9,42.5z"/>
		</g>
	</g>
</g>
<g>
	<path class="st3" d="M28.7,31.5c-0.7,0.5-1.1,1.2-1.4,2c0,0.2-0.1,0.3,0,0.5c0.1,0.2,0.2,0.3,0.4,0.4c1.3,1,3.2,1.1,4.5,0.2
		c1.3-0.9,2.1-2.6,1.7-4.2c-0.1-0.3-0.2-0.6-0.4-0.8c-0.2-0.2-0.5-0.3-0.8-0.4c-1.1-0.2-2.3-0.2-3.2,0.3c-1,0.5-1.8,1.5-1.8,2.6"/>
</g>
<g>
	<path class="st3" d="M56,32c-1.5-0.5-3.5,0.1-4.2,1.6s0.3,3.5,1.9,3.7c0.9,0.1,1.8-0.4,2.6-0.9c0.4-0.3,0.8-0.5,1.1-0.9
		c0.7-1.1-0.1-2.8-1.4-2.9"/>
</g>
<g>
	<path class="st4" d="M28.1,50.4c-1.5-0.2-3-0.5-4.4,0c-1.4,0.5-2.6,2-2.2,3.4c0.3,1.2,1.5,1.9,2.6,2.3c1.2,0.5,2.7,0.8,3.7,0.1
		c0.4-0.3,0.8-0.8,1-1.2c0.6-1,1-2.1,0.8-3.2c-0.2-1.1-1.3-2-2.4-1.8"/>
	<g>
		<g>
			<path class="st3" d="M25.4,55.5C25.4,55.5,25.4,55.5,25.4,55.5c-0.2-0.2-0.5-0.1-0.8-0.3C24.5,55.1,24.2,55,24,55
				c-0.4-0.1-0.8-0.3-1-0.6c-0.4-0.4-0.7-0.8-0.6-1.2c0-0.2,0.1-0.5,0.3-0.8c0.2-0.3,0.4-0.6,0.8-0.8c0.2-0.1,0.4-0.3,0.7-0.4
				c0.4-0.1,0.9-0.2,1.4-0.2c0.2,0,0.3-0.1,0.5,0c0.2,0.1,0.3,0.1,0.5,0.1c0.2,0,0.4,0.1,0.6,0.2c0.2,0.1,0.4,0.2,0.7,0.2
				c0.1,0,0.2-0.1,0.2-0.2c0.1-0.3,0-0.6-0.2-0.7c-0.1,0-0.2,0-0.2-0.1c0.1-0.1,0.2,0,0.2-0.1c0.1,0,0.3-0.1,0.3-0.3
				c0-0.2,0-0.4-0.1-0.5c0-0.1-0.1-0.1-0.2-0.1c-0.1,0-0.2,0-0.3-0.2c-0.1-0.1-0.2-0.1-0.2-0.1c-0.3,0-0.6,0-0.9-0.1
				c-0.7-0.1-1.4,0.1-2.1,0.1c-0.4,0.1-0.8,0.3-1.3,0.4c-0.5,0.2-0.9,0.5-1.2,0.9c-0.2,0.2-0.4,0.3-0.4,0.6
				c-0.5,0.2-0.5,0.7-0.7,1.2c-0.3,0.6-0.1,1.4,0,2c0.1,0.5,0.5,0.9,0.7,1.2c0.6,0.7,1.3,0.9,1.9,1.3c0.6,0.3,1.2,0.5,1.9,0.7
				c0.7,0.2,1.5,0.2,2.4,0c0.8-0.2,1.4-0.8,1.8-1.3c0.4-0.5,0.7-1.1,1-1.7c0.3-0.8,0.5-1.8,0.4-2.8c-0.2-0.9-0.7-1.6-1.3-2.1
				c-0.4-0.3-0.9-0.5-1.4-0.6c-0.3,0-0.5,0-0.5,0.3c0,0.1-0.1,0.1-0.1,0.2c-0.3,0.2-0.3,0.3-0.1,0.7c0.1,0.2,0.1,0.3,0.1,0.5
				c0.1,0.4,0.1,0.6,0.2,0.5c0.1-0.1,0.3,0,0.6,0.2c0.3,0.1,0.5,0.5,0.5,0.7c0,0.2,0,0.5,0,0.7c0,0.2-0.1,0.4-0.1,0.6
				c0,0.1,0,0.3-0.2,0.4l0,0c0,0.1,0,0.1,0,0.1l0,0c-0.1,0,0,0.1,0,0.2c-0.2,0.1-0.2,0.3-0.3,0.4c-0.1,0.2-0.4,0.2-0.2,0.4
				c0,0-0.1,0-0.1,0c-0.1,0.2-0.4,0.1-0.3,0.4c0,0,0,0-0.1,0c-0.1,0-0.1,0-0.1,0l0,0.1c-0.1,0,0-0.1,0-0.1c0,0-0.1,0-0.1,0
				c-0.1,0.1-0.2,0.2-0.4,0.2c-0.1,0-0.1-0.1-0.2,0c-0.1,0.1-0.2,0.2-0.3,0c0-0.1-0.1,0-0.2,0.1l0,0c-0.1,0-0.1,0-0.1-0.1l0,0
				C25.6,55.5,25.6,55.4,25.4,55.5C25.4,55.5,25.4,55.5,25.4,55.5z"/>
		</g>
	</g>
</g>
<g>
	<path class="st4" d="M55.2,52.6c-1.2-0.1-2.5-0.3-3.7,0s-2.3,1.2-2.6,2.4c-0.3,1.4,0.7,2.8,2.1,3.4c1.3,0.6,2.8,0.4,4.2,0.1
		c0.2-0.1,0.5-0.1,0.7-0.3c0.4-0.3,0.6-0.8,0.6-1.2c0.2-1.8-0.9-3.6-2.6-4.2"/>
	<g>
		<g>
			<path class="st3" d="M52.4,57.7C52.4,57.7,52.4,57.6,52.4,57.7c-0.2-0.2-0.5-0.1-0.7-0.2c-0.1-0.1-0.3-0.1-0.5-0.2
				c-0.3-0.1-0.6-0.3-0.8-0.6c-0.4-0.4-0.6-0.9-0.6-1.3c0-0.2,0.1-0.5,0.2-0.7c0.2-0.2,0.4-0.6,0.7-0.7c0.2-0.1,0.4-0.3,0.7-0.4
				c0.4-0.2,0.8-0.2,1.3-0.3c0.1,0,0.3-0.1,0.4,0c0.1,0.1,0.3,0.1,0.4,0.1c0.2,0,0.4,0,0.6,0.1c0.2,0.1,0.4,0.1,0.7,0.1
				c0.1,0,0.2-0.1,0.2-0.2c0.1-0.3,0-0.6-0.2-0.7c-0.1,0-0.1,0-0.2-0.1c0.1-0.1,0.1-0.1,0.2-0.1c0.1,0,0.2-0.1,0.3-0.3
				c0-0.2,0-0.4-0.1-0.5c0-0.1-0.1-0.1-0.2-0.1c-0.1,0-0.2,0-0.3-0.2c-0.1-0.1-0.2-0.1-0.2-0.1c-0.3,0-0.6,0-0.9,0
				c-0.7-0.1-1.3,0.1-2,0.2c-0.4,0.1-0.8,0.3-1.2,0.5c-0.4,0.2-0.8,0.5-1.1,0.8c-0.2,0.2-0.3,0.3-0.4,0.6c-0.4,0.2-0.5,0.7-0.7,1.2
				c-0.3,0.6,0,1.3,0,1.9c0.1,0.4,0.4,0.8,0.6,1.2c0.4,0.7,1.1,1.1,1.8,1.4c0.6,0.3,1.3,0.4,1.9,0.6c0.7,0.1,1.4,0.1,2,0
				c0.3,0,0.6-0.1,0.9-0.1c0.3-0.1,0.7-0.1,1.1-0.4c0.4-0.3,0.7-0.7,0.9-1c0.2-0.4,0.3-0.7,0.3-1.1c0.1-0.9-0.1-1.8-0.4-2.6
				c-0.3-0.6-0.7-1.2-1.2-1.6c-0.3-0.3-0.6-0.5-1-0.7c-0.2-0.1-0.4-0.1-0.5,0.2c-0.1,0.1-0.1,0.1-0.2,0.1c-0.3,0-0.4,0.1-0.4,0.5
				c0,0.2-0.1,0.3-0.1,0.5c-0.1,0.4-0.1,0.6,0,0.6c0.3,0.1,0.5,0.2,0.8,0.4c0.3,0.2,0.5,0.5,0.6,0.9c0.1,0.2,0.2,0.5,0.2,0.7
				c0.1,0.2,0,0.4,0.1,0.5c0,0.1,0.1,0.3-0.1,0.4l0,0c0.1,0,0,0.1,0,0.1l0,0c-0.1,0,0.1,0.1,0,0.1c-0.2,0.1-0.1,0.2-0.2,0.2
				c0,0-0.1-0.1-0.1,0c0,0,0,0,0,0.1c0,0,0,0,0,0c0,0-0.3-0.2-0.4,0.2c0,0-0.1,0-0.1,0c-0.1,0-0.1-0.1-0.2,0l0,0.1
				c-0.1-0.1,0-0.1,0-0.1c0-0.1-0.1-0.1-0.1,0c-0.2,0.1-0.4,0.1-0.6,0.1c-0.1,0-0.1-0.1-0.2,0c-0.1,0.1-0.3,0.2-0.4,0
				c-0.1-0.1-0.1,0-0.2,0.1l0,0c-0.1,0-0.1,0-0.2-0.1l0,0C52.6,57.7,52.6,57.5,52.4,57.7C52.4,57.7,52.4,57.7,52.4,57.7z"/>
		</g>
	</g>
</g>
<g>
	<path class="st4" d="M64.2,105.2c-1.6,3.1-4.9,7.1-4.6,10.7c0,0.2,0,0.5,0.1,0.7c0.1,0.4,0.4,0.6,0.7,0.9c1.3,1.1,3,1.7,4.7,2
		c4,0.7,8.3,0.2,12-1.4c0.3-0.1,0.7-0.3,0.9-0.6c0.5-0.5,0.5-1.2,0.5-1.9c0.1-2,0.1-4-0.3-6c-0.4-2-1.2-3.9-2.7-5.2
		c-0.9,2.3-3.4,2.9-5.9,2.8C67.3,107.1,66.3,106.5,64.2,105.2"/>
	<g>
		<g>
			<path class="st3" d="M77.4,116.6C77.4,116.6,77.3,116.6,77.4,116.6c-0.2,0.1-0.1,0.1-0.3,0.3c-0.2,0.1-0.6,0.3-0.9,0.4
				c-0.5,0.1-1.1,0.4-1.7,0.6c-1,0.4-2.1,0.6-3.2,0.8c-1.8,0.2-3.6,0.3-5.4,0c-1-0.1-1.9-0.3-2.8-0.7c-0.5-0.2-1-0.4-1.4-0.7
				c-0.4-0.3-0.9-0.7-1-0.9c0-0.1,0-0.1-0.1-0.3c0-0.1,0-0.3,0-0.5c0-0.2,0-0.4,0-0.5c0-0.2,0-0.4,0.1-0.6c0.2-1.1,0.7-2.3,1.2-3.4
				c0.2-0.4,0.3-0.8,0.6-1.1c0.3-0.3,0.5-0.6,0.7-1c0.2-0.5,0.5-0.9,0.9-1.3c0.4-0.5,0.7-1,1-1.5c0.1-0.3,0.1-0.4,0-0.5
				c-0.2-0.3-0.6-0.1-0.9,0.3c-0.1,0.2-0.2,0.3-0.3,0.4c0-0.2,0.1-0.3,0.2-0.5c0.1-0.3,0.2-0.6,0-0.7c-0.2-0.1-0.4,0-0.6,0.1
				c-0.1,0.1-0.2,0.2-0.3,0.4c-0.1,0.2-0.3,0.5-0.5,0.6c-0.2,0.1-0.2,0.3-0.3,0.5c-0.3,0.6-0.7,1.2-1,1.8c-0.8,1.3-1.4,2.7-2,4.2
				c-0.3,0.9-0.5,1.9-0.5,2.9c0,0.3,0,0.5,0.1,0.9c0.1,0.3,0.2,0.7,0.4,1c0.4,0.6,0.8,0.9,1.3,1.2c0.4,0.3,0.8,0.6,1.3,0.6
				c0.7,0.6,1.7,0.7,2.6,0.9c1.2,0.3,2.4,0.3,3.7,0.4c0.9,0.1,1.8,0,2.7-0.1c1.6-0.1,3.2-0.5,4.8-1c0.7-0.2,1.4-0.5,2.1-0.8
				c0.4-0.2,0.8-0.4,1.2-0.9c0.4-0.5,0.5-1,0.6-1.4c0.1-0.9,0.1-1.6,0.2-2.4c0-0.8,0-1.6,0-2.3c0-1.4-0.2-2.8-0.7-4.2
				c-0.2-0.7-0.5-1.4-0.9-2l-0.1-0.2l-0.2-0.3c-0.2-0.3-0.4-0.5-0.6-0.8c-0.4-0.5-0.8-0.9-1.3-1.3c-0.2-0.2-0.3-0.3-0.4-0.4
				l-0.6,1.2c-0.1,0.2-0.2,0.4-0.3,0.6c-0.1,0.2-0.2,0.4-0.3,0.5c-0.2,0.2-0.4,0.4-0.7,0.5c-0.5,0.3-1.2,0.5-1.9,0.6
				c-1.1,0.1-2.5,0.1-3.6-0.1c-0.6-0.1-1.2-0.4-1.9-0.7c-0.3-0.2-0.6-0.3-0.8,0c-0.1,0.1-0.2,0-0.3,0c-0.5-0.2-0.7-0.1-0.7,0.3
				c0,0.2-0.1,0.4-0.2,0.5c-0.2,0.4-0.1,0.7,0.5,1c0.9,0.5,2,1,3.2,1.2c1.4,0.2,2.6,0.2,3.9,0.1c0.9-0.1,1.9-0.3,2.8-0.9
				c0.3-0.2,0.6-0.4,0.9-0.7l0.2-0.2l0.1-0.1c0,0,0,0,0,0l0,0l0,0c0,0,0,0,0-0.1l0-0.1c0-0.1,0.1,0,0.1,0.1l0,0c0-0.1,0,0,0,0l0,0
				c0,0.1,0.1-0.1,0.1,0c0,0,0,0.1,0,0.1c0,0,0.1,0.2,0.1,0.2c0.1,0.2,0.2,0.4,0.3,0.6c0.2,0.4,0.1,0.8,0.5,1.2c0,0,0,0.1,0,0.2
				c0.2,0.6,0,1.1,0.4,1.7c0,0,0,0.2,0,0.3c0,0.2,0,0.4,0,0.5l0.1,0c-0.1,0.1-0.1,0-0.1,0c-0.1,0.1-0.1,0.2,0,0.3
				c0.1,0.6,0.1,1.2,0.1,1.8c0,0.2-0.1,0.4,0,0.6c0.1,0.4,0.2,0.8,0,1.2c-0.1,0.2,0,0.4,0.1,0.6l0,0c0,0.2,0,0.3-0.1,0.4l0,0
				C77.4,116.2,77.3,116.3,77.4,116.6C77.4,116.5,77.4,116.5,77.4,116.6z"/>
		</g>
	</g>
</g>
<g>
	<path class="st4" d="M41.6,101.3c-2.7,3.1-5.2,7.6-4.2,11.7c0.8,0.2,1.5,0.8,2.2,1.2c1.8,1,3.9,1.2,5.9,1.3c3,0.1,6.1,0.1,8.7-1.4
		c0.9-0.5,1.7-1.2,2.1-2.2c0.5-1.3,0.1-2.7-0.4-3.9c-0.7-2.2-1.6-4.4-2.5-6.6c0-0.1-0.1-0.2-0.2-0.3c-0.1-0.1-0.3,0-0.4,0.1
		C49,103.8,45.4,104,41.6,101.3"/>
	<g>
		<g>
			<path class="st3" d="M54.7,112.5C54.7,112.5,54.7,112.5,54.7,112.5c-0.5,0.3-1,0.7-1.6,0.9c-0.5,0.1-1,0.4-1.5,0.6
				c-1,0.3-2.1,0.5-3.1,0.5c-1.7,0-3.6,0-5.3-0.2c-0.9-0.2-1.8-0.3-2.6-0.8c-0.4-0.2-0.8-0.4-1.2-0.7c-0.2-0.1-0.5-0.3-0.7-0.4
				c-0.2-0.1-0.2-0.1-0.2-0.1l-0.1,0c0,0,0-0.1,0-0.2l-0.1-0.9c0-0.4,0-0.7,0-1.1c0.1-1.2,0.5-2.3,0.9-3.4c0.1-0.4,0.2-0.8,0.5-1.1
				c0.3-0.3,0.4-0.6,0.6-1c0.2-0.4,0.5-0.8,0.9-1.1c0.4-0.4,0.7-0.8,1.1-1.3c0.2-0.2,0.1-0.3,0.1-0.5c-0.1-0.3-0.6-0.3-0.9,0.1
				c-0.1,0.1-0.2,0.3-0.4,0.4c0-0.2,0.2-0.3,0.2-0.5c0.1-0.2,0.3-0.5,0.1-0.7c-0.1-0.2-0.4-0.1-0.6,0c-0.2,0.1-0.3,0.2-0.4,0.3
				c-0.2,0.2-0.4,0.4-0.6,0.6c-0.2,0.1-0.3,0.3-0.4,0.4c-0.4,0.6-0.7,1.2-1.1,1.8c-0.8,1.3-1.3,2.8-1.7,4.3
				c-0.2,0.9-0.3,1.8-0.3,2.8c0,0.3,0,0.6,0.1,1c0.1,0.5,0.2,1,0.3,1.5c0.3,0.1,0.6,0.2,0.9,0.3c0.1,0.1,0.2,0.1,0.3,0.1l0.2,0.1
				c0.3,0.2,0.7,0.4,1.1,0.6c0.7,0.7,1.6,0.8,2.5,1.1c1.2,0.4,2.4,0.3,3.6,0.5c0.8,0.1,1.7,0,2.6,0.1c1.6,0,3.2-0.2,4.8-0.7
				c0.7-0.2,1.4-0.5,2.1-0.9c0.7-0.4,1.4-0.8,1.9-1.5c0.6-0.7,0.9-1.7,1-2.6c0-0.9-0.2-1.7-0.4-2.5c-0.4-1.3-0.9-2.5-1.3-3.8
				l-0.7-1.9l-0.4-1.1c-0.1-0.3-0.2-0.6-0.3-0.8c-0.1-0.3-0.3-0.4-0.5-0.6l-0.1-0.1c-0.1-0.1-0.3-0.1-0.5-0.1c-0.1,0-0.3,0-0.5,0.1
				l-1,0.5l-0.7,0.3c-0.2,0.1-0.3,0.2-0.5,0.2c-0.7,0.3-1.4,0.6-2.1,0.7c-1.1,0.2-2.2,0.2-3.3-0.1c-0.6-0.2-1.3-0.4-1.9-0.7
				c-0.3-0.2-0.6-0.3-0.8,0c-0.1,0.1-0.2,0-0.3,0c-0.5-0.2-0.7-0.1-0.7,0.3c0,0.2-0.1,0.4-0.2,0.5c-0.2,0.3-0.1,0.7,0.5,1
				c0.9,0.5,2,0.9,3,1.1c1.3,0.2,2.6,0.3,3.9,0c0.9-0.1,1.8-0.5,2.6-0.8c0.3-0.1,0.6-0.3,0.9-0.4l0.2-0.1l0.1,0c0,0,0,0,0.1-0.1
				c0,0,0.1-0.1,0.1-0.1c0,0,0,0.1,0,0.1l0,0c0,0,0,0,0,0l0,0c-0.1,0.1,0.1,0,0.1,0.1c0,0.5,0.3,0.9,0.4,1.4
				c0.2,0.4,0.1,0.9,0.5,1.3c0,0,0,0.2,0,0.2c0.2,0.6,0.2,1.2,0.7,1.7c0,0,0.1,0.2,0.1,0.3c0,0.2,0,0.4,0.1,0.5l0.1,0
				c0,0.1-0.1,0-0.1,0c0,0.1,0,0.2,0.1,0.3c0.3,0.5,0.4,1.1,0.5,1.6c0,0.2,0,0.3,0,0.5c0.1,0.3,0.2,0.6,0,0.8
				c-0.1,0.1-0.1,0.3,0,0.4l0,0c0,0.1-0.1,0.2-0.2,0.2l0,0c-0.1,0.2-0.3,0.2-0.4,0.5C54.7,112.5,54.8,112.5,54.7,112.5z"/>
		</g>
	</g>
</g>
<g>
	<path class="st4" d="M83.5,99.5c-1.6,2.9-3.2,6-3.1,9.5c0,0.5,0.1,1.1,0.3,1.5c0.3,0.6,0.9,0.9,1.5,1.2c3.7,1.8,8.1,1.8,11.9,0.2
		c0.7-0.3,1.5-0.7,2-1.4c0.7-1,0.8-2.5,0.7-3.8c-0.1-2.4-0.7-5-2.3-6.6c-4.2,1.8-4.7,1.7-7.4,1.1c-1.1-0.3-3.2-1.2-3.4-2.4"/>
	<g>
		<g>
			<path class="st3" d="M95.2,109.7C95.2,109.7,95.1,109.7,95.2,109.7c-0.3,0.3-0.5,0.7-1.1,0.9c-0.4,0.1-0.9,0.4-1.3,0.6
				c-0.9,0.4-1.8,0.6-2.7,0.8c-1.5,0.2-3.1,0.2-4.6-0.1c-0.8-0.2-1.6-0.4-2.4-0.7c-0.4-0.2-0.9-0.4-1.2-0.6
				c-0.3-0.2-0.4-0.4-0.5-0.8c-0.1-0.5-0.1-1.2-0.1-1.9c0.1-1,0.4-2.1,0.6-3.1c0.1-0.3,0.1-0.7,0.3-1c0.2-0.3,0.4-0.6,0.5-0.9
				c0.2-0.4,0.4-0.8,0.7-1.1c0.3-0.4,0.5-0.8,0.8-1.3c0.1-0.2,0.1-0.3,0-0.5c-0.2-0.2-0.6-0.1-0.9,0.2c-0.1,0.1-0.2,0.3-0.3,0.4
				c0-0.2,0.1-0.3,0.1-0.5c0.1-0.2,0.1-0.5,0-0.6c-0.2-0.1-0.4-0.1-0.6,0c-0.1,0.1-0.2,0.2-0.3,0.4c-0.1,0.2-0.2,0.4-0.4,0.6
				c-0.1,0.1-0.2,0.3-0.3,0.4c-0.2,0.5-0.5,1.1-0.8,1.7c-0.6,1.2-0.9,2.6-1.2,3.9c-0.2,0.8-0.2,1.6-0.2,2.5c0,0.4,0,0.9,0.2,1.5
				c0.2,0.5,0.6,1.1,1,1.4c0.4,0.3,0.8,0.6,1.2,0.6c0.6,0.5,1.4,0.6,2.2,0.9c1,0.4,2.1,0.4,3.2,0.6c0.8,0.1,1.6,0,2.4,0
				c1.5-0.1,2.9-0.5,4.2-1c0.6-0.2,1.3-0.5,1.9-0.9c0.6-0.4,1.2-1.1,1.5-1.8c0.6-1.5,0.5-3,0.4-4.3c-0.1-1.2-0.3-2.5-0.7-3.7
				c-0.2-0.6-0.5-1.2-0.9-1.8c-0.1-0.1-0.3-0.4-0.5-0.6c-0.2-0.2-0.4-0.4-0.6-0.6c-0.1-0.1-0.2-0.2-0.3-0.3l-0.4,0.1l-0.8,0.3
				l-1.2,0.5c-0.3,0.1-0.7,0.2-1,0.4c-0.7,0.2-1.3,0.4-1.8,0.3c-0.4,0-0.9-0.1-1.5-0.2l-0.8-0.2c-0.2-0.1-0.5-0.1-0.7-0.2
				c-0.5-0.2-1.1-0.5-1.5-0.8c-0.2-0.1-0.3-0.2-0.6-0.1c-0.1,0.1-0.1,0-0.2,0c-0.2-0.2-0.4-0.3-0.7-0.1c-0.1,0.1-0.3,0.2-0.5,0.3
				c-0.4,0.1-0.4,0.7,0.1,1.2c0.9,0.8,1.8,1.2,2.7,1.5c0.3,0.1,0.6,0.2,0.9,0.2l0.8,0.2c0.5,0.1,1.1,0.2,1.7,0.3
				c0.9,0.1,1.8-0.2,2.5-0.4c0.6-0.2,1.1-0.4,1.6-0.6c0.2-0.1,0.3-0.2,0.5-0.2c0.1,0,0.1,0,0.1,0l0,0c0-0.1,0-0.1,0,0l0,0
				c0,0.1,0.1-0.1,0.1,0c0,0.1,0,0.1,0,0.2c0.1,0.1,0.2,0.3,0.3,0.4c0.2,0.3,0.1,0.7,0.5,1c0,0,0,0.1,0,0.2c0.1,0.5,0,1,0.4,1.4
				c0,0,0,0.2,0,0.3c0,0.2,0,0.3,0,0.5l0.1,0c-0.1,0.1-0.1,0-0.1,0c0,0.1,0,0.2,0,0.3c0.2,0.5,0.2,1,0.2,1.5c0,0.2-0.1,0.3,0,0.5
				c0.1,0.3,0.2,0.6,0,0.9c-0.1,0.1,0,0.3,0,0.4l0,0c0,0.1,0,0.3-0.2,0.3l0,0C95.3,109.3,95.1,109.4,95.2,109.7
				C95.2,109.6,95.2,109.7,95.2,109.7z"/>
		</g>
	</g>
</g>
<g>
	<path class="st4" d="M103.7,101.1c-1.7,3.3-4,7.1-4.1,10.8c0,0.4,0,0.8,0.1,1.2c0.2,0.4,0.6,0.7,1,1c3.3,2.2,7.3,3.2,11.2,2.8
		c1.8-0.2,3.7-0.7,5.1-1.8c1.5-1.2,2.6-3.1,2.4-5.1c-0.1-1.5-0.8-2.9-1.6-4.2c-0.9-1.5-1.8-3-2.8-4.4c-1.4,2.3-3.1,2.9-5.6,3
		C107,104.5,105.3,103.3,103.7,101.1"/>
	<g>
		<g>
			<path class="st3" d="M117.6,112.9C117.6,112.9,117.6,112.9,117.6,112.9c-0.5,0.5-0.8,1.1-1.4,1.4c-0.4,0.2-0.9,0.6-1.4,0.8
				c-0.9,0.5-2.1,0.7-3.2,0.8c-1.8,0.2-3.7,0-5.4-0.4c-1-0.3-1.9-0.6-2.8-1c-0.5-0.3-1.1-0.5-1.6-0.8c-0.5-0.3-1.1-0.6-1.1-0.8
				c-0.1-0.2-0.1-1.2,0-2c0.2-1.2,0.6-2.4,1-3.7c0.1-0.4,0.2-0.8,0.5-1.2c0.3-0.3,0.4-0.7,0.6-1.1c0.2-0.5,0.5-0.9,0.8-1.3
				c0.4-0.5,0.6-1,0.9-1.6c0.1-0.3,0.1-0.4,0-0.5c-0.2-0.3-0.6-0.1-0.9,0.3c-0.1,0.2-0.2,0.3-0.3,0.4c0-0.2,0.1-0.4,0.2-0.5
				c0.1-0.3,0.2-0.6,0-0.7c-0.2-0.1-0.4,0-0.6,0.1c-0.1,0.1-0.2,0.3-0.3,0.4c-0.1,0.3-0.3,0.5-0.5,0.7c-0.2,0.1-0.2,0.3-0.3,0.5
				c-0.3,0.6-0.6,1.3-0.9,1.9c-0.7,1.4-1.2,2.9-1.6,4.5c-0.3,0.9-0.3,1.9-0.4,2.9c0,0.3,0,0.6,0.1,0.9c0.1,0.4,0.3,0.8,0.5,1.1
				c0.5,0.6,1,0.8,1.4,1.1c0.4,0.2,0.8,0.5,1.3,0.6c0.7,0.6,1.7,0.8,2.5,1.2c1.2,0.5,2.5,0.6,3.7,0.8c0.9,0.2,1.9,0.1,2.8,0.1
				c1.7,0,3.4-0.4,5.1-1.1c1.5-0.7,2.8-1.9,3.6-3.4c0.4-0.8,0.7-1.6,0.8-2.6c0.1-0.9,0-1.8-0.3-2.7c-0.5-1.5-1.2-2.7-1.9-3.9l-3-4.9
				l-0.1,0.1c-0.5,0.7-1,1.6-1.6,2.3l-0.3,0.3l-0.2,0.2c-0.1,0.1-0.3,0.2-0.4,0.3c-0.6,0.4-1.3,0.5-2.1,0.6
				c-1.3,0.1-2.4,0.1-3.4-0.3c-0.6-0.3-1.1-0.7-1.6-1.2c-0.2-0.2-0.5-0.4-0.7-0.3c-0.1,0.1-0.2,0-0.3-0.1c-0.4-0.4-0.6-0.4-0.8,0
				c-0.1,0.2-0.2,0.3-0.3,0.4c-0.3,0.3-0.3,0.6,0.2,1.1c0.8,0.8,1.7,1.6,2.9,2.1c1.4,0.6,2.9,0.5,4.2,0.4c0.9-0.1,2-0.3,2.9-0.9
				c0.3-0.2,0.7-0.4,1-0.7c0.1-0.1,0.3-0.3,0.4-0.4c0,0,0,0,0-0.1c0-0.1,0.1-0.2,0.1-0.2c0,0,0,0.1,0,0.1l0,0c0-0.1,0,0,0,0l0,0
				c0,0.2,0.1-0.1,0.1,0c0,0,0,0.1,0,0.1l0,0c0,0,0,0,0,0.1l0.4,0.6c0.3,0.4,0.3,0.9,0.8,1.2c0,0,0.1,0.2,0.1,0.2
				c0.3,0.5,0.4,1.2,1,1.6c0.1,0,0.1,0.2,0.1,0.3c0.1,0.2,0.1,0.4,0.2,0.5l0.1,0c0,0.1-0.1,0-0.1,0c0,0.1,0,0.2,0.1,0.3
				c0.3,0.5,0.4,1,0.5,1.5c0,0.2-0.1,0.3,0,0.5c0.1,0.3,0.2,0.7-0.1,1c-0.1,0.1-0.1,0.3,0,0.5l0,0c-0.1,0.1-0.1,0.3-0.3,0.3l0,0
				c-0.1,0.2-0.3,0.4-0.3,0.7C117.6,112.9,117.7,112.9,117.6,112.9z"/>
		</g>
	</g>
</g>
</svg>
