<?xml version="1.0" encoding="utf-8"?>
<!-- Generator: Adobe Illustrator 24.2.1, SVG Export Plug-In . SVG Version: 6.00 Build 0)  -->
<svg version="1.1" id="Layer_1" xmlns="http://www.w3.org/2000/svg" xmlns:xlink="http://www.w3.org/1999/xlink" x="0px" y="0px"
	 viewBox="0 0 100.7 91.4" style="enable-background:new 0 0 100.7 91.4;" xml:space="preserve">
<style type="text/css">
	.st0{opacity:0.25;}
	.st1{fill:#3A6B7C;}
	.st2{fill:#FFFFFF;}
	.st3{fill:#EAEAEA;}
</style>
<g>
	<g class="st0">
		<path class="st1" d="M5.8,48.7c-1-5,0.1-14.3,2.5-18.8s6.1-8.3,9.9-11.7c2.8-2.5,5.9-4.9,9.3-6.6C32.9,9,39,8.2,45,7.7
			C53.1,7.1,61.4,7,69.2,9.3c6.5,1.9,12.5,5.4,17.8,9.6c4.3,3.4,8.4,7.3,10.9,12.3c3.4,6.9,3.5,15.1,1.6,22.5
			c-1.6,6.3-4.8,12.4-9.7,16.7c-4.1,3.6-9.3,5.8-14.5,7.7c-3.2,1.1-6.4,2.1-9.7,2.8c-9.2,1.9-18.8,1-28.1,0
			c-3.8,6.3-10.9,10.4-18.2,10.5c4.7-1.2,8.4-5.8,8.5-10.6c0-1.1-0.1-2.2-0.8-3c-0.7-0.8-1.7-1.1-2.6-1.4c-6-2.3-10.7-7.1-13.8-12.7
			s-4.5-12-5.3-18.3"/>
	</g>
	<g>
		<path class="st2" d="M1.1,42.4c-1-5,0.1-14.3,2.5-18.8s6.1-8.3,9.9-11.7c2.8-2.5,5.9-4.9,9.3-6.6c5.4-2.6,11.5-3.5,17.4-3.9
			C48.4,0.7,56.7,0.7,64.5,3c6.5,1.9,12.5,5.4,17.8,9.6c4.3,3.4,8.4,7.3,10.9,12.3c3.4,6.9,3.5,15.1,1.6,22.5
			C93,53.6,89.9,59.7,85,64c-4.1,3.6-9.3,5.8-14.5,7.7c-3.2,1.1-6.4,2.1-9.7,2.8c-9.2,1.9-18.8,1-28.1,0
			C28.9,80.8,21.8,84.9,14.5,85c4.7-1.2,8.4-5.8,8.5-10.6c0-1.1-0.1-2.2-0.8-3c-0.7-0.8-1.7-1.1-2.6-1.4c-6-2.3-10.7-7.1-13.8-12.7
			s-4.5-12-5.3-18.3"/>
		<g>
			<g>
				<path d="M0.1,40.2L0.1,40.2c0.4,4.4,1.6,8.9,3.2,13c1.8,4.5,4.4,8.7,7.9,12.1c1.8,1.7,3.8,3.1,5.9,4.3c1.1,0.6,2.3,1,3.3,1.4
					c1,0.4,1.6,1,1.8,2c0.1,0.6,0.1,1.2,0,1.8c0,0.6-0.2,1.2-0.3,1.8C21.6,77.9,21,79,20.3,80c-1.5,2-3.6,3.6-6,4.1l-8,2l8.3-0.2
					c2.6-0.1,5.2-0.5,7.7-1.5c1.3-0.5,2.6-1.1,3.8-1.9c1.2-0.7,2.3-1.6,3.4-2.5c1.1-0.9,2-2,2.9-3.1c0.2-0.3,0.4-0.6,0.6-0.9
					l0.3-0.4l0,0c0,0,0,0,0,0l0,0l0.2,0l1,0.1l0,0l0.4,0l0,0c2.1,0.1,4.2,0.4,6.3,0.5c4.4,0.3,8.9,0.5,13.4,0.1
					c2.2-0.2,4.5-0.5,6.7-1c2.2-0.5,4.4-1.1,6.5-1.8c4.2-1.4,8.4-2.9,12.4-5.1c2-1.1,3.9-2.4,5.6-3.9c1.7-1.5,3.2-3.2,4.6-5.1
					c1.7-2.4,3.1-5,4.1-7.7c1.1-2.7,1.8-5.6,2.3-8.5c0.8-5.3,0.6-11-1.3-16.2c-1.9-5.2-5.5-9.6-9.5-13.1l0,0
					c-0.8-0.7-1.6-1.5-2.5-2.1c-3.9-3.1-8.2-5.9-12.9-8c-2.3-1-4.7-1.9-7.2-2.5c-2.5-0.6-5-1-7.5-1.2c-3.8-0.3-7.6-0.3-11.4-0.1
					C40.5,0.3,36.7,0.6,33,1.3C28.6,2,24.1,3.3,20.2,5.7c-1.9,1.2-3.7,2.5-5.5,3.9c-1.7,1.4-3.4,2.9-4.9,4.5c-1.8,1.8-3.5,3.7-5,5.8
					c-0.7,1-1.4,2.1-2,3.3c-0.6,1.2-1.1,2.4-1.4,3.6c-0.7,2.5-1.1,5-1.3,7.5c-0.2,2.5-0.1,5,0.3,7.5l0,0l0.1,0.4l0,0
					c0.7,0.9,0.6-1.5,0.9-3.2c0.2-1.3,0.4-3.1,0.5-5.3c0.1-1.9,0.5-3.8,0.9-5.7c0.4-1.5,0.9-2.9,1.6-4.2c0.8-1.3,1.6-2.6,2.6-3.8
					c1.9-2.4,4.1-4.6,6.4-6.7c4-3.7,8.3-7.2,13.5-8.8c3-1,6.2-1.6,9.4-2c3.2-0.4,6.5-0.6,9.7-0.8C52.7,1.6,59.3,2,65.4,4
					c4.2,1.4,8.2,3.4,11.9,5.9c3.7,2.5,7.3,5.3,10.3,8.5c1.7,1.8,3.2,3.8,4.3,5.9c1.2,2.1,2,4.4,2.5,6.8c1,4.8,0.8,9.8-0.2,14.6
					c-1.6,7.4-5.4,14.4-11.4,19c-3.4,2.6-7.3,4.4-11.4,5.8l0,0c-2.7,1-5.4,2-8.1,2.7c-2.8,0.7-5.6,1.2-8.4,1.4
					c-4.5,0.4-9.1,0.2-13.6-0.2l0,0c-2.4-0.2-4.8-0.4-7.3-0.6l-1.1-0.1l-0.8-0.1c-0.2,0.2-0.3,0.5-0.5,0.7l-0.6,0.9l-0.5,0.7
					c-0.7,0.9-1.5,1.8-2.4,2.6c-3.4,3.2-7.9,5.2-12.6,5.6L14.5,84l0.3,1.9c4.9-1.3,8.6-5.6,9.2-10.6c0.1-1.2,0.2-2.6-0.5-3.9
					c-0.4-0.7-1-1.2-1.6-1.6c-0.6-0.3-1.2-0.6-1.7-0.8c-2.1-0.8-4-1.8-5.7-3.2c-2.9-2.2-5.3-5.1-7.2-8.3C5.4,54.4,4,50.9,3.1,47.3
					c-0.5-1.9-0.8-4-1.3-5.9C1,38,0.4,38.5,0.1,40.2z"/>
				<path d="M71.5,70.5L71.5,70.5C71.5,70.5,71.5,70.5,71.5,70.5L71.5,70.5z"/>
			</g>
		</g>
	</g>
	<g>
		<g>
			<g>
				<g>
					<path d="M24.2,51.8L24.2,51.8c0.2-0.4,0.1-0.7,0-1.1c0-0.8,0-1.6,0.1-2.4c0.1-0.7,0.1-1.3,0.2-2c0-0.5,0-0.9,0.1-1.4l0,0l0,0
						l0,0c-0.1-0.2,0-0.4,0-0.5c0-1.5-0.2-3-0.1-4.5c0-0.5,0.1-1,0.1-1.4c0-0.9-0.1-1.8-0.1-2.7l0,0c0-0.1,0-0.2,0-0.3
						c0-0.8,0-1.7-0.1-2.5c-0.1-0.6-0.1-1.3-0.1-1.9l-0.2-2.2c0-0.8-0.1-1.7-0.4-2.5l0,0l0,0l0,0c-0.4-0.1-0.7,0.2-1,0.3
						c-0.2,0.1-0.3,0.3-0.2,0.5c0.1,0.2,0.1,0.3,0.1,0.5c0.1,0.5-0.1,1.1,0,1.6c0.1,0.5,0.2,0.9,0.2,1.4c0.1,1.1,0.2,2.2,0.3,3.3
						c0,0.8,0,1.5,0,2.3c0,0.8,0,1.7,0.1,2.5c0,0.6-0.1,1.3,0,1.9c0,0.4,0.1,0.7,0,1.1l0,0c0.1,0.5,0,1,0,1.4c0,0.4-0.1,0.8-0.1,1.2
						l0,0c0,0.8,0,1.6-0.1,2.4l0,2.4c0,0.6,0,1.3,0,1.9c0,0.2-0.1,0.3,0,0.5C23.3,51.9,23.8,51.9,24.2,51.8z"/>
					<polygon points="23.2,41.7 23.2,41.7 23.2,41.7 					"/>
				</g>
			</g>
		</g>
		<g>
			<g>
				<g>
					<path d="M36,38.5L36,38.5c-0.2-0.1-0.4,0-0.5,0c-0.4,0-0.7,0.1-1.1,0c-0.3-0.1-0.6-0.1-0.9-0.1c-0.2,0-0.4,0.1-0.6,0l0,0l0,0
						l0,0c-0.1,0.1-0.2,0-0.2,0c-0.7,0-1.4,0.3-2.1,0.2c-0.2,0-0.5-0.1-0.7-0.1c-0.4,0-0.8,0.1-1.3,0.1l0,0c0,0-0.1,0-0.1,0
						c-0.4,0-0.8,0-1.2,0.1c-0.3,0.1-0.6,0.1-0.9,0.1c-0.3,0-0.7,0.1-1,0.1c-0.4,0-0.8,0-1.2,0.3l0,0l0,0l0,0c0,0.4,0.1,0.7,0.2,1
						c0.1,0.2,0.1,0.3,0.2,0.2c0.1-0.1,0.2-0.1,0.2-0.1c0.2,0,0.5,0.1,0.8,0.1c0.2,0,0.4-0.2,0.7-0.2c0.5-0.1,1-0.2,1.6-0.2
						c0.4,0,0.7,0,1.1,0c0.4,0,0.8,0,1.2-0.1c0.3,0,0.6,0.1,0.9,0c0.2-0.1,0.3-0.1,0.5,0l0,0c0.2-0.1,0.5-0.1,0.7,0
						c0.2,0,0.4,0.1,0.6,0.1l0,0c0.4-0.1,0.8,0,1.2,0c0.4,0,0.8,0,1.1-0.1c0.3,0,0.6-0.1,0.9-0.1c0.1,0,0.2,0.1,0.2-0.1
						C36.1,39.4,36.1,38.9,36,38.5z"/>
					<polygon points="31.3,39.8 31.3,39.8 31.3,39.8 					"/>
				</g>
			</g>
		</g>
		<g>
			<g>
				<g>
					<path d="M37.3,51.1L37.3,51.1c0.1-0.4,0-0.7-0.1-1.1c-0.1-0.8-0.2-1.6-0.1-2.4c0-0.7,0-1.3,0-2c0-0.4-0.1-0.9,0-1.3l0,0
						c0,0,0,0,0,0l0,0c-0.1-0.2,0-0.3-0.1-0.5c-0.1-1.5-0.4-2.9-0.4-4.4c0-0.5,0-1,0-1.4c-0.1-0.9-0.2-1.8-0.2-2.6c0,0,0,0,0,0
						c0-0.1,0-0.2,0-0.3c-0.1-0.8-0.1-1.7-0.2-2.5C36.1,32,36,31.4,36,30.7c-0.1-0.7-0.2-1.5-0.2-2.2c-0.1-0.8-0.1-1.7-0.5-2.4l0,0
						c0,0,0,0,0,0l0,0c-0.4-0.1-0.7,0.2-1,0.3c-0.2,0.1-0.3,0.3-0.2,0.5c0.1,0.2,0.1,0.3,0.1,0.5c0.1,0.5-0.1,1.1,0,1.6
						c0.1,0.5,0.2,0.9,0.3,1.4c0.1,1.1,0.3,2.2,0.4,3.3c0.1,0.7,0.1,1.5,0.1,2.3c0.1,0.8,0.1,1.7,0.2,2.5c0.1,0.6,0,1.3,0.1,1.9
						c0.1,0.4,0.2,0.7,0.1,1.1c0,0,0,0,0,0c0.1,0.5,0.1,1,0.1,1.4c0,0.4,0,0.8,0,1.2l0,0c0.1,0.8,0.1,1.6,0.1,2.4
						c0,0.8,0.1,1.6,0.2,2.4c0.1,0.6,0.1,1.3,0.2,1.9c0,0.2-0.1,0.3,0.1,0.5C36.3,51.4,36.8,51.3,37.3,51.1z"/>
					<polygon points="35.4,41.3 35.4,41.3 35.4,41.3 					"/>
				</g>
			</g>
		</g>
		<g>
			<g>
				<g>
					<path d="M43.8,50.8L43.8,50.8c0.2-0.2,0-0.5,0-0.7c0-0.5-0.1-1,0-1.6c0.1-0.4,0.1-0.9,0.2-1.3c0-0.3,0-0.6,0.1-0.9l0,0
						c0,0,0,0,0,0l0,0c-0.1-0.1,0-0.2,0-0.3c0-1-0.2-1.9-0.1-2.9c0-0.3,0.1-0.6,0.1-0.9c0-0.6,0-1.2,0-1.7l0,0c0-0.1,0-0.1,0-0.2
						c0-0.5,0-1.1,0-1.6c0-0.4,0-0.8,0-1.2c0-0.5-0.1-1,0-1.4c0-0.5,0-1.1-0.3-1.6l0,0c0,0,0,0,0,0l0,0c-0.4-0.1-0.7,0.1-1,0.2
						c-0.2,0.1-0.3,0.2-0.2,0.3c0.1,0.1,0.1,0.2,0.1,0.3c0,0.3-0.1,0.7-0.1,1c0,0.3,0.1,0.6,0.2,0.9c0.1,0.7,0.1,1.4,0.1,2.1
						c0,0.5-0.1,1-0.1,1.5c0,0.5,0,1.1,0,1.6c0,0.4-0.1,0.8,0,1.3c0,0.2,0.1,0.5,0,0.7c0,0,0,0,0,0c0.1,0.3,0,0.6,0,0.9
						c0,0.3-0.1,0.5-0.1,0.7l0,0c0,0.5,0,1.1,0,1.6c0,0.5,0,1,0,1.6c0,0.4,0,0.8,0.1,1.2c0,0.1-0.1,0.2,0,0.3
						C42.9,50.9,43.4,50.9,43.8,50.8z"/>
					<polygon points="42.7,44.3 42.7,44.3 42.7,44.3 					"/>
				</g>
			</g>
		</g>
		<g>
			<g>
				<g>
					<path d="M42.9,27.4L42.9,27.4C42.9,27.4,42.9,27.5,42.9,27.4c0,0.1,0,0.1,0,0.1c0,0,0,0,0,0C42.9,27.5,42.9,27.5,42.9,27.4
						L42.9,27.4L42.9,27.4L42.9,27.4C43,27.5,43,27.5,42.9,27.4C43,27.5,42.9,27.5,42.9,27.4C42.9,27.5,42.9,27.5,42.9,27.4
						c0,0,0,0.1,0,0.1v0l0,0l0,0l0.3,0.2h0c0,0,0,0,0.1,0c0,0,0.1,0,0.1,0c0,0,0,0,0,0c0,0,0,0-0.1-0.1l0,0l0,0l0,0
						c-0.2-0.4-0.3-0.6-0.5-0.8c-0.1-0.2-0.2-0.2-0.2-0.1c0,0.1,0,0.1,0,0.1c-0.1,0.1-0.3,0.1-0.3,0.2c0,0.1,0,0.3,0,0.4
						c0,0.2,0,0.5,0.1,0.7c0,0.1,0,0.1,0.1,0.2l0,0l0,0.2l0.3,0.1c0.1,0,0.2,0.1,0.3,0c0.2,0,0.4-0.1,0.5-0.2
						c0.1-0.1,0.3-0.1,0.3-0.3c0-0.1,0-0.2,0.1-0.2l0,0c0-0.1,0-0.2,0-0.3c0-0.1,0.1-0.2,0.1-0.3l0,0c-0.1-0.2-0.1-0.4-0.3-0.5
						c-0.1-0.1-0.3-0.3-0.5-0.3c-0.1,0-0.3-0.1-0.5,0c0,0-0.1-0.1-0.1,0.1c0,0.1,0,0.3,0.1,0.5C42.8,27.1,42.9,27.3,42.9,27.4z"/>
					<polygon points="43.9,27.8 43.9,27.8 43.9,27.8 					"/>
				</g>
			</g>
		</g>
	</g>
	<g>
		<g>
			<path class="st3" d="M59.9,25.7c-2.6,0.3-4.9,2.1-6.2,4.3c-1.3,2.3-1.8,4.9-2,7.5c-0.3,4.3,0.6,9.2,4.1,11.8c2,1.5,4.5,1.9,7,2.1
				c1.8,0.2,3.6,0.2,5.2-0.5c1-0.5,1.8-1.2,2.7-2c1.2-1.1,2.3-2.2,3-3.6c0.7-1.4,0.9-3,1.1-4.5c0.2-2.1,0.4-4.3-0.2-6.3
				c-0.8-3.1-3.2-5.7-6-7.1s-6.2-1.9-9.4-1.5"/>
			<g>
				<g>
					<path d="M74.2,41.3C74.1,41.3,74.1,41.3,74.2,41.3L74.2,41.3z"/>
					<path d="M59.8,26.4c0.3,0.2,0.6,0.2,1.3,0.1c0.2,0,0.4,0,0.7,0c1.8,0,3.7,0.3,5.4,1c1.9,0.7,3.6,1.9,4.9,3.4
						c0.8,1,1.5,2.1,1.9,3.3c0.4,1.2,0.5,2.5,0.5,3.8c0,1.1-0.2,2.2-0.2,3.3l0,0l0,0l0,0l0,0.1l0,0C74,41.6,74,42,74,42.4
						c-0.2,1-0.4,1.9-0.8,2.7c-0.4,0.8-1,1.6-1.6,2.2c-0.7,0.6-1.3,1.5-2.1,1.9c-0.8,0.7-1.6,1.2-2.6,1.4c-1,0.2-2,0.3-3.1,0.2
						c-2.2-0.1-4.4-0.5-6.2-1.4c-1.1-0.5-2.1-1.4-2.8-2.3c-1-1.3-1.6-2.9-2-4.5c-0.6-2.8-0.5-5.8,0.1-8.6c0.5-2.3,1.6-4.6,3.4-6.1
						c0.9-0.8,2.1-1.4,3.2-1.6c0.4-0.1,0.6-0.1,0.6-0.2l0-0.1c0-0.4-0.4-0.7-1.2-0.6c-0.8,0-2,0.4-3.2,1.4c-1.8,1.5-3,3.6-3.6,5.7
						c-0.4,1.3-0.6,2.6-0.7,3.8c-0.2,1.9-0.1,3.8,0.1,5.8c0.1,0.9,0.3,2,0.7,2.9c0.3,0.7,0.7,1.5,1.1,2.1c0.8,1.3,2,2.5,3.4,3.3
						c1.4,0.8,2.9,1.1,4.4,1.4c1,0.2,2,0.3,3,0.3c1,0,2.1,0,3.1-0.2c0.3-0.1,0.7-0.2,1-0.3c1.3-0.6,2.3-1.5,3.2-2.4
						c1.1-1,2.2-2.1,3-3.5c0.8-1.4,1-3,1.1-4.5c0.1-1.1,0.2-2.4,0.2-3.6c0-0.5,0.1-0.8,0-1.3c-0.1-0.8-0.2-1.7-0.5-2.5
						c-0.5-1.7-1.5-3.2-2.7-4.5c-1.1-1.2-2.4-2.1-3.8-2.8c-2.6-1.3-5.6-1.8-8.5-1.6c-0.4,0-0.7,0.1-0.8,0.2
						C59,25.6,59.2,26,59.8,26.4z"/>
				</g>
			</g>
		</g>
		<g>
			<g>
				<g>
					<path d="M66.5,45.4C66.5,45.4,66.5,45.4,66.5,45.4L66.5,45.4z"/>
					<path d="M69.2,41.5c-0.2,0-0.2,0-0.2,0.2c0,0.1,0,0.1,0,0.1c-0.1,0.4-0.3,0.7-0.5,1c-0.2,0.4-0.5,0.7-0.7,1.1
						c-0.3,0.5-0.6,0.8-0.9,1.1c-0.1,0.1-0.3,0.1-0.4,0.3l0,0l0,0l0,0l0,0l0,0c-0.1-0.1-0.1,0-0.2,0c-0.2,0-0.3,0.1-0.5,0.1
						c-0.2,0-0.4,0.1-0.5,0.1c-0.2-0.1-0.4,0.1-0.6,0c-0.4,0-0.8,0-1.3-0.1c-0.4-0.1-0.8-0.2-1.2-0.3c-0.2-0.1-0.5-0.2-0.7-0.3
						c-0.3-0.1-0.6-0.3-0.9-0.4c-0.5-0.3-0.9-0.7-1.3-1.1c-0.3-0.4-0.6-0.7-0.8-1.2c-0.1-0.2-0.2-0.5-0.2-0.7c0-0.1-0.1-0.1-0.2-0.1
						l-0.1,0c-0.8,0.2-1,0.6-0.6,1.2c0.3,0.4,0.5,0.9,0.8,1.2c0.2,0.2,0.4,0.4,0.6,0.6c0.3,0.3,0.7,0.5,1,0.8
						c0.1,0.1,0.3,0.3,0.5,0.3c0.2,0,0.3,0.1,0.5,0.2c0.6,0.4,1.2,0.5,1.9,0.7c0.4,0.1,0.9,0.1,1.3,0.3c0.1,0,0.1,0,0.2,0
						c0.3,0,0.6,0,0.8,0c0.6-0.1,1.4,0,2-0.4c0.2-0.1,0.5-0.3,0.8-0.5c0.1-0.1,0.2,0,0.3-0.1c0.1-0.2,0.3-0.3,0.4-0.4l0.7-0.9
						c0.2-0.3,0.3-0.6,0.5-0.8c0.3-0.5,0.6-1,0.8-1.6c0-0.1,0-0.1-0.1-0.2C70.1,41.7,69.7,41.6,69.2,41.5z"/>
				</g>
			</g>
		</g>
		<g>
			<g>
				<path d="M67.8,34.8c1.9,0,1.9-3,0-3C65.9,31.8,65.9,34.8,67.8,34.8L67.8,34.8z"/>
			</g>
		</g>
		<g>
			<g>
				<path d="M58.2,34.8c1.9,0,1.9-3,0-3C56.3,31.8,56.3,34.8,58.2,34.8L58.2,34.8z"/>
			</g>
		</g>
	</g>
</g>
</svg>
