<?xml version="1.0" encoding="utf-8"?>
<!-- Generator: Adobe Illustrator 24.2.1, SVG Export Plug-In . SVG Version: 6.00 Build 0)  -->
<svg version="1.1" id="Layer_1" xmlns="http://www.w3.org/2000/svg" xmlns:xlink="http://www.w3.org/1999/xlink" x="0px" y="0px"
	 viewBox="0 0 73.1 80" style="enable-background:new 0 0 73.1 80;" xml:space="preserve">
<style type="text/css">
	.st0{opacity:0.25;fill:#3B6B7C;}
	.st1{fill:#FFFFFF;}
	.st2{fill:none;stroke:#000000;stroke-width:0.5;stroke-miterlimit:10;}
	.st3{fill:#E9E8E7;}
	.st4{fill:#221F1F;}
</style>
<path class="st0" d="M68.6,80l-6.2-23.1l1-0.3c0.7,0,2.6-1.6,3.2-2.1c1.2-1,0.4-2.8,0.1-4.3c0-0.3-0.1-0.5,0-0.8
	c0.1-0.3,0.2-0.7,0.4-1c0.1-0.3,0.2-0.7,0.3-1c0-0.1,0-0.2,0-0.4c0,0,0-0.1,0-0.1c0.2-1.7-0.4-3.5-1.7-4.6C65.6,42.1,65.3,42,65,42
	c0.1-0.8,0.1-2.1-0.1-2.7c-0.7-1-1.9-1.8-3.3-2.1C60.8,26,60.7,34.8,60,23.3c1.4,0,2.9-0.3,3.3-1.1c0.8-1.5-1.2-2.5-1.7-2.8
	c-0.4-0.2-1.1-0.3-1.9-0.4C59.4,15.1,58,2.5,58,2.5h-0.6c0,0-1.2,10.7-1.5,16.4c-0.3,0-0.6,0.1-0.8,0.2c-1.5,0.5-4,2.3-2.5,3.5
	c1,0.8,2.2,0.9,3.4,0.9c-0.1,6.4-0.6,5.4-1,13.7c-0.8,0.2-1.5,0.5-2.1,0.9c-1.1,0.8-1.7,2.3-1,3.4c-1.3,0.7-2.6,1.6-3.3,2.9
	c-0.8,1.6-0.8,3.7,0.5,4.9c0,0,0,0,0,0c0,0-0.1,0-0.1,0l0.1,0c0,0,0,0.1,0,0.1c0,0.3,0,0.5,0,0.8c-0.3,1.5-1,3.3,0.1,4.3
	c0.6,0.5,1.4,0.5,2.1,0.5l3.4,0L46,78.7L68.6,80z"/>
<path class="st1" d="M56.9,52.9c0.8,0.3,1.6,0.6,2.4,0.9c1.2,0.4,3.6-0.3,3.8-1.5c0.7-3.9-2.5-8.1-2.4-12.3c0-2.1-1.5-3.5-3.4-4.3
	c-0.3-1.7-0.6-7.1-0.9-11.5c-0.2-3.2-5-3.2-5,0c0,4.4,0.2-3.7,0.5,0.7c0,3.8-0.1,7.7-0.4,11.5c-1,0.3-2,0.7-3,1.2
	c-1.6,0.8-1.5,2.6-0.5,3.8c-1.5,1.9-2.6,4.1-2.6,6.5c0,2.3,1.1,4.7,3.6,5.2c0.5,0.1,1,0.1,1.5,0.1c0.2,0,1.1-0.2,1.3-0.1
	c0.2,0.1,0.2,0.9,0.2,1.1c0,0,0,0,0,0.1c-0.1,0.1-0.2,0.2-0.2,0.3c-0.5,0.6-0.6,1.3-0.5,1.9c-0.3,0.4-0.6,0.9-0.5,1.5
	c0,0.8,0.1,1.7,0.1,2.5c0,0.1,0,0.2-0.1,0.3c-0.4,2.4-0.9,4.8-1.2,7.2c-0.7,4.8-6.1,10.3-4.7,10.6c5.9,1.2,15.4,1.5,15.4,1.5
	L56.9,52.9z"/>
<g>
	<g>
		<g>
			<path d="M49.8,62C49.7,62,49.7,62,49.8,62L49.8,62z"/>
			<path d="M50.3,53.7c-0.2,0.1-0.2,0.2-0.1,0.4c0,0.1,0,0.2,0,0.2c0,0.6,0,1.2-0.1,1.8c0,0.7-0.1,1.4-0.2,2
				c-0.1,0.9-0.2,1.8-0.2,2.6c0,0.4-0.1,0.7,0,1.1c0,0,0,0,0,0c0,0,0,0,0,0c0,0,0,0,0,0c0,0,0,0,0,0c0,0,0,0,0,0
				c-0.1,0.1-0.1,0.2-0.1,0.3c0,0.3-0.1,0.7-0.1,1c0,0.3,0,0.7-0.1,0.9c-0.1,0.3,0.1,0.6-0.1,0.9c0,0.7-0.1,1.4-0.1,2.1
				c0,0.7-0.1,1.4-0.1,2.2c0,0.4-0.1,0.9-0.1,1.3c0,0.6-0.1,1.1-0.1,1.7c0,1-0.1,1.9-0.1,2.9c-0.1,0.8-0.1,1.6-0.1,2.4
				c0,0.4-0.1,0.8-0.1,1.3c0,0.2,0,0.2,0.1,0.2c0,0,0,0,0.1,0c0.8,0,1.2-0.4,1.1-1.3c0-0.7,0.1-1.4,0.1-2.1c0-0.4,0-0.8,0.1-1.2
				c0.1-0.6,0-1.2,0.1-1.8c0.1-0.3,0.1-0.6,0.1-0.9c0-0.2,0-0.5,0-0.7c0.1-1,0.1-1.9,0.2-2.9c0.1-0.6,0-1.3,0.2-1.9
				c0-0.1,0-0.2,0-0.3c0-0.4,0-0.8,0.1-1.2c0-1,0.2-1.9,0.2-2.8c0-0.4,0.1-0.8,0.1-1.1c0-0.2,0.1-0.2,0.1-0.4
				c-0.1-0.3,0.1-0.5,0.1-0.8c0-0.5,0.1-1.1,0.2-1.6c0-0.5,0-1,0.1-1.4c0.1-0.9,0.2-1.8,0.2-2.7c0-0.1,0-0.2-0.1-0.3
				C51.2,53.5,50.8,53.6,50.3,53.7z"/>
		</g>
	</g>
</g>
<g>
	<g>
		<g>
			<path d="M60,70.5C60,70.4,60,70.4,60,70.5L60,70.5z"/>
			<path d="M61,79c0.2-0.1,0.2-0.2,0.1-0.4c0-0.1-0.1-0.1-0.1-0.2c-0.2-0.6-0.2-1.3-0.3-1.9c-0.1-0.7-0.1-1.4-0.2-2.1
				c-0.1-0.9-0.2-1.8-0.3-2.7c-0.1-0.4,0-0.8-0.2-1.1c0,0,0,0,0,0c0,0,0,0,0,0c0,0,0,0,0,0c0,0,0,0,0,0c0,0,0,0,0,0
				c0.1-0.1,0-0.2,0-0.4c0-0.3-0.1-0.7-0.1-1c0-0.3-0.1-0.7-0.1-1c0-0.4-0.2-0.7-0.1-1c-0.1-0.7-0.2-1.5-0.3-2.2
				c-0.1-0.7-0.1-1.5-0.3-2.2c-0.1-0.4-0.1-0.9-0.2-1.3c-0.1-0.6-0.2-1.2-0.3-1.8c-0.2-1-0.3-2-0.4-3c-0.1-0.8-0.2-1.6-0.3-2.5
				c0-0.4-0.1-0.9-0.1-1.3c0-0.2-0.1-0.2-0.2-0.2c0,0,0,0-0.1,0c-0.8,0.1-1.1,0.6-0.9,1.6c0.2,0.7,0.2,1.4,0.3,2.2
				c0.1,0.4,0.1,0.8,0.2,1.3c0.1,0.6,0.2,1.2,0.2,1.9c0,0.3,0,0.6,0.1,0.9c0.1,0.2,0.1,0.5,0.1,0.8c0.1,1,0.3,2,0.3,3
				c0.1,0.7,0.2,1.3,0.2,2c0,0.1,0,0.2,0,0.3c0.1,0.4,0.1,0.8,0.2,1.3c0.2,1,0.1,2,0.3,2.9c0.1,0.4,0.1,0.8,0.1,1.2
				c0,0.2-0.1,0.3,0,0.4c0.1,0.3,0,0.5,0.1,0.8c0.1,0.5,0.1,1.1,0.1,1.7c0,0.5,0.1,1,0.2,1.5c0.1,0.9,0.2,1.9,0.3,2.8
				c0,0.1,0.1,0.2,0.2,0.2C60.2,79.4,60.6,79.2,61,79z"/>
		</g>
	</g>
</g>
<g>
	<g>
		<g>
			<path d="M61.6,52.9C61.6,52.9,61.6,52.9,61.6,52.9L61.6,52.9z"/>
			<path d="M60.2,41.3c0.1,0.2,0.2,0.3,0.5,0.4c0.1,0,0.2,0.1,0.3,0.2c0.8,0.5,1.3,1.4,1.6,2.4c0.1,0.5,0.2,1.1,0.1,1.6
				c0,0.3-0.1,0.5-0.2,0.8c-0.1,0.2-0.2,0.5-0.3,0.8c-0.2,0.4-0.3,1.1-0.2,1.5c0.1,0.4,0.2,0.8,0.2,1.2c0.2,0.8,0.3,1.5,0.2,2
				c-0.1,0.4-0.4,0.6-0.8,0.8l0,0l0,0l0,0l0,0l0,0c-0.1-0.1-0.3,0-0.5,0c-0.5,0-1.1,0-1.7,0c-0.6,0-1.2,0.1-1.7,0
				c-0.6-0.1-1.2,0.1-1.7,0l-3.9,0c-1.3,0-2.6,0-3.9,0c-0.8,0-1.6,0-2.1-0.1c-0.7-0.1-1-0.8-0.9-1.7c0.1-0.8,0.3-1.6,0.4-2.5
				c0-0.3,0-0.5-0.1-0.8c-0.1-0.3-0.2-0.5-0.3-0.7c-0.2-0.4-0.3-0.7-0.4-1.1c-0.2-1.2,0.1-2.6,0.9-3.6c0.4-0.5,1-1,1.6-1.2
				c0.2-0.1,0.3-0.2,0.2-0.3l0-0.1c-0.1-0.4-0.4-0.6-0.9-0.5c-0.5,0-1.2,0.4-1.8,1.2c-0.8,1.1-1.4,2.5-1.3,3.9
				c0,0.4,0.1,0.8,0.2,1.2c0.1,0.4,0.3,0.8,0.4,1.1c0.1,0.2,0.1,0.4,0.1,0.5c0,0.2,0,0.4-0.1,0.7c-0.1,0.5-0.2,1-0.4,1.6
				c-0.1,0.5-0.2,1.2,0.1,1.9c0.2,0.5,0.6,1,1.1,1.3c0.5,0.3,1,0.3,1.5,0.4c0.5,0,0.9,0,1.3,0c0.9,0,1.7,0,2.6,0
				c1.2,0,2.3,0,3.5,0.1c0.2,0,0.4,0,0.6,0l2.2,0c0.9,0,1.7,0,2.6,0l1.3,0c0.4,0,0.9,0,1.5-0.2c0.4-0.1,0.8-0.4,1.1-0.7
				c0.3-0.3,0.5-0.8,0.6-1.2c0-0.4,0.2-0.6,0.1-0.8c-0.1-0.5-0.1-1-0.2-1.5c-0.1-0.5-0.2-1-0.2-1.3c0-0.2,0-0.3,0.1-0.4
				c0.1-0.1,0.1-0.3,0.3-0.6c0.4-0.9,0.5-2,0.4-3c-0.2-1.8-1.3-3.6-3-4.4C60.8,40,60.7,40,60.6,40C60.1,40.3,60.1,40.8,60.2,41.3z"
				/>
		</g>
	</g>
</g>
<g>
	<path class="st1" d="M55.1,17.7c-0.2-0.4-1.2-17.2-1.2-17.2h-0.4c0,0-0.4,3.2-1,13.7c0,0.8-0.1,2.8-0.1,3.5"/>
	<g>
		<g>
			<path d="M53.4,6.4C53.4,6.4,53.5,6.3,53.4,6.4L53.4,6.4z"/>
			<path d="M52.9,17.6C53,17.4,53,17.3,53,17c0-0.1,0-0.2,0-0.3c0-0.8,0-1.7,0.1-2.5l0.2-2.8c0.1-1.2,0.2-2.4,0.2-3.6
				c0-0.5,0.1-1,0.1-1.5l0,0l0,0l0,0l0,0l0,0c0.1-0.1,0.1-0.3,0.1-0.5l0.1-1.3c0-0.4,0-0.9,0.1-1.3c0.1-0.4,0-0.9,0.1-1.3
				c0-0.5,0.1-0.9,0.1-1.4l-0.5,0.5l0.4,0l-0.6-0.5l0.1,1.1c0.1,1,0.1,2,0.2,2.9c0.1,0.6,0.1,1.2,0.1,1.8c0.1,0.8,0.1,1.5,0.2,2.3
				c0.1,1.3,0.2,2.6,0.3,3.9c0.1,1.1,0.2,2.2,0.3,3.2c0,0.6,0.1,1.1,0.1,1.7c0,0.3,0.1,0.4,0.2,0.4l0,0c0.1-0.1,0.3-0.2,0.4-0.3
				c0.1-0.1,0.2-0.2,0.2-0.4c0.1-0.3,0.1-0.8,0-1.4c-0.1-0.9-0.2-1.9-0.2-2.8c0-0.5-0.1-1.1-0.1-1.6c0-0.8-0.2-1.6-0.2-2.4
				c0-0.4,0-0.8-0.1-1.2c-0.1-0.3-0.1-0.7-0.1-1c0-1.3-0.2-2.6-0.2-3.9c0-0.7-0.1-1.5-0.1-2.2l0-0.4l-0.5,0l-0.4,0l-0.1,0L53,0
				l-0.1,0.5c0,0.1,0,0.2,0,0.4c-0.1,0.6-0.1,1.1-0.1,1.7c-0.1,1.3-0.3,2.6-0.3,3.9c0,0.5-0.1,1-0.1,1.5c0,0.2-0.1,0.3-0.1,0.5
				c0,0.4-0.1,0.7-0.1,1.1c0,0.7-0.1,1.4-0.2,2.2c0,0.7,0,1.3-0.1,2c-0.1,1.2-0.1,2.4-0.2,3.6c0,0.2,0,0.3,0.1,0.3
				C52.2,17.9,52.5,17.8,52.9,17.6z"/>
		</g>
	</g>
</g>
<g>
	<g>
		<path class="st2" d="M51.7,16.9"/>
	</g>
</g>
<g>
	<path d="M54.3,52.2c3.1,0,7.3,0.9,7.3,1.4s-1.4,0.5-2,0.5c-2.8,0-5.6-0.6-8.3-0.3c-0.8,0.1-1.6,0.2-2.4,0.2s-2.3,0.4-2.3-0.4
		C46.5,52.8,51.2,52.2,54.3,52.2z"/>
</g>
<g>
	<path class="st3" d="M45,47.9c-1.3-1.2-1.4-3.4-0.6-5c0.8-1.6,2.4-2.7,4.1-3.3c3.4-1.4,7.4-1.4,10.8-0.1c0.9,0.3,1.7,0.8,2.4,1.4
		c1.9,1.7,2.3,4.7,0.9,6.8c-2.3-1.1-5.2-2.1-8.7-2.1C50.4,45.7,47,46.7,45,47.9"/>
	<g>
		<g>
			<path class="st4" d="M63.8,46.8c-0.1,0.2-0.1,0.3-0.2,0.5l-0.2,0.4l-0.2,0.4c-0.2,0.9-0.9,0.2-1.4,0c-1.8-0.8-3.5-1.3-5.4-1.6
				c-2-0.3-3.9-0.2-5.9,0.1c-1.5,0.2-2.9,0.7-4.3,1.2c-0.3,0.1-0.5,0.3-0.8,0.4c-0.1,0.1-0.2,0.2-0.3,0.1c-0.2-0.3-0.5-0.4-0.5-0.8
				c0-0.1,0.1-0.3,0.3-0.4c1.6-0.8,3.3-1.3,5-1.6c0.8-0.1,1.6-0.2,2.4-0.3c1.4-0.2,2.9-0.1,4.3,0.1c1.1,0.2,2.2,0.4,3.3,0.7
				c0.5,0.2,1.1,0.4,1.6,0.6l0.8,0.3c0.1,0,0.1,0.1,0.2,0.1c0,0,0-0.1,0.1-0.1c0-0.1,0.1-0.3,0.2-0.4c0.1-0.3,0.2-0.6,0.2-1
				c0.1-0.7,0-1.4-0.2-2c-0.3-0.9-0.8-1.7-1.6-2.3c-1.2-0.9-2.7-1.4-4.3-1.8c-1.4-0.3-2.9-0.4-4.3-0.3c-1.4,0.1-2.9,0.4-4.1,1.1
				c-0.1,0.1-0.3,0.1-0.4,0.2l0,0L48,40.6l0,0c-0.5,0.2-1,0.6-1.4,0.9c-0.9,0.7-1.5,1.6-1.9,2.6c-0.2,0.5-0.2,1.1-0.1,1.6
				c0.1,0.4,0.2,1,0.5,1.3c0.4,0.3,0.2,0.4,0.1,0.7c0,0.1-0.1,0.1-0.2,0.1c-0.2,0.1-0.5-0.1-0.7,0.1c-0.1,0.1-0.3-0.2-0.4-0.4
				c-1-1.5-0.9-3.3-0.2-4.8c0.8-1.5,2.1-2.5,3.4-3.3c1.9-1,3.9-1.5,6-1.6c2.1-0.1,4.1,0.3,6,0.9c1.1,0.4,2.3,1,3.2,1.9
				c0.9,1,1.4,2.3,1.6,3.6C64.1,45.2,64,46,63.8,46.8L63.8,46.8z"/>
		</g>
	</g>
</g>
<g>
	<g>
		<g>
			<path d="M48,40.4L48,40.4c0.5,0,0.9-0.3,1.3-0.4c0.9-0.3,1.9-0.6,2.9-0.7c0.8-0.1,1.6-0.1,2.4,0c0.5,0.1,1.1,0.1,1.6,0.3l0,0l0,0
				l0,0c0.2,0,0.4,0,0.6,0.1c0.6,0.1,1.2,0.2,1.7,0.3c0.3,0.1,0.6,0.1,0.8,0.2c0.1,0,0.4,0.1,0.6,0.3l0.8,0.4
				c0.2-0.4,0.5-0.9,0.6-1.5c0-0.1,0-0.3,0-0.4c0-0.1,0-0.2,0-0.3c0-0.2-0.1-0.4-0.1-0.6c0-0.1,0-0.2-0.1-0.3
				c-0.1-0.1-0.1-0.2-0.2-0.3c-0.1-0.1-0.2-0.3-0.3-0.4c-0.2-0.3-0.5-0.5-0.8-0.7c-1-0.8-2.2-1.2-3.4-1.4l0,0
				c-0.1,0-0.2-0.1-0.4-0.1c-1.1-0.2-2.2-0.2-3.3-0.1c-0.8,0.1-1.7,0.2-2.5,0.4c-1,0.3-2,0.7-2.7,1.6c-0.4,0.5-0.8,1-0.9,1.7
				c-0.1,0.7,0.1,1.4,0.5,1.9l0,0l0,0l0,0c0.4-0.1,0.5-0.5,0.7-0.7c0.1-0.2,0.2-0.3,0.1-0.4c-0.1-0.1-0.1-0.3,0-0.4
				c0.1-0.5,0.5-0.9,0.9-1.3c0.3-0.3,0.8-0.7,1.2-0.9c1.2-0.5,2.6-0.7,3.9-0.7c0.9,0,1.9,0.1,2.7,0.3c1,0.2,1.9,0.6,2.7,1.2
				c0.3,0.2,0.5,0.5,0.7,0.8c0.1,0.1,0.2,0.6,0.2,0.8c0,0.1,0,0.1,0,0.2c0,0,0,0.2-0.1,0.1c0,0-0.1-0.1-0.1-0.1l0,0
				c-0.1,0-0.1,0-0.2,0L59.6,39c-0.3-0.1-0.6-0.2-0.9-0.3c-0.5-0.1-1-0.3-1.5-0.4l0,0c-0.5-0.1-1.1-0.1-1.6-0.2
				c-0.5-0.1-1.1-0.2-1.6-0.2c-1.1,0-2.2,0.2-3.2,0.4c-0.8,0.2-1.6,0.5-2.4,0.8c-0.2,0.1-0.4,0.1-0.6,0.2
				C47.5,39.6,47.7,40.1,48,40.4z"/>
			<polygon points="60.2,39.1 60.3,39.1 60.2,39.1 			"/>
		</g>
	</g>
</g>
<g>
	<g>
		<g>
			<path d="M71.9,23.4C71.9,23.4,71.9,23.4,71.9,23.4L71.9,23.4z"/>
			<path d="M71.2,24.1c0.1,0.1,0.2,0.1,0.1,0.1c0,0,0,0,0-0.1c0-0.1,0.1-0.1,0.1-0.2c0.1-0.1,0.1-0.1,0.2-0.2
				c0.1-0.1,0.2-0.1,0.2-0.2c0,0,0.1,0,0-0.1l0,0l0,0l0,0l0,0l0,0c0.1,0,0.1,0,0.1,0c0,0,0.1-0.1,0.1-0.1c0,0,0-0.1,0.1-0.1
				c0.1,0,0-0.1,0.1-0.1c0-0.1,0.1-0.1,0.1-0.2c0-0.1,0.1-0.1,0.2-0.2c0-0.1,0.1-0.1,0.1-0.1c0-0.1,0.1-0.1,0.1-0.2
				c0-0.1,0.1-0.2,0.2-0.3c0.1-0.1,0.1-0.2,0.1-0.3c0,0,0.1-0.1,0.1-0.1c0,0,0,0-0.1-0.1l0,0c-0.7-0.4-1-0.5-1-0.4
				c0,0.1-0.1,0.1-0.1,0.2c0,0,0,0.1-0.1,0.1c-0.1,0,0,0.1-0.1,0.2c0,0-0.1,0-0.1,0.1c0,0.1,0,0.1,0,0.1c-0.1,0.1-0.1,0.2-0.2,0.3
				c-0.1,0-0.1,0.1-0.2,0.1c0,0,0,0,0,0c0,0-0.1,0.1-0.1,0.1c0,0.1-0.2,0.1-0.2,0.2c0,0.1-0.1,0.1-0.1,0.1c0,0-0.1-0.1-0.1,0
				c0,0.1-0.1,0-0.1,0.1c0,0.1-0.1,0.1-0.2,0.1c0,0-0.1,0.1-0.1,0.1c-0.1,0-0.2,0.1-0.2,0.2c0,0,0,0.1,0.1,0.1
				C70.6,23.5,70.9,23.8,71.2,24.1z"/>
		</g>
		<g>
			<path d="M66.8,26.9C66.8,26.9,66.8,26.9,66.8,26.9L66.8,26.9z"/>
			<path d="M65.8,27.3C65.9,27.4,65.9,27.5,65.8,27.3C65.9,27.3,65.9,27.3,65.8,27.3c0.1-0.1,0.2-0.1,0.3-0.1c0.1,0,0.2,0,0.2-0.1
				c0.1,0,0.2,0,0.3-0.1c0,0,0.1,0,0.1-0.1l0,0l0,0l0,0l0,0l0,0c0,0.1,0.1,0,0.1,0c0,0,0.1,0,0.1,0c0,0,0-0.1,0.1,0
				c0.1,0.1,0-0.1,0.1,0c0.1-0.1,0.1-0.1,0.2-0.1c0.1-0.1,0.2-0.1,0.2-0.1c0,0,0.1,0,0.1-0.1c0-0.1,0.1-0.1,0.2-0.1
				c0.1-0.1,0.2-0.2,0.3-0.2c0.1,0,0.1-0.1,0.2-0.2c0,0,0.1,0,0.2,0c0,0,0,0-0.1-0.1l0,0c-0.4-0.7-0.6-1-0.7-0.8
				c0,0.1-0.1,0.1-0.2,0.2c0,0-0.1,0.1-0.1,0.1c-0.1,0-0.1,0.1-0.2,0.1c0,0-0.1,0-0.1,0.1c0,0.1,0,0.1-0.1,0.1
				c-0.1,0-0.2,0.1-0.3,0.2c-0.1,0-0.1,0.1-0.2,0c0,0,0,0,0,0c0,0-0.1,0-0.1,0.1c-0.1,0.1-0.2,0-0.3,0.1c0,0.1-0.1,0-0.1,0.1
				c0,0-0.1-0.1-0.1-0.1c0,0.1-0.1,0-0.1,0c0,0-0.1,0-0.2,0c-0.1,0-0.1,0.1-0.1,0.1c-0.1,0-0.2,0-0.3,0.1c0,0,0,0.1,0,0.2
				C65.5,26.5,65.7,26.9,65.8,27.3z"/>
		</g>
		<g>
			<path d="M60.9,28.8C60.9,28.8,60.9,28.8,60.9,28.8L60.9,28.8z"/>
			<path d="M60,29c0,0.2,0.1,0.2,0.1,0.1C60.1,29.1,60.1,29,60,29c0.1-0.1,0.2,0,0.3-0.1c0.1,0,0.2,0,0.2,0c0.1,0,0.2,0,0.3-0.1
				c0,0,0.1,0,0.1-0.1l0,0l0,0l0,0l0,0l0,0c0,0.1,0,0.1,0.1,0.1c0,0,0.1,0,0.1,0c0,0,0.1-0.1,0.1,0c0.1,0.1,0-0.1,0.1,0
				c0.1,0,0.2-0.1,0.2-0.1c0.1,0,0.2,0,0.2-0.1c0,0,0.1,0,0.1-0.1c0.1-0.1,0.1-0.1,0.2-0.1c0.1-0.1,0.2-0.1,0.3-0.1
				c0.1,0,0.2-0.1,0.3-0.1c0.1,0,0.1,0,0.2,0c0,0,0,0,0-0.2l0-0.1c-0.2-0.8-0.4-1.1-0.4-1c-0.1,0.1-0.1,0.1-0.2,0.1c0,0-0.1,0-0.1,0
				c-0.1,0-0.1,0.1-0.2,0.1c0,0-0.1,0-0.1,0c0,0.1,0,0.1-0.1,0.1c-0.1,0-0.2,0.1-0.3,0.1c-0.1,0-0.1,0.1-0.2,0c0,0,0,0,0,0
				c0,0-0.1,0-0.1,0.1c-0.1,0.1-0.2,0-0.3,0.1c0,0-0.1,0-0.1,0c0,0-0.1-0.1-0.1-0.1c0,0.1-0.1,0-0.1,0c-0.1,0-0.1,0-0.2,0
				c-0.1,0-0.1,0.1-0.2,0c-0.1,0-0.2,0-0.3,0.1c0,0,0,0.1,0,0.2C59.8,28.2,59.9,28.6,60,29z"/>
		</g>
		<g>
			<path d="M54.9,29.7C54.9,29.7,54.9,29.7,54.9,29.7L54.9,29.7z"/>
			<path d="M54,29.8c0,0.2,0,0.2,0.1,0.1C54,29.9,54,29.9,54,29.8c0.1,0,0.2,0,0.3,0c0.1,0,0.2,0,0.2,0c0.1,0,0.2,0,0.3,0
				c0,0,0.1,0,0.1-0.1l0,0l0,0l0,0l0,0l0,0c0,0.1,0,0.1,0,0.1c0,0,0.1,0,0.1,0c0,0,0.1-0.1,0.1,0c0,0.1,0.1-0.1,0.1,0
				c0.1,0,0.2,0,0.2-0.1c0.1,0,0.2,0,0.3,0c0,0,0.1,0,0.1,0c0.1,0,0.1,0,0.2-0.1c0.1-0.1,0.2-0.1,0.3-0.1c0.1,0,0.2-0.1,0.3-0.1
				c0.1,0,0.1,0,0.2,0c0,0,0,0,0-0.2l0-0.1c-0.1-0.8-0.2-1.1-0.3-1c-0.1,0.1-0.2,0-0.2,0.1c0,0-0.1,0-0.1,0c-0.1,0-0.1,0.1-0.2,0
				c0,0-0.1-0.1-0.1,0c0,0.1-0.1,0.1-0.1,0c-0.1,0-0.2,0.1-0.3,0c-0.1,0-0.1,0.1-0.2,0c0,0,0,0,0,0c0,0-0.1,0-0.1,0
				c-0.1,0.1-0.2-0.1-0.3,0c0,0-0.1,0-0.1,0c0,0,0-0.1-0.1-0.1c0,0.1-0.1,0-0.1,0c-0.1,0-0.1,0-0.2,0c-0.1,0-0.1,0-0.2,0
				c-0.1,0-0.2,0-0.3,0c0,0,0,0.1,0,0.2C53.9,29,53.9,29.4,54,29.8z"/>
		</g>
		<g>
			<path d="M48.9,30C48.9,30,48.9,30,48.9,30L48.9,30z"/>
			<path d="M47.9,30c0,0.2,0,0.2,0,0.1C48,30.1,48,30.1,47.9,30c0.1,0,0.2,0,0.3,0c0.1,0,0.2,0,0.2,0c0.1,0,0.2,0,0.3,0
				c0,0,0.1,0,0.1-0.1l0,0l0,0l0,0l0,0l0,0c0,0.1,0,0.1,0,0.1c0,0,0.1,0,0.1,0c0,0,0.1-0.1,0.1,0c0,0.1,0.1-0.1,0.1,0
				c0.1,0,0.2,0,0.3,0c0.1,0,0.2,0,0.3,0c0.1,0,0.1,0,0.2,0c0.1,0,0.1,0,0.2-0.1c0.1,0,0.2-0.1,0.3-0.1c0.1,0,0.2,0,0.3,0
				c0,0,0.1,0,0.1,0c0,0,0,0,0-0.2l0-0.1c0-0.8-0.1-1.1-0.2-1c-0.1,0.1-0.2,0-0.2,0c0,0-0.1,0-0.1,0c-0.1,0-0.1,0.1-0.2,0
				c0,0-0.1-0.1-0.1,0c0,0.1-0.1,0-0.1,0c-0.1-0.1-0.2,0-0.3,0c-0.1,0-0.1,0-0.2-0.1c0,0,0,0,0,0c0,0-0.1,0-0.1,0
				c-0.1,0-0.2-0.1-0.3,0c0,0-0.1,0-0.1,0c0,0,0-0.1,0-0.1c0,0.1-0.1,0-0.1,0c-0.1,0-0.1,0-0.2-0.1c-0.1,0-0.1,0-0.2,0
				c-0.1,0-0.2,0-0.3,0c0,0,0,0.1,0,0.2C47.9,29.2,47.9,29.6,47.9,30z"/>
		</g>
		<g>
			<path d="M42.8,29.7C42.8,29.7,42.8,29.8,42.8,29.7L42.8,29.7z"/>
			<path d="M41.9,29.7c0,0.2,0,0.2,0,0.1C41.9,29.8,41.9,29.7,41.9,29.7c0.1,0,0.2,0,0.3,0c0.1,0,0.2,0,0.2,0c0.1,0,0.2,0.1,0.3,0
				c0,0,0.1,0.1,0.1,0l0,0l0,0l0,0l0,0l0,0c0,0.1,0,0.1,0,0.1c0,0,0.1,0,0.1,0c0,0,0.1-0.1,0.1,0c0,0.1,0.1-0.1,0.1,0
				c0.1,0,0.2,0,0.3,0c0.1,0,0.2,0,0.3,0c0.1,0,0.1,0,0.2,0c0.1,0,0.1,0,0.2,0c0.1,0,0.2,0,0.3,0c0.1,0,0.2,0,0.3,0
				c0,0,0.1,0,0.1,0.1c0,0,0,0,0-0.2l0-0.1c0-0.8,0-1.1-0.1-1.1c-0.1,0.1-0.2,0-0.2,0c0,0-0.1,0-0.1,0c-0.1,0-0.1,0.1-0.2,0
				c0,0-0.1-0.1-0.1,0c0,0.1-0.1,0-0.1,0c-0.1-0.1-0.2,0-0.3,0c-0.1,0-0.2,0-0.2-0.1c0,0,0,0,0,0c0,0-0.1,0-0.1,0
				c-0.1,0-0.2-0.1-0.3,0c0,0-0.1,0-0.1,0c0,0,0-0.1,0-0.1c0,0.1-0.1,0-0.1,0c-0.1,0-0.1,0-0.2-0.1c-0.1,0-0.1,0-0.2,0
				c-0.1-0.1-0.2-0.1-0.3,0c0,0,0,0.1,0,0.2C41.9,28.8,41.9,29.3,41.9,29.7z"/>
		</g>
		<g>
			<path d="M36.8,28.9C36.8,28.9,36.8,28.9,36.8,28.9L36.8,28.9z"/>
			<path d="M35.9,28.8c0,0.2,0,0.2,0,0.1C35.9,28.9,35.9,28.9,35.9,28.8c0.2,0,0.2,0.1,0.3,0.1c0.1,0,0.2,0.1,0.2,0.1
				c0.1,0,0.2,0.1,0.3,0.1c0,0,0.1,0.1,0.1,0l0,0l0,0l0,0l0,0l0,0c0,0.1,0,0.1,0,0.1c0,0,0.1,0,0.1,0c0,0,0.1-0.1,0.1,0
				c0,0.1,0.1-0.1,0.1,0c0.1,0,0.2,0,0.3,0c0.1,0,0.2,0.1,0.3,0c0.1,0,0.1,0,0.2,0c0.1,0,0.1,0,0.2,0c0.1,0,0.2,0,0.3,0
				c0.1,0,0.2,0,0.3,0c0,0,0.1,0,0.1,0.1c0,0,0,0,0-0.1l0-0.1c0.1-0.8,0.1-1.1,0-1.1c-0.1,0.1-0.2,0-0.2,0c0,0-0.1,0-0.1,0
				c-0.1,0-0.1,0-0.2,0c0,0-0.1-0.1-0.1,0c0,0.1-0.1,0-0.1,0c-0.1-0.1-0.2,0-0.3-0.1c-0.1,0-0.2,0-0.2-0.1c0,0,0,0,0,0
				c0,0-0.1,0-0.1,0c-0.1,0-0.2-0.1-0.3-0.1c0,0-0.1,0-0.1,0c0,0,0-0.1,0-0.1c0,0.1-0.1,0-0.1,0c-0.1,0-0.1-0.1-0.2-0.1
				c-0.1,0-0.1,0-0.2,0c-0.1-0.1-0.2-0.1-0.3-0.1c0,0,0,0-0.1,0.1C36,28,35.9,28.4,35.9,28.8z"/>
		</g>
		<g>
			<path d="M30.9,27.4C30.9,27.4,30.9,27.4,30.9,27.4L30.9,27.4z"/>
			<path d="M30,27c-0.1,0.2-0.1,0.2,0,0.1C30,27.1,30,27.1,30,27c0.2,0,0.2,0.1,0.3,0.1c0.1,0,0.1,0.1,0.2,0.1
				c0.1,0,0.2,0.1,0.3,0.1c0,0,0.1,0.1,0.1,0l0,0l0,0l0,0l0,0l0,0c0,0.1,0,0.1,0,0.1c0,0,0.1,0,0.1,0c0,0,0.1,0,0.1,0
				c0,0.1,0.1-0.1,0.1,0.1c0.1,0,0.2,0,0.3,0.1c0.1,0,0.2,0.1,0.2,0.1c0.1,0,0.1,0,0.2,0c0.1,0,0.1,0,0.2,0c0.1,0,0.2,0,0.3,0.1
				c0.1,0,0.2,0,0.3,0.1c0,0,0.1,0,0.1,0.1c0,0,0,0,0.1-0.1l0-0.1c0.2-0.8,0.3-1.1,0.1-1.1c-0.1,0-0.2,0-0.2,0c0,0-0.1,0-0.1,0
				c-0.1,0-0.2,0-0.2-0.1c0,0,0-0.1-0.1,0c0,0-0.1,0-0.1,0c-0.1-0.1-0.2,0-0.3-0.1c-0.1,0-0.2,0-0.2-0.1c0,0,0,0,0,0
				c0,0-0.1,0-0.1,0c-0.1,0-0.2-0.2-0.3-0.1c-0.1,0-0.1,0-0.1,0c0,0,0-0.1,0-0.1c-0.1,0.1,0,0-0.1,0c-0.1,0-0.1-0.1-0.2-0.1
				c0,0-0.1,0-0.2-0.1c-0.1-0.1-0.2-0.1-0.3-0.1c0,0,0,0-0.1,0.1C30.3,26.3,30.1,26.7,30,27z"/>
		</g>
	</g>
</g>
<g>
	<path class="st1" d="M57.5,35.8c-0.7-11.4-0.9-2.6-1.6-14.5l-4,0c-0.1,6.7-0.5,5.4-0.9,14c0,0,1-0.4,3.2-0.4
		C56.5,34.9,57.5,35.8,57.5,35.8z"/>
	<g>
		<g>
			<path class="st4" d="M50.8,28.7c0.1-0.6,0.2-1.2,0.2-1.8c0.1-0.8,0.2-1.5,0.1-2.3c0-0.6,0-1.2,0-1.8l0-0.4l0-0.5c0-0.3,0-0.7,0-1
				c0-0.1,0-0.2,0-0.2l0.2,0l0.5,0l1.4,0l1,0c0.4,0,0.8,0,1.3,0l0.9,0c0.1,0.3,0,0.6,0.1,0.9l0,0.7l0,0.5c0,0.7,0.1,1.4,0.1,2.1
				c0.1,1,0.2,2.1,0.3,3c0,0.2,0.1,0.4,0.2,0.7c0.1,0.2,0.2,0.5,0.2,0.8c0.1,0.5,0.2,1.1,0.2,1.6c0.1,0.7,0.2,1.3,0.2,2
				c0,0.7,0.1,1.4,0.1,2.1c0,0.5-0.1,0.7-0.4,0.8c-0.2,0-0.3,0.1-0.5,0.1c-0.1,0-0.2-0.1-0.2-0.4c-0.1-1.1-0.2-2.2-0.3-3.2
				c-0.1-1.1-0.2-2.2-0.5-3.1c-0.1-0.3-0.2-0.8-0.3-1.2c-0.1-0.4-0.1-0.8-0.2-1.2c-0.1-0.8-0.2-1.5-0.3-2.3
				c-0.1-0.7-0.1-1.5-0.2-2.2c0-0.3,0-0.2,0-0.2c0,0,0,0,0,0l-0.1,0l-0.6,0l-1.6,0l-0.3,0l0,0c0,0,0,0,0,0l0,0c0,0,0,0.1,0,0.2
				l0,0.4l0,0.8l-0.1,1.7c-0.2,2.3-0.5,4.4-0.6,6.6l-0.2,2.6c0,0,0,0.1,0,0.1c0,0,0,0,0.1,0l0.4-0.1c0.8-0.1,1.6-0.1,2.5-0.1
				c0.8,0.1,1.7,0.2,2.5,0.6c0.6,0.3,0.6,0.5,0.4,0.8c-0.1,0.2-0.3,0.3-0.4,0.4c-0.1,0.1-0.2,0.1-0.3,0c-0.4-0.2-0.9-0.4-1.5-0.5
				c-0.6-0.1-1.2-0.1-1.8-0.1c-0.3,0-0.6,0-0.9,0c-0.3,0-0.5,0-1.1,0.2l-0.2,0.1c-0.2-0.1-0.4-0.2-0.6-0.2c-0.1-0.1-0.3-0.3-0.4-0.4
				l0-0.6l0.1-2.3c0-0.7,0.1-1.4,0.1-2.1C50.7,29.7,50.8,29.2,50.8,28.7z"/>
		</g>
	</g>
</g>
<g>
	<path class="st3" d="M51.8,17.9c-1.1,0.4-2.9,1.7-1.8,2.6s2.4,0.6,3.6,0.5c0.7,0,3.6,0.3,4.1-0.8s-0.8-1.9-1.2-2.1
		C55.7,17.7,52.8,17.5,51.8,17.9z"/>
	<g>
		<g>
			<path class="st4" d="M51.9,18.1L51.9,18.1c0.3,0,0.5-0.1,0.8-0.1c0.6-0.1,1.2-0.1,1.8,0c0.5,0.1,1,0.1,1.4,0.3
				c0.3,0.1,0.6,0.2,0.8,0.4l0,0l0,0l0,0c0.1,0,0.2,0.1,0.3,0.2c0.4,0.3,0.6,0.7,0.4,1.1c-0.1,0.4-0.7,0.6-1.2,0.6
				c-0.3,0-0.7,0-1,0.1c-0.7,0-1.3,0-2,0l0,0c-0.1,0-0.1,0-0.2,0c-0.6,0.1-1.2,0.1-1.8,0c-0.4-0.1-0.8-0.3-1.1-0.5
				C50,20,49.9,19.9,50,19.7c0-0.2,0.2-0.4,0.4-0.6c0.4-0.4,0.9-0.7,1.4-1l0,0L51.9,18.1L51.9,18.1c-0.1-0.2-0.3-0.3-0.4-0.3
				c-0.1,0-0.3,0-0.4,0.1c-0.1,0.1-0.2,0.1-0.3,0.2c-0.4,0.2-0.7,0.4-1,0.8c-0.2,0.3-0.5,0.8-0.3,1.2c0.1,0.3,0.3,0.5,0.5,0.6
				c0.2,0.1,0.4,0.2,0.6,0.3c0.4,0.2,0.9,0.3,1.3,0.3c0.6,0,1.2,0,1.7-0.1c0.6,0,1.3,0,1.9,0c0.5,0,1,0,1.5-0.2
				c0.3-0.1,0.5-0.3,0.8-0.5l0,0c0.2-0.4,0.4-0.8,0.2-1.3c-0.1-0.3-0.3-0.6-0.5-0.8l0,0c-0.3-0.2-0.5-0.4-0.8-0.5
				c-0.3-0.2-0.6-0.2-1-0.3c-0.6-0.1-1.2-0.2-1.9-0.2c-0.5,0-1,0-1.5,0.1c-0.1,0-0.3,0-0.4,0.1C51.7,17.8,51.8,17.9,51.9,18.1z"/>
			<polygon class="st4" points="57.8,20.5 57.8,20.5 57.8,20.5 			"/>
		</g>
	</g>
</g>
<g>
	<g>
		<path class="st3" d="M20.8,23.2c-0.5,0.6-1.4,1.3-1.4,1.7c0,0.3,1.1,0.7,1.8,1c0.2,0.1,0.5,0.2,0.8,0.2c0.3,0,0.5-0.1,0.7-0.2
			c0.9-0.4,1.9-0.9,2.9-1.1"/>
		<g>
			<g>
				<path class="st4" d="M22.9,26.1c-0.1,0.1-0.3,0.1-0.4,0.2c-0.2,0.1-0.4,0.1-0.6,0.1c-0.2,0-0.3,0-0.5-0.1c-0.1,0-0.1,0-0.2-0.1
					c-0.2,0-0.3-0.1-0.5-0.2c-0.1-0.1-0.3-0.1-0.4-0.2c-0.1,0-0.3-0.1-0.4-0.2c-0.2-0.1-0.3-0.1-0.5-0.3c-0.2-0.1-0.3-0.3-0.3-0.5
					c0-0.1,0-0.2,0.1-0.3c0-0.1,0.1-0.2,0.1-0.2c0.2-0.2,0.3-0.4,0.5-0.6c0.1-0.1,0.2-0.2,0.3-0.3c0.1-0.1,0.2-0.2,0.3-0.3
					c0.1-0.1,0.2-0.1,0.3,0c0.1,0,0.1,0.1,0.2,0.1c0.1,0.1,0.1,0.1,0,0.1c-0.3,0.4-0.7,0.8-1,1.1c-0.1,0.1-0.1,0.1-0.2,0.2
					c0,0,0,0,0,0.1c0,0,0,0,0.1,0.1c0.2,0.1,0.6,0.3,0.9,0.4c0.2,0.1,0.4,0.2,0.7,0.3c0.2,0.1,0.4,0.2,0.6,0.1
					c0.3,0,0.8-0.3,1.3-0.5c0.3-0.1,0.7-0.3,1.1-0.4c0.2-0.1,0.4-0.1,0.5-0.2c0.2-0.1,0.4-0.1,0.5-0.1c0.1,0,0.2,0,0.2,0.2
					c0,0.1,0,0.2,0,0.3c0,0.1,0,0.1-0.1,0.1c-0.1,0-0.2,0.1-0.4,0.1c-0.3,0.1-0.5,0.1-0.8,0.3c-0.1,0.1-0.2,0.1-0.3,0.1
					c-0.3,0.1-0.6,0.3-0.9,0.4L22.9,26.1z"/>
			</g>
		</g>
	</g>
	<g>
		<path class="st3" d="M18.3,6.9c-3,1.8-6,3.6-9,5.6c-0.2,0.1-0.3,0.2-0.5,0.3c-0.4,0.3-0.8,0.5-1.2,0.8c-1.4,0.9-2.8,1.9-4.2,2.8
			c-0.9,0.6-1.8,1.2-2.6,2c1,0.3,1.7,1.4,2.7,1.6C4,20.2,4.6,20,5.1,19.9c1-0.3,1.9-0.6,2.9-0.9c0.9-0.3,1.8-0.5,2.6-0.9
			c1.6-0.7,3-1.6,4.4-2.6c0.5-0.3,1-0.7,1.6-1c0.5-0.3,1-0.7,1.4-1.1c0.3-0.3,0.6-0.6,0.9-1c1.2-1.3,2.3-2.6,3.5-3.9
			c0,0,0.1-0.1,0.1-0.2c0-0.1-0.1-0.2-0.2-0.3c-1.1-0.5-2.2-1.1-3.3-1.6"/>
		<g>
			<g>
				<path d="M19.1,6.9L19.1,6.9c0.6,0.4,1.3,0.7,2,1L22,8.3c0.1,0,0.1,0.1,0.1,0.2l-0.2,0.2c-0.5,0.6-1.1,1.2-1.6,1.8
					c-0.9,0.9-1.8,2-2.8,2.7L16.4,14c-0.4,0.3-0.8,0.5-1.2,0.7l0,0l-0.1,0l0,0c-0.3,0.2-0.6,0.4-0.9,0.6c-1.2,0.8-2.5,1.6-3.8,2.2
					c-1.4,0.5-2.7,1-4.2,1.4c-0.9,0.2-1.9,0.6-2.6,0.6c-0.4,0-0.7-0.3-1.1-0.6c-0.2-0.2-0.4-0.3-0.7-0.5c-0.2-0.1-0.1-0.1-0.1-0.1
					l0,0c0,0,0,0,0-0.1c0.3-0.2,0.5-0.4,0.8-0.6l0,0l0.5-0.3c1.4-0.9,2.8-1.8,4.2-2.8c1-0.7,2.1-1.4,3.2-2.1l3.8-2.4
					c1.4-0.9,2.9-1.7,4.2-2.8l0,0l0.1,0l0,0c0-0.4-0.5-0.3-0.8-0.4c-0.3,0-0.6,0.1-0.9,0.3c-0.3,0.2-0.5,0.4-0.8,0.6
					c-0.9,0.6-1.9,1-2.8,1.6c-0.8,0.5-1.6,1.1-2.3,1.6c-1.9,1.2-3.7,2.5-5.5,3.7c-1.3,0.9-2.6,1.6-3.8,2.5l-0.3,0.2
					c-0.1,0.1-0.3,0.2-0.4,0.4l-0.4,0.4C0.2,18.4,0,18.5,0,18.6l0.9,0.3C1,19,1.1,19.1,1.2,19.1l0.2,0.1l0.7,0.6
					c0.3,0.2,0.6,0.4,0.9,0.5c0.4,0.1,0.8,0.2,1.1,0.1c0.7-0.1,1.3-0.3,2-0.5c0.6-0.2,1.3-0.4,1.9-0.6c0.7-0.3,1.4-0.6,2.1-0.7l0,0
					c0.9-0.3,1.8-0.8,2.7-1.3c0.7-0.4,1.4-0.8,2-1.2l0,0c0.7-0.5,1.4-0.9,2.1-1.4l1-0.8c0.2-0.1,0.4-0.2,0.5-0.4l0.5-0.5
					c1.2-1.2,2.2-2.4,3.3-3.6l0.3-0.4l0.2-0.3C22.9,9,23,8.8,23.1,8.7c0.1-0.2,0.1-0.5,0-0.7c-0.1-0.2-0.3-0.4-0.6-0.5l-1.8-0.9
					c-0.3-0.1-0.6-0.4-0.9-0.4C19.1,6.1,19,6.5,19.1,6.9z"/>
				<polygon points="10.1,18.7 10.1,18.7 10.1,18.7 				"/>
			</g>
		</g>
	</g>
	<g>
		<g>
			<g>
				<path class="st4" d="M1.6,11.5L1.6,11.5c0.1-0.2,0.2-0.2,0.3-0.1c0.1,0.1,0.1,0.1,0.2,0.2c0.1,0.1,0.2,0.2,0.2,0.4
					c0,0.1,0.1,0.1,0.1,0.1c0.1,0.1,0.1,0.3,0.1,0.4c0,0,0,0,0,0c0,0,0,0,0,0c0,0,0.1-0.2,0.2-0.3c0.1-0.1,0.1-0.2,0.1-0.2
					c0,0,0-0.1,0.1-0.1c0,0,0.1-0.1,0.1-0.1c0,0,0,0,0,0l0,0c0,0,0,0,0,0c0,0-0.1,0-0.2,0c-0.1,0-0.1,0-0.2,0c-0.1,0-0.1,0-0.2,0
					c-0.1,0-0.2,0-0.3-0.1c-0.1,0-0.3,0-0.4-0.1c-0.1,0-0.1-0.1-0.1-0.2c0-0.1,0-0.1,0.1-0.1c0.1,0,0.2,0,0.2,0c0.1,0,0.3,0,0.4,0
					l0.6,0.1c0.2,0,0.3,0.1,0.5,0.1c-0.1,0.2-0.2,0.3-0.3,0.5c-0.1,0.1-0.1,0.2-0.2,0.3C3.1,12.5,3,12.6,3,12.7
					c0,0.1-0.2,0.3-0.4,0.3c-0.2,0-0.3-0.1-0.4-0.3c0-0.1-0.1-0.2-0.1-0.3c-0.1-0.2-0.3-0.5-0.4-0.6c0,0-0.1,0-0.1-0.1
					c0,0,0,0,0-0.1L1.6,11.5z"/>
			</g>
		</g>
	</g>
	<g>
		<path class="st3" d="M2.5,12.6c-0.4,0.7,0.1,1.6,0.7,2.3c0.6,0.7,3,2.5,6.1,4c3.1,1.5,16.3,6,16.5,5.9c0.1-0.1,3.5-3.8,3.8-4.1
			c-0.7-0.5-1.8-1.2-2.4-1.4c-0.6-0.2-5.4,1.8-5.4,1.8s-5.8-3-6.4-3.5c-0.6-0.5-1-1.4-0.7-2.1c-1.4-0.6-2.9-1.1-4.1-2.1
			c-0.4-0.3-0.8-0.7-1.4-0.7c-0.3,0-0.7,0.2-1,0.2c-0.2,0-0.5-0.1-0.7-0.2c-1.1-0.5-2.4-0.9-3.6-0.9c-0.2,0-0.3,0-0.5,0.1
			c-0.2,0.1-0.3,0.4-0.4,0.5c-0.1,0.1-0.5,0.6-0.6,0.7C2.3,13,2.5,12.6,2.5,12.6z"/>
		<g>
			<g>
				<path class="st4" d="M23.5,20.9l-1.6,0.6l-1.1-0.6c-1.1-0.6-2.2-1.1-3.3-1.8c-0.5-0.3-1.1-0.6-1.6-0.9L15.4,18
					c-0.2-0.1-0.3-0.2-0.4-0.3c-0.3-0.3-0.5-0.6-0.6-0.9c-0.1-0.2-0.2-0.5-0.2-0.7c0-0.1,0-0.3,0-0.3c0,0,0,0,0,0c0,0,0,0-0.1,0
					l-0.4-0.1L13,15.2c-0.5-0.2-1-0.5-1.5-0.8c-0.5-0.3-1-0.7-1.4-1c-0.2-0.2-0.4-0.3-0.6-0.4c-0.2-0.1-0.3,0-0.6,0
					c-0.2,0.1-0.5,0.2-0.9,0.1c-0.3-0.1-0.6-0.2-0.8-0.3c-0.4-0.2-0.8-0.4-1.2-0.5c-0.4-0.1-0.9-0.2-1.3-0.3C4.5,12,4.3,12,4.1,12
					c-0.2,0-0.5,0-0.5,0c0,0-0.1,0.1-0.1,0.1l-0.1,0.3c-0.1,0.1-0.1,0.2-0.2,0.3c-0.1,0.2-0.3,0.3-0.4,0.5c0,0,0,0-0.1,0.1
					c0,0-0.1,0.1-0.3,0c-0.1,0-0.1-0.1-0.2-0.1c0-0.1,0-0.1,0-0.1c0-0.1,0-0.1,0-0.1c0-0.1,0-0.2,0.1-0.2c0-0.1,0.1-0.1,0.1-0.1
					c0.2,0,0.5,0,0.6,0.2c0,0.1,0,0.1,0,0.2c0,0,0,0,0,0c0,0-0.1,0-0.2-0.1c-0.1,0-0.2,0-0.2,0c0,0,0,0-0.1-0.1
					c0-0.1-0.1-0.1-0.1-0.2l-0.1-0.1l0,0c0.1-0.1,0.3-0.3,0.4-0.5c0.1-0.1,0.1-0.4,0.6-0.7c0.4-0.2,0.7-0.1,0.9-0.1
					c0.2,0,0.4,0,0.7,0.1c0.4,0.1,0.9,0.1,1.3,0.3c0.4,0.1,0.8,0.3,1.2,0.4c0.4,0.2,0.8,0.4,1,0.4c0.1,0,0.4-0.1,0.6-0.1
					c0.3-0.1,0.7,0,1,0.1c0.6,0.3,0.9,0.7,1.3,0.9c0.6,0.4,1.2,0.7,1.8,1c0.3,0.1,0.6,0.3,1,0.4l1.3,0.5L15,15.7c0,0.2,0,0.2,0,0.3
					c0,0.1,0,0.3,0.1,0.4c0.1,0.3,0.3,0.5,0.5,0.8c0.2,0.2,0.5,0.4,0.8,0.5c0.6,0.3,1.2,0.7,1.9,1c1.2,0.6,2.4,1.3,3.6,1.9l0,0
					l1.2-0.4l1.4-0.5c0.5-0.2,0.9-0.3,1.4-0.5c0.2-0.1,0.5-0.1,0.7-0.2c0.2,0,0.5-0.2,0.9-0.1c0.5,0.2,0.9,0.4,1.3,0.6
					c0.2,0.1,0.4,0.2,0.6,0.4l0.4,0.3l0.5,0.4L29.7,21l-0.3,0.4l-0.5,0.5l-2.2,2.3c-0.2,0.2-0.3,0.4-0.6,0.6
					C26.1,25,26,25,25.9,25.1c-0.1,0-0.2,0-0.3,0c-0.1,0-0.1,0-0.2,0l-0.1,0l-0.2-0.1l-1.5-0.5c-1.9-0.6-3.7-1.2-5.6-1.9
					c-1.8-0.7-3.6-1.3-5.5-1.9c-0.2-0.1-0.4-0.2-0.7-0.2l0,0l-0.2,0l0,0c-0.7-0.3-1.4-0.5-2.2-0.9c-1.5-0.7-2.9-1.4-4.2-2.4
					c-0.6-0.5-1.3-1-2-1.5c-0.6-0.5-1-1.2-1.3-2c-0.2-0.5-0.1-0.8,0-0.9c0.1-0.1,0.2-0.1,0.3-0.2c0.1,0,0.1,0,0.1,0.1
					c0,0.2,0.1,0.5,0.3,0.5c0.1,0,0.1,0.3,0.2,0.4c0.1,0.4,0.4,0.7,0.7,1.1c0.3,0.3,0.6,0.6,1,0.8C5.3,16,6.1,16.5,6.9,17
					c0.8,0.5,1.6,0.9,2.5,1.4c0.8,0.4,1.7,0.8,2.6,1.1c2.4,0.9,4.8,1.8,7.3,2.6l3.6,1.2l1.8,0.6l0.9,0.3l0.2,0l0,0l0,0l0.1-0.1
					c1-1.1,2-2.2,3.1-3.3c0.1-0.1,0.1-0.1,0.1-0.1l0,0c0,0,0,0,0,0l-0.3-0.2c-0.3-0.2-0.5-0.3-0.8-0.5c-0.1-0.1-0.3-0.1-0.4-0.2
					c-0.1,0-0.1-0.1-0.2-0.1c0,0,0,0-0.1,0c-0.3,0-0.6,0.1-0.9,0.2C25.2,20.2,24.3,20.5,23.5,20.9L23.5,20.9z"/>
			</g>
		</g>
	</g>
	<g>
		<path class="st3" d="M9.4,14c0.3-0.3,0.6-1,0.6-1s-0.7-0.3-0.8-0.4c-0.1,0-1-0.1-1.7,0.1C7.6,12.7,9.4,14,9.4,14z"/>
		<g>
			<g>
				<path class="st4" d="M7.1,12.7c-0.1-0.1-0.1-0.1-0.2-0.2c0,0,0.1,0,0.1,0c0.2,0,0.4-0.1,0.5-0.1c0.1,0,0.3-0.1,0.4-0.1
					c0.1,0,0.1,0,0.2,0c0.2,0,0.4,0,0.6,0c0.1,0,0.2,0,0.3,0c0.1,0,0.2,0,0.4,0.1c0.1,0.1,0.2,0.1,0.3,0.2c0.1,0.1,0.3,0.1,0.4,0.2
					c0.1,0.1,0.3,0.1,0.4,0.2l0.1,0c0,0,0,0,0,0L10.5,13l-0.1,0.2c-0.1,0.1-0.2,0.3-0.2,0.4c-0.1,0.1-0.1,0.2-0.2,0.3
					c-0.1,0.1-0.1,0.2-0.2,0.2c-0.1,0.1-0.1,0-0.3,0c-0.1,0-0.1-0.1-0.2-0.1c-0.1,0-0.1-0.1-0.1-0.1c0.1-0.2,0.2-0.4,0.3-0.6
					c0,0,0,0,0,0c0,0,0,0-0.1,0c-0.1,0-0.2-0.1-0.2-0.1c-0.1,0-0.2,0-0.3,0c-0.1,0-0.1,0-0.2,0c0,0,0,0,0,0c0,0,0,0,0,0c0,0,0,0,0,0
					c0,0,0,0,0,0c0,0,0,0,0,0c0.1,0.1,0.2,0.1,0.3,0.2c0.1,0.1,0.2,0.2,0.3,0.2c0.1,0.1,0.2,0.1,0.3,0.2c0,0,0.1,0,0,0.1
					c-0.1,0-0.1,0.1-0.1,0.2c0,0,0,0.1,0,0.1c0,0,0.2,0.1,0,0.2c-0.2,0-0.1,0-0.2,0L9,14.1c-0.2-0.1-0.3-0.3-0.5-0.3
					c-0.1,0-0.1-0.1-0.2-0.1C8,13.4,7.7,13.2,7.4,13L7.1,12.7z"/>
			</g>
		</g>
	</g>
	<g>
		<path class="st3" d="M11.2,13.7c0,0-1.1-0.7-1.1-0.7c-0.1,0.2-0.5,0.8-0.6,1c0,0,2.7,1.7,2.7,1.7c0,0,0,0,0.1-0.1
			c0.1-0.1,0.4-0.7,0.4-0.9C12.5,14.6,11.4,13.8,11.2,13.7z"/>
		<g>
			<g>
				<path class="st4" d="M12.2,16c-0.2,0-0.4-0.2-0.6-0.2c-0.1-0.1-0.3-0.2-0.4-0.2c-0.1-0.1-0.2-0.1-0.3-0.2
					c-0.1,0-0.1-0.1-0.2-0.1c-0.1-0.1-0.3-0.2-0.4-0.2c-0.1-0.1-0.2-0.2-0.4-0.2c-0.1-0.1-0.2-0.1-0.3-0.2c-0.1-0.1-0.2-0.2-0.3-0.3
					c0,0,0-0.1-0.1-0.2l0,0l0,0l0,0l0,0l-0.1,0l0,0l0,0l0,0l0,0l0-0.1l0-0.2c0.2-0.4,0.3-0.4,0.4-0.6c0.1-0.1,0.2-0.4,0.3-0.4l0.1,0
					l0,0l0,0l0,0l0,0l0,0l0,0l0,0.1l0,0l0,0l0.1,0c0.1,0,0.2,0,0.3,0.1c0.3,0.2,0.4,0.2,0.5,0.3c0.1,0.1,0.2,0.2,0.4,0.3
					c0.1,0.1,0.1,0.2,0,0.3c0,0.1-0.1,0.2-0.1,0.2c0,0.1-0.1,0.1-0.1,0l-0.6-0.4c-0.1-0.1-0.1-0.1-0.2-0.1c0,0,0,0-0.1,0
					c0-0.1-0.3,0.5-0.2,0.4c0,0,0,0,0,0l0,0l0,0L10,14c0.1,0.1,0.3,0.2,0.4,0.2c0.2,0.1,0.4,0.2,0.6,0.4c0.2,0.1,0.4,0.3,0.6,0.4
					l0.3,0.2c0.1,0.1,0,0,0.1,0.1c0,0,0,0,0,0l0,0l0.1-0.2c0.1-0.2,0.1-0.2,0.1-0.2c0,0-0.1-0.1-0.3-0.2c-0.1-0.1-0.2-0.2-0.4-0.3
					c-0.1-0.1-0.3-0.2-0.4-0.3c-0.1-0.1-0.1-0.1,0-0.3c0-0.1,0.1-0.2,0.2-0.2c0,0,0.1,0,0.1,0l0.3,0.2c0.2,0.2,0.4,0.4,0.7,0.5
					c0.1,0.1,0.2,0.1,0.3,0.3c0.1,0.1,0.1,0.2,0.1,0.4c0,0.1-0.1,0.3-0.1,0.3c-0.1,0.2-0.1,0.2-0.3,0.5C12.4,15.9,12.3,16,12.2,16z"
					/>
			</g>
		</g>
	</g>
	<g>
		<path class="st3" d="M14.9,17.1c-0.7-0.2-2.8-1.4-2.8-1.4l0.5-1.1c0.4,0.1,1.7,0.7,1.8,0.9C14.8,15.8,14.9,16.7,14.9,17.1z"/>
		<g>
			<g>
				<path class="st4" d="M13.4,15.3c-0.1-0.1-0.2-0.1-0.3-0.2c-0.1,0-0.1-0.1-0.2-0.1c-0.1,0-0.1,0-0.1,0c0,0,0,0,0,0c0,0,0,0,0,0
					c0,0.1-0.1,0.3-0.1,0.4c0,0.1,0,0,0,0.1c0,0,0,0,0,0c0.1,0.1,0.3,0.1,0.4,0.2c0.2,0.1,0.4,0.2,0.6,0.3c0.2,0.1,0.4,0.2,0.6,0.3
					c0.1,0.1,0.2,0.1,0.4,0.2c0.1,0.1,0.2,0.1,0.3,0.2c0.1,0,0.1,0.1,0.1,0.3c0,0.1,0,0.2-0.1,0.2c0,0.1-0.1,0.1-0.1,0.1
					c-0.4-0.2-0.9-0.3-1.3-0.5c-0.3-0.1-0.6-0.3-0.8-0.4l-0.2-0.1l-0.3-0.1L11.8,16c-0.2,0,0-0.2,0-0.3c0.1-0.3,0.2-0.5,0.3-0.8
					c0.1-0.2,0.2-0.4,0.3-0.6l0-0.1l0.1,0l0.2,0.1l0.3,0.1c0.2,0.1,0.5,0.2,0.7,0.3c0.2,0.1,0.4,0.2,0.6,0.3
					c0.1,0.1,0.3,0.1,0.5,0.4c0.2,0.2,0.2,0.4,0.3,0.6c0,0.2,0.1,0.3,0.1,0.5c0,0.2,0,0.3,0,0.5c0,0.1,0,0.2-0.2,0.2
					c-0.1,0-0.2,0-0.3,0c-0.1,0-0.1,0-0.1-0.1c0-0.1,0-0.2,0-0.3c0-0.2,0-0.5-0.1-0.7c0-0.1-0.1-0.2-0.1-0.2c0,0,0-0.1-0.1-0.1
					l-0.2-0.1c-0.1-0.1-0.3-0.1-0.4-0.2L13.4,15.3z"/>
			</g>
		</g>
	</g>
	<g>
		<g>
			<g>
				<path class="st4" d="M0.6,12c0.1-0.1,0.2-0.2,0.4-0.3c0.2-0.1,0.4-0.2,0.4-0.3c0-0.1,0.1-0.3,0.2-0.4c0-0.1,0.1-0.1,0.1-0.2
					c0.1-0.2,0.2-0.3,0.3-0.5c0.1-0.1,0.2-0.3,0.3-0.4c0.1-0.1,0.1-0.1,0.2-0.2c0-0.1,0.2-0.2,0.3-0.3c0.3-0.2,0.4-0.3,0.6-0.1
					c0.1,0.1,0.1,0.2,0,0.4c-0.1,0.2-0.3,0.4-0.4,0.5c-0.2,0.2-0.3,0.4-0.5,0.6c-0.1,0.1-0.2,0.2-0.4,0.3c-0.1,0.1-0.2,0.2-0.4,0.4
					c-0.1,0.1-0.2,0.1-0.2,0.1c0,0-0.1,0-0.1-0.1c0,0,0-0.1,0-0.1c0.4-0.4,0.8-0.8,1.2-1.2L2.8,10c0.1-0.1,0-0.1,0.1-0.1
					c0,0,0-0.1,0-0.1c0,0,0,0-0.1,0.1c-0.1,0.1-0.2,0.3-0.3,0.4c-0.2,0.2-0.3,0.4-0.5,0.7c-0.2,0.2-0.2,0.5-0.5,0.8l-0.4,0.3
					C1.1,12,1,12.1,0.9,12.2c-0.1,0.1-0.2,0.2-0.3,0.3l-0.1,0.2c0,0,0,0.1,0,0c0,0,0,0,0.2-0.2c0.1-0.2,0.2-0.3,0.4-0.5
					c0.1-0.2,0.2-0.3,0.3-0.5c0.1-0.1,0.1-0.1,0.2-0.1c0,0,0.1,0.1,0.1,0.1c0,0,0,0.1,0,0.1c-0.1,0.1-0.2,0.3-0.2,0.4
					c-0.2,0.3-0.4,0.5-0.6,0.8c-0.1,0.1-0.3,0.3-0.4,0.4c-0.1,0-0.2,0.1-0.3,0C0,13.2,0,13.1,0,13c0-0.1,0.1-0.2,0.1-0.4
					c0-0.1,0.1-0.1,0.1-0.2l0.1-0.1C0.4,12.2,0.5,12.1,0.6,12z"/>
			</g>
		</g>
	</g>
	<g>
		<path class="st3" d="M22.1,22.3c0,0,2-0.9,2.8-1.1c0.8-0.2,1.5-0.5,1.7-0.5c0.2,0,0.5,0,0.8,0.2c0.3,0.2,2.2,1.2,2.2,1.2l-2.9,2.5
			L22.1,22.3z"/>
		<g>
			<g>
				<path class="st4" d="M27.1,23.8c0.2-0.2,0.4-0.3,0.6-0.5c0.2-0.2,0.5-0.4,0.8-0.7c0.2-0.2,0.4-0.4,0.6-0.5c0,0,0,0,0,0
					c0,0,0,0,0,0l-0.1-0.1c-0.3-0.1-0.5-0.3-0.8-0.4c-0.3-0.1-0.5-0.3-0.7-0.4C27.1,21,27,21,26.7,21l0,0c-0.3,0-0.8,0.2-1.2,0.4
					c-0.4,0.1-0.8,0.3-1.2,0.5c-0.3,0.1-0.5,0.2-0.8,0.3c-0.3,0.1-0.5,0.2-0.8,0.3c-0.2,0.1-0.3,0-0.4-0.1c0-0.1-0.1-0.1-0.1-0.2
					c0-0.1,0-0.1,0.1-0.2c0.9-0.4,1.8-0.7,2.6-1.1l0.9-0.3l0.4-0.1c0.2,0,0.3-0.1,0.6-0.1l0.1,0c0.2,0,0.4,0,0.6,0.1
					c0.2,0.1,0.3,0.2,0.5,0.2l0.9,0.4l0.6,0.3l0.6,0.3l0.3,0.2c0.1,0,0,0.1,0,0.1l-0.1,0.1c-0.3,0.3-0.6,0.5-0.9,0.7l-0.6,0.5
					l-1.9,1.6L26,24.5c-0.6-0.3-1.3-0.6-1.9-0.9c-0.3-0.2-0.6-0.3-0.9-0.5l-0.9-0.4c-0.2-0.1-0.2-0.2-0.2-0.3c0-0.1,0.1-0.2,0.2-0.2
					c0,0,0.1,0,0.2,0l0.7,0.3c0.5,0.2,1,0.5,1.5,0.7c0.2,0.1,0.4,0.2,0.6,0.3l0.8,0.4l0.6,0.3l0,0L27.1,23.8z"/>
			</g>
		</g>
	</g>
</g>
</svg>
