<?xml version="1.0" encoding="utf-8"?>
<!-- Generator: Adobe Illustrator 24.2.1, SVG Export Plug-In . SVG Version: 6.00 Build 0)  -->
<svg version="1.1" id="Layer_1" xmlns="http://www.w3.org/2000/svg" xmlns:xlink="http://www.w3.org/1999/xlink" x="0px" y="0px"
	 viewBox="0 0 78.4 56.2" style="enable-background:new 0 0 78.4 56.2;" xml:space="preserve">
<style type="text/css">
	.st0{opacity:0.25;}
	.st1{fill:#3B6B7C;}
	.st2{fill:#E7E6E5;}
	.st3{fill:#FFFFFF;}
	.st4{fill:#211E1F;}
	.st5{fill:#201D1E;}
</style>
<g class="st0">
	<path class="st1" d="M6.3,45.9c1.4-2,8.6-10.4,8.6-10.4l2.5-1.1l2-2.1c0,0,1.8-0.4,2.4-1c0.4-0.4,4.4-7.7,4.4-7.7l3.8,2.2l0.9-2.2
		l3.9-3.2l4.9-6.4c0,0,1-3.9,1.6-5.8C41.4,7.4,41.6,6.7,42,6c0.3-0.5,0.8-0.9,1.3-1.3c1.5-1.3,4.6-3.9,4.6-3.9L52,9.2l5.5,5.3
		l0.4,5.7c0,0,2.4,3.5,3,4.4c1.3,1.9,2.2,3.8,2.2,3.8l5,1.7l2,2.2c0,0,5.2,7.9,8.3,12.6"/>
</g>
<path class="st2" d="M42.9,3.1c-0.2-1.2-1.8-1.3-2.5-0.7c-1.3,1.2-2.6,2.3-3.9,3.5c-0.9,0.8-1.6,1.9-1.3,3.1C35,9.3,35,9.6,35,9.9
	c-0.5,1.4-0.4,2.9-0.9,4.4c-0.3,1-0.9,1.2-1.7,1.7c-0.9,0.6-1.6,1.5-2.2,2.4c-1.1,1.4-2.2,2.7-3.3,4.1c-0.6,0.5-1.1,1-1.5,1.6
	c-0.1,0.1-0.3,0.2-0.4,0.4c-0.2,0.3-0.4,0.7-0.4,1.1c-0.3,0.3-0.6,0.6-1,0.9c0,0,0,0,0,0c-0.1,0.1-0.2,0.1-0.3,0.2
	c-0.8-0.9-1.5-1.8-2.3-2.7c-0.8-0.9-2.2-0.4-2.5,0.7c-0.3,0.9-0.5,1.8-1,2.6c-0.4,0.7-1.1,1.2-1.7,1.8c-0.9,0.9-1.2,2.1-1.7,3.2
	c-0.7,0.7-1.3,1.4-2,2c-0.1,0.1-0.2,0.1-0.3,0.2c-0.8,0.4-1.5,1-2.2,1.6c-1.5,1.3-2.8,2.8-4.2,4.2c-0.8,0.8-0.5,1.7,0.1,2.1
	c-1.3,0.2-2.6,0.7-3.7,1.5c-1.5,1.2,0,3.8,1.5,2.6c1.2-0.9,2.5-1.3,4.1-1.1C8.2,45.6,9,44.7,8.9,44c-0.1-0.6,1.2-0.7,1.7-0.9
	c0.7-0.3,1.2-0.6,1.7-1.1c0.4-0.5,0.7-1.1,0.9-1.7c0.1-0.3,0.1-0.7,0.1-1c0.5-0.1,1.4-0.7,1.5-0.8c0.6-0.4,1.1-0.9,1.5-1.5
	c1-1.3,2.1-2.2,2.4-3.8c0.1-0.3,0-0.6-0.1-0.9c0.3-0.4,0.7-0.8,1.1-1.2c0.7-0.7,1.2-1.5,1.6-2.3c1.8,2.2,3.7,4.1,5.9,1.9
	c0.9-0.9,1.1-1.9,0.8-2.8c0.1-0.2,0.1-0.4,0.1-0.6c0-0.4,0-0.9,0-1.3c0.2,0,0.4,0,0.6,0c1.1,0,2.2-0.2,3-1c0.8-0.7,1.3-1.7,1.8-2.6
	c0.7-1.3,1.5-2.6,2.2-3.9c0.2-0.4,0.2-0.8,0.1-1.2c0.2-0.2,0.4-0.5,0.6-0.8c1-1.8,0.6-3.9,1.4-5.7C40.8,9.2,43.5,6.8,42.9,3.1z
	 M12.9,39.2C12.9,39.2,12.9,39.2,12.9,39.2C12.9,39.2,12.9,39.2,12.9,39.2z M25.5,28.8C25.5,28.8,25.5,28.8,25.5,28.8
	C25.5,28.8,25.5,28.8,25.5,28.8C25.5,28.8,25.5,28.8,25.5,28.8z"/>
<g>
	<path class="st3" d="M0.3,46.4C1.7,44.4,8.9,36,8.9,36l2.5-1.1l2-2.1c0,0,1.8-0.4,2.4-1c0.4-0.4,4.4-7.7,4.4-7.7l3.8,2.2l0.9-2.2
		l3.9-3.2l4.9-6.4c0,0,1-3.9,1.6-5.8c0.2-0.7,0.4-1.5,0.8-2.1c0.3-0.5,0.8-0.9,1.3-1.3c1.5-1.3,4.6-3.9,4.6-3.9L46,9.7l5.5,5.3
		l0.4,5.7c0,0,2.4,3.5,3,4.4c1.3,1.9,2.2,3.8,2.2,3.8l5,1.7l2,2.2c0,0,5.2,7.9,8.3,12.6"/>
	<g>
		<g>
			<polygon class="st4" points="43.2,2.6 43.2,2.6 43.2,2.6 			"/>
			<polygon class="st4" points="36.4,5.2 36.4,5.2 36.4,5.2 			"/>
			<path class="st4" d="M71.9,45.7c-0.1,0.1-0.3,0-0.9-0.8c-1.5-2.2-2.8-4.5-4.3-6.7l0,0L66.7,38l0,0c-0.9-1.5-1.9-2.9-2.9-4.3
				l-0.3-0.5l-1.8-2l-2.3-0.8c-0.9-0.3-1.8-0.6-2.7-1l-0.2-0.3l-0.3-0.6l-0.3-0.6c-0.2-0.4-0.4-0.7-0.6-1.1
				c-0.4-0.7-0.9-1.4-1.4-2.1l-1.5-2.1l-0.7-1.1l-0.2-0.3c0-0.1-0.1-0.1-0.1-0.2l0-0.3l0-0.7c-0.1-1.6-0.2-3.1-0.3-4.7l-5.2-5
				l-0.3-0.3l-3.8-7.6l-0.1,0.1l-2.6,2.2c-0.9,0.8-2,1.5-2.5,2.3c-0.4,0.6-0.6,1.5-0.8,2.3c-0.3,1-0.5,2-0.9,3
				c-0.1,0.3-0.2,0.6-0.3,1c-0.1,0.4-0.2,0.8-0.3,1.3c-0.3,0.4-0.6,0.8-0.8,1.1c-1,1.3-2.1,2.6-3,4L29,21.2
				c-0.9,0.8-1.7,1.4-2.5,2.2l0,0c-0.4,0.3-0.8,0.7-1.3,1c-0.1,0.3-0.3,0.7-0.4,1c-0.2,0.5-0.5,1.1-0.7,1.6l-1.5-0.8l-0.9-0.6
				l-0.9-0.6l-0.3-0.2l-0.2-0.1L20,25.2l-2.6,4.5l-0.7,1.1c-0.2,0.4-0.4,0.7-0.7,1.2c-0.4,0.4-0.8,0.6-1.3,0.7
				c-0.2,0.1-0.4,0.2-0.6,0.2c-0.2,0.1-0.5,0.1-0.5,0.1l-2,2l-2.3,1c-0.2,0.1-0.2,0.1-0.4,0.3l-0.4,0.5l-0.8,0.9
				c-1.5,1.8-2.9,3.6-4.4,5.4l0,0c-1.1,1.4-2,2-2.8,2.7c-0.9,0.7-0.8,0.2,0.2-1.1c1.9-2.5,3.8-4.8,5.8-7.2l0.9-1l0.5-0.5l0.2-0.3
				l0.1-0.1c0.1-0.1,0.1-0.2,0.2-0.2l2.5-1.1l2-2.1l0.1,0c0.4-0.1,0.5-0.1,0.7-0.2l0.5-0.2c0.3-0.1,0.6-0.2,0.8-0.4
				c0.1-0.1,0.2-0.1,0.2-0.2l0.3-0.4l0.5-0.9l0,0c0,0,0.1-0.1,0.1-0.1l0,0c1.1-1.7,2-3.5,3-5.2l0.8-1.4c0.5,0.3,1,0.6,1.5,0.9
				c0.3,0.2,0.6,0.4,1,0.6c0.2,0.2,0.5,0.3,0.8,0.5c0.2,0.1,0.2,0.1,0.3,0.1l0.2,0.1l0.1-0.2l0.7-1.5l3.9-3.2l1-1.3l1.2-1.6l0,0
				c0.5-0.6,1-1.3,1.4-1.9l0.9-1.2l0.3-0.4l0.1-0.5l0.1-0.6c0.3-1.2,0.6-2.4,1-3.6c0-0.1,0.1-0.3,0.1-0.4l0,0l0.2-0.8l0-0.1l0,0
				c0.2-0.5,0.3-1.1,0.6-1.6c0.3-0.6,0.7-1,1.1-1.4l0.4-0.3l0,0l0,0l0,0l0,0c0,0,0,0,0,0C37.9,3.9,39,2.9,40.1,2l0,0L42,0.5l0.6,1.3
				l0,0c0,0.1,0.1,0.2,0.1,0.3c0,0.1,0.1,0.1,0.1,0.2l0,0l0.2,0.3l0.1,0.1c0.3,0.5,0.5,1.1,0.7,1.6l0,0C43.9,4.3,44,4.4,44,4.5l0,0
				l0,0L45,6.4l0,0c0.2,0.4,0.4,0.7,0.5,1.1c0.1,0.3,0.4,0.6,0.6,1.1l0,0l0.1,0.1l0,0l0.3,0.7l3.5,3.4l0,0c0.3,0.3,0.6,0.7,0.9,1
				l1.1,1.1c0.1,1.6,0.3,3.2,0.4,4.8l0.1,0.9c0,0,0.3,0.4,0.4,0.7l1.2,1.7c0.8,1.1,1.6,2.2,2.3,3.4l0.7,1.2l0.6,1l0.2,0.1l0,0
				c0.1,0,0.3,0.1,0.4,0.1l0,0l0,0c0.8,0.3,1.8,0.6,2.4,0.8c0.3,0.1,0.6,0.2,0.9,0.3c0.3,0.1,0.7,0.2,1,0.3c0.5,0.5,0.9,1,1.4,1.5
				l0.8,0.9l3.6,5.5c0.4,0.7,0.9,1.3,1.4,2c0.4,0.6,0.5,0.8,0.4,0.9c-0.1,0.3,0,0.7,0.8,1.8c0.4,0.6,1.2,1.7,0.6,1.6
				c-0.1,0,0.1,0.3,0.2,0.5C72.4,45.7,72,45.5,71.9,45.7z M34.8,8.1l-0.1,0.2c0,0,0.1-0.1,0.1-0.1C34.7,8.2,34.8,8.1,34.8,8.1z
				 M40.1,2.1L40.1,2.1L40.1,2.1L40.1,2.1z M43.2,2.8l-0.1-0.2L43.2,2.8L43.2,2.8z M45.1,6.8L45,6.4L45.1,6.8L45.1,6.8z M57.7,28.5
				L57.7,28.5L57.7,28.5L57.7,28.5z"/>
		</g>
	</g>
</g>
<g>
	<g>
		<path class="st2" d="M51,16.6c0.4,0.6,1.1,1.6,1.1,1.9c-0.1,0.3-1.2,0.5-1.9,0.7c-0.3,0.1-0.5,0.1-0.8,0.1
			c-0.3-0.1-0.5-0.2-0.7-0.3c-0.9-0.6-1.7-1.2-2.7-1.6"/>
		<g>
			<g>
				<path class="st5" d="M48.7,18.6c0.1,0.1,0.2,0.2,0.3,0.2c0.1,0.1,0.3,0.1,0.4,0.1c0.1,0,0.2,0,0.3,0c0.1,0,0.1,0,0.2,0
					c0.1-0.1,0.3-0.1,0.5-0.1c0.1,0,0.3-0.1,0.4-0.1c0.1-0.1,0.3-0.1,0.4-0.1c0.1,0,0.3-0.1,0.4-0.1c0,0,0.1,0,0-0.1
					c-0.1-0.2-0.2-0.3-0.4-0.5c-0.1-0.1-0.2-0.2-0.2-0.4c-0.1-0.1-0.2-0.3-0.2-0.4c-0.1-0.1,0-0.2,0.1-0.3c0.1,0,0.1-0.1,0.2-0.1
					c0.1,0,0.1,0,0.1,0c0.3,0.4,0.6,0.8,0.9,1.2l0.1,0.2c0,0.1,0.1,0.3,0.1,0.4c0.1,0.3-0.3,0.6-0.5,0.6c-0.4,0.2-0.7,0.2-1,0.3
					c-0.2,0.1-0.5,0.1-0.7,0.2c-0.3,0.1-0.6,0.1-0.9,0c-0.7-0.2-1-0.6-1.4-0.8c-0.3-0.2-0.6-0.4-0.9-0.6c-0.1-0.1-0.3-0.2-0.4-0.3
					c-0.2-0.1-0.3-0.2-0.5-0.2c-0.1-0.1-0.1-0.1-0.1-0.3c0-0.1,0.1-0.2,0.1-0.3c0-0.1,0.1-0.1,0.1,0l0.4,0.2
					c0.3,0.1,0.5,0.3,0.8,0.4c0.1,0.1,0.2,0.1,0.3,0.2l0.8,0.5L48.7,18.6z"/>
			</g>
		</g>
	</g>
	<g>
		<path class="st2" d="M56.2,0.9c2.7,2.3,5.3,4.6,7.9,7c0.1,0.1,0.3,0.3,0.4,0.4c0.4,0.3,0.7,0.7,1.1,1c1.2,1.2,2.5,2.3,3.7,3.5
			c0.8,0.8,1.6,1.5,2.2,2.4c-1.1,0.1-1.9,1.1-2.9,1.1c-0.6,0-1.1-0.2-1.6-0.5c-0.9-0.5-1.8-0.9-2.7-1.4c-0.8-0.4-1.6-0.8-2.4-1.3
			c-1.4-0.9-2.7-2.1-3.9-3.3c-0.5-0.4-0.9-0.9-1.4-1.3c-0.4-0.4-0.9-0.8-1.2-1.3C55,7,54.8,6.6,54.5,6.2c-0.9-1.5-1.9-3-2.8-4.4
			c0-0.1-0.1-0.1-0.1-0.2c0-0.1,0.2-0.2,0.3-0.2c1.2-0.3,2.4-0.7,3.6-1"/>
		<g>
			<g>
				<path d="M55.2,0L55.2,0c-0.7,0.1-1.4,0.4-2.2,0.6l-0.6,0.2l-0.3,0.1c-0.2,0-0.3,0.1-0.5,0.2c-0.1,0.1-0.2,0.1-0.3,0.3
					c-0.1,0.1-0.1,0.3-0.1,0.4c0,0.2,0.3,0.6,0.4,0.8c0.4,0.7,0.8,1.4,1.2,2.1c0.7,1.1,1.3,2.3,2.2,3.4l1,1c0.3,0.3,0.7,0.6,1,1l0,0
					l0,0l0,0c0.3,0.2,0.5,0.5,0.8,0.7c1.1,1,2.2,2.1,3.5,2.9c1.3,0.7,2.7,1.4,4,2.1l1.3,0.7c0.4,0.2,0.9,0.5,1.6,0.6
					c0.8,0.1,1.4-0.3,1.9-0.5c0.2-0.1,0.5-0.3,0.7-0.4c0,0,0.1-0.1,0.3-0.1c0.1-0.1,0.3-0.1,0.4-0.1l0.9-0.2
					c-0.3-0.5-0.8-1.1-1.1-1.5c-0.2-0.3-0.5-0.5-0.7-0.8l0,0c-0.1-0.1-0.2-0.3-0.4-0.4c-1.2-1.2-2.4-2.3-3.7-3.5
					c-1-0.8-1.8-1.7-2.8-2.6L60.3,4c-1.3-1.1-2.5-2.3-3.9-3.2l0,0l-0.1,0l0,0c-0.3,0.1-0.2,0.6-0.1,0.9c0.1,0.3,0.3,0.5,0.6,0.7
					c0.3,0.2,0.5,0.4,0.8,0.6c0.8,0.7,1.5,1.5,2.3,2.2c0.7,0.6,1.5,1.2,2.2,1.8c1.7,1.4,3.3,2.9,4.9,4.4c1.1,1,2.2,2.1,3.2,3.2
					l0.3,0.3c0,0,0.1,0.1,0.1,0.1c0,0-0.1,0-0.1,0l-0.1,0l-0.2,0.1l-0.8,0.5c-0.5,0.3-1,0.4-1.5,0.3c-0.5-0.1-1.1-0.5-1.7-0.8
					c-0.6-0.3-1.2-0.6-1.7-0.9c-0.7-0.3-1.3-0.6-1.9-1.1l0,0c-0.9-0.4-1.6-1-2.3-1.6c-0.6-0.5-1.1-1.1-1.6-1.6l0,0
					c-0.6-0.6-1.2-1.1-1.8-1.7l-0.8-0.9C56,7.2,55.8,7.1,55.7,7l-0.3-0.5c-0.9-1.3-1.7-2.7-2.6-4.1L52.5,2l-0.1-0.1l0,0
					c0,0,0-0.1,0-0.1l1.7-0.5c0.3-0.1,0.7-0.1,1-0.3C55.7,0.6,55.5,0.2,55.2,0z"/>
				<polygon points="62.6,13.2 62.6,13.2 62.6,13.2 				"/>
			</g>
		</g>
	</g>
	<g>
		<g>
			<g>
				<path class="st5" d="M71.8,8.3L71.8,8.3c0.1,0.2,0.1,0.2,0,0.3c-0.1,0-0.1,0.1-0.2,0.1c-0.1,0.1-0.2,0.2-0.3,0.3
					c0,0-0.1,0.1-0.1,0.1c-0.1,0.1-0.1,0.2-0.2,0.3c0,0.1-0.1,0.2-0.2,0.2c-0.2,0.1-0.4,0-0.5-0.2c-0.1-0.2-0.1-0.3-0.1-0.4
					c0-0.1,0-0.2-0.1-0.3c0,0,0-0.1,0-0.1C70,8.5,70,8.4,70,8.2c0-0.1,0-0.2-0.1-0.3c0.1,0,0.3,0,0.5,0c0.1,0,0.1,0,0.2,0
					c0.1,0,0.1,0,0.2,0c0.1,0,0.1,0,0.2,0c0.1,0,0.2,0,0.3,0c0.1,0,0.3,0,0.4,0c0.1,0,0.1,0.1,0.1,0.2c0,0.1,0,0.1-0.1,0.1
					c-0.1,0-0.2,0-0.2,0c-0.1,0-0.3,0-0.4,0l-0.6,0l-0.1,0c0,0.1,0,0,0,0.2c0,0.1,0.1,0.2,0.1,0.3c0.1,0.2,0.2,0.5,0.2,0.5
					c0,0,0,0,0.1-0.1c0.1-0.1,0.1-0.2,0.2-0.3c0.2-0.3,0.4-0.5,0.6-0.7c0,0,0.1-0.1,0.1-0.1c0,0,0.1,0,0.1,0
					C71.7,8.2,71.7,8.2,71.8,8.3z"/>
			</g>
		</g>
	</g>
	<g>
		<path class="st2" d="M70.8,9.2c0.3,0.8-0.4,1.6-1.1,2.1c-0.7,0.6-3.4,1.9-6.7,2.9c-3.3,1-17.1,3.1-17.2,3
			c-0.1-0.1-2.8-4.4-3.1-4.7c0.8-0.4,2-0.9,2.6-0.9c0.6-0.1,5,2.7,5,2.7s6.2-2,6.9-2.4c0.7-0.4,1.3-1.2,1.1-2
			c1.5-0.3,3.1-0.6,4.4-1.4c0.5-0.3,1-0.6,1.5-0.5c0.3,0.1,0.6,0.3,1,0.4c0.2,0,0.5,0,0.7-0.1C67,8,68.3,7.9,69.6,8
			c0.2,0,0.3,0.1,0.5,0.2c0.2,0.1,0.2,0.4,0.3,0.6c0,0.1,0.4,0.7,0.5,0.8C70.9,9.7,70.8,9.2,70.8,9.2z"/>
		<g>
			<g>
				<path class="st5" d="M49.1,13.1l1.1,0.7l0.8-0.3c1.2-0.4,2.4-0.8,3.5-1.2c0.6-0.2,1.2-0.4,1.8-0.6l0.4-0.2
					c0.1-0.1,0.2-0.1,0.3-0.2c0.2-0.1,0.4-0.3,0.5-0.5c0.1-0.1,0.2-0.3,0.2-0.4c0-0.1,0-0.1,0-0.3c0-0.2-0.1-0.4-0.1-0.6L59,9.3
					l0.8-0.2c0.5-0.1,1.1-0.3,1.6-0.5c0.5-0.2,1-0.4,1.5-0.7c0.3-0.1,0.5-0.3,0.9-0.3c0.4-0.1,0.8,0.1,1,0.2C64.9,8,65.1,8,65.2,8
					c0.1,0,0.3-0.1,0.6-0.1c0.5-0.1,1-0.2,1.4-0.3c0.5-0.1,1-0.1,1.5,0c0.2,0,0.5,0,0.7,0.1c0.2,0,0.5,0,0.8,0.3
					c0.2,0.1,0.2,0.3,0.3,0.4c0,0.1,0.1,0.2,0.1,0.3c0.1,0.2,0.3,0.5,0.4,0.6c0,0,0.1,0-0.1,0.1c-0.1,0.1-0.1,0.1-0.1,0.1
					c0,0,0,0-0.1,0c0,0-0.1,0-0.1,0l-0.1,0c0,0,0,0,0,0l0,0c0-0.1,0-0.1,0-0.1c0.2-0.1,0.3-0.4,0.6-0.2c0.1,0,0.1,0.1,0.2,0.2
					c0,0,0,0.1,0,0.1c0,0,0,0.1,0,0.1c0,0.1,0,0.1-0.1,0.3c-0.4,0.5-0.8,0.1-0.7,0.1c-0.1,0-0.1-0.1-0.1-0.1c0,0-0.1-0.1-0.1-0.1
					c-0.2-0.3-0.3-0.4-0.5-0.8c-0.1-0.3-0.2-0.4-0.2-0.4c0,0-0.1-0.1-0.4-0.1c-0.2,0-0.4,0-0.6-0.1c-0.4,0-0.8,0-1.2,0
					c-0.4,0-0.8,0.1-1.2,0.2c-0.2,0-0.4,0.1-0.6,0.1c-0.2,0.1-0.5,0.1-0.8,0.1c-0.4-0.1-0.6-0.3-0.8-0.3c-0.2-0.1-0.3-0.1-0.5-0.1
					c-0.4,0.1-0.8,0.4-1.3,0.6c-0.7,0.3-1.4,0.6-2.1,0.8C60,9.9,59.7,9.9,59.3,10l-0.5,0.1l-0.1,0c0,0-0.1,0-0.1,0c0,0,0,0.1,0,0.1
					c0,0,0,0.2,0,0.3c0,0.2-0.1,0.4-0.2,0.6c-0.2,0.4-0.5,0.7-0.8,0.9c-0.4,0.2-0.7,0.3-1,0.5c-0.7,0.3-1.4,0.5-2,0.7l-2,0.7
					l-2.2,0.7l0,0l-1.4-0.9L47.6,13c-0.4-0.2-0.8-0.5-1.2-0.7c-0.2-0.1-0.4-0.2-0.6-0.3c-0.2-0.1-0.4-0.2-0.5-0.2
					c-0.4,0.1-0.8,0.2-1.2,0.4c-0.2,0.1-0.4,0.2-0.6,0.3l-0.1,0.1c0,0-0.1,0-0.1,0l0.1,0.1l0.1,0.2l0.4,0.6l1.7,2.7l0.4,0.6
					c0,0,0,0,0.1,0l0.3,0l1.6-0.2c1.9-0.3,3.9-0.6,5.8-0.9c1.9-0.3,3.8-0.6,5.7-1c0.2-0.1,0.5,0,0.7-0.1l0,0l0.1-0.1l0,0
					c0.8-0.1,1.5-0.3,2.2-0.5c1.5-0.4,3-1,4.5-1.5c0.7-0.3,1.5-0.6,2.2-1.1c0.5-0.3,1.1-0.9,1.3-1.4c0.1-0.3,0.1-0.4,0.1-0.5
					c0-0.1,0.1-0.1,0.2-0.2c0-0.1,0.1,0,0.2,0c0.2,0.1,0.2,0.5,0.4,0.5c0.1,0,0,0.5-0.2,0.7c-0.3,0.5-0.6,0.9-1,1.2
					c-0.4,0.4-0.9,0.6-1.3,0.8c-0.9,0.5-1.7,0.8-2.6,1.2c-0.9,0.3-1.8,0.7-2.7,0.9c-0.9,0.3-1.9,0.5-2.8,0.7c-2.6,0.5-5.1,1-7.7,1.4
					l-3.8,0.6l-1.9,0.3l-0.9,0.1l-0.3,0c-0.2,0-0.3-0.1-0.4-0.1c-0.2,0-0.2-0.2-0.3-0.3L45.1,17c-0.8-1.3-1.6-2.5-2.4-3.8l-0.3-0.4
					L42,12.3c0.3-0.1,0.6-0.3,0.8-0.4l0.3-0.1l0.2-0.1c0.3-0.1,0.6-0.2,1-0.4c0.2-0.1,0.3-0.1,0.5-0.1c0.1,0,0.2,0,0.3,0
					c0.1,0,0.3,0,0.4,0.1c0.4,0.1,0.7,0.3,1,0.4C47.4,12.1,48.3,12.6,49.1,13.1L49.1,13.1z"/>
			</g>
		</g>
	</g>
	<g>
		<path class="st2" d="M63.7,9.4c-0.2-0.4-0.4-1.1-0.4-1.1s0.7-0.2,0.8-0.2c0.1,0,1,0.1,1.6,0.3C65.7,8.5,63.7,9.5,63.7,9.4z"/>
		<g>
			<g>
				<path class="st5" d="M64.8,8.6C64.8,8.6,64.9,8.6,64.8,8.6C64.9,8.5,64.9,8.5,64.8,8.6C64.8,8.5,64.8,8.5,64.8,8.6
					c-0.1,0-0.1-0.1-0.1-0.1c0,0,0,0,0,0c0,0,0,0-0.1,0c-0.1,0-0.2,0-0.3,0c-0.1,0-0.2,0-0.2,0c-0.1,0-0.2,0.1-0.3,0.1
					c-0.1,0,0,0,0,0c0,0,0,0,0,0c0,0,0,0,0,0c0,0.1,0.1,0.2,0.1,0.2c0,0.1,0.1,0.2,0.1,0.3c0,0.1,0,0.1-0.2,0.2
					c-0.1,0-0.1,0.1-0.2,0.1c-0.1,0-0.1,0-0.1,0c-0.2-0.3-0.3-0.5-0.5-1.1C62.7,8.1,63,8.1,63.2,8c0.2-0.1,0.3-0.1,0.5-0.2
					c0.1,0,0.2-0.1,0.4-0.1c0.1,0,0.2,0,0.4,0c0.1,0,0.1,0,0.3,0c0.2,0,0.3,0.1,0.5,0.1C65.6,8,65.8,8.1,66,8.2
					c0.2,0.1,0.4,0.2,0.6,0.2c-0.4,0.2-0.7,0.3-1.1,0.5c-0.2,0.1-0.4,0.2-0.6,0.3c-0.1,0.1-0.2,0.1-0.3,0.2c-0.1,0-0.2,0.1-0.3,0.1
					c-0.1,0.1-0.2,0.1-0.3,0.1c-0.1,0-0.1,0-0.1,0c-0.2,0-0.2-0.2-0.1-0.2c0,0,0.1,0,0.1-0.1c0,0,0.1-0.1,0-0.2
					c-0.2-0.1-0.1-0.1-0.1-0.1c0.1,0,0.1-0.1,0.2-0.1c0.2-0.1,0.4-0.1,0.5-0.2c0.1,0,0.1-0.1,0.2-0.1C64.7,8.6,64.7,8.6,64.8,8.6
					C64.8,8.6,64.8,8.6,64.8,8.6z"/>
			</g>
		</g>
	</g>
	<g>
		<path class="st2" d="M62,8.8c0,0,1.2-0.5,1.2-0.5c0.1,0.2,0.4,0.9,0.4,1.1c0,0.1-2.9,1.3-3,1.2c0,0,0-0.1,0-0.1
			c0-0.1-0.3-0.8-0.2-0.9C60.5,9.4,61.8,8.9,62,8.8z"/>
		<g>
			<g>
				<path class="st5" d="M60.9,10.3c0,0,0,0,0.1,0c0.1-0.1,0.3-0.1,0.5-0.2c0.1-0.1,0.2-0.1,0.4-0.2c0.1,0,0.1-0.1,0.2-0.1
					c0.1-0.1,0.3-0.1,0.4-0.2c0.1-0.1,0.3-0.1,0.4-0.2c0.1-0.1,0.2-0.1,0.4-0.2c0,0,0,0,0,0l0,0c0,0.1-0.1-0.2-0.2-0.4
					c0-0.1,0,0,0,0c0,0-0.1,0.1-0.3,0.1c-0.1,0-0.3,0.1-0.4,0.1c-0.1,0-0.2,0-0.3-0.2c0-0.1-0.1-0.1-0.1-0.2c0-0.1,0-0.1,0-0.1
					l0.6-0.3c0.2-0.1,0.8-0.4,0.9,0c0.2,0.6,0.2,0.4,0.4,1l0,0.1l0,0.1l0,0l0,0l0,0l0,0l-0.1,0l0,0l0,0l0,0l0,0
					c0,0.2-0.4,0.4-0.5,0.4c-0.1,0.1-0.3,0.1-0.4,0.2c-0.2,0.1-0.4,0.2-0.6,0.3c-0.2,0.1-0.4,0.2-0.7,0.3l-0.3,0.1
					c0,0-0.2,0.1-0.3,0.1c-0.1,0-0.2,0.1-0.3,0c-0.1,0-0.2,0-0.2,0c-0.1,0-0.1-0.1-0.1-0.2l-0.1-0.5c0-0.1,0-0.1-0.1-0.3
					c0-0.2,0-0.3,0.1-0.4c0.3-0.3,0.4-0.3,0.6-0.4c0.2-0.1,0.3-0.1,0.5-0.2c0.2-0.1,0.3-0.1,0.5-0.2c0.1,0,0.2,0,0.2,0.1
					c0,0.1,0.1,0.2,0.1,0.3c0,0.1,0,0.1,0,0.1l-0.3,0.1c-0.2,0.1-0.5,0.2-0.7,0.3c-0.1,0.1-0.2,0.1-0.2,0.1c0,0,0,0,0,0.2
					C60.8,10,60.9,10.2,60.9,10.3C60.9,10.2,60.9,10.3,60.9,10.3z"/>
			</g>
		</g>
	</g>
	<g>
		<path class="st2" d="M57.8,11.5c0.7-0.1,3-0.9,3-0.9l-0.3-1.2c-0.4,0.1-1.8,0.4-2,0.5C58.1,10.2,57.8,11.1,57.8,11.5z"/>
		<g>
			<g>
				<path class="st5" d="M59.4,9.4c0.1,0,0.3,0,0.4-0.1c0.2-0.1,0.3-0.1,0.6-0.2c0.1,0,0.2-0.1,0.3-0.1c0,0.1,0.1,0.2,0.1,0.3
					c0,0.1,0.1,0.2,0.1,0.3C60.9,9.9,61,10,61,10.2c0,0.2,0.1,0.5,0.2,0.7c-0.2,0.1-0.5,0.2-0.7,0.2c-0.1,0-0.3,0.1-0.4,0.1
					c-0.2,0.1-0.4,0.1-0.6,0.2c-0.2,0.1-0.4,0.2-0.6,0.2c-0.1,0-0.3,0.1-0.4,0.1c-0.1,0-0.3,0.1-0.4,0.1c-0.1,0-0.2-0.1-0.2-0.2
					c0-0.1,0-0.2-0.1-0.2c0-0.1,0-0.1,0.1-0.1c0.4-0.1,0.8-0.3,1.2-0.4c0.3-0.1,0.6-0.2,0.9-0.3c0.1,0,0.2-0.1,0.4-0.1c0,0,0,0,0,0
					c0,0.1-0.1-0.3-0.1-0.4c0,0,0,0,0,0c0,0-0.2,0-0.2,0l-0.3,0.1L59,10.2c-0.2,0-0.3,0.1-0.3,0.1c-0.1,0.1-0.2,0.2-0.2,0.3
					c-0.1,0.1-0.1,0.2-0.2,0.4c0,0.1-0.1,0.3-0.1,0.4c0,0.1-0.1,0.1-0.2,0.1c-0.1,0-0.2,0-0.3-0.1c-0.1,0-0.1-0.1-0.1-0.1
					c0-0.1,0.1-0.3,0.1-0.4c0.1-0.3,0.2-0.5,0.3-0.8c0-0.1,0.1-0.2,0.2-0.3c0.1-0.1,0.2-0.1,0.3-0.2l0.2-0.1
					c0.1-0.1,0.3-0.1,0.4-0.1L59.4,9.4z"/>
			</g>
		</g>
	</g>
	<g>
		<g>
			<g>
				<path class="st5" d="M72.5,9.2c-0.1-0.1-0.2-0.3-0.3-0.4c-0.1-0.1-0.3-0.2-0.4-0.5c-0.1-0.2-0.1-0.3-0.2-0.5
					c0-0.1-0.1-0.1-0.1-0.2c-0.1-0.2-0.2-0.3-0.2-0.5c-0.1-0.2-0.2-0.3-0.3-0.5c0-0.1-0.1-0.1-0.1-0.2c-0.1-0.1,0,0,0-0.1
					c0,0,0,0,0,0c0,0,0,0,0,0l0.1,0.1c0.1,0.2,0.3,0.4,0.4,0.6c0.1,0.1,0.2,0.3,0.3,0.4c0.1,0.2,0.2,0.3,0.3,0.4
					C72,8.2,72,8.2,72,8.3c0,0,0,0.1-0.1,0.1c0,0-0.1,0-0.1,0c-0.3-0.5-0.7-0.9-1-1.4l-0.2-0.3c-0.1-0.1-0.2-0.3-0.2-0.4
					c-0.1-0.3-0.1-0.5,0.2-0.6c0.1-0.1,0.4,0.1,0.6,0.4c0.2,0.3,0.2,0.4,0.3,0.5c0.1,0.2,0.3,0.5,0.4,0.8c0.1,0.3,0.2,0.6,0.3,0.8
					l0.1,0.1c0.1,0.1,0.1,0.1,0.2,0.2c0.1,0.1,0.2,0.2,0.3,0.4c0.2,0.3,0.3,0.4,0.5,1c0,0.2,0,0.3-0.1,0.4c0,0.1-0.1,0.1-0.2,0.1
					c-0.1,0-0.1,0-0.2,0c-0.2-0.1-0.5-0.6-0.5-0.7C72.2,9.4,72.1,9.2,72,9c-0.1-0.2-0.2-0.4-0.2-0.6c0-0.1,0-0.2,0-0.2
					c0,0,0.1,0,0.1,0c0,0,0.1,0,0.1,0.1c0,0.1,0.1,0.3,0.2,0.4c0.1,0.3,0.2,0.6,0.4,0.9c0,0,0.1,0.1,0.1,0.1c0,0,0,0,0.1,0
					c0,0,0,0,0-0.1c0,0,0,0,0-0.1l-0.1-0.1C72.6,9.4,72.6,9.3,72.5,9.2z"/>
			</g>
		</g>
	</g>
	<g>
		<path class="st2" d="M49.8,15.4c0,0-1.9-1.2-2.6-1.6c-0.7-0.4-1.4-0.8-1.6-0.8s-0.4-0.1-0.8,0c-0.3,0.1-2.4,0.8-2.4,0.8l2.5,2.9
			L49.8,15.4z"/>
		<g>
			<g>
				<path class="st5" d="M44.2,16.4c-0.2-0.2-0.3-0.4-0.5-0.6c-0.2-0.2-0.4-0.5-0.7-0.7c-0.2-0.2-0.3-0.4-0.5-0.6
					c-0.1-0.2-0.3-0.3-0.4-0.5l-0.1-0.2l-0.1-0.1c0,0-0.1-0.1,0-0.1l0.4-0.1c0.2-0.1,0.5-0.2,0.7-0.2c0.3-0.1,0.6-0.2,0.8-0.3
					c0.3-0.1,0.5-0.2,0.8-0.2c0.3-0.1,0.8-0.1,1-0.1l0.1,0c0.6,0.2,0.9,0.4,1.3,0.6c0.4,0.2,0.8,0.4,1.2,0.6
					c0.2,0.2,0.5,0.3,0.7,0.4c0.3,0.2,0.5,0.3,0.7,0.5c0.2,0.1,0.2,0.2,0.2,0.4c0,0.1,0,0.2-0.1,0.2c-0.1,0.1-0.1,0.1-0.2,0
					c-0.8-0.5-1.6-1-2.4-1.4l-0.8-0.4l-0.4-0.2c-0.1-0.1-0.3-0.1-0.3-0.1l-0.1,0c-0.3,0-0.4,0-0.8,0.1l-0.9,0.3l-0.6,0.2
					c0,0,0,0,0,0l0,0l0.2,0.2l0.5,0.6l1.3,1.6c0,0,0,0,0.1,0l0.3-0.1c0.7-0.2,1.4-0.4,2.1-0.5c0.3-0.1,0.7-0.2,1-0.2l1-0.3
					c0.2-0.1,0.3,0,0.4,0.1c0,0.1,0,0.2,0,0.3c0,0.1,0,0.1-0.1,0.1l-0.7,0.2c-0.5,0.2-1.1,0.2-1.6,0.4c-0.2,0.1-0.4,0.1-0.7,0.2
					l-1.9,0.5L44.7,17L44.2,16.4z"/>
			</g>
		</g>
	</g>
</g>
<g>
	<g>
		<g>
			<path d="M9.5,17.2C9.5,17.2,9.5,17.2,9.5,17.2L9.5,17.2z"/>
			<path d="M10.4,17.5c0-0.2,0-0.2,0-0.1C10.4,17.4,10.4,17.4,10.4,17.5c-0.1,0-0.2-0.1-0.3-0.1c-0.1,0-0.1-0.1-0.2-0.1
				c-0.1,0-0.2-0.1-0.3-0.1c0,0-0.1-0.1-0.1,0l0,0l0,0l0,0l0,0l0,0c0-0.1,0-0.1,0-0.1c0,0-0.1,0-0.1,0c0,0-0.1,0-0.1,0
				c0-0.1-0.1,0.1-0.1-0.1c-0.1,0-0.2,0-0.2,0c-0.1,0-0.1-0.1-0.2-0.1c-0.1,0-0.1,0-0.1,0c-0.1,0-0.1,0-0.2,0c-0.1,0-0.2,0-0.3-0.1
				c-0.1,0-0.2,0-0.3-0.1c0,0-0.1,0-0.1-0.1c0,0,0,0-0.1,0.1l0,0.1c-0.3,0.7-0.3,1.1-0.2,1c0.1,0,0.2,0,0.2,0c0,0,0.1,0,0.1,0
				c0.1,0,0.2,0,0.2,0.1c0,0,0,0.1,0.1,0c0,0,0.1,0,0.1,0c0.1,0.1,0.2,0,0.3,0.1c0.1,0,0.2,0,0.2,0.1c0,0,0,0,0,0c0,0,0.1,0,0.1,0
				c0.1,0,0.2,0.2,0.3,0.1c0.1,0,0.1,0,0.1,0c0,0,0,0.1,0,0.1c0.1-0.1,0.1,0,0.1,0c0.1,0,0.1,0.1,0.2,0.1c0,0,0.1,0,0.2,0.1
				c0.1,0.1,0.2,0.1,0.3,0.1c0,0,0,0,0.1-0.1C10.2,18.3,10.3,17.9,10.4,17.5z"/>
		</g>
		<g>
			<path d="M15.2,18.9C15.2,18.9,15.2,18.9,15.2,18.9L15.2,18.9z"/>
			<path d="M16.2,19.1c0-0.2,0-0.2,0-0.1C16.1,19,16.1,19,16.2,19.1c-0.1,0-0.2-0.1-0.3-0.1c-0.1,0-0.1-0.1-0.2-0.1
				c-0.1,0-0.2-0.1-0.3-0.1c0,0-0.1-0.1-0.1,0l0,0l0,0l0,0l0,0l0,0c0-0.1,0-0.1,0-0.1c0,0-0.1,0-0.1,0c0,0-0.1,0-0.1,0
				c0-0.1-0.1,0.1-0.1-0.1c-0.1,0-0.2,0-0.2,0c-0.1,0-0.2-0.1-0.2-0.1c-0.1,0-0.1,0-0.2,0c-0.1,0-0.1,0-0.2,0c-0.1,0-0.2,0-0.3,0
				c-0.1,0-0.2,0-0.3,0c0,0-0.1,0-0.1-0.1c0,0,0,0-0.1,0.1l0,0.1c-0.2,0.8-0.3,1.1-0.1,1c0.1,0,0.2,0,0.2,0c0,0,0.1,0,0.1,0
				c0.1,0,0.2,0,0.2,0.1c0,0,0.1,0.1,0.1,0c0,0,0.1,0,0.1,0c0.1,0.1,0.2,0,0.3,0.1c0.1,0,0.2,0,0.2,0.1c0,0,0,0,0,0c0,0,0.1,0,0.1,0
				c0.1,0,0.2,0.2,0.3,0.1c0.1,0,0.1,0,0.1,0c0,0,0,0.1,0,0.1c0-0.1,0.1,0,0.1,0c0.1,0,0.1,0.1,0.2,0.1c0.1,0,0.1,0,0.2,0
				c0.1,0.1,0.2,0.1,0.3,0.1c0,0,0,0,0.1-0.1C16,19.9,16.1,19.5,16.2,19.1z"/>
		</g>
		<g>
			<path d="M21,20.2C21.1,20.1,21,20.1,21,20.2L21,20.2z"/>
			<path d="M22,20.3c0-0.2,0-0.2,0-0.1C21.9,20.2,21.9,20.2,22,20.3c-0.1,0-0.2-0.1-0.3-0.1c-0.1,0-0.2-0.1-0.2-0.1
				c-0.1,0-0.2-0.1-0.3-0.1c0,0-0.1-0.1-0.1,0l0,0l0,0l0,0l0,0l0,0c0-0.1,0-0.1,0-0.1c0,0-0.1,0-0.1,0c0,0-0.1,0.1-0.1,0
				c0-0.1-0.1,0.1-0.1,0c-0.1,0-0.2,0-0.2,0c-0.1,0-0.2-0.1-0.2,0c-0.1,0-0.1,0-0.2,0c-0.1,0-0.1,0-0.2,0c-0.1,0-0.2,0-0.3,0
				c-0.1,0-0.2,0-0.3,0c0,0-0.1,0-0.1-0.1c0,0,0,0-0.1,0.1l0,0.1c-0.2,0.8-0.2,1.1,0,1c0.1-0.1,0.2,0,0.3,0c0,0,0.1,0,0.1,0
				c0.1,0,0.2,0,0.2,0c0,0,0.1,0.1,0.1,0c0-0.1,0.1,0,0.1,0c0.1,0.1,0.2,0,0.3,0.1c0.1,0,0.2,0,0.2,0.1c0,0,0,0,0,0c0,0,0.1,0,0.1,0
				c0.1,0,0.2,0.1,0.3,0.1c0,0,0.1,0,0.1,0c0,0,0,0.1,0,0.1c0-0.1,0.1,0,0.1,0c0.1,0,0.1,0.1,0.2,0.1c0.1,0,0.1,0,0.2,0
				c0.1,0.1,0.2,0.1,0.3,0.1c0,0,0,0,0.1-0.2C21.9,21.1,21.9,20.7,22,20.3z"/>
		</g>
		<g>
			<path d="M26.9,20.8C26.9,20.8,26.9,20.8,26.9,20.8L26.9,20.8z"/>
			<path d="M27.9,20.8c0-0.2,0-0.2,0-0.1C27.8,20.8,27.8,20.8,27.9,20.8c-0.1,0-0.2,0-0.3,0c-0.1,0-0.2,0-0.2,0
				c-0.1,0-0.2-0.1-0.3,0c0,0-0.1-0.1-0.1,0.1l0,0l0,0l0,0l0,0v0c0-0.1,0-0.1,0-0.1c0,0-0.1,0-0.1,0c0,0-0.1,0.1-0.1,0
				c0-0.1-0.1,0.1-0.1,0c-0.1,0-0.2,0-0.2,0c-0.1,0-0.2,0-0.2,0c-0.1,0-0.1,0-0.1,0c-0.1,0-0.1,0-0.2,0c-0.1,0-0.2,0-0.3,0
				c-0.1,0-0.2,0-0.3,0c0,0-0.1,0-0.1-0.1c0,0,0,0,0,0.2l0,0.1c-0.1,0.8-0.1,1.1,0.1,1c0.1-0.1,0.2,0,0.3,0c0,0,0.1,0,0.1,0
				c0.1,0,0.1-0.1,0.2,0c0,0,0.1,0.1,0.1,0c0-0.1,0.1,0,0.1,0c0.1,0.1,0.2,0,0.3,0c0.1,0,0.2,0,0.2,0.1c0,0,0,0,0,0c0,0,0.1,0,0.1,0
				c0.1,0,0.2,0.1,0.3,0c0,0,0.1,0,0.1,0c0,0,0,0.1,0,0.1c0-0.1,0.1,0,0.1,0c0.1,0,0.1,0,0.2,0.1c0.1,0,0.1,0,0.2,0
				c0.1,0.1,0.2,0.1,0.3,0c0,0,0-0.1,0-0.2C27.9,21.7,27.9,21.3,27.9,20.8z"/>
		</g>
		<g>
			<path d="M32.8,20.6C32.8,20.6,32.8,20.6,32.8,20.6L32.8,20.6z"/>
			<path d="M33.8,20.5c0-0.2-0.1-0.2-0.1-0.1C33.7,20.4,33.7,20.4,33.8,20.5c-0.1,0-0.2,0-0.3,0c-0.1,0-0.2,0-0.2,0
				c-0.1,0-0.2,0-0.3,0c0,0-0.1,0-0.1,0.1l0,0l0,0l0,0l0,0l0,0c0-0.1,0-0.1,0-0.1c0,0-0.1,0-0.1,0c0,0-0.1,0.1-0.1,0
				c0-0.1-0.1,0.1-0.1,0c-0.1,0-0.2,0-0.2,0.1c-0.1,0-0.2,0-0.2,0c0,0-0.1,0-0.1,0c-0.1,0-0.1,0-0.2,0.1c-0.1,0.1-0.2,0.1-0.3,0.1
				c-0.1,0-0.2,0.1-0.3,0.1c0,0-0.1,0-0.1,0c0,0,0,0,0,0.2l0,0.1c0,0.8,0.1,1.1,0.2,1c0.1-0.1,0.2,0,0.2-0.1c0,0,0.1,0,0.1,0
				c0.1,0,0.1-0.1,0.2,0c0,0,0.1,0.1,0.1,0c0-0.1,0.1-0.1,0.1,0c0.1,0,0.2-0.1,0.3,0c0.1,0,0.1-0.1,0.2,0c0,0,0,0,0,0
				c0,0,0.1,0,0.1,0c0.1-0.1,0.2,0.1,0.3,0c0,0,0.1,0,0.1,0c0,0,0,0.1,0.1,0.1c0-0.1,0.1,0,0.1,0c0.1,0,0.1,0,0.2,0
				c0.1,0,0.1,0,0.2,0c0.1,0,0.2,0,0.3,0c0,0,0-0.1,0-0.2C33.9,21.3,33.8,20.9,33.8,20.5z"/>
		</g>
		<g>
			<path d="M38.6,19.4C38.6,19.4,38.6,19.4,38.6,19.4L38.6,19.4z"/>
			<path d="M39.5,19.1C39.4,18.9,39.4,18.9,39.5,19.1C39.4,19,39.4,19.1,39.5,19.1c-0.1,0.1-0.2,0-0.3,0.1c-0.1,0-0.2,0-0.2,0
				c-0.1,0-0.2,0-0.3,0.1c0,0-0.1,0-0.1,0.1l0,0l0,0l0,0l0,0l0,0c0-0.1,0-0.1-0.1,0c0,0-0.1,0-0.1,0c0,0-0.1,0.1-0.1,0
				c-0.1-0.1,0,0.1-0.1,0c-0.1,0.1-0.2,0.1-0.2,0.1c-0.1,0-0.2,0-0.2,0.1c0,0-0.1,0-0.1,0.1c-0.1,0.1-0.1,0.1-0.2,0.1
				c-0.1,0.1-0.2,0.1-0.3,0.2C37,19.9,37,20,36.9,20c0,0-0.1,0-0.2,0c0,0,0,0,0,0.2l0,0.1c0.2,0.8,0.3,1.1,0.4,1
				c0.1-0.1,0.2-0.1,0.2-0.1c0,0,0.1,0,0.1-0.1c0.1,0,0.1-0.1,0.2-0.1c0,0,0.1,0,0.1,0c0-0.1,0-0.1,0.1-0.1c0.1,0,0.2-0.1,0.3-0.1
				c0.1,0,0.1-0.1,0.2,0c0,0,0,0,0,0c0,0,0.1,0,0.1-0.1c0.1-0.1,0.2,0,0.3-0.1c0,0,0.1,0,0.1,0c0,0,0.1,0.1,0.1,0.1
				c0-0.1,0.1,0,0.1,0c0.1,0,0.1,0,0.2,0c0.1,0,0.1-0.1,0.2-0.1c0.1,0,0.2,0,0.3-0.1c0,0,0-0.1,0-0.2C39.8,19.9,39.6,19.5,39.5,19.1
				z"/>
		</g>
		<g>
			<path d="M43.7,17.2C43.7,17.2,43.7,17.2,43.7,17.2L43.7,17.2z"/>
			<path d="M44.4,16.9C44.3,16.7,44.3,16.7,44.4,16.9C44.3,16.8,44.3,16.8,44.4,16.9c-0.1,0.1-0.2,0.1-0.2,0.1C44.1,17,44,17,44,17
				c-0.1,0-0.2,0-0.2,0.1c0,0-0.1,0-0.1,0.1l0,0l0,0l0,0l0,0l0,0c0-0.1,0,0-0.1,0c0,0-0.1,0-0.1,0c0,0,0,0.1-0.1,0
				c-0.1-0.1,0,0.1-0.1,0c0,0.1-0.1,0.1-0.2,0.1c-0.1,0-0.1,0-0.2,0.1c0,0-0.1,0-0.1,0.1c0,0.1-0.1,0.1-0.1,0.1
				c-0.1,0.1-0.1,0.1-0.2,0.2c-0.1,0-0.1,0.1-0.2,0.1c0,0-0.1,0-0.1,0c0,0,0,0,0,0.1l0,0.1c0.3,0.7,0.5,1,0.6,0.9
				c0-0.1,0.1-0.1,0.2-0.1c0,0,0.1-0.1,0.1-0.1c0.1,0,0.1-0.1,0.2-0.1c0,0,0.1,0,0.1,0c0-0.1,0-0.1,0.1-0.1c0.1,0,0.2-0.1,0.3-0.1
				c0.1,0,0.1-0.1,0.2,0c0,0,0,0,0,0c0,0,0.1,0,0.1-0.1c0.1-0.1,0.2,0,0.3-0.1c0,0,0.1,0,0.1-0.1c0,0,0.1,0.1,0.1,0.1
				c0-0.1,0.1,0,0.1,0c0,0,0.1,0,0.2,0c0,0,0.1-0.1,0.1-0.1c0.1,0,0.2,0,0.2-0.1c0,0,0-0.1-0.1-0.1C44.8,17.6,44.6,17.2,44.4,16.9z"
				/>
		</g>
	</g>
</g>
<g>
	<g>
		<g>
			<path d="M24.4,49.8c-0.1,0.4,0.1,0.8,0.3,1.1c0.1,0.2,0.2,0.4,0.4,0.5c0.3,0.3,0.8,0.3,1.2,0.3c0.2,0,0.4,0,0.6-0.1
				c0.4-0.2,0.6-0.6,0.8-0.9c0.1-0.2,0.2-0.5,0.2-0.7"/>
			<g>
				<g>
					<path class="st5" d="M27.7,49.9L27.7,49.9c0.4-0.1,0.4,0,0.4,0.3c0,0.1-0.1,0.3-0.1,0.4c-0.1,0.2-0.1,0.3-0.2,0.5
						c0,0.1-0.1,0.1-0.1,0.2c-0.1,0.2-0.2,0.3-0.3,0.4c-0.1,0.1-0.1,0.1-0.2,0.2C27,51.9,26.8,52,26.7,52c-0.2,0-0.3,0.1-0.5,0
						c-0.1,0-0.2,0-0.4,0c-0.1,0-0.1,0-0.2,0c-0.1,0-0.3-0.1-0.4-0.2c-0.2-0.1-0.4-0.2-0.5-0.4c-0.1-0.1-0.1-0.1-0.2-0.2
						c0-0.1,0-0.1-0.1-0.2c0-0.1-0.1-0.1-0.1-0.2c0-0.1-0.1-0.2-0.2-0.4c0-0.2-0.1-0.4-0.1-0.6c0-0.1,0.2-0.2,0.3-0.1
						c0.1,0,0.1,0,0.2,0.1c0,0.1,0,0.1,0,0.2c0,0.1,0.1,0.2,0.2,0.4c0.1,0.2,0.2,0.4,0.3,0.6c0.2,0.2,0.5,0.4,0.9,0.4
						c0.2,0,0.5,0,0.7-0.1c0.2-0.1,0.3-0.2,0.4-0.4c0.1-0.3,0.3-0.6,0.3-0.8c0,0,0-0.1,0-0.1c0,0,0,0,0.1,0L27.7,49.9z"/>
				</g>
			</g>
		</g>
		<g>
			<path d="M9.8,50.2c0.3-0.8,0.9-1.5,1.6-2.1c1.1-1.1,4.6-4.3,8.7-5.3c0.4-1.2-1-2.1-0.8-2.3c0.1-0.1,1-0.5,1.8-0.2
				c1.2,0.5,2.3,1.8,2.4,1.8c1.2,0,2.1-0.2,4.6-0.1c2.5,0.1,5.6,1.2,6.8,4.1c0.2,0.4,0.3,0.8,0.2,1.2c-0.1,0.4-0.6,0.7-1,0.9
				c-4.7,2.7-7.4,1.7-11.7,1.2c-3.1-0.4-6.4-0.6-9.3,0.6c-0.6,0.2-1.1,0.6-1.5,1c-0.4,0.5-0.6,1.2-0.3,1.8c0.1,0.3,0.3,0.5,0.4,0.8
				c0.3,0.7-1.6,2.3-2.4,2.4c0.4-1.6,0.4-2.8,0.2-4.5C7.8,50.8,6,51,4.9,52.1C5.4,48.9,7.9,49.1,9.8,50.2"/>
			<g>
				<g>
					<path class="st5" d="M9.6,49.9L9.6,49.9c-1-0.5-2.4-0.9-3.6-0.2c-0.4,0.3-0.7,0.7-1,1.1C5,51,4.9,51.1,4.8,51.5
						c-0.1,0.3-0.2,0.8-0.2,1c0.3-0.2,0.6-0.5,0.9-0.7c0.2-0.1,0.3-0.2,0.5-0.3c0.4-0.2,0.7-0.3,1.1-0.3c0.4,0,0.8,0,1.2,0
						c0.2,0,0.4,0.1,0.6,0.1c0.1,0,0.2,0.1,0.3,0.1c0,0,0,0,0,0.1c0.1,1,0.2,2.1,0,3.1l-0.1,0.4L9,55.6c-0.1,0.2-0.1,0.4-0.1,0.6
						c0.2-0.1,0.4-0.1,0.6-0.2c0.2-0.1,0.4-0.2,0.5-0.2c0.1-0.1,0.2-0.2,0.3-0.2c0.2-0.2,0.4-0.3,0.6-0.5c0.3-0.3,0.5-0.5,0.7-0.9
						c0.1-0.2,0.2-0.5,0-0.7c-0.1-0.2-0.2-0.3-0.3-0.5c-0.4-0.5-0.2-1.3,0.2-1.7l0,0l0.1-0.1l0,0c0.3-0.4,0.8-0.7,1.3-0.9
						c2.2-0.9,4.6-1,6.9-0.8c2.4,0.1,4.7,0.6,7.1,0.8c1.5,0.1,3.1-0.1,4.6-0.6c0.7-0.3,1.3-0.5,2-0.9c0.3-0.2,0.6-0.3,0.9-0.5
						c0.3-0.2,0.7-0.5,0.8-1c0.1-0.4,0-0.8-0.2-1.2c-0.2-0.3-0.3-0.7-0.5-1c-0.4-0.6-0.9-1.2-1.5-1.6l0,0c-0.2-0.2-0.5-0.4-0.7-0.5
						c-1.2-0.7-2.6-1.1-3.9-1.2c-1.3-0.1-2.7-0.1-4,0l-0.7,0c-0.2,0-0.1,0-0.1,0l-0.3-0.3c-0.3-0.3-0.7-0.7-1.1-1
						c-0.4-0.3-0.8-0.6-1.4-0.7c-0.3,0-0.5,0-0.8,0c-0.1,0-0.3,0.1-0.4,0.1c-0.1,0-0.1,0-0.2,0.1c-0.1,0-0.2,0.1-0.3,0.2
						c-0.1,0.1-0.1,0.3,0,0.5c0.2,0.4,0.4,0.5,0.5,0.8c0.1,0.2,0.3,0.5,0.3,0.7c0,0.1,0,0.3,0,0.3c0,0,0,0-0.2,0.1
						c-0.3,0.1-0.6,0.2-0.9,0.3c-1.1,0.4-2.2,0.9-3.2,1.6c-1.2,0.7-2.2,1.5-3.3,2.4c-0.5,0.4-1,0.9-1.4,1.4
						C10.4,48.7,10,49.3,9.6,49.9L9.6,49.9l0,0.2l0,0c0,0.3,0.3-0.3,0.7-0.6c0.2-0.2,0.6-0.6,1-1c0.3-0.4,0.7-0.7,1.1-1.1
						c1.3-1.1,2.6-2.1,4.1-2.9c0.6-0.4,1.3-0.7,2-1c0.3-0.1,0.7-0.3,1-0.4c0.2-0.1,0.3,0,0.6-0.2l0.1-0.2c0-0.1,0-0.1,0-0.2
						c0-0.1,0-0.2,0-0.3c0-0.4-0.2-0.7-0.4-1c-0.2-0.3-0.5-0.6-0.4-0.6c0,0,0.2-0.1,0.4-0.1c0.2,0,0.3-0.1,0.5-0.1
						c0.3,0,0.6,0.1,0.9,0.2c0.6,0.3,1.1,0.8,1.6,1.3c0.1,0.1,0.2,0.2,0.4,0.4c0.1,0,0.1,0.1,0.2,0l0.1,0l0.3,0l1.1-0.1
						c0.7-0.1,1.4-0.1,2.1,0c1.2,0,2.4,0.2,3.5,0.6c1.1,0.4,2.2,1,3,1.9c0.4,0.5,0.8,1,1,1.6c0.1,0.3,0.2,0.6,0.2,0.9
						c0,0.3-0.2,0.5-0.5,0.7c-1.1,0.7-2.3,1.3-3.6,1.7c-2,0.6-4,0.4-6.1,0.1c-1.2-0.2-2.3-0.3-3.5-0.5l0,0c-1.5-0.1-3.1-0.2-4.7-0.1
						c-1.2,0.1-2.5,0.3-3.7,0.8l0,0c-0.6,0.3-1.3,0.6-1.7,1.2c-0.4,0.6-0.6,1.4-0.2,2.1c0.2,0.3,0.4,0.6,0.3,0.7
						c-0.1,0.2-0.3,0.5-0.5,0.7c-0.2,0.2-0.4,0.4-0.7,0.6c-0.1,0.1-0.3,0.2-0.4,0.3l-0.2,0.1l0,0c0,0,0,0,0,0l0-0.2
						c0.1-0.3,0.1-0.7,0.1-1c0.1-0.7,0.1-1.3,0-2l0-0.5l-0.1-0.6C9.2,51.1,9.1,51.1,9,51C8.8,51,8.6,51,8.5,50.9
						c-0.7-0.1-1.4-0.1-2,0.1c-0.3,0.1-0.6,0.2-0.9,0.3c-0.1,0-0.1,0.1-0.2,0.1l-0.1,0l0,0c0,0,0,0,0,0c0,0,0,0,0-0.1l0.1-0.2
						c0.1-0.3,0.3-0.6,0.5-0.8c0.4-0.5,1.1-0.7,1.8-0.6c0.5,0,1,0.2,1.5,0.4C10,50.4,10,50.2,9.6,49.9z"/>
					<path class="st5" d="M21.1,49.1L21.1,49.1C21.1,49.1,21.1,49.1,21.1,49.1L21.1,49.1z"/>
				</g>
			</g>
		</g>
		<g>
			<path class="st3" d="M27.7,43.8c1.2-0.2,1.8,0.3,1.9,0.5c0.1,0.3-0.1,0.7-0.3,0.8s-0.6,0.2-0.9,0.2c-0.6,0.1-1.3,0-1.9-0.3
				c-0.1-0.1-0.2-0.2-0.3-0.3c-0.1-0.1,0-0.3,0-0.4C26.5,43.8,27.7,43.8,27.7,43.8z"/>
			<g>
				<g>
					<path class="st5" d="M28.5,45.5c-0.1,0-0.2,0-0.3,0c-0.4,0-0.9,0-1.4-0.1c0,0,0,0-0.1,0l0,0c-0.3-0.1-0.5-0.2-0.7-0.6
						c-0.2-0.5,0.2-0.8,0.5-1c0.3-0.2,0.6-0.2,0.9-0.2c0.1,0,0.3,0,0.3,0.1c0,0.1-0.1,0.2-0.2,0.2c-0.4,0-0.8,0.1-1,0.4
						c-0.1,0.1-0.1,0.2-0.1,0.3c0,0.1,0,0.1,0.1,0.2c0.2,0.1,0.5,0.3,0.7,0.3c0.5,0.1,1,0.1,1.5,0c0.5-0.1,0.8-0.4,0.8-0.7
						c0-0.1-0.1-0.2-0.3-0.3C29,44,28.8,44,28.7,43.9c-0.1,0-0.2,0-0.3,0l0,0c-0.1-0.1-0.2,0-0.3,0l0,0c0,0-0.1,0-0.1,0
						c-0.2,0-0.2,0-0.2-0.2c0,0,0-0.1,0-0.1l0,0l0,0c0.1-0.1,0.3-0.1,0.4-0.1c0.3,0,0.7,0,1,0.2c0.2,0.1,0.3,0.1,0.5,0.3
						c0.1,0.1,0.2,0.2,0.2,0.3c0,0.1,0,0.2,0,0.3c-0.1,0.5-0.6,0.8-1,0.9C28.8,45.5,28.7,45.5,28.5,45.5L28.5,45.5z"/>
				</g>
			</g>
		</g>
		<g>
			<path class="st3" d="M11.2,51c1.1-1.7,2.7-3.1,4.5-3.8c1.9-0.8,4-0.9,5.9-0.5c-0.1,0,4.4,1.7,6.6,0.7c0.6-0.3,1.2-0.6,1.8-1
				c1.2-0.8,3-0.5,3.8-0.1c0.3,0.2,0.7,0.4,0.9,0.7c0.1,0.1,0.1,0.3,0.1,0.4c0,0.1-0.1,0.1-0.2,0.2c-1.9,1.5-4.3,2.2-6.7,2.4
				s-4.7-0.6-7.1-0.9c-1-0.1-1.4-0.1-2.6-0.1c-0.6,0-1.2,0.2-1.8,0.2c-0.6,0.1-1.1,0.2-1.7,0.3C13.5,49.9,12.4,50.5,11.2,51"/>
			<g>
				<g>
					<path class="st5" d="M32.5,45.7c0.7,0.1,1.4,0.3,2.1,0.8c0.1,0.1,0.3,0.3,0.3,0.4c0.1,0.1,0.1,0.2,0.1,0.3c0,0.1,0,0.3-0.1,0.4
						c-0.1,0.1-0.1,0.2-0.2,0.3L34.6,48c-0.1,0.1-0.2,0.2-0.4,0.3c-0.2,0.2-0.5,0.3-0.8,0.5c-0.5,0.3-1.1,0.5-1.6,0.7
						c-1.1,0.4-2.3,0.7-3.4,0.8c-0.1,0-0.3,0-0.4,0l0,0c-1.6,0.1-3.2-0.2-4.8-0.5c-0.9-0.2-1.8-0.3-2.7-0.4c-0.9,0-1.8-0.1-2.7-0.1
						c-1.8,0.3-3.6,0.4-5.2,1.2c-0.5,0.2-1.4,0.7-1.4,0.5c-0.1-0.2,0.4-0.6,1.3-1c0.6-0.3,1.1-0.5,1.7-0.6c0.6-0.1,1.2-0.2,1.8-0.3
						c0.6-0.1,1.2-0.2,1.8-0.3c0.6,0,1.2,0,1.8,0c1.8,0,3.5,0.4,5.2,0.7c1.7,0.3,3.4,0.3,5.1-0.1c0.8-0.2,1.6-0.5,2.4-0.8
						c0.4-0.2,0.8-0.4,1.1-0.6c0.2-0.1,0.3-0.2,0.5-0.3c0.2-0.1,0.4-0.3,0.4-0.3c0.1,0-0.1-0.4-0.4-0.5c-0.3-0.2-0.6-0.3-0.9-0.4
						c-0.6-0.2-1.3-0.3-2-0.2c-0.3,0-0.7,0.1-0.9,0.3c-0.3,0.2-0.6,0.4-0.9,0.6c-0.3,0.2-0.7,0.4-1,0.5c-0.4,0.2-0.8,0.3-1.1,0.3
						c-1.5,0.2-3-0.2-4.5-0.6l-0.6-0.2l-0.3-0.1l-0.2-0.1l-0.1,0l0,0l0,0l0,0l0,0c0,0.1,0-0.1,0-0.1c0,0,0,0,0,0c0,0,0,0,0.1,0
						c0,0,0.1-0.1,0-0.1c-0.1-0.1-0.1,0-0.1,0L21.6,47c-2-0.5-4.1-0.3-6,0.5c-0.5,0.2-1.1,0.5-1.5,0.9l0,0c-0.6,0.3-1.1,0.9-1.6,1.3
						l0,0c-0.2,0.2-0.3,0.3-0.5,0.5c-0.6,0.8-0.8,1-0.8,0.6c0-0.1-0.1-0.1,0-0.3l0,0l0,0c0.3-0.7,0.9-1.3,1.5-1.9
						c2.4-2.2,5.8-3,8.9-2.3l-0.2,0.5c0,0,0,0-0.1-0.1c0,0-0.1-0.1,0-0.2c0.1-0.1,0.2-0.2,0.2-0.2c0.1,0,0.1,0,0.1,0l0,0l0,0l0,0
						l0,0l0.1,0l0.1,0l0.3,0.1l0.5,0.2c0.4,0.1,0.7,0.2,1.1,0.3c1.1,0.3,2.3,0.4,3.4,0.3c0.6-0.1,1-0.3,1.6-0.6
						c0.3-0.1,0.5-0.3,0.7-0.5c0.2-0.2,0.5-0.4,0.8-0.5C31.1,45.6,31.9,45.6,32.5,45.7L32.5,45.7z"/>
				</g>
			</g>
		</g>
		<g>
			<path d="M18.5,45.7c-0.3,1.3-1.1,3-1.8,4.1c-0.1,0.2-0.2,0.3-0.2,0.5c0,0.5,0.5,0.7,1,0.7c0.9,0,1.8-0.6,2.4-1.3
				c0.8-0.8,2.1-2.7,2.8-3.6"/>
			<g>
				<g>
					<path class="st5" d="M20.1,49.9c-0.2,0.2-0.3,0.3-0.5,0.4c-0.2,0.2-0.5,0.3-0.7,0.5c-0.2,0.1-0.4,0.2-0.6,0.3
						c-0.1,0-0.2,0.1-0.3,0.1c-0.3,0.1-0.6,0.1-0.9,0c-0.3-0.1-0.6-0.2-0.8-0.5c-0.2-0.3-0.1-0.7,0-0.9c0.1-0.2,0.3-0.4,0.4-0.7
						c0.2-0.3,0.3-0.6,0.5-1c0.1-0.3,0.3-0.6,0.4-1c0.1-0.2,0.1-0.4,0.2-0.6c0.1-0.2,0.2-0.4,0.2-0.7c0.1-0.2,0.1-0.2,0.3-0.2
						c0.1,0,0.1,0,0.2,0c0.1,0,0.1,0.1,0.1,0.2c-0.2,0.8-0.5,1.5-0.8,2.2c-0.2,0.5-0.4,1-0.7,1.5c-0.1,0.2-0.3,0.5-0.3,0.6
						c0,0.2,0,0.2,0.1,0.3c0.2,0.1,0.5,0.2,0.8,0.1c0.3-0.1,0.7-0.2,1-0.4c0.6-0.4,1.1-0.9,1.6-1.5c0.4-0.4,0.7-0.9,1.1-1.3
						c0.2-0.2,0.3-0.4,0.5-0.6l0.5-0.7c0.1-0.2,0.2-0.2,0.3-0.1c0.1,0,0.1,0.1,0.2,0.2c0,0,0,0.1,0,0.1l-0.4,0.5
						c-0.3,0.4-0.6,0.7-0.8,1.1c-0.1,0.2-0.2,0.3-0.3,0.4c-0.3,0.4-0.6,0.8-0.9,1.2C20.4,49.7,20.3,49.8,20.1,49.9z"/>
				</g>
			</g>
		</g>
	</g>
</g>
</svg>
