<?xml version="1.0" encoding="utf-8"?>
<!-- Generator: Adobe Illustrator 24.2.1, SVG Export Plug-In . SVG Version: 6.00 Build 0)  -->
<svg version="1.1" id="Layer_1" xmlns="http://www.w3.org/2000/svg" xmlns:xlink="http://www.w3.org/1999/xlink" x="0px" y="0px"
	 viewBox="0 0 259.7 469.9" style="enable-background:new 0 0 259.7 469.9;" xml:space="preserve">
<style type="text/css">
	.st0{fill:#EBEBEB;}
	.st1{fill:#191A16;}
	.st2{fill:#C5A547;}
	.st3{fill:#E62600;}
</style>
<g>
	<g>
		<path class="st0" d="M22.3,61.9c0,0-18.7,7.4-19,34.7c-0.3,27.2-1.5,154.3-0.5,189c1,34.7,3.9,106.3,4.4,116.1
			c0.5,9.8,2.3,26.2,21.3,39.5c19,13.4,55.8,25.9,100.3,25.9c44.5,0,91.5-12.1,109-29.8c14.6-14.9,13.6-20.5,13.9-38
			c0.3-17.5,5.4-108.1,5.6-132c0.3-23.9-1.8-153.6-1.8-166.1c0-12.6-5.9-26.7-19.3-37.7C229,66.1,200,81.2,128.8,81.2
			C57.5,81.2,22.3,61.9,22.3,61.9z"/>
		<path class="st1" d="M22.3,64.1c-0.8,0.4-1.6,0.9-2.3,1.4c-0.5,0.3-1,0.7-1.5,1.1c-0.5,0.4-1,0.7-1.4,1.2
			c-0.4,0.4-0.9,0.8-1.3,1.2l-1.3,1.3c-0.4,0.5-0.8,0.9-1.2,1.4l-0.6,0.7l-0.5,0.8c-2.8,4-4.8,8.6-5.8,13.5c-1,4.9-1.1,9.8-1.1,15.1
			l-0.1,15.6L5,179.7L4.9,242c0,10.4,0.2,20.8,0.3,31.1l0.1,7.8l0,3.9c0,1.2,0.1,2.6,0.1,3.9L6,304.3l2.4,62.3l1.2,31.2l0.1,3.8
			l0.1,1.9l0.2,1.9c0.2,2.5,0.6,4.9,1.2,7.3c1.1,4.8,3.1,9.3,5.8,13.4c2.7,4.1,6.2,7.7,10,10.8l2.9,2.2l3.3,2.1
			c1.1,0.7,2.2,1.3,3.2,1.9c1,0.6,2.2,1.2,3.3,1.8c2.2,1.2,4.5,2.3,6.8,3.4c1.2,0.5,2.3,1,3.5,1.5c1.2,0.5,2.3,1,3.5,1.4l3.6,1.4
			c1.2,0.4,2.4,0.8,3.6,1.2c2.4,0.9,4.9,1.6,7.3,2.3c9.8,2.9,19.9,4.9,30.1,6.3c10.2,1.4,20.5,2,30.7,2c10.3,0,20.6-0.7,30.8-1.9
			c10.2-1.2,20.4-3.1,30.3-5.6c9.9-2.5,19.7-5.7,28.8-10.2c4.5-2.2,8.9-4.7,12.8-7.8c0.5-0.4,1-0.8,1.4-1.2c0.5-0.4,0.9-0.8,1.4-1.2
			c0.4-0.4,0.9-0.9,1.3-1.2l1.3-1.4c0.9-0.9,1.7-1.9,2.6-2.8c0.8-0.9,1.6-1.9,2.4-2.9c1.5-2,2.8-4,3.9-6.1c1-2.1,1.7-4.4,2.1-6.7
			c0.8-4.7,0.6-9.9,0.7-15.1l0-1l0-1l0.1-1.9l0.2-3.9l0.3-7.8c0.2-5.2,0.4-10.4,0.7-15.6l3-62.3c0.6-10.4,0.9-20.7,1.3-31.1l0.3-7.8
			c0-2.5,0-5.2,0-7.8l-0.1-15.6l-0.5-62.4l-0.6-62.4l-0.1-15.6l0-1.9l0-1l0-0.9c0-0.6,0-1.3-0.1-1.9l-0.2-1.8
			c-0.3-2.5-0.8-4.9-1.5-7.3c-0.7-2.4-1.6-4.7-2.7-6.9c-1.1-2.2-2.4-4.4-3.8-6.5c-2.9-4.1-6.3-7.8-10.2-11l1.9,0.3l0,0l-1.5,0.6
			l-1.6,0.6l-3.2,1.3l-3.2,1.2l-3.3,1.2c-4.4,1.5-8.8,2.8-13.2,4l-3.3,0.9c-1.1,0.3-2.2,0.5-3.4,0.8c-2.2,0.5-4.5,1-6.7,1.4
			c-4.5,0.9-9,1.6-13.6,2.3c-4.5,0.6-9.1,1.2-13.6,1.6c-2.3,0.2-4.6,0.5-6.8,0.6l-6.9,0.5c-1.1,0.1-2.3,0.2-3.4,0.2l-3.4,0.1
			l-6.9,0.3c-4.6,0.1-9.1,0.1-13.7,0.2l-13.7-0.2l-6.9-0.3c-2.3-0.1-4.6-0.2-6.9-0.4c-4.6-0.4-9.1-0.7-13.7-1.3
			c-2.3-0.3-4.6-0.5-6.8-0.8l-6.8-1c-2.3-0.3-4.5-0.8-6.8-1.2c-2.3-0.4-4.5-0.8-6.8-1.3c-2.2-0.5-4.5-0.9-6.7-1.5
			c-2.2-0.6-4.5-1.1-6.7-1.7c-4.4-1.3-8.8-2.6-13.2-4.1c-2.2-0.8-4.3-1.6-6.5-2.5C26,65.8,24.2,65,22.3,64.1z M23.2,60.3
			c1.9,1,4,1.9,6,2.7c2.1,0.8,4.2,1.7,6.3,2.4c4.2,1.5,8.6,2.8,12.9,4.1c2.2,0.6,4.4,1.1,6.6,1.7c2.2,0.6,4.4,1,6.6,1.5
			c2.2,0.5,4.4,0.9,6.6,1.3c2.2,0.4,4.4,0.9,6.7,1.2l6.7,1c2.2,0.3,4.5,0.5,6.7,0.8c4.5,0.6,9,0.9,13.5,1.3c2.3,0.2,4.5,0.3,6.8,0.4
			l6.8,0.3l13.6,0.2c4.5-0.1,9.1-0.1,13.6-0.2l6.8-0.3l3.4-0.1c1.1,0,2.3-0.1,3.4-0.2l6.8-0.5c2.3-0.1,4.5-0.4,6.8-0.6
			c4.5-0.4,9-1,13.5-1.6c4.5-0.7,8.9-1.4,13.4-2.3c2.2-0.4,4.4-0.9,6.6-1.4c1.1-0.3,2.2-0.5,3.3-0.8l3.3-0.8
			c4.4-1.1,8.7-2.4,12.9-3.9l3.2-1.1l3.2-1.2l3.1-1.3l1.6-0.6l1.7-0.6l0,0c0.6-0.2,1.3-0.1,1.8,0.3l0,0c4.1,3.4,7.9,7.3,11,11.8
			c1.5,2.2,2.9,4.5,4.1,7c1.2,2.4,2.2,4.9,3,7.5c0.8,2.6,1.3,5.3,1.7,8l0.2,2.1c0.1,0.7,0.1,1.3,0.1,2l0,1l0,1l0,1.9l0.2,15.6
			l1,62.4l0.7,62.4l0.2,15.6c0,2.6,0.1,5.2,0.1,7.8l-0.2,7.8c-0.3,10.4-0.6,20.8-1.1,31.2l-1.4,31.2l-1.5,31.1
			c-0.3,5.2-0.4,10.4-0.6,15.6l-0.3,7.8l-0.1,3.9l-0.1,1.9l0,0.9l0,1c0,2.6,0,5.2-0.1,7.8c-0.1,2.7-0.2,5.4-0.7,8.1
			c-0.5,2.8-1.3,5.6-2.5,8.1c-1.2,2.6-2.8,4.9-4.4,7.1c-0.9,1-1.7,2.1-2.6,3.1c-0.9,1-1.8,2-2.7,3l-1.3,1.4c-0.5,0.5-1,1-1.5,1.5
			c-0.5,0.5-1,0.9-1.5,1.4c-0.5,0.4-1,0.9-1.6,1.3c-4.3,3.4-9,6-13.8,8.4c-9.6,4.7-19.7,7.9-29.9,10.6c-10.2,2.6-20.6,4.5-31,5.7
			c-10.4,1.3-20.9,2-31.4,2c-10.6,0-21-0.7-31.5-2.1c-10.4-1.4-20.8-3.5-30.9-6.5c-2.5-0.8-5.1-1.5-7.5-2.4
			c-1.2-0.4-2.5-0.8-3.7-1.3l-3.7-1.4c-1.2-0.5-2.5-1-3.7-1.5c-1.2-0.5-2.4-1-3.6-1.6c-2.4-1.1-4.8-2.2-7.1-3.5
			c-2.3-1.2-4.7-2.6-7-4l-3.3-2.2c0,0-0.2-0.1-0.3-0.2l-0.2-0.2l-0.4-0.3l-0.8-0.6l-1.6-1.2c-4.2-3.4-8.1-7.4-11.1-12
			c-3-4.6-5.3-9.7-6.5-15.1c-0.6-2.7-1.1-5.4-1.3-8l-0.2-2l-0.1-2L4.4,398l-1.2-31.2L1,304.5l-0.6-15.6c0-1.3-0.1-2.6-0.1-3.9l0-3.9
			l-0.1-7.8C0.1,262.8,0,252.4,0,242c0.1-20.8,0.1-41.6,0.3-62.4L1,117.3l0.2-15.6c0-5.1,0.1-10.6,1.3-15.9
			c2.3-10.6,8.7-20.7,19.1-25.6c0.5-0.2,1.1-0.2,1.6,0L23.2,60.3z"/>
	</g>
	<g>
		<path class="st0" d="M10.3,36.5c0-26.2,56.8-34.2,125.4-34.2c67.4,0,109.4,13.9,113.1,40.6c2.1,14.7-18,26-52.2,32.2
			c-34.2,6.3-86.1,10.7-122.3,2.8C38.1,70.1,10.4,63.9,10.3,36.5z"/>
		<path class="st1" d="M9,36.4c0,0,0-0.1,0-0.4c0-0.3,0-0.6,0.1-1.2c0-0.3,0.1-0.6,0.1-1c0.1-0.3,0.1-0.7,0.2-1.1
			c0.1-0.4,0.2-0.8,0.3-1.3c0.1-0.5,0.3-0.9,0.5-1.4c0.4-1,0.9-2.1,1.6-3.2c0.7-1.1,1.5-2.2,2.5-3.4c2-2.2,4.8-4.4,8-6.3
			c6.5-3.9,15.2-6.9,25.3-9.3c10.1-2.4,21.6-4.2,34.3-5.5c12.6-1.3,26.4-2,40.9-2.3c7.3-0.1,14.7-0.1,22.3,0
			c7.7,0.2,15.4,0.5,23.4,1.2c7.9,0.7,16,1.7,24,3.1c4,0.7,8.1,1.6,12.1,2.6c4,1,8.1,2.2,12,3.6c4,1.4,7.9,3.1,11.7,5.1
			c3.8,2,7.5,4.3,10.8,7.1c3.3,2.8,6.3,6.2,8.4,10.2c0.5,1,1,2,1.4,3.1c0.2,0.5,0.4,1,0.6,1.6l0.5,1.6c0.1,0.3,0.2,0.5,0.2,0.8
			l0.2,0.8l0.3,1.7c0,0.1,0,0.3,0,0.3l0,0.2l0,0.4c0,0.3,0.1,0.5,0.1,0.8c0,0.6,0,1.3,0,1.8c-0.2,2.4-0.9,4.7-2,6.7
			c-1.1,2.1-2.6,3.8-4.1,5.4c-3.2,3.2-6.9,5.5-10.8,7.5c-7.7,3.9-15.8,6.5-23.9,8.6c-4.1,1-8.1,1.9-12.2,2.7c-2,0.4-4.1,0.7-6.1,1.1
			c-2,0.4-4,0.7-6.1,1c-8.1,1.3-16.1,2.4-24,3.2c-7.9,0.8-15.7,1.5-23.3,1.9c-3.8,0.2-7.6,0.3-11.3,0.3c-3.7,0-7.4,0-11.1-0.1
			c-14.6-0.3-28.4-1.7-40.9-4.4c-12.3-2.8-23.7-5.4-33.5-8.7c-4.9-1.6-9.5-3.5-13.5-5.6c-4-2.1-7.5-4.6-10.2-7.3
			c-1.4-1.3-2.5-2.8-3.5-4.2c-0.5-0.7-0.9-1.4-1.3-2.1c-0.4-0.7-0.8-1.4-1.1-2.1c-1.3-2.7-1.9-5.2-2.2-7.3c-0.2-1-0.3-1.9-0.4-2.7
			C9,39.3,9,38.6,9,38.1C9,37,9,36.5,9,36.4C9,36.5,9,36.5,9,36.4L9,36.4z M11.7,36.5c0,0.1,0,0.6,0.1,1.5c0,0.5,0,1.1,0.1,1.8
			c0.1,0.7,0.2,1.6,0.3,2.5c0.3,1.9,0.9,4.1,2,6.6c0.3,0.6,0.6,1.2,1,1.9c0.4,0.6,0.8,1.2,1.2,1.9c0.9,1.2,2,2.5,3.2,3.8
			c2.5,2.5,5.8,4.7,9.6,6.7c3.8,2,8.3,3.7,13.1,5.2c9.7,3,21,5.4,33.4,7.9c12.2,2.4,25.8,3.5,40.2,3.5c3.6,0.1,7.2,0,10.9-0.1
			c3.7-0.1,7.4-0.3,11.2-0.4c7.5-0.3,15.3-0.8,23.1-1.5c7.8-0.7,15.8-1.7,23.8-2.8c2-0.3,4-0.6,6-0.9c2-0.3,4-0.7,6-1
			c4-0.7,8-1.5,12-2.5c7.9-1.9,15.9-4.4,23.2-8.1c3.6-1.9,7.1-4,9.9-6.8c1.4-1.4,2.6-2.9,3.5-4.5c0.9-1.7,1.5-3.4,1.6-5.3
			c0.1-0.5,0-0.9,0-1.3c0-0.2,0-0.5-0.1-0.8l0-0.4l0-0.2c0-0.1,0,0,0-0.1l-0.3-1.5l-0.1-0.7c-0.1-0.2-0.1-0.5-0.2-0.7l-0.4-1.4
			c-0.1-0.5-0.4-0.9-0.5-1.4c-0.3-0.9-0.8-1.8-1.2-2.7c-1.8-3.5-4.6-6.5-7.6-9.1c-6.2-5.2-13.7-8.7-21.4-11.3
			c-3.9-1.3-7.8-2.4-11.7-3.4c-4-0.9-7.9-1.7-11.9-2.4c-7.9-1.4-15.9-2.2-23.7-2.8c-7.8-0.6-15.5-0.9-23.1-1.1
			c-7.6-0.1-15-0.1-22.2,0c-7.2,0.1-14.2,0.3-21,0.6c-6.8,0.3-13.3,0.7-19.6,1.2c-12.5,1-24,2.5-33.9,4.7c-5,1.1-9.6,2.3-13.7,3.7
			c-4.1,1.4-7.8,3.1-10.9,4.9c-3.1,1.8-5.6,3.8-7.4,5.8c-0.9,1-1.6,2-2.2,3c-0.6,1-1,1.9-1.3,2.7c-0.6,1.7-0.8,3.1-0.9,4
			c-0.1,0.4,0,0.9-0.1,1.1C11.7,36.3,11.7,36.4,11.7,36.5z"/>
	</g>
	<path class="st1" d="M31.7,27.4c0,0,0,0-0.1,0.1c-0.1,0.1-0.2,0.1-0.4,0.2c-0.3,0.2-0.8,0.5-1.4,1c-0.6,0.5-1.3,1.1-1.7,1.9
		c-0.2,0.4-0.4,0.8-0.4,1.1c0,0.4,0.1,0.7,0.4,1.2c0.6,0.9,1.7,1.9,3.2,2.8c0.4,0.2,0.8,0.5,1.1,0.6c0.4,0.2,0.9,0.4,1.3,0.7
		c0.9,0.5,1.8,0.8,2.7,1.3c3.8,1.6,8.4,3.1,13.5,4.3c2.5,0.7,5.2,1.2,8,1.8c2.8,0.5,5.6,1.1,8.6,1.5c3,0.5,6,0.8,9.2,1.3
		c1.6,0.2,3.2,0.3,4.8,0.5c0.8,0.1,1.6,0.2,2.4,0.2c0.8,0.1,1.6,0.1,2.4,0.2c1.6,0.1,3.3,0.3,4.9,0.4c1.7,0.1,3.3,0.2,5,0.3
		c3.4,0.2,6.8,0.3,10.2,0.4c3.5,0.1,6.9,0.1,10.4,0.2c3.5,0,7,0,10.5-0.1c7-0.1,14-0.3,20.9-0.7c6.9-0.3,13.7-0.8,20.2-1.4
		c6.5-0.6,12.9-1.3,18.8-2.1c6-0.8,11.6-1.8,16.7-2.8c5.1-1.1,9.7-2.3,13.6-3.8c1.9-0.7,3.7-1.5,5.2-2.3c1.5-0.8,2.7-1.7,3.6-2.6
		c0.9-0.9,1.1-1.7,1.2-2.3c0.1-0.6,0.1-1.3,0-2c0-0.2-0.1-0.3-0.1-0.5c0-0.2-0.1-0.3-0.1-0.5c-0.1-0.3-0.1-0.5-0.2-0.8
		c-0.1-0.4-0.1-0.7-0.1-0.7l0-0.1c-0.1-0.4,0.3-0.9,0.7-0.9c0.1,0,0.2,0,0.4,0c0,0,0.2,0.1,0.7,0.3c0.1,0.1,0.2,0.1,0.4,0.2
		c0.1,0.1,0.3,0.2,0.4,0.3c0.3,0.2,0.6,0.5,0.9,0.9c0.6,0.8,1.3,2.1,1.3,3.9c0,1.8-1,3.6-2.3,4.9c-1.3,1.4-2.9,2.5-4.6,3.5
		c-1.8,1-3.7,1.8-5.8,2.6c-4.2,1.6-8.9,2.9-14.2,4c-5.2,1.1-10.9,2.1-17,3c-6,0.9-12.4,1.6-19,2.1c-6.6,0.6-13.5,1-20.4,1.3
		c-7,0.3-14,0.5-21.1,0.6c-3.5,0-7.1,0-10.6-0.1c-3.5-0.1-7-0.2-10.5-0.3c-3.5-0.2-6.9-0.3-10.3-0.6c-1.7-0.1-3.4-0.2-5.1-0.4
		c-1.7-0.2-3.3-0.3-5-0.5c-0.8-0.1-1.7-0.2-2.5-0.2c-0.8-0.1-1.6-0.2-2.4-0.3c-1.6-0.2-3.2-0.4-4.8-0.6c-3.2-0.5-6.3-0.8-9.3-1.4
		c-3-0.5-5.9-1.1-8.8-1.6c-2.8-0.6-5.5-1.2-8.1-1.9c-5.2-1.4-9.8-2.9-13.9-4.7c-1-0.5-2.1-0.9-2.9-1.4c-0.4-0.2-0.9-0.5-1.3-0.7
		c-0.5-0.3-0.9-0.5-1.3-0.8c-0.8-0.6-1.6-1.1-2.3-1.8c-0.7-0.7-1.4-1.4-1.8-2.3c-0.5-0.9-0.7-2-0.6-3c0.1-1,0.6-1.8,1-2.4
		c0.9-1.2,1.9-1.8,2.7-2.3c0.8-0.4,1.4-0.7,1.8-0.9c0.2-0.1,0.4-0.1,0.5-0.2c0.1,0,0.2-0.1,0.2-0.1c0.5-0.2,1.1,0.1,1.2,0.6
		C32.3,26.7,32.1,27.2,31.7,27.4L31.7,27.4z"/>
	<path class="st1" d="M34.3,37.6c0,0,0-0.1,0.1-0.3c0-0.2,0.2-0.4,0.4-0.7c0.2-0.3,0.5-0.6,0.8-0.8c0.3-0.3,0.7-0.5,1.2-0.8
		c0.9-0.6,2-1.3,3.3-2c0.6-0.4,1.3-0.7,2.1-1.1c0.7-0.4,1.5-0.8,2.3-1.1c0.8-0.4,1.7-0.8,2.6-1.2c0.9-0.4,1.8-0.7,2.8-1.1
		c0.9-0.4,2-0.7,3-1.1c1-0.3,2-0.7,3.1-1c2.1-0.6,4.3-1.3,6.6-1.8c1.1-0.3,2.3-0.5,3.4-0.8c1.2-0.3,2.3-0.4,3.5-0.7
		c1.2-0.2,2.3-0.4,3.5-0.6c1.2-0.2,2.3-0.3,3.5-0.5c1.1-0.2,2.3-0.3,3.4-0.5c1.1-0.2,2.2-0.2,3.3-0.3c1.1-0.1,2.2-0.2,3.2-0.3
		c1.1-0.1,2.1-0.2,3.1-0.2c2-0.1,3.9-0.2,5.7-0.2c0.9,0,1.7-0.1,2.5,0c0.8,0,1.6,0,2.3,0c1.4,0,2.7,0.1,3.7,0.1
		c2,0.1,3.2,0.1,3.2,0.1c0.6,0,1.1,0.6,1.1,1.2c0,0.6-0.5,1-1,1.1l0,0c0,0-1.2,0.1-3.2,0.2c-1,0.1-2.2,0.2-3.6,0.3
		c-0.7,0-1.5,0.1-2.2,0.1c-0.8,0-1.6,0.2-2.5,0.2c-1.7,0.2-3.6,0.3-5.6,0.5c-2,0.2-4,0.5-6.2,0.8c-1.1,0.1-2.2,0.2-3.3,0.4
		c-1.1,0.2-2.2,0.4-3.3,0.6c-1.1,0.2-2.2,0.4-3.4,0.6c-1.1,0.2-2.2,0.5-3.4,0.7c-1.1,0.3-2.2,0.5-3.3,0.8c-1.1,0.3-2.2,0.6-3.3,0.9
		c-1.1,0.3-2.2,0.6-3.2,0.9c-1,0.3-2.1,0.6-3.1,1c-1,0.3-2,0.7-3,1c-1,0.4-1.9,0.7-2.8,1.1c-0.9,0.4-1.8,0.7-2.6,1.1
		c-0.8,0.3-1.6,0.8-2.4,1.1c-0.8,0.4-1.5,0.7-2.2,1.1c-0.7,0.4-1.3,0.7-1.9,1c-1.2,0.7-2.2,1.3-3,1.8c-0.4,0.3-0.7,0.5-1,0.7
		c-0.3,0.2-0.6,0.3-0.8,0.4c-0.4,0.1-0.9,0.1-0.9,0.1c-1.4,0.1-2.5-1-2.6-2.3c0-0.1,0-0.3,0-0.4L34.3,37.6z"/>
	<path class="st1" d="M214.2,43c0,0-0.1-0.1-0.3-0.2c-0.2-0.1-0.5-0.4-0.9-0.7c-0.4-0.3-0.9-0.7-1.5-1c-0.6-0.4-1.2-0.8-2-1.3
		c-0.8-0.4-1.5-1-2.4-1.4c-0.4-0.2-0.9-0.5-1.3-0.8c-0.5-0.2-0.9-0.5-1.4-0.7c-1-0.5-2-1-3-1.5c-1-0.5-2.1-0.9-3.2-1.4
		c-1.1-0.4-2.2-0.9-3.3-1.3c-1.1-0.4-2.2-0.8-3.2-1.1c-1.1-0.3-2.1-0.6-3-1c-1-0.3-1.9-0.6-2.7-0.8c-1.7-0.6-3.1-1-4.1-1.3
		c-1-0.3-1.6-0.6-1.6-0.6l-0.1,0c-0.7-0.3-1-1.1-0.8-1.8c0.2-0.5,0.7-0.9,1.3-0.9c0,0,0.6,0,1.7,0c0.5,0,1.2,0.1,2,0.1
		c0.8,0,1.6,0.2,2.5,0.3c0.9,0.2,1.9,0.3,3,0.5c1,0.2,2.1,0.5,3.3,0.8c1.1,0.3,2.3,0.7,3.5,1c1.2,0.4,2.3,0.8,3.5,1.2
		c1.2,0.5,2.3,0.9,3.5,1.4c1.1,0.5,2.2,1,3.3,1.6c0.5,0.3,1,0.5,1.5,0.8c0.5,0.3,1,0.6,1.4,0.8c0.9,0.5,1.8,1.1,2.6,1.6
		c0.8,0.5,1.5,1,2.1,1.5c0.6,0.5,1.2,0.9,1.6,1.2c0.4,0.4,0.8,0.7,1,0.9c0.2,0.2,0.4,0.3,0.4,0.3c1,0.9,1,2.4,0.1,3.4
		C216.7,43.7,215.3,43.8,214.2,43L214.2,43z"/>
	<path class="st1" d="M69.6,36c0,0,0.1,0.1,0.2,0.2c0,0.1,0.1,0.2,0.2,0.3c0.1,0.1,0.2,0.1,0.2,0.2c0,0,0.1,0.1,0.1,0.1
		c0.1,0,0.1,0.1,0.2,0.1c0.2,0.1,0.3,0.2,0.5,0.3c0.2,0.1,0.4,0.3,0.6,0.4c0.2,0.1,0.5,0.3,0.7,0.5c0.5,0.3,1.1,0.7,1.8,1
		c0.7,0.3,1.5,0.5,2.4,0.7c1.8,0.4,3.8,0.7,6.1,0.8c2.2,0.1,4.7,0.1,7.3-0.1c2.6-0.2,5.4-0.4,8.3-0.7c2.9-0.2,5.8-0.5,8.7-1
		c1.4-0.2,2.8-0.6,3.8-1c0.1-0.1,0.2-0.1,0.3-0.2c0.1-0.1,0.2-0.1,0.2-0.1c0.1,0,0.1-0.1,0.1-0.1c0,0,0,0,0,0c0,0-0.1,0-0.1,0.1
		c-0.1,0.1-0.3,0.6-0.3,0.8c0,0.1,0,0.2,0,0.2c0,0,0,0-0.1,0c-0.1-0.2-0.6-0.6-1-0.9c-0.2-0.2-0.4-0.4-0.7-0.6
		c-0.1-0.1-0.2-0.2-0.4-0.4l-0.2-0.2l-0.1-0.1c0,0,0.2,0.1,0.1,0.1l0,0l-0.1,0c-0.6-0.5-1.2-1-1.7-1.5c-0.5-0.4-1.1-0.8-1.6-1.2
		c-2.3-1.6-4.9-2.7-7.6-3c-2.7-0.4-5.4-0.2-8,0.3c-1.3,0.2-2.5,0.5-3.7,0.7c-1.2,0.2-2.4,0.5-3.6,0.7c-2.3,0.3-4.3,0.6-6.1,1.1
		c-1.8,0.4-3.3,0.9-4.4,1.5c-1.1,0.5-2,1.1-2.1,1.4c-0.1,0.1,0,0.1,0,0C69.7,36.1,69.7,36.1,69.6,36L69.6,36z M67.7,37.1L67.7,37.1
		c0,0,0-0.1-0.1-0.2c0-0.1-0.1-0.2-0.1-0.5c-0.1-0.4,0.1-1.1,0.4-1.5c0.7-0.9,1.7-1.5,3-2.1c1.3-0.6,2.9-1.2,4.8-1.7
		c1.8-0.5,4-1,6.3-1.4c2.2-0.4,4.7-1,7.3-1.4c2.7-0.4,5.6-0.6,8.7-0.5c3,0.2,6.3,0.7,9.5,1.8c0.8,0.3,1.6,0.7,2.4,1
		c0.7,0.3,1.4,0.7,2.1,1l0.7,0.4c0.2,0.1,0.4,0.2,0.5,0.4c0.4,0.2,0.7,0.6,1.1,0.9c0.7,0.7,1.3,1.4,2,2.6c0.2,0.2,0.3,0.6,0.4,1
		c0.1,0.3,0.2,0.9,0.3,1.3c0,0.5,0,1.1-0.2,1.6c-0.2,0.5-0.4,1-0.7,1.4c-0.1,0.2-0.3,0.4-0.5,0.5c-0.1,0.1-0.3,0.3-0.4,0.4
		c-0.3,0.3-0.6,0.4-0.9,0.6c-0.3,0.2-0.5,0.3-0.8,0.4c-0.3,0.1-0.5,0.2-0.7,0.3c-1.9,0.6-3.5,0.7-5.1,0.9c-3.2,0.3-6.2,0.2-9.1,0.2
		c-2.9,0-5.7-0.1-8.4-0.1c-2.7,0-5.3-0.2-7.7-0.6c-2.4-0.3-4.5-0.8-6.4-1.4c-0.9-0.3-1.8-0.6-2.6-0.9c-0.8-0.3-1.6-0.6-2.2-0.8
		c-0.3-0.2-0.7-0.3-0.9-0.5c-0.3-0.2-0.5-0.4-0.8-0.6c-0.2-0.2-0.4-0.4-0.6-0.6c-0.1-0.1-0.2-0.2-0.3-0.3c-0.1-0.1-0.2-0.2-0.2-0.3
		c-0.1-0.2-0.3-0.4-0.4-0.5c-0.1-0.1-0.1-0.2-0.2-0.3C67.8,37.2,67.7,37.1,67.7,37.1L67.7,37.1z"/>
	<path class="st1" d="M121.4,29.6C121.4,29.6,121.4,29.6,121.4,29.6c0,0.1,0,0.1,0,0.1c0,0,0,0,0,0
		C121.4,29.7,121.4,29.7,121.4,29.6c0,0,0,0.3,0.2,0.6c0.3,0.7,0.9,1.8,1.9,3c1,1.2,2.3,2.7,4,3.9c0.9,0.5,1.9,1,2.8,1l0.2,0l0.2,0
		l0.5,0c0.3,0,0.7,0,1-0.1c0.7,0,1.4-0.1,2.1-0.1c5.7-0.4,12.3-0.9,19.4-1.6c3.5-0.4,7.2-0.7,10.9-1.2c1.8-0.2,3.7-0.5,5.5-0.8
		c0.9-0.2,1.8-0.3,2.7-0.5c0.9-0.2,1.8-0.4,2.5-0.7c0.2-0.1,0.3-0.1,0.4-0.2c0,0,0.1,0,0.1-0.1c0,0,0,0-0.1,0.1
		c0,0.1-0.2,0.3-0.3,0.7c0,0.4,0.1,0.7,0.2,0.9c0,0.1,0.1,0.1,0.1,0.1c0.1,0,0,0,0,0c0,0,0,0,0,0l-0.1,0c-0.1,0-0.3-0.1-0.4-0.2
		l-0.7-0.3l-1.3-0.6c-0.9-0.4-1.7-0.8-2.6-1.1c-0.9-0.3-1.7-0.7-2.6-1c-1.7-0.6-3.4-1.2-5.2-1.7c-0.9-0.3-1.7-0.6-2.6-0.8
		c-0.9-0.2-1.7-0.4-2.5-0.7c-3.4-0.8-6.7-1.3-9.8-1.2c-3.3,0.1-6.4,0.3-9.2,0.4c-2.8,0.1-5.4,0.3-7.7,0.5c-2.3,0.2-4.3,0.4-5.9,0.7
		c-1.6,0.3-2.8,0.6-3.5,0.8c-0.2,0.1-0.3,0.1-0.4,0.2c-0.1,0.1-0.1,0.1-0.1,0.1c-0.1,0,0.1,0,0-0.1c0,0,0-0.1,0-0.1L121.4,29.6z
		 M119.3,28.9c0,0,0-0.1,0.1-0.2c0.1-0.1,0.2-0.4,0.4-0.5c0.2-0.1,0.4-0.3,0.6-0.4c0.2-0.1,0.4-0.2,0.7-0.3c1-0.4,2.3-0.7,4-1
		c1.7-0.3,3.7-0.5,6-0.8c2.3-0.3,4.9-0.5,7.8-0.7c2.8-0.2,5.9-0.5,9.2-0.7c3.4-0.3,7.1,0.2,10.6,0.8c3.6,0.7,7.2,1.7,10.8,3
		c1.8,0.7,3.7,1.3,5.4,2.1l1.3,0.6l0.7,0.3c0.3,0.1,0.6,0.2,0.9,0.5l0.2,0.2c0.1,0.1,0.2,0.1,0.3,0.2c0.1,0.1,0.2,0.1,0.3,0.3
		c0.1,0.1,0.2,0.3,0.3,0.4c0.2,0.4,0.5,0.9,0.4,1.6c-0.1,0.6-0.4,1.1-0.6,1.3c-0.5,0.6-0.8,0.7-1.1,0.9c-0.3,0.2-0.6,0.3-0.9,0.4
		c-1.1,0.4-2.1,0.6-3,0.8c-1,0.2-1.9,0.4-2.9,0.5c-1.9,0.3-3.8,0.5-5.7,0.7c-3.8,0.4-7.5,0.6-11,0.9c-7.1,0.4-13.8,0.6-19.5,0.8
		c-1.5,0-2.8,0.1-4.2,0.1c-1.7-0.1-3-0.8-4.1-1.5c-1.1-0.7-1.9-1.5-2.7-2.3c-0.7-0.8-1.4-1.5-1.9-2.2c-1.1-1.4-1.7-2.6-2.1-3.6
		c-0.2-0.5-0.3-0.9-0.4-1.3c0-0.2,0-0.3,0-0.4c0-0.2,0-0.1,0-0.2c0-0.1,0-0.1,0-0.1L119.3,28.9z"/>
	<path class="st1" d="M142.6,33.1c0,0,0.1,0.1,0.2,0.3c0.1,0.1,0.3,0.3,0.6,0.4c0.6,0.3,1.8,0.6,3.3,0.6c1.5,0,3.3-0.2,5-0.6
		c0.9-0.2,1.7-0.5,2.5-1c0.2-0.1,0.3-0.2,0.4-0.3c0.1-0.1,0.1-0.2,0.1-0.1c0,0.1,0,0.1,0,0c-0.1-0.1-0.2-0.2-0.4-0.3
		c-0.4-0.2-0.8-0.4-1.3-0.5c-0.5-0.2-0.9-0.3-1.4-0.4c-0.9-0.3-1.9-0.5-2.8-0.6c-1.9-0.3-3.6-0.4-5.2-0.4c-1.5,0-2.8,0.2-3.5,0.5
		c-0.4,0.2-0.6,0.3-0.7,0.4c-0.1,0.1-0.1,0.2-0.1,0.2c0,0.2-0.2,0.4-0.4,0.4c-0.2,0-0.4-0.2-0.4-0.4c0,0,0,0,0,0l0,0c0,0,0,0,0-0.1
		c0-0.1,0.1-0.2,0.1-0.4c0.2-0.3,0.5-0.6,1-0.9c0.9-0.5,2.2-0.8,3.8-1c1.6-0.1,3.5-0.2,5.5,0.1c1,0.1,2,0.3,3,0.5
		c0.5,0.1,1,0.3,1.5,0.4c0.5,0.2,1,0.4,1.6,0.7c0.3,0.2,0.6,0.3,0.8,0.6c0.3,0.3,0.6,0.8,0.5,1.4c0,0.6-0.3,1-0.6,1.2
		c-0.2,0.3-0.5,0.5-0.8,0.6c-1,0.7-2,1-3.1,1.3c-2,0.4-3.9,0.6-5.5,0.5c-1.6-0.1-3-0.4-4-0.9c-0.5-0.3-0.8-0.5-1.1-0.8
		c-0.2-0.2-0.2-0.3-0.2-0.3c-0.2-0.3-0.2-0.8,0.2-1.1C141.8,32.7,142.3,32.8,142.6,33.1z"/>
	<g>
		<path class="st2" d="M255.8,130.5c-19.7,18.9-63.1,54.3-130.5,80.9c-62.4-20-122.1-74.3-122.1-74.3v-26.2
			c0,0,47.4,30.8,129.4,28.5c82-2.3,106.9-17.7,123-28.5L255.8,130.5z"/>
		<path class="st1" d="M257.1,131.9l-3.5,3.3c-1.2,1.1-2.4,2.2-3.6,3.3c-1.2,1.1-2.4,2.2-3.7,3.2c-1.2,1-2.4,2.1-3.7,3.2
			c-2.5,2.1-5,4.1-7.5,6.1l-3.8,3l-3.9,2.9c-2.6,2-5.2,3.8-7.8,5.7c-2.6,1.9-5.3,3.7-8,5.5c-2.6,1.9-5.4,3.6-8.1,5.3
			c-2.7,1.8-5.5,3.4-8.2,5.2c-1.4,0.8-2.7,1.7-4.1,2.5l-4.2,2.4l-4.2,2.4c-1.4,0.8-2.8,1.6-4.2,2.3l-4.3,2.3l-2.1,1.2l-2.2,1.1
			l-8.6,4.4l-8.7,4.2c-2.9,1.4-5.9,2.7-8.8,4c-3,1.3-5.9,2.7-8.9,3.8l-9,3.7l0,0c-0.4,0.2-0.9,0.2-1.3,0l-8.6-3l-2.1-0.8l-1.1-0.4
			l-1-0.4l-4.2-1.7l-4.2-1.7l-2.1-0.9l-2-1l-8.2-3.9c-1.4-0.6-2.7-1.4-4-2.1l-4-2.1l-4-2.1l-3.9-2.2c-2.6-1.5-5.2-3-7.8-4.5
			l-7.7-4.7c-1.3-0.8-2.5-1.6-3.8-2.4l-3.8-2.5l-3.8-2.5l-3.7-2.6c-2.5-1.7-5-3.4-7.4-5.2c-2.4-1.8-4.9-3.5-7.3-5.3
			c-2.4-1.8-4.8-3.6-7.2-5.5c-2.4-1.9-4.8-3.7-7.1-5.6l-3.5-2.8l-3.5-2.9c-2.3-1.9-4.6-3.9-6.9-5.9c-0.4-0.4-0.6-0.9-0.6-1.4v0
			v-26.2v0c0-1,0.8-1.9,1.8-1.9c0.4,0,0.7,0.1,1,0.3l0.1,0.1c1.1,0.6,2.3,1.3,3.5,1.9c1.2,0.6,2.4,1.2,3.6,1.8
			c1.2,0.6,2.4,1.2,3.7,1.7c1.2,0.5,2.4,1.1,3.7,1.6c2.5,1,5,2.1,7.5,3l3.8,1.4l3.8,1.3l3.8,1.3c1.3,0.4,2.6,0.8,3.9,1.2
			c2.6,0.8,5.2,1.6,7.8,2.2c2.6,0.7,5.2,1.4,7.8,2l7.9,1.7c0.7,0.1,1.3,0.3,2,0.4l2,0.3l4,0.7c2.7,0.5,5.3,1,8,1.3l8,1.1
			c1.3,0.2,2.7,0.3,4,0.4l4,0.3l4,0.4c1.3,0.1,2.7,0.3,4,0.3l8.1,0.3l4,0.2c1.3,0,2.7,0,4.1,0l8.1,0l2,0h1l1,0l4.1-0.2l8.2-0.3
			c2.7-0.1,5.4-0.3,8.1-0.5c2.7-0.2,5.4-0.3,8.1-0.5c5.4-0.5,10.8-0.9,16.2-1.5c5.4-0.6,10.7-1.4,16.1-2.2l8-1.4l7.9-1.7
			c2.6-0.6,5.2-1.3,7.8-2l3.8-1.2c1.3-0.4,2.6-0.8,3.8-1.2l3.8-1.3c1.3-0.4,2.5-1,3.7-1.5c1.2-0.5,2.5-1,3.7-1.6
			c1.2-0.6,2.4-1.1,3.6-1.7c4.8-2.4,9.4-5.1,14-8l0,0l0,0c0.9-0.6,2.1-0.3,2.7,0.5c0.2,0.3,0.3,0.7,0.3,1l0.2,19.6
			C257.7,131,257.5,131.6,257.1,131.9z M253.9,129.7l-0.2-18.8l3,1.6l0,0c-4.5,3.2-9.1,6.3-14,8.9c-1.2,0.7-2.5,1.3-3.7,1.9
			c-1.2,0.7-2.5,1.2-3.8,1.8c-1.3,0.6-2.5,1.2-3.8,1.7l-3.9,1.5c-1.3,0.5-2.6,0.9-3.9,1.4l-4,1.3c-2.7,0.8-5.3,1.6-8,2.3
			c-2.7,0.7-5.4,1.3-8.1,1.9l-8.1,1.6c-5.4,0.9-10.9,1.9-16.4,2.5c-5.5,0.8-10.9,1.2-16.4,1.8c-2.7,0.3-5.5,0.4-8.2,0.6
			c-2.7,0.2-5.5,0.4-8.2,0.5l-8.2,0.3l-4.1,0.2l-1,0l-1.1,0l-2.1,0l-8.3,0c-1.4,0-2.8,0-4.1,0l-4.1-0.2l-8.3-0.4
			c-1.4,0-2.8-0.2-4.1-0.3l-4.1-0.4l-4.1-0.4c-1.4-0.1-2.8-0.3-4.1-0.5l-8.2-1.2c-2.7-0.3-5.4-0.9-8.2-1.4l-4.1-0.8l-2-0.4
			c-0.7-0.1-1.3-0.3-2-0.5l-8.1-1.9c-2.7-0.7-5.3-1.5-8-2.2c-2.7-0.7-5.3-1.6-7.9-2.5c-1.3-0.4-2.6-0.9-3.9-1.3L32,127l-3.9-1.5
			l-3.8-1.6c-2.6-1-5.1-2.2-7.6-3.4c-1.3-0.6-2.5-1.2-3.7-1.8c-1.2-0.6-2.5-1.2-3.7-1.9c-1.2-0.7-2.4-1.3-3.6-2.1
			c-1.2-0.7-2.4-1.4-3.6-2.2l3-1.6v0v26.2l-0.6-1.4c2.2,2,4.5,3.9,6.7,5.8l3.4,2.9l3.5,2.8c2.3,1.9,4.7,3.7,7,5.6
			c2.3,1.8,4.8,3.6,7.1,5.4c2.4,1.8,4.8,3.5,7.2,5.3c2.4,1.8,4.9,3.4,7.3,5.1l3.7,2.5l3.7,2.5L58,176c1.2,0.8,2.5,1.6,3.8,2.4
			l7.6,4.7c2.6,1.5,5.2,3,7.7,4.5l3.9,2.2l4,2.1l4,2.1c1.3,0.7,2.6,1.4,4,2l8.1,3.8l2,1l2.1,0.9l4.1,1.7l4.1,1.7l1,0.4l1,0.4
			l2.1,0.7l8.4,3l-1.3,0l8.9-3.7c3-1.2,5.9-2.5,8.8-3.8c2.9-1.3,5.9-2.6,8.8-4l8.7-4.2l8.6-4.4l2.1-1.1l2.1-1.2l4.2-2.3
			c1.4-0.8,2.8-1.5,4.2-2.3l4.2-2.4l4.2-2.4c1.4-0.8,2.7-1.7,4.1-2.5c2.7-1.7,5.5-3.3,8.1-5.1c2.7-1.8,5.4-3.5,8-5.3
			c2.6-1.8,5.3-3.6,7.9-5.5c2.6-1.9,5.2-3.7,7.7-5.7l3.8-2.9l3.8-3c2.5-2,5-4,7.4-6.1c1.2-1,2.4-2.1,3.6-3.1c1.2-1,2.4-2.1,3.6-3.2
			c1.2-1.1,2.4-2.1,3.5-3.2L253.9,129.7z"/>
	</g>
	<g>
		<path class="st3" d="M125.3,211.4c-62.4-20-122.1-74.3-122.1-74.3l-0.2,0.4c-0.4,49-0.9,122.9-0.1,148.1
			c0.8,27.5,2.8,78.3,3.8,103l0,0c0,0,49.6,32.7,123.3,31.6s98.4-12.4,122-29.7c1.1-28.8,5.1-102,5.4-123.1
			c0.2-17.7-0.9-93.7-1.5-136.9C236.1,149.4,192.7,184.8,125.3,211.4z"/>
		<path class="st1" d="M124.4,213.9l-8.5-3.1l-2.1-0.8l-1.1-0.4l-1.1-0.4l-4.2-1.8l-4.2-1.8l-2.1-0.9l-2-1l-8.2-3.9
			c-1.4-0.6-2.7-1.4-4-2.1l-4-2.1l-4-2.1l-3.9-2.3c-2.6-1.5-5.2-3-7.8-4.6l-7.7-4.8c-1.3-0.8-2.5-1.6-3.8-2.5L52,177l-3.8-2.5
			l-3.7-2.6c-2.5-1.7-5-3.4-7.4-5.2c-2.4-1.8-4.9-3.5-7.3-5.4c-2.4-1.8-4.8-3.6-7.2-5.5c-2.4-1.9-4.7-3.7-7.1-5.6l-3.5-2.9l-3.5-2.9
			c-2.3-2-4.6-3.9-6.8-6h0l3-0.5l-0.2,0.4v0l0.2-0.9l-0.2,31.4l-0.2,31.4L4.4,216l0,15.7l0,15.7c0,5.2,0,10.5,0.1,15.7l0.2,15.7
			c0,2.6,0,5.2,0.1,7.8l0.3,7.8l1.1,31.4l2.2,62.8L7.7,387l0,0c1.1,0.7,2.2,1.3,3.4,2c1.1,0.6,2.3,1.3,3.5,1.9
			c2.3,1.3,4.7,2.4,7.1,3.5c4.8,2.2,9.7,4.3,14.6,6.2c4.9,1.9,9.9,3.6,15,5.3l7.6,2.3c2.6,0.7,5.1,1.3,7.7,2
			c2.6,0.7,5.2,1.2,7.7,1.7l3.9,0.8l1.9,0.4l2,0.3l7.8,1.3c0.7,0.1,1.3,0.2,2,0.3l2,0.2l3.9,0.5l3.9,0.5l2,0.2l2,0.1l7.9,0.5l2,0.1
			l1,0.1l1,0l4,0l7.9,0.1l8-0.2c2.7-0.1,5.4-0.1,8-0.2l8-0.4c2.7-0.1,5.3-0.3,8-0.5c2.7-0.2,5.3-0.3,7.9-0.6
			c2.6-0.3,5.3-0.5,7.9-0.8l7.9-1c2.6-0.4,5.2-0.8,7.8-1.2c1.3-0.2,2.6-0.5,3.9-0.7l3.9-0.8c1.3-0.2,2.6-0.6,3.8-0.9l3.8-0.9
			c1.3-0.3,2.5-0.7,3.8-1.1c1.3-0.4,2.5-0.7,3.8-1.1l3.7-1.3l1.9-0.7l1.8-0.7l3.6-1.5l3.6-1.7l1.8-0.8l1.7-0.9
			c1.2-0.6,2.3-1.2,3.5-1.9c2.3-1.3,4.5-2.6,6.7-4.1c2.2-1.4,4.4-2.9,6.6-4.4l-0.8,1.5l0,0l3.2-65l1.4-32.5
			c0.2-5.4,0.3-10.8,0.5-16.2l0.2-8.1l0-1l0-0.3l0-0.2l0-0.5l0-2l-0.1-4.1l-1-65c-0.2-10.8-0.4-21.7-0.5-32.5
			c-0.1-10.8-0.1-21.7,0.2-32.5l3.3,1.4l0,0l-3.5,3.3c-1.2,1.1-2.4,2.2-3.6,3.3c-1.2,1.1-2.4,2.2-3.6,3.2c-1.2,1.1-2.4,2.1-3.7,3.2
			c-2.5,2.1-5,4.2-7.5,6.2l-3.8,3l-3.9,2.9c-2.6,2-5.2,3.9-7.8,5.8c-2.6,1.9-5.3,3.7-7.9,5.6c-2.6,1.9-5.4,3.6-8.1,5.4
			c-2.7,1.8-5.5,3.5-8.2,5.2c-1.4,0.8-2.7,1.7-4.1,2.5l-4.2,2.5l-4.2,2.5c-1.4,0.8-2.8,1.6-4.2,2.4l-4.2,2.4l-2.1,1.2l-2.2,1.1
			l-8.6,4.5l-8.7,4.2c-2.9,1.5-5.9,2.7-8.8,4.1c-2.9,1.3-5.9,2.7-8.9,3.9l-9,3.7C125.7,214.2,125,214.2,124.4,213.9L124.4,213.9z
			 M125.2,208.5l8-3.2c3-1.2,5.9-2.5,8.8-3.8c2.9-1.3,5.9-2.5,8.8-3.9l8.7-4.1l8.6-4.3l2.1-1.1l2.1-1.1l4.2-2.3
			c1.4-0.8,2.8-1.5,4.2-2.3l4.2-2.4l4.2-2.4c1.4-0.8,2.7-1.7,4.1-2.5c2.7-1.7,5.5-3.3,8.2-5.1c2.7-1.8,5.4-3.4,8-5.3
			c2.6-1.8,5.3-3.6,7.9-5.4c2.6-1.9,5.2-3.7,7.8-5.6l3.8-2.9l3.8-3c2.5-2,5-4,7.5-6c1.2-1,2.4-2.1,3.7-3.1c1.2-1,2.4-2.1,3.6-3.1
			c1.2-1.1,2.4-2.1,3.6-3.2l3.5-3.3l0,0c0.7-0.7,1.9-0.8,2.7,0c0.4,0.3,0.5,0.8,0.6,1.3l0,0.1c0.6,10.8,0.8,21.7,1,32.5
			c0.2,10.8,0.2,21.7,0.4,32.5c0,5.4,0.1,10.8,0.1,16.3l0,16.3l0,32.5l0,4.1l0,2l0,0.5l0,0.3l0,0.3l0,1l-0.3,8.1
			c-0.2,5.4-0.4,10.9-0.6,16.3l-1.5,32.5l-1.5,32.5c-0.5,10.8-0.9,21.6-1.3,32.5l0,0c0,0.6-0.3,1.1-0.7,1.4l0,0
			c-4.3,3.3-8.8,6.4-13.4,9.2c-1.2,0.7-2.4,1.3-3.5,2l-1.8,1l-1.8,0.9l-3.7,1.8l-3.8,1.6l-1.9,0.8l-1.9,0.7l-3.8,1.4
			c-1.3,0.4-2.6,0.8-3.9,1.2c-1.3,0.4-2.6,0.8-3.9,1.2l-3.9,1c-1.3,0.3-2.6,0.7-4,1l-4,0.9c-1.3,0.3-2.6,0.6-4,0.8
			c-2.7,0.5-5.3,1-8,1.4l-8,1.1c-2.7,0.3-5.4,0.6-8,0.9c-2.7,0.3-5.4,0.5-8,0.7l-4,0.3c-1.3,0.1-2.7,0.2-4,0.2l-8.1,0.4
			c-2.7,0.2-5.4,0.2-8,0.3c-2.7,0.1-5.3,0.2-8.1,0.2l-8.1-0.1l-4.1-0.1l-1,0l-1-0.1l-2-0.1l-8.1-0.6l-2-0.1l-2-0.2l-4-0.5l-4-0.5
			l-2-0.2c-0.7-0.1-1.3-0.2-2-0.3l-8-1.4l-2-0.3l-2-0.4l-4-0.9c-2.6-0.6-5.3-1.1-7.9-1.9c-2.6-0.7-5.2-1.4-7.8-2.1l-7.7-2.4
			c-5.1-1.7-10.2-3.6-15.2-5.6c-5-2-9.9-4.3-14.8-6.7c-4.8-2.5-9.5-5-14.2-8l0,0c-0.5-0.3-0.8-0.9-0.9-1.5l0,0l-2.4-62.7l-1.2-31.4
			l-0.3-7.8c-0.1-2.6-0.1-5.2-0.1-7.9l-0.2-15.7c-0.1-5.2,0-10.5-0.1-15.7l0-15.7l0-15.7l0.1-15.7l0.2-31.4L1,137.5
			c0-0.3,0.1-0.6,0.2-0.9v0l0.2-0.4c0.5-0.9,1.7-1.3,2.6-0.8c0.1,0.1,0.3,0.2,0.4,0.3l0,0h0c2.2,1.9,4.5,3.9,6.8,5.8l3.5,2.8
			l3.5,2.8c2.3,1.9,4.7,3.7,7.1,5.5c2.4,1.8,4.8,3.6,7.2,5.4c2.4,1.8,4.8,3.5,7.3,5.2c2.4,1.8,4.9,3.4,7.4,5.1l3.7,2.5l3.8,2.4
			l3.8,2.4c1.2,0.8,2.5,1.6,3.8,2.4l7.6,4.6c2.6,1.5,5.2,2.9,7.8,4.4l3.9,2.2l4,2.1l4,2.1c1.3,0.7,2.6,1.4,4,2l8.1,3.8l2,0.9l2,0.8
			l4.1,1.7l4.1,1.7l1,0.4l1.1,0.4l2.1,0.7L125.2,208.5z"/>
	</g>
	<g>
		<path class="st3" d="M145.6,176.1c0,10.7-8.6,19.4-19.1,19.4c-10.6,0-19.1-8.7-19.1-19.4c0-10.7,8.6-19.4,19.1-19.4
			C137,156.7,145.6,165.4,145.6,176.1z"/>
		<path class="st1" d="M147.2,176.2c0,0,0,0.5-0.1,1.4c0,0.2,0,0.5-0.1,0.8c0,0.3-0.1,0.6-0.1,1c-0.1,0.4-0.1,0.7-0.2,1.1
			c-0.1,0.4-0.2,0.8-0.3,1.2c-0.5,1.7-1.2,3.8-2.6,5.9c-1.4,2.1-3.3,4.2-5.8,5.9c-2.5,1.7-5.7,3-9.2,3.4c-0.4,0.1-0.9,0.1-1.3,0.1
			l-0.7,0l-0.3,0l-0.1,0l0,0l-0.1,0l-0.2,0c-0.8-0.1-1.6,0-2.6-0.2c-1.9-0.2-3.6-0.8-5.4-1.6c-1.8-0.8-3.4-1.9-4.9-3.1
			c-1.5-1.3-2.8-2.8-3.9-4.4c-1.1-1.7-1.9-3.5-2.5-5.5c-0.3-1-0.5-2-0.6-3c-0.1-0.5-0.2-1-0.2-1.5l-0.1-1.6c0.1-1,0-1.8,0.2-2.9
			c0.1-0.5,0.1-1.1,0.2-1.5l0.4-1.5c0.6-1.9,1.4-3.8,2.4-5.5c1.1-1.7,2.4-3.3,3.8-4.6c1.5-1.3,3.1-2.4,4.9-3.3
			c1.8-0.8,3.6-1.4,5.5-1.7c0.9-0.2,1.9-0.2,2.8-0.3l0.2,0l0.1,0l0,0c0,0,0.2,0,0.1,0l0.3,0l0.6,0c0.4,0,0.8,0,1.3,0.1
			c0.9,0.1,1.9,0.2,2.7,0.5c0.4,0.1,0.8,0.2,1.3,0.3c0.4,0.1,0.8,0.3,1.2,0.4c1.6,0.6,3,1.4,4.3,2.3c2.5,1.8,4.4,4,5.8,6.1
			c1.3,2.1,2.1,4.2,2.5,5.9c0.1,0.4,0.2,0.8,0.3,1.2c0.1,0.4,0.1,0.8,0.2,1.1c0,0.3,0.1,0.7,0.1,1c0,0.3,0,0.6,0,0.8
			C147.2,175.6,147.2,176.1,147.2,176.2L147.2,176.2z M144,176.1c0,0,0-0.4-0.1-1.2c0-0.2,0-0.4,0-0.7c0-0.2-0.1-0.5-0.1-0.8
			c-0.1-0.3-0.1-0.6-0.2-0.9c-0.1-0.3-0.2-0.7-0.3-1c-0.4-1.4-1.1-3.2-2.3-4.9c-1.2-1.7-2.8-3.5-4.9-4.9c-0.6-0.3-1.1-0.7-1.7-1
			c-0.6-0.3-1.2-0.6-1.9-0.8c-0.3-0.1-0.6-0.2-1-0.4c-0.3-0.1-0.7-0.2-1-0.3c-0.7-0.2-1.4-0.2-2-0.4c-0.3-0.1-0.8-0.1-1.2-0.1
			l-0.6,0l-0.3,0c-0.1,0,0.1,0,0.1,0l0,0l-0.1,0l-0.1,0c-0.7,0-1.5,0-2.3,0.2c-1.5,0.2-3,0.6-4.5,1.3c-1.5,0.6-2.9,1.5-4.2,2.5
			c-1.3,1-2.4,2.3-3.4,3.7c-1,1.4-1.7,3-2.3,4.6l-0.3,1.3c-0.1,0.4-0.1,0.8-0.2,1.2c-0.2,0.8-0.2,1.8-0.2,2.7c0-0.1,0,0,0,0l0,0
			l0,0.1l0,0.2l0,0.3l0,0.7c0,0.4,0.1,0.9,0.1,1.3c0.1,0.9,0.3,1.7,0.5,2.6c0.5,1.7,1.2,3.3,2.2,4.7c1,1.4,2.1,2.7,3.4,3.8
			c1.3,1.1,2.7,2,4.2,2.7c0.4,0.2,0.8,0.3,1.1,0.5c0.4,0.1,0.8,0.3,1.1,0.4c0.4,0.1,0.8,0.2,1.2,0.3c0.4,0.1,0.8,0.1,1.1,0.2
			c0.7,0.2,1.6,0.2,2.4,0.2l0.2,0l0.1,0l0,0c0,0-0.1,0,0,0l0.3,0l0.6,0c0.4,0,0.8,0,1.1-0.1c3-0.4,5.7-1.5,7.8-3
			c2.1-1.5,3.8-3.3,4.9-5.1c1.2-1.8,1.8-3.5,2.2-5c0.1-0.4,0.2-0.7,0.3-1c0.1-0.3,0.1-0.6,0.1-0.9c0-0.3,0.1-0.5,0.1-0.8
			c0-0.2,0-0.5,0-0.7C144,176.5,144,176,144,176.1L144,176.1z"/>
	</g>
	<g>
		<path class="st0" d="M29.8,214.5c0,0,42.8,13.9,97.7,12.7c54.9-1.2,106.5-18.9,106.5-18.9s0.4,64.7-3.5,119.4
			c-27,8.9-126.3,30.4-200.7,0C29.8,274.9,29.8,214.5,29.8,214.5z"/>
		<path class="st1" d="M30.3,212.6c2,0.6,4.1,1.1,6.2,1.6c2.1,0.5,4.2,1,6.3,1.5c2.1,0.4,4.2,0.9,6.3,1.3l3.2,0.6l3.2,0.6l3.2,0.6
			l3.2,0.5c2.1,0.3,4.2,0.7,6.4,1c4.2,0.6,8.5,1.1,12.7,1.7c4.3,0.4,8.5,0.9,12.8,1.2c4.3,0.4,8.5,0.5,12.8,0.8
			c2.1,0.1,4.3,0.1,6.4,0.2c2.1,0,4.3,0.1,6.4,0.1l6.4,0l1.6,0l1.6-0.1l3.2-0.1c2.2-0.1,4.3-0.1,6.5-0.3l6.4-0.5
			c2.1-0.1,4.2-0.4,6.4-0.6l6.4-0.6c4.2-0.6,8.5-1,12.7-1.7c2.1-0.3,4.2-0.6,6.4-1l6.3-1.1c2.1-0.3,4.2-0.8,6.3-1.2
			c2.1-0.4,4.2-0.8,6.3-1.2c4.2-0.8,8.4-1.8,12.6-2.7l6.3-1.5c2.1-0.5,4.2-1,6.2-1.6c2.1-0.5,4.2-1.1,6.2-1.7
			c2.1-0.6,4.1-1.2,6.2-1.8l0,0l0.2,0c1-0.3,2,0.3,2.3,1.3c0.1,0.2,0.1,0.4,0.1,0.6l-0.5,15l-0.4,14.9l-0.7,29.9l-0.4,14.9
			c0,2.5-0.1,5-0.2,7.5l-0.2,7.5l-0.2,7.5c-0.1,2.5-0.2,5-0.3,7.5c-0.2,5-0.4,10-0.5,15v0c0,0.8-0.6,1.4-1.3,1.7l0,0
			c-4.1,1.3-8.2,2.5-12.4,3.6c-4.1,1.1-8.3,2.1-12.5,3c-4.2,0.9-8.4,1.7-12.6,2.5l-6.3,1.1l-6.3,1l-6.3,0.9l-6.4,0.8l-6.4,0.7
			l-6.4,0.6c-4.3,0.4-8.5,0.7-12.8,1c-2.1,0.2-4.3,0.2-6.4,0.3c-2.1,0.1-4.3,0.2-6.4,0.2c-2.1,0.1-4.3,0.1-6.4,0.1
			c-2.1,0-4.3,0-6.4,0c-2.1,0-4.3-0.1-6.4-0.1l-6.4-0.3c-4.3-0.3-8.5-0.5-12.8-1l-3.2-0.3l-3.2-0.4c-2.1-0.3-4.3-0.5-6.4-0.8
			c-2.1-0.3-4.2-0.6-6.4-1l-6.3-1.2c-4.2-0.9-8.4-1.8-12.5-2.9c-1-0.3-2.1-0.5-3.1-0.8l-3.1-0.9c-2.1-0.6-4.1-1.2-6.1-1.9l-3.1-1
			c-1-0.3-2-0.7-3-1.1l-6-2.3l0,0l-0.1,0c-0.7-0.3-1.2-1-1.1-1.8c0.2-4.7,0.2-9.4,0.3-14.2c0.1-4.7,0.1-9.4,0.2-14.2
			c0.1-4.7,0.1-9.4,0.1-14.2l0.1-14.2v-14.2c0-4.7-0.1-9.4-0.1-14.2l-0.2-14.2c0-2.4-0.1-4.7-0.2-7.1c-0.1-2.4-0.1-4.7-0.2-7.1
			c0-1,0.8-1.9,1.8-1.9c0.2,0,0.4,0,0.6,0.1L30.3,212.6z M31.6,217.1c-0.1,1.5-0.1,3-0.1,4.5c-0.1,2.4-0.2,4.7-0.2,7.1L31,242.8
			c0,4.7-0.1,9.4-0.1,14.2v14.2l0.1,14.2c0,4.7,0.1,9.4,0.1,14.2c0.1,4.7,0.1,9.4,0.2,14.2c0.1,4.7,0.2,9.4,0.3,14.2l-1.2-1.8l0,0
			l5.9,2.2c1,0.4,2,0.7,3,1l3,1c2,0.7,4,1.3,6,1.8l3,0.9c1,0.3,2,0.5,3.1,0.8c4.1,1.1,8.2,1.9,12.3,2.8l6.2,1.1
			c2.1,0.4,4.2,0.6,6.3,1c2.1,0.3,4.2,0.5,6.3,0.8l3.1,0.4l3.2,0.3c4.2,0.4,8.4,0.7,12.6,0.9l6.3,0.3c2.1,0.1,4.2,0.1,6.3,0.1
			c2.1,0.1,4.2,0,6.3,0c2.1,0,4.2-0.1,6.3-0.1c2.1,0,4.2-0.1,6.3-0.2c2.1-0.1,4.2-0.2,6.3-0.3c4.2-0.2,8.4-0.6,12.7-0.9l6.3-0.6
			l6.3-0.7l6.3-0.8l6.3-0.9l6.3-1l6.3-1.1c4.2-0.8,8.3-1.6,12.4-2.5c4.1-0.9,8.3-1.8,12.3-2.9c4.1-1,8.2-2.2,12.1-3.4l-1.3,1.7l0,0
			c0.5-4.9,0.9-9.9,1.3-14.9c0.2-2.5,0.4-5,0.6-7.4l0.4-7.4c0.3-5,0.6-9.9,0.8-14.9l0.5-14.9c0.2-5,0.2-9.9,0.3-14.9
			c0-2.5,0.1-5,0.1-7.5l0-7.5l0-7.5l-0.1-7.5c0-2.5-0.1-5-0.2-7.5c-0.1-2.5-0.1-5-0.3-7.5l2.6,1.8l0,0c-4.1,1.5-8.2,2.9-12.4,4.1
			c-2.1,0.6-4.2,1.2-6.2,1.9l-6.3,1.8c-4.2,1.1-8.4,2.2-12.6,3.2l-3.2,0.7l-3.2,0.7c-2.1,0.4-4.2,0.9-6.4,1.3l-6.4,1.2
			c-2.1,0.4-4.3,0.7-6.4,1.1c-4.3,0.8-8.6,1.3-12.9,1.9c-2.2,0.3-4.3,0.5-6.5,0.7c-2.2,0.2-4.3,0.5-6.5,0.6l-6.6,0.5
			c-2.2,0.2-4.3,0.2-6.5,0.3l-3.2,0.1l-1.7,0.1l-1.6,0l-6.5,0c-2.2,0-4.4-0.1-6.5-0.1c-2.2-0.1-4.4-0.1-6.5-0.2
			c-4.4-0.3-8.7-0.5-13-1c-4.3-0.3-8.7-0.9-13-1.4c-4.3-0.6-8.6-1.2-12.9-2c-2.1-0.4-4.3-0.8-6.4-1.2l-3.2-0.6l-3.2-0.7l-3.2-0.7
			l-3.2-0.8c-2.1-0.5-4.2-1.1-6.3-1.6C38.3,219.2,35,218.2,31.6,217.1z"/>
	</g>
	<g>
		<path class="st1" d="M72.4,385.6c0.4,0,0.8,0,1.2-0.1c1.6,0.2,2.7,1.5,3.4,4.1c0.5,1.9,0.7,3.9,0.5,5.8c-0.2,2.3-1.6,4.1-4,5.3
			c-2.2,1-4.6,1.4-7.2,1.1c-2.5-0.3-4.9-0.9-7.2-1.8c0.3-2.6,0.8-5.8,1.4-9.4c0.6-3.6,1.2-7.2,1.8-10.8c0.6-3.6,1.1-6.8,1.4-9.4
			c0.2-2,0.2-4,0-6c2.1-0.2,4.2-0.2,6.3,0c3.3,0.4,5.8,1.4,7.5,3.2c1.9,1.9,2.7,4.5,2.4,7.7c-0.2,2.7-0.9,4.8-1.9,6.4
			C76.7,383.6,74.9,384.9,72.4,385.6z M67.2,381.6c2.7-0.7,4.5-1.8,5.4-3.2c0.6-1,1.1-3.1,1.5-6.3c0.2-1.5-0.3-2.6-1.4-3.4
			c-0.9-0.7-2.1-1.1-3.7-1.3c-0.1,0-0.3,0-0.4,0C68.2,372.1,67.7,376.9,67.2,381.6z M65.6,398.3c0.2,0,0.5,0.1,0.7,0.1
			c2,0.2,3.3,0,3.9-0.6c0.6-0.6,1.2-1.8,1.6-3.7c0.1-0.6,0.2-1.1,0.3-1.7c0.1-1.2-0.3-2.2-1.4-3c-0.8-0.6-1.9-1-3.3-1.4
			C66.8,391.4,66.2,394.8,65.6,398.3z"/>
		<path class="st1" d="M97.9,366.7c7.4,0,14.8-0.1,22.2-0.4c0,1.6,0,3.3,0.1,4.9c-1.8,0.7-3.8,1.2-6.1,1.6
			c-0.6,0.1-4.2,0.4-10.7,0.8c0.1,2.8,0.2,5.6,0.3,8.5c2.8,0.1,5.6,0.2,8.4,0.2c0,2.6-0.1,5.1-0.2,7.7c-3.2-0.2-6.5-0.4-9.7-0.6
			c0,3.8,0,7.5,0,11.3c4.3,0,8.6,0,12.9-0.1c0.1,1.7,0.2,3.4,0.3,5.1c-6.7-0.1-13.3-0.3-19.9-0.6C96.2,392.3,97.1,379.5,97.9,366.7z
			"/>
		<path class="st1" d="M137.2,367.6c7.4-0.5,14.7-1.2,22.1-2c0.1,1.6,0.3,3.3,0.4,4.9c-1.7,0.8-3.7,1.5-6,2
			c-0.6,0.1-4.1,0.7-10.6,1.6c0.3,2.8,0.6,5.6,1,8.4c2.8-0.1,5.6-0.2,8.4-0.4c0.1,2.6,0.3,5.1,0.4,7.7c-3.3,0.1-6.5,0.1-9.8,0.1
			c0.3,3.7,0.5,7.5,0.8,11.2c4.3-0.3,8.6-0.6,12.9-1c0.2,1.7,0.5,3.4,0.7,5.1c-6.6,0.4-13.3,0.7-19.9,0.9
			C137.4,393.2,137.3,380.4,137.2,367.6z"/>
		<path class="st1" d="M200.8,401.1c-2.9,0.5-5.8,1.1-8.7,1.6c0-0.9,0-1.7,0-2.4c0-0.7-0.1-1.6-0.2-2.6c-0.3-2.4-0.8-4.6-1.5-6.6
			c-1.1-3.1-2.5-4.6-4.1-4.4c-0.7,0.1-1.4,0.4-2,0.9c1.1,5,2.3,10.1,3.4,15.1c-2.8,0.3-5.5,0.5-8.3,0.8c0.2-2.6,0.3-5,0.3-7.4
			c0-2.4,0-4.7-0.2-6.9c-0.2-2-0.5-4.3-0.9-7.1c-0.4-2.7-0.8-5.5-1.2-8.2c-0.4-2.8-0.7-5.1-0.9-7.2c1.8-0.4,3.7-0.7,5.7-0.9
			c4.4-0.4,7.7-0.1,9.9,1.2c2.6,1.4,4.1,4.3,4.6,8.5c0.2,1.6-0.2,3.3-1.3,5c-1.1,1.7-2.4,2.9-4.1,3.4c1.9,1.5,3.9,4.1,5.8,8
			C198.7,394.9,200,398.1,200.8,401.1z M182.7,369.4c0.3,4.3,0.6,8.5,1,12.8c0.2,0,0.5,0,0.7-0.1c1.7-0.2,2.8-0.5,3.4-0.8
			c0.7-0.5,1.2-1.5,1.4-3c0.1-1.1,0.2-2.2,0-3.2c-0.2-1.9-0.9-3.2-2-4.2C186.1,370,184.6,369.5,182.7,369.4z"/>
	</g>
	<g>
		<path class="st1" d="M117.2,275.2c3.7,0.4,6.2,2.7,6.2,9.9s-1.3,17.6,2.3,17.6c3.6,0,3.9-10.4,4.2-15c0.3-4.6,1-14.4,8.3-13.6
			c7.3,0.8,7.3,6.2,8.1,15.4c0.8,9.2-1.7,26.8-5.6,32.2c-4,5.4-14.1,10.1-23.4,3.6c-9.2-6.5-10.3-20.2-9.6-31.2
			C108.2,283,108.6,274.3,117.2,275.2z"/>
		<path class="st1" d="M152.2,298.4c-0.4-2.1-0.4-5,2.5-6c2.9-1,8.6-3.6,9.1-6.2c0.5-2.6,0.9-20.4,0.6-27.3
			c-0.3-6.9-1.3-31.1-0.6-40.1c0.7-9,2.5-20.9,12.4-19.1c9.9,1.8,12.7,6,15.5,11.6c2.8,5.6,3.9,12.1,0,15c-3.9,2.9-5.4,2.7-7.7,1
			c-2.3-1.7-2.7-2.4-2.7,1.3c0,3.7,0.8,34.8,0.6,40c-0.2,5.2-0.3,9.7,3.1,8.5c3.4-1.3,12-4.2,12.4-7.3c0.4-3.1-0.1-19.1,0-23.5
			c0.1-4.4-1.3-24.9,1.6-36.3c2.9-11.4,7.2-19.7,15.5-18.1c8.3,1.6,11.7,10,12.6,14.9c0.9,4.9,0.4,8.1-2.1,9.4
			c-2.5,1.3-5,1.6-7.2,0.4c-2.2-1.3-3.6-1.7-3.3,1.3c0.3,3-0.9,31.1-0.9,35.2c0,4.1-0.6,10.2,0.7,10.9c1.3,0.7,5.4-3.4,7.7-2.2
			c2.3,1.2,3.2,5,3.4,9.7s-1.5,7.2-4.5,8.5c-3,1.3-7.1,1.9-7,3.8c0.1,1.8,0.6,13.1,0.4,23.8c-0.3,10.8-2.2,30.7-3.7,35.9
			c-1.5,5.2-7.7,12.4-17.1,7.9c-9.4-4.5-11.8-19.5-8-23.6c3.9-4.1,7.4-3.5,9.1-1.3c1.6,2.1,3.4,2.9,3.9-1.5c0.5-4.4,1-23.5,0.9-28.4
			c-0.1-4.9-0.3-8.3-4.2-6.5c-3.9,1.8-13.2,4.4-13.7,6.2c-0.6,1.8-0.1,6.4,0,10.1c0.1,3.8-0.6,16.2-1.9,23.7
			c-1.3,7.4-2.1,25-17.9,23.5c-15.8-1.5-19.8-14.9-17.5-21.9c2.3-6.9,8.6-7.2,11.3-2.7c2.7,4.5,6.2,6.9,7-1.6
			c0.9-8.6,1.8-21.2-1.1-21c-2.9,0.2-6.2,3.5-7.5-0.3C152.9,303.5,152.5,300.3,152.2,298.4z"/>
		<g>
			<path class="st1" d="M103.5,252.9c-3.3-14-4.5-16.9-15.8-33.8c-11.3-16.8-32.4-26.6-39.3-28.4c-6.9-1.8-6.3,1.2-6.3,4.8
				c0,2.9,2.1,76,2.3,91c0.2,15-0.4,56.8-0.8,61.8c-0.4,5-1.5,6.5,6,5.8c7.5-0.8,32.2-16.9,43.1-36.6
				C103.7,297.9,106.8,266.9,103.5,252.9z M83.3,291.9c-4.8,13.3-16.8,31.2-19.6,30c-2.9-1.2-0.8-13.7-0.8-24.7
				c0-11-0.4-35-0.8-46.2c-0.3-9.1-1.3-34.5,0-35.2c1.3-0.8,14.1,9.2,19.1,24.7C86.2,255.9,88.1,278.6,83.3,291.9z"/>
		</g>
	</g>
</g>
</svg>
