<?xml version="1.0" encoding="utf-8"?>
<!-- Generator: Adobe Illustrator 16.0.0, SVG Export Plug-In . SVG Version: 6.00 Build 0)  -->
<!DOCTYPE svg PUBLIC "-//W3C//DTD SVG 1.1//EN" "http://www.w3.org/Graphics/SVG/1.1/DTD/svg11.dtd">
<svg version="1.1" id="Layer_1" xmlns="http://www.w3.org/2000/svg" xmlns:xlink="http://www.w3.org/1999/xlink" x="0px" y="0px"
	 width="436.607px" height="17.081px" viewBox="0 0 436.607 17.081" enable-background="new 0 0 436.607 17.081"
	 xml:space="preserve">
<path fill-rule="evenodd" clip-rule="evenodd" fill="#FFFFFF" d="M233.793,14.829c-0.014,0.323,0.192,0.484,0.496,0.565
	c0.179-0.43,1.412-0.059,1.238-0.756C234.591,14.815,234.364,14.65,233.793,14.829z M182.283,15.077
	c0.199,0.035,0.246,0.188,0.495,0.187v0.379c-0.801-0.232-0.188,0.61-0.989,0.377C181.75,15.551,182.177,15.437,182.283,15.077z
	 M148.355,16.247c-1.636-0.009-2.443,0.304-3.466,0.004C145.74,15.793,148.219,15.508,148.355,16.247z M256.078,14.05
	c-0.368,0.283-1.409,0.058-1.235,0.755c-2.786-1.519-5.391,0.396-7.676,0.764c-0.243-0.367-1.226-0.577-0.498-1.131
	c-1.069,0.353-2.591-0.807-2.476,0.38c-0.468-0.021-0.172-0.624-0.743-0.565c-0.693,0.186,0.36,0.503-0.246,0.756
	c-0.223-0.397-0.687-0.608-0.992-0.942c-4.21,0.65-5.725,0.022-10.153,0.199c-0.384,0.671,0.842,0.114,0.745,0.565
	c-0.068,0.822-1.127-0.402-1.487-0.564c-0.79-0.247-1.51,1.01-1.733,0.002c-0.679,0.173,0.44,0.661-0.247,0.942
	c-0.705,0.227-2.274-0.731-2.477,0.569c-0.546-0.021-0.105-0.801-0.247-1.131c-0.542-0.119-0.789,0.535-0.744-0.188
	c-2.716,0.145-7.204-0.571-9.657,0.578c-0.678-0.521,0.361-0.179,0.494-0.567c-1.27-0.069-1.768-0.228-2.972,0.38
	c-0.227-0.804-1.692,0.195-2.229-0.374c-0.64,0.243-0.776,0.391-0.492,0.944c-1.157-0.059-0.828-0.689-0.993-1.132
	c-0.839,0.054-1.422,0.302-2.476,0.192c-0.121,0.596,0.446,0.664,0.249,1.318c-0.887-0.238-0.652-0.614-0.498-1.318l-1.485,0.002
	c-0.064,0.553,0.56,0.578,0.496,1.131c-0.638-0.882-1.469,0.365-1.734-0.377c-0.31,0.049-0.248,0.376,0.001,0.379
	c-0.198,0.378-1.02-0.338-1.486-0.377c0.684-0.445,1.784-0.155,2.229-0.379c-1.497-0.455-2.206-0.322-3.716-0.184
	c-0.101,0.454,0.453,0.408,0.249,0.942c-1.054-0.353-1.244,0.172-3.219,0.004c-0.182-0.515,0.49-0.38,0.493-0.755
	c-0.02-0.576-1.619-0.441-1.98-0.187c-0.741,0.125,0.237,0.403,0.001,0.755c-0.73,0.461-1.004-0.633-1.735-0.753
	c-0.313,0.326-0.837,0.495-0.742,1.132c-0.333,0.032-0.495-0.958-0.743-0.375c-0.685-0.082-0.014-0.594,0.495-0.378
	c-0.618-0.472-1.726-0.57-2.971-0.563c-0.78,0.035-0.317,1.017-1.238,0.945c-0.181-0.516,0.49-0.382,0.494-0.756
	c-3.826,0.052-7.314-0.268-11.143,0.768c-0.725-0.797-0.773-0.093-2.229-0.563c0.088,0.688,1.469,0.389,0.991,1.508
	c-0.778-1.279-4.62-0.32-6.438-0.37c-0.536,0.033-0.113-0.668-0.248-0.941c-0.4-0.055-0.427,0.178-0.744,0.188
	c-0.731,0.166,0.749,0.149,0.249,0.754c-1.216-0.142-0.837-0.521-0.496-1.13c-1.198,1.166-2.896-0.844-3.467,0.946
	c-0.657-0.062-0.835-0.494-0.991-0.941c-0.951,0.346-1.605,0.916-2.227,1.512c-0.716-0.271-0.479-1.271-1.735-1.131
	c-0.875,0.324,0.809,0.38,0.001,0.755c-0.918-0.021-0.622-0.272-0.496-0.755c-1.033,0.205-1.252,0.175-1.981-0.184
	c-0.325,0.065-0.39,0.331-0.742,0.377c0.173,0.836,1.9-0.355,2.229,0.562c-0.341,0.303-1.794-0.254-2.477,0.192
	c0.036-0.469-0.129-0.783-0.495-0.944c-0.53-0.087-0.472,0.271-0.496,0.567c-1.593-0.883-4.979-1.009-6.192-0.181
	c-2.543-0.9-6.266,0.213-8.172-0.179c-0.845,0.642,0.879,0.287,0.745,0.941c-1.569-0.444-4.64-1.915-5.696-0.182
	c-0.657,0.06,0.23-1.058-0.745-0.753c-0.771,0.283,0.73,0.812,0.001,1.131c-1.051,0.175-1.057-0.45-0.991-1.13
	c-1.049,0.058,0.161,0.792-0.494,0.942c-0.528,0.09-0.472-0.268-0.495-0.565c-0.292,0.03-0.209,0.345-0.247,0.566
	c-1.113-0.384-1.922-0.706-2.726,0.003c-0.898,0.182-0.208-0.846-0.99-0.752c-0.652-0.058-0.812,0.262-0.742,0.754
	c-1.236-0.253-1.264,0.243-2.971,0.004c-0.105-0.394,0.169-0.5,0.246-0.754c-0.729,0.642-1.458-0.387-2.725,0.19
	c0.233,0.636,1.127,0.546,0.249,1.132c-0.847-0.652-1.686-0.191-2.724,0.003c-0.651-0.537-0.583-0.641-0.744-1.319
	c-0.621-0.032-0.775,0.291-0.99,0.567c0.109,0.279,0.317-0.075,0.743-0.001c-0.034,0.538-1.033,0.347-1.733,0.379l-0.001-0.755
	c-0.616-0.156-1.326-0.245-2.229-0.185c-0.589,0.117,0.04,1.16-0.493,1.319c-0.536-0.472-1.793-0.396-1.983-1.13
	c-0.896,0.344,0.438,0.521,0.249,0.942c-1.624-0.338-3.84,0.626-4.459-0.938c-0.605,0.106-0.904,0.443-1.237,0.757
	c-0.51-0.052-0.233-0.703-0.744-0.754c-0.577,0.062-1.067,0.195-1.237,0.567c-0.675-0.902-2.057-0.657-3.22-0.562
	c0.315,0.505,0.396,0.896,1.239,0.564c-2.518,1.684-4.861-1.065-8.421-0.557c0.161,0.192,0.569,0.195,0.496,0.566
	c-0.312,0.515-1.726-1.243-1.734,0.19c-0.289-0.03-0.209-0.344-0.248-0.566c-0.73-0.1-0.587,1.419-1.237,0.756
	c-1.011,0.059-0.133-0.394-0.249-0.754c-1.264,0.155-5.35-0.67-5.695,0.76l-1.732,0.002c-0.137-0.416,0.472-0.268,0.494-0.564
	c-2.22-0.256-4.766-0.275-6.438,0.572c0.161-0.192,0.569-0.194,0.495-0.565c-1.2-0.558-2.442,0.357-3.713,0.758
	c-0.659-0.484,0.476-0.27,0.494-0.754c-1.623-0.278-4.896-0.343-5.447,0.194c-3.48-0.794-7.265-0.148-10.154,0.2
	c-0.192-0.168-0.267-0.426-0.248-0.755c-1.706-0.353-1.688,0.603-2.725,0.758c0.052-1.26-3.86-0.871-3.22,0.004
	c-0.973-1.205-2.114-0.607-3.714-0.184c0.192-0.169,0.266-0.427,0.246-0.755c-1.079,0.226-1.036,0.132-1.485,0.756
	c-0.463-0.688-0.292-0.396-1.236-0.187c0.021-0.269,0.039-0.535-0.249-0.565c-1.204,0.714-0.685-0.405-1.238,0.377
	c-1.672-1.113-4.889-0.334-6.438-0.181c-0.333-0.124-0.462-0.402-0.496-0.753c-1.019,0.853-1.996-0.002-2.724,0.569
	c-1.575-0.891-3.408-0.609-5.944-0.373c-0.686,0.034-0.851-0.287-0.496-0.563c-0.924,0.186-1.452-0.209-1.485,0.38
	c-3.818-1.774-6.407-0.007-9.412-1.31c-0.981,0.059,0.278,0.653-0.741,0.565l-0.001-0.564c-1.389,0.505-3.995-1.18-5.201-0.184
	c-0.998-0.917-4.216-0.117-4.46-1.126c2.589,0.357,5.927-0.026,9.907-0.011c-0.76-1.248-3.866-1.104-6.192-1.313
	c-1.309-0.119-2.741-0.73-3.469-0.751c-0.8-0.021-1.53,0.235-2.724,0.191C8.538,9.724,6.39,9.664,4.961,9.056
	C5.429,7.402,6.58,6.266,9.663,6.6C8.021,5.523,4.432,5.938,1.985,5.478c0.936-0.579,2.159,0.231,3.467-0.004
	c-0.654-1.389-2.56-1.822-4.46-2.259c0.066-0.389,1.097-0.047,0.99-0.566C1.295,2.291,0.299,2.171,0,1.518
	C0.436-0.682,6.068,2.054,7.427,0c44.716,2.951,89.461,3.569,131.999,2.49c24.166-0.614,47.365,0.048,75.036-0.84
	c11.903-0.383,27.292-0.084,36.651-0.043c12.938,0.059,27.678-0.559,44.824-0.051c38.631,1.145,77.93,0.666,118.875,3.635
	c0.324-0.024,1.791-0.029,0.989,0.188c-9.372-0.201-16.825-0.708-24.518-0.726c2.732,1.488,6.96,0.812,10.402,0.931
	c11.635,0.405,22.992,2.232,34.921,2.978c-2.254,0.81-5.273,0.129-7.676,0.009c0.456,0.721,2.395,0.312,3.219,0.75
	c-1.855,2.057-4.728-0.188-7.18,1.142c4.034,0.666,7.661-0.362,10.65,1.307c-0.708,1.556-3.812,2.011-5.693,2.082
	c-0.091,0.32,0.192,0.355,0.495,0.376c-7.11,1.019-17.128,1.884-23.771,1.725c-0.677,0.177-1.055,0.579-1.732,0.756
	c-21.886-1.208-45.004-1.021-68.354-2.185c-10.074,0.347-19.345-0.24-29.718-0.154c-10.325,0.085-22.79-0.329-30.956-0.341
	c-0.22,0.146-0.561,0.203-0.991,0.188c-0.411,0.375,0.021,0.24,0.001,0.756c-3.261-1.626-7.2-0.094-9.412-0.745
	c-0.335,0.058-0.204,0.473-0.246,0.756c-0.877-0.372-0.49-0.246-1.484,0.002c0.474-0.745-0.589-1.011-1.735-0.754
	c-0.42,0.704,0.146,0.3,0.247,0.941c-0.973,0.241-0.736-0.442-0.742-0.941C259.887,13.806,257.557,14.908,256.078,14.05z
	 M25.023,12.427c-0.347-0.312-2.377-0.31-2.724,0.003C23.087,12.202,24.522,13.257,25.023,12.427z M174.607,15.651
	c-0.427-0.778,2.377-0.058,1.237-0.756C175.572,15.009,173.832,14.962,174.607,15.651z"/>
</svg>
