<?xml version="1.0" encoding="utf-8"?>
<!-- Generator: Adobe Illustrator 16.0.0, SVG Export Plug-In . SVG Version: 6.00 Build 0)  -->
<!DOCTYPE svg PUBLIC "-//W3C//DTD SVG 1.1//EN" "http://www.w3.org/Graphics/SVG/1.1/DTD/svg11.dtd">
<svg version="1.1" id="Layer_1" xmlns="http://www.w3.org/2000/svg" xmlns:xlink="http://www.w3.org/1999/xlink" x="0px" y="0px"
	 width="37.061px" height="72px" viewBox="0 0 37.061 72" enable-background="new 0 0 37.061 72" xml:space="preserve">
<path fill="#448E49" d="M34.061,0H3C1.343,0,0,1.343,0,3v66c0,1.657,1.343,3,3,3h31.061c1.657,0,3-1.343,3-3V3
	C37.061,1.343,35.718,0,34.061,0z M18.53,3.598c0.379,0,0.686,0.307,0.686,0.685s-0.307,0.685-0.686,0.685s-0.686-0.307-0.686-0.685
	S18.151,3.598,18.53,3.598z M18.53,70.26c-0.914,0-1.655-0.742-1.655-1.656s0.741-1.654,1.655-1.654s1.655,0.74,1.655,1.654
	S19.444,70.26,18.53,70.26z M34,63.438H3.061v-54.5H34V63.438z"/>
</svg>
