<?xml version="1.0" encoding="utf-8"?>
<!-- Generator: Adobe Illustrator 24.2.1, SVG Export Plug-In . SVG Version: 6.00 Build 0)  -->
<svg version="1.1" id="Layer_1" xmlns="http://www.w3.org/2000/svg" xmlns:xlink="http://www.w3.org/1999/xlink" x="0px" y="0px"
	 viewBox="0 0 42.2 45.4" style="enable-background:new 0 0 42.2 45.4;" xml:space="preserve">
<style type="text/css">
	.st0{fill:#F37878;}
</style>
<path class="st0" d="M42.2,35.6c0-1.3-0.3-2.6-0.8-3.8c-0.4-0.9-0.8-1.8-1.2-2.8c-3.3-7.2-6.8-14.4-10.4-21.4c-0.5-1-1-2-1.6-2.9
	c-0.5-0.9-1.1-1.9-1.9-2.6c-1.3-1.2-3-1.9-4.7-2.1h-0.8c-1.8,0.1-3.6,0.8-4.9,2.1c-0.8,0.7-1.4,1.6-1.9,2.5c-0.5,1-1,1.9-1.5,2.9
	c-2.4,4.7-4.8,9.5-7.1,14.3c-1.4,2.9-2.7,5.8-4,8.7c-0.5,1.2-1,2.5-1.2,3.8c-0.3,2.2,0.1,4.6,1.3,6.5c1,1.7,2.6,3,4.4,3.8
	c1.4,0.6,2.9,0.9,4.5,0.8c2-0.1,4-0.8,5.7-1.9c1.9-1.2,3.6-2.8,5.1-4.4c1.4,1.5,3,3,4.7,4.2c1.7,1.1,3.6,1.9,5.7,2.1
	c2.2,0.2,4.5-0.3,6.4-1.6c1.6-1.1,2.9-2.7,3.7-4.5C42,38.1,42.2,36.9,42.2,35.6z M21.1,34.7c-0.6-0.7-1-1.4-1.5-2.1
	c-0.8-1.2-1.6-2.5-2.2-3.8c-0.5-1.1-0.9-2.3-1.1-3.5c-0.1-1-0.1-2,0.3-2.9c0.3-0.9,0.9-1.6,1.7-2.1c1.8-1.2,4.5-1.1,6.1,0.4
	c0.8,0.7,1.3,1.8,1.5,2.9c0.2,1.4-0.2,2.9-0.7,4.3C24.3,30.4,22.8,32.6,21.1,34.7z M39.1,37.8c-0.5,1.7-1.7,3.2-3.2,4
	c-1.4,0.8-3,1-4.5,0.8c-2-0.3-3.7-1.3-5.3-2.6C25,39.1,24,38.1,23,37c1.5-1.9,3-4,4.1-6.2c1-1.9,1.7-4,1.8-6.2c0-1.4-0.2-2.8-0.9-4
	c-0.8-1.6-2.4-2.9-4.1-3.5c-1.6-0.6-3.4-0.6-5.1-0.2c-1.6,0.4-3,1.4-4,2.7c-0.9,1.1-1.3,2.5-1.5,3.9c-0.2,2,0.3,4.1,1.1,5.9
	c1.1,2.7,2.8,5.2,4.7,7.5c-0.8,1-1.7,1.9-2.7,2.7c-1.5,1.3-3.2,2.4-5.2,2.8C9.7,42.9,8,42.7,6.6,42c-1.7-0.8-3-2.4-3.5-4.3
	c-0.4-1.3-0.3-2.8,0.2-4.1c0.4-1.1,0.9-2.1,1.3-3.2c3.3-7.1,6.7-14.2,10.3-21.2c0.5-1,1.1-2.1,1.6-3.1c0.5-0.8,1-1.6,1.8-2.2
	c0.8-0.6,1.9-1,2.9-1c1.1,0,2.1,0.4,3,1.1c0.8,0.7,1.4,1.6,1.8,2.5c1.1,2.1,2.2,4.2,3.2,6.3c3,6,6,12.1,8.8,18.3
	c0.4,1,0.9,1.9,1.2,2.9C39.5,35.2,39.5,36.6,39.1,37.8z"/>
</svg>
