<?xml version="1.0" encoding="utf-8"?>
<!-- Generator: Adobe Illustrator 16.0.0, SVG Export Plug-In . SVG Version: 6.00 Build 0)  -->
<!DOCTYPE svg PUBLIC "-//W3C//DTD SVG 1.1//EN" "http://www.w3.org/Graphics/SVG/1.1/DTD/svg11.dtd">
<svg version="1.1" id="Layer_1" xmlns="http://www.w3.org/2000/svg" xmlns:xlink="http://www.w3.org/1999/xlink" x="0px" y="0px"
	 width="17.328px" height="65.49px" viewBox="0 0 17.328 65.49" enable-background="new 0 0 17.328 65.49" xml:space="preserve">
<g>
	<path fill-rule="evenodd" clip-rule="evenodd" fill="#AE6190" d="M6.18,65.375c1.409,0.226,2.882,0.05,4.488,0.05
		c0-4.437,0-8.59,0-12.85c-3.535,0-6.957,0-10.582,0c0,3.979,0.026,7.913,0.01,9.877S6.18,65.375,6.18,65.375z"/>
	<path fill-rule="evenodd" clip-rule="evenodd" fill="#AE6190" d="M2.452,65.066c-0.253,0.027-0.504,0.056-0.756,0.083"/>
	<path fill-rule="evenodd" clip-rule="evenodd" fill="#AE6190" d="M17.138,51.078c-5.782,0-11.426,0-17.102,0
		c0-2.216,0-4.259,0-6.519c5.794,0,11.393,0,17.102,0C17.138,46.797,17.138,48.933,17.138,51.078z"/>
	<path fill-rule="evenodd" clip-rule="evenodd" fill="#AE6190" d="M14.148,65.114c-0.764,0.037-1.403,0.068-2.158,0.104
		c0-4.258,0-8.402,0-12.645c0.732,0,1.366,0,2.158,0C14.148,56.855,14.148,60.933,14.148,65.114z"/>
	<path fill-rule="evenodd" clip-rule="evenodd" fill="#AE6190" d="M17.326,52.784c-0.759,3.836,1.159,8.027-1.323,11.646
		c-0.213-0.012-0.426-0.022-0.639-0.032c-0.062-0.425-0.173-0.85-0.175-1.274c-0.018-3.035,0.034-6.07-0.033-9.103
		C15.122,52.484,15.75,52.204,17.326,52.784z"/>
	<path fill-rule="evenodd" clip-rule="evenodd" fill="#AE6190" d="M0.163,43.146c5.739,0,11.353,0,16.933,0
		c0.5-1.619-0.089-2.636-1.208-3.723c-3.264-3.173-5.911-6.719-4.978-11.695c0.45-2.399,1.24-4.747,1.529-7.16
		c0.689-5.763,0.512-11.519-1.112-17.133C10.906,1.979,10.5-0.24,8.664,0.021c-1.04,0.147-2.234,2.092-2.629,3.44
		c-2.106,7.21-2.401,14.666-0.272,21.785c1.851,6.185-0.404,10.422-4.486,14.327C0.166,40.636-0.265,41.601,0.163,43.146z"/>
</g>
</svg>
