<?xml version="1.0" encoding="utf-8"?>
<!-- Generator: Adobe Illustrator 24.2.1, SVG Export Plug-In . SVG Version: 6.00 Build 0)  -->
<svg version="1.1" id="Layer_1" xmlns="http://www.w3.org/2000/svg" xmlns:xlink="http://www.w3.org/1999/xlink" x="0px" y="0px"
	 viewBox="0 0 220 144.2" style="enable-background:new 0 0 220 144.2;" xml:space="preserve">
<style type="text/css">
	.st0{fill:#828282;}
	.st1{fill:#FFFFFF;}
	.st2{fill:#7B933B;}
	.st3{opacity:0.1;}
	.st4{fill:#8CC23F;}
</style>
<polygon class="st0" points="23.6,134.3 104.6,0 183.2,133.4 "/>
<polygon class="st1" points="88.7,25.2 104.7,0 122.9,29.5 118.4,25.9 116.2,33 107.7,22.8 105.2,26.2 103.3,21.8 97.2,30.6 
	97,22.1 "/>
<path class="st2" d="M0,144.2c0,0,12.7,0,31.9-22.4s27.1-22.4,32-22.4s11.2,2.2,26.6,19.6s38.7,25.3,38.7,25.3H0z"/>
<polygon class="st3" points="104.5,0.2 103.5,133.9 183.2,133.4 104.6,0 "/>
<path class="st2" d="M96.6,144.2c0,0,46.8-38.6,71.2-38.6s52.3,38.6,52.3,38.6H96.6z"/>
<path class="st4" d="M6.5,144.2c0,0,45.5-12.6,67.8-36s30.1-31.1,41.4-31.1c10.9,0,22.4,10.3,43.9,31.3s35.9,35.7,35.9,35.7H6.5z"/>
</svg>
