<?xml version="1.0" encoding="utf-8"?>
<!-- Generator: Adobe Illustrator 24.2.1, SVG Export Plug-In . SVG Version: 6.00 Build 0)  -->
<svg version="1.1" id="Layer_1" xmlns="http://www.w3.org/2000/svg" xmlns:xlink="http://www.w3.org/1999/xlink" x="0px" y="0px"
	 viewBox="0 0 48.2 27.2" style="enable-background:new 0 0 48.2 27.2;" xml:space="preserve">
<style type="text/css">
	.st0{fill:#0B763C;}
	.st1{fill:#4A4A4C;}
	.st2{fill:#9F9F9F;}
	.st3{fill:#8F8F8F;}
	.st4{fill:#E0E1E0;}
	.st5{fill:#404040;}
	.st6{fill:none;stroke:#154E26;stroke-miterlimit:10;}
	.st7{fill:#E6BD25;stroke:#154E26;stroke-width:0.3433;stroke-miterlimit:10;}
	.st8{opacity:0.1;fill:#010101;}
</style>
<path class="st0" d="M46.2,0H2C0.9,0,0,0.9,0,2v23.2c0,1.1,0.9,2,2,2h44.2c1.1,0,2-0.9,2-2V2C48.2,0.9,47.3,0,46.2,0z M3.4,25.9
	c-1,0-1.8-0.8-1.8-1.8s0.8-1.8,1.8-1.8s1.8,0.8,1.8,1.8S4.4,25.9,3.4,25.9z M3.4,5.7c-1,0-1.8-0.8-1.8-1.8c0-1,0.8-1.8,1.8-1.8
	s1.8,0.8,1.8,1.8C5.2,4.8,4.4,5.7,3.4,5.7z M44.7,25.9c-1,0-1.8-0.8-1.8-1.8s0.8-1.8,1.8-1.8s1.8,0.8,1.8,1.8S45.7,25.9,44.7,25.9z
	 M44.7,5.7c-1,0-1.8-0.8-1.8-1.8c0-1,0.8-1.8,1.8-1.8s1.8,0.8,1.8,1.8C46.5,4.8,45.7,5.7,44.7,5.7z"/>
<path class="st1" d="M13.5,18.6H6.2c-0.6,0-1-0.4-1-1v-7.4c0-0.6,0.4-1,1-1h7.4c0.6,0,1,0.4,1,1v7.4C14.5,18.1,14.1,18.6,13.5,18.6z
	"/>
<g>
	<rect x="5.9" y="8.1" class="st2" width="0.4" height="1.1"/>
	<rect x="6.8" y="8.1" class="st2" width="0.4" height="1.1"/>
	<rect x="7.6" y="8.1" class="st2" width="0.4" height="1.1"/>
	<rect x="8.4" y="8.1" class="st2" width="0.4" height="1.1"/>
	<rect x="9.3" y="8.1" class="st2" width="0.4" height="1.1"/>
	<rect x="10.1" y="8.1" class="st2" width="0.4" height="1.1"/>
	<rect x="10.9" y="8.1" class="st2" width="0.4" height="1.1"/>
	<rect x="11.8" y="8.1" class="st2" width="0.4" height="1.1"/>
	<rect x="12.6" y="8.1" class="st2" width="0.4" height="1.1"/>
	<rect x="13.4" y="8.1" class="st2" width="0.4" height="1.1"/>
</g>
<g>
	<rect x="5.9" y="18.6" class="st3" width="0.4" height="1.1"/>
	<rect x="6.8" y="18.6" class="st3" width="0.4" height="1.1"/>
	<rect x="7.6" y="18.6" class="st3" width="0.4" height="1.1"/>
	<rect x="8.4" y="18.6" class="st3" width="0.4" height="1.1"/>
	<rect x="9.3" y="18.6" class="st3" width="0.4" height="1.1"/>
	<rect x="10.1" y="18.6" class="st3" width="0.4" height="1.1"/>
	<rect x="10.9" y="18.6" class="st3" width="0.4" height="1.1"/>
	<rect x="11.8" y="18.6" class="st3" width="0.4" height="1.1"/>
	<rect x="12.6" y="18.6" class="st3" width="0.4" height="1.1"/>
	<rect x="13.4" y="18.6" class="st3" width="0.4" height="1.1"/>
</g>
<g>
	<rect x="4.1" y="9.9" class="st4" width="1" height="0.4"/>
	<rect x="4.1" y="10.7" class="st4" width="1" height="0.4"/>
	<rect x="4.1" y="11.5" class="st4" width="1" height="0.4"/>
	<rect x="4.1" y="12.4" class="st4" width="1" height="0.4"/>
	<rect x="4.1" y="13.2" class="st4" width="1" height="0.4"/>
	<rect x="4.1" y="14" class="st4" width="1" height="0.4"/>
	<rect x="4.1" y="14.9" class="st4" width="1" height="0.4"/>
	<rect x="4.1" y="15.7" class="st4" width="1" height="0.4"/>
	<rect x="4.1" y="16.5" class="st4" width="1" height="0.4"/>
	<rect x="4.1" y="17.4" class="st4" width="1" height="0.4"/>
</g>
<g>
	<rect x="14.5" y="9.9" class="st5" width="1" height="0.4"/>
	<rect x="14.5" y="10.7" class="st5" width="1" height="0.4"/>
	<rect x="14.5" y="11.5" class="st5" width="1" height="0.4"/>
	<rect x="14.5" y="12.4" class="st5" width="1" height="0.4"/>
	<rect x="14.5" y="13.2" class="st5" width="1" height="0.4"/>
	<rect x="14.5" y="14" class="st5" width="1" height="0.4"/>
	<rect x="14.5" y="14.9" class="st5" width="1" height="0.4"/>
	<rect x="14.5" y="15.7" class="st5" width="1" height="0.4"/>
	<rect x="14.5" y="16.5" class="st5" width="1" height="0.4"/>
	<rect x="14.5" y="17.4" class="st5" width="1" height="0.4"/>
</g>
<g>
	<polyline class="st6" points="38.4,21.2 41.4,21.2 42.1,20.6 42.1,18.5 	"/>
	<circle class="st7" cx="38.4" cy="21.2" r="0.8"/>
	<circle class="st7" cx="42.1" cy="18.5" r="0.8"/>
</g>
<g>
	<polyline class="st6" points="43.1,14.4 41.6,14.4 40,16 	"/>
	<circle class="st7" cx="40" cy="16" r="0.8"/>
</g>
<g>
	<polyline class="st6" points="43.1,11.4 39.2,11.4 38.1,12.7 38.1,17.7 	"/>
	<circle class="st7" cx="38.1" cy="17.7" r="0.8"/>
</g>
<path class="st8" d="M46.2,0h-6.8c0,0.1-0.1,0.2-0.1,0.2C33.2,4,9.6,24.7,6.7,27.2h39.4c1.1,0,2-0.9,2-2V2C48.2,0.9,47.3,0,46.2,0z
	 M46.5,24.5c0,1-0.8,1.8-1.8,1.8s-1.8-0.8-1.8-1.8c0-0.1,0-0.1,0-0.2c0-0.1,0-0.1,0-0.2c0-1,0.8-1.8,1.8-1.8s1.8,0.8,1.8,1.8
	c0,0.1,0,0.1,0,0.2C46.5,24.3,46.5,24.4,46.5,24.5z M44.7,5.7c-1,0-1.8-0.8-1.8-1.8c0-1,0.8-1.8,1.8-1.8s1.8,0.8,1.8,1.8
	C46.5,4.8,45.7,5.7,44.7,5.7z"/>
<g>
	<polyline class="st6" points="43.1,9.4 37.5,9.4 36,10.9 34.4,10.9 33.4,11.9 33.4,13.6 	"/>
	<circle class="st7" cx="33.4" cy="13.6" r="0.8"/>
</g>
<g>
	<polyline class="st6" points="43.1,7.3 37,7.3 35.5,8.8 32.8,8.8 31.8,9.8 	"/>
	<circle class="st7" cx="31.8" cy="10" r="0.8"/>
</g>
<polyline class="st6" points="29.7,22.7 29.7,8.9 31.8,6.8 34.4,6.8 36.9,4.3 41.6,4.3 "/>
<g>
	<line class="st6" x1="33.4" y1="16" x2="33.4" y2="21.2"/>
	<circle class="st7" cx="33.4" cy="21.2" r="0.8"/>
	<circle class="st7" cx="33.4" cy="16" r="0.8"/>
</g>
<g>
	<line class="st6" x1="35.4" y1="17.5" x2="35.4" y2="22.7"/>
	<circle class="st7" cx="35.4" cy="17.5" r="0.8"/>
</g>
<g>
	<polyline class="st6" points="25.8,7.5 25.8,14.2 27.5,15.8 	"/>
	<circle class="st7" cx="27.5" cy="15.8" r="0.8"/>
	<circle class="st7" cx="25.8" cy="7.5" r="0.8"/>
</g>
<g>
	<polyline class="st6" points="20.7,5.7 20.7,11.8 27.5,18.6 	"/>
	<circle class="st7" cx="27.5" cy="18.5" r="0.8"/>
	<circle class="st7" cx="20.7" cy="5.7" r="0.8"/>
</g>
<g>
	<polyline class="st6" points="18.1,5.7 18.1,11.8 27.5,21.2 	"/>
	<circle class="st7" cx="27.4" cy="21.2" r="0.8"/>
	<circle class="st7" cx="18" cy="5.8" r="0.8"/>
</g>
<g>
	<line class="st6" x1="22.8" y1="22.7" x2="22.8" y2="20.1"/>
	<circle class="st7" cx="22.8" cy="20.1" r="0.8"/>
</g>
<g>
	<polyline class="st6" points="20.6,22.7 20.6,21.7 19,20.1 	"/>
	<circle class="st7" cx="19" cy="20.1" r="0.8"/>
</g>
<circle class="st7" cx="19" cy="16.6" r="0.8"/>
</svg>
