<?xml version="1.0" encoding="utf-8"?>
<!-- Generator: Adobe Illustrator 24.2.1, SVG Export Plug-In . SVG Version: 6.00 Build 0)  -->
<svg version="1.1" id="Layer_1" xmlns="http://www.w3.org/2000/svg" xmlns:xlink="http://www.w3.org/1999/xlink" x="0px" y="0px"
	 viewBox="0 0 46.8 46.6" style="enable-background:new 0 0 46.8 46.6;" xml:space="preserve">
<style type="text/css">
	.st0{fill:#72CADA;}
	.st1{fill:#DF1766;}
	.st2{fill:#E8A825;}
	.st3{fill:#40B890;}
	.st4{fill:#CD2028;}
	.st5{fill:#361538;}
	.st6{fill:#66873A;}
	.st7{fill:#1D947D;}
</style>
<g>
	<path class="st0" d="M4,24.6c-1.7,0-3.2-1-3.8-2.7c0-0.1,0-0.1-0.1-0.2c-0.6-2.1,0.6-4.3,2.6-5L35.9,5.7c0.4-0.1,0.8-0.2,1.2-0.2
		c1.8,0,3.3,1.1,3.9,2.7l0,0.2c0.6,2.2-0.9,4.1-2.8,4.7c0,0-0.3,0.1-33,11.3C4.9,24.6,4.4,24.6,4,24.6L4,24.6z"/>
	<path class="st1" d="M9.5,41c-1.8,0-3.2-1-3.8-2.6c0-0.1,0-0.1-0.1-0.2c-0.6-2.1,0.5-4.3,2.6-5l33.2-11.2c0.4-0.1,0.9-0.2,1.3-0.2
		c1.8,0,3.3,1.1,3.9,2.7l0.1,0.2c0.3,1.1,0.1,2.4-0.5,3.4c-0.5,0.7-2,1.4-2,1.4L10.9,40.7C10.5,40.9,10,41,9.5,41L9.5,41z"/>
	<path class="st2" d="M37.1,41c-1.8,0-3.3-1.1-3.9-2.8L22.2,5.4l-0.1-0.2c-0.6-2.1,0.6-4.3,2.6-5C25.1,0.1,25.6,0,26,0
		c0.6,0,1.3,0.1,1.8,0.4c1,0.5,1.7,1.3,2.1,2.4l11.1,32.9l0,0.1c0.6,2.2-0.5,4.4-2.6,5.1C38,41,37.5,41,37.1,41L37.1,41z"/>
	<path class="st3" d="M20.7,46.6c-1.8,0-3.3-1.1-3.9-2.8L5.7,10.9C5,8.8,6.1,6.5,8.3,5.8c0,0,0,0,0,0c0.4-0.1,0.8-0.2,1.3-0.2
		c1.8,0,3.3,1.1,3.9,2.8l11.1,32.9c0.7,2.1-0.4,4.4-2.6,5.2c0,0,0,0,0,0C21.5,46.5,21.1,46.6,20.7,46.6L20.7,46.6L20.7,46.6z"/>
	<path class="st4" d="M31.7,33.6l7.7-2.6l-2.5-7.5l-7.7,2.6L31.7,33.6z"/>
	<path class="st5" d="M15.2,39.2l7.7-2.6l-2.5-7.5l-7.7,2.6L15.2,39.2z"/>
	<path class="st6" d="M26.2,17.3l7.7-2.6l-2.5-7.4l-7.7,2.6L26.2,17.3z"/>
	<path class="st7" d="M9.7,22.9l7.7-2.6l-2.5-7.5l-7.7,2.6L9.7,22.9z"/>
</g>
</svg>
