<?xml version="1.0" encoding="utf-8"?>
<!-- Generator: Adobe Illustrator 24.2.1, SVG Export Plug-In . SVG Version: 6.00 Build 0)  -->
<svg version="1.1" id="Layer_1" xmlns="http://www.w3.org/2000/svg" xmlns:xlink="http://www.w3.org/1999/xlink" x="0px" y="0px"
	 viewBox="0 0 133.06 257.47" style="enable-background:new 0 0 133.06 257.47;" xml:space="preserve">
<style type="text/css">
	.st0{opacity:0.2;fill:url(#SVGID_1_);}
	.st1{opacity:0.1;fill:#010101;}
	.st2{fill:#15171E;}
	.st3{fill:#010101;}
	.st4{fill:#4E5240;}
	.st5{opacity:0.3;fill:#010101;}
	.st6{opacity:0.3;}
	.st7{fill:#102630;}
	.st8{fill:#E5C4A5;}
	.st9{fill:#25465C;}
	.st10{opacity:0.1;fill:#532C12;}
	.st11{fill:#A59072;}
	.st12{fill:#341E1D;}
	.st13{fill:#FFFFFF;}
	.st14{fill:#382918;}
	.st15{fill:#2F281A;}
	.st16{fill:#382919;}
	.st17{opacity:0.4;fill:#FFFFFF;}
	.st18{fill:#FCF6EF;stroke:#231F20;stroke-width:2;stroke-miterlimit:10;}
	.st19{fill:#989898;}
	.st20{fill:#676767;}
	.st21{fill:#383938;}
	.st22{opacity:0.2;}
	.st23{clip-path:url(#SVGID_3_);}
	.st24{opacity:0.1;}
	.st25{fill:#4B696B;}
	.st26{fill:#8A6863;}
	.st27{fill:#997833;}
	.st28{fill:#532C12;}
	.st29{opacity:0.4;}
	.st30{fill:#FCF6EF;}
	.st31{fill:#231F20;}
	.st32{fill:#A07855;}
</style>
<linearGradient id="SVGID_1_" gradientUnits="userSpaceOnUse" x1="45.5073" y1="248.9618" x2="130.8556" y2="248.9618">
	<stop  offset="0" style="stop-color:#000000"/>
	<stop  offset="1" style="stop-color:#000000;stop-opacity:0"/>
</linearGradient>
<path class="st0" d="M52.98,250.77c3.29-0.8,6.14-1.87,11.69-3.45c0.56-0.16,62.38,10.15,62.38,10.15l3.8-4.51l-61.39-12.52
	l-23.96,9.46C45.51,249.91,48.36,251.89,52.98,250.77z"/>
<path class="st1" d="M102.3,248.97c-2.6-1.57-8.81-3.36-8.81-3.36l-6.02,6.84c0,0,3.92,1.17,7.81,1.17
	C102.43,253.62,105.43,250.85,102.3,248.97z"/>
<g>
	<g>
		<path class="st2" d="M68.64,232.06c0,0,0.8,3.39,1,5.58c0.2,2.19,0.5,3.39,0,3.89s-3.69,2.19-4.49,2.09s-2.09-1-2.79-0.7
			s-1.2,1.99-1.7,2.19s-4.39,2.29-6.88,3.29c-2.49,1-7.38,2.09-8.28,1.5c-0.9-0.6-2.29-2.09-2.69-3.69c-0.4-1.6-0.37-2.11,0.33-2.9
			s2.85-0.78,7.14-2.57c1.57-0.66,3.91-1.25,5.24-2.59c2.29-2.31,3.69-4.83,3.69-4.83L68.64,232.06z"/>
		<path class="st3" d="M43.96,248.14c0,0,2.83,0.48,8.26-1.01c5.43-1.49,7.45-2.69,8.36-3.36c0.91-0.67,2.64-2.26,3.56-2.21
			c0.91,0.05,1.11,0.91,1.63,0.77c0.53-0.14,1.49-0.74,2.31-1.26c0.82-0.52,1.59-1.24,1.59-1.24s0.05,1.2,0,1.68
			s-3.75,2.35-4.61,2.16c-0.86-0.19-1.31-1.14-2.46-0.75s-1.77,2.15-3.64,3.11s-4.13,2.07-6.39,2.69c-2.26,0.62-5.43,1.41-6.58,1.36
			S43.96,248.14,43.96,248.14z"/>
		<path class="st3" d="M49.9,240.9c0,0,2.12,1.15,4.64-0.17c2.52-1.32,4.7-3.84,4.7-3.84s1.5,0.36,3.98-0.24
			c2.49-0.6,4.88-2.31,4.88-2.31l-10,0.68c0,0-1.27,1.89-2.64,3.15C54.08,239.45,49.9,240.9,49.9,240.9z"/>
	</g>
	<g>
		<path class="st2" d="M77.85,233.21c0,0-0.01,3.71,0.28,4.57c0.35,1.05,1.61,1.09,1.61,1.09l4.75,10.54c0,0,1.36,3.32,5.54,3.52
			c5.02,0.23,6.14-2.55,6.21-3.52c0.07-0.97-0.07-2.62-0.52-3.52c-0.45-0.9-2.98-3.49-5.39-6.29c-2.41-2.8-3.64-5.18-3.64-5.18
			l-0.03-1.39L77.85,233.21z"/>
		<path class="st3" d="M78.15,233.2c0,0,1.77,0.91,3.08,2.21c1.3,1.3,4.04,6.01,5.38,6.63c1.34,0.62,2.45,0.22,3.37-0.33
			c0.92-0.54,1.03-1.3,0.54-1.9c-0.49-0.6-3.91-4.94-4.13-5.49c-0.22-0.54-0.03-1.3-0.03-1.3s-1.43,0.08-3.65,0.08
			C80.47,233.11,78.15,233.2,78.15,233.2z"/>
		<path class="st3" d="M95.72,245.88c0,0,0.26,1.8-0.04,2.23c-0.31,0.43-1.2,0.25-2.52,0.77c-1.32,0.52-3.69,2.21-4.58,2.33
			c-0.89,0.12-2.27,0.35-2.7-0.49c-0.43-0.84-5.19-12.93-5.44-13.11c-0.25-0.18-1.11,0.31-1.38,0c-0.28-0.31-1.09-0.77-1.09-0.77
			s-0.02,1.37,0.75,1.7s1.01,0.32,1.01,0.32l4.97,11c0,0,0.67,1.95,2.76,2.58c1.68,0.51,4.36,0.97,6.7-0.28
			c0.86-0.46,1.84-1.65,2.04-2.51C96.64,247.72,95.72,245.88,95.72,245.88z"/>
	</g>
	<g>
		<path class="st4" d="M87.34,228.57c0.11-0.97-0.88-2.06-0.85-2.6c0.03-0.54,1.12-2.19,1.16-2.87s-0.37-2.18-0.31-3.3
			c0.06-1.12,0.26-7.87-0.1-13.21c-0.3-4.47-0.59-9.11-0.63-9.45s-0.24-4.62-0.2-5.25s-0.06-1.35-0.05-5.21
			c0.01-2.79,0.87-29.15,0.87-29.15s-5.15,2.34-14.91,2.65c-9.75,0.31-15.8-2.65-15.8-2.65s-2.83,35.39-2.82,35.89
			c0,0.23,1.01,1.96,0.7,2.62c-0.37,0.81,0.31,3.9,0.64,8.77c0.34,4.86,2.76,15.55,2.8,16.13c0.04,0.68-0.47,2.81-0.29,3.59
			c0.18,0.78,1.37,2.46,1.45,3.02s-0.87,2.06-0.58,3.11c0.3,1.05,0.14,2.9,0.57,3.11c0,0,0.69,1.81,4.75,1.4
			c4.06-0.41,5.41-1.74,5.41-1.74s-3.16-38.08-3.16-38.82s4.87-30.21,4.87-30.21s0.63-0.08,1.35-0.08s1.71-0.17,1.71-0.17
			l2.97,69.24c0,0,2.58,1.38,6.45,1.28s3.87-1.48,3.87-1.48C87.9,232.43,87.3,228.93,87.34,228.57z"/>
		<path class="st5" d="M58.21,158.2c0,0,9.23,4.09,18.67,3.43c5.44-0.38,10.36-2.27,10.36-2.27l-0.07-1.84c0,0-5.34,2.09-10.98,2.41
			c-3.66,0.21-7.24,0.31-10.06,0C61.21,159.41,58.21,158.2,58.21,158.2z"/>
		<path class="st5" d="M67.4,163.49l3.49,0.88c0,0-4.93,29.28-4.93,30.17s3.22,38.86,3.22,38.86s-1.31,1.09-4.63,1.57
			c-1.76,0.25-3.22,0.12-3.22,0.12s2.12,0.29,4.12-1.23c2-1.52,2.17-5.07,2.17-5.07s-0.04-4.68-0.47-8.9
			c-0.43-4.21-3.5-23.3-3.61-24.62C63.31,192.87,67.4,163.49,67.4,163.49z"/>
		<g class="st6">
			<path class="st3" d="M61.03,195c1.26-0.12,2.52-0.14,3.78-0.11l-0.05,0.01c0.43-0.2,0.88-0.37,1.34-0.52
				c-0.4,0.27-0.81,0.51-1.24,0.73l-0.02,0.01l-0.03,0C63.55,195.14,62.29,195.12,61.03,195z"/>
		</g>
		<path class="st5" d="M87.23,233.18c0.67-0.75,0.06-4.24,0.1-4.61c0.11-0.97-0.88-2.06-0.85-2.6c0.03-0.54,1.12-2.19,1.16-2.87
			s-0.37-2.18-0.31-3.3c0.06-1.12,0.26-7.87-0.1-13.21c-0.3-4.47-0.59-9.11-0.63-9.45s-0.24-4.62-0.2-5.25s-0.06-1.35-0.05-5.21
			c0.01-2.79,0.87-27.28,0.87-27.28l-1.67,0.28c0,0-1.27,24.61-0.74,34.26s2.04,39.86,2.04,39.86l0,0
			C87.23,233.47,87.23,233.18,87.23,233.18z"/>
	</g>
	<g>
		<path class="st7" d="M62.71,98.94c0,0,5.35-2.19,10.26-2.14c5.6,0.05,7.26,1.64,7.26,1.64s3.85,1.93-7.4,1.93
			S62.71,98.94,62.71,98.94z"/>
		<path class="st8" d="M87.82,114.16c0,0,14.98,25.15,15.45,27.3s1.27,5.32,1.27,5.32l6.55-0.41c0,0,0.76-0.5,1.42-3.74
			c0.66-3.24-14.78-35.36-16.85-36.88s-16.25-5.09-16.25-5.09l-1.3,9.81L87.82,114.16z"/>
		<path class="st8" d="M69.15,92.45l-0.47,4.98l-7.01,2.14c0,0,2.32,5.22,10.92,5.3C81.2,104.95,83,99.6,83,99.6l-6.52-2.17
			l-0.45-4.92L69.15,92.45z"/>
		<path class="st8" d="M51.56,103.33c0,0-3.63,4.34-5.78,8.18c-5.53,9.89-11.02,19.78-12.47,22.23
			c-0.94,1.58-17.82-22.69-17.82-22.69l-5.97,4.52c0,0,20.19,30.41,24.79,29.34s18.29-23.8,18.29-23.8l16.33-17.43l-0.06-5.34
			L51.56,103.33z"/>
		<path class="st9" d="M95.48,104.52c-1.75-1.36-14.41-5.73-15.92-6.46c0,0,1.03,1.56-7.22,1.49c-8.09-0.07-7.17-1.38-7.17-1.38
			s-12.37,3.68-14.53,5.65c-1.3,1.19-11.38,17.6-12.34,19.61c-0.96,2.01,8.94,6.97,10,5.52c1.4-1.91,5.56-8.18,5.56-8.18
			s0.75,3.43,1.12,11.78c0.38,8.68,0.45,26.47,0.45,26.47s3.68,0.12,7.53,0.78c3.41,0.59,5.5,1.67,7.91,1.49
			c2.18-0.16,5.02-0.95,5.79-1.01c4.03-0.33,11.31-0.83,11.31-0.83s-0.03-18.99,0.31-25.52c0.34-6.53,1.45-15.32,1.45-15.32
			s5.63,9.46,6.16,10.53c0.7,1.39,10.36-0.84,10.52-3.07C106.53,124.52,98.68,107.01,95.48,104.52z"/>
		<path class="st5" d="M87.73,131.95c-0.64,10.03-0.57,27.49-0.57,27.49l0.83,0.01c0,0-0.03-21.16,0.39-26.87
			c0.46-6.19,1.67-18.02,2.4-20.85C90.77,111.73,88.39,121.55,87.73,131.95z"/>
		<path class="st5" d="M55.87,132.76c0.41,10.04,0.36,26.25,0.36,26.25h-0.8c0,0-0.2-22.05-0.52-27.77
			c-0.35-6.2-2.17-20.27-2.84-23.11C52.08,108.13,55.46,122.86,55.87,132.76z"/>
	</g>
	<g>
		<path class="st8" d="M48.79,50.41c-2.17-6.69-8.72-7.57-11.06-5.87s-1.26,6.88,0.82,11.85s7.12,9.25,9.62,9.46
			S50.96,57.11,48.79,50.41z"/>
		<path class="st8" d="M40.99,29.17c0,0,1.31,17.9,4.72,33.98c3.19,15.04,8.36,20.4,13.5,26.4c3.94,4.6,8.87,6.7,14.32,6.48
			c5.61-0.23,8.94-2.65,16.62-9.82c5.45-5.08,7.8-11.14,11.76-23.54c4.51-14.11,5.37-33.42,5.37-33.42s-14.42-9.71-33.17-9.29
			S40.99,29.17,40.99,29.17z"/>
		<path class="st8" d="M98.8,51.34c2.29-6.65,8.85-7.41,11.17-5.66c2.32,1.75,1.14,6.9-1.04,11.83s-7.29,9.11-9.79,9.28
			C96.63,66.96,96.51,57.99,98.8,51.34z"/>
		<path class="st10" d="M44.18,54.83c0,0,0.9,11.27,6.04,22.05c1.23,2.58,2.44,4.44,4.52,7.3c4.12,5.67,9.8,11.73,17.51,11.84
			c7.13,0.11,12.27-3.32,20.16-12.18c5.41-6.07,10.96-26.39,10.96-26.39s-6.01,15.06-9.11,19.56c-5.02,7.29-11.13-3.24-21.17-3.21
			c-11.43,0.04-17.61,10.51-21.37,2.56C46.98,66.37,44.18,54.83,44.18,54.83z"/>
		<g>
			<path class="st11" d="M72.44,57.21c-0.25,2.03-0.72,3.97-0.98,5.91c-0.14,0.94-0.15,1.94-0.16,2.91
				c0.01,0.48,0.02,0.97,0.12,1.42c0.05,0.22,0.13,0.43,0.27,0.55c0.15,0.12,0.41,0.1,0.65,0.01c-0.18,0.17-0.44,0.35-0.77,0.24
				c-0.31-0.11-0.48-0.39-0.61-0.62c-0.24-0.5-0.36-1.02-0.44-1.53c-0.15-1.03-0.18-2.06-0.05-3.11c0.15-1.03,0.4-2.02,0.73-2.98
				C71.53,59.04,71.93,58.1,72.44,57.21z"/>
		</g>
		<g>
			<path class="st12" d="M67.62,82.84c0,0,0.5,1.93,4.99,1.57c4.03-0.32,7.28-2.16,0.82-1.69C70.79,82.91,67.62,82.84,67.62,82.84z"
				/>
			<path class="st13" d="M67.62,82.84c0,0,3.59,0.97,6.29,0.69s2.93-0.69,2.93-0.69s-1.67-0.2-3.4-0.12
				C71.7,82.8,67.62,82.84,67.62,82.84z"/>
		</g>
		<path class="st14" d="M87.4,46.08c0.75-0.84-0.6-3.59-4.19-5.23c-3.53-1.61-6.49-3.09-8.96-3.16c-1.05-0.03-1.28,2.51-0.5,2.73
			c0.8,0.23,2.66,0.65,6.66,2.08C85.22,44.21,86.89,46.65,87.4,46.08z"/>
		<path class="st14" d="M54.77,45.86c-0.74-0.85,1.04-3.82,4.66-5.44c3.56-1.58,5.45-2.45,8.1-2.73c1.41-0.15,1.83,2.42,1.16,2.89
			c-0.66,0.48-3.64,0.68-7.68,2.08C56.19,44.34,55.28,46.44,54.77,45.86z"/>
		<path class="st15" d="M79.17,52.55c0,0,1.69,0.72,2.16-0.43s0.08-2.34-0.99-2.84c-1.1-0.51-2.43,0.41-2.51,1.65
			C77.76,52.11,79.17,52.55,79.17,52.55z"/>
		<path class="st15" d="M63.75,52.55c0,0-1.69,0.72-2.16-0.43c-0.47-1.15-0.08-2.34,0.99-2.84c1.1-0.51,2.43,0.41,2.51,1.65
			C65.17,52.11,63.75,52.55,63.75,52.55z"/>
	</g>
	<path class="st16" d="M102.12,55.45l0.91,0.38c1.8-5.22,6.19-24.23,4.2-32.89c-4.66-20.25-12.8-19.02-12.8-19.02l0.9,2.9
		c0,0-5.52-4.11-8.99-5.34S78.71,0,78.71,0l5.79,3.42c0,0-10.22-3.77-22.34-0.9S41.9,13,41.9,13l3.37-0.73c0,0-5.43,6.23-6.32,10.81
		s-0.23,7.03-0.92,8.69c-0.69,1.66,2.73-4.38,2.73-4.38s0.62,7.05,1.23,12.98c0.62,6.06,2.46,14.52,2.46,14.52l0.89-0.53
		c0,0-0.37-5.11-0.4-13.65c-0.03-8.54,1.56-12.91,3.72-13.82c5.71-2.4,12.59-2.08,13.59-1.72c1.88,0.68-3.62,3.72-3.62,3.72
		c4.33-0.21,9.92-3.35,9.19-2.66c-1.82,1.73-5.35,3.15-5.35,3.15s7.54,1.15,12.99-0.51s7.4-2.82,9.35-3.8
		c1.92-0.96,10.94-1.27,13.27,0.42s6.46,4.67,6.24,12.49C104.14,44.46,102.12,55.45,102.12,55.45z"/>
	<g>
		<path class="st11" d="M33.11,133.77c0.39,0.73,0.65,1.52,0.82,2.33c0.13,0.81,0.24,1.63,0.26,2.45c-0.11-0.82-0.2-1.63-0.36-2.44
			C33.7,135.31,33.42,134.53,33.11,133.77z"/>
	</g>
	<g>
		<path class="st11" d="M104.55,141.32c0.54-0.12,1.1-0.04,1.64,0c0.55,0.05,1.09,0.12,1.63,0.2c0.54,0.08,1.08,0.22,1.6,0.38
			c0.52,0.17,1.04,0.37,1.48,0.71c-0.46-0.3-0.98-0.48-1.5-0.64c-0.52-0.16-1.06-0.26-1.6-0.36c-0.54-0.1-1.08-0.17-1.63-0.23
			C105.64,141.34,105.09,141.23,104.55,141.32z"/>
	</g>
	<polygon class="st17" points="94.94,145.15 95.75,145.75 94.66,157.33 	"/>
	<path class="st17" d="M94.78,136.04c0,0-3.06,1.96-3.17,3.76s2.67,3.82,2.67,3.82s-2.15-2.07-2.13-3.81
		C92.17,138.06,94.78,136.04,94.78,136.04z"/>
	<g>
		<path class="st8" d="M17.72,113.51c0.45-0.5,1.4-1.8,2.25-2.93c0.98-1.31,0.32-3.59,1.05-5.93c0.73-2.35,0.76-2.43,0.1-2.79
			c-0.55-0.3-1.88-0.14-2.89,1.76c-0.78,1.48-0.51,4.03-0.81,3.68c-0.65-0.76-2-3.03-2.17-4.66c-0.21-1.97-0.18-5.09-0.1-6.98
			c0.09-2.01,0.47-5.19-1-5.19s-1.41,2.51-1.53,3.87s-0.54,6.44-0.54,6.44l-0.67-0.05c0,0-1.34-8.87-1.5-10.1
			c-0.16-1.23-0.81-1.55-1.51-1.44c-0.71,0.11-0.89,0.78-0.87,1.71c0.02,0.93,0.96,10.24,0.96,10.24l-0.48,0.09
			c0,0-2.51-7.95-2.7-8.56c-0.18-0.61-0.7-1.36-1.61-1.06s-0.65,1.67-0.46,2.2c0.19,0.52,2.18,8.4,2.18,8.4l-0.61,0.28
			c0,0-1.61-3.18-2.02-4.14c-0.57-1.34-1.58-2.78-2.29-2.45c-0.76,0.35-0.62,1.32,0.03,2.87c0.58,1.39,2.19,4.92,2.46,5.91
			c0.27,0.99,0.48,4.07,2.37,7.12c0.65,1.05,3.4,3.76,5.39,4.2C12.81,116.47,16.54,114.82,17.72,113.51z"/>
		<g>
			<path class="st11" d="M14.04,102.9c-0.56,1-1.1,2.01-1.59,3.03c-0.44,1.05-0.6,2.2-0.66,3.34c0-1.14,0.16-2.3,0.59-3.37
				C12.84,104.85,13.42,103.86,14.04,102.9z"/>
		</g>
		<path class="st1" d="M15.86,114.67c0,0,1.14-0.73,2.08-1.83c1.03-1.2,2.26-3.35,2.14-5.57c-0.07-1.32,0.32-2.6,0.56-3.42
			c0.28-0.94,0.93-1.58,0.93-1.58s0.12,0.62-0.34,1.62c-0.17,0.37-0.55,1.52-0.57,2.88c-0.01,0.77-0.07,2.71-0.57,3.63
			c-0.31,0.58-0.43,0.72-0.81,1.18c-0.89,1.07-1.71,1.96-2.43,2.5C16.15,114.62,15.86,114.67,15.86,114.67z"/>
		<g>
			<path class="st11" d="M6,107.89c0.54,0.01,1.07-0.17,1.56-0.38c0.49-0.23,0.95-0.52,1.38-0.85c0.43-0.32,0.85-0.67,1.23-1.05
				c0.36-0.39,0.76-0.8,0.86-1.34c-0.07,0.55-0.45,0.99-0.81,1.39c-0.37,0.4-0.79,0.75-1.22,1.08c-0.44,0.32-0.91,0.61-1.41,0.83
				C7.08,107.78,6.54,107.95,6,107.89z"/>
		</g>
		<g>
			<path class="st11" d="M15.47,115.03c0.76-0.36,1.43-0.88,2.05-1.45c0.61-0.57,1.14-1.23,1.65-1.9c0.25-0.34,0.49-0.68,0.73-1.03
				c0.26-0.33,0.42-0.72,0.51-1.13c0.19-0.82,0.24-1.66,0.24-2.5c0.01,0.84-0.03,1.69-0.2,2.51c-0.08,0.41-0.26,0.82-0.51,1.15
				c-0.23,0.35-0.46,0.7-0.71,1.05c-0.48,0.69-1.04,1.33-1.67,1.9C16.94,114.2,16.25,114.71,15.47,115.03z"/>
		</g>
		<g>
			<path class="st11" d="M13.35,115.83c-0.49,0.16-1.01,0.25-1.53,0.27c-0.51,0.03-1.05-0.01-1.54-0.22c-0.96-0.41-1.82-1-2.62-1.65
				c0.84,0.59,1.7,1.19,2.65,1.57C11.28,116.17,12.35,116.03,13.35,115.83z"/>
		</g>
	</g>
</g>
<g>
	<path class="st18" d="M82.16,128.65c-0.1,0.12-0.1,0.25-0.1,0.25l1.25,29.13l45.25-1.26v-29.13c0,0,0-0.13-0.15-0.3
		s-0.39-0.16-0.39-0.16l-45.59,1.36C82.43,128.54,82.26,128.53,82.16,128.65z"/>
	<polyline class="st19" points="83.31,158.03 78.12,161.01 133.05,159.46 128.56,156.77 	"/>
	<path class="st20" d="M78.12,161.01l0.1,1.66c0,0,0,0.09,0.04,0.14c0.04,0.05,0.12,0.04,0.12,0.04l54.33-1.47c0,0,0.15,0,0.26-0.11
		c0.11-0.11,0.08-0.26,0.08-0.26v-1.55"/>
	<polygon class="st21" points="86.71,158.43 84.81,159.85 127.05,158.43 125.23,157.33 	"/>
	<g>
		<g class="st22">
			<g>
				<defs>
					<path id="SVGID_2_" d="M119.3,152.39c0.25-0.07,0.47-0.16,0.89-0.29c0.04-0.01,5.2,0.62,5.2,0.62l0.17-0.3l-5.02-0.86
						l-1.82,0.79C118.72,152.35,118.94,152.49,119.3,152.39z"/>
				</defs>
				<clipPath id="SVGID_3_">
					<use xlink:href="#SVGID_2_"  style="overflow:visible;"/>
				</clipPath>
				<polygon class="st23" points="118.72,152.35 118.73,152.71 118.72,152.71 				"/>
				<polygon class="st23" points="125.53,151.56 125.56,152.41 125.56,152.71 118.73,152.71 118.72,152.35 118.72,151.56 				"/>
				<polygon class="st23" points="125.56,152.41 125.53,151.56 125.56,151.56 				"/>
			</g>
		</g>
		<g class="st24">
			<path class="st3" d="M123.1,152.13c-0.2-0.11-0.69-0.24-0.69-0.24l-0.45,0.54c0,0,0.31,0.08,0.61,0.07
				C123.12,152.49,123.34,152.27,123.1,152.13z"/>
		</g>
		<g>
			<path class="st3" d="M86.33,139.77l0-0.09l0.55-0.02l0,0.09l-0.25,0.04l-0.04,0L86.33,139.77z M86.66,140.79l0.25,0.02l0,0.09
				l-0.55,0.02l0-0.09l0.25-0.04L86.66,140.79z M86.5,140.26c-0.01-0.19-0.01-0.38-0.02-0.57l0.25-0.01c0,0.19,0.01,0.38,0.01,0.57
				l0,0.06c0.01,0.21,0.01,0.41,0.03,0.6l-0.25,0.01c0-0.19-0.01-0.38-0.01-0.57L86.5,140.26z M86.62,140.32l0-0.1l0.74-0.02l0,0.1
				L86.62,140.32z M87.07,139.75l0-0.09l0.55-0.02l0,0.09l-0.25,0.04l-0.04,0L87.07,139.75z M87.4,140.76l0.25,0.02l0,0.09
				l-0.55,0.02l0-0.09l0.25-0.04L87.4,140.76z M87.24,140.23c-0.01-0.19-0.01-0.38-0.02-0.57l0.25-0.01c0,0.19,0.01,0.38,0.01,0.57
				l0,0.08c0.01,0.19,0.01,0.38,0.02,0.57l-0.25,0.01c0-0.19-0.01-0.38-0.01-0.6L87.24,140.23z"/>
			<path class="st3" d="M87.91,140.86c0-0.08,0-0.27-0.01-0.39l0-0.09c0-0.1-0.01-0.16-0.01-0.23l-0.13-0.01l0-0.07l0.33-0.13
				l0.03,0.02l0,0.26l0.01,0.24c0,0.11,0.01,0.3,0.02,0.39L87.91,140.86z M88.25,140.78l0,0.08l-0.46,0.01l0-0.08l0.18-0.04l0.09,0
				L88.25,140.78z M87.85,139.65c0-0.08,0.06-0.13,0.13-0.14c0.08,0,0.14,0.05,0.14,0.13c0,0.08-0.06,0.13-0.13,0.14
				C87.91,139.78,87.85,139.73,87.85,139.65z"/>
			<path class="st3" d="M88.36,141.24l-0.03-0.07c0.14-0.08,0.23-0.18,0.26-0.33l0.03,0.07l-0.11-0.07
				c-0.06-0.04-0.09-0.09-0.09-0.14c0-0.08,0.05-0.14,0.13-0.14c0.04,0,0.08,0.01,0.13,0.05c0.02,0.05,0.03,0.09,0.03,0.14
				C88.72,141,88.54,141.18,88.36,141.24z"/>
			<path class="st3" d="M89.31,139.68l0-0.09l0.56-0.02l0,0.09l-0.26,0.04l-0.05,0L89.31,139.68z M89.64,140.69l0.26,0.02l0,0.09
				l-0.56,0.02l0-0.09l0.25-0.04L89.64,140.69z M89.48,140.16c-0.01-0.19-0.01-0.38-0.02-0.57l0.25-0.01c0,0.19,0.01,0.38,0.01,0.57
				l0,0.08c0.01,0.19,0.01,0.38,0.02,0.57l-0.25,0.01c0-0.19-0.01-0.38-0.01-0.57L89.48,140.16z"/>
			<path class="st3" d="M90.02,139.99l-0.04-0.06c0.09-0.07,0.16-0.15,0.2-0.28l0.01,0.1l-0.1-0.08c-0.06-0.04-0.08-0.08-0.08-0.13
				c0-0.08,0.05-0.13,0.12-0.13c0.05,0,0.08,0.01,0.11,0.04c0.02,0.04,0.04,0.09,0.04,0.14C90.28,139.76,90.17,139.91,90.02,139.99z
				"/>
			<path class="st3" d="M90.47,140.78c0-0.08,0-0.27-0.01-0.39l0-0.1c0-0.1-0.01-0.15-0.01-0.22l-0.13-0.01l0-0.07l0.3-0.13
				l0.03,0.02l0.03,0.21l0.01,0.29c0,0.11,0.01,0.3,0.02,0.39L90.47,140.78z M90.81,140.69l0,0.08l-0.46,0.01l0-0.08l0.19-0.04
				l0.09,0L90.81,140.69z M91.23,140.17l0.01,0.19c0,0.12,0.01,0.3,0.02,0.39l-0.23,0.01c0-0.08,0-0.27-0.01-0.39l0-0.17
				c0-0.15-0.04-0.2-0.14-0.2c-0.08,0-0.16,0.06-0.24,0.14l-0.05,0l0-0.1l0.11,0l-0.07,0.04c0.09-0.14,0.22-0.23,0.35-0.24
				C91.14,139.85,91.22,139.95,91.23,140.17z M91.18,140.64l0.18,0.03l0,0.08l-0.45,0.01l0-0.08l0.18-0.04L91.18,140.64z
				 M91.78,140.15l0.01,0.2c0,0.12,0.01,0.3,0.02,0.39l-0.23,0.01c0-0.08,0-0.27-0.01-0.39l-0.01-0.17c0-0.16-0.04-0.2-0.14-0.19
				c-0.08,0-0.16,0.05-0.24,0.14l-0.06,0l0-0.09l0.12,0l-0.08,0.04c0.11-0.17,0.23-0.23,0.35-0.24
				C91.68,139.83,91.77,139.93,91.78,140.15z M91.73,140.63l0.18,0.03l0,0.08l-0.45,0.01l0-0.08l0.18-0.04L91.73,140.63z"/>
			<path class="st3" d="M92.84,139.48c0,0.18,0.01,0.37,0.01,0.56l0.01,0.24c0.01,0.23,0,0.36-0.04,0.47
				c-0.05,0.17-0.2,0.27-0.36,0.27c-0.08,0-0.16-0.02-0.19-0.1c0-0.07,0.06-0.11,0.13-0.12c0.05,0,0.1,0.02,0.16,0.07l0.06,0.06
				l-0.02,0.02l-0.01,0l0-0.02c0.05-0.05,0.07-0.14,0.06-0.27c0-0.15-0.02-0.41-0.06-1.18L92.84,139.48z M92.42,139.49l0.58-0.02
				l0,0.09l-0.26,0.04l-0.05,0l-0.26-0.02L92.42,139.49z"/>
			<path class="st3" d="M93.41,140.19c0.08-0.03,0.2-0.07,0.29-0.09l0,0.07c-0.08,0.02-0.19,0.06-0.24,0.08
				c-0.12,0.05-0.16,0.12-0.15,0.19c0,0.1,0.06,0.13,0.13,0.13c0.05,0,0.08-0.02,0.17-0.09l0.05-0.04l0.02,0.03l-0.06,0.07
				c-0.1,0.11-0.15,0.16-0.28,0.17c-0.14,0-0.25-0.07-0.25-0.23C93.09,140.37,93.15,140.28,93.41,140.19z M93.6,140.52l-0.01-0.44
				c-0.01-0.17-0.05-0.22-0.17-0.21c-0.04,0-0.09,0.01-0.17,0.04l0.1-0.07l-0.03,0.14c-0.01,0.09-0.05,0.13-0.11,0.13
				c-0.06,0-0.1-0.03-0.11-0.08c0.02-0.15,0.16-0.25,0.38-0.26c0.21-0.01,0.31,0.08,0.32,0.32l0.01,0.4c0,0.06,0.02,0.08,0.06,0.08
				c0.03,0,0.04-0.01,0.06-0.04l0.04,0.04c-0.04,0.09-0.1,0.12-0.19,0.12C93.68,140.7,93.61,140.63,93.6,140.52z"/>
			<path class="st3" d="M94.06,140.61l-0.01-0.21l0.12,0l0.05,0.23l-0.1-0.04l0-0.07c0.08,0.05,0.14,0.07,0.23,0.07
				c0.12,0,0.18-0.05,0.18-0.13c0-0.07-0.05-0.11-0.17-0.14l-0.09-0.03c-0.14-0.04-0.23-0.12-0.23-0.25c0-0.15,0.12-0.28,0.34-0.29
				c0.1,0,0.19,0.02,0.28,0.07l0,0.2l-0.12,0l-0.05-0.21l0.09,0.03l0,0.06c-0.06-0.04-0.12-0.06-0.19-0.06
				c-0.1,0-0.15,0.05-0.15,0.12c0,0.07,0.04,0.1,0.17,0.14l0.07,0.02c0.18,0.05,0.25,0.14,0.26,0.27c0.01,0.17-0.13,0.29-0.38,0.3
				C94.25,140.68,94.16,140.66,94.06,140.61z"/>
			<path class="st3" d="M94.87,140.2c-0.01-0.29,0.19-0.47,0.43-0.48c0.24-0.01,0.45,0.16,0.46,0.45c0.01,0.3-0.18,0.48-0.43,0.48
				C95.07,140.66,94.87,140.49,94.87,140.2z M95.52,140.18c-0.01-0.25-0.09-0.38-0.22-0.37c-0.13,0-0.2,0.13-0.19,0.39
				c0.01,0.26,0.08,0.37,0.22,0.37C95.45,140.56,95.52,140.43,95.52,140.18z"/>
			<path class="st3" d="M96.02,140.6c0-0.08,0-0.27-0.01-0.39l0-0.1c0-0.1-0.01-0.15-0.01-0.22l-0.13-0.01l0-0.07l0.3-0.13
				l0.03,0.02l0.03,0.21l0.01,0.29c0,0.11,0.01,0.3,0.02,0.39L96.02,140.6z M96.36,140.52l0,0.08l-0.46,0.01l0-0.08l0.19-0.04
				l0.09,0L96.36,140.52z M96.79,140l0.01,0.19c0,0.12,0.01,0.3,0.02,0.39l-0.23,0.01c0-0.08,0-0.27-0.01-0.39l0-0.17
				c0-0.14-0.04-0.19-0.14-0.19c-0.08,0-0.16,0.05-0.25,0.14l-0.05,0l0-0.1l0.11,0l-0.07,0.04c0.1-0.16,0.23-0.23,0.36-0.24
				C96.69,139.67,96.78,139.77,96.79,140z M96.74,140.47l0.18,0.03l0,0.08l-0.46,0.01l0-0.08l0.18-0.04L96.74,140.47z"/>
			<path class="st3" d="M97.36,139.45c0,0.07-0.01,0.22-0.05,0.46l-0.03,0.22l-0.08,0l-0.04-0.22c-0.05-0.24-0.08-0.39-0.08-0.46
				c0-0.1,0.05-0.15,0.13-0.15C97.3,139.31,97.36,139.36,97.36,139.45z M97.11,140.45c0-0.08,0.06-0.15,0.14-0.15
				s0.15,0.06,0.15,0.14c0,0.08-0.06,0.15-0.14,0.15S97.11,140.53,97.11,140.45z"/>
		</g>
		<g>
			<g>
				<path class="st25" d="M89.47,145.94l0.07-0.42l0.09,0l-0.11,0.55l-0.09,0l-0.12-0.4l-0.09,0.4l-0.09,0l-0.14-0.54l0.09,0
					l0.1,0.41l0.09-0.42l0.08,0L89.47,145.94z"/>
				<path class="st25" d="M89.68,145.86c0-0.04,0.01-0.08,0.02-0.11c0.01-0.03,0.04-0.06,0.06-0.08c0.03-0.02,0.06-0.03,0.1-0.03
					c0.05,0,0.1,0.01,0.14,0.05c0.04,0.03,0.06,0.08,0.06,0.14v0.02c0,0.04,0,0.08-0.02,0.11s-0.04,0.06-0.06,0.08
					s-0.06,0.03-0.1,0.03c-0.06,0-0.1-0.02-0.14-0.05C89.7,145.98,89.68,145.93,89.68,145.86L89.68,145.86z M89.77,145.86
					c0,0.04,0.01,0.08,0.03,0.1c0.02,0.02,0.04,0.04,0.07,0.03c0.03,0,0.05-0.01,0.07-0.04c0.02-0.02,0.02-0.06,0.02-0.11
					c0-0.04-0.01-0.07-0.03-0.1c-0.02-0.02-0.04-0.04-0.07-0.03c-0.03,0-0.05,0.01-0.07,0.04
					C89.78,145.78,89.77,145.82,89.77,145.86z"/>
				<path class="st25" d="M90.35,145.72c-0.01,0-0.02,0-0.04,0c-0.04,0-0.07,0.02-0.08,0.05l0.01,0.28l-0.09,0l-0.01-0.41l0.09,0
					l0,0.04c0.02-0.04,0.05-0.05,0.09-0.06c0.01,0,0.02,0,0.03,0L90.35,145.72z"/>
				<path class="st25" d="M90.54,145.86l-0.04,0.04l0,0.13l-0.09,0l-0.02-0.58l0.09,0l0.01,0.33l0.03-0.04l0.11-0.13l0.11,0
					l-0.15,0.17l0.17,0.23l-0.11,0L90.54,145.86z"/>
			</g>
		</g>
		<g>
			<g>
				<path class="st26" d="M96.45,145.85l-0.09,0l-0.01-0.24l-0.25,0.01l0.01,0.24l-0.1,0l-0.02-0.55l0.1,0l0.01,0.23l0.25-0.01
					l-0.01-0.23l0.09,0L96.45,145.85z"/>
				<path class="st26" d="M96.53,145.64c0-0.04,0-0.08,0.02-0.11c0.01-0.03,0.04-0.06,0.06-0.08c0.03-0.02,0.06-0.03,0.1-0.03
					c0.05,0,0.1,0.01,0.14,0.05c0.04,0.03,0.06,0.08,0.06,0.14v0.02c0,0.04,0,0.08-0.02,0.11c-0.01,0.03-0.04,0.06-0.06,0.08
					s-0.06,0.03-0.1,0.03c-0.06,0-0.1-0.02-0.14-0.05S96.53,145.71,96.53,145.64L96.53,145.64z M96.62,145.64
					c0,0.04,0.01,0.07,0.03,0.1c0.02,0.02,0.04,0.03,0.07,0.03c0.03,0,0.05-0.01,0.07-0.04s0.02-0.06,0.02-0.11
					c0-0.04-0.01-0.07-0.03-0.1s-0.04-0.04-0.07-0.03c-0.03,0-0.05,0.01-0.07,0.04C96.62,145.56,96.62,145.6,96.62,145.64z"/>
				<path class="st26" d="M97.34,145.62c0,0.06-0.01,0.11-0.04,0.15c-0.03,0.04-0.06,0.06-0.11,0.06c-0.05,0-0.09-0.01-0.11-0.05
					l0,0.04l-0.08,0l-0.02-0.58l0.09,0l0.01,0.21c0.03-0.03,0.06-0.05,0.11-0.05c0.05,0,0.09,0.02,0.12,0.05
					C97.32,145.5,97.34,145.55,97.34,145.62L97.34,145.62z M97.25,145.62c0-0.04-0.01-0.08-0.03-0.1c-0.02-0.02-0.04-0.03-0.07-0.03
					c-0.04,0-0.07,0.02-0.08,0.05l0.01,0.17c0.02,0.03,0.05,0.05,0.09,0.05c0.03,0,0.05-0.01,0.07-0.03
					c0.01-0.02,0.02-0.05,0.02-0.1V145.62z"/>
				<path class="st26" d="M97.77,145.61c0,0.06-0.01,0.12-0.04,0.15c-0.03,0.04-0.07,0.06-0.12,0.06c-0.05,0-0.09-0.02-0.11-0.05
					l0,0.04l-0.08,0l-0.02-0.58l0.09,0l0.01,0.21c0.03-0.03,0.06-0.05,0.11-0.05c0.05,0,0.09,0.02,0.12,0.05
					C97.76,145.48,97.77,145.54,97.77,145.61L97.77,145.61z M97.68,145.6c0-0.04-0.01-0.08-0.03-0.1c-0.02-0.02-0.04-0.03-0.07-0.03
					c-0.04,0-0.07,0.02-0.08,0.05l0.01,0.17c0.02,0.04,0.05,0.05,0.09,0.05c0.03,0,0.05-0.01,0.07-0.03s0.02-0.05,0.02-0.1V145.6z"
					/>
				<path class="st26" d="M97.84,145.29c0-0.01,0-0.03,0.01-0.04c0.01-0.01,0.02-0.01,0.04-0.01c0.02,0,0.03,0,0.04,0.01
					c0.01,0.01,0.01,0.02,0.01,0.04c0,0.01,0,0.03-0.01,0.03c-0.01,0.01-0.02,0.01-0.04,0.01c-0.02,0-0.03,0-0.04-0.01
					C97.85,145.32,97.84,145.3,97.84,145.29z M97.96,145.8l-0.09,0l-0.01-0.41l0.09,0L97.96,145.8z"/>
				<path class="st26" d="M98.23,145.8c-0.06,0-0.11-0.02-0.14-0.05c-0.04-0.04-0.06-0.08-0.06-0.14v-0.01c0-0.04,0-0.08,0.02-0.11
					c0.01-0.03,0.04-0.06,0.06-0.08c0.03-0.02,0.06-0.03,0.09-0.03c0.06,0,0.1,0.01,0.13,0.05s0.05,0.08,0.05,0.15l0,0.04
					l-0.27,0.01c0,0.03,0.02,0.06,0.04,0.08c0.02,0.02,0.04,0.03,0.08,0.03c0.04,0,0.08-0.02,0.1-0.05l0.05,0.04
					c-0.02,0.03-0.04,0.04-0.06,0.06C98.3,145.79,98.27,145.8,98.23,145.8z M98.21,145.45c-0.02,0-0.04,0.01-0.06,0.03
					c-0.01,0.02-0.02,0.04-0.03,0.07l0.17-0.01v-0.01c0-0.03-0.01-0.05-0.03-0.07C98.26,145.46,98.24,145.45,98.21,145.45z"/>
				<path class="st26" d="M98.69,145.67c0-0.02-0.01-0.03-0.02-0.04s-0.04-0.01-0.07-0.02c-0.03,0-0.06-0.01-0.08-0.02
					c-0.05-0.02-0.07-0.05-0.07-0.09c0-0.04,0.01-0.07,0.04-0.09c0.03-0.02,0.07-0.04,0.11-0.04c0.05,0,0.09,0.01,0.12,0.03
					c0.03,0.02,0.05,0.05,0.05,0.09l-0.09,0c0-0.02-0.01-0.03-0.02-0.04c-0.01-0.01-0.03-0.02-0.05-0.02
					c-0.02,0-0.04,0.01-0.05,0.01c-0.01,0.01-0.02,0.02-0.02,0.04c0,0.01,0.01,0.03,0.02,0.03c0.01,0.01,0.04,0.01,0.07,0.02
					c0.04,0.01,0.07,0.02,0.09,0.03c0.02,0.01,0.04,0.02,0.05,0.04c0.01,0.01,0.02,0.03,0.02,0.06c0,0.04-0.01,0.07-0.04,0.09
					c-0.03,0.02-0.07,0.04-0.12,0.04c-0.03,0-0.06,0-0.09-0.02c-0.03-0.01-0.05-0.03-0.06-0.05c-0.01-0.02-0.02-0.04-0.02-0.07
					l0.09,0c0,0.02,0.01,0.04,0.03,0.05c0.02,0.01,0.04,0.02,0.06,0.01s0.04-0.01,0.05-0.02C98.69,145.69,98.69,145.68,98.69,145.67
					z"/>
			</g>
		</g>
		<g>
			<g>
				<path class="st27" d="M103.98,145.43c0,0.06-0.02,0.11-0.06,0.14c-0.04,0.04-0.09,0.05-0.15,0.05c-0.04,0-0.08-0.01-0.12-0.03
					s-0.06-0.05-0.08-0.09c-0.02-0.04-0.03-0.08-0.03-0.13l0-0.05c0-0.05,0.01-0.1,0.02-0.14c0.02-0.04,0.04-0.07,0.08-0.09
					c0.03-0.02,0.07-0.03,0.12-0.04c0.06,0,0.11,0.01,0.15,0.04c0.04,0.03,0.06,0.08,0.07,0.14l-0.1,0c0-0.04-0.02-0.07-0.04-0.08
					c-0.02-0.02-0.05-0.02-0.08-0.02c-0.04,0-0.07,0.02-0.09,0.05c-0.02,0.03-0.03,0.08-0.03,0.13l0,0.05c0,0.06,0.01,0.1,0.04,0.13
					c0.02,0.03,0.05,0.05,0.09,0.04c0.04,0,0.06-0.01,0.08-0.03c0.02-0.02,0.03-0.05,0.03-0.08L103.98,145.43z"/>
				<path class="st27" d="M104.04,145.4c0-0.04,0-0.08,0.02-0.11c0.01-0.03,0.04-0.06,0.06-0.08c0.03-0.02,0.06-0.03,0.1-0.03
					c0.06,0,0.1,0.01,0.14,0.05c0.04,0.03,0.05,0.08,0.06,0.14l0,0.02c0,0.04-0.01,0.08-0.02,0.11c-0.01,0.03-0.04,0.06-0.06,0.08
					c-0.03,0.02-0.06,0.03-0.1,0.03c-0.06,0-0.1-0.02-0.14-0.05C104.06,145.52,104.04,145.47,104.04,145.4L104.04,145.4z
					 M104.13,145.4c0,0.04,0.01,0.08,0.03,0.1c0.02,0.02,0.04,0.04,0.07,0.03c0.03,0,0.05-0.01,0.07-0.04
					c0.02-0.03,0.02-0.06,0.02-0.11c0-0.04-0.01-0.07-0.03-0.1c-0.02-0.02-0.04-0.04-0.07-0.03s-0.05,0.01-0.07,0.04
					C104.13,145.32,104.13,145.36,104.13,145.4z"/>
				<path class="st27" d="M104.57,145.18l0,0.05c0.03-0.04,0.07-0.06,0.12-0.06c0.08,0,0.13,0.04,0.13,0.14l0.01,0.27l-0.09,0
					l-0.01-0.26c0-0.03-0.01-0.05-0.02-0.06c-0.01-0.01-0.03-0.02-0.05-0.02c-0.04,0-0.06,0.02-0.08,0.05l0.01,0.29l-0.09,0
					l-0.01-0.41L104.57,145.18z"/>
				<path class="st27" d="M105.02,145.07l0,0.1l0.07,0l0,0.07l-0.07,0l0.01,0.23c0,0.02,0,0.03,0.01,0.03
					c0.01,0.01,0.02,0.01,0.03,0.01c0.01,0,0.02,0,0.03,0l0,0.07c-0.02,0.01-0.04,0.01-0.06,0.01c-0.07,0-0.11-0.04-0.11-0.11
					l-0.01-0.23l-0.07,0l0-0.07l0.07,0l0-0.1L105.02,145.07z"/>
				<path class="st27" d="M105.43,145.56c0-0.01-0.01-0.02-0.01-0.04c-0.03,0.03-0.06,0.05-0.11,0.05c-0.04,0-0.08-0.01-0.1-0.03
					s-0.04-0.05-0.04-0.09c0-0.04,0.01-0.08,0.05-0.1c0.03-0.02,0.08-0.04,0.14-0.04l0.06,0l0-0.03c0-0.02-0.01-0.04-0.02-0.05
					c-0.01-0.01-0.03-0.02-0.05-0.02c-0.02,0-0.04,0.01-0.05,0.02c-0.01,0.01-0.02,0.02-0.02,0.04l-0.09,0
					c0-0.02,0.01-0.04,0.02-0.06c0.01-0.02,0.03-0.04,0.06-0.05c0.03-0.01,0.05-0.02,0.08-0.02c0.05,0,0.09,0.01,0.12,0.03
					c0.03,0.02,0.04,0.06,0.05,0.1l0.01,0.18c0,0.04,0.01,0.07,0.02,0.09l0,0.01L105.43,145.56z M105.32,145.5
					c0.02,0,0.04,0,0.05-0.01c0.02-0.01,0.03-0.02,0.03-0.04l0-0.08l-0.05,0c-0.03,0-0.06,0.01-0.08,0.02
					c-0.02,0.01-0.02,0.03-0.02,0.05c0,0.02,0.01,0.03,0.02,0.04C105.29,145.49,105.31,145.5,105.32,145.5z"/>
				<path class="st27" d="M105.77,145.48c0.02,0,0.04-0.01,0.06-0.02c0.01-0.01,0.02-0.03,0.02-0.05l0.09,0
					c0,0.03-0.01,0.05-0.02,0.07c-0.01,0.02-0.03,0.04-0.06,0.05c-0.02,0.01-0.05,0.02-0.08,0.02c-0.06,0-0.1-0.01-0.14-0.05
					c-0.03-0.04-0.05-0.09-0.05-0.15v-0.01c0-0.06,0.01-0.11,0.04-0.15c0.03-0.04,0.08-0.06,0.13-0.06c0.05,0,0.09,0.01,0.12,0.04
					s0.05,0.06,0.05,0.11l-0.09,0c0-0.02-0.01-0.04-0.03-0.06c-0.02-0.01-0.04-0.02-0.06-0.02c-0.03,0-0.05,0.01-0.07,0.04
					c-0.01,0.02-0.02,0.05-0.02,0.1l0,0.01c0,0.04,0.01,0.08,0.03,0.1C105.71,145.48,105.74,145.49,105.77,145.48z"/>
				<path class="st27" d="M106.1,145.03l0,0.1l0.07,0l0,0.07l-0.07,0l0.01,0.23c0,0.02,0,0.03,0.01,0.03
					c0.01,0.01,0.02,0.01,0.03,0.01c0.01,0,0.02,0,0.03,0l0,0.07c-0.02,0.01-0.04,0.01-0.06,0.01c-0.07,0-0.11-0.04-0.11-0.11
					l-0.01-0.23l-0.07,0l0-0.07l0.07,0l0-0.1L106.1,145.03z"/>
			</g>
		</g>
		<g>
			<path class="st3" d="M86.41,142.1l0.04,0l0.02,0.61l-0.04,0L86.41,142.1z"/>
			<path class="st3" d="M86.6,142.24c0.04-0.04,0.06-0.07,0.06-0.12l-0.02-0.05l0.04,0.04c-0.01,0.01-0.01,0.01-0.03,0.01
				c-0.02,0-0.04-0.01-0.04-0.03s0.01-0.04,0.04-0.04c0.03,0,0.04,0.02,0.04,0.06c0,0.07-0.03,0.11-0.08,0.15L86.6,142.24z"/>
			<path class="st3" d="M86.82,142.25l0.03,0l0.01,0.07h0c0.04-0.05,0.09-0.08,0.14-0.08c0.07,0,0.11,0.03,0.13,0.09
				c0.05-0.06,0.1-0.09,0.15-0.1c0.09,0,0.14,0.05,0.14,0.17l0.01,0.29l-0.04,0l-0.01-0.28c0-0.09-0.04-0.14-0.1-0.14
				c-0.04,0-0.08,0.03-0.13,0.09l0.01,0.34l-0.04,0l-0.01-0.28c0-0.09-0.04-0.14-0.1-0.14c-0.04,0-0.08,0.03-0.13,0.09l0.01,0.34
				l-0.04,0L86.82,142.25z"/>
			<path class="st3" d="M87.74,142.56c0-0.1,0.08-0.15,0.28-0.18c0-0.07-0.02-0.14-0.11-0.14c-0.06,0-0.11,0.03-0.14,0.06
				l-0.02-0.03c0.03-0.02,0.09-0.06,0.16-0.06c0.11,0,0.14,0.07,0.15,0.17l0.01,0.29l-0.03,0l-0.01-0.06h0
				c-0.04,0.04-0.1,0.07-0.16,0.07C87.8,142.68,87.74,142.64,87.74,142.56z M88.03,142.56l0-0.15c-0.18,0.03-0.24,0.07-0.24,0.14
				c0,0.06,0.05,0.09,0.1,0.09C87.93,142.64,87.97,142.61,88.03,142.56z"/>
			<path class="st3" d="M88.37,142.57l0.03-0.03c0.05,0.05,0.11,0.08,0.18,0.08c0.09,0,0.15-0.06,0.15-0.13
				c0-0.08-0.05-0.1-0.11-0.12l-0.09-0.04c-0.05-0.02-0.13-0.06-0.13-0.15c0-0.09,0.07-0.15,0.17-0.16c0.07,0,0.13,0.03,0.17,0.07
				l-0.02,0.03c-0.04-0.04-0.09-0.06-0.15-0.06c-0.08,0-0.13,0.05-0.13,0.11c0,0.07,0.06,0.1,0.11,0.12l0.09,0.04
				c0.07,0.03,0.13,0.06,0.13,0.16c0,0.09-0.07,0.17-0.19,0.17C88.49,142.66,88.42,142.62,88.37,142.57z"/>
			<path class="st3" d="M88.85,142.41c0-0.15,0.08-0.24,0.19-0.24c0.11,0,0.2,0.08,0.21,0.23c0,0.15-0.09,0.24-0.19,0.24
				C88.95,142.64,88.85,142.56,88.85,142.41z M89.21,142.4c0-0.12-0.07-0.2-0.16-0.19c-0.09,0-0.16,0.09-0.15,0.2
				c0,0.12,0.07,0.2,0.16,0.19C89.15,142.6,89.21,142.52,89.21,142.4z"/>
			<path class="st3" d="M89.61,142.49l-0.01-0.29l-0.28,0.01l0-0.03l0.06-0.01l0.22-0.01l0-0.13l0.03,0l0,0.13l0.13,0l0,0.04
				l-0.13,0l0.01,0.29c0,0.06,0.02,0.09,0.08,0.09c0.02,0,0.04-0.01,0.06-0.02l0.01,0.03c-0.03,0.01-0.05,0.02-0.07,0.02
				C89.64,142.62,89.61,142.57,89.61,142.49z M89.38,142.07c0-0.09,0.04-0.14,0.11-0.14c0.02,0,0.04,0,0.07,0.01l-0.01,0.04
				c-0.02-0.01-0.04-0.01-0.05-0.01c-0.05,0-0.07,0.04-0.07,0.1l0.02,0.54l-0.04,0L89.38,142.07z"/>
			<path class="st3" d="M89.81,142.16l0.04,0l0.09,0.29c0.01,0.04,0.02,0.08,0.03,0.12h0c0.01-0.04,0.02-0.08,0.03-0.12l0.07-0.29
				l0.05,0l0.09,0.29c0.01,0.04,0.02,0.08,0.04,0.12l0,0c0.01-0.04,0.02-0.08,0.03-0.12l0.07-0.29l0.04,0l-0.11,0.45l-0.05,0
				l-0.09-0.27c-0.01-0.04-0.02-0.08-0.04-0.13h0c-0.01,0.04-0.02,0.09-0.03,0.13l-0.07,0.28l-0.05,0L89.81,142.16z"/>
			<path class="st3" d="M90.48,142.47c0-0.1,0.08-0.15,0.28-0.18c0-0.07-0.02-0.14-0.11-0.14c-0.06,0-0.11,0.03-0.14,0.06
				l-0.02-0.03c0.03-0.02,0.09-0.06,0.16-0.06c0.11,0,0.14,0.07,0.15,0.17l0.01,0.29l-0.03,0l-0.01-0.06h0
				c-0.04,0.04-0.1,0.07-0.16,0.07C90.54,142.59,90.48,142.55,90.48,142.47z M90.77,142.48l0-0.15c-0.18,0.03-0.24,0.07-0.24,0.14
				c0,0.06,0.05,0.09,0.1,0.09C90.67,142.55,90.71,142.53,90.77,142.48z"/>
			<path class="st3" d="M90.95,142.12l0.03,0l0.01,0.08h0c0.03-0.06,0.07-0.1,0.12-0.1c0.02,0,0.03,0,0.04,0.01l-0.01,0.04
				c-0.01-0.01-0.02-0.01-0.04-0.01c-0.04,0-0.09,0.03-0.12,0.12l0.01,0.3l-0.04,0L90.95,142.12z"/>
			<path class="st3" d="M91.21,142.34c0-0.15,0.09-0.24,0.19-0.24c0.11,0,0.17,0.07,0.18,0.2c0,0.01,0,0.02,0,0.03l-0.32,0.01
				c0,0.11,0.07,0.19,0.17,0.19c0.05,0,0.09-0.02,0.12-0.04l0.02,0.03c-0.04,0.02-0.07,0.05-0.14,0.05
				C91.31,142.57,91.21,142.48,91.21,142.34z M91.53,142.3c0-0.11-0.06-0.17-0.14-0.17c-0.08,0-0.14,0.07-0.15,0.18L91.53,142.3z"/>
			<path class="st3" d="M91.87,141.92l0.34-0.01l0,0.04l-0.29,0.01l0.01,0.23l0.25-0.01l0,0.04l-0.25,0.01l0.01,0.27l0.3-0.01
				l0,0.04l-0.35,0.01L91.87,141.92z"/>
			<path class="st3" d="M92.35,142.07l0.03,0l0.01,0.07h0c0.04-0.05,0.09-0.08,0.15-0.08c0.09,0,0.14,0.05,0.14,0.17l0.01,0.29
				l-0.04,0l-0.01-0.28c0-0.09-0.04-0.14-0.11-0.14c-0.05,0-0.09,0.03-0.14,0.09l0.01,0.34l-0.04,0L92.35,142.07z"/>
			<path class="st3" d="M92.82,142.6c0-0.04,0.02-0.08,0.06-0.11v0c-0.02-0.01-0.04-0.04-0.04-0.07c0-0.04,0.03-0.07,0.05-0.08v0
				c-0.03-0.02-0.06-0.07-0.06-0.12c0-0.09,0.07-0.16,0.15-0.16c0.02,0,0.05,0,0.06,0.01l0.15,0l0,0.04l-0.1,0
				c0.03,0.02,0.05,0.06,0.05,0.11c0,0.09-0.06,0.16-0.15,0.16c-0.03,0-0.05-0.01-0.08-0.02c-0.02,0.02-0.04,0.04-0.03,0.07
				c0,0.03,0.02,0.06,0.09,0.06l0.1,0c0.1,0,0.15,0.03,0.15,0.1c0,0.08-0.08,0.15-0.21,0.16C92.89,142.72,92.82,142.67,92.82,142.6z
				 M93.17,142.56c0-0.05-0.04-0.07-0.11-0.06l-0.1,0c-0.01,0-0.03,0-0.05-0.01c-0.04,0.03-0.06,0.06-0.06,0.1
				c0,0.06,0.06,0.09,0.15,0.09C93.11,142.68,93.17,142.62,93.17,142.56z M93.1,142.2c0-0.08-0.06-0.12-0.12-0.12
				s-0.11,0.05-0.11,0.13c0,0.08,0.06,0.12,0.12,0.12C93.05,142.33,93.1,142.27,93.1,142.2z"/>
			<path class="st3" d="M93.27,141.9c0-0.02,0.02-0.04,0.04-0.04c0.02,0,0.04,0.01,0.04,0.03c0,0.02-0.02,0.04-0.04,0.04
				C93.29,141.94,93.27,141.92,93.27,141.9z M93.29,142.04l0.04,0l0.01,0.45l-0.04,0L93.29,142.04z"/>
			<path class="st3" d="M93.5,142.04l0.03,0l0.01,0.07h0c0.04-0.05,0.09-0.08,0.15-0.08c0.09,0,0.14,0.05,0.14,0.17l0.01,0.29
				l-0.04,0l-0.01-0.28c0-0.09-0.03-0.14-0.11-0.14c-0.05,0-0.09,0.03-0.14,0.09l0.01,0.34l-0.04,0L93.5,142.04z"/>
			<path class="st3" d="M93.96,142.25c0-0.15,0.09-0.24,0.19-0.24c0.11,0,0.17,0.07,0.18,0.2c0,0.01,0,0.02,0,0.03L94,142.25
				c0,0.11,0.07,0.19,0.17,0.19c0.05,0,0.09-0.02,0.12-0.04l0.02,0.03c-0.03,0.02-0.07,0.05-0.14,0.05
				C94.06,142.48,93.97,142.39,93.96,142.25z M94.29,142.21c0-0.11-0.06-0.17-0.14-0.17c-0.08,0-0.14,0.07-0.15,0.18L94.29,142.21z"
				/>
			<path class="st3" d="M94.41,142.23c0-0.15,0.09-0.24,0.19-0.24c0.11,0,0.17,0.07,0.18,0.2c0,0.01,0,0.02,0,0.03l-0.32,0.01
				c0,0.11,0.07,0.19,0.17,0.19c0.05,0,0.09-0.02,0.12-0.04l0.02,0.03c-0.04,0.02-0.07,0.05-0.14,0.05
				C94.51,142.46,94.41,142.38,94.41,142.23z M94.74,142.19c0-0.11-0.06-0.17-0.14-0.17c-0.08,0-0.14,0.07-0.15,0.18L94.74,142.19z"
				/>
			<path class="st3" d="M94.89,141.99l0.03,0l0.01,0.08h0c0.03-0.06,0.07-0.1,0.12-0.1c0.02,0,0.03,0,0.04,0.01l-0.01,0.04
				c-0.01-0.01-0.02-0.01-0.04-0.01c-0.04,0-0.09,0.03-0.12,0.12l0.01,0.3l-0.04,0L94.89,141.99z"/>
			<path class="st3" d="M95.42,142.38L95.42,142.38l-0.01,0.04l-0.03,0l-0.02-0.67l0.04,0l0.01,0.19l0,0.09
				c0.04-0.04,0.1-0.07,0.15-0.08c0.12,0,0.18,0.08,0.19,0.22c0,0.15-0.08,0.24-0.19,0.25C95.51,142.43,95.46,142.41,95.42,142.38z
				 M95.7,142.18c0-0.11-0.04-0.19-0.15-0.19c-0.04,0-0.09,0.03-0.14,0.08l0.01,0.26c0.05,0.04,0.1,0.05,0.13,0.05
				C95.64,142.39,95.7,142.31,95.7,142.18z"/>
			<path class="st3" d="M95.83,142.3c0-0.1,0.08-0.15,0.28-0.18c0-0.07-0.02-0.14-0.11-0.14c-0.06,0-0.11,0.03-0.14,0.06l-0.02-0.03
				c0.03-0.02,0.09-0.06,0.16-0.06c0.11,0,0.14,0.07,0.15,0.17l0.01,0.29l-0.03,0l-0.01-0.06h0c-0.04,0.04-0.1,0.07-0.16,0.07
				C95.9,142.42,95.83,142.38,95.83,142.3z M96.12,142.3l0-0.15c-0.18,0.03-0.24,0.07-0.24,0.14c0,0.06,0.05,0.09,0.1,0.08
				C96.02,142.38,96.07,142.35,96.12,142.3z"/>
			<path class="st3" d="M96.26,142.35l0.02-0.03c0.04,0.03,0.08,0.05,0.14,0.05c0.07,0,0.11-0.04,0.1-0.09
				c0-0.06-0.06-0.08-0.11-0.1c-0.07-0.02-0.14-0.05-0.15-0.12c0-0.06,0.05-0.12,0.14-0.12c0.05,0,0.09,0.02,0.13,0.04l-0.02,0.03
				c-0.03-0.02-0.06-0.04-0.11-0.04c-0.07,0-0.1,0.04-0.1,0.08c0,0.05,0.05,0.07,0.11,0.09c0.07,0.02,0.15,0.04,0.15,0.13
				c0,0.07-0.05,0.13-0.15,0.13C96.36,142.4,96.31,142.38,96.26,142.35z"/>
			<path class="st3" d="M96.65,142.16c0-0.15,0.09-0.24,0.19-0.24c0.11,0,0.17,0.07,0.18,0.2c0,0.01,0,0.02,0,0.03l-0.32,0.01
				c0,0.11,0.07,0.19,0.17,0.19c0.05,0,0.09-0.02,0.12-0.04l0.02,0.03c-0.03,0.02-0.07,0.05-0.14,0.05
				C96.75,142.39,96.66,142.31,96.65,142.16z M96.98,142.12c0-0.11-0.06-0.17-0.14-0.17c-0.08,0-0.14,0.07-0.15,0.18L96.98,142.12z"
				/>
			<path class="st3" d="M97.1,142.15c0-0.14,0.08-0.24,0.19-0.24c0.05,0,0.09,0.02,0.14,0.05l0-0.08l-0.01-0.18l0.04,0l0.02,0.67
				l-0.04,0l-0.01-0.06h0c-0.04,0.04-0.08,0.07-0.14,0.07C97.18,142.38,97.1,142.3,97.1,142.15z M97.43,142.26l-0.01-0.27
				c-0.05-0.04-0.09-0.05-0.13-0.05c-0.09,0-0.16,0.09-0.15,0.21c0,0.12,0.06,0.2,0.15,0.19C97.35,142.34,97.39,142.31,97.43,142.26
				z"/>
			<path class="st3" d="M97.8,141.76c0-0.02,0.02-0.04,0.04-0.04c0.02,0,0.04,0.01,0.04,0.04c0,0.02-0.02,0.04-0.04,0.04
				C97.82,141.79,97.8,141.78,97.8,141.76z M97.82,141.9l0.04,0l0.01,0.45l-0.04,0L97.82,141.9z"/>
			<path class="st3" d="M98.03,141.89l0.03,0l0.01,0.07h0c0.04-0.05,0.09-0.08,0.15-0.08c0.09,0,0.14,0.05,0.14,0.17l0.01,0.29
				l-0.04,0l-0.01-0.28c0-0.09-0.04-0.14-0.11-0.14c-0.05,0-0.09,0.03-0.14,0.09l0.01,0.34l-0.04,0L98.03,141.89z"/>
			<path class="st3" d="M98.62,141.71l0.04,0l0.13,0.35c0.03,0.07,0.04,0.13,0.07,0.2h0c0.02-0.08,0.04-0.13,0.06-0.21l0.1-0.36
				l0.04,0l-0.18,0.62l-0.05,0L98.62,141.71z"/>
			<path class="st3" d="M99.13,142.19c0-0.1,0.08-0.15,0.28-0.18c0-0.07-0.02-0.14-0.11-0.14c-0.06,0-0.11,0.03-0.14,0.06
				l-0.02-0.03c0.03-0.02,0.09-0.06,0.17-0.06c0.11,0,0.14,0.07,0.15,0.17l0.01,0.29l-0.04,0l-0.01-0.06h0
				c-0.04,0.04-0.1,0.07-0.16,0.07C99.19,142.31,99.13,142.28,99.13,142.19z M99.42,142.2l0-0.15c-0.18,0.03-0.24,0.07-0.24,0.14
				c0,0.06,0.05,0.09,0.1,0.09C99.32,142.27,99.36,142.25,99.42,142.2z"/>
			<path class="st3" d="M99.6,141.84l0.03,0l0.01,0.07h0c0.04-0.05,0.09-0.08,0.15-0.08c0.09,0,0.14,0.05,0.14,0.17l0.01,0.29
				l-0.04,0L99.9,142c0-0.09-0.03-0.14-0.11-0.14c-0.05,0-0.09,0.03-0.14,0.09l0.01,0.34l-0.04,0L99.6,141.84z"/>
			<path class="st3" d="M100.06,142.05c0-0.15,0.09-0.24,0.2-0.24c0.06,0,0.1,0.02,0.13,0.05l-0.02,0.03
				c-0.03-0.03-0.06-0.05-0.11-0.04c-0.09,0-0.16,0.09-0.16,0.2s0.07,0.2,0.17,0.19c0.05,0,0.09-0.03,0.12-0.06l0.02,0.03
				c-0.04,0.04-0.08,0.06-0.14,0.06C100.16,142.28,100.07,142.2,100.06,142.05z"/>
			<path class="st3" d="M100.46,142.04c0-0.15,0.09-0.24,0.19-0.24c0.11,0,0.2,0.08,0.21,0.23c0,0.15-0.09,0.24-0.19,0.24
				C100.56,142.27,100.47,142.19,100.46,142.04z M100.82,142.03c0-0.12-0.07-0.2-0.16-0.19c-0.09,0-0.16,0.09-0.15,0.2
				s0.07,0.2,0.16,0.19C100.76,142.23,100.83,142.14,100.82,142.03z"/>
			<path class="st3" d="M100.99,142.08l-0.01-0.29l0.04,0l0.01,0.28c0,0.09,0.03,0.14,0.11,0.14c0.05,0,0.09-0.03,0.14-0.1
				l-0.01-0.33l0.04,0l0.01,0.45l-0.04,0l-0.01-0.08h0c-0.04,0.05-0.09,0.09-0.15,0.09C101.04,142.25,101,142.2,100.99,142.08z"/>
			<path class="st3" d="M101.4,141.78l0.04,0l0.11,0.28c0.02,0.04,0.03,0.09,0.05,0.13h0c0.01-0.04,0.03-0.09,0.04-0.13l0.09-0.28
				l0.04,0l-0.15,0.45l-0.05,0L101.4,141.78z"/>
			<path class="st3" d="M101.85,141.99c0-0.14,0.09-0.24,0.19-0.24c0.11,0,0.17,0.07,0.18,0.2c0,0.01,0,0.02,0,0.03l-0.32,0.01
				c0,0.11,0.07,0.19,0.17,0.19c0.05,0,0.09-0.02,0.12-0.04l0.02,0.03c-0.04,0.02-0.07,0.05-0.14,0.05
				C101.95,142.22,101.86,142.14,101.85,141.99z M102.18,141.95c0-0.11-0.06-0.17-0.14-0.17c-0.08,0-0.14,0.07-0.15,0.18
				L102.18,141.95z"/>
			<path class="st3" d="M102.33,141.75l0.03,0l0.01,0.08h0c0.03-0.06,0.07-0.1,0.12-0.1c0.02,0,0.03,0,0.04,0.01l-0.01,0.04
				c-0.01-0.01-0.02-0.01-0.04-0.01c-0.04,0-0.09,0.03-0.12,0.12l0.01,0.3l-0.04,0L102.33,141.75z"/>
			<path class="st3" d="M102.56,142.31c0.04-0.02,0.07-0.06,0.07-0.12l-0.01-0.06l0.04,0.04c-0.01,0.01-0.02,0.02-0.03,0.02
				c-0.02,0-0.04-0.01-0.04-0.04c0-0.03,0.02-0.04,0.04-0.04c0.03,0,0.05,0.02,0.05,0.07c0,0.07-0.04,0.12-0.09,0.15L102.56,142.31z
				"/>
			<path class="st3" d="M102.94,141.87c-0.01-0.2,0.1-0.32,0.25-0.33c0.07,0,0.13,0.03,0.16,0.07l-0.02,0.03
				c-0.03-0.04-0.08-0.06-0.14-0.06c-0.13,0-0.21,0.11-0.21,0.28c0.01,0.17,0.09,0.28,0.22,0.27c0.06,0,0.11-0.03,0.15-0.08
				l0.03,0.03c-0.05,0.05-0.1,0.09-0.18,0.09C103.06,142.19,102.95,142.07,102.94,141.87z"/>
			<path class="st3" d="M103.47,142.05c0-0.1,0.08-0.15,0.28-0.18c0-0.07-0.02-0.14-0.11-0.14c-0.06,0-0.11,0.03-0.14,0.06
				l-0.02-0.03c0.03-0.02,0.09-0.06,0.17-0.06c0.11,0,0.14,0.07,0.15,0.17l0.01,0.29l-0.04,0l-0.01-0.06h0
				c-0.04,0.04-0.1,0.07-0.16,0.07C103.54,142.17,103.48,142.14,103.47,142.05z M103.76,142.06l0-0.15
				c-0.18,0.03-0.24,0.07-0.24,0.14c0,0.06,0.05,0.09,0.1,0.09C103.66,142.13,103.71,142.11,103.76,142.06z"/>
			<path class="st3" d="M103.95,141.7l0.04,0l0.01,0.07h0c0.04-0.05,0.09-0.08,0.15-0.08c0.09,0,0.14,0.05,0.14,0.17l0.01,0.29
				l-0.04,0l-0.01-0.28c0-0.09-0.04-0.14-0.11-0.14c-0.05,0-0.09,0.03-0.14,0.09l0.01,0.34l-0.04,0L103.95,141.7z"/>
			<path class="st3" d="M104.42,142.02c0-0.1,0.08-0.15,0.28-0.18c0-0.07-0.02-0.14-0.11-0.14c-0.06,0-0.11,0.03-0.14,0.06
				l-0.02-0.03c0.03-0.02,0.09-0.06,0.17-0.06c0.11,0,0.14,0.07,0.15,0.17l0.01,0.29l-0.03,0l-0.01-0.06h0
				c-0.04,0.04-0.1,0.07-0.16,0.07C104.48,142.14,104.42,142.11,104.42,142.02z M104.71,142.03l0-0.15
				c-0.18,0.03-0.24,0.07-0.24,0.14c0,0.06,0.05,0.09,0.1,0.08C104.61,142.1,104.65,142.08,104.71,142.03z"/>
			<path class="st3" d="M104.87,141.9c0-0.14,0.08-0.24,0.19-0.24c0.05,0,0.09,0.02,0.14,0.05l0-0.08l-0.01-0.18l0.04,0l0.02,0.67
				l-0.03,0l-0.01-0.06h0c-0.04,0.04-0.08,0.07-0.14,0.07C104.95,142.13,104.87,142.05,104.87,141.9z M105.2,142.01l-0.01-0.27
				c-0.05-0.04-0.09-0.05-0.13-0.05c-0.09,0-0.15,0.09-0.15,0.2c0,0.12,0.06,0.2,0.15,0.19
				C105.11,142.09,105.15,142.06,105.2,142.01z"/>
			<path class="st3" d="M105.38,141.99c0-0.1,0.09-0.15,0.28-0.18c0-0.07-0.02-0.14-0.11-0.14c-0.06,0-0.11,0.03-0.14,0.06
				l-0.02-0.03c0.03-0.02,0.09-0.06,0.17-0.06c0.11,0,0.14,0.07,0.15,0.17l0.01,0.29l-0.03,0l-0.01-0.06h0
				c-0.04,0.04-0.1,0.07-0.16,0.07C105.44,142.11,105.38,142.08,105.38,141.99z M105.67,142l0-0.15c-0.18,0.03-0.24,0.07-0.24,0.14
				c0,0.06,0.05,0.09,0.1,0.09C105.57,142.07,105.61,142.05,105.67,142z"/>
			<path class="st3" d="M105.84,142.06c0-0.03,0.02-0.04,0.04-0.04c0.02,0,0.04,0.01,0.04,0.04c0,0.03-0.02,0.04-0.04,0.04
				C105.86,142.1,105.84,142.08,105.84,142.06z"/>
		</g>
		<g>
			<path class="st25" d="M87.48,147.07c-0.6,0-1.09-0.47-1.11-1.08c-0.02-0.61,0.46-1.13,1.07-1.15l4.78-0.15c0.01,0,0.02,0,0.04,0
				c0.6,0,1.09,0.48,1.11,1.08c0.01,0.3-0.1,0.58-0.3,0.79s-0.48,0.34-0.78,0.35l-4.78,0.15C87.5,147.07,87.49,147.07,87.48,147.07z
				 M92.26,144.77c-0.01,0-0.02,0-0.03,0l-4.78,0.15c-0.28,0.01-0.53,0.12-0.72,0.33c-0.19,0.2-0.29,0.46-0.28,0.74
				c0.02,0.56,0.48,1,1.03,1c0.01,0,0.02,0,0.03,0l4.78-0.15c0.28-0.01,0.53-0.12,0.72-0.33c0.19-0.2,0.29-0.46,0.28-0.74
				c-0.01-0.28-0.12-0.53-0.33-0.72C92.77,144.87,92.52,144.77,92.26,144.77z"/>
		</g>
		<g>
			<path class="st26" d="M94.99,146.83c-0.6,0-1.09-0.47-1.11-1.08c-0.02-0.61,0.46-1.13,1.07-1.15l4.78-0.15c0.01,0,0.02,0,0.04,0
				c0.6,0,1.09,0.47,1.11,1.08c0.01,0.3-0.1,0.58-0.3,0.8s-0.48,0.34-0.78,0.35l-4.78,0.15C95.01,146.83,95,146.83,94.99,146.83z
				 M99.77,144.53c-0.01,0-0.02,0-0.03,0l-4.78,0.15c-0.57,0.02-1.02,0.5-1,1.07c0.02,0.56,0.48,1,1.03,1c0.01,0,0.02,0,0.03,0
				l4.78-0.15c0.28-0.01,0.53-0.12,0.72-0.33s0.29-0.46,0.28-0.74c-0.01-0.28-0.12-0.53-0.33-0.72
				C100.28,144.63,100.03,144.53,99.77,144.53z"/>
		</g>
		<g>
			<path class="st27" d="M102.46,146.59c-0.6,0-1.09-0.48-1.11-1.08c-0.02-0.61,0.46-1.13,1.07-1.14l4.78-0.15c0.01,0,0.02,0,0.04,0
				c0.6,0,1.09,0.47,1.11,1.08c0.01,0.3-0.1,0.58-0.3,0.8s-0.48,0.34-0.77,0.35l-4.78,0.15
				C102.48,146.59,102.47,146.59,102.46,146.59z M107.24,144.29c-0.01,0-0.02,0-0.03,0l-4.78,0.15c-0.28,0.01-0.53,0.12-0.72,0.33
				c-0.19,0.2-0.29,0.46-0.28,0.74c0.02,0.56,0.48,1,1.03,1c0.01,0,0.02,0,0.03,0l4.78-0.15c0.28-0.01,0.53-0.12,0.72-0.33
				c0.19-0.2,0.29-0.46,0.28-0.74C108.25,144.73,107.79,144.29,107.24,144.29z"/>
		</g>
		<g>
			<polygon class="st3" points="86.34,143.95 86.34,143.93 108.24,143.23 108.24,143.25 			"/>
		</g>
		<g>
			<g>
				<g>
					<path class="st2" d="M120.46,150.91c0,0,0.07,0.26,0.09,0.43c0.02,0.17,0.05,0.26,0.01,0.3c-0.04,0.04-0.28,0.18-0.34,0.17
						c-0.06-0.01-0.16-0.07-0.22-0.05c-0.05,0.02-0.09,0.16-0.13,0.17c-0.04,0.02-0.33,0.19-0.52,0.27
						c-0.19,0.08-0.56,0.18-0.63,0.14c-0.07-0.04-0.18-0.16-0.22-0.28c-0.03-0.12-0.03-0.16,0.02-0.22
						c0.05-0.06,0.22-0.07,0.54-0.22c0.12-0.05,0.3-0.11,0.4-0.21c0.17-0.18,0.27-0.38,0.27-0.38L120.46,150.91z"/>
				</g>
				<g>
					<path class="st3" d="M118.6,152.21c0,0,0.22,0.03,0.63-0.1c0.42-0.13,0.57-0.23,0.64-0.28c0.07-0.05,0.2-0.18,0.27-0.18
						s0.09,0.07,0.13,0.06c0.04-0.01,0.11-0.06,0.17-0.1c0.06-0.04,0.12-0.1,0.12-0.1s0.01,0.09,0,0.13c0,0.04-0.28,0.19-0.35,0.18
						c-0.07-0.01-0.1-0.08-0.19-0.05c-0.09,0.03-0.13,0.17-0.27,0.25s-0.31,0.17-0.49,0.22c-0.17,0.05-0.42,0.12-0.5,0.12
						S118.6,152.21,118.6,152.21z"/>
				</g>
				<g>
					<path class="st3" d="M119.04,151.64c0,0,0.17,0.08,0.36-0.02s0.35-0.31,0.35-0.31s0.12,0.02,0.31-0.03
						c0.19-0.05,0.37-0.19,0.37-0.19l-0.77,0.08c0,0-0.09,0.15-0.2,0.25S119.04,151.64,119.04,151.64z"/>
				</g>
			</g>
			<g>
				<g>
					<path class="st2" d="M121.17,150.98c0,0,0.01,0.29,0.03,0.35c0.03,0.08,0.13,0.08,0.13,0.08l0.39,0.8c0,0,0.11,0.25,0.44,0.26
						c0.39,0.01,0.47-0.21,0.47-0.29c0-0.08-0.01-0.2-0.05-0.27c-0.04-0.07-0.24-0.26-0.43-0.47s-0.29-0.39-0.29-0.39l-0.01-0.11
						L121.17,150.98z"/>
				</g>
				<g>
					<path class="st3" d="M121.2,150.98c0,0,0.14,0.07,0.24,0.16c0.1,0.1,0.33,0.45,0.43,0.5c0.1,0.04,0.19,0.01,0.26-0.03
						c0.07-0.04,0.08-0.1,0.04-0.15s-0.31-0.37-0.33-0.41c-0.02-0.04-0.01-0.1-0.01-0.1s-0.11,0.01-0.28,0.01
						C121.38,150.96,121.2,150.98,121.2,150.98z"/>
				</g>
				<g>
					<path class="st3" d="M122.58,151.91c0,0,0.02,0.14,0,0.17s-0.09,0.02-0.19,0.07c-0.1,0.04-0.28,0.18-0.35,0.19
						c-0.07,0.01-0.17,0.03-0.21-0.03c-0.04-0.06-0.43-0.98-0.45-1c-0.02-0.01-0.08,0.03-0.11,0c-0.02-0.02-0.09-0.06-0.09-0.06
						s0,0.11,0.06,0.13c0.06,0.02,0.08,0.02,0.08,0.02l0.41,0.84c0,0,0.06,0.15,0.22,0.19c0.13,0.03,0.34,0.06,0.52-0.04
						c0.07-0.04,0.14-0.13,0.15-0.2C122.66,152.05,122.58,151.91,122.58,151.91z"/>
				</g>
			</g>
			<g>
				<g>
					<path class="st4" d="M121.89,150.6c0.01-0.08-0.07-0.16-0.07-0.2s0.08-0.17,0.08-0.22s-0.03-0.17-0.03-0.25s0-0.61-0.04-1.02
						c-0.03-0.34-0.07-0.7-0.07-0.73c0-0.03-0.03-0.36-0.03-0.4s-0.01-0.1-0.02-0.4c-0.01-0.22,0-2.25,0-2.25s-0.39,0.19-1.14,0.24
						s-1.23-0.17-1.23-0.17s-0.13,2.74-0.13,2.78c0,0.02,0.08,0.15,0.06,0.2c-0.03,0.06,0.03,0.3,0.07,0.67s0.25,1.19,0.26,1.24
						c0,0.05-0.03,0.22-0.01,0.28c0.02,0.06,0.11,0.19,0.12,0.23c0.01,0.04-0.06,0.16-0.04,0.24c0.03,0.08,0.02,0.22,0.05,0.24
						c0,0,0.06,0.14,0.37,0.1c0.31-0.04,0.41-0.15,0.41-0.15s-0.34-2.93-0.34-2.99c0-0.06,0.3-2.34,0.3-2.34s0.05-0.01,0.1-0.01
						c0.06,0,0.13-0.02,0.13-0.02l0.4,5.33c0,0,0.2,0.1,0.5,0.08c0.3-0.02,0.29-0.12,0.29-0.12
						C121.95,150.89,121.89,150.62,121.89,150.6z"/>
				</g>
				<g class="st6">
					<path class="st3" d="M119.47,145.24c0,0,0.72,0.29,1.45,0.22c0.42-0.04,0.79-0.2,0.79-0.2l-0.01-0.14c0,0-0.41,0.17-0.84,0.21
						c-0.28,0.03-0.56,0.04-0.78,0.03C119.71,145.33,119.47,145.24,119.47,145.24z"/>
				</g>
				<g class="st6">
					<path class="st3" d="M120.19,145.63l0.27,0.06c0,0-0.31,2.27-0.31,2.34c0,0.07,0.34,2.99,0.34,2.99s-0.1,0.09-0.35,0.13
						c-0.14,0.02-0.25,0.02-0.25,0.02s0.16,0.02,0.31-0.11s0.15-0.4,0.15-0.4s-0.01-0.36-0.06-0.68s-0.33-1.79-0.34-1.89
						C119.95,147.9,120.19,145.63,120.19,145.63z"/>
				</g>
				<g class="st6">
					<g>
						<path class="st3" d="M119.78,148.07c0.1-0.01,0.19-0.02,0.29-0.02l0,0l0.1-0.04l-0.09,0.06l0,0
							C119.98,148.08,119.88,148.07,119.78,148.07z"/>
					</g>
				</g>
				<g class="st6">
					<path class="st3" d="M121.9,150.95c0.05-0.06-0.01-0.33,0-0.36c0.01-0.08-0.07-0.16-0.07-0.2s0.08-0.17,0.08-0.22
						s-0.03-0.17-0.03-0.25s0-0.61-0.04-1.02c-0.03-0.34-0.07-0.7-0.07-0.73c0-0.03-0.03-0.36-0.03-0.4s-0.01-0.1-0.02-0.4
						c-0.01-0.22,0-2.11,0-2.11l-0.13,0.03c0,0-0.04,1.9,0.03,2.64c0.06,0.74,0.26,3.07,0.26,3.07h0
						C121.9,150.97,121.9,150.95,121.9,150.95z"/>
				</g>
			</g>
			<g>
				<g>
					<path class="st7" d="M119.67,140.66c0,0,0.41-0.18,0.79-0.19c0.43-0.01,0.56,0.11,0.56,0.11s0.3,0.14-0.57,0.17
						C119.59,140.77,119.67,140.66,119.67,140.66z"/>
				</g>
				<g>
					<path class="st8" d="M121.65,141.77c0,0,1.22,1.9,1.26,2.07c0.04,0.16,0.11,0.41,0.11,0.41l0.5-0.05c0,0,0.06-0.04,0.1-0.29
						s-1.23-2.69-1.39-2.8c-0.16-0.11-1.27-0.35-1.27-0.35l-0.08,0.76L121.65,141.77z"/>
				</g>
				<g>
					<path class="st8" d="M120.15,140.14l-0.02,0.39l-0.54,0.18c0,0,0.19,0.4,0.86,0.38s0.79-0.43,0.79-0.43l-0.51-0.15l-0.05-0.38
						L120.15,140.14z"/>
				</g>
				<g>
					<path class="st8" d="M118.82,141.02c0,0-0.27,0.34-0.43,0.65c-0.4,0.78-0.8,1.55-0.91,1.75c-0.07,0.12-1.43-1.71-1.43-1.71
						l-0.45,0.36c0,0,1.63,2.3,1.99,2.2c0.35-0.09,1.35-1.88,1.35-1.88l1.22-1.39l-0.02-0.41L118.82,141.02z"/>
				</g>
				<g>
					<path class="st9" d="M122.21,141.01c-0.14-0.1-1.13-0.41-1.24-0.46c0,0,0.08,0.12-0.55,0.13c-0.62,0.01-0.56-0.09-0.56-0.09
						s-0.95,0.31-1.11,0.47c-0.1,0.09-0.83,1.39-0.9,1.54c-0.07,0.16,0.71,0.52,0.78,0.4c0.1-0.15,0.41-0.64,0.41-0.64
						s0.07,0.26,0.12,0.91c0.05,0.67,0.1,2.04,0.1,2.04s0.28,0,0.58,0.04c0.26,0.04,0.43,0.11,0.61,0.09
						c0.17-0.02,0.38-0.09,0.44-0.09c0.31-0.04,0.87-0.09,0.87-0.09s-0.05-1.46-0.04-1.97s0.07-1.19,0.07-1.19s0.46,0.72,0.5,0.8
						c0.06,0.11,0.8-0.09,0.8-0.26C123.12,142.52,122.47,141.19,122.21,141.01z"/>
				</g>
				<g class="st6">
					<path class="st3" d="M121.68,143.14c-0.02,0.78,0.02,2.12,0.02,2.12l0.06,0c0,0-0.05-1.63-0.04-2.07
						c0.02-0.48,0.08-1.39,0.13-1.61C121.87,141.57,121.71,142.34,121.68,143.14z"/>
				</g>
				<g class="st6">
					<path class="st3" d="M119.23,143.28c0.06,0.77,0.09,2.02,0.09,2.02l-0.06,0c0,0-0.07-1.7-0.11-2.14
						c-0.04-0.48-0.22-1.56-0.28-1.78C118.87,141.39,119.17,142.52,119.23,143.28z"/>
				</g>
			</g>
			<g>
				<g>
					<path class="st8" d="M118.48,136.95c-0.18-0.51-0.69-0.56-0.87-0.42c-0.18,0.14-0.08,0.53,0.09,0.91
						c0.17,0.38,0.57,0.7,0.77,0.71C118.66,138.15,118.66,137.46,118.48,136.95z"/>
				</g>
				<g>
					<path class="st8" d="M117.82,135.33c0,0,0.15,1.38,0.45,2.61c0.28,1.15,0.7,1.55,1.11,2c0.32,0.35,0.7,0.5,1.12,0.46
						c0.43-0.03,0.68-0.23,1.26-0.8c0.41-0.41,0.57-0.88,0.85-1.85c0.31-1.1,0.33-2.59,0.33-2.59s-1.14-0.71-2.58-0.63
						C118.91,134.62,117.82,135.33,117.82,135.33z"/>
				</g>
				<g>
					<path class="st8" d="M122.34,136.9c0.16-0.52,0.66-0.59,0.85-0.46c0.18,0.13,0.1,0.53-0.05,0.92
						c-0.16,0.39-0.54,0.72-0.73,0.74C122.21,138.11,122.18,137.42,122.34,136.9z"/>
				</g>
				<g class="st24">
					<path class="st28" d="M118.13,137.3c0,0,0.1,0.87,0.52,1.69c0.1,0.2,0.2,0.34,0.37,0.55c0.33,0.43,0.78,0.88,1.38,0.87
						c0.55-0.01,0.94-0.29,1.52-0.99c0.4-0.48,0.78-2.06,0.78-2.06s-0.43,1.18-0.65,1.53c-0.37,0.57-0.87-0.22-1.64-0.2
						c-0.88,0.03-1.33,0.85-1.64,0.25C118.38,138.18,118.13,137.3,118.13,137.3z"/>
				</g>
				<g>
					<path class="st11" d="M120.32,137.42c-0.01,0.16-0.06,0.31-0.06,0.46c-0.01,0.07-0.01,0.15-0.01,0.23
						c0.01,0.06,0,0.19,0.09,0.15c-0.09,0.07-0.14-0.09-0.14-0.14c-0.01-0.08-0.02-0.16-0.02-0.24
						C120.21,137.71,120.24,137.56,120.32,137.42z"/>
				</g>
				<g>
					<g>
						<path class="st12" d="M120.01,139.4c0,0,0.04,0.15,0.39,0.11c0.31-0.03,0.56-0.18,0.06-0.13
							C120.26,139.4,120.01,139.4,120.01,139.4z"/>
					</g>
					<g>
						<path class="st13" d="M120.01,139.4c0,0,0.28,0.07,0.49,0.04c0.21-0.03,0.22-0.06,0.22-0.06s-0.13-0.01-0.26,0
							C120.33,139.39,120.01,139.4,120.01,139.4z"/>
					</g>
				</g>
				<g>
					<path class="st14" d="M121.45,136.52c0.06-0.07-0.06-0.28-0.34-0.39c-0.28-0.12-0.51-0.22-0.7-0.22c-0.08,0-0.09,0.2-0.03,0.21
						c0.06,0.02,0.21,0.04,0.52,0.14C121.27,136.38,121.41,136.56,121.45,136.52z"/>
				</g>
				<g>
					<path class="st14" d="M118.93,136.58c-0.06-0.06,0.07-0.3,0.35-0.43c0.27-0.13,0.41-0.2,0.62-0.23
						c0.11-0.01,0.15,0.18,0.1,0.22c-0.05,0.04-0.28,0.06-0.59,0.18C119.03,136.46,118.97,136.63,118.93,136.58z"/>
				</g>
				<g>
					<path class="st15" d="M120.83,137.04c0,0,0.13,0.05,0.17-0.04c0.03-0.09,0-0.18-0.08-0.22c-0.09-0.04-0.19,0.04-0.19,0.13
						C120.72,137.01,120.83,137.04,120.83,137.04z"/>
				</g>
				<g>
					<path class="st15" d="M119.64,137.08c0,0-0.13,0.06-0.17-0.03c-0.04-0.09-0.01-0.18,0.07-0.22c0.08-0.04,0.19,0.03,0.2,0.12
						C119.75,137.04,119.64,137.08,119.64,137.08z"/>
				</g>
			</g>
			<g>
				<path class="st16" d="M122.6,137.21l0.07,0.03c0.13-0.41,0.42-1.88,0.24-2.55c-0.41-1.55-1.03-1.44-1.03-1.44l0.08,0.22
					c0,0-0.44-0.3-0.71-0.39c-0.27-0.09-0.59-0.09-0.59-0.09l0.46,0.25c0,0-0.8-0.27-1.73-0.01c-0.93,0.25-1.54,0.86-1.54,0.86
					l0.26-0.06c0,0-0.4,0.49-0.46,0.85c-0.06,0.36,0,0.54-0.05,0.67c-0.05,0.13,0.2-0.34,0.2-0.34s0.07,0.54,0.13,1
					c0.06,0.47,0.23,1.11,0.23,1.11l0.07-0.04c0,0-0.04-0.39-0.06-1.05c-0.02-0.66,0.09-1,0.25-1.07c0.43-0.2,0.97-0.19,1.04-0.17
					c0.15,0.05-0.27,0.3-0.27,0.3c0.33-0.03,0.76-0.28,0.7-0.23c-0.14,0.14-0.4,0.26-0.4,0.26s0.58,0.07,1-0.07
					c0.42-0.14,0.56-0.24,0.71-0.32c0.15-0.08,0.84-0.13,1.02,0c0.18,0.12,0.51,0.34,0.51,0.95
					C122.73,136.35,122.6,137.21,122.6,137.21z"/>
			</g>
			<g>
				<path class="st11" d="M117.48,143.42c0.05,0.12,0.09,0.24,0.1,0.37C117.55,143.66,117.52,143.54,117.48,143.42z"/>
			</g>
			<g>
				<path class="st11" d="M123,143.82c0.17-0.01,0.35,0,0.49,0.08C123.35,143.83,123.17,143.82,123,143.82z"/>
			</g>
			<g class="st29">
				<polygon class="st13" points="122.27,144.14 122.34,144.19 122.28,145.08 				"/>
			</g>
			<g class="st29">
				<path class="st13" d="M122.24,143.44c0,0-0.23,0.16-0.24,0.3c0,0.14,0.22,0.29,0.22,0.29s-0.17-0.15-0.17-0.29
					S122.24,143.44,122.24,143.44z"/>
			</g>
			<g>
				<g>
					<path class="st8" d="M116.24,141.89c0.03-0.04,0.1-0.14,0.17-0.23c0.07-0.1,0.02-0.28,0.07-0.46c0.05-0.18,0.05-0.19,0-0.22
						c-0.04-0.02-0.15-0.01-0.22,0.14c-0.06,0.12-0.03,0.31-0.05,0.29c-0.05-0.06-0.16-0.23-0.18-0.35
						c-0.02-0.15-0.03-0.39-0.02-0.54c0-0.15,0.02-0.4-0.09-0.4c-0.11,0-0.1,0.2-0.11,0.3s-0.03,0.5-0.03,0.5l-0.05,0
						c0,0-0.13-0.68-0.14-0.78c-0.02-0.09-0.07-0.12-0.12-0.11c-0.05,0.01-0.07,0.06-0.06,0.13c0,0.07,0.1,0.79,0.1,0.79l-0.04,0.01
						c0,0-0.21-0.61-0.23-0.65s-0.06-0.1-0.13-0.08c-0.07,0.03-0.05,0.13-0.03,0.17c0.02,0.04,0.19,0.64,0.19,0.64l-0.05,0.02
						c0,0-0.13-0.24-0.17-0.31c-0.05-0.1-0.13-0.21-0.18-0.18c-0.06,0.03-0.04,0.1,0.01,0.22c0.05,0.11,0.18,0.37,0.2,0.45
						c0.02,0.08,0.05,0.31,0.2,0.54c0.05,0.08,0.27,0.28,0.43,0.31C115.87,142.13,116.15,142,116.24,141.89z"/>
				</g>
				<g>
					<path class="st11" d="M115.93,141.08c-0.08,0.16-0.17,0.31-0.16,0.5C115.75,141.4,115.84,141.24,115.93,141.08z"/>
				</g>
				<g class="st24">
					<path class="st3" d="M116.1,141.99c0,0,0.09-0.06,0.16-0.15c0.08-0.1,0.17-0.26,0.15-0.43c-0.01-0.1,0.02-0.2,0.03-0.26
						c0.02-0.07,0.07-0.12,0.07-0.12s0.01,0.05-0.02,0.13c-0.01,0.03-0.04,0.12-0.04,0.22c0,0.06,0,0.21-0.03,0.28
						c-0.02,0.05-0.03,0.06-0.06,0.09c-0.07,0.08-0.13,0.16-0.18,0.2C116.12,141.98,116.1,141.99,116.1,141.99z"/>
				</g>
				<g>
					<path class="st11" d="M115.32,141.49c0.08,0,0.16-0.05,0.22-0.1c0.06-0.05,0.14-0.11,0.16-0.19c-0.02,0.08-0.09,0.14-0.15,0.2
						C115.48,141.44,115.41,141.49,115.32,141.49z"/>
				</g>
				<g>
					<path class="st11" d="M116.07,142.02c0.12-0.06,0.2-0.16,0.27-0.27c0.1-0.09,0.12-0.23,0.11-0.36c0.01,0.13-0.01,0.27-0.1,0.36
						C116.28,141.86,116.19,141.96,116.07,142.02z"/>
				</g>
				<g>
					<path class="st11" d="M115.91,142.08c-0.16,0.07-0.32-0.01-0.44-0.11C115.59,142.07,115.75,142.14,115.91,142.08z"/>
				</g>
			</g>
		</g>
		<g>
			<g>
				<path class="st30" d="M121.25,142.9c-0.01,0.01-0.01,0.02-0.01,0.02l0.17,2.24l3.49-0.21l-0.07-2.25c0,0,0-0.01-0.01-0.02
					c-0.01-0.01-0.03-0.01-0.03-0.01l-3.51,0.22C121.27,142.89,121.25,142.89,121.25,142.9z"/>
				<path class="st31" d="M121.34,145.25l-0.17-2.32c0-0.02,0-0.04,0.02-0.07c0.02-0.03,0.06-0.04,0.08-0.04l3.51-0.22
					c0.02,0,0.07,0,0.09,0.04c0.03,0.03,0.03,0.06,0.03,0.08l0.07,2.32l-0.07,0L121.34,145.25z M121.32,142.97l0.16,2.12l3.34-0.2
					l-0.07-2.13L121.32,142.97z M121.28,142.97L121.28,142.97L121.28,142.97C121.27,142.97,121.27,142.97,121.28,142.97z
					 M124.79,142.75L124.79,142.75C124.78,142.75,124.79,142.75,124.79,142.75z M124.74,142.71
					C124.74,142.71,124.74,142.71,124.74,142.71L124.74,142.71z"/>
			</g>
			<g>
				<polyline class="st19" points="121.41,145.16 121.01,145.41 125.25,145.15 124.89,144.95 				"/>
			</g>
			<g>
				<path class="st20" d="M121.01,145.41l0.01,0.13c0,0,0,0.01,0,0.01s0.01,0,0.01,0l4.19-0.25c0,0,0.01,0,0.02-0.01
					s0.01-0.02,0.01-0.02l0-0.12"/>
			</g>
			<g>
				<polygon class="st21" points="121.67,145.19 121.53,145.3 124.78,145.09 124.64,145.01 				"/>
			</g>
		</g>
		<g>
			<g>
				<path class="st8" d="M122.7,145.45c0,0.07,0.01,0.11,0.09,0.11c0.08,0,0.1-0.05,0.1-0.05s0.01,0.09,0.11,0.09
					s0.12-0.05,0.12-0.05s0.04,0.06,0.12,0.06s0.12-0.06,0.12-0.06s0.03,0.06,0.11,0.06c0.08,0,0.12-0.05,0.11-0.09
					s0-0.27-0.01-0.33c-0.01-0.06-0.03-0.09-0.1-0.09c-0.07,0-0.11,0.07-0.11,0.07s0-0.11-0.13-0.1c-0.13,0-0.12,0.15-0.12,0.15
					s-0.03-0.11-0.12-0.11s-0.1,0.16-0.1,0.16s-0.03-0.06-0.1-0.06S122.7,145.38,122.7,145.45z"/>
			</g>
			<g>
				<g>
					<path class="st32" d="M122.87,145.26c0.01,0.08,0.02,0.17,0.01,0.25C122.87,145.43,122.87,145.34,122.87,145.26z"/>
				</g>
			</g>
			<g>
				<g>
					<path class="st32" d="M123.1,145.22c0.01,0.11,0.02,0.22,0.01,0.33C123.09,145.44,123.09,145.33,123.1,145.22z"/>
				</g>
			</g>
			<g>
				<g>
					<path class="st32" d="M123.35,145.17c0.01,0.13,0.01,0.25,0,0.38C123.34,145.42,123.34,145.3,123.35,145.17z"/>
				</g>
			</g>
		</g>
		<g>
			<path class="st4" d="M118.38,148.97"/>
		</g>
	</g>
</g>
<g>
	<path class="st8" d="M99.92,162.27c0,0.91,0.05,1.45,1.06,1.45c1.01,0,1.27-0.62,1.27-0.62s0.1,1.18,1.36,1.18
		c1.27,0,1.57-0.61,1.57-0.61s0.45,0.82,1.56,0.82s1.63-0.66,1.63-0.66s0.3,0.76,1.37,0.81s1.52-0.61,1.52-1.14
		c0-0.53,0.09-3.49,0.02-4.23c-0.07-0.74-0.33-1.21-1.29-1.26c-0.96-0.05-1.52,0.91-1.52,0.91s-0.01-1.39-1.65-1.39
		c-1.64,0-1.64,1.87-1.64,1.87s-0.41-1.49-1.52-1.49s-1.42,1.98-1.42,1.98s-0.3-0.76-1.32-0.76
		C99.92,159.12,99.92,161.36,99.92,162.27z"/>
	<g>
		<g>
			<path class="st32" d="M102.25,159.85c0.1,0.54,0.11,1.08,0.13,1.63c-0.01,0.54-0.02,1.08-0.12,1.63
				c-0.1-0.54-0.11-1.08-0.13-1.63C102.14,160.93,102.14,160.39,102.25,159.85z"/>
		</g>
	</g>
	<g>
		<g>
			<path class="st32" d="M105.19,159.39c0.1,0.71,0.11,1.43,0.12,2.14c-0.01,0.71-0.02,1.43-0.12,2.14
				c-0.1-0.71-0.11-1.43-0.12-2.14C105.08,160.82,105.08,160.11,105.19,159.39z"/>
		</g>
	</g>
	<g>
		<g>
			<path class="st32" d="M108.48,158.89c0.09,0.82,0.08,1.65,0.07,2.47c-0.03,0.82-0.06,1.64-0.18,2.46
				c-0.09-0.82-0.08-1.65-0.07-2.47C108.34,160.54,108.36,159.71,108.48,158.89z"/>
		</g>
	</g>
</g>
<path class="st4" d="M42.56,206.08"/>
</svg>
