<?xml version="1.0" encoding="utf-8"?>
<!-- Generator: Adobe Illustrator 24.2.1, SVG Export Plug-In . SVG Version: 6.00 Build 0)  -->
<svg version="1.1" id="Layer_1" xmlns="http://www.w3.org/2000/svg" xmlns:xlink="http://www.w3.org/1999/xlink" x="0px" y="0px"
	 viewBox="0 0 133.06 257.47" style="enable-background:new 0 0 133.06 257.47;" xml:space="preserve">
<style type="text/css">
	.st0{opacity:0.2;fill:url(#SVGID_1_);}
	.st1{opacity:0.1;}
	.st2{fill:#13161D;}
	.st3{fill:#4D513F;}
	.st4{opacity:0.3;}
	.st5{fill:#102630;}
	.st6{fill:#E5C4A5;}
	.st7{fill:#24455B;}
	.st8{opacity:0.1;fill:#542A09;}
	.st9{fill:#A59072;}
	.st10{fill:#341E1D;}
	.st11{fill:#FFFFFF;}
	.st12{fill:#382816;}
	.st13{fill:#2F2719;}
	.st14{fill:#382817;}
	.st15{opacity:0.4;fill:#FFFFFF;}
	.st16{fill:#FFFFFF;stroke:#231F20;stroke-width:2;stroke-miterlimit:10;}
	.st17{fill:#999999;}
	.st18{fill:#666666;}
	.st19{fill:#383838;}
	.st20{opacity:0.2;fill:url(#SVGID_2_);}
	.st21{fill:#FFFFFF;stroke:#231F20;stroke-width:0.1451;stroke-miterlimit:10;}
	.st22{opacity:0.2;fill:url(#SVGID_3_);}
	.st23{fill:#FFFFFF;stroke:#231F20;stroke-width:0.0112;stroke-miterlimit:10;}
	.st24{fill:#A07755;}
	.st25{fill:none;stroke:#376A7C;stroke-width:6.433398e-03;stroke-miterlimit:10;}
	.st26{fill:none;stroke:#772C22;stroke-width:6.433398e-03;stroke-miterlimit:10;}
	.st27{fill:none;stroke:#B76C00;stroke-width:6.433398e-03;stroke-miterlimit:10;}
	.st28{opacity:0.5;}
	.st29{fill:#9E9E9E;}
	.st30{fill:#7F7F7F;}
	.st31{fill:#376A7C;}
	.st32{font-family:'Roboto-Medium';}
	.st33{font-size:0.8336px;}
	.st34{fill:#571C20;}
	.st35{fill:#997733;}
	.st36{fill:#444444;}
	.st37{fill:none;stroke:#376A7C;stroke-width:0.1042;stroke-miterlimit:10;}
	.st38{fill:none;stroke:#772C22;stroke-width:0.1042;stroke-miterlimit:10;}
	.st39{fill:none;stroke:#B76C00;stroke-width:0.1042;stroke-miterlimit:10;}
	.st40{fill:none;stroke:#000000;stroke-width:0.0208;stroke-miterlimit:10;}
</style>
<linearGradient id="SVGID_1_" gradientUnits="userSpaceOnUse" x1="45.5073" y1="248.9618" x2="130.8556" y2="248.9618">
	<stop  offset="0" style="stop-color:#000000"/>
	<stop  offset="1" style="stop-color:#000000;stop-opacity:0"/>
</linearGradient>
<path class="st0" d="M52.98,250.77c3.29-0.8,6.14-1.87,11.69-3.45c0.56-0.16,62.38,10.15,62.38,10.15l3.8-4.51l-61.39-12.52
	l-23.96,9.46C45.51,249.91,48.36,251.89,52.98,250.77z"/>
<path class="st1" d="M102.3,248.97c-2.6-1.57-8.81-3.36-8.81-3.36l-6.02,6.84c0,0,3.92,1.17,7.81,1.17
	C102.43,253.62,105.43,250.85,102.3,248.97z"/>
<g>
	<g>
		<path class="st2" d="M68.64,232.06c0,0,0.8,3.39,1,5.58c0.2,2.19,0.5,3.39,0,3.89s-3.69,2.19-4.49,2.09s-2.09-1-2.79-0.7
			s-1.2,1.99-1.7,2.19s-4.39,2.29-6.88,3.29c-2.49,1-7.38,2.09-8.28,1.5c-0.9-0.6-2.29-2.09-2.69-3.69c-0.4-1.6-0.37-2.11,0.33-2.9
			s2.85-0.78,7.14-2.57c1.57-0.66,3.91-1.25,5.24-2.59c2.29-2.31,3.69-4.83,3.69-4.83L68.64,232.06z"/>
		<path d="M43.96,248.14c0,0,2.83,0.48,8.26-1.01c5.43-1.49,7.45-2.69,8.36-3.36c0.91-0.67,2.64-2.26,3.56-2.21
			c0.91,0.05,1.11,0.91,1.63,0.77c0.53-0.14,1.49-0.74,2.31-1.26c0.82-0.52,1.59-1.24,1.59-1.24s0.05,1.2,0,1.68
			s-3.75,2.35-4.61,2.16c-0.86-0.19-1.31-1.14-2.46-0.75s-1.77,2.15-3.64,3.11s-4.13,2.07-6.39,2.69c-2.26,0.62-5.43,1.41-6.58,1.36
			S43.96,248.14,43.96,248.14z"/>
		<path d="M49.9,240.9c0,0,2.12,1.15,4.64-0.17c2.52-1.32,4.7-3.84,4.7-3.84s1.5,0.36,3.98-0.24c2.49-0.6,4.88-2.31,4.88-2.31
			l-10,0.68c0,0-1.27,1.89-2.64,3.15C54.08,239.45,49.9,240.9,49.9,240.9z"/>
	</g>
	<g>
		<path class="st2" d="M77.85,233.21c0,0-0.01,3.71,0.28,4.57c0.35,1.05,1.61,1.09,1.61,1.09l4.75,10.54c0,0,1.36,3.32,5.54,3.52
			c5.02,0.23,6.14-2.55,6.21-3.52c0.07-0.97-0.07-2.62-0.52-3.52c-0.45-0.9-2.98-3.49-5.39-6.29c-2.41-2.8-3.64-5.18-3.64-5.18
			l-0.03-1.39L77.85,233.21z"/>
		<path d="M78.15,233.2c0,0,1.77,0.91,3.08,2.21c1.3,1.3,4.04,6.01,5.38,6.63c1.34,0.62,2.45,0.22,3.37-0.33
			c0.92-0.54,1.03-1.3,0.54-1.9c-0.49-0.6-3.91-4.94-4.13-5.49c-0.22-0.54-0.03-1.3-0.03-1.3s-1.43,0.08-3.65,0.08
			C80.47,233.11,78.15,233.2,78.15,233.2z"/>
		<path d="M95.72,245.88c0,0,0.26,1.8-0.04,2.23c-0.31,0.43-1.2,0.25-2.52,0.77c-1.32,0.52-3.69,2.21-4.58,2.33
			c-0.89,0.12-2.27,0.35-2.7-0.49c-0.43-0.84-5.19-12.93-5.44-13.11c-0.25-0.18-1.11,0.31-1.38,0c-0.28-0.31-1.09-0.77-1.09-0.77
			s-0.02,1.37,0.75,1.7s1.01,0.32,1.01,0.32l4.97,11c0,0,0.67,1.95,2.76,2.58c1.68,0.51,4.36,0.97,6.7-0.28
			c0.86-0.46,1.84-1.65,2.04-2.51C96.64,247.72,95.72,245.88,95.72,245.88z"/>
	</g>
	<g>
		<path class="st3" d="M87.34,228.57c0.11-0.97-0.88-2.06-0.85-2.6c0.03-0.54,1.12-2.19,1.16-2.87s-0.37-2.18-0.31-3.3
			c0.06-1.12,0.26-7.87-0.1-13.21c-0.3-4.47-0.59-9.11-0.63-9.45s-0.24-4.62-0.2-5.25s-0.06-1.35-0.05-5.21
			c0.01-2.79,0.87-29.15,0.87-29.15s-5.15,2.34-14.91,2.65c-9.75,0.31-15.8-2.65-15.8-2.65s-2.83,35.39-2.82,35.89
			c0,0.23,1.01,1.96,0.7,2.62c-0.37,0.81,0.31,3.9,0.64,8.77c0.34,4.86,2.76,15.55,2.8,16.13c0.04,0.68-0.47,2.81-0.29,3.59
			c0.18,0.78,1.37,2.46,1.45,3.02s-0.87,2.06-0.58,3.11c0.3,1.05,0.14,2.9,0.57,3.11c0,0,0.69,1.81,4.75,1.4
			c4.06-0.41,5.41-1.74,5.41-1.74s-3.16-38.08-3.16-38.82s4.87-30.21,4.87-30.21s0.63-0.08,1.35-0.08s1.71-0.17,1.71-0.17
			l2.97,69.24c0,0,2.58,1.38,6.45,1.28s3.87-1.48,3.87-1.48C87.9,232.43,87.3,228.93,87.34,228.57z"/>
		<path class="st4" d="M58.21,158.2c0,0,9.23,4.09,18.67,3.43c5.44-0.38,10.36-2.27,10.36-2.27l-0.07-1.84c0,0-5.34,2.09-10.98,2.41
			c-3.66,0.21-7.24,0.31-10.06,0C61.21,159.41,58.21,158.2,58.21,158.2z"/>
		<path class="st4" d="M67.4,163.49l3.49,0.88c0,0-4.93,29.28-4.93,30.17s3.22,38.86,3.22,38.86s-1.31,1.09-4.63,1.57
			c-1.76,0.25-3.22,0.12-3.22,0.12s2.12,0.29,4.12-1.23c2-1.52,2.17-5.07,2.17-5.07s-0.04-4.68-0.47-8.9
			c-0.43-4.21-3.5-23.3-3.61-24.62C63.31,192.87,67.4,163.49,67.4,163.49z"/>
		<g class="st4">
			<path d="M61.03,195c1.26-0.12,2.52-0.14,3.78-0.11l-0.05,0.01c0.43-0.2,0.88-0.37,1.34-0.52c-0.4,0.27-0.81,0.51-1.24,0.73
				l-0.02,0.01l-0.03,0C63.55,195.14,62.29,195.12,61.03,195z"/>
		</g>
		<path class="st4" d="M87.23,233.18c0.67-0.75,0.06-4.24,0.1-4.61c0.11-0.97-0.88-2.06-0.85-2.6c0.03-0.54,1.12-2.19,1.16-2.87
			s-0.37-2.18-0.31-3.3c0.06-1.12,0.26-7.87-0.1-13.21c-0.3-4.47-0.59-9.11-0.63-9.45s-0.24-4.62-0.2-5.25s-0.06-1.35-0.05-5.21
			c0.01-2.79,0.87-27.28,0.87-27.28l-1.67,0.28c0,0-1.27,24.61-0.74,34.26s2.04,39.86,2.04,39.86l0,0
			C87.23,233.47,87.23,233.18,87.23,233.18z"/>
	</g>
	<g>
		<path class="st5" d="M62.71,98.94c0,0,5.35-2.19,10.26-2.14c5.6,0.05,7.26,1.64,7.26,1.64s3.85,1.93-7.4,1.93
			S62.71,98.94,62.71,98.94z"/>
		<path class="st6" d="M87.82,114.16c0,0,14.98,25.15,15.45,27.3s1.27,5.32,1.27,5.32l6.55-0.41c0,0,0.76-0.5,1.42-3.74
			c0.66-3.24-14.78-35.36-16.85-36.88s-16.25-5.09-16.25-5.09l-1.3,9.81L87.82,114.16z"/>
		<path class="st6" d="M69.15,92.45l-0.47,4.98l-7.01,2.14c0,0,2.32,5.22,10.92,5.3C81.2,104.95,83,99.6,83,99.6l-6.52-2.17
			l-0.45-4.92L69.15,92.45z"/>
		<path class="st6" d="M51.56,103.33c0,0-3.63,4.34-5.78,8.18c-5.53,9.89-11.02,19.78-12.47,22.23
			c-0.94,1.58-17.82-22.69-17.82-22.69l-5.97,4.52c0,0,20.19,30.41,24.79,29.34s18.29-23.8,18.29-23.8l16.33-17.43l-0.06-5.34
			L51.56,103.33z"/>
		<path class="st7" d="M95.48,104.52c-1.75-1.36-14.41-5.73-15.92-6.46c0,0,1.03,1.56-7.22,1.49c-8.09-0.07-7.17-1.38-7.17-1.38
			s-12.37,3.68-14.53,5.65c-1.3,1.19-11.38,17.6-12.34,19.61c-0.96,2.01,8.94,6.97,10,5.52c1.4-1.91,5.56-8.18,5.56-8.18
			s0.75,3.43,1.12,11.78c0.38,8.68,0.45,26.47,0.45,26.47s3.68,0.12,7.53,0.78c3.41,0.59,5.5,1.67,7.91,1.49
			c2.18-0.16,5.02-0.95,5.79-1.01c4.03-0.33,11.31-0.83,11.31-0.83s-0.03-18.99,0.31-25.52c0.34-6.53,1.45-15.32,1.45-15.32
			s5.63,9.46,6.16,10.53c0.7,1.39,10.36-0.84,10.52-3.07C106.53,124.52,98.68,107.01,95.48,104.52z"/>
		<path class="st4" d="M87.73,131.95c-0.64,10.03-0.57,27.49-0.57,27.49l0.83,0.01c0,0-0.03-21.16,0.39-26.87
			c0.46-6.19,1.67-18.02,2.4-20.85C90.77,111.73,88.39,121.55,87.73,131.95z"/>
		<path class="st4" d="M55.87,132.76c0.41,10.04,0.36,26.25,0.36,26.25h-0.8c0,0-0.2-22.05-0.52-27.77
			c-0.35-6.2-2.17-20.27-2.84-23.11C52.08,108.13,55.46,122.86,55.87,132.76z"/>
	</g>
	<g>
		<path class="st6" d="M48.79,50.41c-2.17-6.69-8.72-7.57-11.06-5.87s-1.26,6.88,0.82,11.85s7.12,9.25,9.62,9.46
			S50.96,57.11,48.79,50.41z"/>
		<path class="st6" d="M40.99,29.17c0,0,1.31,17.9,4.72,33.98c3.19,15.04,8.36,20.4,13.5,26.4c3.94,4.6,8.87,6.7,14.32,6.48
			c5.61-0.23,8.94-2.65,16.62-9.82c5.45-5.08,7.8-11.14,11.76-23.54c4.51-14.11,5.37-33.42,5.37-33.42s-14.42-9.71-33.17-9.29
			S40.99,29.17,40.99,29.17z"/>
		<path class="st6" d="M98.8,51.34c2.29-6.65,8.85-7.41,11.17-5.66c2.32,1.75,1.14,6.9-1.04,11.83s-7.29,9.11-9.79,9.28
			C96.63,66.96,96.51,57.99,98.8,51.34z"/>
		<path class="st8" d="M44.18,54.83c0,0,0.9,11.27,6.04,22.05c1.23,2.58,2.44,4.44,4.52,7.3c4.12,5.67,9.8,11.73,17.51,11.84
			c7.13,0.11,12.27-3.32,20.16-12.18c5.41-6.07,10.96-26.39,10.96-26.39s-6.01,15.06-9.11,19.56c-5.02,7.29-11.13-3.24-21.17-3.21
			c-11.43,0.04-17.61,10.51-21.37,2.56C46.98,66.37,44.18,54.83,44.18,54.83z"/>
		<g>
			<path class="st9" d="M72.44,57.21c-0.25,2.03-0.72,3.97-0.98,5.91c-0.14,0.94-0.15,1.94-0.16,2.91c0.01,0.48,0.02,0.97,0.12,1.42
				c0.05,0.22,0.13,0.43,0.27,0.55c0.15,0.12,0.41,0.1,0.65,0.01c-0.18,0.17-0.44,0.35-0.77,0.24c-0.31-0.11-0.48-0.39-0.61-0.62
				c-0.24-0.5-0.36-1.02-0.44-1.53c-0.15-1.03-0.18-2.06-0.05-3.11c0.15-1.03,0.4-2.02,0.73-2.98
				C71.53,59.04,71.93,58.1,72.44,57.21z"/>
		</g>
		<g>
			<path class="st10" d="M67.62,82.84c0,0,0.5,1.93,4.99,1.57c4.03-0.32,7.28-2.16,0.82-1.69C70.79,82.91,67.62,82.84,67.62,82.84z"
				/>
			<path class="st11" d="M67.62,82.84c0,0,3.59,0.97,6.29,0.69s2.93-0.69,2.93-0.69s-1.67-0.2-3.4-0.12
				C71.7,82.8,67.62,82.84,67.62,82.84z"/>
		</g>
		<path class="st12" d="M87.4,46.08c0.75-0.84-0.6-3.59-4.19-5.23c-3.53-1.61-6.49-3.09-8.96-3.16c-1.05-0.03-1.28,2.51-0.5,2.73
			c0.8,0.23,2.66,0.65,6.66,2.08C85.22,44.21,86.89,46.65,87.4,46.08z"/>
		<path class="st12" d="M54.77,45.86c-0.74-0.85,1.04-3.82,4.66-5.44c3.56-1.58,5.45-2.45,8.1-2.73c1.41-0.15,1.83,2.42,1.16,2.89
			c-0.66,0.48-3.64,0.68-7.68,2.08C56.19,44.34,55.28,46.44,54.77,45.86z"/>
		<path class="st13" d="M79.17,52.55c0,0,1.69,0.72,2.16-0.43s0.08-2.34-0.99-2.84c-1.1-0.51-2.43,0.41-2.51,1.65
			C77.76,52.11,79.17,52.55,79.17,52.55z"/>
		<path class="st13" d="M63.75,52.55c0,0-1.69,0.72-2.16-0.43c-0.47-1.15-0.08-2.34,0.99-2.84c1.1-0.51,2.43,0.41,2.51,1.65
			C65.17,52.11,63.75,52.55,63.75,52.55z"/>
	</g>
	<path class="st14" d="M102.12,55.45l0.91,0.38c1.8-5.22,6.19-24.23,4.2-32.89c-4.66-20.25-12.8-19.02-12.8-19.02l0.9,2.9
		c0,0-5.52-4.11-8.99-5.34S78.71,0,78.71,0l5.79,3.42c0,0-10.22-3.77-22.34-0.9S41.9,13,41.9,13l3.37-0.73c0,0-5.43,6.23-6.32,10.81
		s-0.23,7.03-0.92,8.69c-0.69,1.66,2.73-4.38,2.73-4.38s0.62,7.05,1.23,12.98c0.62,6.06,2.46,14.52,2.46,14.52l0.89-0.53
		c0,0-0.37-5.11-0.4-13.65c-0.03-8.54,1.56-12.91,3.72-13.82c5.71-2.4,12.59-2.08,13.59-1.72c1.88,0.68-3.62,3.72-3.62,3.72
		c4.33-0.21,9.92-3.35,9.19-2.66c-1.82,1.73-5.35,3.15-5.35,3.15s7.54,1.15,12.99-0.51s7.4-2.82,9.35-3.8
		c1.92-0.96,10.94-1.27,13.27,0.42s6.46,4.67,6.24,12.49C104.14,44.46,102.12,55.45,102.12,55.45z"/>
	<g>
		<path class="st9" d="M33.11,133.77c0.39,0.73,0.65,1.52,0.82,2.33c0.13,0.81,0.24,1.63,0.26,2.45c-0.11-0.82-0.2-1.63-0.36-2.44
			C33.7,135.31,33.42,134.53,33.11,133.77z"/>
	</g>
	<g>
		<path class="st9" d="M104.55,141.32c0.54-0.12,1.1-0.04,1.64,0c0.55,0.05,1.09,0.12,1.63,0.2c0.54,0.08,1.08,0.22,1.6,0.38
			c0.52,0.17,1.04,0.37,1.48,0.71c-0.46-0.3-0.98-0.48-1.5-0.64c-0.52-0.16-1.06-0.26-1.6-0.36c-0.54-0.1-1.08-0.17-1.63-0.23
			C105.64,141.34,105.09,141.23,104.55,141.32z"/>
	</g>
	<polygon class="st15" points="94.94,145.15 95.75,145.75 94.66,157.33 	"/>
	<path class="st15" d="M94.78,136.04c0,0-3.06,1.96-3.17,3.76s2.67,3.82,2.67,3.82s-2.15-2.07-2.13-3.81
		C92.17,138.06,94.78,136.04,94.78,136.04z"/>
	<g>
		<path class="st6" d="M17.72,113.51c0.45-0.5,1.4-1.8,2.25-2.93c0.98-1.31,0.32-3.59,1.05-5.93c0.73-2.35,0.76-2.43,0.1-2.79
			c-0.55-0.3-1.88-0.14-2.89,1.76c-0.78,1.48-0.51,4.03-0.81,3.68c-0.65-0.76-2-3.03-2.17-4.66c-0.21-1.97-0.18-5.09-0.1-6.98
			c0.09-2.01,0.47-5.19-1-5.19s-1.41,2.51-1.53,3.87s-0.54,6.44-0.54,6.44l-0.67-0.05c0,0-1.34-8.87-1.5-10.1
			c-0.16-1.23-0.81-1.55-1.51-1.44c-0.71,0.11-0.89,0.78-0.87,1.71c0.02,0.93,0.96,10.24,0.96,10.24l-0.48,0.09
			c0,0-2.51-7.95-2.7-8.56c-0.18-0.61-0.7-1.36-1.61-1.06s-0.65,1.67-0.46,2.2c0.19,0.52,2.18,8.4,2.18,8.4l-0.61,0.28
			c0,0-1.61-3.18-2.02-4.14c-0.57-1.34-1.58-2.78-2.29-2.45c-0.76,0.35-0.62,1.32,0.03,2.87c0.58,1.39,2.19,4.92,2.46,5.91
			c0.27,0.99,0.48,4.07,2.37,7.12c0.65,1.05,3.4,3.76,5.39,4.2C12.81,116.47,16.54,114.82,17.72,113.51z"/>
		<g>
			<path class="st9" d="M14.04,102.9c-0.56,1-1.1,2.01-1.59,3.03c-0.44,1.05-0.6,2.2-0.66,3.34c0-1.14,0.16-2.3,0.59-3.37
				C12.84,104.85,13.42,103.86,14.04,102.9z"/>
		</g>
		<path class="st1" d="M15.86,114.67c0,0,1.14-0.73,2.08-1.83c1.03-1.2,2.26-3.35,2.14-5.57c-0.07-1.32,0.32-2.6,0.56-3.42
			c0.28-0.94,0.93-1.58,0.93-1.58s0.12,0.62-0.34,1.62c-0.17,0.37-0.55,1.52-0.57,2.88c-0.01,0.77-0.07,2.71-0.57,3.63
			c-0.31,0.58-0.43,0.72-0.81,1.18c-0.89,1.07-1.71,1.96-2.43,2.5C16.15,114.62,15.86,114.67,15.86,114.67z"/>
		<g>
			<path class="st9" d="M6,107.89c0.54,0.01,1.07-0.17,1.56-0.38c0.49-0.23,0.95-0.52,1.38-0.85c0.43-0.32,0.85-0.67,1.23-1.05
				c0.36-0.39,0.76-0.8,0.86-1.34c-0.07,0.55-0.45,0.99-0.81,1.39c-0.37,0.4-0.79,0.75-1.22,1.08c-0.44,0.32-0.91,0.61-1.41,0.83
				C7.08,107.78,6.54,107.95,6,107.89z"/>
		</g>
		<g>
			<path class="st9" d="M15.47,115.03c0.76-0.36,1.43-0.88,2.05-1.45c0.61-0.57,1.14-1.23,1.65-1.9c0.25-0.34,0.49-0.68,0.73-1.03
				c0.26-0.33,0.42-0.72,0.51-1.13c0.19-0.82,0.24-1.66,0.24-2.5c0.01,0.84-0.03,1.69-0.2,2.51c-0.08,0.41-0.26,0.82-0.51,1.15
				c-0.23,0.35-0.46,0.7-0.71,1.05c-0.48,0.69-1.04,1.33-1.67,1.9C16.94,114.2,16.25,114.71,15.47,115.03z"/>
		</g>
		<g>
			<path class="st9" d="M13.35,115.83c-0.49,0.16-1.01,0.25-1.53,0.27c-0.51,0.03-1.05-0.01-1.54-0.22c-0.96-0.41-1.82-1-2.62-1.65
				c0.84,0.59,1.7,1.19,2.65,1.57C11.28,116.17,12.35,116.03,13.35,115.83z"/>
		</g>
	</g>
</g>
<g>
	<path class="st16" d="M82.16,128.65c-0.1,0.12-0.1,0.25-0.1,0.25l1.25,29.13l45.25-1.26v-29.13c0,0,0-0.13-0.15-0.3
		s-0.39-0.16-0.39-0.16l-45.59,1.36C82.43,128.54,82.26,128.53,82.16,128.65z"/>
	<polyline class="st17" points="83.31,158.03 78.12,161.01 133.05,159.46 128.56,156.77 	"/>
	<path class="st18" d="M78.12,161.01l0.1,1.66c0,0,0,0.09,0.04,0.14c0.04,0.05,0.12,0.04,0.12,0.04l54.33-1.47c0,0,0.15,0,0.26-0.11
		c0.11-0.11,0.08-0.26,0.08-0.26v-1.55"/>
	<polygon class="st19" points="86.71,158.43 84.81,159.85 127.05,158.43 125.23,157.33 	"/>
	<g>
		
			<linearGradient id="SVGID_2_" gradientUnits="userSpaceOnUse" x1="123.6017" y1="148.7309" x2="129.7941" y2="148.7309" gradientTransform="matrix(0.9997 -0.0252 0.0252 0.9997 -8.5481 5.6737)">
			<stop  offset="0" style="stop-color:#000000"/>
			<stop  offset="1" style="stop-color:#000000;stop-opacity:0"/>
		</linearGradient>
		<path class="st20" d="M119.31,151.36c0.24-0.06,0.44-0.15,0.84-0.27c0.04-0.01,4.54,0.62,4.54,0.62l0.27-0.33l-4.48-0.8
			l-1.72,0.73C118.76,151.31,118.97,151.45,119.31,151.36z"/>
		<path class="st1" d="M122.88,151.14c-0.19-0.11-0.65-0.23-0.65-0.23l-0.42,0.51c0,0,0.29,0.08,0.57,0.07
			C122.9,151.48,123.11,151.27,122.88,151.14z"/>
		<g>
			<g>
				<path class="st2" d="M120.41,149.98c0,0,0.06,0.24,0.08,0.4c0.02,0.16,0.04,0.25,0.01,0.28c-0.04,0.04-0.26,0.17-0.32,0.16
					c-0.06-0.01-0.15-0.07-0.2-0.05c-0.05,0.02-0.08,0.15-0.12,0.16c-0.04,0.02-0.31,0.17-0.49,0.25c-0.18,0.08-0.53,0.17-0.6,0.12
					c-0.07-0.04-0.17-0.15-0.2-0.26c-0.03-0.11-0.03-0.15,0.02-0.21c0.05-0.06,0.21-0.06,0.51-0.2c0.11-0.05,0.28-0.1,0.38-0.2
					c0.16-0.17,0.26-0.36,0.26-0.36L120.41,149.98z"/>
				<path d="M118.65,151.19c0,0,0.21,0.03,0.6-0.09c0.39-0.12,0.54-0.21,0.6-0.26s0.19-0.17,0.25-0.17c0.07,0,0.08,0.06,0.12,0.05
					c0.04-0.01,0.11-0.06,0.16-0.1c0.06-0.04,0.11-0.09,0.11-0.09s0.01,0.09,0,0.12c0,0.03-0.27,0.18-0.33,0.17
					c-0.06-0.01-0.1-0.08-0.18-0.05c-0.08,0.03-0.12,0.16-0.26,0.23c-0.13,0.07-0.3,0.16-0.46,0.21c-0.16,0.05-0.39,0.11-0.47,0.11
					C118.71,151.32,118.65,151.19,118.65,151.19z"/>
				<path d="M119.07,150.65c0,0,0.16,0.08,0.34-0.02c0.18-0.1,0.33-0.29,0.33-0.29s0.11,0.02,0.29-0.02
					c0.18-0.05,0.35-0.18,0.35-0.18l-0.72,0.07c0,0-0.09,0.14-0.19,0.23C119.37,150.54,119.07,150.65,119.07,150.65z"/>
			</g>
			<g>
				<path class="st2" d="M121.08,150.04c0,0,0.01,0.27,0.03,0.33c0.03,0.08,0.12,0.08,0.12,0.08l0.36,0.76c0,0,0.1,0.24,0.41,0.25
					c0.36,0.01,0.44-0.2,0.44-0.27c0-0.07-0.01-0.19-0.04-0.25s-0.22-0.25-0.4-0.45s-0.27-0.37-0.27-0.37l0-0.1L121.08,150.04z"/>
				<path d="M121.1,150.04c0,0,0.13,0.06,0.23,0.15c0.1,0.09,0.3,0.43,0.4,0.47c0.1,0.04,0.18,0.01,0.24-0.03s0.07-0.1,0.04-0.14
					c-0.04-0.04-0.29-0.35-0.31-0.39c-0.02-0.04,0-0.09,0-0.09s-0.1,0.01-0.26,0.01C121.27,150.03,121.1,150.04,121.1,150.04z"/>
				<path d="M122.4,150.93c0,0,0.02,0.13,0,0.16s-0.09,0.02-0.18,0.06c-0.09,0.04-0.26,0.17-0.33,0.18s-0.16,0.03-0.2-0.03
					s-0.4-0.93-0.42-0.94c-0.02-0.01-0.08,0.02-0.1,0c-0.02-0.02-0.08-0.05-0.08-0.05s0,0.1,0.06,0.12
					c0.06,0.02,0.07,0.02,0.07,0.02l0.38,0.79c0,0,0.05,0.14,0.2,0.18c0.12,0.03,0.32,0.06,0.49-0.03c0.06-0.03,0.13-0.12,0.14-0.19
					C122.47,151.06,122.4,150.93,122.4,150.93z"/>
			</g>
			<g>
				<path class="st3" d="M121.76,149.69c0.01-0.07-0.07-0.15-0.07-0.19c0-0.04,0.08-0.16,0.08-0.21c0-0.05-0.03-0.16-0.03-0.24
					c0-0.08,0-0.57-0.03-0.96c-0.03-0.32-0.06-0.66-0.06-0.68c0-0.02-0.03-0.33-0.02-0.38s-0.01-0.1-0.01-0.38
					c0-0.2,0.01-2.12,0.01-2.12s-0.37,0.18-1.08,0.22c-0.71,0.04-1.15-0.16-1.15-0.16s-0.14,2.57-0.14,2.61
					c0,0.02,0.08,0.14,0.06,0.19c-0.03,0.06,0.03,0.28,0.06,0.63c0.03,0.35,0.23,1.12,0.23,1.16c0,0.05-0.03,0.2-0.01,0.26
					s0.1,0.18,0.11,0.22c0.01,0.04-0.06,0.15-0.04,0.23c0.02,0.08,0.02,0.21,0.05,0.22c0,0,0.05,0.13,0.35,0.09
					c0.29-0.04,0.39-0.14,0.39-0.14s-0.3-2.76-0.3-2.81c0-0.05,0.3-2.2,0.3-2.2s0.05-0.01,0.1-0.01c0.05,0,0.12-0.02,0.12-0.02
					l0.34,5.02c0,0,0.19,0.1,0.47,0.08s0.28-0.11,0.28-0.11C121.81,149.97,121.76,149.71,121.76,149.69z"/>
				<path class="st4" d="M119.52,144.64c0,0,0.68,0.28,1.36,0.21c0.39-0.04,0.75-0.18,0.75-0.18l-0.01-0.13c0,0-0.38,0.16-0.79,0.2
					c-0.27,0.02-0.52,0.04-0.73,0.02C119.74,144.72,119.52,144.64,119.52,144.64z"/>
				<path class="st4" d="M120.19,145l0.25,0.06c0,0-0.3,2.13-0.3,2.2s0.3,2.81,0.3,2.81s-0.09,0.08-0.33,0.12
					c-0.13,0.02-0.23,0.01-0.23,0.01s0.15,0.02,0.3-0.1c0.14-0.11,0.15-0.37,0.15-0.37s-0.01-0.34-0.05-0.64
					c-0.04-0.3-0.3-1.68-0.31-1.78C119.95,147.14,120.19,145,120.19,145z"/>
				<g class="st4">
					<path d="M119.79,147.3c0.09,0,0.18-0.02,0.27-0.01l0,0l0.1-0.04l-0.09,0.05l0,0C119.97,147.31,119.88,147.3,119.79,147.3z"/>
				</g>
				<path class="st4" d="M121.76,150.02c0.05-0.06,0-0.31,0-0.33c0.01-0.07-0.07-0.15-0.07-0.19c0-0.04,0.08-0.16,0.08-0.21
					c0-0.05-0.03-0.16-0.03-0.24c0-0.08,0-0.57-0.03-0.96c-0.03-0.32-0.06-0.66-0.06-0.68c0-0.02-0.03-0.33-0.02-0.38
					s-0.01-0.1-0.01-0.38c0-0.2,0.01-1.98,0.01-1.98l-0.12,0.02c0,0-0.05,1.79,0.01,2.49s0.22,2.89,0.22,2.89l0,0
					C121.76,150.04,121.76,150.02,121.76,150.02z"/>
			</g>
			<g>
				<path class="st5" d="M119.73,140.33c0,0,0.38-0.17,0.74-0.17c0.41-0.01,0.53,0.11,0.53,0.11s0.28,0.13-0.53,0.15
					C119.66,140.44,119.73,140.33,119.73,140.33z"/>
				<path class="st6" d="M121.58,141.39c0,0,1.13,1.8,1.17,1.95c0.04,0.15,0.1,0.38,0.1,0.38l0.47-0.04c0,0,0.05-0.04,0.1-0.27
					c0.04-0.24-1.14-2.54-1.29-2.64s-1.19-0.34-1.19-0.34l-0.08,0.71L121.58,141.39z"/>
				<path class="st6" d="M120.19,139.85l-0.02,0.36l-0.5,0.17c0,0,0.18,0.37,0.8,0.36c0.62-0.01,0.74-0.4,0.74-0.4l-0.48-0.15
					l-0.04-0.36L120.19,139.85z"/>
				<path class="st6" d="M118.93,140.67c0,0-0.26,0.32-0.4,0.6c-0.38,0.73-0.76,1.45-0.86,1.64c-0.07,0.12-1.33-1.61-1.33-1.61
					l-0.42,0.34c0,0,1.52,2.17,1.85,2.08c0.33-0.09,1.28-1.76,1.28-1.76l1.15-1.29l-0.01-0.39L118.93,140.67z"/>
				<path class="st7" d="M122.12,140.68c-0.13-0.1-1.06-0.39-1.17-0.44c0,0,0.08,0.11-0.52,0.12c-0.59,0.01-0.52-0.09-0.52-0.09
					s-0.89,0.29-1.04,0.44c-0.09,0.09-0.79,1.3-0.86,1.44c-0.07,0.15,0.66,0.49,0.74,0.38c0.1-0.14,0.39-0.6,0.39-0.6
					s0.06,0.25,0.1,0.85c0.04,0.63,0.08,1.92,0.08,1.92s0.27,0,0.55,0.04c0.25,0.04,0.4,0.11,0.58,0.09
					c0.16-0.02,0.36-0.08,0.42-0.08c0.29-0.03,0.82-0.08,0.82-0.08s-0.04-1.38-0.02-1.85s0.08-1.11,0.08-1.11s0.43,0.68,0.47,0.75
					c0.05,0.1,0.75-0.08,0.76-0.24C122.96,142.11,122.36,140.85,122.12,140.68z"/>
				<path class="st4" d="M121.61,142.68c-0.03,0.73,0.01,2,0.01,2l0.06,0c0,0-0.04-1.53-0.02-1.95c0.02-0.45,0.09-1.31,0.14-1.52
					C121.79,141.21,121.64,141.92,121.61,142.68z"/>
				<path class="st4" d="M119.3,142.8c0.05,0.73,0.07,1.9,0.07,1.9l-0.06,0c0,0-0.05-1.6-0.09-2.01c-0.04-0.45-0.19-1.47-0.25-1.67
					C118.98,141.02,119.25,142.08,119.3,142.8z"/>
			</g>
			<g>
				<path class="st6" d="M118.64,136.84c-0.17-0.48-0.65-0.53-0.81-0.41c-0.17,0.13-0.08,0.5,0.08,0.86
					c0.16,0.36,0.53,0.66,0.72,0.67S118.81,137.32,118.64,136.84z"/>
				<path class="st6" d="M118.03,135.31c0,0,0.13,1.3,0.4,2.46c0.26,1.08,0.64,1.46,1.03,1.89c0.29,0.33,0.66,0.47,1.05,0.44
					c0.41-0.03,0.64-0.21,1.19-0.74c0.39-0.38,0.55-0.82,0.81-1.73c0.3-1.03,0.33-2.43,0.33-2.43s-1.06-0.68-2.42-0.61
					S118.03,135.31,118.03,135.31z"/>
				<path class="st6" d="M122.27,136.81c0.15-0.49,0.63-0.55,0.8-0.43c0.17,0.12,0.1,0.5-0.05,0.86s-0.51,0.67-0.69,0.69
					C122.14,137.95,122.11,137.3,122.27,136.81z"/>
				<path class="st8" d="M118.31,137.16c0,0,0.09,0.82,0.48,1.59c0.09,0.18,0.19,0.32,0.34,0.52c0.31,0.4,0.73,0.83,1.29,0.83
					c0.52-0.01,0.88-0.26,1.44-0.92c0.38-0.45,0.75-1.93,0.75-1.93s-0.41,1.1-0.62,1.44c-0.35,0.54-0.81-0.21-1.54-0.19
					c-0.83,0.02-1.26,0.79-1.55,0.22C118.53,138,118.31,137.16,118.31,137.16z"/>
				<g>
					<path class="st9" d="M120.36,137.29c-0.03,0.14-0.06,0.29-0.06,0.43c-0.01,0.07-0.02,0.14-0.02,0.21c0,0.06,0,0.18,0.09,0.14
						c-0.09,0.06-0.12-0.08-0.13-0.14c-0.01-0.07-0.02-0.15-0.02-0.22C120.26,137.56,120.31,137.42,120.36,137.29z"/>
				</g>
				<g>
					<path class="st10" d="M120.06,139.15c0,0,0.04,0.14,0.36,0.1c0.29-0.03,0.52-0.17,0.06-0.12
						C120.29,139.15,120.06,139.15,120.06,139.15z"/>
					<path class="st11" d="M120.06,139.15c0,0,0.26,0.06,0.46,0.04s0.21-0.06,0.21-0.06s-0.12-0.01-0.25,0
						C120.36,139.14,120.06,139.15,120.06,139.15z"/>
				</g>
				<path class="st12" d="M121.43,136.45c0.05-0.06-0.05-0.26-0.31-0.37c-0.26-0.11-0.48-0.21-0.66-0.21c-0.08,0-0.09,0.18-0.03,0.2
					c0.06,0.01,0.19,0.04,0.49,0.14C121.27,136.32,121.39,136.49,121.43,136.45z"/>
				<path class="st12" d="M119.06,136.5c-0.06-0.06,0.07-0.28,0.33-0.4c0.26-0.12,0.39-0.19,0.58-0.21c0.1-0.01,0.14,0.17,0.09,0.21
					s-0.26,0.06-0.55,0.16C119.16,136.38,119.1,136.54,119.06,136.5z"/>
				<path class="st13" d="M120.84,136.94c0,0,0.12,0.05,0.16-0.04s0-0.17-0.08-0.2c-0.08-0.04-0.18,0.03-0.18,0.12
					C120.74,136.91,120.84,136.94,120.84,136.94z"/>
				<path class="st13" d="M119.73,136.96c0,0-0.12,0.06-0.16-0.03s-0.01-0.17,0.07-0.21c0.08-0.04,0.18,0.03,0.18,0.12
					C119.83,136.93,119.73,136.96,119.73,136.96z"/>
			</g>
			<path class="st14" d="M122.51,137.1l0.07,0.03c0.12-0.38,0.4-1.77,0.24-2.39c-0.38-1.46-0.96-1.36-0.96-1.36l0.07,0.21
				c0,0-0.41-0.29-0.66-0.37s-0.56-0.09-0.56-0.09l0.43,0.24c0,0-0.75-0.25-1.62-0.02c-0.87,0.23-1.45,0.8-1.45,0.8l0.24-0.06
				c0,0-0.38,0.46-0.44,0.8c-0.06,0.33,0,0.51-0.05,0.63c-0.05,0.12,0.19-0.32,0.19-0.32s0.06,0.51,0.11,0.94
				c0.06,0.44,0.2,1.05,0.2,1.05l0.06-0.04c0,0-0.04-0.37-0.05-0.99c-0.02-0.62,0.09-0.94,0.24-1.01c0.41-0.18,0.91-0.17,0.98-0.15
				c0.14,0.05-0.26,0.28-0.26,0.28c0.31-0.02,0.71-0.26,0.66-0.21c-0.13,0.13-0.38,0.24-0.38,0.24s0.55,0.07,0.94-0.06
				c0.39-0.13,0.53-0.22,0.67-0.29c0.14-0.07,0.79-0.11,0.96,0.01c0.17,0.12,0.48,0.33,0.48,0.89
				C122.64,136.3,122.51,137.1,122.51,137.1z"/>
			<g>
				<path class="st9" d="M117.65,142.91c0.05,0.11,0.08,0.22,0.09,0.34C117.72,143.14,117.69,143.02,117.65,142.91z"/>
			</g>
			<g>
				<path class="st9" d="M122.85,143.33c0.16-0.01,0.32,0,0.46,0.08C123.17,143.34,123,143.33,122.85,143.33z"/>
			</g>
			<polygon class="st15" points="122.16,143.62 122.22,143.67 122.16,144.51 			"/>
			<path class="st15" d="M122.13,142.96c0,0-0.22,0.15-0.22,0.28c0,0.13,0.2,0.27,0.2,0.27s-0.16-0.15-0.16-0.27
				C121.94,143.11,122.13,142.96,122.13,142.96z"/>
			<g>
				<path class="st6" d="M116.5,141.47c0.03-0.04,0.1-0.13,0.16-0.22c0.07-0.1,0.02-0.26,0.07-0.43c0.05-0.17,0.05-0.18,0-0.2
					c-0.04-0.02-0.14-0.01-0.21,0.13c-0.05,0.11-0.03,0.29-0.05,0.27c-0.05-0.05-0.15-0.22-0.17-0.33
					c-0.02-0.14-0.02-0.37-0.02-0.51c0-0.15,0.02-0.38-0.08-0.37c-0.11,0-0.1,0.18-0.1,0.28c-0.01,0.1-0.03,0.47-0.03,0.47l-0.05,0
					c0,0-0.11-0.64-0.13-0.73c-0.01-0.09-0.06-0.11-0.11-0.1c-0.05,0.01-0.06,0.06-0.06,0.13c0,0.07,0.09,0.74,0.09,0.74l-0.03,0.01
					c0,0-0.2-0.57-0.21-0.62c-0.01-0.04-0.05-0.1-0.12-0.07c-0.07,0.02-0.04,0.12-0.03,0.16c0.01,0.04,0.17,0.61,0.17,0.61
					l-0.04,0.02c0,0-0.12-0.23-0.15-0.3c-0.04-0.1-0.12-0.2-0.17-0.17c-0.05,0.03-0.04,0.1,0.01,0.21c0.04,0.1,0.17,0.35,0.19,0.42
					s0.04,0.29,0.18,0.51c0.05,0.07,0.25,0.27,0.4,0.29C116.15,141.69,116.42,141.57,116.5,141.47z"/>
				<g>
					<path class="st9" d="M116.21,140.71c-0.07,0.15-0.16,0.29-0.15,0.47C116.05,141,116.13,140.85,116.21,140.71z"/>
				</g>
				<path class="st1" d="M116.37,141.56c0,0,0.08-0.06,0.15-0.14c0.07-0.09,0.16-0.25,0.14-0.41c-0.01-0.1,0.02-0.19,0.03-0.25
					c0.02-0.07,0.06-0.12,0.06-0.12s0.01,0.04-0.02,0.12c-0.01,0.03-0.04,0.11-0.04,0.21c0,0.06,0,0.2-0.03,0.26
					c-0.02,0.04-0.03,0.05-0.06,0.09c-0.06,0.08-0.12,0.15-0.17,0.19S116.37,141.56,116.37,141.56z"/>
				<g>
					<path class="st9" d="M115.64,141.08c0.08,0,0.15-0.05,0.21-0.09c0.06-0.05,0.13-0.1,0.15-0.18
						C115.94,140.95,115.79,141.07,115.64,141.08z"/>
				</g>
				<g>
					<path class="st9" d="M116.34,141.58c0.11-0.05,0.19-0.15,0.26-0.25c0.09-0.09,0.11-0.22,0.1-0.34c0.01,0.12-0.01,0.25-0.1,0.34
						C116.53,141.44,116.45,141.53,116.34,141.58z"/>
				</g>
				<g>
					<path class="st9" d="M116.19,141.65c-0.15,0.06-0.3-0.01-0.42-0.11C115.89,141.63,116.04,141.7,116.19,141.65z"/>
				</g>
			</g>
		</g>
		<g>
			<path class="st21" d="M121.2,142.45c-0.01,0.01-0.01,0.02-0.01,0.02l0.14,2.11l3.28-0.17l-0.05-2.11c0,0,0-0.01-0.01-0.02
				c-0.01-0.01-0.03-0.01-0.03-0.01l-3.3,0.18C121.22,142.44,121.21,142.44,121.2,142.45z"/>
			<polyline class="st17" points="121.34,144.58 120.97,144.8 124.95,144.59 124.62,144.4 			"/>
			<path class="st18" d="M120.97,144.8l0.01,0.12c0,0,0,0.01,0,0.01s0.01,0,0.01,0l3.94-0.21c0,0,0.01,0,0.02-0.01
				s0.01-0.02,0.01-0.02l0-0.11"/>
			<polygon class="st19" points="121.58,144.6 121.45,144.71 124.51,144.53 124.38,144.45 			"/>
			<g>
				<g>
					
						<linearGradient id="SVGID_3_" gradientUnits="userSpaceOnUse" x1="135.6159" y1="138.6167" x2="136.0956" y2="138.6167" gradientTransform="matrix(0.9983 -0.058 0.058 0.9983 -19.4966 13.5509)">
						<stop  offset="0" style="stop-color:#000000"/>
						<stop  offset="1" style="stop-color:#000000;stop-opacity:0"/>
					</linearGradient>
					<path class="st22" d="M123.97,144.08c0.02-0.01,0.03-0.01,0.06-0.02c0,0,0.35,0.04,0.35,0.04l0.02-0.03l-0.35-0.05l-0.13,0.06
						C123.93,144.07,123.95,144.08,123.97,144.08z"/>
					<path class="st1" d="M124.25,144.05c-0.02-0.01-0.05-0.02-0.05-0.02l-0.03,0.04c0,0,0.02,0.01,0.04,0
						C124.25,144.08,124.27,144.06,124.25,144.05z"/>
					<g>
						<g>
							<path class="st2" d="M124.06,143.97c0,0,0.01,0.02,0.01,0.03c0,0.01,0,0.02,0,0.02s-0.02,0.01-0.02,0.01c0,0-0.01,0-0.02,0
								c0,0-0.01,0.01-0.01,0.01s-0.02,0.01-0.04,0.02c-0.01,0.01-0.04,0.01-0.05,0.01c-0.01,0-0.01-0.01-0.02-0.02
								c0-0.01,0-0.01,0-0.02c0,0,0.02-0.01,0.04-0.02c0.01,0,0.02-0.01,0.03-0.02c0.01-0.01,0.02-0.03,0.02-0.03L124.06,143.97z"/>
							<path d="M123.92,144.06c0,0,0.02,0,0.05-0.01c0.03-0.01,0.04-0.02,0.05-0.02c0,0,0.01-0.01,0.02-0.01c0.01,0,0.01,0,0.01,0
								c0,0,0.01,0,0.01-0.01c0,0,0.01-0.01,0.01-0.01s0,0.01,0,0.01c0,0-0.02,0.01-0.03,0.01c0,0-0.01-0.01-0.01,0
								c-0.01,0-0.01,0.01-0.02,0.02c-0.01,0.01-0.02,0.01-0.03,0.02s-0.03,0.01-0.04,0.01S123.92,144.06,123.92,144.06z"/>
							<path d="M123.95,144.02c0,0,0.01,0.01,0.03,0c0.01-0.01,0.03-0.02,0.03-0.02s0.01,0,0.02,0c0.01,0,0.03-0.01,0.03-0.01
								l-0.06,0.01c0,0-0.01,0.01-0.01,0.02C123.98,144.01,123.95,144.02,123.95,144.02z"/>
						</g>
						<g>
							<path class="st2" d="M124.11,143.97c0,0,0,0.02,0,0.03c0,0.01,0.01,0.01,0.01,0.01l0.03,0.06c0,0,0.01,0.02,0.03,0.02
								c0.03,0,0.03-0.02,0.03-0.02c0-0.01,0-0.01,0-0.02c0,0-0.02-0.02-0.03-0.03c-0.01-0.01-0.02-0.03-0.02-0.03l0-0.01
								L124.11,143.97z"/>
							<path d="M124.11,143.97c0,0,0.01,0,0.02,0.01s0.02,0.03,0.03,0.04c0.01,0,0.01,0,0.02,0c0.01,0,0.01-0.01,0-0.01
								c0,0-0.02-0.03-0.02-0.03s0-0.01,0-0.01s-0.01,0-0.02,0S124.11,143.97,124.11,143.97z"/>
							<path d="M124.21,144.03c0,0,0,0.01,0,0.01c0,0-0.01,0-0.01,0.01c-0.01,0-0.02,0.01-0.02,0.01c0,0-0.01,0-0.02,0
								c0,0-0.03-0.07-0.03-0.07c0,0-0.01,0-0.01,0s-0.01,0-0.01,0s0,0.01,0,0.01c0,0,0.01,0,0.01,0l0.03,0.06c0,0,0,0.01,0.02,0.01
								c0.01,0,0.02,0,0.04,0c0,0,0.01-0.01,0.01-0.01C124.22,144.04,124.21,144.03,124.21,144.03z"/>
						</g>
						<g>
							<path class="st3" d="M124.16,143.94c0-0.01-0.01-0.01-0.01-0.01s0.01-0.01,0.01-0.02s0-0.01,0-0.02c0-0.01,0-0.04,0-0.07
								c0-0.02-0.01-0.05-0.01-0.05s0-0.03,0-0.03c0,0,0-0.01,0-0.03c0-0.02,0-0.16,0-0.16s-0.03,0.01-0.08,0.02
								c-0.05,0-0.09-0.01-0.09-0.01s0,0.2,0,0.2c0,0,0.01,0.01,0,0.01c0,0,0,0.02,0.01,0.05c0,0.03,0.02,0.09,0.02,0.09
								c0,0,0,0.02,0,0.02c0,0,0.01,0.01,0.01,0.02c0,0,0,0.01,0,0.02c0,0.01,0,0.02,0,0.02c0,0,0,0.01,0.03,0.01
								c0.02,0,0.03-0.01,0.03-0.01s-0.03-0.21-0.03-0.22s0.02-0.17,0.02-0.17s0,0,0.01,0c0,0,0.01,0,0.01,0l0.04,0.39
								c0,0,0.01,0.01,0.04,0.01s0.02-0.01,0.02-0.01C124.16,143.96,124.16,143.94,124.16,143.94z"/>
							<path class="st4" d="M123.97,143.56c0,0,0.05,0.02,0.11,0.01c0.03,0,0.06-0.02,0.06-0.02l0-0.01c0,0-0.03,0.01-0.06,0.02
								c-0.02,0-0.04,0-0.06,0C123.99,143.56,123.97,143.56,123.97,143.56z"/>
							<path class="st4" d="M124.03,143.58l0.02,0c0,0-0.02,0.17-0.02,0.17c0,0.01,0.03,0.22,0.03,0.22s-0.01,0.01-0.03,0.01
								c-0.01,0-0.02,0-0.02,0s0.01,0,0.02-0.01c0.01-0.01,0.01-0.03,0.01-0.03s0-0.03-0.01-0.05s-0.03-0.13-0.03-0.14
								C124.01,143.75,124.03,143.58,124.03,143.58z"/>
							<g class="st4">
								<path d="M124,143.76c0.01,0,0.01,0,0.02,0l0,0l0.01,0l-0.01,0l0,0C124.01,143.76,124.01,143.76,124,143.76z"/>
							</g>
							<path class="st4" d="M124.16,143.97c0,0,0-0.02,0-0.03c0-0.01-0.01-0.01-0.01-0.01s0.01-0.01,0.01-0.02s0-0.01,0-0.02
								c0-0.01,0-0.04,0-0.07c0-0.02-0.01-0.05-0.01-0.05s0-0.03,0-0.03c0,0,0-0.01,0-0.03c0-0.02,0-0.15,0-0.15l-0.01,0
								c0,0,0,0.14,0.01,0.19C124.14,143.8,124.16,143.97,124.16,143.97L124.16,143.97C124.16,143.97,124.16,143.97,124.16,143.97z"
								/>
						</g>
						<g>
							<path class="st5" d="M123.98,143.22c0,0,0.03-0.01,0.06-0.02c0.03,0,0.04,0.01,0.04,0.01s0.02,0.01-0.04,0.01
								C123.97,143.23,123.98,143.22,123.98,143.22z"/>
							<path class="st6" d="M124.12,143.3c0,0,0.09,0.14,0.1,0.15c0,0.01,0.01,0.03,0.01,0.03l0.04,0c0,0,0,0,0.01-0.02
								c0-0.02-0.09-0.19-0.11-0.2c-0.01-0.01-0.09-0.02-0.09-0.02l0,0.06L124.12,143.3z"/>
							<path class="st6" d="M124.01,143.18l0,0.03l-0.04,0.01c0,0,0.01,0.03,0.06,0.03s0.06-0.03,0.06-0.03l-0.04-0.01l0-0.03
								L124.01,143.18z"/>
							<path class="st6" d="M123.92,143.25c0,0-0.02,0.03-0.03,0.05c-0.03,0.06-0.06,0.11-0.06,0.13c0,0.01-0.11-0.12-0.11-0.12
								l-0.03,0.03c0,0,0.12,0.16,0.15,0.16c0.03-0.01,0.09-0.14,0.09-0.14l0.09-0.1l0-0.03L123.92,143.25z"/>
							<path class="st7" d="M124.16,143.24c-0.01-0.01-0.08-0.03-0.09-0.03c0,0,0.01,0.01-0.04,0.01c-0.05,0-0.04-0.01-0.04-0.01
								s-0.07,0.02-0.08,0.04c-0.01,0.01-0.06,0.1-0.06,0.11c0,0.01,0.05,0.04,0.06,0.03c0.01-0.01,0.03-0.05,0.03-0.05
								s0.01,0.02,0.01,0.07c0,0.05,0.01,0.15,0.01,0.15s0.02,0,0.04,0c0.02,0,0.03,0.01,0.04,0.01c0.01,0,0.03-0.01,0.03-0.01
								c0.02,0,0.06-0.01,0.06-0.01s-0.01-0.11-0.01-0.14c0-0.04,0-0.09,0-0.09s0.03,0.05,0.04,0.06c0,0.01,0.06-0.01,0.06-0.02
								C124.23,143.35,124.18,143.25,124.16,143.24z"/>
							<path class="st4" d="M124.13,143.4c0,0.06,0.01,0.15,0.01,0.15l0,0C124.14,143.55,124.13,143.43,124.13,143.4
								c0-0.03,0.01-0.1,0.01-0.11C124.14,143.28,124.13,143.34,124.13,143.4z"/>
							<path class="st4" d="M123.95,143.41c0.01,0.06,0.01,0.15,0.01,0.15l0,0C123.96,143.56,123.95,143.44,123.95,143.41
								c-0.01-0.04-0.02-0.12-0.03-0.14C123.92,143.28,123.95,143.36,123.95,143.41z"/>
						</g>
						<g>
							<path class="st6" d="M123.88,142.95c-0.01-0.04-0.05-0.04-0.06-0.03c-0.01,0.01,0,0.04,0.01,0.07
								c0.01,0.03,0.04,0.05,0.06,0.05S123.9,142.99,123.88,142.95z"/>
							<path class="st6" d="M123.83,142.84c0,0,0.01,0.1,0.04,0.19c0.02,0.08,0.05,0.11,0.08,0.14c0.02,0.02,0.05,0.03,0.08,0.03
								c0.03,0,0.05-0.02,0.09-0.06c0.03-0.03,0.04-0.07,0.06-0.14c0.02-0.08,0.02-0.19,0.02-0.19s-0.08-0.05-0.19-0.04
								S123.83,142.84,123.83,142.84z"/>
							<path class="st6" d="M124.17,142.94c0.01-0.04,0.05-0.04,0.06-0.04c0.01,0.01,0.01,0.04,0,0.07
								c-0.01,0.03-0.04,0.05-0.05,0.06C124.16,143.03,124.15,142.98,124.17,142.94z"/>
							<path class="st8" d="M123.86,142.98c0,0,0.01,0.06,0.04,0.12c0.01,0.01,0.02,0.02,0.03,0.04c0.02,0.03,0.06,0.06,0.1,0.06
								c0.04,0,0.07-0.02,0.11-0.07c0.03-0.04,0.05-0.15,0.05-0.15s-0.03,0.09-0.04,0.11c-0.03,0.04-0.06-0.01-0.12-0.01
								c-0.06,0-0.1,0.06-0.12,0.02C123.88,143.04,123.86,142.98,123.86,142.98z"/>
							<path class="st9" d="M124.02,142.98c0,0.01,0,0.02,0,0.03c0,0.01,0,0.01,0,0.02c0,0,0,0.01,0.01,0.01
								c-0.01,0-0.01-0.01-0.01-0.01c0-0.01,0-0.01,0-0.02C124.01,143.01,124.02,142.99,124.02,142.98z"/>
							<g>
								<path class="st10" d="M124,143.13c0,0,0,0.01,0.03,0.01c0.02,0,0.04-0.01,0-0.01C124.02,143.13,124,143.13,124,143.13z"/>
								<path class="st11" d="M124,143.13c0,0,0.02,0,0.04,0c0.02,0,0.02,0,0.02,0s-0.01,0-0.02,0S124,143.13,124,143.13z"/>
							</g>
							<path class="st12" d="M124.1,142.92c0,0,0-0.02-0.03-0.03c-0.02-0.01-0.04-0.02-0.05-0.01c-0.01,0-0.01,0.01,0,0.02
								c0,0,0.02,0,0.04,0.01C124.09,142.91,124.1,142.92,124.1,142.92z"/>
							<path class="st12" d="M123.92,142.93c0,0,0-0.02,0.02-0.03c0.02-0.01,0.03-0.02,0.04-0.02c0.01,0,0.01,0.01,0.01,0.02
								s-0.02,0.01-0.04,0.01C123.92,142.92,123.92,142.93,123.92,142.93z"/>
							<path class="st13" d="M124.06,142.96c0,0,0.01,0,0.01,0c0-0.01,0-0.01-0.01-0.02C124.05,142.93,124.05,142.94,124.06,142.96
								C124.05,142.95,124.06,142.96,124.06,142.96z"/>
							<path class="st13" d="M123.97,142.96c0,0-0.01,0-0.01,0c0-0.01,0-0.01,0-0.02C123.97,142.94,123.98,142.94,123.97,142.96
								C123.98,142.96,123.97,142.96,123.97,142.96z"/>
						</g>
						<path class="st14" d="M124.19,142.96L124.19,142.96c0.01-0.03,0.03-0.14,0.02-0.18c-0.03-0.11-0.08-0.1-0.08-0.1l0.01,0.02
							c0,0-0.03-0.02-0.05-0.03s-0.04-0.01-0.04-0.01l0.03,0.02c0,0-0.06-0.02-0.13,0c-0.07,0.02-0.11,0.07-0.11,0.07l0.02-0.01
							c0,0-0.03,0.04-0.03,0.06c0,0.03,0,0.04,0,0.05c0,0.01,0.01-0.03,0.01-0.03s0.01,0.04,0.01,0.07
							c0.01,0.03,0.02,0.08,0.02,0.08l0,0c0,0,0-0.03-0.01-0.08c0-0.05,0-0.07,0.02-0.08c0.03-0.02,0.07-0.02,0.08-0.01
							c0.01,0-0.02,0.02-0.02,0.02c0.02,0,0.05-0.02,0.05-0.02c-0.01,0.01-0.03,0.02-0.03,0.02s0.04,0,0.07-0.01
							c0.03-0.01,0.04-0.02,0.05-0.02c0.01-0.01,0.06-0.01,0.07,0c0.01,0.01,0.04,0.02,0.04,0.07
							C124.19,142.9,124.19,142.96,124.19,142.96z"/>
						<path class="st9" d="M123.82,143.43c0,0.01,0.01,0.02,0.01,0.03C123.83,143.44,123.83,143.43,123.82,143.43z"/>
						<path class="st9" d="M124.23,143.45c0.01,0,0.03,0,0.04,0.01C124.25,143.45,124.24,143.44,124.23,143.45z"/>
						<polygon class="st15" points="124.17,143.47 124.18,143.47 124.18,143.54 						"/>
						<path class="st15" d="M124.17,143.42c0,0-0.02,0.01-0.02,0.02c0,0.01,0.02,0.02,0.02,0.02s-0.01-0.01-0.01-0.02
							S124.17,143.42,124.17,143.42z"/>
						<g>
							<path class="st6" d="M123.73,143.32c0,0,0.01-0.01,0.01-0.02c0.01-0.01,0-0.02,0-0.03c0-0.01,0-0.01,0-0.02
								c0,0-0.01,0-0.02,0.01c0,0.01,0,0.02,0,0.02c0,0-0.01-0.02-0.01-0.03c0-0.01,0-0.03,0-0.04c0-0.01,0-0.03-0.01-0.03
								c-0.01,0-0.01,0.01-0.01,0.02c0,0.01,0,0.04,0,0.04l0,0c0,0-0.01-0.05-0.01-0.06s-0.01-0.01-0.01-0.01c0,0,0,0,0,0.01
								c0,0.01,0.01,0.06,0.01,0.06l0,0c0,0-0.02-0.04-0.02-0.05c0,0,0-0.01-0.01-0.01c-0.01,0,0,0.01,0,0.01
								c0,0,0.01,0.05,0.01,0.05l0,0c0,0-0.01-0.02-0.01-0.02c0-0.01-0.01-0.02-0.01-0.01c0,0,0,0.01,0,0.02
								c0,0.01,0.01,0.03,0.02,0.03c0,0.01,0,0.02,0.02,0.04c0,0.01,0.02,0.02,0.03,0.02C123.7,143.34,123.72,143.33,123.73,143.32z
								"/>
							<path class="st9" d="M123.71,143.26c-0.01,0.01-0.01,0.02-0.01,0.04C123.69,143.28,123.7,143.27,123.71,143.26z"/>
							<path class="st1" d="M123.72,143.32c0,0,0.01,0,0.01-0.01c0.01-0.01,0.01-0.02,0.01-0.03c0-0.01,0-0.01,0-0.02
								c0-0.01,0-0.01,0-0.01s0,0,0,0.01c0,0,0,0.01,0,0.02c0,0,0,0.02,0,0.02c0,0,0,0,0,0.01
								C123.73,143.31,123.73,143.32,123.72,143.32C123.72,143.32,123.72,143.32,123.72,143.32z"/>
							<path class="st9" d="M123.66,143.29c0.01,0,0.01,0,0.02-0.01c0,0,0.01-0.01,0.01-0.01
								C123.69,143.28,123.68,143.29,123.66,143.29z"/>
							<path class="st9" d="M123.72,143.33c0.01,0,0.01-0.01,0.02-0.02c0.01-0.01,0.01-0.02,0.01-0.03c0,0.01,0,0.02-0.01,0.03
								C123.73,143.32,123.73,143.32,123.72,143.33z"/>
							<path class="st9" d="M123.71,143.33c-0.01,0.01-0.02,0-0.03-0.01C123.68,143.33,123.7,143.34,123.71,143.33z"/>
						</g>
					</g>
					<g>
						<polygon class="st23" points="124.1,143.38 124.1,143.38 124.11,143.55 124.37,143.52 124.36,143.36 124.36,143.36 
							124.35,143.36 124.1,143.38 						"/>
						<polyline class="st17" points="124.11,143.55 124.09,143.56 124.39,143.54 124.37,143.52 						"/>
						<polyline class="st18" points="124.09,143.56 124.09,143.57 124.09,143.57 124.09,143.57 124.39,143.55 124.39,143.55 
							124.39,143.55 124.39,143.54 						"/>
						<polygon class="st19" points="124.13,143.55 124.12,143.56 124.36,143.53 124.35,143.53 						"/>
					</g>
					<g>
						<path class="st6" d="M124.21,143.56C124.21,143.57,124.21,143.57,124.21,143.56c0.01,0.01,0.01,0,0.01,0s0,0.01,0.01,0.01
							c0.01,0,0.01,0,0.01,0s0,0,0.01,0c0.01,0,0.01,0,0.01,0s0,0,0.01,0c0.01,0,0.01,0,0.01-0.01c0,0,0-0.02,0-0.02
							c0,0,0-0.01-0.01-0.01s-0.01,0.01-0.01,0.01s0-0.01-0.01-0.01c-0.01,0-0.01,0.01-0.01,0.01s0-0.01-0.01-0.01
							s-0.01,0.01-0.01,0.01s0,0-0.01,0C124.21,143.55,124.21,143.56,124.21,143.56z"/>
						<g>
							<path class="st24" d="M124.22,143.55c0,0.01,0,0.01,0,0.02C124.22,143.56,124.22,143.56,124.22,143.55z"/>
						</g>
						<g>
							<path class="st24" d="M124.24,143.55c0,0.01,0,0.02,0,0.02C124.24,143.56,124.24,143.55,124.24,143.55z"/>
						</g>
						<g>
							<path class="st24" d="M124.25,143.54c0,0.01,0,0.02,0,0.03C124.25,143.56,124.25,143.55,124.25,143.54z"/>
						</g>
					</g>
					<path class="st3" d="M123.9,143.83"/>
				</g>
				<g>
					<path class="st25" d="M121.91,143.71l-0.43,0.02c-0.01,0-0.02-0.01-0.02-0.01l-0.01-0.11c0-0.01,0.01-0.02,0.01-0.02l0.43-0.02
						c0.01,0,0.02,0.01,0.02,0.01l0.01,0.11C121.92,143.7,121.91,143.71,121.91,143.71z"/>
					<path class="st26" d="M122.41,143.69l-0.43,0.02c-0.01,0-0.02-0.01-0.02-0.01l-0.01-0.11c0-0.01,0.01-0.02,0.01-0.02l0.43-0.02
						c0.01,0,0.02,0.01,0.02,0.01l0.01,0.11C122.42,143.68,122.42,143.69,122.41,143.69z"/>
					<path class="st27" d="M122.9,143.66l-0.43,0.02c-0.01,0-0.02-0.01-0.02-0.01l-0.01-0.11c0-0.01,0.01-0.02,0.01-0.02l0.43-0.02
						c0.01,0,0.02,0.01,0.02,0.01l0.01,0.11C122.92,143.66,122.91,143.66,122.9,143.66z"/>
				</g>
				<g class="st28">
					<path class="st29" d="M121.48,143.43c0.05,0,1.6-0.07,1.65-0.08s0.06-0.08,0-0.08c-0.06,0-1.6,0.08-1.65,0.08
						S121.42,143.43,121.48,143.43z"/>
				</g>
				<g class="st28">
					<path class="st30" d="M121.47,143.32c0.05,0,0.98-0.04,1.02-0.05c0.05,0,0.06-0.08,0-0.08c-0.06,0-0.98,0.05-1.02,0.05
						C121.42,143.23,121.41,143.32,121.47,143.32z"/>
				</g>
			</g>
		</g>
		<g>
			<path class="st6" d="M122.55,144.86c0,0.07,0.01,0.11,0.08,0.1c0.07,0,0.09-0.05,0.09-0.05s0.01,0.09,0.1,0.08
				c0.09,0,0.11-0.05,0.11-0.05s0.03,0.06,0.11,0.06c0.08,0,0.12-0.05,0.12-0.05s0.02,0.05,0.1,0.06c0.08,0,0.11-0.05,0.11-0.09
				c0-0.04,0-0.25-0.01-0.31c-0.01-0.05-0.03-0.09-0.1-0.09c-0.07,0-0.11,0.07-0.11,0.07s0-0.1-0.12-0.1
				c-0.12,0-0.12,0.14-0.12,0.14s-0.03-0.11-0.11-0.11c-0.08,0-0.1,0.15-0.1,0.15s-0.02-0.05-0.1-0.05
				C122.54,144.63,122.55,144.79,122.55,144.86z"/>
			<g>
				<g>
					<path class="st24" d="M122.71,144.68c0.01,0.08,0.01,0.16,0.01,0.24C122.71,144.83,122.71,144.76,122.71,144.68z"/>
				</g>
			</g>
			<g>
				<g>
					<path class="st24" d="M122.93,144.64c0.01,0.1,0.02,0.21,0.01,0.31C122.92,144.85,122.92,144.74,122.93,144.64z"/>
				</g>
			</g>
			<g>
				<g>
					<path class="st24" d="M123.16,144.6c0.01,0.12,0.01,0.24,0,0.36C123.16,144.83,123.15,144.71,123.16,144.6z"/>
				</g>
			</g>
		</g>
		<path class="st3" d="M118.47,148.14"/>
	</g>
	<g>
		<g>
			<g>
				<path d="M86.21,139.88l0-0.09l0.6-0.02l0,0.09l-0.27,0.04l-0.05,0L86.21,139.88z M86.56,140.98l0.28,0.02l0,0.09l-0.59,0.02
					l0-0.09l0.27-0.04L86.56,140.98z M86.4,140.4c-0.01-0.21-0.01-0.41-0.03-0.62l0.27-0.01c0,0.2,0.01,0.41,0.02,0.62l0,0.06
					c0.01,0.23,0.01,0.44,0.03,0.65l-0.27,0.01c0-0.2-0.01-0.41-0.02-0.62L86.4,140.4z M86.53,140.47l0-0.1l0.8-0.03l0,0.1
					L86.53,140.47z M87.01,139.85l0-0.09l0.6-0.02l0,0.09l-0.27,0.04l-0.05,0L87.01,139.85z M87.37,140.95l0.27,0.02l0,0.09
					l-0.59,0.02l0-0.09l0.27-0.04L87.37,140.95z M87.19,140.37c-0.01-0.21-0.01-0.41-0.03-0.62l0.27-0.01c0,0.2,0.01,0.41,0.02,0.62
					l0,0.09c0.01,0.21,0.01,0.41,0.03,0.62l-0.27,0.01c0-0.2-0.01-0.41-0.02-0.65L87.19,140.37z"/>
				<path d="M87.92,141.05c0-0.09,0-0.3-0.01-0.42l0-0.09c0-0.11-0.01-0.17-0.01-0.25l-0.14-0.01l0-0.07l0.36-0.14l0.03,0.02l0,0.28
					l0.01,0.26c0,0.12,0.01,0.33,0.02,0.42L87.92,141.05z M88.28,140.96l0,0.08l-0.5,0.02l0-0.08l0.2-0.05l0.1,0L88.28,140.96z
					 M87.85,139.74c0-0.08,0.06-0.14,0.15-0.15s0.15,0.05,0.16,0.14c0,0.08-0.06,0.14-0.15,0.15
					C87.92,139.88,87.85,139.83,87.85,139.74z"/>
				<path d="M88.41,141.46l-0.03-0.07c0.15-0.08,0.25-0.2,0.28-0.35l0.03,0.08l-0.12-0.07c-0.07-0.04-0.1-0.1-0.1-0.15
					c0-0.08,0.05-0.15,0.14-0.15c0.05,0,0.09,0.01,0.14,0.05c0.02,0.06,0.03,0.1,0.03,0.15C88.8,141.2,88.59,141.39,88.41,141.46z"
					/>
				<path d="M89.43,139.77l0-0.09l0.6-0.02l0,0.09l-0.28,0.04l-0.05,0L89.43,139.77z M89.79,140.87l0.28,0.02l0,0.09l-0.6,0.02
					l0-0.09l0.27-0.04L89.79,140.87z M89.61,140.29c-0.01-0.21-0.01-0.41-0.03-0.62l0.27-0.01c0,0.2,0.01,0.41,0.02,0.62l0,0.09
					c0.01,0.21,0.01,0.41,0.03,0.62L89.63,141c0-0.2-0.01-0.41-0.01-0.62L89.61,140.29z"/>
				<path d="M90.19,140.11l-0.04-0.06c0.1-0.08,0.18-0.16,0.21-0.3l0.01,0.11l-0.11-0.08c-0.06-0.05-0.08-0.09-0.08-0.15
					c0-0.08,0.05-0.14,0.13-0.14c0.05,0,0.09,0.02,0.12,0.04c0.02,0.04,0.04,0.1,0.04,0.15C90.48,139.86,90.35,140.02,90.19,140.11z
					"/>
				<path d="M90.77,140.96c0-0.09,0-0.3-0.01-0.42l0-0.1c0-0.11-0.01-0.16-0.01-0.24l-0.14-0.01l0-0.07l0.33-0.14l0.03,0.02
					l0.03,0.23l0.01,0.32c0,0.12,0.01,0.33,0.02,0.42L90.77,140.96z M91.13,140.87l0,0.08l-0.49,0.02l0-0.08l0.2-0.05l0.1,0
					L91.13,140.87z M91.59,140.3l0.01,0.21c0,0.13,0.01,0.33,0.02,0.42l-0.25,0.01c0-0.09,0-0.29-0.01-0.42l-0.01-0.18
					c0-0.16-0.04-0.22-0.15-0.21c-0.09,0-0.17,0.06-0.26,0.15l-0.06,0l0-0.11l0.11,0l-0.07,0.05c0.1-0.16,0.23-0.25,0.38-0.26
					C91.49,139.95,91.58,140.06,91.59,140.3z M91.54,140.81l0.19,0.03l0,0.08l-0.49,0.02l0-0.08l0.2-0.05L91.54,140.81z
					 M92.19,140.28l0.01,0.21c0,0.13,0.01,0.33,0.02,0.42l-0.25,0.01c0-0.09,0-0.29-0.01-0.42l-0.01-0.18
					c-0.01-0.17-0.05-0.21-0.15-0.21c-0.09,0-0.17,0.05-0.26,0.15l-0.06,0l0-0.1l0.12,0l-0.09,0.04c0.12-0.18,0.24-0.25,0.38-0.26
					C92.08,139.93,92.18,140.03,92.19,140.28z M92.13,140.79l0.2,0.03l0,0.08l-0.49,0.02l0-0.08l0.19-0.05L92.13,140.79z"/>
				<path d="M93.32,139.55c0,0.2,0.01,0.4,0.01,0.61l0.01,0.26c0.01,0.25,0,0.39-0.04,0.51c-0.05,0.19-0.21,0.29-0.39,0.3
					c-0.09,0-0.17-0.02-0.21-0.1c0-0.08,0.06-0.12,0.13-0.13c0.06,0,0.11,0.02,0.17,0.08l0.07,0.06l-0.02,0.02l-0.02,0v-0.02
					c0.06-0.06,0.07-0.15,0.07-0.29c-0.01-0.16-0.02-0.45-0.06-1.28L93.32,139.55z M92.87,139.56l0.62-0.02l0,0.09l-0.28,0.04
					l-0.06,0l-0.29-0.02L92.87,139.56z"/>
				<path d="M94.01,140.31c0.08-0.03,0.21-0.07,0.31-0.09l0,0.08c-0.09,0.02-0.2,0.06-0.26,0.09c-0.13,0.06-0.17,0.13-0.17,0.21
					c0,0.1,0.07,0.14,0.15,0.14c0.05,0,0.09-0.02,0.18-0.09l0.06-0.05l0.03,0.03l-0.07,0.08c-0.1,0.12-0.17,0.18-0.3,0.18
					c-0.15,0-0.27-0.08-0.27-0.24C93.66,140.51,93.73,140.41,94.01,140.31z M94.22,140.67l-0.02-0.48
					c-0.01-0.19-0.05-0.23-0.18-0.23c-0.05,0-0.1,0.01-0.18,0.04l0.11-0.07l-0.03,0.16c-0.01,0.1-0.05,0.14-0.12,0.14
					c-0.06,0-0.1-0.03-0.12-0.09c0.02-0.16,0.17-0.27,0.41-0.28c0.23-0.01,0.34,0.09,0.34,0.35l0.01,0.44
					c0,0.06,0.03,0.09,0.06,0.09c0.03,0,0.05-0.02,0.07-0.05l0.05,0.04c-0.04,0.09-0.11,0.13-0.2,0.13
					C94.31,140.87,94.23,140.79,94.22,140.67z"/>
				<path d="M94.72,140.77l-0.01-0.23l0.13,0l0.06,0.25l-0.11-0.04l0-0.08c0.08,0.05,0.15,0.08,0.25,0.07c0.13,0,0.2-0.06,0.2-0.14
					c0-0.07-0.05-0.11-0.18-0.15l-0.1-0.03c-0.15-0.04-0.25-0.13-0.25-0.28c-0.01-0.16,0.12-0.31,0.37-0.32
					c0.11,0,0.2,0.02,0.3,0.07l0,0.21l-0.13,0l-0.06-0.22l0.09,0.04l0,0.06c-0.07-0.04-0.12-0.07-0.21-0.06
					c-0.11,0-0.17,0.05-0.17,0.13c0,0.07,0.04,0.11,0.18,0.15l0.08,0.02c0.2,0.06,0.28,0.16,0.28,0.29
					c0.01,0.18-0.14,0.31-0.41,0.32C94.92,140.85,94.82,140.82,94.72,140.77z"/>
				<path d="M95.58,140.32c-0.01-0.32,0.21-0.51,0.47-0.52c0.26-0.01,0.49,0.17,0.5,0.49s-0.2,0.51-0.46,0.52
					C95.81,140.82,95.59,140.64,95.58,140.32z M96.29,140.3c-0.01-0.28-0.09-0.41-0.24-0.4c-0.14,0-0.22,0.14-0.21,0.42
					c0.01,0.28,0.09,0.41,0.24,0.4C96.22,140.71,96.3,140.58,96.29,140.3z"/>
				<path d="M96.83,140.76c0-0.09,0-0.3-0.01-0.42l0-0.1c0-0.11-0.01-0.16-0.01-0.24l-0.14-0.01l0-0.07l0.33-0.14l0.03,0.02
					l0.03,0.23l0.01,0.32c0,0.12,0.01,0.33,0.02,0.42L96.83,140.76z M97.2,140.66l0,0.08l-0.49,0.02l0-0.08l0.2-0.05l0.1,0
					L97.2,140.66z M97.66,140.1l0.01,0.21c0,0.13,0.01,0.33,0.02,0.42l-0.25,0.01c0-0.09,0-0.29-0.01-0.42l-0.01-0.19
					c0-0.16-0.05-0.21-0.15-0.2c-0.08,0-0.17,0.05-0.27,0.15l-0.06,0l0-0.11l0.12,0l-0.08,0.05c0.11-0.17,0.25-0.25,0.39-0.26
					C97.55,139.75,97.65,139.85,97.66,140.1z M97.61,140.61l0.2,0.03l0,0.08l-0.49,0.02l0-0.08l0.2-0.05L97.61,140.61z"/>
				<path d="M98.29,139.51c0,0.07-0.01,0.24-0.05,0.5l-0.03,0.23l-0.09,0l-0.04-0.23c-0.06-0.26-0.08-0.42-0.08-0.5
					c0-0.1,0.05-0.16,0.14-0.16C98.22,139.36,98.28,139.41,98.29,139.51z M98.02,140.59c0-0.09,0.06-0.16,0.15-0.16
					c0.09,0,0.16,0.07,0.16,0.15c0,0.08-0.06,0.16-0.15,0.16C98.09,140.74,98.02,140.68,98.02,140.59z"/>
			</g>
		</g>
		<g>
			<text transform="matrix(0.9994 -0.0333 0.0333 0.9994 89.0841 146.699)" class="st31 st32 st33">Work</text>
		</g>
		<g>
			<text transform="matrix(0.9994 -0.0333 0.0333 0.9994 96.6117 146.4485)" class="st34 st32 st33">Hobbies</text>
		</g>
		<g>
			<text transform="matrix(0.9994 -0.0333 0.0333 0.9994 104.7693 146.177)" class="st35 st32 st33">Contact</text>
		</g>
		<g>
			<g>
				<path class="st36" d="M86.29,142.39l0.08,0l0.02,0.66l-0.08,0L86.29,142.39z"/>
				<path class="st36" d="M86.53,142.57c0.05-0.04,0.07-0.07,0.07-0.13l-0.01-0.07l0.04,0.05c-0.01,0.01-0.02,0.02-0.04,0.02
					c-0.03,0-0.05-0.02-0.05-0.05c0-0.04,0.02-0.06,0.05-0.06c0.04,0,0.07,0.03,0.07,0.09c0,0.08-0.03,0.14-0.1,0.18L86.53,142.57z"
					/>
				<path class="st36" d="M86.8,142.55l0.07,0l0.01,0.07h0c0.04-0.05,0.09-0.09,0.15-0.09c0.08,0,0.12,0.03,0.14,0.09
					c0.05-0.06,0.1-0.1,0.16-0.1c0.1,0,0.15,0.06,0.16,0.19l0.01,0.31l-0.08,0l-0.01-0.3c0-0.09-0.03-0.13-0.09-0.13
					c-0.04,0-0.08,0.03-0.12,0.08l0.01,0.35l-0.08,0l-0.01-0.3c0-0.09-0.03-0.13-0.1-0.13c-0.04,0-0.08,0.03-0.12,0.08l0.01,0.35
					l-0.08,0L86.8,142.55z"/>
				<path class="st36" d="M87.81,142.88c0-0.11,0.09-0.16,0.29-0.19c0-0.06-0.03-0.12-0.11-0.12c-0.06,0-0.11,0.03-0.14,0.06
					l-0.03-0.06c0.04-0.03,0.11-0.07,0.19-0.07c0.12,0,0.17,0.08,0.18,0.2l0.01,0.3l-0.07,0l-0.01-0.06h0
					c-0.04,0.04-0.1,0.07-0.16,0.08C87.88,143.02,87.82,142.97,87.81,142.88z M88.11,142.88l0-0.14c-0.16,0.03-0.22,0.07-0.22,0.13
					c0,0.06,0.04,0.08,0.09,0.08C88.03,142.94,88.07,142.92,88.11,142.88z"/>
				<path class="st36" d="M88.51,142.9l0.05-0.06c0.05,0.05,0.12,0.08,0.18,0.08c0.09,0,0.14-0.05,0.13-0.11
					c0-0.07-0.05-0.09-0.11-0.11l-0.1-0.04c-0.06-0.02-0.14-0.07-0.14-0.17c0-0.1,0.08-0.18,0.2-0.18c0.08,0,0.15,0.03,0.2,0.08
					l-0.04,0.06c-0.04-0.04-0.09-0.06-0.15-0.06c-0.07,0-0.12,0.04-0.12,0.1c0,0.06,0.06,0.09,0.11,0.11l0.1,0.04
					c0.08,0.03,0.14,0.07,0.14,0.17c0,0.1-0.08,0.19-0.22,0.2C88.65,142.99,88.57,142.95,88.51,142.9z"/>
				<path class="st36" d="M89.04,142.72c-0.01-0.16,0.1-0.26,0.22-0.27c0.12,0,0.23,0.09,0.24,0.25c0,0.16-0.1,0.26-0.22,0.26
					S89.05,142.88,89.04,142.72z M89.41,142.71c0-0.11-0.06-0.19-0.15-0.18s-0.14,0.08-0.13,0.19s0.06,0.19,0.15,0.18
					S89.41,142.82,89.41,142.71z"/>
				<path class="st36" d="M89.89,142.78l-0.01-0.27l-0.33,0.01l0-0.06l0.07-0.01l0.26-0.01l0.01-0.14l0.07,0l0,0.14l0.13,0l0,0.07
					l-0.13,0l0.01,0.27c0,0.06,0.02,0.09,0.08,0.09c0.02,0,0.04-0.01,0.05-0.01l0.02,0.06c-0.03,0.01-0.06,0.02-0.09,0.02
					C89.94,142.95,89.9,142.88,89.89,142.78z M89.62,142.38c0-0.1,0.04-0.17,0.14-0.17c0.03,0,0.06,0.01,0.08,0.01l-0.02,0.06
					c-0.02-0.01-0.04-0.01-0.06-0.01c-0.05,0-0.07,0.04-0.07,0.1l0.02,0.57l-0.08,0L89.62,142.38z"/>
				<path class="st36" d="M90.15,142.44l0.08,0l0.08,0.28c0.01,0.05,0.02,0.09,0.03,0.14h0c0.01-0.05,0.02-0.09,0.03-0.14l0.07-0.28
					l0.08,0l0.09,0.28c0.01,0.05,0.03,0.09,0.04,0.14h0c0.01-0.05,0.02-0.09,0.03-0.14l0.06-0.29l0.08,0l-0.12,0.49l-0.1,0
					l-0.08-0.26c-0.01-0.05-0.02-0.09-0.04-0.14h0c-0.01,0.05-0.02,0.1-0.03,0.14l-0.06,0.26l-0.1,0L90.15,142.44z"/>
				<path class="st36" d="M90.9,142.78c0-0.11,0.09-0.16,0.29-0.19c0-0.06-0.03-0.12-0.11-0.12c-0.06,0-0.11,0.03-0.14,0.06
					l-0.03-0.06c0.04-0.03,0.11-0.07,0.19-0.07c0.12,0,0.17,0.07,0.18,0.2l0.01,0.3l-0.07,0l-0.01-0.06h0
					c-0.04,0.04-0.1,0.07-0.16,0.08C90.97,142.91,90.91,142.86,90.9,142.78z M91.2,142.77l0-0.14c-0.16,0.03-0.22,0.07-0.22,0.13
					c0,0.06,0.04,0.08,0.09,0.08C91.12,142.84,91.16,142.82,91.2,142.77z"/>
				<path class="st36" d="M91.43,142.4l0.07,0l0.01,0.09l0,0c0.03-0.06,0.08-0.1,0.14-0.11c0.02,0,0.04,0,0.05,0.01l-0.01,0.07
					c-0.02,0-0.03-0.01-0.05-0.01c-0.04,0-0.09,0.03-0.12,0.12l0.01,0.31l-0.08,0L91.43,142.4z"/>
				<path class="st36" d="M91.75,142.63c-0.01-0.16,0.1-0.26,0.21-0.27c0.12,0,0.2,0.08,0.2,0.22c0,0.02,0,0.03,0,0.05l-0.33,0.01
					c0.01,0.1,0.08,0.17,0.17,0.17c0.05,0,0.08-0.02,0.12-0.04l0.03,0.05c-0.04,0.03-0.09,0.05-0.16,0.06
					C91.86,142.88,91.75,142.79,91.75,142.63z M92.09,142.58c0-0.1-0.05-0.15-0.12-0.15c-0.07,0-0.13,0.06-0.14,0.16L92.09,142.58z"
					/>
				<path class="st36" d="M92.47,142.19l0.38-0.01l0,0.07l-0.3,0.01l0.01,0.21l0.25-0.01l0,0.07l-0.25,0.01l0.01,0.24l0.31-0.01
					l0,0.07l-0.39,0.01L92.47,142.19z"/>
				<path class="st36" d="M93,142.34l0.07,0l0.01,0.07h0c0.05-0.05,0.09-0.09,0.16-0.09c0.1,0,0.15,0.06,0.16,0.19l0.01,0.31
					l-0.08,0l-0.01-0.3c0-0.09-0.03-0.13-0.1-0.13c-0.05,0-0.08,0.03-0.13,0.08l0.01,0.35l-0.08,0L93,142.34z"/>
				<path class="st36" d="M93.52,142.91c0-0.04,0.02-0.08,0.07-0.11v0c-0.03-0.01-0.05-0.04-0.05-0.08c0-0.04,0.03-0.07,0.05-0.09v0
					c-0.03-0.03-0.07-0.07-0.07-0.13c0-0.11,0.08-0.18,0.18-0.18c0.03,0,0.05,0,0.07,0.01l0.17-0.01l0,0.06l-0.1,0
					c0.02,0.02,0.04,0.06,0.04,0.1c0,0.11-0.07,0.17-0.17,0.18c-0.02,0-0.05,0-0.07-0.01c-0.02,0.01-0.03,0.03-0.03,0.06
					c0,0.03,0.02,0.05,0.09,0.05l0.09,0c0.11,0,0.17,0.03,0.17,0.11c0,0.09-0.09,0.17-0.24,0.18
					C93.61,143.04,93.53,142.99,93.52,142.91z M93.89,142.87c0-0.04-0.04-0.06-0.1-0.06l-0.08,0c-0.02,0-0.04,0-0.06-0.01
					c-0.03,0.03-0.05,0.06-0.05,0.08c0,0.05,0.06,0.08,0.14,0.08C93.83,142.97,93.89,142.92,93.89,142.87z M93.82,142.48
					c0-0.07-0.05-0.11-0.11-0.11c-0.06,0-0.1,0.05-0.1,0.12c0,0.07,0.05,0.11,0.11,0.11C93.77,142.6,93.82,142.55,93.82,142.48z"/>
				<path class="st36" d="M94.03,142.15c0-0.03,0.02-0.05,0.06-0.06c0.03,0,0.06,0.02,0.06,0.05c0,0.03-0.02,0.05-0.06,0.06
					C94.05,142.21,94.03,142.19,94.03,142.15z M94.05,142.31l0.08,0l0.02,0.49l-0.08,0L94.05,142.31z"/>
				<path class="st36" d="M94.29,142.3l0.07,0l0.01,0.07h0c0.05-0.05,0.09-0.09,0.16-0.09c0.1,0,0.15,0.06,0.16,0.19l0.01,0.31
					l-0.08,0l-0.01-0.3c0-0.09-0.03-0.13-0.1-0.13c-0.05,0-0.08,0.03-0.13,0.08l0.01,0.35l-0.08,0L94.29,142.3z"/>
				<path class="st36" d="M94.81,142.53c0-0.16,0.1-0.26,0.21-0.26c0.12,0,0.2,0.08,0.2,0.22c0,0.02,0,0.03,0,0.05l-0.33,0.01
					c0.01,0.1,0.08,0.17,0.17,0.17c0.05,0,0.08-0.02,0.12-0.04l0.03,0.05c-0.04,0.03-0.09,0.05-0.16,0.06
					C94.92,142.78,94.82,142.69,94.81,142.53z M95.15,142.48c0-0.1-0.05-0.15-0.13-0.15c-0.07,0-0.13,0.06-0.13,0.16L95.15,142.48z"
					/>
				<path class="st36" d="M95.31,142.51c0-0.16,0.1-0.26,0.21-0.26c0.12,0,0.2,0.08,0.2,0.22c0,0.02,0,0.03,0,0.05l-0.33,0.01
					c0.01,0.1,0.08,0.17,0.17,0.17c0.05,0,0.09-0.02,0.12-0.04l0.03,0.05c-0.04,0.03-0.09,0.05-0.16,0.06
					C95.42,142.76,95.31,142.67,95.31,142.51z M95.65,142.46c0-0.1-0.05-0.15-0.13-0.15c-0.07,0-0.13,0.06-0.13,0.16L95.65,142.46z"
					/>
				<path class="st36" d="M95.83,142.25l0.07,0l0.01,0.09h0c0.03-0.06,0.08-0.1,0.14-0.11c0.02,0,0.04,0,0.05,0.01l-0.01,0.07
					c-0.02,0-0.03-0.01-0.05-0.01c-0.04,0-0.09,0.03-0.12,0.12l0.01,0.31l-0.08,0L95.83,142.25z"/>
				<path class="st36" d="M96.47,142.67L96.47,142.67l-0.01,0.05l-0.07,0L96.37,142l0.08,0l0.01,0.2v0.09
					c0.04-0.04,0.1-0.07,0.15-0.07c0.13,0,0.2,0.09,0.2,0.24c0.01,0.17-0.09,0.27-0.2,0.27C96.56,142.73,96.51,142.7,96.47,142.67z
					 M96.73,142.46c0-0.11-0.04-0.18-0.13-0.18c-0.04,0-0.08,0.03-0.13,0.07l0.01,0.26c0.04,0.04,0.09,0.05,0.12,0.05
					C96.68,142.65,96.73,142.58,96.73,142.46z"/>
				<path class="st36" d="M96.91,142.58c0-0.11,0.09-0.16,0.29-0.19c0-0.06-0.02-0.12-0.1-0.12c-0.06,0-0.11,0.03-0.15,0.06
					l-0.03-0.06c0.04-0.03,0.11-0.07,0.19-0.07c0.12,0,0.17,0.08,0.18,0.2l0.01,0.3l-0.07,0l-0.01-0.06h0
					c-0.04,0.04-0.1,0.07-0.16,0.08C96.98,142.71,96.92,142.66,96.91,142.58z M97.21,142.57l0-0.14c-0.16,0.03-0.22,0.07-0.21,0.13
					c0,0.06,0.04,0.08,0.09,0.08S97.17,142.62,97.21,142.57z"/>
				<path class="st36" d="M97.39,142.63l0.04-0.06c0.04,0.03,0.09,0.05,0.15,0.05c0.06,0,0.09-0.04,0.09-0.08
					c0-0.05-0.06-0.07-0.12-0.09c-0.07-0.02-0.15-0.05-0.15-0.14c0-0.08,0.06-0.14,0.16-0.14c0.06,0,0.12,0.02,0.15,0.05l-0.04,0.05
					c-0.03-0.02-0.07-0.04-0.11-0.04c-0.06,0-0.09,0.04-0.09,0.07c0,0.05,0.06,0.06,0.11,0.08c0.07,0.03,0.15,0.05,0.15,0.14
					c0,0.08-0.06,0.15-0.17,0.15C97.51,142.69,97.44,142.67,97.39,142.63z"/>
				<path class="st36" d="M97.83,142.43c-0.01-0.16,0.1-0.26,0.21-0.26c0.12,0,0.2,0.08,0.2,0.22c0,0.02,0,0.03,0,0.05l-0.33,0.01
					c0.01,0.1,0.08,0.17,0.17,0.17c0.05,0,0.08-0.02,0.12-0.04l0.03,0.05c-0.04,0.03-0.09,0.05-0.16,0.06
					C97.94,142.68,97.83,142.59,97.83,142.43z M98.17,142.38c0-0.1-0.05-0.15-0.13-0.15c-0.07,0-0.13,0.06-0.14,0.16L98.17,142.38z"
					/>
				<path class="st36" d="M98.32,142.41c0-0.16,0.09-0.26,0.2-0.26c0.06,0,0.09,0.02,0.14,0.05l-0.01-0.08l-0.01-0.19l0.08,0
					l0.02,0.72l-0.07,0l-0.01-0.06h0c-0.04,0.04-0.09,0.07-0.15,0.08C98.41,142.66,98.33,142.57,98.32,142.41z M98.67,142.52
					l-0.01-0.26c-0.04-0.04-0.08-0.05-0.12-0.05c-0.08,0-0.14,0.08-0.13,0.19c0,0.12,0.05,0.19,0.14,0.18
					C98.59,142.59,98.63,142.57,98.67,142.52z"/>
				<path class="st36" d="M99.08,141.99c0-0.03,0.02-0.05,0.06-0.06s0.06,0.02,0.06,0.05c0,0.03-0.02,0.05-0.05,0.06
					S99.08,142.02,99.08,141.99z M99.1,142.14l0.08,0l0.02,0.49l-0.08,0L99.1,142.14z"/>
				<path class="st36" d="M99.35,142.13l0.07,0l0.01,0.07l0,0c0.04-0.05,0.09-0.09,0.16-0.09c0.1,0,0.15,0.06,0.16,0.19l0.01,0.31
					l-0.08,0l-0.01-0.3c0-0.09-0.03-0.13-0.1-0.13c-0.05,0-0.08,0.03-0.13,0.08l0.01,0.35l-0.08,0L99.35,142.13z"/>
				<path class="st36" d="M100.01,141.94l0.09,0l0.12,0.35c0.03,0.08,0.04,0.14,0.07,0.22l0,0c0.02-0.08,0.04-0.14,0.06-0.22
					l0.09-0.36l0.09,0l-0.19,0.67l-0.1,0L100.01,141.94z"/>
				<path class="st36" d="M100.59,142.45c0-0.11,0.09-0.16,0.29-0.19c0-0.06-0.02-0.12-0.1-0.12c-0.06,0-0.11,0.03-0.15,0.06
					l-0.03-0.06c0.04-0.03,0.11-0.07,0.19-0.07c0.12,0,0.17,0.07,0.18,0.2l0.01,0.3l-0.07,0l-0.01-0.06h0
					c-0.05,0.04-0.1,0.07-0.16,0.08C100.66,142.59,100.6,142.54,100.59,142.45z M100.89,142.45l0-0.14
					c-0.16,0.03-0.22,0.07-0.21,0.13c0,0.06,0.04,0.08,0.09,0.08C100.81,142.52,100.85,142.49,100.89,142.45z"/>
				<path class="st36" d="M101.12,142.07l0.07,0l0.01,0.07h0c0.04-0.05,0.09-0.09,0.16-0.09c0.1,0,0.15,0.06,0.16,0.19l0.01,0.31
					l-0.08,0l-0.01-0.3c0-0.09-0.03-0.13-0.1-0.13c-0.05,0-0.08,0.03-0.13,0.08l0.01,0.35l-0.08,0L101.12,142.07z"/>
				<path class="st36" d="M101.63,142.3c0-0.16,0.1-0.26,0.23-0.27c0.06,0,0.11,0.02,0.14,0.05l-0.04,0.06
					c-0.03-0.02-0.06-0.04-0.1-0.04c-0.09,0-0.15,0.08-0.15,0.19s0.07,0.19,0.16,0.18c0.04,0,0.08-0.02,0.11-0.05l0.04,0.05
					c-0.04,0.04-0.1,0.07-0.16,0.07C101.74,142.55,101.64,142.46,101.63,142.3z"/>
				<path class="st36" d="M102.09,142.29c0-0.16,0.1-0.26,0.22-0.27s0.23,0.09,0.24,0.25c0.01,0.16-0.1,0.26-0.22,0.26
					S102.1,142.45,102.09,142.29z M102.46,142.27c0-0.11-0.06-0.19-0.15-0.18c-0.08,0-0.14,0.08-0.14,0.19s0.06,0.19,0.15,0.18
					C102.41,142.46,102.46,142.39,102.46,142.27z"/>
				<path class="st36" d="M102.66,142.33l-0.01-0.31l0.08,0l0.01,0.3c0,0.09,0.03,0.13,0.1,0.13c0.05,0,0.08-0.03,0.13-0.09
					l-0.01-0.35l0.08,0l0.02,0.49l-0.07,0l-0.01-0.08h0c-0.04,0.05-0.09,0.09-0.16,0.09C102.72,142.52,102.67,142.46,102.66,142.33z
					"/>
				<path class="st36" d="M103.13,142.01l0.09,0l0.1,0.27c0.02,0.05,0.03,0.1,0.05,0.14l0,0c0.01-0.05,0.03-0.1,0.04-0.15l0.08-0.28
					l0.08,0l-0.16,0.5l-0.1,0L103.13,142.01z"/>
				<path class="st36" d="M103.64,142.23c0-0.16,0.1-0.26,0.21-0.26c0.12,0,0.2,0.08,0.2,0.22c0,0.02,0,0.03,0,0.05l-0.33,0.01
					c0.01,0.1,0.08,0.17,0.17,0.17c0.05,0,0.08-0.02,0.12-0.04l0.03,0.05c-0.04,0.03-0.09,0.05-0.16,0.06
					C103.76,142.49,103.65,142.4,103.64,142.23z M103.98,142.18c0-0.1-0.05-0.15-0.13-0.15c-0.07,0-0.13,0.06-0.14,0.16
					L103.98,142.18z"/>
				<path class="st36" d="M104.17,141.97l0.07,0l0.01,0.09h0c0.03-0.06,0.08-0.1,0.13-0.11c0.02,0,0.04,0,0.05,0.01l-0.01,0.07
					c-0.02,0-0.03-0.01-0.05-0.01c-0.04,0-0.09,0.03-0.12,0.12l0.01,0.31l-0.08,0L104.17,141.97z"/>
				<path class="st36" d="M104.5,142.57c0.06-0.03,0.09-0.07,0.09-0.13l-0.01-0.07l0.04,0.06c-0.01,0.01-0.03,0.02-0.04,0.02
					c-0.03,0-0.06-0.02-0.06-0.06c0-0.04,0.03-0.06,0.06-0.06c0.04,0,0.07,0.03,0.07,0.09c0,0.09-0.05,0.16-0.13,0.19L104.5,142.57z
					"/>
				<path class="st36" d="M104.94,142.11c-0.01-0.21,0.11-0.35,0.28-0.35c0.08,0,0.14,0.03,0.18,0.08l-0.04,0.06
					c-0.04-0.04-0.08-0.06-0.14-0.06c-0.12,0-0.21,0.11-0.2,0.27c0.01,0.17,0.09,0.27,0.21,0.26c0.06,0,0.11-0.03,0.15-0.08
					l0.05,0.05c-0.05,0.06-0.11,0.1-0.2,0.1C105.07,142.44,104.94,142.32,104.94,142.11z"/>
				<path class="st36" d="M105.52,142.29c0-0.11,0.09-0.16,0.29-0.19c0-0.06-0.02-0.12-0.1-0.12c-0.06,0-0.11,0.03-0.15,0.06
					l-0.03-0.06c0.04-0.03,0.11-0.07,0.19-0.07c0.12,0,0.17,0.07,0.18,0.2l0.01,0.3l-0.07,0l-0.01-0.06h0
					c-0.04,0.04-0.1,0.07-0.16,0.08C105.58,142.43,105.52,142.38,105.52,142.29z M105.81,142.29l0-0.14
					c-0.16,0.03-0.22,0.07-0.21,0.13c0,0.06,0.04,0.08,0.09,0.08C105.73,142.35,105.77,142.33,105.81,142.29z"/>
				<path class="st36" d="M106.04,141.91l0.07,0l0.01,0.07h0c0.04-0.05,0.09-0.09,0.16-0.09c0.1,0,0.15,0.06,0.16,0.19l0.01,0.31
					l-0.08,0l-0.01-0.3c0-0.09-0.03-0.13-0.1-0.13c-0.05,0-0.08,0.03-0.13,0.08l0.01,0.35l-0.08,0L106.04,141.91z"/>
				<path class="st36" d="M106.56,142.25c0-0.11,0.09-0.16,0.29-0.19c0-0.06-0.02-0.12-0.1-0.12c-0.06,0-0.11,0.03-0.15,0.06
					l-0.03-0.06c0.04-0.03,0.11-0.07,0.19-0.07c0.12,0,0.17,0.08,0.18,0.2l0.01,0.3l-0.07,0l-0.01-0.06h0
					c-0.04,0.04-0.1,0.07-0.16,0.08C106.63,142.39,106.57,142.34,106.56,142.25z M106.86,142.25l0-0.14
					c-0.16,0.03-0.22,0.07-0.21,0.13c0,0.06,0.04,0.08,0.09,0.08S106.82,142.29,106.86,142.25z"/>
				<path class="st36" d="M107.06,142.12c0-0.16,0.09-0.26,0.2-0.27c0.06,0,0.09,0.02,0.14,0.05l-0.01-0.08l-0.01-0.19l0.08,0
					l0.02,0.72l-0.07,0l-0.01-0.06h0c-0.04,0.04-0.09,0.07-0.15,0.07C107.15,142.37,107.07,142.28,107.06,142.12z M107.41,142.23
					l-0.01-0.26c-0.04-0.04-0.08-0.05-0.12-0.05c-0.08,0-0.14,0.08-0.13,0.19c0,0.12,0.05,0.19,0.14,0.18
					C107.33,142.3,107.37,142.27,107.41,142.23z"/>
				<path class="st36" d="M107.62,142.22c0-0.11,0.09-0.16,0.29-0.19c0-0.06-0.02-0.12-0.1-0.12c-0.06,0-0.11,0.03-0.15,0.06
					l-0.03-0.06c0.04-0.03,0.11-0.07,0.19-0.07c0.12,0,0.17,0.07,0.18,0.2l0.01,0.3l-0.07,0l-0.01-0.06h0
					c-0.04,0.04-0.1,0.07-0.16,0.08C107.69,142.36,107.63,142.31,107.62,142.22z M107.92,142.22l0-0.14
					c-0.16,0.03-0.22,0.07-0.21,0.13c0,0.06,0.04,0.08,0.09,0.08S107.88,142.26,107.92,142.22z"/>
				<path class="st36" d="M108.14,142.28c0-0.04,0.03-0.06,0.06-0.07c0.03,0,0.06,0.02,0.06,0.06c0,0.04-0.03,0.06-0.06,0.06
					C108.17,142.34,108.15,142.32,108.14,142.28z"/>
			</g>
		</g>
		<path class="st37" d="M93.57,147.46l-6.98,0.23c-0.14,0-0.25-0.1-0.26-0.24l-0.06-1.82c0-0.14,0.1-0.25,0.24-0.26l6.98-0.23
			c0.14,0,0.25,0.1,0.26,0.24l0.06,1.82C93.82,147.34,93.71,147.46,93.57,147.46z"/>
		<path class="st38" d="M101.68,147.19l-6.98,0.23c-0.14,0-0.25-0.1-0.26-0.24l-0.06-1.82c0-0.14,0.1-0.25,0.24-0.26l6.98-0.23
			c0.14,0,0.25,0.1,0.26,0.24l0.06,1.82C101.92,147.07,101.82,147.19,101.68,147.19z"/>
		<path class="st39" d="M109.75,146.93l-6.98,0.23c-0.14,0-0.25-0.1-0.26-0.24l-0.06-1.82c0-0.14,0.1-0.25,0.24-0.26l6.98-0.23
			c0.14,0,0.25,0.1,0.26,0.24l0.06,1.82C110,146.81,109.89,146.92,109.75,146.93z"/>
		<line class="st40" x1="86.23" y1="144.33" x2="109.89" y2="143.54"/>
	</g>
</g>
<g>
	<path class="st6" d="M99.92,162.27c0,0.91,0.05,1.45,1.06,1.45c1.01,0,1.27-0.62,1.27-0.62s0.1,1.18,1.36,1.18
		c1.27,0,1.57-0.61,1.57-0.61s0.45,0.82,1.56,0.82s1.63-0.66,1.63-0.66s0.3,0.76,1.37,0.81s1.52-0.61,1.52-1.14
		c0-0.53,0.09-3.49,0.02-4.23c-0.07-0.74-0.33-1.21-1.29-1.26c-0.96-0.05-1.52,0.91-1.52,0.91s-0.01-1.39-1.65-1.39
		c-1.64,0-1.64,1.87-1.64,1.87s-0.41-1.49-1.52-1.49s-1.42,1.98-1.42,1.98s-0.3-0.76-1.32-0.76
		C99.92,159.12,99.92,161.36,99.92,162.27z"/>
	<g>
		<g>
			<path class="st24" d="M102.25,159.85c0.1,0.54,0.11,1.08,0.13,1.63c-0.01,0.54-0.02,1.09-0.12,1.63
				c-0.11-0.54-0.11-1.08-0.13-1.63C102.14,160.93,102.14,160.39,102.25,159.85z"/>
		</g>
	</g>
	<g>
		<g>
			<path class="st24" d="M105.19,159.39c0.1,0.71,0.11,1.43,0.12,2.14c-0.01,0.71-0.02,1.43-0.12,2.14
				c-0.1-0.71-0.11-1.43-0.12-2.14C105.08,160.82,105.08,160.11,105.19,159.39z"/>
		</g>
	</g>
	<g>
		<g>
			<path class="st24" d="M108.48,158.89c0.09,0.82,0.08,1.65,0.07,2.47c-0.03,0.82-0.06,1.64-0.18,2.46
				c-0.09-0.82-0.08-1.65-0.07-2.47C108.34,160.54,108.36,159.71,108.48,158.89z"/>
		</g>
	</g>
</g>
<path class="st3" d="M42.56,206.08"/>
</svg>
