<?xml version="1.0" encoding="utf-8"?>
<!-- Generator: Adobe Illustrator 27.9.0, SVG Export Plug-In . SVG Version: 6.00 Build 0)  -->
<svg version="1.0" id="Layer_1" xmlns="http://www.w3.org/2000/svg" xmlns:xlink="http://www.w3.org/1999/xlink" x="0px" y="0px"
	 viewBox="0 0 538.5 264.5" style="enable-background:new 0 0 538.5 264.5;" xml:space="preserve">
<style type="text/css">
	.st0{fill:#FFFFFF;}
</style>
<path class="st0" d="M375.9,195.8c9.1-1.3,17.3-2.4,26.1-3.6c0.4,1,1.1,2.3,1.6,3.6c8.4,21.5,24.4,34,46.8,37.3
	c7.7,1.2,16.5-0.3,23.9-3c27.9-10.2,42.5-38.3,36.7-68.7c-3.9-20.7-14.2-36.9-33-46.9c-18.7-10.1-40.7-6.4-58.2,9.3
	c-10.3,9.3-16.6,20.9-19.7,35.3c9.3-4.5,15.6-10.9,16.9-20.3c0.9-6.4,4.1-10.3,8.9-13.5c4.8-3.2,9.9-5.9,15.3-9.2
	c5,10.5,5.7,20.3,3,30.5c-4.5,16.7-15.6,27.5-30.9,34.5c-14.1,6.5-29,8.2-44.4,8c-28-0.4-53.5-8.3-76.4-24.3c-1-0.7-1.9-1.3-2.8-2.1
	c-0.4-0.3-0.7-0.7-1.6-1.7c7.5-6,15-12,22.5-18c18.2,14.2,37.7,23.7,61.5,22.5c2.5-23.2,11.5-43.1,28.7-59.8
	c-2.5-1.2-4.6-2.6-6.8-3.2c-21.3-6.4-42.5-6.6-63,2.4c-5.6,2.5-10.5,6.8-15.3,10.8c-2.3,1.9-3.8,2.4-6.4,0.8
	c-4.8-3.1-9.9-5.6-14.6-8.7c-1.1-0.7-2.1-3.1-1.7-4.2c8.8-27.9,17.8-55.8,26.6-83.7c1-3,2.5-4.1,5.7-4c34.2,0.1,68.3,0.1,102.5,0.1
	c1.5,0,2.9,0.2,5.4,0.3c-2.6,7.7-4.9,15-7.7,22c-0.4,1.1-3.4,1.7-5.1,1.7c-25,0.2-50,0.3-75,0.3c-3.5,0-5.2,0.9-6.4,4.4
	c-4.2,13.3-8.8,26.5-13.6,40.8c2.4-1,4.2-1.6,5.8-2.3c22.5-9.7,45.7-10.4,69-4.1c7.1,1.9,13.4,6.4,20.3,9.4c1.8,0.8,4.5,1.4,6.1,0.7
	c31.5-13.5,77.7-4.2,98.3,35.9c15,29.1,19.6,59,3.7,88.5c-31.3,58.4-100.7,56.9-136.4,16.2C383.8,220.3,379.2,208.5,375.9,195.8z"/>
<path class="st0" d="M206.8,199.3c0,7.9,0.3,14.7-0.2,21.4c-0.1,1.8-2.1,3.7-3.5,5.3c-18.3,20.7-41.4,32.8-68.5,36.9
	c-33.6,5-65.1-0.8-93-21c-30.8-22.3-44.9-52.5-40.9-90.4c4-38.5,25.4-65.1,60.2-80.2c41.6-18.1,82.9-14.3,122.8,6.6
	c6.9,3.6,13.6,7.7,20.2,12c1.6,1,2.9,3.6,3.1,5.5c0.4,5.6,0.1,11.2,0.1,18.3c-2.3-2.2-3.6-3.5-5-4.7c-26.7-24.3-57.4-38.5-94.2-36.4
	c-29.4,1.6-55.3,11.5-71,37.9c-14.4,24.2-18,50.9-10,78.1c6.4,21.6,22,36.4,41.1,47c38.1,21.1,87.6,21,125.3-20.6
	C197.6,210,201.8,205,206.8,199.3z"/>
<path class="st0" d="M237,264.2c-7.1,0-14,0-21.4,0c0-7.2,0-14.1,0-21c-0.4-57.3-0.5-114.6-1.5-171.9c-0.5-30.4-18.7-49.5-51.2-55.8
	c-21.3-4.1-42.8-4-64.3-2.4c-19.7,1.5-39.4,4.1-59.1,6.3c-1,0.1-2,0.1-3.9,0.2c0-6-0.1-11.7,0.1-17.4c0-0.7,1.4-1.6,2.3-1.9
	c1.1-0.3,2.3-0.1,3.5-0.1c37.5,0,75,0.1,112.5,0c18.1-0.1,34.5,5.1,49.4,15.1c20.6,13.8,31.3,33.1,31.3,58.1c0,34.5-0.1,69,0,103.5
	c0.1,21.5,0.3,43,0.6,64.5C235.6,248.7,236.5,256.1,237,264.2z"/>
</svg>
