<?xml version="1.0" encoding="utf-8"?>
<!-- Generator: Adobe Illustrator 24.2.1, SVG Export Plug-In . SVG Version: 6.00 Build 0)  -->
<svg version="1.1" id="Layer_1" xmlns="http://www.w3.org/2000/svg" xmlns:xlink="http://www.w3.org/1999/xlink" x="0px" y="0px"
	 viewBox="0 0 102.7 86" style="enable-background:new 0 0 102.7 86;" xml:space="preserve">
<style type="text/css">
	.st0{opacity:0.25;}
	.st1{fill:#396A7C;}
	.st2{fill:#FFFFFF;}
	.st3{fill:#EAEAE9;}
	.st4{fill:#FCFDFF;}
</style>
<g class="st0">
	<path class="st1" d="M26,52c12.3-11.1,23.9-21.7,34.9-31.6c3.7-3.4,7.5-6.8,12-9.2c1.7-0.9,3.5-1.7,5.5-1.8c1.7,0,3.4,0.5,5,1.1
		c5.4,1.9,10.8,4.1,15.9,6.7c1.3,0.6,2.6,1.4,3.2,2.6c1.1,2.4-1,4.9-3,6.7c-18.7,17.2-37.3,34.5-56,51.7c-2.3,2.2-5.1,4.5-8.3,4.2
		c-2.1-0.2-3.9-1.6-5.6-2.9c-3.5-2.7-10.1-9-13.7-11.7c-3-2.3-1.5-5.6,4.2-10.6c4.1-3.6,36.5-33.1,44.6-40.2"/>
</g>
<g>
	<path class="st2" d="M11.8,56.7c0.2,2.8,2.4,5.1,4.5,7c3.6,3.4,7.3,6.8,11.3,9.6c2.7,1.9,4.6,3,7.7,2.2c1.9-0.5,3.3-1.3,4.8-2.6
		c16.9-15.1,55.5-51.1,58.1-53.7c1.1-1.2,2.3-2.4,2.8-3.9c0.5-1.5,0.3-3.4-1-4.4"/>
	<g>
		<g>
			<path d="M74.8,40.5C74.8,40.5,74.7,40.5,74.8,40.5L74.8,40.5z"/>
			<path d="M100.2,11.8c0.1,0.4,0.3,0.7,0.5,1.7c0,0.3,0,0.6,0,1c-0.2,1.3-1.1,2.5-2.1,3.6c-1,1.1-2.1,2.1-3.2,3.1L88.1,28
				c-3.2,2.9-6.3,5.9-9.5,8.8c-1.3,1.2-2.6,2.4-3.8,3.6l0,0c0,0,0,0,0,0l0,0l-0.1,0.1l0,0c-0.4,0.3-0.8,0.7-1.3,1.1l-3.5,3.3
				c-1.1,1.1-2.3,2.2-3.4,3.1c-1.2,1.1-2.2,2.2-3.4,3.1c-2.6,2.4-5.1,4.8-7.7,7.1c-2.6,2.4-5.2,4.8-7.8,7.1
				c-1.6,1.4-3.1,2.8-4.7,4.3l-3.1,2.8c-1,0.9-2.1,1.6-3.4,2.1c-1.1,0.4-2.1,0.7-3.2,0.7c-1.1,0-2.1-0.4-3.1-1
				c-2-1.2-3.8-2.6-5.6-4.1c-3-2.5-5.9-5.1-8.7-7.8c-1.4-1.4-2.8-3-3.2-4.9c-0.2-0.7-0.2-0.9-0.3-0.9l0,0c-0.3,0-0.6,0.6-0.3,1.8
				c0.2,1.2,1.2,2.8,2.9,4.4c2.5,2.3,5,4.7,7.6,6.9c1.5,1.3,3.1,2.5,4.7,3.7c1.2,0.9,2.4,1.7,3.9,2.3c1.5,0.6,3.2,0.5,4.7,0.1
				c1.4-0.4,3-1.1,4.1-2.1c0.9-0.8,1.8-1.6,2.7-2.4c3.5-3.1,6.9-6.3,10.4-9.4c2.3-2.1,4.6-4.3,7-6.3c0.4-0.3,0.7-0.7,1.1-1
				c1.5-1.4,2.9-2.7,4.4-4.1c3.4-3.2,6.9-6.3,10.2-9.5c1.3-1.2,2.7-2.5,4-3.8c0.6-0.5,1-0.8,1.4-1.3c0.9-0.9,1.9-1.7,2.8-2.6
				c1.9-1.8,3.8-3.5,5.7-5.3c1.7-1.6,3.5-3.3,5.1-4.9c1.6-1.5,3.2-3,4.8-4.6c0.8-0.8,1.5-1.8,1.9-2.9c0.4-1.2,0.5-2.5,0-3.7
				c-0.3-0.7-0.7-1-0.9-1.1c-0.5-0.2-0.7-0.1-0.7,0.1C100,11.1,100.1,11.4,100.2,11.8z"/>
		</g>
	</g>
</g>
<g>
	<path class="st2" d="M23.6,43c12.3-11.1,23.9-21.7,34.9-31.6c3.7-3.4,7.5-6.8,12-9.2c1.7-0.9,3.5-1.7,5.5-1.8c1.7,0,3.4,0.5,5,1.1
		c5.4,1.9,10.8,4.1,15.9,6.7c1.3,0.6,2.6,1.4,3.2,2.6c1.1,2.4-1,4.9-3,6.7C78.4,34.8,59.7,52,41,69.3c-2.3,2.2-5.1,4.5-8.3,4.2
		c-2.1-0.2-3.9-1.6-5.6-2.9c-3.5-2.7-10.1-9-13.7-11.7c-3-2.3-1.5-5.6,4.2-10.6c4.1-3.6,36.5-33.1,44.6-40.2"/>
	<g>
		<g>
			<path d="M29,72.5C29,72.6,29.1,72.6,29,72.5L29,72.5z"/>
			<path d="M60.4,9c-0.8,0.5-1.7,1.3-3.5,3.1c-0.6,0.6-1.2,1.1-1.8,1.7c-5,4.6-10.1,9.2-15.2,13.7L23,42.8l-5.5,4.9
				c-1.8,1.6-3.7,3.3-5.1,5.5c-0.3,0.5-0.6,1.1-0.8,1.8c-0.2,0.7-0.3,1.4-0.1,2.1c0.2,0.7,0.6,1.3,1.1,1.8c0.5,0.5,1,0.8,1.5,1.2
				c1.9,1.5,3.7,3.2,5.5,4.8c1.5,1.3,3,2.7,4.5,4c1.5,1.3,3.1,2.6,4.8,3.7l0,0c0,0,0,0,0,0c0,0,0,0,0,0l0.2,0.1l0,0
				c0.9,0.6,2.4,1.3,3.9,1.4c2,0.1,3.9-0.8,5.4-1.9c1.5-1.1,2.9-2.4,4.2-3.6c2.6-2.4,5.3-5,7.7-7.1c2.7-2.4,5.2-4.9,7.8-7.1
				c5.8-5.4,11.7-10.8,17.5-16.2c5.9-5.4,11.8-10.9,17.6-16.3l2.6-2.4c0.9-0.8,1.8-1.6,2.6-2.5c0.8-0.9,1.6-1.9,2-3.2
				c0.4-1.3,0.2-2.9-0.7-3.9c-0.6-0.7-1.3-1.1-2-1.5c-0.7-0.4-1.4-0.7-2.1-1.1c-1.4-0.7-2.9-1.3-4.3-2c-2.9-1.3-5.8-2.5-8.8-3.5
				c-1.3-0.4-2.5-0.9-3.8-1.3C77.4,0,76-0.1,74.6,0.1c-1.4,0.2-2.7,0.8-3.9,1.4c-1.2,0.6-2.3,1.3-3.5,2.1c-4.5,3-8.3,6.8-12.2,10.3
				c-6.6,6-13.1,11.9-19.7,17.9c-3.5,3.1-7,6.3-10.4,9.4c-1.3,1.2-1.7,1.6-1.6,1.6c0,0,0,0,0,0c0.5,0.4,4.3-2.7,12-9.8
				c5.7-5.2,11.4-10.4,17.2-15.6c3.3-3,6.7-6.1,10.1-9c2.5-2.2,5.2-4.2,8.1-5.8c1.4-0.8,2.9-1.5,4.5-1.7c1.6-0.2,3.2,0.2,4.7,0.7
				c3.1,1.1,6.4,2.4,9.5,3.6c2.5,1,5,2.2,7.4,3.4c1.1,0.6,2.3,1.3,2.7,2.3c0.5,1.1,0.2,2.3-0.5,3.4c-0.6,1.1-1.5,2-2.5,2.9l-2.9,2.7
				L81.9,30.9c-5.3,4.8-10.5,9.7-15.8,14.5c-0.8,0.7-1.7,1.5-2.5,2.3c-3.3,3.1-6.6,6.2-10,9.2c-3.9,3.6-7.8,7.1-11.6,10.7
				c-2,1.8-3.8,3.7-6.1,4.7c-1.1,0.5-2.4,0.7-3.6,0.5c-1.2-0.2-2.3-0.8-3.4-1.5c-3.2-2.3-6.4-5.3-9.5-8c-1.4-1.2-2-1.9-3.2-2.9
				c-0.6-0.5-1.1-0.9-1.7-1.4c-0.6-0.5-1.1-0.9-1.5-1.4c-0.4-0.5-0.5-1.1-0.4-1.7c0.1-0.6,0.3-1.2,0.6-1.8c1.4-2.4,3.7-4.3,5.9-6.3
				l6.6-5.9c4-3.6,8-7.2,11.9-10.7c7.4-6.7,14.8-13.4,22.2-20c1-0.9,1.7-1.5,1.9-1.9C63,7.7,62.2,7.9,60.4,9z"/>
		</g>
	</g>
</g>
<g>
	<path class="st3" d="M23.3,47.3C31,40.1,38.3,34.1,46.1,27c7.9-7.3,14.2-12.9,22-20.3c8.7,4.8,15.3,7,22.8,11.9
		C75.4,33,59.8,47.5,44.2,61.9c-1.5,1.4-1.7,1.3-2,1.2c-0.4,0-13.4-10.6-19.1-15.6"/>
	<g>
		<g>
			<path d="M56.2,49.9l9.4-8.8l9.6-8.9l14.6-13.5l0,0l0,0l-0.1-0.1l-0.9-0.5c-4.7-2.9-9.8-5.1-14.9-7.6c-1.3-0.6-2.5-1.2-3.8-1.9
				l-1.9-1l-0.1-0.1c0,0,0,0,0,0l-0.7,0.7l-6.2,5.7l-11.9,11c-5.7,5.3-11.6,10.4-17.5,15.5c-2.2,1.9-4.3,3.8-6.5,5.8
				c-0.7,0.7-1.1,1-1.3,0.9c-0.3-0.1-0.7,0-1,0.1l0,0c0,0,0-0.1,0-0.1c0-0.6,0-0.6,2.6-2.9c6.2-5.6,12.6-10.7,18.7-16.3
				C49.7,22.9,55,18,60.3,13.1c1.4-1.3,2.8-2.6,4.2-3.9l2.1-2L68,5.9c0.2,0,0.4,0.2,0.6,0.3L69,6.4l0.6,0.3C75,9.6,80.6,12,86,14.8
				c0.9,0.5,1.8,1,2.7,1.5l1.3,0.8l2.1,1.3L76.4,33L63.9,44.6L45.2,61.8c-0.4,0.4-0.8,0.8-1.3,1.1c-0.2,0.2-0.5,0.4-0.7,0.5
				c-0.1,0.1-0.3,0.2-0.6,0.2c-0.1,0-0.3,0-0.4,0l-0.1,0c0,0-0.1,0-0.2-0.1l0,0c-0.1,0-0.2-0.1-0.3-0.1c-0.1-0.1-0.1-0.1-0.2-0.1
				l-0.3-0.2l-0.5-0.4l-1-0.8l-2-1.6l-3.9-3.2c-2.7-2.2-5.4-4.5-8.1-6.7l0,0c-1.5-1.3-2.7-2.8-2.3-2.9c0,0,0.1,0,0.1,0
				c0.1-0.1-0.6-0.9,0.2-0.3c0.8,0.6,2,1.6,3.1,2.5c3.1,2.6,6.1,5.2,9.3,7.7c1.6,1.3,3.3,2.7,5,4l0,0l0.6,0.5l0.3,0.2
				c0.1,0.1,0.3,0.2,0.2,0.1l0,0l0,0c0,0,0-0.1,0,0.1l0,0.2l0,0.2l0,0.1c0-1.2,0-0.3,0-0.6l0,0l0,0l0,0l0.1,0c0.1,0,0.1,0,0.1,0
				c0,0,0.1,0,0.1-0.1c0.2-0.1,0.4-0.3,0.6-0.4c0.8-0.7,1.6-1.5,2.4-2.2l10.5-9.8l0,0L56.2,49.9L56.2,49.9z"/>
		</g>
	</g>
</g>
<g>
	<g>
		<path d="M77.7,5.6c0,0-0.1,0.1-0.1,0.1c0,0,0,0,0,0c0,0,0,0.1,0,0.1c0,0.1,0,0.1,0,0.2c0,0.1,0.1,0.1,0.1,0.2c0,0,0,0,0,0
			c0,0,0-0.1-0.1-0.1c0,0,0,0,0,0c0,0,0-0.1,0-0.1c0,0,0,0,0,0c0,0,0-0.1,0-0.1c0,0,0,0,0,0c0,0,0-0.1,0-0.1c0,0,0,0,0,0
			c0,0,0-0.1,0-0.1c0,0,0,0,0,0.1c0,0,0-0.1,0.1-0.1c0,0-0.1,0.1-0.1,0.1c0,0-0.1,0.1-0.1,0.1c0,0,0,0.1,0,0.1c0,0.1,0,0.1,0,0.1
			c0,0,0,0.1,0.1,0.1c0.1,0.1,0.2,0.1,0.3,0.1c0.1,0,0.2,0,0.3-0.1c0.1-0.1,0.1-0.1,0.2-0.2c0-0.1,0.1-0.2,0.1-0.3
			c0-0.1,0-0.2-0.1-0.3c0,0,0,0,0,0c0,0,0,0.1,0.1,0.1c0,0,0,0,0,0c0,0,0,0.1,0,0.1c0,0,0,0,0,0c0,0,0,0.1,0,0.1c0,0,0,0,0,0
			c0,0,0,0.1,0,0.1c0,0,0,0,0,0c0,0,0,0.1,0,0.1c0,0,0-0.1,0.1-0.1c0,0,0,0.1-0.1,0.1c0,0,0,0,0,0c0,0,0.1-0.1,0.1-0.1
			c0,0,0-0.1,0-0.1c0-0.1,0-0.1,0-0.1c0,0,0-0.1-0.1-0.1c-0.1-0.1-0.2-0.1-0.3-0.1c0,0-0.1,0-0.1,0C77.8,5.5,77.8,5.5,77.7,5.6
			L77.7,5.6z"/>
	</g>
</g>
<g>
	<g>
		<g>
			<path d="M88.1,10.6L88.1,10.6c-0.1-0.2-0.2-0.1-0.4-0.2c-0.3-0.1-0.6-0.2-0.8-0.4c-0.2-0.2-0.4-0.3-0.6-0.5
				c-0.1-0.1-0.3-0.1-0.4-0.3l0,0l0,0l0,0c-0.1,0-0.1,0-0.2-0.1c-0.5-0.3-1-0.4-1.5-0.8c-0.1-0.1-0.3-0.2-0.4-0.3
				c-0.3-0.2-0.6-0.3-0.9-0.4l0,0c0,0,0-0.1-0.1-0.1c-0.3-0.2-0.5-0.3-0.8-0.4c-0.2-0.1-0.4-0.2-0.7-0.3c-0.3-0.1-0.5-0.2-0.8-0.3
				c-0.3-0.1-0.6-0.3-1-0.2l0,0l0,0l0,0c-0.2,0.3-0.2,0.5-0.2,0.7c0,0.2,0,0.3,0.1,0.2c0.1,0,0.1,0,0.2,0c0.2,0.1,0.3,0.3,0.5,0.3
				c0.2,0,0.4,0.1,0.5,0.1c0.4,0.1,0.8,0.3,1.1,0.5c0.3,0.1,0.5,0.3,0.7,0.4c0.3,0.2,0.6,0.3,0.8,0.4c0.2,0.1,0.4,0.3,0.6,0.4
				c0.1,0,0.3,0.1,0.4,0.2l0,0c0.2,0,0.3,0.2,0.5,0.3c0.1,0.1,0.2,0.2,0.3,0.3l0,0c0.3,0.1,0.5,0.3,0.8,0.5c0.3,0.2,0.5,0.3,0.8,0.4
				c0.2,0.1,0.4,0.2,0.7,0.3c0.1,0,0.1,0.1,0.2,0.1C87.8,11.3,88,10.9,88.1,10.6z"/>
			<polygon points="84.4,9.6 84.4,9.6 84.4,9.6 			"/>
		</g>
	</g>
</g>
<g>
	<g>
		<g>
			<path d="M30.3,61.1c-0.2,0.5-0.5,1-0.9,1.4c-0.4,0.4-0.8,0.7-1.3,0.9c-0.8,0.4-1.8,0.6-2.8,0.4c-0.1,0-0.2-0.1-0.3-0.1
				c-0.1,0-0.2-0.1-0.3-0.1c-0.2-0.1-0.3-0.2-0.4-0.3c-0.3-0.2-0.5-0.5-0.7-0.9c-0.4-0.7-0.3-1.5-0.1-2.2c0.3-0.7,0.7-1.2,1.1-1.6
				c0.6-0.7,1.4-1.2,2.3-1.6c0.3-0.1,0.7-0.2,1.1-0.2c0.1,0,0.2,0,0.2,0.1l0,0.5l0,0l0,0.1c-0.1,0.3-0.1,0.3-0.4,0.3
				c-0.7,0.1-1.6,0.5-2.2,1c-0.6,0.5-1.1,1.1-1.3,1.8c-0.1,0.3-0.1,0.7-0.1,1c0.1,0.5,0.5,1,0.9,1.2c0.2,0.1,0.7,0.2,1.1,0.1
				c0.4,0,0.9-0.2,1.3-0.4c0.5-0.2,1-0.6,1.4-1c0.5-0.6,0.7-1.5,0.6-2.3c0-0.1,0-0.2-0.1-0.3l0,0c-0.1-0.3-0.3-0.6-0.5-0.8
				c-0.2-0.2-0.5-0.4-0.8-0.5l0,0c-0.2-0.1-0.3-0.4-0.2-0.6l0-0.1c0-0.1-0.1-0.2,0.1-0.3c0.1,0,0.3,0,0.5,0.1
				c0.5,0.2,0.9,0.5,1.3,0.9c0.2,0.2,0.3,0.5,0.4,0.7l0,0c0.1,0.3,0.2,0.5,0.2,0.8C30.6,59.9,30.5,60.5,30.3,61.1L30.3,61.1
				L30.3,61.1L30.3,61.1z"/>
		</g>
	</g>
</g>
<g>
	<g>
		<g>
			<path d="M18.6,80.5l-1.7-1.3l-1.7-1.3l-2.9-2.3c-1.4-1.1-2.9-2.2-4.4-3.2L5.7,71l-3.1-2.2L1.4,68c-0.1-0.1-0.2-0.2-0.1-0.3
				c0.1-0.2,0.2-0.4,0.2-0.6l0,0l0.1-0.1c0.3-0.3,0.3-0.3,0.7,0c1.1,0.7,2.2,1.6,3.3,2.4l3,1.9l1.6,1c0.8,0.5,1.6,1.1,2.4,1.7
				c1.2,0.9,2.3,1.8,3.4,2.7l2.2,1.7c1.1,0.9,2.1,1.8,3.2,2.7c0.1,0.1,0.3,0.3,0.4,0.4l0,0c0.4,0.4,0.8,0.7,1.2,1.1
				c0.4,0.4,0.9,0.8,1.3,1.1l0,0c0.2,0.2,0.2,0.7,0,0.9l-0.1,0.1c-0.1,0.1-0.1,0.3-0.2,0.3c-0.2-0.1-0.4-0.2-0.6-0.3
				c-0.5-0.4-1-0.9-1.5-1.3c-0.3-0.2-0.5-0.5-0.8-0.7l0,0c-0.2-0.3-0.5-0.5-0.8-0.7L18.6,80.5L18.6,80.5L18.6,80.5L18.6,80.5z"/>
		</g>
	</g>
</g>
<g>
	<g>
		<g>
			<path d="M1.2,69.6c-0.1-0.1-0.1-0.2-0.2-0.2C1,69.3,1,69.2,0.9,69.1c-0.1-0.2-0.2-0.3-0.2-0.5c-0.1-0.2-0.2-0.5-0.3-0.7
				c-0.1-0.1-0.1-0.2-0.2-0.3c-0.1-0.2-0.1-0.3-0.2-0.5C0.1,67,0,67,0,66.9c0,0,0,0,0.1-0.1c0.2-0.1,0.3-0.2,0.5-0.3l0,0
				c0,0,0.1,0,0.1,0C1,66.4,1,66.4,1.1,66.5c0.1,0.2,0,0.4,0.1,0.6c0.1,0.2,0.2,0.3,0.3,0.4c0,0.1,0.1,0.1,0.2,0.2
				c0.1,0.1,0.1,0.2,0.2,0.4c0.1,0.2,0.1,0.4,0.2,0.6c0,0.1,0.1,0.2,0.1,0.4c0.1,0.2,0.1,0.4,0.2,0.5c0,0,0,0.1,0,0.1l0,0
				c0,0.1,0,0.1,0.1,0.2c0,0.1,0.1,0.1,0.2,0.2l0,0c0,0-0.3,0.2-0.5,0.3c0,0,0,0-0.1,0c-0.1,0-0.2,0.1-0.3,0.1c-0.1,0-0.1,0-0.1,0
				c-0.1-0.1-0.1-0.2-0.1-0.2c0,0,0-0.1,0-0.1l0,0c0-0.1,0-0.1,0-0.1C1.3,69.8,1.3,69.7,1.2,69.6L1.2,69.6
				C1.2,69.6,1.2,69.6,1.2,69.6L1.2,69.6z"/>
		</g>
	</g>
</g>
<g>
	<g>
		<g>
			<path d="M3.5,67.8c-0.1,0-0.2,0-0.3,0c-0.1,0-0.2,0-0.3,0c-0.2,0-0.4,0-0.5-0.1c-0.3-0.1-0.5-0.1-0.8-0.2c-0.1,0-0.3,0-0.4-0.1
				c-0.2,0-0.4-0.1-0.5-0.2c-0.1,0-0.1,0-0.2,0c0,0,0,0,0-0.2c0-0.2,0.1-0.4,0.1-0.6l0,0c0,0,0-0.1,0-0.1C0.6,66,0.6,66,0.7,66
				c0.2,0,0.4,0.2,0.6,0.2c0.2,0,0.4,0,0.5,0c0.1,0,0.2,0,0.3,0c0.1,0,0.3,0,0.4,0c0.2,0,0.4,0.1,0.6,0.1c0.1,0,0.3,0.1,0.4,0.1
				c0.2,0,0.4,0.1,0.6,0.1c0,0,0,0,0.1,0.1c0,0,0,0,0,0c0.1,0,0.2,0.1,0.2,0.1c0.1,0,0.2,0,0.3,0l0,0c0,0,0,0.4,0,0.7
				c0,0,0,0.1,0,0.1c0,0.1,0,0.3-0.1,0.4c0,0.1-0.1,0.1-0.1,0.1c-0.1,0-0.2-0.1-0.3,0c-0.1,0-0.1-0.1-0.1,0l0,0
				c0-0.1-0.1-0.1-0.1-0.1C3.8,67.8,3.7,67.8,3.5,67.8L3.5,67.8C3.5,67.8,3.5,67.8,3.5,67.8L3.5,67.8z"/>
		</g>
	</g>
</g>
<g>
	<g>
		<g>
			<path d="M25,82.7l0.1,0.2c0,0.1,0.1,0.2,0.1,0.2c0,0.1,0.1,0.3,0.1,0.4c0,0.2,0.1,0.4,0.2,0.6c0,0.1,0.1,0.2,0.1,0.3
				c0,0.1,0.1,0.3,0.1,0.4c0,0.1,0,0.1,0.1,0.1c0,0,0,0-0.1,0.1l-0.6,0.3l0,0l-0.1,0c-0.4,0.2-0.4,0.1-0.4,0.1
				c-0.1-0.2,0-0.4-0.1-0.5c0-0.1-0.1-0.3-0.2-0.4c0-0.1-0.1-0.1-0.2-0.2c-0.1-0.1-0.1-0.2-0.2-0.3c-0.1-0.2-0.1-0.3-0.1-0.5
				l-0.1-0.3l-0.1-0.5c0,0,0,0,0-0.1l0,0c0-0.1,0-0.1,0-0.2c0-0.1,0-0.1-0.1-0.2l0,0c0,0,0.3-0.2,0.6-0.3l0.1,0
				c0.1,0,0.3-0.1,0.3-0.1c0.1,0,0.1,0,0.1,0c0.1,0.1,0,0.2,0.1,0.2c0,0,0,0.1,0,0.1l0,0c0,0.1,0,0.1,0,0.1L25,82.7L25,82.7L25,82.7
				L25,82.7z"/>
		</g>
	</g>
</g>
<g>
	<g>
		<g>
			<path d="M22.4,84.7l0.3-0.1c0.1,0,0.2-0.1,0.3-0.1c0.2,0,0.3,0,0.5,0c0.3,0,0.5,0,0.8,0c0.1,0,0.2,0,0.4,0c0.2,0,0.3,0.1,0.5,0.1
				c0.1,0,0.1,0,0.2,0c0,0,0,0,0,0.2l-0.1,0.6l0,0l0,0.1C25.2,86,25.2,86,25.1,86c-0.2,0-0.3-0.2-0.5-0.2c-0.1,0-0.3,0-0.4,0
				c-0.1,0-0.2,0.1-0.2,0.1c-0.1,0-0.2,0-0.4,0c-0.2,0-0.4,0-0.5,0l-0.3,0l-0.5,0c0,0,0,0-0.1,0l0,0c-0.1,0-0.1,0-0.2,0
				c-0.1,0-0.1,0-0.2,0.1l0,0c0,0-0.1-0.3-0.2-0.7l0-0.1c0-0.1-0.1-0.3-0.1-0.4c0-0.1,0-0.1,0.1-0.1c0.1-0.1,0.2,0,0.3,0
				c0,0,0.1,0,0.1,0l0,0c0.1,0.1,0.1,0,0.2,0L22.4,84.7L22.4,84.7L22.4,84.7L22.4,84.7z"/>
		</g>
	</g>
</g>
<g>
	<path class="st4" d="M75,15.8c-3.5,2.8-13.3,10.4-18.3,4.9c5,5.4-3.4,15.2-5.2,17c1.7-1.8,12.3-9.4,17.5-4.1
		C63.8,28.4,71.4,19.3,75,15.8"/>
</g>
<g>
	<path class="st4" d="M53.6,31.8c-1.9,1.6-7.2,5.9-10,2.9c2.8,2.9-1.7,8.4-2.7,9.4c0.9-1,6.6-5.3,9.5-2.5
		C47.6,38.9,51.6,33.8,53.6,31.8"/>
</g>
<g>
	<path class="st4" d="M61.6,35.8c-1,0.8-3.8,3-5.3,1.4c1.5,1.6-0.9,4.5-1.5,5c0.5-0.5,3.6-2.7,5.1-1.2
		C58.3,39.4,60.5,36.8,61.6,35.8"/>
</g>
</svg>
