<?xml version="1.0" encoding="utf-8"?>
<!-- Generator: Adobe Illustrator 24.2.1, SVG Export Plug-In . SVG Version: 6.00 Build 0)  -->
<svg version="1.1" id="Layer_1" xmlns="http://www.w3.org/2000/svg" xmlns:xlink="http://www.w3.org/1999/xlink" x="0px" y="0px"
	 viewBox="0 0 115.7 94.9" style="enable-background:new 0 0 115.7 94.9;" xml:space="preserve">
<style type="text/css">
	.st0{opacity:0.25;}
	.st1{fill:#376A7C;}
	.st2{fill:#EAEAEA;}
	.st3{fill:#010101;}
	.st4{fill:#FFFFFF;}
	.st5{fill:#1779BF;}
	.st6{fill:#231F20;}
	.st7{fill:#676767;}
</style>
<g>
	<g class="st0">
		<path class="st1" d="M10.2,9.2C48.9,9.6,73.9,7.6,111,6.6c0.7,0,1.6,0,2.1,0.3c0.7,0.3,0.8,0.9,0.8,1.3
			c-0.1,7.6-0.1,15.3-0.2,22.9c0,4.5-1,27.9-1.3,32.6c-0.7,11.9,4.6,18.4,3,30.3c0,0.3-0.1,0.6-0.5,0.8c-0.4,0.2-1.2,0.2-1.8,0.2
			c-8.2-0.1-16.2-1.2-24.3-1.7c-8-0.5-16.1-0.5-24.1-0.5c-19,0.1-31.9,0.7-54,0.7c0.1-3.2,1.6-21.5,1.5-27.7
			C12,61.6,11,52.1,10.7,46c-0.3-6-3.6-14.1-3.6-15.4C7.1,13.1,10.2,9.2,10.2,9.2z"/>
	</g>
	<g>
		<g>
			<g>
				<path class="st2" d="M3,2.6C41.8,2.9,66.8,1,103.9,0c0.7,0,1.6,0,2.1,0.3c0.7,0.3,0.8,0.9,0.8,1.3c-0.1,7.6-1.4,14-1.5,21.7
					c0,4.5,0.3,29.1,0,33.8c-0.7,11.9,1.8,19.2,3,30.3c0,0.3-0.1,0.6-0.5,0.8c-0.4,0.2-1.2,0.2-1.8,0.2c-8.2-0.1-16.2-1.2-24.3-1.7
					c-8-0.5-16.1-0.5-24.1-0.5c-19,0.1-31.9,0.7-54,0.7C3.7,83.6,5.2,65.3,5,59.1C4.9,55,3.9,45.5,3.6,39.4C3.2,33.4,0,25.3,0,24.1
					C0,6.5,3,2.6,3,2.6z"/>
			</g>
			<g>
				<g>
					<g>
						<path class="st3" d="M3,7.6c-0.2,2.9-0.3,6.4-0.4,10c0,2.9-0.1,5.9-0.1,8.8c0,3,0.1,6,0.1,9c0,1.9,0,3.9,0.1,5.8
							c0.1,2,0.2,4,0.2,6C3,50.3,3,53.4,3.2,56.5l0.4,10.9L3.9,77C4,78.7,4,80.4,4.1,82.1c0,0.5,0.1,1.2-0.1,1.4
							c-0.3,0.3-0.6,0.6-1,0.4c-0.2-0.1-0.2-0.6-0.3-1.1l-0.2-4.1c-0.1-2.2-0.1-4.5-0.2-6.7c0-1.9-0.1-3.7-0.1-5.6
							c0-1.7-0.1-3.5-0.1-5.2c0-2.3-0.2-4.7-0.2-7c0-0.5,0-1,0-1.5c0.1-2.9-0.1-5.8-0.2-8.6c-0.1-3.5-0.1-6.9-0.1-10.4V22.1
							c0-2.7,0.1-5.5,0.2-8.2c0-1.6,0.1-3.2,0.2-4.8V6.9l0.2-2.4c0.1-1,0.3-1.6,0.7-1.8s0.5,0.1,0.5,0.9C3.3,4.7,3.2,5.8,3,7.6z"/>
					</g>
				</g>
			</g>
			<g>
				<g>
					<g>
						<path class="st3" d="M10.4,85.5c3.7-0.1,8.2-0.3,12.6-0.4c3.7-0.1,7.4-0.2,11.2-0.2s7.6-0.1,11.5,0c2.4,0,4.9,0.1,7.3,0.1
							c2.5,0,5,0,7.6,0l11.8,0.3c4.6,0.1,9.2,0.3,13.8,0.5c4.1,0.2,8.2,0.4,12.2,0.7c2.1,0.1,4.3,0.3,6.5,0.4c0.6,0,1.5,0,1.8,0.3
							s0.7,0.7,0.4,1c-0.2,0.2-0.8,0.2-1.4,0.1l-5.2-0.3c-2.8-0.2-5.7-0.4-8.5-0.5c-2.4-0.2-4.7-0.3-7.1-0.4
							c-2.2-0.1-4.4-0.2-6.6-0.3c-2.9-0.2-5.9-0.2-8.8-0.3c-0.6,0-1.2-0.1-1.8-0.1c-3.6-0.3-7.3-0.2-10.9-0.2
							c-4.4-0.1-8.7-0.1-13.1-0.2c-4.9,0-9.8-0.1-14.6,0c-3.4,0.1-6.9,0.1-10.3,0.2c-4,0.2-8,0.2-12.1,0.4c-1.3,0-2.1-0.1-2.4-0.5
							c-0.3-0.3,0-0.5,1-0.6C6.6,85.6,8.1,85.6,10.4,85.5z"/>
					</g>
				</g>
			</g>
			<g>
				<g>
					<g>
						<path class="st3" d="M106.9,82.9c-0.3-3.1-0.7-6.8-1-10.5c-0.2-3.1-0.5-6.2-0.6-9.3c-0.1-3.2-0.4-6.3-0.5-9.5
							c-0.1-2-0.1-4.1-0.2-6.1c-0.1-2.1-0.2-4.2-0.2-6.3l-0.1-9.8c0-3.8,0-7.7,0.1-11.5c0.1-3.4,0.2-6.8,0.3-10.2
							c0.1-1.8,0.2-3.6,0.2-5.4c0-0.5,0-1.2,0.2-1.5c0.3-0.3,0.7-0.6,1-0.3c0.2,0.2,0.2,0.7,0.2,1.1l-0.1,4.3l-0.3,7.1
							c-0.1,2-0.1,3.9-0.2,5.9c0,1.8-0.1,3.6-0.1,5.5c-0.1,2.4,0,4.9,0,7.3c0,0.5,0,1,0,1.5c-0.2,3,0,6,0.1,9.1
							c0.1,3.6,0.2,7.3,0.3,10.9c0.1,4,0.3,8.1,0.6,12.1c0.2,2.8,0.4,5.7,0.7,8.5c0.3,3.3,0.6,6.6,1,10c0.1,1,0,1.8-0.3,2
							c-0.3,0.3-0.5,0-0.6-0.8C107.2,85.9,107.1,84.7,106.9,82.9z"/>
					</g>
				</g>
			</g>
			<g>
				<g>
					<g>
						<path class="st3" d="M96.7,1.9c-3.6,0.3-7.9,0.5-12.2,0.7C80.9,2.8,77.3,3,73.7,3C70,3.1,66.3,3.2,62.6,3.3
							c-2.4,0-4.7,0-7.1,0.1c-2.4,0.1-4.9,0.2-7.3,0.2L36.8,3.7c-4.5,0-8.9,0-13.4,0c-4,0-7.9-0.1-11.9-0.2c-2.1,0-4.2-0.2-6.3-0.2
							c-0.6,0-1.5,0-1.7-0.3C3.2,2.7,2.9,2.3,3.2,2C3.4,1.8,4,1.8,4.5,1.8c1.6,0.1,3.3,0.1,5,0.2c2.7,0.1,5.5,0.2,8.2,0.2
							c2.3,0.1,4.6,0.1,6.9,0.1c2.1,0,4.3,0.1,6.4,0.1c2.9,0.1,5.7-0.1,8.6,0c0.6,0,1.2,0,1.8,0c3.5,0.2,7,0,10.6-0.1
							c4.2-0.1,8.5-0.1,12.7-0.2c4.6,0,9.3-0.1,14-0.3c3.3-0.2,6.7-0.2,10-0.5c1.9-0.1,3.9-0.2,5.8-0.4c1.9-0.1,3.9-0.2,5.8-0.4
							c1.2-0.1,2,0,2.4,0.3c0.3,0.3,0,0.5-1,0.6C100.3,1.6,98.9,1.8,96.7,1.9z"/>
					</g>
				</g>
			</g>
			<path class="st4" d="M10,11.7c10.1,0.3,37.9,1,41,0.7c3.8-0.3,32.7-2.8,44.1-2.8c0.5,0,0.9,0,1.3,0.3c0.6,0.4,0.6,1.2,0.6,2
				c0,5.7-0.7,11.5-1.9,17.1c-8.7,0.8-17.3-0.4-26-1.1c-19-1.5-38.1-0.9-57.1-1c-0.4,0-0.8,0-1.1-0.2c-0.4-0.3-0.5-0.8-0.6-1.2
				C9.3,20.9,10,11.7,10,11.7z"/>
			<g>
				<g>
					<g>
						<path class="st3" d="M25.1,11.7c7.5,0.1,16.4,0.2,25.3,0c7.4-0.1,14.9-0.4,22.3-0.9c3.8-0.2,7.6-0.6,11.4-0.9l5.7-0.6L92.6,9
							L94,8.8c0.5-0.1,1.1-0.1,1.8,0.1c0.4,0.1,0.8,0.4,1.1,0.8c0.3,0.4,0.4,0.7,0.5,1.1c0.2,0.7,0.2,1.3,0.2,1.9
							c0.1,1.2,0.2,2.4,0.2,3.7c0.1,2.4,0.2,4.9,0.2,7.3v2.1v2.8c-3.9-0.1-7.9-0.2-11.8-0.3l-23.6-0.7c-9.2-0.2-18.4-0.5-27.6-0.2
							c-4.1,0.1-8.2,0.4-12.2,0.8c-2,0.2-4.1,0.4-6.1,0.7c-1,0.1-2,0.3-3,0.5c-0.5,0.1-1,0.2-1.6,0.2c-0.3,0-0.7,0-1-0.1
							c-0.4-0.1-0.7-0.4-0.9-0.7c-0.4-0.6-0.6-1.2-0.7-1.7c-0.1-0.5-0.2-1.1-0.3-1.6c-0.2-1.1-0.3-2.2-0.4-3.3
							C8.7,20,8.7,17.8,9,15.6c0.1-1.3,0.5-3,0.9-3.5c0.5-0.6,1.1-1.3,1.2-0.6c0.1,0.4-0.2,1.6-0.4,2.6c-0.6,3.3-0.7,6.7-0.3,10.1
							c0.1,0.7,0.2,1.4,0.3,2.1s0.3,1.4,0.5,1.7c0.1,0.2,0.2,0.2,0.4,0.3c0.2,0,0.4,0,0.8-0.1l2.1-0.3c2.8-0.4,5.7-0.8,8.5-1
							c4.7-0.4,9.5-0.7,14.2-0.8c4.4-0.1,8.8-0.1,13.2,0c5.9,0.2,11.8,0.2,17.7,0.4c1.2,0,2.5,0.1,3.7,0.1
							c7.3,0.4,14.6,0.4,21.9,0.6l3,0.1v-2.4v-2.8c0-1.9-0.1-3.8-0.2-5.7l-0.2-2.8c-0.1-0.9-0.1-1.9-0.3-2.7
							c-0.1-0.4-0.3-0.7-0.7-0.8C95,9.9,94.6,9.9,94.1,10l-2.8,0.4c-9.7,1.2-19.5,1.9-29.3,2.3C55.1,13,48.2,13,41.3,13.1
							c-8.1,0.1-16.1-0.1-24.2-0.3c-2.5-0.1-4.2-0.3-4.8-0.6c-0.6-0.4,0.1-0.5,2.1-0.5C17.6,11.5,20.6,11.6,25.1,11.7z"/>
					</g>
				</g>
			</g>
			<g>
				<g>
					<g>
						<path class="st3" d="M61.7,20.3c-0.6-0.1-1.1,0.3-1.6,0.3c-0.9,0-1.8,0-2.8,0c-0.5,0-1,0-1.5-0.1s-0.9-0.1-1.4-0.2
							c-0.9-0.1-1.8-0.1-2.6,0.3c-0.4,0.2-1,0.6-1.7,0.6s-1.2-0.3-1.7-0.6c-0.5-0.3-1-0.5-1.4-0.6c-0.5-0.1-0.9,0-1.4,0.1
							c-1.1,0.3-2.4,0.4-3.7,0.7c-0.5,0.1-1,0.1-1.5,0.1c-0.5-0.1-1-0.2-1.5-0.4c-0.9-0.4-1.5-0.6-2.3-0.5c-1,0.1-2.3,0.2-3.3,0.8
							c-0.1,0.1-0.3,0.2-0.4,0.3c-0.2,0.3-0.5,0-0.7-0.4c-0.3-0.4-0.1-0.6,0-0.7c0.7-0.3,1.4-0.6,2.2-0.9c1-0.4,2.1-0.6,3.2-0.4
							c0.6,0.1,1.1,0.3,1.6,0.5s0.8,0.3,1.2,0.4c0.8,0.1,1.8,0,2.8-0.4c0.6-0.2,1.3-0.5,2-0.6s1.6-0.1,2.4,0.1
							c0.8,0.3,1.4,0.7,1.9,0.9c0.2,0.1,0.4,0.1,0.6,0.1c0.1,0,0.2,0,0.5-0.1c0.4-0.2,1-0.5,1.5-0.6c0.6-0.1,1.1-0.2,1.6-0.2
							c1.1,0,2,0.2,2.9,0.3c1.3,0.1,2.6-0.2,4-0.2c1.8-0.1,3.7-0.6,5.6-0.1c0.2,0.1,0.2,0.4,0.2,0.8c0,0.3-0.1,0.5-0.3,0.5
							C64.9,20,63.3,20.1,61.7,20.3L61.7,20.3z"/>
					</g>
				</g>
			</g>
			<g>
				<path class="st5" d="M68.4,15.9c0.2,2.3,0,4.7,0.2,7c0.1,0.2-1.2,0.5-1.4,0.3c-0.1-2.3,0.4-4.5,0.2-6.8c0-0.5-0.3-1.2,0.5-1.1
					C68.6,15.4,68.5,15.5,68.4,15.9z"/>
			</g>
		</g>
		<g>
			<path class="st4" d="M10.5,37c0.4,14.1,0.8,28.1,1.2,42.2C40.3,79,69,74.7,97.4,77.9c-0.8-14.3,1.1-30,0-44.4
				c-23-1.1-49-0.2-72.1,0.1c-5.4,0.1-11.1,0.2-15.6,3.2"/>
			<g>
				<g>
					<path class="st6" d="M10.8,36.7L10.8,36.7c3.3-1.7,7.1-2.3,10.8-2.5c4.1-0.2,8.2-0.1,12.2-0.2c4.1,0,8.2-0.1,12.2-0.1
						c6.8,0,13.5-0.1,20.3-0.1c4.6,0,9.3-0.1,13.9,0.1l0,0h0.3l0,0c1.8,0,3.6,0,5.4,0.1l5.7,0.2l5.2,0.2c0,0,0,0,0,0.1v0.7l0.1,1.4
						l0.1,2.8c0.1,1.9,0.1,3.8,0.1,5.7c0,7.6-0.4,15.1-0.6,22.7c0,2.5,0,4.9,0,7.4l0.1,1.8v0.4l0,0l0,0L93.1,77
						c-8.9-1-18-1-27.1-0.8l0,0c-0.9,0-1.8,0-2.8,0c-8.5,0.3-17.1,0.8-25.6,1.3c-6.4,0.4-12.9,0.7-19.3,0.9
						c-1.9,0.1-3.8,0.1-5.7,0.1h-0.3l0,0v-1.2l-0.1-2.8l-0.3-11.3c-0.2-8.6-0.5-17.1-1-25.5l0,0v-0.3l0,0c-0.4-0.9-0.6,1.2-0.8,2.7
						c-0.1,1.1-0.2,2.7-0.1,4.7c0.1,1.7,0.2,3.4,0.2,5.1c0.2,5.4,0.2,10.8,0.4,16.2c0.1,2.4,0.2,4.8,0.3,7.2l0.1,3.6l0.1,1.8v0.7
						v0.4V80c0,0,0,0.1,0.1,0h0.1h1.4c11.3-0.2,22.5-1,33.8-1.6c7.7-0.4,15.5-0.8,23.2-0.9c8.6-0.1,17.2,0.1,25.7,1l1.3,0.1l1,0.1
						c0.2,0.1,0.2-0.2,0.2-0.3v-0.5l-0.1-2.7c0-1.6-0.1-3.3-0.1-4.9c0-3.3,0.1-6.6,0.2-9.9c0.1-3.7,0.2-7.5,0.3-11.2l0,0
						c0-2.5,0-5,0-7.4c0-1.2,0-2.5-0.1-3.7c0-0.6,0-1.2-0.1-1.9l-0.1-2v-0.6v-0.2h-0.1h-0.3h-1L95,33l-3-0.1c-2-0.1-3.9-0.2-5.9-0.2
						l0,0c-8.4-0.2-16.8-0.2-25.1-0.1c-8.3,0.1-16.5,0.2-24.7,0.4l-9.8,0c-3.3,0-6.6,0.1-9.8,0.7c-1.8,0.3-3.6,0.7-5.2,1.6
						c-1.4,0.8-1.8,1.3-1.8,1.5C9.7,37,10.2,36.9,10.8,36.7z"/>
					<path class="st6" d="M98.3,48.9L98.3,48.9C98.3,48.9,98.3,48.8,98.3,48.9L98.3,48.9z"/>
				</g>
			</g>
		</g>
		<g>
			<g>
				<path class="st4" d="M23.3,41.4C23.8,45.2,24,49,24,52.8c6.8,0,31.7-0.8,33.9-1s4.4-0.2,6.6-0.2c6,0,12,0.1,18,0.4
					c0.1-3.4,0.1-6.6,0.1-11.2c-6.3-1-47.9-0.3-59.2,0.2"/>
				<g>
					<g>
						<path class="st6" d="M24,41.3L24,41.3c2,0,4.1-0.1,6.1-0.2c4.4-0.1,8.8-0.2,13.2-0.3c3.6,0,7.3,0,10.9,0c2.5,0,5-0.1,7.5,0
							l0,0h0.2l0,0c1-0.1,1.9,0,2.9,0c4.1,0,8.2,0,12.2,0.1c1,0,2,0.1,3,0.1c0.5,0,1,0,1.5,0.1l0.6,0.1c0.1,0,0,0,0,0.2L82,47.5
							l0,3.9v0.1l0,0l0,0h-0.8h-2l-14.7-0.3l0,0H63c-4.6,0.1-9.2,0.3-13.8,0.5c-3.5,0.1-6.9,0.2-10.4,0.3c-4.1,0.1-8.1,0.2-12.2,0.3
							h-1.7h-0.5c0,0,0,0,0-0.4c0-1.2,0-2.3-0.1-3.5c-0.1-2.3-0.4-4.6-0.8-6.8l0,0v-0.2l0,0c-0.3-0.4-0.3,0.7-0.4,1.5
							c-0.1,0.6,0,1.5,0.1,2.5c0.1,0.9,0.2,1.8,0.2,2.7c0,0.7,0.1,1.5,0.1,2.2v1.1v1.3c0,0.2,0,0.4,0,0.5H24h0.8h1.1h2.2
							c2.6-0.1,5.1-0.2,7.7-0.3L54,52.4c2.1-0.1,4.2-0.2,6.3-0.2s4.2-0.2,6.2-0.1c4.6,0.1,9.3,0.2,13.9,0.3h1.3h1
							c0.1,0,0.1-0.1,0.1-0.2v-0.3v-0.5v-2.7c0-1.8,0.1-3.6,0.1-5.3v-1.5v-0.8v-0.3v-0.2v-0.1l-0.6-0.1c-1.1-0.1-2-0.2-3.1-0.3l0,0
							c-2.7-0.1-5.3-0.1-8-0.2l-6.4-0.1l0,0c-4.5,0-9,0-13.5,0.1c-4.4,0-8.9,0.1-13.3,0.2c-3.5,0.1-7,0.2-10.5,0.3
							c-0.9,0-1.9,0-2.8,0.1C23,40.8,23.2,41.1,24,41.3z"/>
						<path class="st6" d="M79.2,40.2L79.2,40.2L79.2,40.2L79.2,40.2z"/>
					</g>
				</g>
			</g>
			<g>
				<g>
					<g>
						<path class="st6" d="M27.2,44.4L27.2,44.4L27.2,44.4z"/>
						<path class="st6" d="M34.1,45.2c0.1-0.1,0-0.2-0.1-0.4c-0.1-0.1-0.1-0.1-0.2-0.2c-0.4-0.5-0.9-0.9-1.4-1.1
							c-0.6-0.3-1.3-0.5-1.9-0.5c-0.4,0-0.8,0-1.3,0.1c-0.4,0.1-0.9,0.3-1.2,0.6c-0.3,0.2-0.6,0.5-0.7,0.8l0,0l0,0l0,0l0,0l0,0
							c-0.1,0-0.2,0.2-0.2,0.3c-0.2,0.3-0.3,0.6-0.4,0.9c-0.1,0.3-0.1,0.6-0.2,0.9c-0.1,0.3,0,0.6-0.1,0.9c0.1,0.7,0.2,1.4,0.6,2
							c0.4,0.7,1.2,1,1.9,1.1c0.4,0.1,0.8,0.1,1.2,0.1c0.5,0,1,0,1.6-0.1c0.9-0.2,1.9-0.6,2.3-1.5c0.4-0.7,0.3-1.5,0.3-2.2
							c0-0.4,0-0.8-0.1-1.2c0-0.2-0.1-0.2-0.2-0.2l0,0c-0.5,0.2-0.6,0.5-0.5,1.3c0.1,0.6,0,1.2-0.1,1.7c-0.1,0.3-0.2,0.5-0.5,0.7
							c-0.3,0.3-0.7,0.5-1.2,0.6c-0.2,0-0.5,0-0.7,0.1s-0.4,0.1-0.6,0c-0.8,0-1.7,0-2.2-0.4c-0.4-0.2-0.6-0.7-0.7-1.2
							c0-0.1,0-0.2,0-0.2c-0.1-0.3-0.1-0.6-0.1-1c0-0.8,0.3-1.5,0.7-2.1c0.1-0.2,0.4-0.4,0.6-0.6c0.1-0.1,0.2,0,0.3-0.1
							c0.2-0.1,0.3-0.1,0.5-0.2c0.4-0.1,0.8-0.1,1.3,0c0.4,0,0.8,0.1,1.1,0.2c0.6,0.3,1.2,0.7,1.5,1.3c0,0,0,0.1,0.1,0.1
							c0,0,0,0,0.1,0l0,0c0,0,0,0,0,0.1c0,0,0,0,0.1,0.1l0,0c0,0,0,0.1,0.4,0.1l0.3-0.3v-0.2l0,0C34.1,45.3,34.1,45.3,34.1,45.2
							C34.1,45.3,34,45.3,34.1,45.2L34.1,45.2L34.1,45.2l-0.2-0.1l-0.4,0.2v0.1l0,0l0,0l0,0l0,0c0,0,0,0,0.1,0s0.1,0,0.2-0.1h0.1
							c0,0,0.1,0,0,0s-0.1,0-0.2,0.1l-0.1,0.1l0,0l0,0l0,0h0.1h0.1c0,0,0,0,0.1-0.1C33.9,45.3,34,45.2,34.1,45.2
							C34,45.3,34,45.2,34.1,45.2C34,45.2,34,45.2,34.1,45.2z"/>
					</g>
				</g>
			</g>
			<g>
				<g>
					<g>
						<path class="st6" d="M53.2,44.2L53.2,44.2L53.2,44.2z"/>
						<path class="st6" d="M61.2,43.8c-0.1-0.1-0.2-0.1-0.4-0.1c-0.1,0-0.1,0-0.2,0c-0.6,0.1-1.2,0.1-1.8,0.1l-2,0.1
							c-0.9,0-1.7,0-2.6,0.1c-0.3,0-0.7,0-1,0.1l0,0l0,0l0,0l0,0l0,0c-0.1-0.1-0.2,0-0.3,0h-1c-0.3,0-0.6,0.1-0.9,0
							c-0.3,0-0.6,0.1-0.9,0c-0.7,0-1.4,0-2.1,0c-0.7,0-1.4,0-2.1,0h-1.3c-0.6,0-1.1,0-1.6,0c-0.9,0-1.9,0-2.8,0h-2.3
							c-0.4,0-0.8,0-1.2,0c-0.2,0-0.2,0-0.2,0.1l0,0c0,0.5,0.4,0.8,1.4,0.7c0.7,0,1.3,0,2,0c0.4,0,0.8,0,1.2,0c0.6,0,1.2,0,1.8,0
							c0.3,0,0.6,0,0.9,0c0.2,0,0.5,0,0.7,0c0.9,0,1.9,0,2.8,0c0.6,0,1.3,0,1.9,0c0.1,0,0.2,0,0.3,0h1.2c0.9,0,1.8,0,2.8-0.1
							c0.4,0,0.7,0,1.1,0c0.2,0,0.2,0.1,0.4,0c0.3-0.1,0.5,0,0.8,0c0.5,0,1,0,1.6,0c0.5,0,0.9,0,1.4-0.1c0.9,0,1.7-0.1,2.6-0.1
							c0.1,0,0.2,0,0.2-0.1C61.5,44.4,61.4,44.1,61.2,43.8z"/>
					</g>
				</g>
			</g>
			<g>
				<g>
					<g>
						<path class="st7" d="M63.1,47C63,47,63,47,63.1,47L63.1,47z"/>
						<path class="st7" d="M75.7,46.6c-0.1-0.1-0.3-0.2-0.6-0.1c-0.1,0-0.2,0-0.4,0c-1,0-1.9,0-2.9,0c-1.1,0-2.1,0.1-3.1,0.2
							c-1.3,0.1-2.7,0.2-4,0.3c-0.5,0-1.1,0-1.6,0.1l0,0l0,0l0,0l0,0l0,0c-0.2-0.1-0.3,0-0.5,0L61,47c-0.5,0-1,0.1-1.4,0
							c-0.5,0-1,0.1-1.5,0l-3.3,0.1c-1.1,0-2.2,0-3.3,0.1h-2c-0.9,0-1.7,0.1-2.6,0.1c-1.5,0.1-2.9,0.1-4.4,0.1
							c-1.2,0-2.4,0.1-3.7,0.1c-0.6,0-1.3,0-1.9,0c-0.2,0-0.3,0-0.3,0.1l0,0c0,0.5,0.7,0.7,2.1,0.7c1.1-0.1,2.1-0.1,3.2-0.1
							c0.6,0,1.2,0,1.9,0c0.9,0,1.8-0.1,2.8-0.1c0.5,0,0.9,0,1.4,0c0.4,0,0.8,0,1.1,0c1.5,0,2.9-0.1,4.4-0.1c1,0,2-0.1,2.9,0
							c0.2,0,0.3,0,0.5,0l1.9-0.1c1.4,0,2.9,0,4.4-0.1c0.6,0,1.2-0.1,1.7-0.1c0.2,0,0.4,0,0.6,0c0.4-0.1,0.8,0,1.2-0.1
							c0.8-0.1,1.6-0.1,2.4-0.2c0.7,0,1.5-0.1,2.2-0.1c1.4,0,2.7,0,4,0.1c0.2,0,0.3,0,0.4-0.1C76,47.1,76,46.9,75.7,46.6z"/>
					</g>
				</g>
			</g>
		</g>
		<g>
			<g>
				<path class="st4" d="M24.2,58.4c0.5,3.8,0.7,7.6,0.7,11.4c6.8,0,31.7-0.8,33.9-1s4.4-0.2,6.6-0.2c6,0,12,0.1,18,0.4
					c0.1-3.4,0.1-6.6,0.1-11.2c-6.3-1-47.9-0.3-59.2,0.2"/>
				<g>
					<g>
						<path class="st6" d="M24.8,58.2L24.8,58.2c2,0,4.1-0.1,6.1-0.2c4.4-0.1,8.8-0.2,13.2-0.3c3.6,0,7.3,0,10.9,0
							c2.5,0,5-0.1,7.5,0l0,0h0.2l0,0c1-0.1,1.9,0,2.9,0c4.1,0,8.2,0,12.2,0.1c1,0,2,0.1,3,0.1c0.5,0,1,0,1.5,0.1l0.6,0.1
							c0.1,0,0,0,0,0.2l-0.1,6.1l-0.1,3.9v0.1l0,0l0,0h-0.8h-2l-14.7-0.3l0,0h-1.5c-4.6,0.1-9.2,0.3-13.8,0.5
							c-3.5,0.1-6.9,0.2-10.4,0.3c-4.1,0.1-8.1,0.2-12.2,0.3h-1.7h-0.5c0,0,0,0,0-0.4c0-1.2,0-2.3-0.1-3.5c-0.1-2.3-0.4-4.6-0.8-6.8
							l0,0v-0.2l0,0c-0.3-0.4-0.3,0.7-0.4,1.5c-0.1,0.6,0,1.5,0.1,2.5c0.1,0.9,0.2,1.8,0.2,2.7c0,0.7,0.1,1.5,0.1,2.2v1.1v1.3
							c0,0.2,0,0.4,0,0.5h0.5h0.8h1.1h2.2c2.6-0.1,5.1-0.2,7.7-0.3l18.2-0.6c2.1-0.1,4.2-0.2,6.3-0.2s4.2-0.2,6.2-0.1
							c4.6,0.1,9.3,0.2,13.9,0.3h1.3h1c0.1,0,0.1-0.1,0.1-0.2v-0.3v-0.5v-2.7c0-1.8,0.1-3.6,0.1-5.3v-1.5v-0.8v-0.3v-0.2v-0.1
							L83,57.2c-1.1-0.1-2-0.2-3.1-0.3l0,0c-2.7-0.1-5.3-0.1-8-0.2l-6.4-0.1l0,0c-4.5,0-9,0-13.5,0.1c-4.4,0-8.9,0.1-13.3,0.2
							c-3.5,0.1-7,0.2-10.5,0.3c-0.9,0-1.9,0-2.8,0.1C23.9,57.7,24.1,58,24.8,58.2z"/>
						<path class="st6" d="M80,57.1L80,57.1L80,57.1L80,57.1z"/>
					</g>
				</g>
			</g>
			<g>
				<g>
					<g>
						<path class="st6" d="M34.9,63.6C34.9,63.5,34.9,63.5,34.9,63.6L34.9,63.6z"/>
						<path class="st6" d="M29.7,67.4c0,0.1,0.1,0.2,0.3,0.2c0.1,0,0.1,0,0.2,0s0.2,0.1,0.3,0.1h0.2h0.4c0.3,0,0.6,0,0.9,0
							c0.7-0.1,1.4-0.3,1.9-0.8c0.7-0.7,1-1.6,1-2.5c0-0.3,0-0.7-0.1-1l0,0l0,0l0,0l0,0l0,0c0.1-0.1,0-0.2,0-0.3
							c0-0.3-0.1-0.6-0.2-0.9c-0.1-0.3-0.3-0.6-0.4-0.9c-0.1-0.3-0.4-0.5-0.6-0.8c-0.5-0.5-1.2-0.8-1.9-1c-0.3-0.1-0.7-0.2-1.1-0.2
							s-0.8,0.1-1.1,0.3c-0.4,0.2-0.7,0.5-1,0.9s-0.6,0.9-0.9,1.3c-0.4,0.8-0.8,1.7-0.7,2.7c0.1,0.8,0.7,1.6,1.3,2
							c0.3,0.2,0.7,0.4,1,0.6c0.1,0.1,0.2,0.1,0.2,0l0,0c0.3-0.5,0-0.8-0.7-1.2c-0.5-0.3-0.8-0.7-1-1.2c-0.1-0.3-0.1-0.6,0-0.9
							c0.1-0.5,0.2-0.9,0.5-1.4c0.1-0.2,0.3-0.4,0.4-0.7c0.1-0.2,0.2-0.4,0.3-0.5c0.5-0.6,1.1-1.1,1.8-1c0.5,0.1,1.1,0.2,1.5,0.5
							c0.1,0,0.1,0.1,0.2,0.1c0.3,0.2,0.5,0.4,0.7,0.6c0.5,0.6,0.6,1.4,0.7,2.2c0,0.3,0,0.7,0,1c0,0.1-0.1,0.2-0.1,0.3
							c0,0.2-0.1,0.4-0.1,0.6c-0.1,0.4-0.4,0.7-0.7,0.9c-0.3,0.2-0.6,0.3-1,0.4c-0.3,0-0.7,0-1.1,0h-0.6c0,0-0.1,0-0.2-0.1l-0.3-0.1
							c-0.1,0-0.2,0-0.2,0C29.7,66.8,29.6,67.1,29.7,67.4z"/>
					</g>
				</g>
			</g>
			<g>
				<g>
					<g>
						<path class="st6" d="M54.1,60.9L54.1,60.9L54.1,60.9z"/>
						<path class="st6" d="M62.1,60.8c-0.1-0.1-0.2-0.1-0.4-0.1c-0.1,0-0.1,0-0.2,0c-0.6,0.1-1.2,0.1-1.8,0.1c-0.7,0-1.3,0-2,0
							c-0.9,0-1.7,0-2.6,0c-0.3,0-0.7,0-1,0l0,0l0,0l0,0l0,0l0,0c-0.1-0.1-0.2,0-0.3-0.1h-1c-0.3,0-0.6,0-0.9,0
							c-0.3-0.1-0.6,0.1-0.9-0.1c-0.7,0-1.4,0-2.1,0c-0.7,0-1.4,0-2.1,0h-1.3c-0.6,0-1.1,0.1-1.7,0.1c-0.9,0.1-1.9,0.1-2.8,0.2
							l-2.3,0.2c-0.4,0-0.8,0.1-1.2,0.1c-0.2,0-0.2,0-0.2,0.1l0,0c0.1,0.5,0.5,0.7,1.4,0.6c0.7-0.1,1.3-0.1,2-0.2
							c0.4,0,0.8-0.1,1.2-0.1c0.6,0,1.2-0.1,1.7-0.1c0.3,0,0.6,0,0.9,0c0.2,0,0.5,0,0.7,0c0.9,0,1.8-0.1,2.8,0c0.6,0,1.2,0,1.9,0.1
							c0.1,0,0.2,0,0.3,0h1.2c0.9,0,1.8,0.1,2.8,0.1c0.4,0,0.7,0,1.1,0c0.2,0,0.2,0.1,0.4,0.1c0.3,0,0.5,0,0.8,0c0.5,0,1,0,1.6,0
							c0.5,0,0.9,0,1.4,0c0.9,0,1.7,0,2.6-0.1c0.1,0,0.2,0,0.2-0.1C62.3,61.3,62.3,61,62.1,60.8z"/>
					</g>
				</g>
			</g>
			<g>
				<g>
					<g>
						<path class="st7" d="M63.9,63.9L63.9,63.9L63.9,63.9z"/>
						<path class="st7" d="M76.6,63.5c-0.1-0.1-0.3-0.2-0.6-0.1c-0.1,0-0.2,0-0.4,0c-1,0-1.9,0-2.9,0c-1.1,0-2.1,0.1-3.1,0.2
							c-1.3,0.1-2.7,0.2-4,0.3c-0.5,0-1.1,0-1.6,0.1l0,0l0,0l0,0l0,0l0,0c-0.2-0.1-0.3,0-0.5,0H62c-0.5,0-1,0.1-1.4,0
							c-0.5-0.1-1,0.1-1.5,0h-3.3c-1.1,0-2.2,0-3.3,0h-2c-0.9,0-1.7,0.1-2.6,0.1l-4.4,0.2c-1.2,0-2.4,0.1-3.7,0.1
							c-0.6,0-1.3,0-1.9,0c-0.2,0-0.3,0-0.3,0.1l0,0c0,0.5,0.7,0.7,2.1,0.6c1.1-0.1,2.1-0.1,3.2-0.1c0.6,0,1.2,0,1.9-0.1
							c0.9,0,1.8-0.1,2.8-0.1c0.4,0,0.9,0,1.4,0c0.4,0,0.8,0,1.1,0c1.5,0,2.9-0.1,4.4-0.1c1,0,2,0,2.9,0c0.2,0,0.3,0,0.5,0h1.9
							c1.4,0,2.9,0,4.4-0.1c0.6,0,1.2-0.1,1.7-0.1c0.2,0,0.4,0,0.6,0c0.4-0.1,0.8,0,1.2-0.1c0.8-0.1,1.6-0.1,2.4-0.2
							c0.7,0,1.5-0.1,2.2-0.1c1.4,0,2.7,0,4,0.1c0.2,0,0.3,0,0.4-0.1C76.9,64.1,76.8,63.8,76.6,63.5z"/>
					</g>
				</g>
			</g>
		</g>
	</g>
</g>
</svg>
