<?xml version="1.0" encoding="utf-8"?>
<!-- Generator: Adobe Illustrator 24.2.1, SVG Export Plug-In . SVG Version: 6.00 Build 0)  -->
<svg version="1.1" id="Layer_1" xmlns="http://www.w3.org/2000/svg" xmlns:xlink="http://www.w3.org/1999/xlink" x="0px" y="0px"
	 viewBox="0 0 47.4 53.5" style="enable-background:new 0 0 47.4 53.5;" xml:space="preserve">
<style type="text/css">
	.st0{fill:#D4D4D4;}
	.st1{fill:#F16050;}
	.st2{fill:#DD392D;}
	.st3{fill:#E13B30;}
	.st4{fill:#FFFFFF;}
	.st5{fill:#CCCCCC;}
	.st6{fill:#9B9C9C;}
	.st7{fill:none;stroke:#CCCCCC;stroke-width:0.25;stroke-linecap:round;stroke-linejoin:round;stroke-miterlimit:10;}
	.st8{fill:none;stroke:#989898;stroke-width:0.25;stroke-linecap:round;stroke-linejoin:round;stroke-miterlimit:10;}
</style>
<g>
	<g>
		<path class="st0" d="M9.5,4.5c0,0,1.3-0.7,2.8-0.6c0.6,0,1.5,0.1,2.7,0.5c2.7,0.9,6.5,2.8,8.8,3.6c3.2,1.1,3.8,1.5,5,1.4
			c1.2-0.1,2.6-0.9,4.2-1.8c1.7-0.8,7-3.7,12.1-2.3c2.3,0.6,1.2,4.5,1.2,4.5s-2.6,0.1-5.3,0.8c-2.7,0.7-2.9,1.9-5,3.5
			c-2.1,1.6-4.7,2.5-6.9,3.1s-3.6,1.1-6.4,1.1c-2.9,0-13.5-1.2-13.5-1.2s0.8-2.4,0.9-6.2C10.2,6.9,9.5,4.5,9.5,4.5z"/>
		<path class="st1" d="M9.1,4.4c0,0,2-0.7,3.6-0.5c1.5,0.2,1.6,0.3,1.6,0.3S15.5,7,15.5,10c-0.1,5.3-1.5,7.6-1.5,7.6l-5-0.5
			c0,0,1.9-1.4,1.8-7.1C10.6,4.2,9.1,4.4,9.1,4.4z"/>
		<path class="st1" d="M19.9,6.3c0,0,1,1.3,0.7,5.6c-0.2,2.5-1.4,6.2-1.4,6.2s1.3,0.2,3.4,0.2c2.1,0,2.7-0.2,2.7-0.2s1-2.5,1.2-5.1
			c0.2-2.5-0.7-4.4-0.7-4.4L19.9,6.3z"/>
		<path class="st1" d="M30.7,8.7c0,0,1.1,1,1.5,2.5c0.3,1.5,0.1,4.8,0.1,4.8s1.8-0.6,3.2-1.6s1.9-1.6,1.9-1.6s0.2-1.8-0.9-3.5
			C35.4,7.4,34.2,7,34.2,7L30.7,8.7z"/>
		<path class="st1" d="M40.2,5c0,0,0.9,0.9,1.6,2.2s0.8,3,0.8,3s1.3-0.2,2.2-0.2c0.7,0,1.3,0.1,1.5,0.1c0.6,0,0.7-4,0.7-4
			s-0.9-0.9-2.8-1.2C42.4,4.6,40.2,5,40.2,5z"/>
		<ellipse transform="matrix(0.108 -0.9942 0.9942 0.108 33.5479 53.589)" class="st2" cx="46.6" cy="8.1" rx="2.1" ry="0.7"/>
		<g>
			<path class="st3" d="M7.8,10.8c0.1-3.5,0.6-6.4,1.5-6.3c0.9,0,1.6,2.9,1.5,6.3S9.9,17.1,9,17.1C8.1,17,7.7,14.3,7.8,10.8z"/>
			<path class="st4" d="M7.8,10.8c0-1.1,0.1-2.2,0.2-3.4C8,6.9,8.1,6.3,8.3,5.8C8.3,5.5,8.4,5.2,8.6,5c0.1-0.2,0.3-0.5,0.7-0.6
				c0.4,0,0.6,0.3,0.7,0.5c0.1,0.3,0.3,0.5,0.4,0.8c0.2,0.5,0.3,1.1,0.4,1.7c0.2,1.1,0.2,2.3,0.2,3.4c0,1.1-0.1,2.3-0.3,3.4
				c-0.1,0.6-0.2,1.1-0.4,1.6C10,16,9.9,16.3,9.8,16.5c-0.2,0.2-0.3,0.5-0.7,0.6c-0.4,0.1-0.6-0.2-0.7-0.5c-0.1-0.3-0.2-0.5-0.3-0.8
				c-0.1-0.6-0.2-1.1-0.3-1.7C7.7,13,7.7,11.9,7.8,10.8z M7.8,10.8c0,1.1,0,2.2,0.1,3.4c0.1,0.6,0.2,1.1,0.3,1.6
				c0.1,0.3,0.2,0.5,0.3,0.8C8.6,16.8,8.9,17,9.1,17c0.2-0.1,0.4-0.3,0.5-0.5c0.1-0.2,0.2-0.5,0.3-0.8c0.2-0.5,0.3-1.1,0.4-1.6
				c0.2-1.1,0.3-2.2,0.3-3.3c0-1.1,0-2.2-0.2-3.3c-0.1-0.6-0.2-1.1-0.3-1.6C10,5.5,9.9,5.2,9.8,5C9.6,4.8,9.5,4.5,9.2,4.6
				C9,4.6,8.8,4.8,8.7,5C8.6,5.3,8.5,5.5,8.4,5.8C8.2,6.3,8.1,6.9,8,7.4C7.9,8.6,7.8,9.7,7.8,10.8z"/>
		</g>
	</g>
	<rect class="st5" width="1.7" height="53.5"/>
	<rect class="st6" width="0.8" height="53.5"/>
	<path class="st6" d="M27.3,5.7"/>
	<line class="st7" x1="1.5" y1="9.5" x2="9.1" y2="4.4"/>
	<line class="st7" x1="1.5" y1="9.8" x2="10.7" y2="9.8"/>
	<line class="st8" x1="7.7" y1="12.1" x2="1.5" y2="10"/>
	<line class="st7" x1="9" y1="17.1" x2="1.6" y2="10.2"/>
</g>
</svg>
