<?xml version="1.0" encoding="utf-8"?>
<!-- Generator: Adobe Illustrator 24.2.1, SVG Export Plug-In . SVG Version: 6.00 Build 0)  -->
<svg version="1.1" id="Layer_1" xmlns="http://www.w3.org/2000/svg" xmlns:xlink="http://www.w3.org/1999/xlink" x="0px" y="0px"
	 viewBox="0 0 114.7 82.2" style="enable-background:new 0 0 114.7 82.2;" xml:space="preserve">
<style type="text/css">
	.st0{opacity:0.25;}
	.st1{fill:#3C6C7C;}
	.st2{fill:#FFFFFF;}
	.st3{fill:#E8E7E6;}
</style>
<g class="st0">
	<path class="st1" d="M5.6,22.7c10.4,18,15.2,38.9,19.8,59.5c32.4-11,50.2-14.3,89.4-20.1C111.2,40.9,104.5,20.3,95,1.2
		C63.6-2.1,30.6,0.8,2.9,16.9c1,2,2,3.9,2.9,5.9"/>
</g>
<g>
	<path class="st2" d="M2.1,18.2c9.7,16,15.6,37.8,20,56.1c30.3-9.7,46.9-12.7,83.5-17.8c-3.3-18.8-9.5-37.1-18.4-54
		C57.8-0.6,27,2,1.1,16.3C2,18,3,19.8,3.9,21.5"/>
	<g>
		<g>
			<path d="M95.4,22.5c-1.4-3.6-2.8-7.1-4.4-10.5c-0.7-1.5-1.4-3.1-2.2-4.6c-0.4-0.8-0.7-1.5-1.1-2.3l-1-1.9l-5.5-0.5
				c-2-0.1-3.9-0.3-5.9-0.4C71.4,2.1,67.5,2,63.6,2.1c-6,0-11.9,0.5-17.8,1.2C39.8,4,33.9,5,28.2,6.5C19.5,8.6,11,11.9,3.1,15.9
				c-0.3,0.2-0.7,0.3-1,0.5l-0.1,0.1c0,0-0.1,0-0.1,0.1L2,16.8c0.4,0.8,0.8,1.6,1.3,2.4c0.3,0.6,0.8,1.5,0.7,1.6
				c-0.2,0.4-0.1,1.3-0.8,0.7c-0.3-0.2-0.8-1-1.3-2L1,17.8l-0.6-1.2l-0.2-0.4L0,16c0,0-0.1-0.1,0-0.1l0.1-0.1l0.8-0.4l3.6-1.8
				C5.6,13,6.8,12.5,7.9,12c1.1-0.5,2.3-1,3.4-1.5c2.3-0.9,4.6-1.8,7-2.6c1.2-0.4,2.3-0.8,3.5-1.1l3.6-1c2.2-0.6,4.4-1.1,6.6-1.6
				c2.2-0.4,4.5-0.9,6.7-1.2c8.1-1.4,16.3-2,24.4-2.2c4-0.1,8,0,12,0.1c2,0.1,4,0.2,6,0.3l6.4,0.5l1.9,3.6l1.6,3.3
				c1.1,2.2,2.1,4.5,3,6.8c3.4,8,6.2,16.3,8.5,24.7c0.7,2.7,1.4,5.3,2,8c0.3,1.3,0.6,2.7,0.9,4c0.1,0.7,0.3,1.4,0.4,2l0.5,2.7
				l-2.8,0.4c-9.6,1.4-19.1,2.8-28.6,4.4c-8.7,1.5-17.4,3.3-26,5.4c-8.4,2-16.9,4.5-25.1,7.3c-0.7,0.2-1.5,0.5-2.2,0.7
				c-0.1-0.5-0.2-0.9-0.3-1.4l-0.1-0.5L21,72.9l0,0l-0.2-0.7l0,0c-0.7-3.4-1.7-6.7-2.6-10.1c-1.9-7-4-13.8-6.3-20.7
				c-1.1-3.4-2.5-6.9-4.1-10.4c-1.3-2.8-2.7-6.2-4.3-8.7c-1.9-3.1-1.6-3.1-1.7-3.8c0-0.3,0.1-0.1,0.3,0.1c0.6,0.6,1.5,1.9,1.6,1.4
				c0-0.3,1,1.4,1.5,2.3c4.2,7.6,7.3,15.7,10,23.8c2.7,8.2,4.9,16.5,6.9,24.9l0.5,2.2l3-0.9l3.8-1.2c2.6-0.8,5.1-1.5,7.7-2.3
				c5.2-1.5,10.3-2.9,15.6-4.1c11.2-2.7,22.5-4.5,33.8-6.3c3.2-0.5,6.3-1,9.5-1.4c2.9-0.4,5.7-0.8,8.6-1.2c0-0.1,0,0.1-0.1-0.5
				c-1.2-6.9-2.9-13.7-4.9-20.4C98.5,30.7,97.1,26.5,95.4,22.5L95.4,22.5z"/>
		</g>
	</g>
</g>
<g>
	<path class="st3" d="M34.2,18.1c5.2,10,8.3,17.8,10.5,28.8c11.1-2.8,19.3-4.4,29.5-6.7c-2.7-9.8-10-27.6-10.4-27.9
		c-0.5-0.3-20.9,2.3-30,5.6"/>
	<g>
		<g>
			<path d="M69.7,28c-0.5-1.5-1.1-2.9-1.7-4.4c-0.9-2.1-1.7-4.3-2.6-6.4c-0.4-1.1-0.9-2.1-1.3-3.2l-0.3-0.8l-0.2-0.4l-0.1-0.2l0,0
				c0,0,0,0-0.1,0l-0.4,0l-0.8,0.1c-4.8,0.5-9.7,1.3-14.5,2.1c-3.6,0.6-7.2,1.4-10.8,2.3c-0.7,0.2-1.4,0.4-2.1,0.7
				c-0.3,0.1-0.6,0.2-0.7,0.2c-0.2-0.2-0.6-0.3-0.4-0.7c0.1-0.1,0.4-0.3,0.9-0.5c3.9-1.2,7.9-2,11.9-2.7c1.8-0.3,3.7-0.6,5.5-0.9
				c3.3-0.6,6.6-1,9.9-1.3l1-0.1c0.2,0,0.3,0,0.6,0c0.1,0,0.3,0,0.4,0.1l0.1,0l0.1,0.1l0.1,0.2c0.2,0.2,0.2,0.4,0.3,0.5l0.2,0.5
				l0.4,0.9c0.5,1.2,1.1,2.4,1.6,3.7c1,2.4,2,4.9,2.9,7.4c1.2,3.3,2.4,6.7,3.5,10.1c0.4,1.2,0.8,2.4,1.2,3.6l0.3,1.1l0.1,0.4l0,0.1
				l0,0.1l-0.1,0l-0.2,0l-0.8,0.2l-1.9,0.4l-11.5,2.6c-3.5,0.8-7.1,1.6-10.6,2.4c-0.9,0.2-1.7,0.4-2.6,0.6L45.9,47L45,47.2l-0.6,0.1
				c-0.1-0.1-0.1-0.4-0.1-0.5L44,45.3L43.7,44c-0.2-0.9-0.4-1.7-0.7-2.6c-0.1-0.4-0.2-0.9-0.3-1.2l0,0l-0.1-0.3l0,0
				c-0.3-1.4-0.8-2.7-1.2-4.1c-0.9-2.8-2-5.5-3.1-8.3c-0.5-1.3-1.2-2.8-1.9-4.2c-0.6-1.1-1.2-2.5-1.8-3.6c-0.8-1.3-0.6-1.3-0.5-1.7
				c0-0.1,0.1-0.1,0.2,0c0.3,0.2,0.7,0.7,0.8,0.5c0.1-0.1,0.4,0.6,0.6,0.9c3.3,6.2,6,12.8,7.9,19.6c0.3,1.2,0.6,2.3,0.9,3.5l0.4,1.8
				l0.3,1.6l6-1.5c4.6-1.1,9.2-2,13.7-3.1c2.7-0.6,5.4-1.2,8.1-1.8l0.4-0.1l0.1,0c0,0,0,0,0-0.1l-0.1-0.4c-0.2-0.7-0.4-1.4-0.6-2.1
				c-0.4-1.4-0.9-2.7-1.3-4.1C71,31.4,70.4,29.7,69.7,28L69.7,28z"/>
		</g>
	</g>
</g>
<g>
	<g>
		<g>
			<polygon points="80.1,27 80.1,27 80.1,27 			"/>
			<polygon points="79.3,24.9 79.3,24.9 79.3,24.9 			"/>
			<path d="M82.3,41.2c-0.2,0.1-0.3,0-0.4-0.2c-0.2-0.7-0.1-1.4-0.3-2.1l0,0l0,0l0,0c-0.1-0.5-0.3-0.9-0.3-1.3
				c-0.1-0.8-0.4-1.5-0.5-2.3c-0.1-0.9-0.4-1.8-0.6-2.6c-0.2-1.1-0.6-2.1-0.9-3.1c-0.3-0.9-0.6-1.7-0.9-2.6
				c-0.2-0.6-0.3-1.2-0.5-1.8l-0.2-0.7c-0.1-0.3-0.2-0.5-0.2-0.8c0-0.3-0.2-0.6-0.3-0.9c-0.1-0.4-0.2-0.9-0.4-1.2
				c-0.2-0.4-0.3-0.9-0.6-1.2l0,0c-0.1-0.2-0.2-0.5-0.3-0.7c-0.3-0.5-0.4-1.1-0.6-1.6c-0.5-1.5-1.2-3-1.9-4.4
				c-0.3-0.6-0.6-1.1-0.9-1.6l0,0c-0.2-0.4,0-0.8,0.1-1.2c0.2-0.4,0.4-0.4,0.7,0c0.4,0.7,0.9,1.4,1.3,2.1c0.3,0.7,0.6,1.4,0.9,2.1
				c0.2,0.3,0.3,0.7,0.4,1.1l0,0c0,0,0,0,0,0l0,0c0.1,0.5,0.4,1,0.6,1.5c0.1,0.3,0.2,0.5,0.2,0.8c0,0.2,0.2,0.4,0.3,0.6
				c0.3,0.7,0.6,1.4,0.8,2.1l0.2,0.5l0,0c0,0.2,0.1,0.4,0.2,0.6l0.1,0.4c0.1,0.1,0.1,0.3,0.2,0.4c0.2,0.3,0.3,0.6,0.3,1
				c0,0,0,0.1,0.1,0.1l0,0l0.1,0.2c0,0,0,0,0,0l0,0c0.1,0.3,0.2,0.5,0.3,0.8l0,0.1l0,0l0,0l0,0l0,0l0,0c0.1,0.4,0.3,0.7,0.4,1.1l0,0
				l0.2,0.7l0,0c0,0,0,0.1,0,0.1l0,0L80,27l0.1,0c0,0.1,0.1,0.3,0.1,0.5l0,0c0,0,0.1,0,0,0.1l0,0l0,0l0.2,0.5l0,0
				c0.1,0.1,0.1,0.2,0.1,0.3c-0.1,0.1,0.2,0.2,0.1,0.3l0,0c0,0,0,0,0,0l0,0l0.5,1.5l0,0c0,0.7,0.3,1.3,0.4,1.9
				c0.2,0.7,0.4,1.4,0.6,2.1c0.1,0.3,0.2,0.5,0.3,0.8l0,0c0,0,0.1,0.1,0,0.1l0,0l0,0c0,0.2,0.1,0.5,0.2,0.7c0.1,0.3,0.2,0.6,0.3,0.9
				c0.2,0.7,0.3,1.3,0.5,2c0.1,0.2,0.1,0.4,0.2,0.6c0.1,0.2,0,0.2-0.1,0.3c-0.3,0.1-0.4,0.2-0.3,0.6c0.1,0.2,0.1,0.5-0.3,0.5
				c-0.1,0-0.1,0.1-0.1,0.1C82.8,41.2,82.5,41.2,82.3,41.2z M79,24.2L79,24.2L79,24.2C78.9,24.2,78.9,24.2,79,24.2z M79.7,26.2
				L79.7,26.2L79.7,26.2L79.7,26.2z M80,27.1L80,27.1L80,27.1L80,27.1z M80.4,28.2l0-0.1L80.4,28.2L80.4,28.2z M82.3,35.1L82.3,35.1
				L82.3,35.1L82.3,35.1z"/>
		</g>
	</g>
</g>
<g>
	<g>
		<g>
			<polygon points="74,10.3 74,10.3 74,10.3 			"/>
			<polygon points="72.9,9.8 72.9,9.8 72.9,9.8 			"/>
			<path d="M77.7,14.1c-0.1,0.2-0.2,0.3-0.3,0.2c-0.2-0.1-0.4-0.4-0.6-0.5l0,0l0,0l0,0c-0.1-0.1-0.3-0.1-0.4-0.2
				c-0.2-0.2-0.5-0.3-0.7-0.5c-0.2-0.2-0.6-0.3-0.8-0.5c-0.3-0.2-0.7-0.4-1-0.6c-0.3-0.1-0.6-0.2-0.9-0.4c-0.1,0,0-0.1-0.1-0.1
				c0,0,0,0,0,0c0,0,0,0,0-0.1c0,0,0-0.1-0.1-0.1c-0.1-0.1-0.1,0-0.1,0.1c0,0-0.1,0.1-0.1,0.2c0,0,0,0-0.1,0.1c0,0.1-0.1,0.2,0,0.3
				l0,0c0,0.1-0.1,0.2-0.1,0.3c0,0.2-0.2,0.4-0.3,0.5c-0.3,0.5-0.5,1-0.7,1.6c-0.1,0.2-0.1,0.4-0.1,0.7l0,0c0,0.2-0.4,0.1-0.7,0.1
				c-0.3,0-0.6-0.1-0.6-0.3c0-0.3,0-0.6,0.1-0.9c0.1-0.3,0.3-0.5,0.4-0.7c0-0.1,0.1-0.3,0.2-0.4l0,0c0,0,0,0,0,0l0,0
				c0.2-0.1,0.2-0.3,0.3-0.5c0-0.1,0.1-0.2,0.2-0.3c0.1-0.1,0-0.2,0.1-0.3l0.3-0.9l0.1-0.3l0,0c0.1-0.1,0.1-0.2,0.1-0.3
				c0-0.1,0.1-0.1,0.1-0.2c0-0.1,0.1-0.2,0.1-0.3C72,9.5,72,9.4,72,9.3c0.1,0.1,0.2,0.1,0.3,0.2c0,0,0,0,0,0l0,0l0.1,0l0,0l0,0
				c0.2,0.1,0.3,0.2,0.5,0.2L73,9.9l0,0l0,0l0,0l0,0l0,0c0.2,0.1,0.4,0.1,0.6,0.3l0,0c0.1,0.1,0.2,0.1,0.2,0.2l0,0c0,0,0,0.1,0,0
				l0,0l0,0l0,0c0,0,0.1,0,0.1,0.1l0,0c0,0,0.1,0,0,0l0,0l0,0l0.2,0.1l0,0c0.1,0,0.1,0,0.1,0.1c0,0.1,0.1-0.1,0.1,0l0,0l0,0l0,0
				L75,11l0,0c0.1,0.3,0.4,0.3,0.6,0.4c0.2,0.1,0.5,0.2,0.7,0.3c0.1,0,0.2,0.1,0.3,0.1l0,0c0,0,0,0,0,0l0,0l0,0
				c0.1,0,0.1,0.1,0.2,0.1c0.1,0,0.2,0.1,0.3,0.1c0.2,0.1,0.4,0.2,0.7,0.3c0.1,0,0.2,0,0.2,0c0.1,0,0.1,0.1,0,0.2
				c-0.1,0.3-0.2,0.4,0,0.4c0.1,0,0.2,0.1-0.1,0.4c-0.1,0.1,0,0.1,0,0.1C78,13.7,77.8,13.9,77.7,14.1z M72.5,9.6L72.5,9.6
				C72.5,9.6,72.5,9.6,72.5,9.6C72.5,9.6,72.5,9.6,72.5,9.6z M73.6,10.2L73.6,10.2L73.6,10.2L73.6,10.2z M74,10.4L74,10.4L74,10.4
				L74,10.4z M74.3,10.6L74.3,10.6L74.3,10.6L74.3,10.6z M76.5,11.9L76.5,11.9L76.5,11.9L76.5,11.9z"/>
		</g>
	</g>
</g>
<g>
	<g>
		<g>
			<polygon points="82.7,39.8 82.7,39.8 82.7,39.8 			"/>
			<polygon points="82.6,40 82.6,40 82.6,40 			"/>
			<path d="M86,36.1c0.2,0.1,0.3,0.2,0.2,0.3c-0.1,0.2-0.4,0.4-0.5,0.6l0,0l0,0l0,0c-0.1,0.1-0.1,0.3-0.2,0.4
				c-0.2,0.2-0.2,0.5-0.4,0.7c-0.2,0.2-0.3,0.6-0.5,0.9c-0.2,0.3-0.3,0.7-0.4,1.1c-0.1,0.6-0.3,1.2-0.4,1.8c0,0.1-0.1,0.3-0.1,0.4
				c-0.2-0.1-0.5-0.3-0.8-0.4c-0.1-0.1-0.3-0.1-0.4-0.2c-0.1-0.1-0.3-0.1-0.4-0.4C82,41,81.8,41,81.6,40.9c-0.2-0.1-0.2-0.3-0.4-0.4
				c-0.1-0.1-0.2-0.3-0.4-0.3l0,0c-0.1-0.1-0.1-0.2-0.2-0.2c-0.2-0.1-0.3-0.3-0.4-0.5c-0.4-0.5-0.8-0.8-1.3-1.1
				c-0.2-0.1-0.4-0.1-0.6-0.1l0,0c-0.1,0-0.1-0.4-0.1-0.7c0-0.3,0.1-0.6,0.3-0.6c0.4,0,0.8,0,1.1,0.2c0.3,0.2,0.5,0.4,0.8,0.6
				c0.1,0.1,0.2,0.2,0.3,0.3l0,0c0,0,0,0,0,0l0,0c0.1,0.2,0.3,0.3,0.4,0.4c0.1,0.1,0.1,0.2,0.2,0.3c0,0.1,0.2,0.1,0.2,0.1l0.6,0.5
				l0.1,0.1l0,0c0,0.1,0.1,0.1,0.2,0.1c0,0,0,0,0,0.1c0,0,0,0,0.1,0c0.1,0,0.1,0,0.1,0.1c0,0,0,0,0,0l0,0l0,0l0,0l0,0
				c0,0.1,0.1,0,0.1,0l0,0.1l0,0l0,0l0,0l0,0l0,0c0,0,0,0,0-0.1c0,0,0,0,0,0l0,0l0,0l0,0c0,0,0,0.1,0,0l0,0l0,0l0-0.1c0,0,0,0,0.1,0
				l0,0c0,0,0-0.1,0,0l0,0l0,0l0-0.1l0,0c0,0-0.1-0.1,0.1,0c0.1,0-0.1-0.1,0,0l0,0l0,0l0,0l0.2-0.5l0,0c0.3-0.2,0.3-0.4,0.4-0.7
				c0.1-0.3,0.2-0.5,0.3-0.8c0-0.1,0.1-0.2,0.1-0.3l0,0c0,0,0,0,0,0l0,0l0,0c0-0.1,0.1-0.2,0.1-0.2c0-0.1,0.1-0.2,0.1-0.4
				c0.1-0.2,0.2-0.5,0.3-0.7c0-0.1,0-0.2,0-0.3c0-0.1,0.1-0.1,0.2,0c0.3,0.1,0.4,0.2,0.4,0c0-0.1,0.1-0.2,0.4,0.1
				c0.1,0.1,0.1,0,0.1,0C85.6,35.8,85.8,36,86,36.1z M82.6,40.1L82.6,40.1L82.6,40.1L82.6,40.1z M82.7,40L82.7,40L82.7,40L82.7,40z
				 M82.8,39.9L82.8,39.9L82.8,39.9L82.8,39.9z M82.8,39.8L82.8,39.8L82.8,39.8L82.8,39.8z M83.7,37.4L83.7,37.4L83.7,37.4
				L83.7,37.4z"/>
		</g>
	</g>
</g>
<g>
	<g>
		<g>
			<polygon points="47.7,53.4 47.7,53.4 47.7,53.4 			"/>
			<polygon points="47.6,53.4 47.6,53.4 47.6,53.4 			"/>
			<path d="M49.5,56.5c-0.2,0.2-0.3,0.2-0.3,0.2c-0.1-0.1-0.1-0.3-0.2-0.4l0,0l0,0l0,0c0-0.1-0.2-0.1-0.2-0.2
				c-0.1-0.2-0.3-0.2-0.4-0.4c-0.1-0.2-0.3-0.3-0.5-0.4c-0.2-0.2-0.4-0.3-0.6-0.3c0,0-0.1,0-0.2,0l-0.3-0.1
				c-0.2-0.1-0.4-0.1-0.6-0.2c-0.2-0.1-0.3-0.3-0.4-0.6c0-0.1-0.1-0.2-0.1-0.2c0,0,0,0,0-0.1c0-0.1,0-0.2,0.1-0.3
				c0.2-0.1,0.1-0.2,0.1-0.3c0.1-0.1,0.2-0.3,0.3-0.4c0.1-0.2,0.2-0.3,0.2-0.5l0,0c0-0.1,0.1-0.1,0.1-0.2c0-0.2,0.2-0.2,0.3-0.3
				c0.3-0.3,0.5-0.6,0.7-1c0.1-0.1,0.1-0.3,0.1-0.5l0,0c0-0.1,0.4,0,0.7,0.2c0.3,0.1,0.5,0.3,0.5,0.4c0,0.2,0,0.5-0.1,0.6
				c-0.1,0.1-0.2,0.3-0.3,0.4c0,0.1-0.1,0.1-0.2,0.2l0,0c0,0,0,0,0,0l0,0c-0.2,0-0.2,0.2-0.2,0.3c0,0.1-0.1,0.1-0.2,0.1
				c-0.1,0,0,0.1,0,0.2l-0.2,0.3c0,0,0,0,0,0l0,0c-0.1,0,0,0,0,0c0,0,0,0,0,0c0,0,0,0,0,0c0.1,0,0,0,0,0.1l0,0c0,0,0,0,0.1,0l0,0
				l0,0l0,0l0,0c-0.1,0,0,0,0.1,0l-0.1,0l0,0l0,0l0,0l0,0l0,0c0,0,0.1,0,0.1,0l0,0l0,0l0,0c0,0,0,0.1,0,0l0,0l0,0l0,0c0,0,0,0,0,0.1
				l0,0c0,0,0-0.1,0,0l0,0l0,0l0.1,0l0,0c0,0,0-0.1,0,0.1c0,0.1,0.1-0.1,0.1,0l0,0l0,0l0,0l0.4,0.2l0,0c0,0.3,0.2,0.3,0.4,0.3
				c0.2,0.1,0.3,0.2,0.5,0.3c0.1,0,0.1,0.1,0.2,0.1l0,0c0,0,0,0,0,0l0,0l0,0c0,0,0.1,0.1,0.2,0.1c0.1,0,0.2,0.1,0.3,0.1
				c0.2,0.1,0.3,0.2,0.5,0.3c0,0,0.1,0,0.2,0c0.1,0,0,0.1-0.1,0.2c-0.2,0.2-0.3,0.4-0.2,0.4c0.1,0,0.1,0.1-0.2,0.4
				c-0.1,0.1-0.1,0.1-0.1,0.1C49.9,56.1,49.6,56.4,49.5,56.5z M47.4,53.4L47.4,53.4L47.4,53.4C47.4,53.4,47.4,53.4,47.4,53.4z
				 M47.6,53.5L47.6,53.5L47.6,53.5L47.6,53.5z M47.7,53.5L47.7,53.5L47.7,53.5L47.7,53.5z M47.7,53.5L47.7,53.5L47.7,53.5
				L47.7,53.5z M49.3,54.4L49.3,54.4L49.3,54.4L49.3,54.4z"/>
		</g>
	</g>
</g>
<g>
	<g>
		<g>
			<polygon points="64.7,49.1 64.7,49.1 64.7,49.1 			"/>
			<polygon points="62.5,49.6 62.5,49.6 62.6,49.6 			"/>
			<path d="M78.9,47.8c0,0.2,0,0.3-0.2,0.4c-0.7,0.1-1.4,0.1-2.1,0.2l0,0l0,0l0,0c-0.5,0-0.9,0.2-1.3,0.3c-0.8,0.1-1.6,0.3-2.4,0.4
				c-0.9,0.1-1.8,0.3-2.7,0.4c-1.1,0.2-2.1,0.4-3.2,0.6c-0.9,0.2-1.8,0.5-2.7,0.7c-0.6,0.1-1.3,0.2-1.9,0.3l-0.7,0.1
				c-0.3,0.1-0.5,0.1-0.8,0c-0.3-0.1-0.6,0.1-0.9,0.2c-0.4,0.1-0.9,0.1-1.3,0.2c-0.4,0.1-0.9,0.1-1.3,0.4l0,0
				c-0.3,0-0.5,0.1-0.8,0.2c-0.5,0.2-1.1,0.2-1.7,0.3c-1.6,0.3-3.1,0.6-4.7,1c-0.6,0.2-1.2,0.4-1.8,0.6l0,0
				c-0.5,0.1-0.8-0.1-1.1-0.4c-0.4-0.2-0.3-0.5,0.1-0.7c0.8-0.3,1.5-0.6,2.3-0.8c0.7-0.2,1.5-0.3,2.2-0.4c0.4-0.1,0.7-0.2,1.1-0.2
				l0,0c0,0,0,0,0,0l0,0c0.5,0,1-0.2,1.6-0.3c0.3-0.1,0.6-0.1,0.9-0.1c0.2,0,0.4-0.1,0.7-0.2l2.2-0.5l0.5-0.1l0,0
				c0.2,0,0.4-0.1,0.6-0.1l0.4-0.1c0.2,0,0.3-0.1,0.5-0.1c0.3-0.1,0.6-0.2,1-0.2c0,0,0.1,0,0.1-0.1l0,0l0.2-0.1c0,0,0,0,0,0l0,0
				c0.3,0,0.6-0.1,0.8-0.2l0.1,0l0,0l0,0l0,0l0,0l0,0c0.4-0.1,0.7-0.2,1.1-0.3l0,0l0.7-0.1l0,0c0,0,0.1,0,0.1,0l0,0l0.1-0.1l0-0.1
				c0.2,0,0.3-0.1,0.5,0l0,0c0,0,0.1-0.1,0.1,0l0,0l0,0l0.5-0.1l0,0c0.1-0.1,0.2-0.1,0.3,0c0.1,0.1,0.2-0.2,0.3-0.1l0,0c0,0,0,0,0,0
				l0,0l1.5-0.3l0,0c0.7,0.1,1.3-0.2,1.9-0.3c0.7-0.2,1.4-0.3,2.1-0.5c0.3-0.1,0.5-0.1,0.8-0.2l0,0c0,0,0.1-0.1,0.1,0l0,0l0,0
				c0.2,0,0.5-0.1,0.7-0.1c0.3-0.1,0.6-0.2,0.9-0.2c0.7-0.2,1.3-0.3,2-0.4c0.2,0,0.4-0.1,0.6-0.2c0.2-0.1,0.2,0,0.3,0.1
				c0.1,0.3,0.2,0.4,0.6,0.3c0.2-0.1,0.5-0.1,0.5,0.3c0,0.1,0.1,0.1,0.1,0.1C79,47.3,78.9,47.6,78.9,47.8z M61.8,49.9L61.8,49.9
				L61.8,49.9C61.8,49.9,61.8,49.9,61.8,49.9z M63.8,49.4L63.8,49.4L63.8,49.4L63.8,49.4z M64.8,49.2L64.8,49.2L64.8,49.2L64.8,49.2
				z M65.9,48.9l-0.1,0L65.9,48.9L65.9,48.9z M72.8,47.6L72.8,47.6L72.8,47.6L72.8,47.6z"/>
		</g>
	</g>
</g>
<g>
	<g>
		<g>
			<polygon points="79.7,47.2 79.7,47.2 79.7,47.2 			"/>
			<polygon points="79.4,46.4 79.4,46.4 79.4,46.4 			"/>
			<path d="M76.1,50.5c-0.2-0.1-0.3-0.2-0.2-0.2c0.1-0.2,0.3-0.3,0.5-0.5l0,0l0,0l0,0c0.1-0.1,0.1-0.3,0.2-0.4
				c0.2-0.2,0.2-0.4,0.5-0.6c0.2-0.2,0.3-0.4,0.5-0.6c0.1-0.1,0.2-0.2,0.3-0.4l0.1-0.2c0,0,0,0,0-0.1c0-0.1,0-0.1,0-0.1
				c0,0,0-0.1,0-0.1c0,0,0,0,0,0c0,0,0,0,0-0.1c0.1-0.1-0.1-0.1-0.2-0.1c-0.1-0.1-0.2-0.2-0.3-0.2c-0.1,0-0.2-0.2-0.4-0.1l0,0
				c-0.1,0-0.1-0.1-0.2-0.1c-0.2,0-0.3-0.1-0.4-0.2c-0.4-0.2-0.9-0.4-1.3-0.4c-0.2,0-0.4,0-0.5,0l0,0c-0.1,0-0.1-0.4-0.2-0.7
				c0-0.3,0-0.6,0.2-0.6c0.3-0.1,0.5-0.1,0.8,0c0.2,0.1,0.4,0.2,0.6,0.2c0.1,0,0.2,0.1,0.3,0.1l0,0c0,0,0,0,0,0v0
				c0.1,0.1,0.3,0.1,0.5,0.2c0.1,0,0.2,0.1,0.2,0.2c0,0.1,0.1,0,0.2,0c0.2,0.1,0.4,0.1,0.6,0.2l0.1,0.1l0,0c0,0.1,0.1,0.1,0.2,0.1
				c0,0,0.1,0,0.1,0.1c0,0,0.1,0,0.2,0c0.2,0,0.3,0.1,0.4,0.2c0,0,0,0,0.1,0l0,0l0.1,0l0,0l0,0c0.1,0.1,0.3,0.1,0.4,0.2l0,0.1l0,0
				l0,0l0,0l0,0l0,0c0.1,0.1,0.3,0.2,0.3,0.4l0,0c-0.1,0.1,0,0.2,0,0.3l0,0c0,0-0.1,0,0,0l0,0l0,0l0.1,0c0,0.1,0,0.1-0.1,0.2l0,0
				c0,0,0.1,0,0,0l0,0l0,0c0,0.1,0,0.1,0,0.2l0,0c0,0.1,0,0.1-0.1,0.1c-0.1,0,0.1,0.1-0.1,0.1l0,0c0,0,0,0,0,0l0,0L79,48.5l0,0
				c-0.3,0-0.3,0.3-0.4,0.4c-0.1,0.2-0.2,0.4-0.3,0.5c0,0.1-0.1,0.1-0.1,0.2l0,0c0,0,0,0,0,0l0,0l0,0c0,0.1-0.1,0.1-0.1,0.2
				c0,0.1-0.1,0.2-0.1,0.3c-0.1,0.2-0.2,0.3-0.3,0.5c0,0.1,0,0.1,0,0.2c0,0.1-0.1,0-0.2,0c-0.3-0.1-0.4-0.2-0.4-0.1
				c0,0.1-0.1,0.2-0.4-0.1c-0.1-0.1-0.1,0-0.1,0C76.5,50.7,76.3,50.5,76.1,50.5z M79,46.2L79,46.2L79,46.2C79,46.2,79,46.2,79,46.2z
				 M79.6,46.8L79.6,46.8L79.6,46.8L79.6,46.8z M79.7,47.2L79.7,47.2L79.7,47.2L79.7,47.2z M79.5,47.7L79.5,47.7L79.5,47.7
				L79.5,47.7z M78.2,49.6L78.2,49.6L78.2,49.6L78.2,49.6z"/>
		</g>
	</g>
</g>
<g>
	<g>
		<g>
			<path d="M59.4,31.5L59.4,31.5L59.4,31.5z"/>
			<path d="M55.1,23.2c0,0.1-0.2,0.1-0.3,0.2c-0.2,0-0.4,0.1-0.6,0.1c0,0-0.1,0-0.1,0c0.1,0.1-0.1,0.1-0.1,0.2
				c0,0.1-0.2,0.1-0.3,0.1c-0.1,0-0.2,0-0.3,0.1c0,0-0.1,0.1-0.2,0.1c-0.2,0-0.3,0.2-0.4,0.3c-0.1,0.1-0.2,0.1-0.3,0.2
				c-0.2,0.1-0.4,0.3-0.5,0.4c-0.1,0.2-0.3,0.4-0.4,0.6c-0.2,0.3-0.3,0.6-0.4,1c0,0.1-0.1,0.2-0.1,0.3l0,0.1c0,0.2,0.1,0.3,0.1,0.5
				c0.1,0.2,0,0.4,0.1,0.6c0,0,0,0.1,0,0.1c0.1,0.4,0.2,0.7,0.3,1.1c0,0.1,0,0.1,0,0.2c0.1,0.3,0.3,0.6,0.4,0.9
				c0.1,0.2,0.2,0.4,0.3,0.5c0.1,0.2,0.2,0.3,0.4,0.4c0.1,0.1,0.2,0.2,0.3,0.2c0.2,0.2,0.4,0.3,0.6,0.4c0.2,0.2,0.3,0.3,0.5,0.3
				c0,0,0.1,0,0.1,0.1c0,0,0.1,0.1,0.1,0.1c0.3,0,0.6,0.2,0.9,0.2c0.4,0,0.7,0.1,1.1,0c0.3,0,0.6-0.1,0.8-0.1c0.4,0,0.8-0.1,1.1-0.3
				c0.2-0.1,0.5-0.3,0.7-0.6c0.1-0.1,0.1-0.1,0.2-0.2l0,0l0,0l0,0c0-0.1,0-0.1,0.1-0.2c0.3-0.5,0.5-1,0.7-1.6c0.1-0.1,0-0.3,0.1-0.4
				c0.1-0.6,0.2-1.2,0.1-1.8c0-0.2,0-0.3,0-0.5c0,0,0,0,0-0.1c-0.1-0.2-0.1-0.4-0.2-0.6c-0.3-0.8-0.7-1.5-1.3-2
				c-0.3-0.3-0.7-0.5-1.1-0.6c-0.1,0-0.2-0.1-0.3-0.2c-0.2-0.1-0.2-0.1-0.1-0.2l0,0l0,0c-0.4-0.1-0.7-0.1-1.1-0.2
				c-0.1,0-0.1,0-0.1-0.1c0,0,0,0-0.1,0c-0.1-0.1-0.1-0.1,0.1-0.2c0,0,0.1,0,0.1,0c0,0-0.1,0-0.1,0c-0.1,0-0.2,0-0.3,0
				c-0.2,0-0.4,0.1-0.6,0.1c-0.1,0-0.2,0-0.2,0c0-0.1,0-0.1,0.2-0.2c0.2-0.1,0.3-0.1,0.5-0.1c0,0,0.1,0,0.1,0l0,0
				c0.2-0.1,0.4,0,0.5-0.1c0.1,0,0.1,0,0.1-0.1c0-0.1,0.1-0.1,0.4-0.1c0.7,0.1,1.5,0.3,2.1,0.7c0.2,0.2,0.5,0.3,0.7,0.6
				c0.1,0.1,0.3,0.2,0.4,0.3c0.6,0.7,1,1.5,1.2,2.4c0.2,0.8,0.3,1.6,0.2,2.4c0,0.5-0.1,1-0.3,1.4c-0.3,0.9-0.6,1.7-1.3,2.4
				c-0.2,0.2-0.4,0.4-0.7,0.6c-0.4,0.3-0.9,0.4-1.3,0.4c-0.6,0.1-1,0.1-1.6,0.2c-0.5,0-1.1-0.1-1.6-0.2c-0.4-0.1-0.7-0.2-1.1-0.4
				c-0.2-0.1-0.4-0.2-0.6-0.4c-0.1-0.1-0.3-0.2-0.5-0.4C52.3,32,52,31.9,52,31.6c-0.1-0.1-0.2-0.2-0.3-0.3c-0.2-0.2-0.3-0.4-0.4-0.6
				c-0.1-0.1,0-0.1,0-0.2c0-0.1,0-0.1-0.1-0.2c-0.1,0-0.2-0.2-0.2-0.4c0-0.1,0-0.1-0.1-0.2c-0.1-0.1-0.1-0.1-0.1-0.3
				c0,0,0-0.1,0-0.1c-0.2-0.1-0.2-0.4-0.2-0.6c0,0,0-0.1,0-0.1c0.1,0,0-0.1,0-0.2c-0.1-0.1-0.1-0.3-0.2-0.5c0-0.3-0.1-0.5-0.1-0.8
				c0-0.3,0-0.6,0.1-0.9c0.2-0.8,0.5-1.5,0.9-2.1c0.3-0.4,0.7-0.7,1-0.9c0.3-0.2,0.6-0.3,0.9-0.4c0.3-0.1,0.6-0.2,1-0.3
				c0.1,0,0.2-0.1,0.3,0c0.1,0,0.2,0.1,0.1,0.1c0,0.1-0.1,0.1-0.2,0.2c-0.2,0.1-0.4,0.2-0.7,0.3c-0.2,0.1-0.5,0.2-0.7,0.3
				c-0.2,0.1-0.4,0.2-0.6,0.3c0,0-0.1,0-0.1,0.1c0,0-0.1,0.1-0.1,0.1c0,0,0.1,0,0.1,0c0.4-0.3,0.9-0.4,1.4-0.6
				c0.3-0.1,0.6-0.1,0.9-0.2c0.1,0,0.1,0,0.2,0C55,23.1,55.1,23.1,55.1,23.2z M55.8,22.4C55.8,22.4,55.8,22.4,55.8,22.4
				C55.8,22.5,55.8,22.5,55.8,22.4C55.8,22.5,55.8,22.4,55.8,22.4z M56.1,23L56.1,23L56.1,23L56.1,23z M57.3,23.3
				C57.3,23.3,57.3,23.3,57.3,23.3L57.3,23.3z"/>
		</g>
	</g>
</g>
<g>
	<g>
		<g>
			<path d="M57,27L57,27L57,27z"/>
			<path d="M53.5,32.2c0,0-0.1-0.1,0-0.2c0.1,0,0.1-0.1,0.2-0.1c0,0,0,0,0,0c-0.1,0,0-0.1-0.1-0.1c-0.1-0.1,0-0.1,0-0.1
				c0,0,0.1,0,0.1-0.1c0,0,0,0,0-0.1c0.1,0,0.1-0.1,0.1-0.2c0,0,0-0.1,0.1-0.1c0.1-0.1,0.2-0.3,0.4-0.4c0.1-0.1,0.1-0.2,0.2-0.3
				c0,0,0.1,0,0.1-0.1l0,0c0-0.1,0-0.2,0.1-0.2c0-0.1,0.1-0.1,0.1-0.2c0,0,0,0,0,0c0.1-0.1,0.2-0.2,0.2-0.3c0,0,0,0,0.1,0
				c0.1-0.1,0.1-0.2,0.2-0.3c0.1,0,0.1-0.1,0.1-0.2c0-0.1,0.1-0.1,0.1-0.2c0,0,0.1-0.1,0.1-0.1c0-0.1,0.1-0.2,0.1-0.2
				c0.1,0,0.1-0.1,0.1-0.2c0,0,0,0,0,0c0,0,0.1,0,0.1,0c0-0.1,0.1-0.2,0.2-0.3c0-0.1,0.2-0.2,0.2-0.3c0-0.1,0.1-0.2,0.1-0.2
				c0.1-0.1,0.2-0.2,0.2-0.4c0-0.1,0.1-0.2,0.2-0.3c0,0,0,0,0.1,0l0,0l0,0l0,0c0,0,0-0.1,0-0.1c0.1-0.1,0.2-0.4,0.3-0.5
				c0,0,0-0.1,0.1-0.1c0.1-0.2,0.2-0.3,0.3-0.6c0-0.1,0.1-0.1,0.1-0.1c0,0,0,0,0,0c-0.1-0.1,0-0.2,0.1-0.2c0.1-0.3,0.3-0.5,0.4-0.8
				c0.1-0.2,0.1-0.3,0.2-0.4c0,0,0.1-0.1,0.1-0.1c0.1-0.1,0.1-0.1,0.2,0l0,0l0,0c0.1-0.1,0.1-0.2,0.3-0.3c0,0,0,0,0.1,0c0,0,0,0,0,0
				c0.1,0,0.1,0,0.1,0.1c0,0,0,0,0,0.1c0,0,0,0,0,0c0,0,0.1,0,0.1-0.1c0.1,0,0.1-0.1,0.2-0.1c0,0,0.1,0,0.1,0c0.1,0,0.1,0.1,0.1,0.1
				c0,0,0,0.1-0.1,0.1c0,0,0,0,0,0l0,0c0,0.1-0.1,0.1,0,0.2c0,0,0,0,0,0.1c0.1,0.1,0.1,0.1,0.1,0.2L59.5,25c0,0.1-0.1,0.1-0.2,0.2
				c0,0,0,0.1-0.1,0.1c-0.1,0.2-0.3,0.4-0.5,0.7l-0.4,0.6c-0.1,0.1-0.1,0.3-0.2,0.4c-0.2,0.2-0.3,0.5-0.5,0.7c0,0.1-0.1,0.1-0.1,0.2
				c-0.1,0.1-0.2,0.2-0.2,0.3c-0.1,0.2-0.2,0.3-0.3,0.4c-0.1,0.1-0.2,0.3-0.3,0.4c-0.1,0.1-0.1,0.2-0.2,0.3c0,0.1-0.1,0.1-0.1,0.2
				c0,0-0.1,0.1-0.1,0.2c0,0.1,0,0.2-0.1,0.2c0,0.1,0,0.1,0,0.1c0,0.1-0.1,0.1-0.1,0.2c0,0-0.1,0-0.1,0c0,0-0.1,0,0,0.1
				c0.1,0.1,0,0.1-0.1,0.1c0,0,0,0,0,0c0,0.1,0,0.1,0,0.1c0,0,0,0,0,0c0.1,0.1-0.1,0.1-0.1,0.2c0,0,0,0,0,0c-0.1,0-0.1,0,0,0
				c0,0.1,0,0.1,0,0.2c-0.1,0.1-0.2,0.3-0.3,0.4c-0.2,0.2-0.3,0.4-0.4,0.5c-0.1,0.1-0.1,0.2-0.2,0.3c0,0.1-0.1,0.2-0.2,0.2
				c-0.1,0-0.1,0.1-0.2,0.2c0,0,0,0.1-0.1,0.1c0,0-0.1,0-0.1-0.1c0,0-0.1-0.1,0-0.1c0-0.1,0.1-0.1,0.1-0.2c0-0.1,0.1-0.1,0.1-0.2
				l0.1-0.2c0,0,0,0,0,0c0,0,0,0,0-0.1c0,0,0,0,0,0c-0.1,0.1-0.2,0.3-0.3,0.4c-0.1,0.1-0.1,0.1-0.2,0.2c0,0,0,0,0,0
				C53.7,32.3,53.6,32.3,53.5,32.2z M59.7,24C59.7,24,59.7,24,59.7,24C59.7,24,59.7,24,59.7,24C59.7,24,59.7,24,59.7,24z M59.2,23.8
				L59.2,23.8L59.2,23.8L59.2,23.8z M58.8,24.1L58.8,24.1L58.8,24.1z"/>
		</g>
	</g>
</g>
<g>
	<g>
		<g>
			<path d="M58.6,22C58.6,22,58.6,22,58.6,22C58.6,22,58.6,22,58.6,22z"/>
			<path d="M59,24.1C59,24.1,58.9,24.1,59,24.1C59,24,58.9,24,59,24.1c0-0.1,0-0.1-0.1-0.1c-0.1,0-0.1,0-0.1,0c-0.1,0,0,0,0,0
				c0,0,0,0,0,0c0,0,0,0,0,0c0.1,0,0,0-0.1-0.1c0,0,0,0,0,0c0-0.1,0-0.1,0-0.2c0,0,0-0.1,0-0.1c0,0,0.1,0,0,0c0,0,0,0,0,0
				c0,0-0.1,0,0-0.1c-0.1,0,0.1-0.1,0-0.1c0,0,0,0,0,0c0,0,0-0.1,0-0.1c0,0,0,0,0,0c0,0-0.1-0.1,0-0.1c0,0,0-0.1,0-0.1
				c0,0,0,0,0-0.1c0,0,0,0,0,0c0,0-0.1-0.1,0-0.1c0,0,0.1-0.1,0-0.1c0,0,0,0,0,0c0,0,0,0,0,0c-0.1,0,0-0.1-0.1-0.1
				c-0.1,0,0-0.1,0-0.1c0,0,0-0.1,0-0.1c0,0,0-0.1,0-0.1c0,0,0-0.1,0-0.1c0,0,0,0,0,0c0,0,0,0,0,0c0,0,0,0,0,0c0,0,0,0,0,0
				c0,0,0,0,0,0c0-0.1-0.1-0.1,0-0.2c0,0,0,0,0,0c0-0.1,0-0.1-0.1-0.2c0,0,0,0,0-0.1c0,0,0,0,0,0c-0.1,0-0.1,0-0.1-0.1
				c0-0.1-0.1-0.2-0.1-0.3c0,0-0.1-0.1-0.1-0.1c0,0,0,0,0-0.1c0,0,0,0,0.1,0c0,0,0,0,0,0c0,0,0,0,0,0c0,0,0-0.1,0.1-0.2
				c0,0,0,0,0.1,0c0,0,0,0,0,0c0.1,0,0.1,0,0.2,0c0,0,0,0,0,0c0,0,0,0,0,0c0,0,0,0,0,0c0,0,0,0,0-0.1c0,0,0,0,0.1,0
				c0.1,0,0.1,0,0.1,0c0,0,0,0,0,0c0,0,0,0,0,0c0,0,0,0,0,0c0,0,0,0,0.1,0c0,0,0,0,0.1,0c0.1,0,0.1,0,0.2,0c0,0.1,0,0.1,0.1,0.2
				c0,0,0,0.1,0,0.1c0,0,0,0,0,0c0,0.1,0,0.2,0,0.3c0,0.1,0,0.2,0.1,0.2c0,0,0,0.1,0.1,0.1c0,0.1,0.1,0.2,0,0.3c0,0,0,0,0,0.1
				c0,0,0,0.1,0,0.1c0,0.1,0,0.1,0,0.2c0,0.1,0,0.1,0,0.1c0,0,0,0.1,0,0.1c0,0,0,0,0,0.1c0,0,0,0,0,0.1c0,0,0.1,0,0,0.1c0,0,0,0,0,0
				c0,0,0,0,0,0.1c0,0,0,0-0.1,0c0,0-0.1,0,0,0c0.1,0,0.1,0,0,0c0,0,0,0,0,0c0.1,0,0.1,0,0,0c0,0,0,0,0,0c0.1,0,0,0,0.1,0.1
				c0,0,0,0,0,0c-0.1,0-0.1,0,0,0c0.1,0,0.1,0,0.1,0c0,0.1,0,0.1,0,0.2c0,0.1,0,0.1,0,0.2c0,0,0,0.1,0,0.1c0,0,0,0.1,0,0.1
				c-0.1,0,0,0.1,0,0.1c0,0,0,0,0,0c0,0-0.1,0-0.1,0c-0.1,0-0.1,0-0.1,0c0,0,0,0-0.1-0.1c0,0,0,0,0-0.1c0,0,0,0,0-0.1c0,0,0,0,0,0
				c0,0,0,0-0.1,0c0,0,0,0,0,0c0,0.1,0,0.1,0,0.2c0,0,0,0.1,0,0.1c0,0,0,0,0,0C59.2,24,59.1,24,59,24.1z M59,20.6
				C59,20.6,59,20.6,59,20.6C59,20.6,58.9,20.6,59,20.6C58.9,20.6,58.9,20.6,59,20.6z M58.4,20.8C58.4,20.8,58.4,20.8,58.4,20.8
				C58.4,20.8,58.4,20.8,58.4,20.8C58.4,20.8,58.4,20.8,58.4,20.8z M58.3,20.9C58.3,20.9,58.3,20.9,58.3,20.9L58.3,20.9z"/>
		</g>
	</g>
</g>
<g>
	<g>
		<g>
			<path d="M60,18.7L60,18.7L60,18.7z"/>
			<path d="M61.6,18.4C61.5,18.4,61.5,18.5,61.6,18.4C61.5,18.5,61.5,18.5,61.6,18.4C61.5,18.4,61.5,18.4,61.6,18.4
				c0,0.1,0,0.1,0,0.1c0,0,0,0,0,0c0,0,0,0,0,0c0,0,0,0,0,0c-0.1,0-0.1,0-0.1,0.1c0,0,0,0-0.1,0c0,0-0.1,0-0.2,0c0,0-0.1,0-0.1,0
				c-0.1,0,0,0-0.1,0c0,0,0,0,0,0l0,0c0,0,0,0,0,0c0,0,0,0,0,0c0,0,0,0,0,0c0,0,0,0,0,0c0,0,0,0,0,0c0,0,0,0,0,0c0,0,0,0,0,0.1
				c0,0.1-0.1,0.1-0.1,0.1c0,0,0,0-0.1,0c0,0-0.1,0.1-0.1,0.1c0,0-0.1,0-0.1,0c0,0,0,0,0,0c0,0,0,0,0,0c-0.1,0-0.1,0-0.2,0
				c0,0,0,0,0,0c-0.1,0-0.1-0.1-0.1-0.1c0,0-0.1-0.1-0.1-0.1c0,0,0-0.1,0,0c0,0,0,0.1,0,0.1c0,0,0,0,0,0c0,0,0-0.1,0-0.1
				c0,0,0,0,0,0l0,0l0,0l0,0c0,0,0,0,0,0c0,0-0.1,0.2-0.2,0.2c0,0,0,0,0,0c0,0,0,0,0,0c-0.1,0-0.2,0-0.3,0c0,0,0,0-0.1,0
				c0,0,0,0,0,0c0,0-0.1,0-0.1,0c-0.1,0-0.1,0-0.1,0l0,0c0,0,0,0,0,0c0,0,0,0,0,0c0,0,0,0-0.1-0.1l0,0l0,0c0,0,0,0-0.1,0.1
				c0,0,0,0,0,0l0,0c-0.1,0-0.1,0-0.1-0.1c0,0,0,0,0,0c0,0,0,0,0,0c0,0,0,0-0.1,0c0,0-0.1,0-0.1,0c0,0,0,0,0,0c0,0,0,0,0-0.1
				c0,0,0,0,0,0l0,0l0,0c0,0,0,0,0,0c0,0,0,0,0,0c0,0-0.1,0-0.1-0.1c0-0.1,0.1-0.2,0.2-0.3c0,0,0.1,0,0.1,0l0,0c0,0,0.1,0,0.1,0
				c0.2,0,0.3,0.1,0.4,0.1c0.1,0,0.1,0,0.1,0c0,0,0,0,0,0l0,0c0,0-0.1,0,0.2-0.2c0.1,0,0.1,0,0.2,0c0.1,0,0.2,0,0.3,0.1
				c0.1,0.1,0.1,0.1,0.1,0.1l0,0l0,0l0,0c0,0,0,0,0,0c0,0,0,0,0,0c0,0,0,0,0,0s0,0,0,0l0,0c0.1,0,0.1,0.1,0.1,0.1c0,0,0,0,0,0l0,0
				l-0.2-0.1l0,0l0,0l0,0l0,0c0,0,0-0.1,0-0.1c0,0,0,0,0,0c0,0,0,0,0,0c0,0,0-0.1,0-0.1c0,0,0,0,0,0c0,0,0,0,0,0c0,0,0,0,0,0
				c0-0.1,0.1-0.1,0.1-0.1c0,0,0,0,0,0c0,0,0,0,0,0c0,0,0,0,0.1-0.1c0.1,0,0.2,0,0.3,0c0.1,0,0.1,0,0.1,0c0,0,0,0,0,0l0,0
				c0,0,0,0,0,0l0,0c0,0,0,0,0,0c0,0,0,0,0,0c0.1,0,0.1,0,0.2,0c0,0,0,0,0.1,0c0,0,0,0,0,0.1c0,0,0,0.1,0,0.1c0,0-0.1,0-0.1,0.1
				c0,0,0,0-0.1,0l0,0c0,0,0,0-0.1,0l0,0c0,0,0,0,0,0c0,0,0,0,0,0c0,0,0,0,0.1,0c0,0,0.1,0,0.1,0c0,0,0.1,0,0.1,0
				C61.5,18.3,61.6,18.3,61.6,18.4C61.6,18.3,61.6,18.4,61.6,18.4z M58.7,18.8L58.7,18.8L58.7,18.8L58.7,18.8z M58.9,19L58.9,19
				L58.9,19L58.9,19z M59,18.9L59,18.9L59,18.9z"/>
		</g>
	</g>
</g>
<g>
	<g>
		<g>
			<polygon points="54.4,31.3 54.4,31.3 54.4,31.3 			"/>
			<polygon points="54.3,31.3 54.3,31.3 54.3,31.3 			"/>
			<path d="M56,31.8c0,0.1,0.1,0.2,0,0.2c-0.1,0-0.2,0-0.3,0l0,0l0,0l0,0c-0.1,0-0.1,0.1-0.1,0.1c-0.1,0-0.2,0.1-0.3,0
				c-0.1,0-0.2,0-0.3,0c-0.1,0-0.2,0-0.4,0.1c-0.2,0.1-0.4,0.2-0.5,0.2c-0.1,0-0.2,0-0.4,0c0,0-0.1,0-0.1,0c0,0-0.1,0.1-0.1-0.1
				c0,0,0-0.1,0,0c0,0,0,0,0-0.1c0-0.1,0-0.2,0-0.3c0-0.1,0-0.2-0.1-0.2l0,0c0-0.1,0-0.1,0-0.2c-0.1-0.1,0-0.2,0-0.3
				c0-0.3,0.1-0.4,0-0.6c0-0.1-0.1-0.1-0.1-0.2l0,0c0-0.1,0.2-0.1,0.4-0.1c0.2,0,0.4,0,0.4,0c0.1,0.1,0.1,0.2,0.2,0.3
				c0,0.1,0,0.2,0,0.2c0,0,0,0.1,0,0.1l0,0c0,0,0,0,0,0l0,0c-0.1,0,0,0,0,0.1c0,0,0,0-0.1,0.1c0,0,0,0,0,0l0,0.1l0,0l0,0
				c-0.1,0.1,0,0,0,0l0,0c0,0,0,0,0,0c0,0,0,0,0,0c0.1-0.1,0,0,0,0c0,0,0,0,0,0l0,0l0,0l0,0l0,0c0,0,0,0,0,0l0,0l0,0l0,0l0,0l0,0
				l0,0c0,0,0-0.1,0,0l0,0l0,0l0,0c0,0,0,0,0,0l0,0l0,0l0,0c0,0,0,0,0,0.1l0,0c0,0,0,0,0,0l0,0l0,0l0,0l0,0c0,0,0,0,0,0
				c0,0.1,0-0.1,0,0l0,0l0,0l0,0c0,0,0,0,0.1,0l0,0c0.1,0.1,0.2,0,0.2,0c0.1,0,0.1-0.1,0.2-0.1c0,0,0.1,0,0.1-0.1l0,0c0,0,0,0,0,0
				l0,0l0,0c0,0,0.1,0,0.1,0c0-0.1,0.1-0.1,0.1-0.1c0.1,0,0.1-0.1,0.2-0.1c0,0,0,0,0.1-0.1c0,0,0,0,0.1,0.1c0.1,0.2,0.1,0.3,0.1,0.2
				c0,0,0.1,0,0.1,0.2c0,0.1,0,0.1,0,0.1C55.9,31.5,55.9,31.7,56,31.8z M54.3,31.4L54.3,31.4L54.3,31.4L54.3,31.4z M54.3,31.4
				L54.3,31.4L54.3,31.4L54.3,31.4z M54.4,31.3L54.4,31.3L54.4,31.3L54.4,31.3z M54.4,31.3L54.4,31.3L54.4,31.3L54.4,31.3z
				 M55.1,31.2L55.1,31.2L55.1,31.2L55.1,31.2z"/>
		</g>
	</g>
</g>
<g>
	<g>
		<g>
			<polygon points="59.4,24.1 59.4,24.1 59.4,24.1 			"/>
			<polygon points="59.3,23.7 59.3,23.7 59.3,23.7 			"/>
			<path d="M59,26.2c-0.1,0-0.2,0-0.2,0c0-0.1,0.1-0.2,0-0.2l0,0l0,0l0,0c0-0.1-0.1-0.1-0.1-0.1c0-0.1-0.1-0.2,0-0.3
				c0-0.1,0-0.2,0-0.3c0-0.1,0-0.1,0-0.2c0,0,0,0,0,0c0,0-0.1,0-0.1,0c0,0,0-0.1,0-0.1c0,0,0,0,0,0c0,0,0,0,0-0.1c0-0.1,0,0,0,0
				c0,0,0,0-0.1,0c0,0,0,0-0.1,0.1l0,0c0,0,0,0,0,0c-0.1,0.1-0.1,0-0.2,0c-0.2,0-0.4,0-0.6,0c-0.1,0-0.1,0.1-0.2,0.1l0,0
				c-0.1,0-0.1-0.2-0.1-0.4c0-0.2,0-0.4,0-0.4c0.1-0.1,0.2-0.2,0.2-0.2c0.1,0,0.2,0,0.2,0c0,0,0.1,0,0.1,0l0,0c0,0,0,0,0,0l0,0
				c0.1,0.1,0.1,0,0.2,0c0,0,0.1,0,0.1,0c0,0,0,0,0.1,0l0.4-0.1c0,0,0.1,0,0.1,0l0,0c0,0,0.1,0,0.1,0c0,0,0,0,0.1,0c0,0,0.1,0,0.1,0
				c0.1-0.1,0.1-0.1,0.2,0c0,0,0,0,0,0l0,0l0.1,0l0,0l0,0c0,0,0,0,0.1,0c0,0,0,0,0,0l0,0.1l0,0l0,0l0,0l0,0l0,0
				c0,0.1,0.1,0.1,0.1,0.2l0,0l0,0.1l0,0c0,0,0,0,0,0l0,0l0,0l0,0c0,0,0,0.1,0,0.1l0,0c0,0,0,0,0,0l0,0l0,0l0,0.1l0,0c0,0,0,0,0,0.1
				c0,0,0.1,0,0,0l0,0l0,0l0,0l0.1,0.3l0,0c-0.1,0.1,0,0.2,0,0.2c0,0.1,0.1,0.1,0.1,0.2c0,0,0,0.1,0,0.1l0,0c0,0,0,0,0,0l0,0l0,0
				c0,0,0,0.1,0,0.1c0.1,0,0.1,0.1,0.1,0.1c0,0.1,0.1,0.1,0.1,0.2c0,0,0,0,0.1,0.1c0,0,0,0-0.1,0.1c-0.2,0-0.3,0.1-0.2,0.1
				c0,0,0,0.1-0.2,0.1c-0.1,0-0.1,0-0.1,0C59.3,26.1,59.1,26.1,59,26.2z M59.2,23.8L59.2,23.8L59.2,23.8L59.2,23.8z M59.3,24
				L59.3,24L59.3,24L59.3,24z M59.4,24.2L59.4,24.2L59.4,24.2L59.4,24.2z M59.5,24.4L59.5,24.4L59.5,24.4L59.5,24.4z M59.7,25.3
				L59.7,25.3L59.7,25.3L59.7,25.3z"/>
		</g>
	</g>
</g>
<g>
	<g>
		<g>
			<g>
				<path d="M92.5,47c0.4-0.1,0.7-0.1,1.1-0.2c1-0.2,2.1-0.3,3.2-0.4c1.1-0.1,2.2-0.3,3.4-0.4c0.8-0.1,1.7-0.2,2.5-0.1
					c0.2,0,0.3,0,0.5-0.1c0.1,0,0.2,0,0.2,0.1c0.1,0.3,0.2,0.6,0.1,0.9c0,0.1-0.1,0.2-0.2,0.2c-0.9,0.1-1.8,0.1-2.8,0.2
					c-0.4,0-0.9,0-1.3,0.1c-0.8,0.1-1.5,0.2-2.3,0.3c-1.2,0.2-2.4,0.5-3.6,0.6c-0.8,0.1-1.6,0.2-2.4,0.3c-0.6,0.1-1.1,0.2-1.7,0.3
					c-0.9,0.2-1.8,0.4-2.6,0.6c-0.3,0.1-0.2-0.2,0,1c0.2,0.8,0.3,1.6,0.6,2.4c0,0.1,0,0.2,0.1,0.3l0,0l0,0.1l0,0
					c0,0.3,0.1,0.7,0.2,1c0.1,0.7,0.3,1.4,0.2,2.1c0,0.3,0,0.7,0.1,1.1c0.1,0.3,0,0.6,0.1,0.9c0.1,0.4-0.1,0.3-0.3,0.4
					c-0.1,0-0.1,0-0.2,0c-0.2-0.1-0.3-0.2-0.6-0.2c-0.1,0-0.1-0.2-0.1-0.2c-0.2-1.6-0.3-3.1-0.6-4.7c-0.2-1.1-0.5-2.1-0.7-3.1
					l-0.3-1.1c-0.1-0.3-0.2-0.5-0.2-0.7l0.8-0.1l1.2-0.2c0.3-0.1,0.5-0.1,0.8-0.2c0.6-0.2,1.3-0.3,1.9-0.3c0.7-0.1,1.3-0.2,2-0.3
					C91.7,47.2,92.1,47.1,92.5,47L92.5,47z"/>
			</g>
		</g>
	</g>
	<g>
		<g>
			<g>
				<polygon points="95.8,50.1 95.8,50.1 95.8,50.1 				"/>
				<polygon points="95,50.2 95,50.2 95,50.2 				"/>
				<path d="M100.9,50c0,0.1,0,0.2,0,0.2c-0.2,0.1-0.5,0-0.8,0.1l0,0l0,0l0,0c-0.2,0-0.3,0.1-0.5,0.1c-0.3,0-0.6,0.2-0.9,0.2
					c-0.3,0-0.6,0.1-1,0.2c-0.4,0-0.8,0.1-1.1,0.2c-0.3,0.1-0.6,0.2-1,0.2c-0.2,0-0.5,0-0.7,0c-0.1,0-0.2,0-0.2,0
					c-0.1,0-0.2,0-0.3-0.1c-0.1-0.1-0.2,0-0.3,0c-0.2,0-0.3,0-0.5,0c-0.2,0-0.3,0-0.5,0.1l0,0c-0.1,0-0.2,0-0.3,0
					c-0.2,0.1-0.4,0-0.6,0c-0.5,0-0.9,0.2-1.4,0.6c-0.2,0.1-0.4,0.3-0.7,0.4l0,0c-0.2,0-0.4-0.2-0.4-0.4c0-0.2,0.1-0.4,0.2-0.4
					c0.1,0,0.3-0.2,0.5-0.3c0.2-0.1,0.4-0.2,0.7-0.4c0.1-0.1,0.3-0.1,0.5-0.2l0,0c0,0,0,0,0,0l0,0c0.2,0,0.4-0.1,0.7-0.1
					c0.1,0,0.2,0,0.3,0c0.1,0,0.2,0,0.3,0l0.8,0l0.2,0l0,0c0.1,0,0.1,0,0.2,0c0,0,0.1,0,0.1,0c0.1,0,0.1,0,0.2,0
					c0.1-0.1,0.2,0,0.4,0c0,0,0,0,0,0l0,0l0.1,0l0,0l0,0c0.1,0,0.2,0,0.3-0.1l0,0l0,0l0,0l0,0l0,0l0,0c0.1,0,0.3-0.1,0.4-0.1l0,0
					l0.2,0l0,0c0,0,0,0,0,0l0,0l0,0l0,0c0.1,0,0.1,0,0.2,0l0,0c0,0,0,0,0,0l0,0l0,0l0.2-0.1l0,0c0,0,0.1-0.1,0.1,0
					c0,0.1,0.1-0.1,0.1,0l0,0l0,0l0,0l0.5-0.1l0,0c0.2,0.1,0.5,0,0.7-0.1c0.2-0.1,0.5-0.1,0.7-0.2c0.1,0,0.2-0.1,0.3-0.1l0,0
					c0,0,0,0,0,0l0,0l0,0c0.1,0,0.2,0,0.2-0.1c0.1-0.1,0.2-0.1,0.3-0.1c0.2-0.1,0.5-0.1,0.7-0.2c0.1,0,0.1-0.1,0.2-0.1
					c0.1,0,0.1,0,0.1,0.1c0.1,0.2,0.1,0.3,0.2,0.2c0.1,0,0.2-0.1,0.2,0.2c0,0.1,0,0.1,0.1,0.1C100.8,49.7,100.9,49.9,100.9,50z
					 M94.7,50.3L94.7,50.3L94.7,50.3L94.7,50.3z M95.5,50.2L95.5,50.2L95.5,50.2L95.5,50.2z M95.8,50.2L95.8,50.2L95.8,50.2
					L95.8,50.2z M96.2,50.1L96.2,50.1L96.2,50.1L96.2,50.1z M98.6,49.6L98.6,49.6L98.6,49.6L98.6,49.6z"/>
			</g>
		</g>
	</g>
	<g>
		<g>
			<g>
				<polygon points="93.5,52.4 93.5,52.4 93.5,52.4 				"/>
				<polygon points="93.2,52.5 93.2,52.5 93.2,52.5 				"/>
				<path d="M95.9,52.8c0,0.1,0,0.2,0,0.2c-0.1,0-0.2,0-0.4,0l0,0l0,0l0,0c-0.1,0-0.1,0.1-0.2,0.1c-0.1,0-0.3,0.1-0.4,0
					c-0.2,0-0.3,0-0.4,0c-0.2,0-0.3,0-0.5,0.1c-0.1,0-0.3,0.1-0.4,0.1c-0.1,0-0.2,0-0.3,0c0,0-0.1,0-0.1,0c0,0-0.1,0-0.1-0.1
					c-0.1-0.1-0.1,0-0.2,0c-0.1,0-0.1,0-0.2,0c-0.1,0-0.2,0-0.2,0.1l0,0c0,0-0.1,0-0.1,0c-0.1,0.1-0.2,0-0.3,0c-0.3,0-0.5,0-0.8,0
					c-0.1,0-0.2,0.1-0.3,0.1l0,0c-0.1,0-0.1-0.2-0.2-0.4c-0.1-0.2-0.1-0.4,0-0.4c0.1-0.1,0.2-0.2,0.4-0.2c0.1,0,0.2,0,0.4,0
					c0.1,0,0.1,0,0.2,0l0,0c0,0,0,0,0,0l0,0c0.1,0.1,0.2,0,0.3,0c0,0,0.1,0,0.1,0.1c0,0,0.1,0,0.1,0l0.3,0c0,0,0.1,0,0.1,0l0,0
					c0,0,0.1,0,0.1,0c0,0,0,0,0.1,0c0,0,0.1,0,0.1,0c0-0.1,0.1,0,0.2,0c0,0,0,0,0,0l0,0l0,0l0,0l0,0c0,0,0.1,0,0.1,0l0,0l0,0l0,0
					l0,0l0,0l0,0c0.1,0,0.1-0.1,0.2,0l0,0l0.1,0l0,0c0,0,0,0,0,0l0,0l0,0l0,0c0,0,0,0,0.1,0l0,0c0,0,0,0,0,0l0,0l0,0l0.1,0l0,0
					c0,0,0,0,0.1,0c0,0.1,0-0.1,0,0l0,0l0,0l0,0l0.2-0.1l0,0c0.1,0.1,0.2,0,0.3,0c0.1,0,0.2-0.1,0.3-0.1c0,0,0.1,0,0.1-0.1l0,0
					c0,0,0,0,0,0l0,0l0,0c0,0,0.1,0,0.1,0c0-0.1,0.1-0.1,0.1-0.1c0.1,0,0.2-0.1,0.3-0.1c0,0,0.1,0,0.1-0.1c0,0,0,0,0.1,0.1
					c0.1,0.2,0.1,0.3,0.1,0.2c0,0,0.1,0,0.1,0.2c0,0.1,0,0.1,0,0.1C95.9,52.5,95.9,52.7,95.9,52.8z M93,52.5L93,52.5L93,52.5
					L93,52.5z M93.4,52.5L93.4,52.5L93.4,52.5L93.4,52.5z M93.5,52.4L93.5,52.4L93.5,52.4L93.5,52.4z M93.7,52.4L93.7,52.4
					L93.7,52.4L93.7,52.4z M94.8,52.2L94.8,52.2L94.8,52.2L94.8,52.2z"/>
			</g>
		</g>
	</g>
	<g>
		<g>
			<g>
				<polygon points="99.6,51.4 99.6,51.4 99.6,51.4 				"/>
				<polygon points="99.4,51.5 99.4,51.5 99.4,51.5 				"/>
				<path d="M101.1,52c0,0.1,0.1,0.2,0,0.2c-0.1,0-0.1-0.1-0.2-0.1l0,0c0,0,0,0,0,0l0,0c0,0-0.1,0.1-0.1,0c-0.1,0-0.1,0.1-0.2,0
					c-0.1,0-0.2,0-0.2,0c-0.1,0-0.2,0-0.3,0.1c-0.1,0-0.1,0.1-0.2,0.1c-0.1,0-0.1,0-0.2,0c0,0,0,0-0.1,0c0,0,0,0-0.1-0.1
					c0-0.1-0.1,0-0.1,0c0,0-0.1,0-0.1,0c0,0-0.1,0-0.1,0.1l0,0c0,0-0.1,0-0.1,0c0,0.1-0.1,0-0.2,0c-0.2,0-0.3,0-0.4,0.1
					c-0.1,0-0.1,0.1-0.1,0.1l0,0c0,0-0.1-0.2-0.2-0.4c-0.1-0.2-0.1-0.4-0.1-0.4c0.1-0.1,0.1-0.2,0.2-0.2c0.1,0,0.1,0,0.2,0
					c0,0,0.1,0,0.1,0l0,0c0,0,0,0,0,0l0,0c0.1,0.1,0.1,0,0.1,0c0,0,0.1,0,0.1,0c0,0,0,0,0.1,0c0.1,0,0.1,0,0.2,0c0,0,0,0,0,0l0,0
					c0,0,0,0,0.1,0c0,0,0,0,0,0c0,0,0,0,0,0c0,0,0.1,0,0.1,0c0,0,0,0,0,0l0,0c0,0,0,0,0,0c0,0,0,0,0,0c0,0,0,0,0,0c0,0,0,0,0.1,0
					c0,0,0,0,0,0c0,0,0,0,0,0c0,0,0,0,0,0c0,0,0,0,0,0c0,0,0,0,0,0c0,0,0,0,0,0c0,0,0.1-0.1,0.1,0c0,0,0,0,0,0c0,0,0,0,0.1,0l0,0
					c0,0,0,0,0,0c0,0,0,0,0,0c0,0,0,0,0,0c0,0,0,0,0,0c0,0,0,0,0.1,0c0,0,0,0,0,0c0,0,0,0,0,0c0,0,0,0,0,0c0,0,0,0,0,0c0,0,0,0,0,0
					c0,0,0,0,0,0c0,0,0,0,0,0c0,0.1,0-0.1,0,0l0,0c0,0,0,0,0,0l0,0c0,0,0.1,0,0.1,0l0,0c0.1,0.1,0.1,0,0.2,0c0.1,0,0.1-0.1,0.2-0.1
					c0,0,0,0,0.1,0c0,0,0,0,0,0c0,0,0,0,0,0c0,0,0,0,0,0l0,0c0,0,0,0,0.1,0c0-0.1,0-0.1,0.1-0.1c0.1,0,0.1-0.1,0.2-0.1
					c0,0,0,0,0-0.1c0,0,0,0,0.1,0.1c0.1,0.2,0.1,0.3,0.1,0.2c0,0,0,0,0.1,0.2c0,0.1,0,0.1,0,0.1C101,51.7,101,51.9,101.1,52z
					 M99.4,51.6C99.4,51.6,99.4,51.6,99.4,51.6C99.4,51.6,99.4,51.6,99.4,51.6C99.4,51.6,99.4,51.6,99.4,51.6z M99.6,51.5
					C99.6,51.5,99.5,51.5,99.6,51.5C99.5,51.5,99.5,51.5,99.6,51.5C99.5,51.5,99.5,51.5,99.6,51.5z M99.6,51.5
					C99.6,51.5,99.6,51.5,99.6,51.5C99.6,51.5,99.6,51.5,99.6,51.5C99.6,51.5,99.6,51.5,99.6,51.5z M99.7,51.5
					C99.7,51.5,99.7,51.5,99.7,51.5C99.7,51.5,99.7,51.5,99.7,51.5C99.7,51.5,99.7,51.5,99.7,51.5z M100.3,51.3
					C100.3,51.3,100.3,51.3,100.3,51.3C100.3,51.3,100.3,51.3,100.3,51.3C100.3,51.3,100.3,51.3,100.3,51.3z"/>
			</g>
		</g>
	</g>
	<g>
		<g>
			<g>
				<polygon points="93.8,54.2 93.8,54.2 93.8,54.2 				"/>
				<polygon points="93.4,54.3 93.4,54.3 93.4,54.3 				"/>
				<path d="M96.2,54.7c0,0.1,0,0.2,0,0.2c-0.1,0-0.2-0.1-0.3-0.1l0,0l0,0l0,0c-0.1,0-0.1,0.1-0.2,0.1c-0.1,0-0.2,0.1-0.4,0
					c-0.1,0-0.3,0-0.4,0c-0.2,0-0.3,0-0.5,0.1c-0.1,0-0.3,0.1-0.4,0.2c-0.1,0-0.2,0-0.3,0c0,0-0.1,0-0.1,0c0,0-0.1,0-0.1-0.1
					c-0.1-0.1-0.1,0-0.2,0c-0.1,0-0.1,0-0.2,0c-0.1,0-0.1,0-0.2,0.1l0,0c0,0-0.1,0-0.1,0c-0.1,0.1-0.2,0-0.3,0c-0.3,0-0.5,0-0.7,0.1
					c-0.1,0-0.2,0.1-0.3,0.2l0,0c-0.1,0-0.2-0.2-0.3-0.4C91,55.1,91,54.9,91,54.9c0.1-0.1,0.2-0.2,0.3-0.2c0.1,0,0.2,0,0.4,0
					c0.1,0,0.1,0,0.2,0l0,0c0,0,0,0,0,0l0,0c0.1,0,0.2,0,0.3,0c0,0,0.1,0,0.1,0c0,0,0.1,0,0.1-0.1l0.3-0.1c0,0,0.1,0,0.1,0l0,0
					c0,0,0.1,0,0.1,0c0,0,0,0,0.1,0c0,0,0.1,0,0.1,0c0-0.1,0.1,0,0.2,0c0,0,0,0,0,0l0,0l0,0l0,0l0,0c0.1,0,0.1,0,0.1-0.1l0,0l0,0
					l0,0l0,0l0,0l0,0c0.1,0,0.1-0.1,0.2-0.1l0,0l0.1,0l0,0c0,0,0,0,0,0l0,0l0,0l0,0c0,0,0,0,0.1,0l0,0c0,0,0,0,0,0l0,0l0,0l0.1,0
					l0,0c0,0,0-0.1,0.1,0c0,0.1,0-0.1,0,0l0,0l0,0l0,0l0.2-0.1l0,0c0.1,0.1,0.2,0,0.3,0c0.1,0,0.2-0.1,0.3-0.1c0,0,0.1,0,0.1,0l0,0
					c0,0,0,0,0,0l0,0l0,0c0,0,0.1,0,0.1,0c0-0.1,0.1-0.1,0.1-0.1c0.1,0,0.2-0.1,0.3-0.1c0,0,0.1,0,0.1-0.1c0,0,0,0,0.1,0.1
					c0,0.2,0.1,0.3,0.1,0.3c0,0,0.1,0,0.1,0.3c0,0.1,0,0.1,0,0.1C96.1,54.4,96.1,54.6,96.2,54.7z M93.3,54.4L93.3,54.4L93.3,54.4
					L93.3,54.4z M93.6,54.3L93.6,54.3L93.6,54.3L93.6,54.3z M93.8,54.2L93.8,54.2L93.8,54.2L93.8,54.2z M94,54.2L94,54.2L94,54.2
					L94,54.2z M95.1,54L95.1,54L95.1,54L95.1,54z"/>
			</g>
		</g>
	</g>
	<g>
		<g>
			<g>
				<polygon points="100,53.2 100,53.2 100,53.2 				"/>
				<polygon points="99.8,53.2 99.8,53.2 99.8,53.2 				"/>
				<path d="M101.8,53.8c0,0.1,0,0.2,0,0.2c-0.1,0-0.2-0.1-0.2-0.1l0,0c0,0,0,0,0,0l0,0c-0.1,0-0.1,0.1-0.1,0c-0.1,0-0.2,0.1-0.3,0
					c-0.1,0-0.2,0-0.3,0c-0.1,0-0.2,0-0.4,0.1c-0.1,0-0.2,0.1-0.3,0.1c-0.1,0-0.1,0-0.2,0c0,0,0,0-0.1,0c0,0-0.1,0-0.1-0.1
					c0-0.1-0.1,0-0.1,0c-0.1,0-0.1,0-0.2,0c0,0-0.1,0-0.1,0.1l0,0c0,0-0.1,0-0.1,0c-0.1,0.1-0.1,0-0.2,0c-0.2,0-0.4,0-0.5,0.1
					c-0.1,0-0.1,0.1-0.2,0.1l0,0c-0.1,0-0.1-0.2-0.2-0.4c-0.1-0.2-0.1-0.4-0.1-0.4c0.1-0.1,0.2-0.2,0.2-0.2c0.1,0,0.2,0,0.3,0
					c0,0,0.1,0,0.1,0l0,0c0,0,0,0,0,0l0,0c0.1,0.1,0.1,0,0.2,0c0,0,0.1,0,0.1,0c0,0,0,0,0.1,0c0.1,0,0.2,0,0.2,0c0,0,0,0,0.1,0l0,0
					c0,0,0,0,0.1,0c0,0,0,0,0,0c0,0,0,0,0,0c0,0,0.1,0,0.1,0c0,0,0,0,0,0l0,0c0,0,0,0,0,0c0,0,0,0,0,0c0,0,0,0,0,0c0,0,0.1,0,0.1,0
					c0,0,0,0,0,0c0,0,0,0,0,0c0,0,0,0,0,0c0,0,0,0,0,0c0,0,0,0,0,0c0,0,0,0,0,0c0,0,0.1-0.1,0.1,0c0,0,0,0,0,0c0,0,0.1,0,0.1,0l0,0
					c0,0,0,0,0,0l0,0c0,0,0,0,0,0c0,0,0,0,0,0c0,0,0,0,0.1,0c0,0,0,0,0,0c0,0,0,0,0,0c0,0,0,0,0,0c0,0,0,0,0,0c0,0,0,0,0.1,0
					c0,0,0,0,0,0c0,0,0,0,0,0c0,0.1,0-0.1,0,0l0,0c0,0,0,0,0,0l0,0c0.1,0,0.1,0,0.2,0l0,0c0.1,0.1,0.2,0,0.2,0
					c0.1,0,0.2-0.1,0.2-0.1c0,0,0.1,0,0.1,0c0,0,0,0,0,0c0,0,0,0,0,0c0,0,0,0,0,0l0,0c0,0,0.1,0,0.1,0c0-0.1,0.1-0.1,0.1-0.1
					c0.1,0,0.1-0.1,0.2-0.1c0,0,0,0,0.1-0.1c0,0,0,0,0.1,0.1c0,0.2,0.1,0.3,0.1,0.3c0,0,0.1,0,0.1,0.3c0,0.1,0,0.1,0,0.1
					C101.7,53.4,101.8,53.6,101.8,53.8z M99.7,53.3C99.7,53.3,99.7,53.3,99.7,53.3C99.7,53.3,99.7,53.3,99.7,53.3
					C99.7,53.3,99.7,53.3,99.7,53.3z M100,53.2C100,53.2,100,53.2,100,53.2C100,53.2,100,53.2,100,53.2C100,53.2,100,53.2,100,53.2z
					 M100.1,53.2C100.1,53.2,100.1,53.2,100.1,53.2C100.1,53.2,100.1,53.2,100.1,53.2C100.1,53.2,100.1,53.2,100.1,53.2z
					 M100.2,53.2C100.2,53.2,100.2,53.2,100.2,53.2C100.2,53.2,100.2,53.2,100.2,53.2C100.2,53.2,100.2,53.2,100.2,53.2z M101,53
					C101,53,101,53,101,53C101,53,101,53,101,53C101,53,101,53,101,53z"/>
			</g>
		</g>
	</g>
</g>
<g>
	<g>
		<g>
			<polygon points="34.6,34.4 34.6,34.4 34.6,34.4 			"/>
			<polygon points="33.9,32.4 33.9,32.4 33.9,32.4 			"/>
			<path d="M43.2,38.9c0,0.1,0,0.2-0.2,0.3c-0.6,0.1-1.3,0.2-1.9,0.3l0,0l0,0l0,0c-0.4,0.1-0.8,0.2-1.2,0.3
				c-0.7,0.1-1.4,0.4-2.2,0.5c-0.2,0-0.4,0.1-0.6,0.1l-0.8,0.2l-0.5,0.1c-0.1,0-0.2,0.1-0.2,0l-0.1-0.3c-0.1-0.3-0.2-0.6-0.2-0.9
				c-0.2-1-0.5-1.9-0.8-2.9c-0.3-0.8-0.6-1.6-0.9-2.4c-0.2-0.6-0.4-1.1-0.6-1.7c-0.1-0.2-0.2-0.4-0.2-0.6c-0.1-0.2-0.2-0.5-0.2-0.8
				c0-0.2-0.2-0.5-0.3-0.8c-0.2-0.4-0.3-0.8-0.5-1.1c-0.2-0.4-0.3-0.8-0.6-1.1l0,0c-0.1-0.2-0.2-0.5-0.3-0.7
				c-0.1-0.1-0.1-0.2-0.2-0.4c-0.1-0.2-0.2-0.3-0.2-0.5c-0.1-0.2-0.2-0.3-0.2-0.5L30,25.7c0-0.1,0.2-0.1,0.3-0.1
				c0.5-0.1,0.9-0.3,1.4-0.4c0.4-0.1,0.7-0.2,1.1-0.3c0.7-0.2,1.4-0.5,2.1-0.7c0.5-0.2,1.1-0.4,1.6-0.6l0,0c0.4-0.1,0.7,0,1,0.1
				c0.3,0.1,0.2,0.3-0.1,0.5c-0.7,0.3-1.4,0.6-2.1,0.8c-0.7,0.2-1.3,0.4-2,0.6c-0.3,0.1-0.7,0.2-1,0.3l0,0c0,0,0,0,0,0l0,0
				c-0.2,0-0.5,0.1-0.7,0.2c-0.2,0.1-0.2,0.1-0.3,0.1c-0.1,0,0,0,0,0.1c0,0,0,0.1,0,0.2c0,0,0,0.1,0.1,0.1c0.1,0.1,0.1,0.2,0.2,0.3
				c0.3,0.6,0.6,1.3,0.9,1.9l0.2,0.4l0,0c0,0.2,0.2,0.4,0.2,0.5l0.1,0.3c0.1,0.1,0.1,0.3,0.2,0.4c0.2,0.3,0.3,0.6,0.3,0.9
				c0,0,0,0.1,0.1,0.1l0,0l0.1,0.2l0,0l0,0c0.1,0.3,0.2,0.5,0.3,0.7l0,0.1l0,0l0,0l0,0l0,0l0,0c0.1,0.3,0.3,0.7,0.4,1l0,0l0.2,0.6
				l0,0c0,0,0,0.1,0,0.1l0,0l0,0.1l0,0c0,0.1,0.1,0.3,0.1,0.4l0,0c0,0,0.1,0,0,0.1l0,0l0,0l0.2,0.5l0,0c0.1,0.1,0.1,0.2,0.1,0.3
				c0,0.1,0.1,0.2,0.1,0.3l0,0l0,0l0,0l0.4,1.4l0,0c0,0.6,0.3,1.2,0.4,1.8l0.1,0.3c0,0,0,0.2,0.1,0.1l0.2,0l0.5-0.1
				c0.3-0.1,0.5-0.1,0.8-0.2l0,0c0,0,0.1,0,0.1,0l0,0l0,0c0.2,0,0.5-0.1,0.6-0.2c0.3-0.1,0.6-0.2,0.9-0.3c0.6-0.2,1.2-0.3,1.8-0.5
				c0.2,0,0.4-0.1,0.6-0.2c0.2-0.1,0.2,0,0.3,0.1c0.1,0.2,0.2,0.3,0.5,0.2c0.2-0.1,0.5-0.1,0.4,0.2c0,0.1,0.1,0,0.1,0
				C43.2,38.5,43.2,38.7,43.2,38.9z M33.6,31.8L33.6,31.8L33.6,31.8C33.6,31.7,33.6,31.7,33.6,31.8z M34.3,33.6L34.3,33.6L34.3,33.6
				L34.3,33.6z M34.6,34.4L34.6,34.4L34.6,34.4L34.6,34.4z M34.9,35.5L34.9,35.5L34.9,35.5L34.9,35.5z M37.5,39.2L37.5,39.2
				L37.5,39.2L37.5,39.2z"/>
		</g>
	</g>
</g>
<g>
	<g>
		<g>
			<polygon points="24.9,34 24.9,34 24.9,34 			"/>
			<polygon points="25.8,33.7 25.8,33.7 25.8,33.7 			"/>
			<path d="M19.8,36.3c0,0.1-0.1,0.2-0.2,0.2c-0.1,0-0.2,0-0.3-0.1l-0.6-0.2l0.1-0.5c0-0.1,0-0.2,0.1-0.3c0,0,0-0.1,0.1-0.1l0,0
				c0,0,0.1-0.1,0.1-0.1l0.2-0.1c0.1,0,0.2-0.1,0.3-0.1l0,0l0,0l0,0c0.2-0.1,0.4-0.2,0.6-0.3c0.3-0.1,0.7-0.3,1-0.4
				c0.4-0.1,0.8-0.3,1.2-0.4c0.5-0.1,0.9-0.3,1.4-0.5c0.4-0.2,0.7-0.3,1.1-0.5c0.3-0.1,0.5-0.1,0.8-0.2c0.1,0,0.2-0.1,0.3-0.1
				c0.1,0,0.2-0.1,0.4,0c0.1,0.1,0.3-0.1,0.4-0.1c0.2-0.1,0.4-0.1,0.6-0.2c0.2-0.1,0.4-0.1,0.6-0.2l0,0c0.1,0,0.2,0,0.3-0.1
				c0.2-0.1,0.5-0.1,0.7-0.2c0.7-0.2,1.4-0.4,2-0.6c0.3-0.1,0.5-0.2,0.7-0.3l0,0c0.2-0.1,0.4,0.1,0.6,0.3c0.2,0.2,0.2,0.3,0,0.4
				c-0.3,0.2-0.6,0.4-1,0.5c-0.3,0.1-0.6,0.2-0.9,0.3c-0.2,0.1-0.3,0.1-0.5,0.1l0,0c0,0,0,0,0,0l0,0c-0.2,0-0.5,0.1-0.7,0.2
				c-0.1,0-0.2,0.1-0.4,0.1c-0.1,0-0.2,0.1-0.3,0.1l-0.9,0.3l-0.2,0.1l0,0c-0.1,0-0.2,0.1-0.3,0.1c-0.1,0-0.1,0-0.2,0
				c-0.1,0-0.1,0-0.2,0.1c-0.1,0.1-0.3,0.1-0.4,0.1c0,0,0,0,0,0l0,0l-0.1,0l0,0l0,0c-0.1,0-0.2,0.1-0.4,0.1l-0.1,0l0,0l0,0l0,0l0,0
				l0,0c-0.2,0.1-0.3,0.2-0.5,0.2l0,0L25,34l0,0c0,0,0,0,0,0l0,0l0,0l0,0c-0.1,0-0.1,0.1-0.2,0l0,0c0,0,0,0,0,0l0,0l0,0l-0.2,0.1
				l0,0c0,0-0.1,0.1-0.1,0c-0.1,0-0.1,0.1-0.1,0.1l0,0l0,0l0,0l-0.6,0.2l0,0c-0.3,0-0.6,0.1-0.8,0.2c-0.3,0.1-0.6,0.2-0.9,0.4
				c-0.1,0.1-0.2,0.1-0.3,0.2l0,0c0,0,0,0,0,0l0,0l0,0c-0.1,0-0.2,0.1-0.3,0.1c-0.1,0.1-0.2,0.1-0.4,0.2c-0.3,0.1-0.5,0.2-0.8,0.4
				c-0.1,0-0.1,0.1-0.2,0.2c0,0.1,0,0-0.1-0.1c0-0.1-0.1-0.1-0.1-0.1c-0.1-0.1-0.1-0.2-0.2-0.2l0-0.3c0,0,0.1,0,0.1,0
				c0.1,0,0.2,0,0.1,0.3c0,0.1,0,0.1,0,0.1C19.9,35.9,19.8,36.1,19.8,36.3z M26.1,33.5L26.1,33.5L26.1,33.5L26.1,33.5z M25.3,33.8
				L25.3,33.8L25.3,33.8L25.3,33.8z M24.8,34L24.8,34L24.8,34L24.8,34z M24.4,34.2L24.4,34.2L24.4,34.2L24.4,34.2z M21.4,35.2
				L21.4,35.2L21.4,35.2L21.4,35.2z"/>
		</g>
	</g>
</g>
<g>
	<g>
		<g>
			<polygon points="26,36.6 26,36.6 26,36.6 			"/>
			<polygon points="26.9,36.2 26.9,36.2 26.9,36.2 			"/>
			<path d="M19.7,38c-0.1-0.1-0.1-0.2,0-0.3c0.3-0.1,0.6-0.1,0.9-0.2l0,0l0,0l0,0c0.2,0,0.4-0.2,0.6-0.2c0.3-0.1,0.7-0.3,1-0.4
				c0.4-0.1,0.8-0.3,1.2-0.4c0.5-0.1,0.9-0.3,1.4-0.5c0.4-0.2,0.8-0.3,1.1-0.5c0.3-0.1,0.6-0.2,0.8-0.2c0.1,0,0.2-0.1,0.3-0.1
				c0.1,0,0.2-0.1,0.4,0c0.1,0.1,0.3-0.1,0.4-0.1c0.2,0,0.4-0.1,0.6-0.1c0.2-0.1,0.4-0.1,0.6-0.2l0,0c0.1,0,0.2,0,0.3-0.1
				c0.2-0.1,0.5-0.1,0.8-0.2c0.7-0.1,1.4-0.3,2.1-0.5c0.3-0.1,0.5-0.2,0.8-0.3l0,0c0.2-0.1,0.4,0.1,0.5,0.3c0.2,0.2,0.1,0.4,0,0.4
				c-0.3,0.1-0.7,0.3-1,0.3c-0.3,0.1-0.6,0.1-1,0.2c-0.2,0-0.3,0.1-0.5,0.1l0,0c0,0,0,0,0,0l0,0c-0.2,0-0.5,0.1-0.7,0.1
				c-0.1,0-0.2,0-0.4,0c-0.1,0-0.2,0.1-0.3,0.1l-0.9,0.3l-0.2,0.1l0,0c-0.1,0-0.2,0.1-0.3,0.1c-0.1,0-0.1,0-0.2,0
				c-0.1,0-0.1,0-0.2,0.1C27.7,36,27.5,36,27.4,36c0,0,0,0,0,0l0,0l-0.1,0l0,0l0,0c-0.1,0-0.2,0.1-0.4,0.1l-0.1,0l0,0l0,0l0,0l0,0
				l0,0c-0.2,0.1-0.3,0.2-0.5,0.2l0,0L26,36.5l0,0c0,0,0,0,0,0l0,0l0,0l0,0c-0.1,0-0.1,0.1-0.2,0l0,0c0,0,0,0,0,0l0,0l0,0l-0.2,0.1
				l0,0c0,0-0.1,0.1-0.2,0c-0.1,0-0.1,0.1-0.1,0.1l0,0l0,0l0,0L24.6,37l0,0c-0.3,0-0.6,0.1-0.8,0.2c-0.3,0.1-0.6,0.2-0.9,0.4
				c-0.1,0.1-0.2,0.1-0.3,0.2l0,0c0,0,0,0,0,0l0,0l0,0c-0.1,0-0.2,0.1-0.3,0.1c-0.1,0.1-0.3,0.1-0.4,0.2c-0.3,0.1-0.5,0.2-0.8,0.4
				c-0.1,0-0.2,0.1-0.2,0.2c-0.1,0.1-0.1,0-0.2-0.1c-0.1-0.2-0.2-0.3-0.3-0.2c-0.1,0.1-0.2,0.1-0.3-0.2c0-0.1-0.1,0-0.1,0
				C19.8,38.3,19.7,38.1,19.7,38z M27.2,36.1L27.2,36.1L27.2,36.1C27.2,36.1,27.2,36.1,27.2,36.1z M26.3,36.4L26.3,36.4L26.3,36.4
				L26.3,36.4z M25.9,36.5L25.9,36.5L25.9,36.5L25.9,36.5z M25.4,36.7L25.4,36.7L25.4,36.7L25.4,36.7z M22.5,37.8L22.5,37.8
				L22.5,37.8L22.5,37.8z"/>
		</g>
	</g>
</g>
<g>
	<g>
		<g>
			<polygon points="32.3,28.5 32.3,28.5 32.3,28.5 			"/>
			<polygon points="32.4,28.2 32.4,28.2 32.4,28.2 			"/>
			<path d="M30.1,29.7C30,29.6,30,29.5,30,29.5c0.1-0.1,0.2-0.1,0.2-0.1l0,0l0,0l0,0c0.1,0,0-0.1,0.1-0.1c0.1-0.1,0.1-0.2,0.2-0.2
				c0.1,0,0.1-0.1,0.1-0.1l0.1-0.1c0,0,0,0,0,0c0.1,0,0.1-0.1,0.1-0.1c0,0-0.1,0-0.1,0c0,0,0.1,0,0.1,0c0,0,0,0,0,0c0,0,0,0,0.1-0.1
				c0.1-0.1,0,0,0,0c0,0,0,0,0,0c0,0,0-0.1-0.1,0l0,0c0,0,0,0,0,0c-0.1,0,0,0-0.1-0.1c-0.2-0.1-0.3-0.2-0.5-0.2c-0.1,0-0.1,0-0.2,0
				l0,0c-0.1,0,0-0.2,0-0.4c0-0.2,0-0.4,0.1-0.4c0.1,0,0.2-0.1,0.3-0.1c0.1,0,0.2,0.1,0.3,0.1c0,0,0.1,0,0.1,0.1l0,0c0,0,0,0,0,0
				l0,0c0,0.1,0.1,0.1,0.2,0.1c0,0,0.1,0.1,0.1,0.1c0,0,0.1,0,0.1,0c0.1,0,0.3,0.1,0.4,0.2c0,0,0.1,0,0.1,0l0,0c0,0.1,0.1,0,0.1,0
				c0,0,0,0,0.1,0c0,0,0,0,0.1,0c0.1,0,0.1,0,0.1,0.1c0,0,0,0,0.1,0l0,0l0.1,0l0,0l0,0c0,0,0.1,0,0.2,0.1l0,0l0,0l0,0l0,0l0,0l0,0
				c0,0,0,0,0.1,0c0,0,0,0,0,0c0,0,0,0.1-0.1,0.1l0,0l-0.1,0.1l0,0c0,0-0.1,0,0,0l0,0l0,0l0,0c0,0,0,0-0.1,0.1l0,0c0,0,0,0,0,0l0,0
				l0,0l0,0.1l0,0c0,0,0,0-0.1,0.1c-0.1,0,0.1,0,0,0l0,0l0,0l0,0l-0.2,0.2l0,0c-0.2,0.1-0.2,0.2-0.3,0.3c-0.1,0.1-0.1,0.2-0.2,0.3
				c0,0,0,0.1,0,0.1l0,0c0,0,0,0,0,0l0,0l0,0c0,0,0,0,0,0.1c0,0.1,0,0.1,0,0.1c0,0.1-0.1,0.1-0.1,0.2c0,0,0,0.1,0,0.1
				c0,0,0,0-0.1-0.1c-0.2-0.1-0.3-0.2-0.3-0.1c0,0,0,0.1-0.2-0.1c-0.1,0-0.1,0-0.1,0C30.4,29.9,30.2,29.7,30.1,29.7z M32.1,28.2
				L32.1,28.2L32.1,28.2L32.1,28.2z M32.3,28.4L32.3,28.4L32.3,28.4L32.3,28.4z M32.2,28.6L32.2,28.6L32.2,28.6L32.2,28.6z M32,28.7
				L32,28.7L32,28.7L32,28.7z M31.3,29.7L31.3,29.7L31.3,29.7L31.3,29.7z"/>
		</g>
	</g>
</g>
<g>
	<g>
		<g>
			<polygon points="24.5,31.4 24.5,31.4 24.5,31.4 			"/>
			<polygon points="25.4,31.1 25.4,31.1 25.4,31.1 			"/>
			<path d="M18.5,32.5c-0.1-0.1-0.1-0.2,0-0.3c0.3-0.1,0.6-0.2,0.9-0.3l0,0l0,0l0,0c0.2-0.1,0.4-0.2,0.5-0.2c0.3-0.1,0.6-0.3,1-0.3
				c0.4-0.1,0.7-0.2,1.1-0.3c0.5-0.1,0.9-0.3,1.3-0.4c0.4-0.1,0.7-0.3,1.1-0.4c0.3-0.1,0.5-0.1,0.8-0.2c0.1,0,0.2-0.1,0.3-0.1
				c0.1,0,0.2-0.1,0.4,0c0.1,0.1,0.3-0.1,0.4-0.1c0.2-0.1,0.4-0.1,0.5-0.2c0.2-0.1,0.4-0.1,0.5-0.2l0,0c0.1,0,0.2-0.1,0.3-0.1
				c0.2-0.1,0.5-0.1,0.7-0.2c0.6-0.2,1.2-0.5,1.9-0.8c0.3-0.1,0.5-0.2,0.8-0.3l0,0c0.2,0,0.4,0.2,0.5,0.4c0.1,0.2,0,0.4-0.1,0.4
				c-0.3,0.1-0.5,0.2-0.8,0.3c-0.3,0.1-0.5,0.2-0.8,0.3c-0.1,0.1-0.3,0.1-0.4,0.2l0,0c0,0,0,0,0,0l0,0c-0.2,0-0.4,0.2-0.6,0.3
				c-0.1,0-0.2,0.1-0.4,0.1c-0.1,0-0.2,0.1-0.3,0.1c-0.3,0.1-0.6,0.2-0.9,0.3l-0.2,0.1l0,0c-0.1,0-0.2,0.1-0.3,0.1
				c-0.1,0-0.1,0-0.2,0c-0.1,0-0.1,0-0.2,0.1c-0.1,0.1-0.3,0.1-0.4,0.1c0,0,0,0,0,0l0,0l-0.1,0l0,0l0,0c-0.1,0-0.2,0.1-0.3,0.1
				l-0.1,0l0,0l0,0l0,0l0,0l0,0c-0.2,0.1-0.3,0.2-0.5,0.2l0,0l-0.3,0.1l0,0c0,0,0,0,0,0l0,0l0,0l0,0c-0.1,0-0.1,0-0.2,0l0,0
				c0,0,0,0,0,0l0,0l0,0L24,31.5l0,0c0,0-0.1,0.1-0.1,0c-0.1,0-0.1,0.1-0.1,0.1l0,0l0,0l0,0l-0.6,0.2l0,0c-0.3,0-0.5,0.1-0.8,0.2
				c-0.3,0.1-0.6,0.2-0.8,0.3c-0.1,0-0.2,0.1-0.3,0.1l0,0c0,0,0,0,0,0l0,0l0,0c-0.1,0-0.2,0.1-0.3,0.1c-0.1,0.1-0.2,0.1-0.4,0.2
				c-0.3,0.1-0.5,0.2-0.8,0.3c-0.1,0-0.1,0.1-0.2,0.2c-0.1,0.1-0.1,0-0.2-0.1c-0.1-0.2-0.2-0.2-0.3-0.2c-0.1,0.1-0.2,0.1-0.3-0.2
				c0-0.1-0.1,0-0.1,0C18.6,32.8,18.6,32.6,18.5,32.5z M25.7,30.9L25.7,30.9L25.7,30.9L25.7,30.9z M24.8,31.2L24.8,31.2L24.8,31.2
				L24.8,31.2z M24.5,31.3L24.5,31.3L24.5,31.3L24.5,31.3z M24,31.4L24,31.4L24,31.4L24,31.4z M21.2,32.3L21.2,32.3L21.2,32.3
				L21.2,32.3z"/>
		</g>
	</g>
</g>
<g>
	<g>
		<g>
			<polygon points="18.6,32.8 18.6,32.8 18.6,32.8 			"/>
			<polygon points="18.5,32.8 18.5,32.8 18.5,32.8 			"/>
			<path d="M19.8,34.3c-0.1,0.1-0.1,0.2-0.1,0.2c-0.1,0-0.1-0.2-0.2-0.2l0,0l0,0l0,0c0,0-0.1,0-0.2,0c-0.1-0.1-0.2-0.1-0.3-0.1
				C19,34,18.8,34,18.7,33.9c-0.1-0.1-0.3-0.1-0.4-0.1c-0.2,0-0.4-0.1-0.7-0.1c-0.2,0-0.3-0.1-0.4-0.1c0,0-0.1,0-0.1,0
				c0,0,0-0.1,0-0.1c0-0.1,0-0.1,0.2-0.2c0.1-0.1,0.1-0.1,0.1-0.2c0-0.1,0.1-0.2,0.1-0.3c0-0.1,0.1-0.2,0-0.3l0,0
				c0-0.1,0.1-0.1,0-0.1c0-0.1,0.1-0.1,0.1-0.2c0.1-0.2,0.2-0.4,0.2-0.6c0-0.1,0-0.2,0-0.2l0,0c0-0.1,0.2,0,0.4,0
				c0.2,0,0.4,0.1,0.4,0.1c0,0.1,0.1,0.2,0,0.3c0,0.1-0.1,0.2-0.1,0.3c0,0.1,0,0.1-0.1,0.1l0,0c0,0,0,0,0,0l0,0
				c-0.1,0.1-0.1,0.1-0.1,0.2c0,0,0,0.1-0.1,0.1c0,0,0,0.1,0,0.1l0,0.1l0,0l0,0c-0.1,0,0,0,0,0c0,0,0,0,0,0c0,0,0,0,0,0
				c0,0,0,0,0,0.1c0,0,0,0,0,0l0,0l0,0l0,0l0,0c0,0,0,0,0,0c0,0,0,0,0.1,0l0,0l0,0l0,0l0,0l0,0l0,0c0,0,0.1,0,0.1,0l0,0l0,0l0,0
				c0,0,0,0,0,0l0,0l0,0l0,0c0,0,0,0,0,0l0,0c0,0,0,0,0,0l0,0l0,0l0,0l0,0c0,0,0,0,0,0c0,0.1,0-0.1,0,0l0,0l0,0l0,0l0.2,0l0,0
				c0,0.2,0.1,0.1,0.2,0.1c0.1,0,0.2,0,0.3,0.1c0,0,0.1,0,0.1,0l0,0c0,0,0,0,0,0l0,0l0,0c0,0,0.1,0,0.1,0c0.1,0,0.1,0,0.1,0
				c0.1,0,0.2,0.1,0.3,0.1c0,0,0.1,0,0.1,0c0,0,0,0,0,0.1c-0.1,0.2-0.1,0.3,0,0.3c0,0,0.1,0-0.1,0.3c0,0.1,0,0.1,0,0.1
				C20,34,19.9,34.2,19.8,34.3z M18.4,32.9L18.4,32.9L18.4,32.9L18.4,32.9z M18.5,32.9L18.5,32.9L18.5,32.9L18.5,32.9z M18.5,32.9
				L18.5,32.9L18.5,32.9L18.5,32.9z M18.6,32.9L18.6,32.9L18.6,32.9L18.6,32.9z M19.4,33.1L19.4,33.1L19.4,33.1L19.4,33.1z"/>
		</g>
	</g>
</g>
</svg>
