<?xml version="1.0" encoding="utf-8"?>
<!-- Generator: Adobe Illustrator 24.2.1, SVG Export Plug-In . SVG Version: 6.00 Build 0)  -->
<svg version="1.1" id="Layer_1" xmlns="http://www.w3.org/2000/svg" xmlns:xlink="http://www.w3.org/1999/xlink" x="0px" y="0px"
	 viewBox="0 0 180.4 190.7" style="enable-background:new 0 0 180.4 190.7;" xml:space="preserve">
<style type="text/css">
	.st0{opacity:0.9;}
	.st1{fill:#FCFAFA;}
	.st2{fill:#FAF6F6;}
	.st3{fill:#FCF9F9;}
	.st4{fill:#F3E8E8;}
	.st5{fill:#F4EBEB;}
	.st6{fill:#F4E9E9;}
	.st7{fill:#F5ECEC;}
	.st8{fill:#F8F2F2;}
	.st9{fill:#F7F0F0;}
	.st10{fill:#F9F3F3;}
	.st11{opacity:0.8;}
	.st12{fill:#EDDDDD;}
	.st13{fill:#FBF8F8;}
	.st14{fill:#F8F3F3;}
	.st15{fill:#F3E9E9;}
	.st16{fill:#F5EDED;}
	.st17{fill:#F9F4F4;}
	.st18{fill:#F1E6E6;}
	.st19{opacity:0.5;}
	.st20{opacity:0.85;}
	.st21{fill:#F8F1F1;}
	.st22{fill:#F0E2E2;}
	.st23{fill:#E1C7C7;}
	.st24{fill:#ECDCDC;}
	.st25{fill:#E9D6D6;}
	.st26{fill:#E5CFCF;}
	.st27{fill:#EFC245;}
	.st28{opacity:0.1;}
	.st29{fill:#102630;}
	.st30{fill:#E5C4A5;}
	.st31{fill:#24455B;}
	.st32{opacity:0.3;}
	.st33{opacity:0.1;fill:#542A09;}
	.st34{fill:#A59072;}
	.st35{fill:#341E1D;}
	.st36{fill:#FFFFFF;}
	.st37{fill:#382816;}
	.st38{fill:#2F2719;}
	.st39{fill:#382817;}
	.st40{fill:none;stroke:#231F20;stroke-miterlimit:10;}
	.st41{fill:#ACACAC;}
	.st42{fill:#231F20;}
	.st43{fill:#3E3E3E;}
	.st44{fill:#3D3D3D;}
	.st45{fill:none;stroke:#C0C0C0;stroke-width:0.5;stroke-miterlimit:10;}
	.st46{fill:#585858;}
	.st47{fill:#739989;}
	.st48{fill:#E2E2E2;}
	.st49{fill:#B7B7B7;}
	.st50{fill:#FFD21B;}
	.st51{fill:#B20202;}
	.st52{fill:#F9681E;}
	.st53{fill:#04B24B;}
	.st54{opacity:0.3;fill:#231F20;}
	.st55{opacity:0.4;fill:#231F20;}
	.st56{opacity:0.4;fill:#FFFFFF;}
	.st57{fill:#232323;}
	.st58{fill:#686868;}
	.st59{fill:#5E616B;}
	.st60{fill:#CC9637;}
	.st61{fill:#D63039;}
	.st62{opacity:0.3;fill:#FFFFFF;}
	.st63{fill:#454A49;}
	.st64{opacity:0.5;fill:#607B9A;}
	.st65{opacity:0.1;fill:#FAF6F3;}
	.st66{fill:#BCBCBC;}
	.st67{fill:#2B2B2B;}
	.st68{fill:#666666;}
	.st69{opacity:0.3;fill:#FBF5F0;}
	.st70{fill:#FFD91A;}
	.st71{fill:#777777;}
</style>
<g>
	<g>
		<g>
			<g class="st0">
				<g class="st0">
					<path class="st1" d="M162.3,92.4l0.9,0.3c0-0.5,0.2-1,0.5-1.5c1.2-0.6-2.2-1.2-5.9-1.9C157.6,90.3,158.7,91.3,162.3,92.4z"/>
					<path class="st2" d="M174.5,105c0.5-0.1,0.9-0.3,1.3-0.4c0,0-0.1-0.1-0.1-0.1C175.3,104.6,174.9,104.8,174.5,105z"/>
					<path class="st1" d="M172.2,96.9c-2.2-0.6-3.7-0.4-5.4-0.5c0.9,0.6,1.5,1.2,1.9,2c0.5,0.8,1.3,1.5,2.3,2.3
						c0.7-0.1,1.8-0.1,2.7,0.1c-0.4-0.3-0.4-0.3-1.1-0.2c0.7-0.1,2.1-0.2,2.1-0.2c-0.2-0.7-2.9-1.5-4.7-1.6c1.1-0.1,2.7-0.3,4-0.4
						c-0.3-0.3-0.6-0.5-1-0.8c-0.5-0.1-1-0.3-1.4-0.4L172.2,96.9z"/>
					<path class="st1" d="M150,81.8c0.2,0.1,0.4,0.2,0.5,0.3c0.8-0.2,1.6-0.4,2.5-0.6c-0.6-0.3-1.2-0.7-1.9-1
						c-0.4,0.1-0.9,0.2-1.4,0.3c0-0.1-0.1-0.2-0.2-0.4c0.1-0.2,0.2-0.3,0.6-0.4l-0.1,0c-0.4-0.2-0.7-0.4-1.1-0.6
						c0.1,0.2,0.2,0.3,0.3,0.5c-1.1-0.2-2.3-0.6-2.6-0.1C146.9,80.5,148.6,81.1,150,81.8z"/>
					<path class="st3" d="M131.1,78.8c0.1,0.6,0.1,1.3-0.3,1.9c1.4-0.3,3.4,0.8,4.8,0.5c-1.7,3.2,8.5,5.3,10.4,7.5
						c2.6,2.3,7.8,3.6,11,5.5c0.7-0.2,0.6-0.8,2.1-0.7c-0.8-0.5-1.7-0.7-2.8-0.6c-0.2,0-0.4,0-0.6,0.1c0.2,0,0.4-0.1,0.6-0.1
						c0.8-0.1,1.6,0,2.5,0.1c-0.3-0.1-0.5-0.2-0.4-0.4c0.2-0.1,0.4-0.1,0.6-0.1c-3-1.8-5.7-3.6-5.6-5.9c-0.3-0.1-0.6-0.2-0.9-0.3
						c-3.7-1-4.8-2-4.6-3c-2.3-0.3-4.7-0.7-6.4-1.3c-2.7-1.1-5-2.3-7.4-3.5c-0.9,0.2-1.7,0.4-2.5,0.7
						C131.5,79,131.3,78.9,131.1,78.8z"/>
					<path class="st4" d="M14.9,105.9c1,1.5,3.7,2.5,6.9,2.8c0.8,0.1,1.6,0.1,2.5,0.1c0.9,0,1.8,0.1,2.7,0c1.9-0.1,3.8-0.4,5.7-0.9
						c2-0.3,4-0.7,6.1-1c2-0.4,4.1-0.6,6.2-0.8c2.1-0.2,4.2-0.5,6.3-0.8c2.1-0.2,4.3-0.4,6.5-0.6c-1.4-1.3-0.7-3.2,3-4.7
						c1.9-0.7,5.6,0.2,6.4-0.5c2.3-0.9,3.7-1.6,5.2-2.3c1.5-0.7,3.2-1.4,6-1.9c-1-0.4-1.2-1.5-2.4-1.5c-1.6-0.4-3.4-0.6-5.4-0.6
						c-2,0.1-4.1,0.5-6.4,1.3c-1.3,0.5-4.3-1.1-1.1-1.9c-4-0.1-6.6,1-9.6,1.5c-4.2,0.8-5,0.1-5.2-0.9c-0.2-1,0.4-2.4-1.2-3.1
						c-0.5-0.4-1.2-0.7-2.1-0.7c-1.4,0.6-2.8,1.3-4.2,1.9c-1.4,0.7-2.7,1.3-4,2.1c-2.6,1.5-5.3,2.9-7.9,4.3c-1.2,0.7-3.4,0.3-4.6,1
						c-1.2,0.5-2.5,1-3.6,1.7c-1.2,0.7-2.3,1.4-3.3,2.1C15.5,104.2,14.3,105.4,14.9,105.9z"/>
					<path class="st5" d="M92.3,101.6c-1.5,0.5-3.1,0.9-4.8,1.2c2.6,0.5,5.2,1.1,7.7,1.7c0.7-0.4,1.4-0.7,2-1.1
						C95.2,103.2,93.5,102.6,92.3,101.6z"/>
					<path class="st5" d="M52.5,87.7c-0.5,1.7,1.9,1.6,3.8,2.7c2-0.8,3.7-1.2,5.2-1.1c1.5,0,2.9,0.4,4.1,1.1
						c0.1-0.4,1.8-0.3,2.5-0.5c-0.1,0.4,1.4,1,0.1,1.5c1.3-0.5,2.9,0.1,3.7-0.5c2.2,0.4-1.6,1.3-0.1,1.9c3.7-1.4,7.2-1.4,9.4-0.6
						c2.2,0.8,3.1,2.2,1.8,3.3c-1,1-3,1.7-4.1,3.2c-1.1,1.5-4.9,0.9-7.7,0.7c0.9,0.8,4.8,1,2.7,2.1c-1,0.4-2.1,0.7-3.1,1.2
						c-1,0.4-1.9,0.9-2.5,1.4c2.8-0.4,6-0.9,8.8-1.3c1.4-0.2,2.7-0.4,3.9-0.5c1.2-0.1,2.2-0.1,3,0c1.2,0.2,2.4,0.5,3.5,0.7
						c1.7-0.3,3.3-0.7,4.8-1.2c1.2,1,2.9,1.6,4.9,1.8c0.8-0.4,1.4-0.9,1.8-1.4c1.8-1.6-5.2-1.5-7-2.8c7.4-1,8.7-3.9,6.1-6.1
						c-1.8-1.3-3.8-2.3-7-3.2c-1.7-0.2-4-0.3-6,0.3c0.7-0.2,2.7-0.8,2.2-1c-3.9-0.7-5.6-2.5-10.6-1.5c0.2-0.4-0.4-0.6,1-1.1
						c-2.7,0.9-1.2-1.5-3.9-0.6c-1.4-1-1.1-3.4-4.9-2.9c-1.1,0.2-1.9,0.3-2.6,0.3c-2.6,1-5.5,1.8-8.9,2.4c-2.5,0.5-4.8,1.1-7,1.8
						C51.3,87.5,52.3,87.4,52.5,87.7z"/>
					<path class="st6" d="M47.1,90.3c1.5,0.7,1,2.1,1.2,3.1c0.2,1,1,1.6,5.2,0.9c3-0.4,5.6-1.5,9.6-1.5c-3.1,0.8-0.2,2.3,1.1,1.9
						c2.3-0.8,4.4-1.3,6.4-1.3c2-0.1,3.8,0.2,5.4,0.6c1.2,0,1.4,1,2.4,1.5c-2.8,0.6-4.5,1.2-6,1.9c-1.5,0.7-3,1.5-5.2,2.3
						c-0.8,0.7-4.5-0.2-6.4,0.5c-3.7,1.5-4.4,3.4-3,4.7c3.1-0.4,6.3-0.5,9.6-0.7c0.3,0,0.6-0.1,0.9-0.1c0.7-0.5,1.6-1,2.5-1.4
						c1-0.4,2.1-0.8,3.1-1.2c2.1-1.1-1.8-1.3-2.7-2.1c2.8,0.2,6.6,0.8,7.7-0.7C80,97,82,96.4,83,95.3c1.3-1.2,0.4-2.5-1.8-3.3
						c-2.2-0.7-5.7-0.8-9.4,0.6c-1.5-0.6,2.3-1.5,0.1-1.9c-0.8,0.7-2.4,0-3.7,0.5c1.3-0.5-0.2-1.1-0.1-1.5c-0.7,0.2-2.4,0.1-2.5,0.5
						c-1.2-0.7-2.6-1.1-4.1-1.1c-1.5,0-3.3,0.3-5.2,1.1c-2-1.1-4.4-0.9-3.8-2.7c-0.2-0.3-1.2-0.2-2.4-0.1c-1.8,0.5-3.5,1.2-5.1,1.9
						C45.9,89.7,46.6,89.9,47.1,90.3z"/>
					<path class="st7" d="M68.7,83.2c3.8-0.5,3.5,1.9,4.9,2.9c2.7-0.9,1.2,1.5,3.9,0.6c-1.3,0.4-0.8,0.7-1,1.1
						c5.1-1,6.8,0.9,10.6,1.5c0.5,0.2-1.5,0.8-2.2,1c2-0.6,4.4-0.6,6-0.3c3.2,0.9,5.2,1.9,7,3.2c2.6,2.2,1.3,5.2-6.1,6.1
						c1.8,1.3,8.8,1.2,7,2.8c-0.3,0.5-1,0.9-1.8,1.4c4.7,0.6,11.1-0.4,16.4-0.8c0.2-0.6,0-1.1-0.8-1.3c-6.1-2.1-2.5-4.8-7.4-7.3
						c-0.5-0.2-1.4-0.5-2.3-0.6c-0.9-0.2-1.7-0.3-2-0.4c-2.3-1.6,0.3-3.4-2-5c0.2-0.4-3.7,0.3-4-0.4c-1.3-1.1-0.6-2.8-3.5-3.1
						c-3.9-0.4-6.6-1.3-8.6-2.3c-1-0.5-1.9-1-2.8-1.6c-0.9-0.5-1.7-1.1-2.5-1.6c-2,0.7-3.8,1.4-5.7,2.1c-0.9,0.4-1.9,0.7-2.8,1.1
						c-0.9,0.4-1.9,0.8-2.9,1.1C66.8,83.4,67.6,83.4,68.7,83.2z"/>
					<path class="st8" d="M150.4,111.6c1.6,0,3,0,4.4,0.1c-6.3-2-9.1-4.4-11.4-7.1c-0.4-0.5-3.1-0.7-6-1c-2.8-0.4-5.8-0.8-6.4-2
						c0.4-0.8,2.4-1.2,4.9-1.4c-9.3-3.1-8.9-7.6-16.1-10.4c-1.8-0.7-3.5-1.5-5.1-2.3c-1.6-0.8-3.1-1.7-4.3-2.6
						c-2.5-1.8-4.2-3.8-4.6-5.7c-0.1-0.8-1.4-1.5-3.2-2.1c-1.8-0.6-4.1-1-6.2-1.6c-1.6,0.5-3.3,0.9-4.9,1.4c2.4,0.9,4.3,1.9,4.9,3
						c1.5,3.7,4.6,6,12.8,8.1c2.7,0.8,0.6,3.9,2.1,4.6c2.8,1.6,4.9,3.3,6.8,4.9c1.9,1.6,3.5,3.3,5.3,5c0.7,0.9,2.3,2,4.1,3.1
						c3.4,0.3,6.7,0.3,10.1,1C147.5,107,144.1,111.5,150.4,111.6z"/>
					<path class="st9" d="M91.4,84.6c2.9,0.3,2.2,2,3.5,3.1c0.3,0.7,4.2-0.1,4,0.4c2.3,1.6-0.3,3.4,2,5c0.2,0.1,1.1,0.3,2,0.4
						c0.9,0.2,1.8,0.4,2.3,0.6c4.9,2.4,1.3,5.2,7.4,7.3c0.8,0.2,1,0.7,0.8,1.3c0,0,0,0,0,0c-0.8,1.2,2.4,1.2,3.2,1.3
						c4.1,0.1,5.7,0.7,8.9,1.5c0.6,0.1,1.3,0.1,1.9,0.2c-1.9-1.2-3.4-2.3-4.1-3.1c-1.8-1.8-3.4-3.4-5.3-5c-1.9-1.6-4-3.3-6.8-4.9
						c-1.5-0.7,0.5-3.8-2.1-4.6c-8.2-2-11.3-4.4-12.8-8.1c-0.6-1.1-2.5-2-4.9-3c-1.4,0.4-2.7,0.8-4,1.1c-1.4,0.4-3.5-0.5-3.5-0.5
						c-2.4,0.4-4.6,0.9-6.6,1.6c0.9,0.5,1.7,1.1,2.5,1.6c0.9,0.6,1.7,1.1,2.8,1.6C84.9,83.3,87.5,84.2,91.4,84.6z"/>
					<path class="st10" d="M159.6,112.4c0.8-0.1,1.9-0.1,2.7-0.1c2.4,0,2,0.8,3.1,1l-0.4-0.3l0.7,0.2c-1-1.1-1.5-2.1-1.3-3.2
						c-1.4-0.2-2.6-0.5-3.1-1.1c-1.6-1.9-2.8-3.9-4.9-5.8c-2.1-1.8-5.1-3.6-10.5-5.1c-4.4-1,1.2-4.6-5.1-6.7c-1.1-0.4-2.6-0.6-4-0.9
						c-1.4-0.3-2.6-0.7-2.8-1.4c-0.3-1.7,3.1-3.5-1.2-4.8c-2.7-0.7-5.3-1.6-7.7-2.4c-2.4-0.8-4.5-1.7-6.4-2.6
						c-3.7-1.9-6.2-3.9-6.9-6c-2.2-0.3-4.7-0.1-7.3,0.4c-2.6,0.4-5.2,1.2-7.9,2c2.1,0.6,4.4,1.1,6.2,1.6c1.8,0.6,3.1,1.2,3.2,2.1
						c0.3,1.9,2.1,3.9,4.6,5.7c1.3,0.9,2.7,1.8,4.3,2.6c1.6,0.8,3.3,1.6,5.1,2.3c7.2,2.7,6.8,7.2,16.1,10.4
						c-2.5,0.2-4.5,0.6-4.9,1.4c0.6,1.2,3.6,1.6,6.4,2c2.8,0.4,5.6,0.6,6,1c2.3,2.7,5.1,5.1,11.4,7.1
						C156.5,111.8,158.1,112.1,159.6,112.4z"/>
					<path class="st2" d="M132.6,84.2c4.3,1.3,0.9,3.1,1.2,4.8c0.3,0.7,1.5,1.1,2.8,1.4c1.4,0.3,3,0.6,4,0.9
						c6.3,2.1,0.7,5.7,5.1,6.7c5.4,1.4,8.4,3.2,10.5,5.1c2.1,1.9,3.3,3.9,4.9,5.8c0.5,0.6,1.7,0.9,3.1,1.1c0.1-0.4,0.3-0.8,0.7-1.3
						c0.5-0.8-3.5-2.4-5.3-3.6c-0.9-1.7,1.6-2.6,4.3-3.4c0.4-0.2,0.8-0.4,1.2-0.6c0,0.1,0.1,0.1,0.1,0.1c0.3-0.1,0.7-0.2,1-0.3
						c-0.8-0.5-1.5-1-2.2-1.4c-0.3,0-0.6-0.1-0.9-0.2c0.1,0,0.3,0,0.5-0.1c-1-0.7-1.8-1.4-2.3-2.2c-0.4-0.7-1.1-1.4-2-1.9
						c-0.4,0-0.8-0.1-1.3-0.1c0.4,0,0.7,0,0.9-0.1c-3.2-2-8.5-3.2-11-5.6c-1.9-2.2-12.1-4.3-10.4-7.6c-1.4,0.3-3.4-0.8-4.8-0.5
						c0.3-0.6,0.4-1.3,0.3-1.9c-1.4-0.7-3.1-1.3-3.4-1.8c0.3-0.6,1.5-0.2,2.6,0l-0.3-0.5l-0.4-0.2c-0.7,0-1.4,0.1-2.1,0.3
						c-0.8,0.4-1.5,0.9-2.2,1.2c0.3-0.5,1.1-1,2.2-1.2c0.4-0.2,0.7-0.5,1-0.7c-1.5-0.6-3.1-1.2-4.8-1.7c-0.4,0.1-0.7,0.1-1.1,0.2
						c0.3-0.1,0.6-0.1,0.9-0.2c-0.2-0.1-0.5-0.1-0.7-0.2c-1.4,0.3-4.2,0.9-7,1.6c-1.7-1.7-3.9-2.5-6.3-2.8c0.7,2.1,3.2,4.1,6.9,6
						c1.9,0.9,4,1.8,6.4,2.6C127.3,82.6,129.8,83.5,132.6,84.2z"/>
				</g>
			</g>
		</g>
	</g>
</g>
<g>
	<g>
		<g>
			<g class="st11">
				<g class="st11">
					<path class="st12" d="M103.8,139.9c0.1,2.3,1.1,0.9,2.1,0.2c-0.2-0.1-0.3-0.1-0.5-0.2C104.9,139.8,104.3,139.9,103.8,139.9z"/>
					<path class="st12" d="M105.4,139.8c0.2,0.1,0.3,0.1,0.5,0.2c0.1-0.1,0.3-0.2,0.4-0.2C106,139.8,105.7,139.8,105.4,139.8z"/>
					<path class="st12" d="M103.8,138.7c0,0.5,0,0.8,0,1.1c0.6,0,1.1,0,1.6,0C104.9,139.5,104.3,139.2,103.8,138.7z"/>
					<path class="st12" d="M106.2,139.8c0.3,0,0.6,0,0.9,0C106.9,139.6,106.6,139.6,106.2,139.8z"/>
					<path class="st13" d="M132.6,126c-7.3-2.3-15-4.4-23.2-5.6c1.1,0.7,2.1,1.4,3.2,2.1c1,0.7,1.9,1.3,2.8,1.8
						c1.4,0.8,2.7,1.4,4.1,1.7c1.4,0.3,2.8,0.5,4.3,0.5C126.7,126.6,129.7,126.2,132.6,126z"/>
					<path class="st14" d="M96.9,119.4c-1.4-0.1-2.8,0-4.2,0l-4.2,0.1c1.4,0.2,2.8,0.3,4.2,0.3C94.1,119.8,95.4,119.6,96.9,119.4z"
						/>
					<path class="st13" d="M132.1,126.5c-2.9,0.2-5.9,0.6-8.8,0.6c-1.4,0-2.9-0.2-4.3-0.5c-1.4-0.4-2.7-0.9-4.1-1.7
						c-0.9-0.5-1.8-1.2-2.8-1.8c-1-0.7-2.1-1.4-3.2-2.1c-3.3-0.5-6.6-0.8-9.9-0.9c-3.4-0.2-6.6-0.1-9.9-0.1
						c-2.8,0.7-5.5,0.8-8.2,0.6c-12.5,1.3-24.3,3.9-35.5,6.3c-5.7,1.2-11.1,2.2-16.5,3.1c-2.7,0.4-5.4,0.8-8,1l-2,0.2l-1,0.1l-1,0
						c-1.3,0.1-2.6,0.1-3.9,0.2c-0.6,0.1-2.4,0.2-4.3,0.7c-0.5,0.1-0.9,0.2-1.4,0.4c-0.4,0.1-0.9,0.2-1.3,0.4
						c-0.8,0.3-1.4,0.6-1.8,1L2,134.9l-0.1,0.8c0.9,0.1,1.9,0.3,2.9,0.4c0.5,0.1,1,0.1,1.5,0.1c0.5,0,1,0,1.6-0.1
						c1.3,0,2.5-0.8,3.8-0.8c0.4,0,0.7,0,1,0c0.4,0,0.7,0,1.1,0c0.7,0,1.4,0,2.1,0c1.4,0,2.8,0,4.2-0.2c1.4-0.2,2.9-0.3,4.3-0.7
						c1.5-0.4,3-0.9,4.6-1.6c1.8-1.2,5.8,1.6,7.7,0.4c7.9-2.5,15.7-0.9,23.4-3.6c3.1-1.2,5.7-2.4,8.3-3.5c1.3-0.5,2.7-0.9,4.2-1.3
						c0.7-0.2,1.5-0.3,2.3-0.4c0.8-0.1,1.6-0.2,2.5-0.2c1.5-0.2,3.6-1.5,5.2-1.7c5.1-0.2,10.3-0.3,15.6,0.1
						c5.3,0.4,10.5,1.4,15.3,2.8c1.1,0.1,2.2,1.2,3.2,2.1c1,0.9,2,1.8,3.2,1.5c1.6-0.6,3.2-1,4.8-1.3c1.6-0.3,3.1-0.4,4.7-0.5
						c0.7,0.2,0.9,2.9,2.4,3.2c5.4,1.8,10.9,0.6,15.7,1.7c-0.2-0.3-0.4-0.6-0.7-0.9C141.9,129.6,137.1,128,132.1,126.5z"/>
					<g>
						<path class="st13" d="M161.3,134.8c-0.8,0.3-1.6,0.6-2.3,0.7c4.2,2.4,9.6,3.3,14.4,1.8C169.3,136.7,165.3,135.8,161.3,134.8z"
							/>
						<path class="st13" d="M153.8,133.4l0.1,0.2c-2.4-0.8-4.9-1.5-7.3-2.3c0.2,0.3,0.4,0.6,0.7,0.9c1.4,0.3,2.8,0.8,4.1,1.7
							c0.3,0.2,0.7,0.5,1.1,0.7c0.6-0.1,1.2-0.3,1.8-0.5c0.1,0.1,0.2,0.2,0.2,0.3c1,1.4,2.6,1.7,4.5,1.2c-0.4-0.2-0.7-0.4-1.1-0.6
							C156.6,134.1,155.2,133.6,153.8,133.4z"/>
					</g>
					<path class="st15" d="M147.5,156.1c-2.4-1.8-4.5-1.8-6.6-1.7c-2.1,0.1-4.2,0.3-6.5-1.1c-3.4-1.9-6.8-2.5-10.2-2.8
						c7.3,2.6,14.7,5.5,22.9,7C147,157.2,147.1,156.7,147.5,156.1z"/>
					<path class="st16" d="M170.7,147.9c-1.6,1.3-3.6,1.7-6.2,1.1c-4.4-1.4-7.7-4.5-11.3-5.1c-4.9-1.3-10.6-1-16.1-1.3
						c-5.5-0.3-10.7-1.2-15.1-5.2c-4.1-3.4-9.2-4.7-14.5-4.8c-2.7-0.1-5.4,0.1-8.1,0.4c-1.4,0.2-2.7,0.2-4.1,0.4
						c-1.3,0.2-2.7,0.3-4.1,0.4c-0.5,0-1.1,0.2-1.7,0.4c-0.6,0.2-1.2,0.5-1.8,0.8c-1.2,0.6-2.4,1.2-3.4,1.3
						c-7.1,1-13.4,2.4-19.7,3.8c-4.9,1.2-6.6-2.9-12.1-0.7c-0.7,0.2-2.5-1.2-3.2-1c-8,2.3-16.2,4.1-24.5,4.9
						c-8.3,0.8-16.5,0.4-24.2-1.4c-0.4,1.9-0.7,3.7-0.7,5.4c1.4,0.1,2.9,0.2,4.3,0.4l2.2,0.3l2.2,0.2c1.5,0.1,2.9,0.3,4.4,0.5
						c1.5,0.1,2.9,0.2,4.4,0.3c0.7,0,1.5,0.1,2.2,0.2c0.7,0,1.5,0,2.2,0.1c1.5,0,2.9,0.1,4.3,0.1c1.4,0,2.8-0.1,4.3-0.1
						c0.7,0,1.4-0.1,2.1-0.1c0.7-0.1,1.4-0.1,2-0.2c7.4-0.4,14.6-2.2,21.6-3.8c7-1.7,14-3.4,21.1-3.8c6.7-0.5,13.6-0.7,20.1-1.2
						c0-0.3-0.1-0.7-0.1-1.1c0.6,0.4,1.1,0.8,1.7,1l0.8-0.1c0.3-0.2,0.6-0.3,0.9-0.1c-0.3,0-0.6,0.1-0.9,0.1
						c-0.1,0.1-0.2,0.2-0.4,0.3c2.5,0.8,5,0.2,7.5-0.3c1.2-0.2,2.4-0.5,3.4-0.6c1-0.1,2,0.1,2.7,0.5c4.8,3.3,10.6,4.1,16.5,4.9
						c5.9,0.7,11.7,1.1,16.2,3.4c4.6,1.9,9.1,3,13.5,3.3c4.4,0.2,8.5-0.4,12.3-2.3C171.1,148.5,170.9,148.2,170.7,147.9z"/>
					<path class="st9" d="M170.4,139.7c-0.3-0.5-0.5-1-0.7-1.4c-3.2,2.2-7.2,3-11.3,2.8c-4.1-0.1-8.4-1.1-12.4-2.3
						c-0.7-0.2-1.7-2.2-3-3.3c-3.3-1.6-6.4,2.2-9,0.7c-5.8-3.1-11.9-5.3-18.4-6.7c-3.2-0.7-6.5-1.2-9.8-1.4c-3.3-0.3-6.7,0-10,0.1
						c-6.6,0.6-13.1,2-19.3,3.6c-6.2,1.7-12.4,3.6-18.5,5.3c-1.4,0.3-1-4.3-3.3-4.6c-2.9,0.2-5.6,0.9-8.1,1.2
						c-1.3,0.2-2.6,0.3-3.8,0.3c-1.3,0-2.6-0.2-3.9-0.6c-0.9-0.7-2.4,2.3-4.3,3.5c-3.5,2-7.2,2.2-10.8,2.1c-1.8-0.1-3.6-0.2-5.4-0.1
						c-1.8,0-3.5,0.1-5.4,0.6c-1.9,0.6-3.9,0.6-5.9,0.6c-1.9-0.2-3.9-0.5-5.9-0.3c-0.2,0.6-0.3,1.2-0.4,1.8
						c7.6,1.9,15.9,2.2,24.2,1.4c8.3-0.8,16.5-2.6,24.5-4.9c0.7-0.2,2.5,1.2,3.2,1c4.2-1.7,5.9,2.2,12.1,0.7
						c6.4-1.5,12.6-2.8,19.7-3.8c1.1-0.1,2.2-0.7,3.4-1.3c0.6-0.3,1.2-0.6,1.8-0.8c0.6-0.2,1.2-0.4,1.7-0.4c1.4-0.1,2.7-0.3,4.1-0.4
						c1.3-0.2,2.7-0.3,4.1-0.4c2.7-0.3,5.4-0.5,8.1-0.4c5.3,0.2,10.4,1.4,14.5,4.8c4.4,3.9,9.6,4.8,15.1,5.2
						c5.5,0.3,11.1,0,16.1,1.3c3.6,0.7,6.8,3.8,11.3,5.1c2.7,0.7,4.7,0.2,6.2-1.1c-1.6-2.2-2.1-5.3-1.9-8.2
						C169.2,139.7,169.8,139.7,170.4,139.7z"/>
					<path class="st17" d="M173.9,146.4c-1-4.2-2.2-7-2.8-8.1c-0.6-1.1-0.7-0.5,0.5,2.1c-0.6,0-1.2,0-1.6,0c-0.1,3,0.4,6,2,8.2
						C172.8,147.9,173.4,147.2,173.9,146.4z"/>
					<path class="st17" d="M169.3,137.5c-0.8-0.2-1.5-0.3-2.3-0.5c-5,1.1-10.4,0-14.5-2.6c-1.9,0.3-3.6,0-4.5-1.4
						c-0.2-0.4-0.4-0.7-0.7-1c-4.8-1-10.3,0.2-15.7-1.7c-1.4-0.3-1.6-3-2.4-3.2c-1.5,0.1-3.1,0.3-4.7,0.5c-1.6,0.3-3.2,0.6-4.8,1.3
						c-1.2,0.3-2.2-0.6-3.2-1.5c-1-0.9-2.1-1.9-3.2-2.1c-4.9-1.4-10.1-2.5-15.3-2.8c-5.3-0.5-10.4-0.4-15.6-0.1
						c-1.6,0.2-3.7,1.5-5.2,1.7c-0.9,0-1.7,0.1-2.5,0.2c-0.8,0.1-1.5,0.3-2.3,0.4c-1.5,0.3-2.8,0.8-4.2,1.3c-2.6,1-5.2,2.3-8.3,3.5
						c-7.7,2.7-15.4,1.1-23.4,3.6c-1.9,1.3-5.9-1.5-7.7-0.4c-1.6,0.7-3.1,1.2-4.6,1.6c-1.5,0.3-2.9,0.5-4.3,0.7
						c-1.4,0.2-2.8,0.2-4.2,0.2c-0.7,0-1.4,0-2.1,0c-0.4,0-0.7,0-1.1,0c-0.3,0-0.7,0-1,0c-1.2,0-2.5,0.8-3.8,0.8
						c-0.5,0.1-1.1,0.2-1.6,0.1c-0.5,0-1-0.1-1.5-0.1c-1-0.1-1.9-0.3-2.9-0.4l-0.4,3c-0.1,0.5-0.2,0.9-0.4,1.4
						c2-0.2,3.9,0.1,5.9,0.3c2,0,3.9,0,5.9-0.6c1.8-0.5,3.6-0.7,5.4-0.6c1.8,0,3.6,0.1,5.4,0.1c3.6,0.1,7.3,0,10.8-2.1
						c1.9-1.2,3.4-4.3,4.3-3.5c1.3,0.4,2.6,0.6,3.9,0.6c1.3,0,2.6-0.1,3.8-0.3c2.6-0.4,5.2-1,8.1-1.2c2.3,0.3,1.9,4.9,3.3,4.6
						c6.1-1.7,12.2-3.6,18.5-5.3c6.3-1.7,12.7-3,19.3-3.6c3.3-0.2,6.7-0.4,10-0.1c3.3,0.2,6.6,0.7,9.8,1.4
						c6.4,1.4,12.5,3.7,18.4,6.7c2.6,1.5,5.7-2.3,9-0.7c1.2,1.2,2.3,3.2,3,3.3c4,1.1,8.3,2.1,12.4,2.3c4.1,0.2,8.1-0.6,11.3-2.8
						C169.4,137.8,169.3,137.5,169.3,137.5z"/>
					<path class="st15" d="M81.9,145.7c3-0.5,5.9-0.7,9-0.9c0.2,0,0.7,0,1.3,0c-1.7-0.1-3.5-0.1-5.2,0c-0.9,0.1-1.7,0.1-2.6,0.3
						C83.6,145.2,82.7,145.4,81.9,145.7z"/>
					<path class="st15" d="M97.2,144.8c1.6,0.1,3.3,0.2,4.8,0.3c1.5,0.2,2.9,0.4,3.9,0.5c-1-0.8-2.1-1.4-3.2-1.9
						c-1.1-0.5-2.4-0.7-3.6-0.7C99,143,97.8,144.7,97.2,144.8z"/>
					<g>
						<path class="st18" d="M152.9,158.4c5.7,0.5,11.9,0.2,18.2-1.6C164.9,156.2,159,157.1,152.9,158.4z"/>
						<path class="st15" d="M171.4,148.8c-3.7,1.9-7.9,2.5-12.3,2.3c-4.4-0.3-8.9-1.5-13.5-3.3c-4.4-2.2-10.3-2.7-16.2-3.4
							c-5.9-0.7-11.7-1.6-16.5-4.9c-0.7-0.5-1.6-0.6-2.7-0.5c-1,0.1-2.2,0.3-3.4,0.6c-2.4,0.6-5,1.1-7.5,0.3c-1,0.8-1.8,2.2-2.1,0
							c-6.5,0.6-13.5,0.7-20.1,1.2c-7.1,0.5-14.1,2.2-21.1,3.8c-7,1.7-14.2,3.4-21.6,3.8c-0.7,0.1-1.4,0.2-2,0.2
							c-0.7,0-1.4,0.1-2.1,0.1c-1.4,0.1-2.8,0.1-4.3,0.1c-1.4,0-2.9-0.1-4.3-0.1c-0.7,0-1.5,0-2.2-0.1c-0.7,0-1.5-0.1-2.2-0.2
							c-1.5-0.1-2.9-0.2-4.4-0.3c-1.5-0.2-2.9-0.3-4.4-0.5L6.5,148l-2.2-0.3c-1.4-0.2-2.9-0.3-4.3-0.4c-0.2,5,1.4,8.9,5.7,9.3
							c8.2,1.8,15.9,1.8,22.9,1.1c1.8-0.2,3.5-0.4,5.2-0.7c1.7-0.3,3.3-0.6,5-0.9c1.7-0.3,3.3-0.7,4.9-1.1c1.6-0.4,3.2-0.8,4.8-1.2
							c4.5-2.1,9-3.8,13.5-4.4c-2.2,0.7-4.5,1.7-6.7,2.8c5.6-1.6,11-3.2,16.7-4.6l-0.5,0c1.4-0.3,2.7-0.6,4.1-0.8
							c1.7-0.6,3.4-1,5.2-1.1c1.8-0.2,3.6-0.3,5.3-0.3c1.2-0.1,3-0.2,5-0.3c0.3-0.1,2-0.4,3.9-0.5c0.5,0,1-0.1,1.4-0.1
							c0.5,0,0.9,0.1,1.4,0.1c0.9,0.1,1.6,0.3,2.2,0.7c0.7,0,1.1,0.1,1.3,0.1c5.7,0.5,11.2,2.1,16.6,3.9c3.3,0.2,6.7,0.7,9.9,2.5
							c4.4,2.7,12.2,3.8,12.3,4.2c1.9,0.4,3.7,0.7,5.7,0.9c5.9-1.2,11.7-1.8,17.7-0.8c1.6-0.4,3.3-0.8,4.9-1.4c3-1,4.2-2.9,4.5-5.1
							C172.3,149.6,171.8,149.2,171.4,148.8z"/>
					</g>
				</g>
			</g>
		</g>
	</g>
</g>
<g class="st19">
	<g>
		<g>
			<g class="st20">
				<g class="st20">
					<g>
						<path class="st21" d="M178.3,116.3c-0.1,0.1-0.2,0.3-0.3,0.4l-1.4-0.1l-1,1.8c-0.4,0.2-0.8,0.4-1.1,0.6
							c-0.4,0.4-1.1,0.1-1.9,0.1c-1.3,0.5-2.1,0.6-2.8,1.2c0.2,1.7-2.5,0.4-4.1,0.6c-0.1,0.6-0.1,1.2-0.2,1.8
							c-0.8-0.3-1.3,0.4-2.4,0c-1.1,1.5-2.2,1.6-3.4,1.6c-0.2,0.1-0.4,0.3-0.6,0.4l-1.3-0.5c-1.1,0.4-0.5,1.5-0.8,2.2
							c-0.8-0.3-1.5-0.6-2.4-0.9c-0.2-0.2-0.3-0.5-0.4-0.7c0.1-0.5,0.2-1.1,0.4-1.6l0.9-1.1c1.1-0.1,1.5-0.3,1.4-0.6
							c0.6-1.3-1.3-0.9-2.1-1.1c0-0.2-0.1-0.5-0.2-0.7l1.5-1c1.6-0.3,1.2-1.5,2.8-0.9c0.1-0.3,0.2-0.6,0.3-0.9
							c0.4-0.1,0.8-0.2,1.2-0.4c0.2,0.1,0.3,0.2,0.5,0.3c-0.1,0.4-0.2,0.7-0.4,1.1c-0.1,0.2-0.6,0.6-1.4,0.4
							c0.3,1.5-0.4,2.9-1.1,3.6c0.5,0.7,1-0.2,1.6,0.1c0.5-0.1,1.1-0.1,1.7-0.1c0.1-0.9,0.1-1.1,0.1-1.4c0.5,0,1.1,0.1,1.6,0.4
							c0.9-0.3,1.4-0.3,2-0.6c0.2-1.1,0.9-0.7,1.2-0.8c1.4-1.6,3.1-2,5.1-1.9c0.1,0.4,0.9,0.6,1.5,0.8c0.8-0.7,1.5-1.1,1.3-2
							c-0.2-0.1-0.4-0.2-0.5-0.2c-0.9-0.2-1.8-0.3-2.7-0.5c-0.3,0-0.7,0.1-1.1,0.1l-1,1.1c-0.6-0.7-2.1-0.8-3.1-1.2
							c-0.3-0.3-0.7-0.6-1-1c0.8-0.6,1.8-0.2,3-0.2c1.1,0.2,2.2,0.5,3.2,0.7c0.8-0.1,1.7-0.2,2.5-0.2c1.7,0,3-0.9,3.8,0.1
							c0.5,0.2,0.9,0.4,1.3,0.5L178.3,116.3z"/>
					</g>
					<g>
						<path class="st1" d="M172.7,118.4c-0.6-0.2-1.4-0.4-1.5-0.8c-2-0.1-3.7,0.3-5.1,1.9c-0.3,0.1-0.9-0.3-1.2,0.8
							c-0.6,0.3-1.1,0.2-2,0.6c-0.5-0.3-1.1-0.3-1.6-0.4c0,0.2,0,0.5-0.1,1.4c-0.6,0-1.1,0.1-1.7,0.1c-0.7-0.3-1.2,0.5-1.6-0.1
							c0.7-0.7,1.4-2,1.1-3.6c0.8,0.3,1.3-0.2,1.4-0.4c0.1-0.4,0.3-0.7,0.4-1.1c0.6,0,1.1,0.1,1.6,0.1c0.6,0,1.1,0.1,1.6,0.1
							c0.1-0.9,2,0.1,1.5-1.3c1,0.4,2.5,0.5,3.1,1.2l1-1.1c0.3-0.1,0.8-0.1,1.1-0.1c0.9,0.1,1.8,0.3,2.7,0.5
							c0.2,0.1,0.3,0.2,0.5,0.2C174.1,117.3,173.5,117.7,172.7,118.4z"/>
					</g>
					<g>
						<path class="st6" d="M165.6,115.7c0.6,1.3-1.4,0.4-1.5,1.3c-0.6,0-1.1-0.1-1.6-0.1c-0.6,0-1.1-0.1-1.6-0.1
							c-0.2-0.1-0.3-0.2-0.5-0.3c-0.4,0.2-0.8,0.3-1.2,0.4c-0.1,0.3-0.2,0.6-0.3,0.9c-1.7-0.6-1.3,0.6-2.8,0.9l-1.5,1
							c0,0.2,0.1,0.5,0.2,0.7c0.8,0.2,2.8-0.3,2.1,1.1c0.1,0.2-0.3,0.5-1.4,0.6l-0.9,1.1c-0.1,0.5-0.2,1.1-0.4,1.6
							c-0.9,0.2-1.7,0.3-2.5,0.5l-0.5,0c-0.4,0.2-0.8,0.3-1.1,0.4c-0.3-0.5-0.5-0.9-0.7-1.4c-0.9-0.5-0.5,0.9-1.4,1
							c-0.9-0.4-1.8-0.7-2.6-1.1c-2.6,0.3-3-2.6-5.6-1.7c-0.8-0.3-1.5-0.6-2.4-0.8c-1.1,0.2-2.2,0.5-3.3,0.7l-2.2-0.1
							c0.1-0.2-0.1-0.3-0.2-0.5c-1.1-0.1-1.2,1.6-3.3,1c-0.4-0.1-0.9-0.2-1.3-0.3c-0.9,0-1.8,0.1-2.7,0.1c-1,0-2-0.1-3-0.1
							c-0.2,0-0.3,0-0.6,0c-1.3-0.3-0.3-1.2-1-1.6c-0.9-0.2-2.4,0.3-2.7-0.8c-0.8-0.1-1.6-0.2-2.4-0.3c-1.1,0.2-1.5,1-2.5,0.6
							c-0.6,0-1.1,0-1.6-0.1c-0.2,0-0.3,0-0.6,0c-0.3,0.8-1.2,0.6-1.6,0.4c-0.6,0.1-1.3,0.1-1.9,0.2c-0.1-0.9-1.6-0.1-2.1-1
							c-1.1-0.3-2.2-0.5-3.3-0.7c-1.4,0.5-2.7,2.6-2.8,0.8c-1-0.3-2.2,0.5-3.5-0.1c-1.1-0.2-2.2-0.3-3.3-0.5
							c-0.5,0.2-1.1,0.5-1.7,0.7c-0.5,0-1.1,0-1.6,0c-0.6,0-1.1,0.1-1.7,0.2c-0.9,0.6-2.2,1.1-2.2,0l-0.5,0c-0.2,1-1.2,0.4-1.4,1
							c-0.2,0.3-1.2,0.3-1.6-0.2c-0.2,0-0.3,0-0.6,0c-0.6,0.1-1.2,0.2-1.9,0.3c-0.3,0.9-1.2,0.6-1.6,0.4c-0.9,0.1-1.8,0.2-2.7,0.3
							c-0.8,0.1-1.6,0.2-2.4,0.3c-0.1,1.1-1.9,0.8-3-0.4c-0.3,0-0.7,0-1.1,0c-0.3,0.3-0.6,0.6-0.8,0.9c-0.8,0-2,0.2-2.4-0.4
							c-0.3,0-0.7,0-1.1,0c-0.9,0.7-1,0-1.6,0.1c-0.1,0-0.2,0-0.3,0l0,1.6c-0.7,1.3-1.4-0.2-2.2-0.3c-0.3-0.1-0.4,0.1-0.6,0.3
							c0,1.8-1.9-0.7-2.7,0.8c-0.8,0.1-0.5-1.5-1.9-0.8c-0.3,1.7-3.1,0.7-4.6,0.6c-0.3,0.5-0.7,1-1,1.4c-3.2-1.2-4.4,2.5-8,2.1
							c-1.2-0.7-2.3,0.7-3.5,0c-0.3,3-5.5,0.2-5.5,3.2c-1.3,0.2-3.1-0.1-4,0.8c-0.8-1-0.9-1.1-1.1-1c-0.5,0.4-0.2,0.9-0.2,1.4
							c-0.6,0-1.1,0-1.6-0.1c0.4-1-0.8-0.8-1.2-1.3c-1.1,1.8-2.9-0.8-4.7-0.5c-1.3,0.6-0.3,3-2.5,2.1c-0.8,1.2-1.1,1.2-2.6,1
							c-0.8-0.9-1.9-0.8-3.1-1.3c-0.1-0.4-0.2-0.7-0.3-1.1c-0.3-0.2-0.6-0.4-0.9-0.6c-0.8-1.3-1.1-2.3-2.2-2.7
							c0-0.4,0.1-0.8,0.1-1.2c1.2-0.4,1.4-0.9,1.9-0.9c0.4,0.5,0.8,1,1.2,1.5c0.6-0.4,1.2-0.8,1.8-1.1l1.9-0.2
							c0.2-0.5,0.5-1,0.7-1.5c0.2-0.1,0.3-0.2,0.5-0.3c0.9,0.2,1.7,0.4,2.6,0.6c0.5,0.3,0.9,0.7,1.5,1c0,0.3,0.1,0.6,0.1,1.1
							c1,0,2,0,3,0c0.9,0,1.6,0,2.5,0c0.2,0.3,0.6,0.6,0.9,0.8c0.3-0.3,0.5-0.7,0.7-1c0.7-0.3,1.2,0.5,1.6-0.1
							c-0.6-1,0.7-0.7,2.4-1.1c0.4,0.1,0.8,0.2,1.2,0.3c0.9-0.6,0.7-1.1,1-1.5l1.3-0.5c-0.4-0.8,0.6-0.9,1-1.2
							c1.4,0.4,1.6-1.1,3-0.7c0.6-0.3-0.1-1.1,0.5-1.2c0.2,0,0.4,0,0.6,0c0.2,0.4,0.4,0.7,0.6,1.1c0.2,0,0.5-0.1,1.6-0.8
							c0.1,0.4,0.3,0.9,0.4,1.4c0.6,0,1.1,0.1,1.7,0.1c0.2-0.2,0.3-0.3,0.5-0.5c1.1-0.1,2.2-0.3,3.2-0.4c-0.1,1.8,2.1-0.7,2,1.3
							l0.5,0c0-1.3-0.5-1.5-0.3-2.5c0.5,0,1.1,0.1,1.6,0.1c0,0.4,0,0.9,0,1.4c1.6,1,0.6-1.2,1.6-1.2c0.6,0.2,1.1,0.4,1.7,0.6
							c0.2,0.3,0.5,0.2,0.8,0.2c0.5-0.3,0.2-0.8,0.3-1.2l1.4-0.1c1-0.3,0.3-1.3,1-1.4c1,1.1,1.3,1.6,2,2.9c0.3-0.5,0.7-1.1,1-1.6
							c0.4-0.4,1.1-0.2,1.6-0.3c0.3,0.5,0.8,0.9,0.6,1.8c0.2,0.1,0.5,0.2,0.8,0.2c0.3-0.4,0.6-0.8,0.8-1.2c0.5,0,0.9,0,1.4,0.2
							c0.7-0.1,1.5-0.2,2.2-0.3c0.8,0.2,1.7,0.3,2.4,0.4c0.7-0.3,1.4-0.6,2.2-1c0.7-0.2,1.5-0.4,2.2-0.5c1.3,0.2,2.5,0.5,3.8,0.6
							c0.2,0,0.3,0,0.6,0c0-0.2,0-0.4,0-0.7c0.3-0.2,0.7-0.5,1.1-0.7c0.5-0.2,0.9-0.3,1.4-0.5c0.5,0,1.1,0,1.6,0c0.3,0,0.7,0,1.1,0
							c1.2,0.7,1.4,0.3,1.9,0.5c0.7-0.2,0.4-0.9,0.9-1.1c0.3,0,0.7,0,1.1,0c1.7,1.1,2.6,0.4,3.8,0.7c0.6,0,1.1,0,1.7,0
							c0.3-0.4,0.6-0.8,0.8-1.1l1.4-1.1c0.6-0.1,1.1-0.3,1.7-0.4l1.3,0.7c0.7,0.2,1.5,0.3,2.2,0.5c0.2,0.2,0.4,0.3,0.6,0.5
							c0.4-0.3,0.8-0.6,1.1-0.9c0.6-0.2,1.3-0.5,2-0.7c0.1,0,0.2,0,0.3,0c0.2,0.5,0.5,1,0.7,1.4c0.2,0,0.3,0,0.6,0
							c0.5-0.8,0-1,0.1-1.4l0.5-0.4c1.8,0,0.9,1.8,2.7,1.2c0.1-0.4,0.3-0.8,0.3-1.1l1.4,0c0.7,0.3,1.5,0.5,2.1,0.7
							c1.1,0.2,2.2,0.4,3.3,0.6c1.1-0.8-0.7-0.7-0.5-1.6c1-0.9,0.8-1,0.6-1.1c-0.7-0.3-0.8,0.5-1.4,0.4c-0.1-0.1-0.2-0.1-0.3-0.2
							c0-0.5,0.1-1,0.1-1.6c0.2-0.3,0.4-0.6,0.6-0.9c0.1,0,0.2-0.1,0.3-0.2c0.7,0.1,1.4,0.2,2.2,0.3c-0.1,0.2,0.1,0.3,0.3,0.5
							c0.7,0.3,0.8-0.5,1.4-0.4c0.5,0.4,1,0.7,1.6,1c1.1,0.5,1.5-0.7,2.5-0.6c0.3,0,0.5,0,0.8,0c0.5,0.1,0.9,0.2,1.4,0.3
							c1.7-0.4,4.2,0,6.3,0.1c1.1-0.1,2,1.4,2.9,0.4c1.9,0.4,4.4-0.6,5.4,0.7c1.1-0.6,3.2-0.2,4.5-0.9c0.8,0.3,1.6,0.6,2.4,0.9
							c1.6-0.3,3.7,0.2,4.7-0.8c0.6,0.3,1.3,0.5,1.9,0.8c0.6,0,1.2,0.1,1.6-0.1c1.7,0.5,3.1,0.3,3.1,1.8c0.2,0,0.4-0.1,0.6-0.2
							c0.3,0,0.7,0.1,1.1,0.1c0.1,0,0.2,0,0.3,0c0.5-0.2,0.9-0.4,1.4-0.6c0.2,0,0.5,0,0.8,0.1c0.3-0.1,0.6-0.1,0.8-0.2
							c0.4,0,0.8-0.1,1.2-0.1C164.9,115.1,165.3,115.4,165.6,115.7z"/>
					</g>
					<g>
						<path class="st21" d="M146.6,126.9c-0.3,0.1-0.7,0.1-1.1,0.2c-0.6-0.1-1.1-0.2-1.6-0.3c-0.3,0-0.6,0-0.8,0
							c-1-0.4-1.9-0.8-2.9-1.3c-0.1,0-0.2,0-0.3,0l-2.8,0.5c-0.3,0-0.7,0-1.1-0.1c-0.1-0.5-0.3-1.1-0.4-1.6c-0.9,0-1.8-0.1-2.7-0.4
							c-0.2,0.4-0.4,0.7-0.6,1.1c-0.9,0.1-2.2-0.5-2.5,0.3c-0.5,0.8,0.6,1,1.3,1c1-0.3,0.9,0.6,1.3,1c-0.4,0.3-0.7,0.6-1.1,0.9
							c-1.2-0.4-4.6,0.7-3.7-1.3c-1.1,0-2.1,0-3.5-0.4c0,0.4,0.1,0.8,0.2,1.1c0.5,0.4,2.2,0,1.6,1.2l-3.2-0.1
							c-0.5-0.3-1.1-0.5-1.6-0.8c0.3-0.5-0.3-0.7-0.5-1.4c-0.9,0.3-1.8,0.5-2.8,0.8c-0.8,0.7-0.7,1.1-1.4,1.7c-0.6,0-1.2,0-1.9-0.1
							c-1.5-0.9,0-1.8-0.1-3c-0.2-0.1-0.3-0.3-0.5-0.5c-1.4,0.3-2.9,0.5-4.4,0.8c-1.1,1.1-3.8-0.6-4.1,1.2c-1,0-2.2-0.1-2.9,0.4
							c-1.2,2.2,1.1,1.4,1.3,2.3c-0.5,0.9-1.4,0.4-1.7,1.1c-1.1,0.2-2.7,0.4-4.1,0.6c-0.1,0-0.2,0-0.3,0c-0.2,0-0.3,0-0.6,0
							c-0.7,0.3-1.4,0.6-2.2,0.9c-0.3,0.1-0.5,0.2-0.8,0.2c-0.4-0.2-0.9-0.4-1.3-0.7c-1.3,0.6-2.5-0.2-3.7-0.3
							c0.2-1.3,1.8-2.2,3.2-1.8c0-1.3,2-0.3,2.7-0.9c0.3-2.1-3.2-1.6-2.6-4.1c1.2-1.5,3.1-0.9,2.8-2.5c1.3-0.3,1.8,1.1,3.3,0.5
							l0-1.1c-3.2,0.1-6.4-0.9-8.7-0.1c1.4,2-2.8,0.7-1.1,2.5c0.6,0.1,1.2,0.2,1.9,0.2c-0.8,1-1.4,0.9-1.9,0.7
							c-0.4,0.4-0.7,0.8-1.1,1.1c-1.2,0.6-1.9,0.6-3.3,0.9c0.1,1.9-3.9,0-2.4,2.5c0.4,1.4-1.2,0.2-1.9,0.4c-0.2-0.8-1.6-0.3-2.4-0.4
							c-0.3,0.5-1.1,0.8-0.8,1.6c1.2-0.2,0.3,1.2,1.6,0.9c-0.3,0.5,0.7,2.1-0.8,1.6c0.8,2.5-2.5,1.8-3.2,3.2c-0.7,1-2.3,1-3.8,1
							c-1.2,2-4.1,2.2-6.6,3.1l0,1.1c-0.1,0-0.2,0-0.2,0c-0.7-0.4-1.2-0.5-1.6-0.6c-0.2,0.6-0.4,1.2-0.5,1.8
							c-0.3,0.5-0.5,1.1-0.7,1.6c-0.6,0-1.3,0-1.9,0.1c-1.3-1.7,1-2.2,1.5-3.3c0.4-0.2,0.9-0.5,1.3-0.7c0.3-0.4,0.5-0.8,0.7-1.2
							c0.5-0.7,2.3,0,1.9-1.4c1.3,0.2,1.5-0.9,2.1-1.4c0.4-0.8-0.7-1.2-1.4-1.3c-2.3,1.4-2.8-1.8-4.5,0.3c-1.5-0.7-4,0-4.9-1.1
							c-0.7-0.6-1.2-0.7-1.4-1.6c-1.1,0.3-2.3,1.9-4,1.1c-0.7-0.3-0.6-2.1-2.5-1.7c-0.2,0.4-0.3,0.9-0.4,1.4
							c-1.2,0.4-2.2-0.4-1.4-1.3c0.3-0.1,0.8,0.1,1.3-0.3c-0.3-0.3-0.6-0.6-0.9-0.9c-1.6-0.3-3.1,1.5-4.7,1.6
							c-0.1-0.8-0.8-1.3-2-1.3c-0.6,0.8-2.1,1.2-2.7,0.2c-0.9,0.4-1.8,0.7-2.6,1.1c-0.3,0.4-0.2,0.9-0.2,1.4c-1.5,0-3.3,0.5-4.9,0.8
							c-1.6,0.3-3.1,0.2-4.3-0.9c-1.2,0.2,0.5,1.9-1.2,1.7c-1.7-0.1,0-3.2-2.9-2.3c0.1,0.9,0.1,1.1,0.1,1.4c-0.5,0-1.4,0.3-1.7-0.3
							c-1.9,0.4-0.1,2.3-2.3,1.8c-0.2,0.5-0.4,1-0.9,1.5c-0.7,0.2-1.4,0.3-2.1,0.5c0-0.5,0.1-0.9,0.1-1.4c-0.4-0.3-0.8-0.7-1.2-1
							c-0.8-0.1-2.1,0.6-2.4-0.2c-0.4-0.8-0.7-1.6-1-2.4c-0.5-0.3-1-0.7-1.5-1l-1-1c-0.3,0-0.7,0.1-1.1,0.1c0-0.1,0-0.2,0-0.2
							c0-0.4,0.1-0.8,0.2-1.2c0.3-0.6-0.7-0.6-0.7-1.1c0.2-0.7,0.4-1.4,0.6-2.1c1.1,1.1,1.4,1.5,2.1,2.3c0,0.2,0,0.3,0,0.5
							c0.3,0.2,0.6,0.4,0.9,0.6c0.1,0.4,0.2,0.7,0.3,1.1c1.2,0.5,2.4,0.4,3.1,1.3c1.5,0.3,1.8,0.3,2.6-1c2.2,0.9,1.2-1.6,2.5-2.1
							c1.8-0.4,3.6,2.3,4.7,0.5c0.4,0.4,1.5,0.3,1.2,1.3c0.6,0,1.1,0.1,1.6,0.1c0-0.5-0.3-1,0.2-1.4c0.2-0.1,0.3,0.1,1.1,1
							c1-0.9,2.7-0.5,4-0.8c0-3,5.2-0.2,5.5-3.2c1.2,0.7,2.3-0.7,3.5,0c3.6,0.4,4.8-3.3,8-2.1c0.3-0.4,0.7-0.9,1-1.4
							c1.5,0.1,4.3,1,4.6-0.6c1.4-0.6,1.1,0.9,1.9,0.8c0.8-1.5,2.7,1,2.7-0.8c0.2-0.1,0.3-0.3,0.6-0.3c0.7,0.1,1.4,1.6,2.2,0.3
							l0-1.6c0.1,0,0.2,0,0.3,0c0.6-0.1,0.7,0.7,1.6-0.1c0.3,0,0.7,0,1.1,0c0.4,0.6,1.6,0.3,2.4,0.4c0.3-0.3,0.6-0.6,0.8-0.9
							c0.3,0,0.7,0,1.1,0c1.1,1.2,3,1.5,3,0.4c0.8-0.1,1.6-0.2,2.4-0.3c0.9-0.1,1.8-0.2,2.7-0.3c0.5,0.2,1.3,0.4,1.6-0.4
							c0.6-0.1,1.2-0.2,1.9-0.3c0.2,0,0.4,0,0.6,0c0.4,0.6,1.5,0.6,1.6,0.2c0.2-0.5,1.1,0,1.4-1l0.5,0c0,1.1,1.3,0.6,2.2,0
							c0.5,0,1.1-0.1,1.7-0.2c0.5,0,1.1,0,1.6,0c0.6-0.2,1.1-0.5,1.7-0.7c1.1,0.2,2.2,0.3,3.3,0.5c1.3,0.5,2.5-0.2,3.5,0.1
							c0.1,1.7,1.3-0.3,2.8-0.8c1.1,0.2,2.1,0.5,3.3,0.7c0.5,0.8,2,0,2.1,1c0.6,0,1.3-0.1,1.9-0.2c0.4,0.2,1.3,0.5,1.6-0.4
							c0.2,0,0.4,0,0.6,0c0.6,0,1.1,0,1.6,0.1c1,0.3,1.3-0.4,2.5-0.6c0.8,0.1,1.6,0.2,2.4,0.3c0.3,1.1,1.8,0.6,2.7,0.8
							c0.7,0.4-0.3,1.3,1,1.6c0.2,0,0.4,0,0.6,0c1,0,2,0.1,3,0.1c0.9,0,1.8-0.1,2.7-0.1c0.4,0.1,0.9,0.2,1.3,0.3
							c2.1,0.6,2.2-1,3.3-1c0.2,0.2,0.4,0.3,0.2,0.5l2.2,0.1c1.1-0.2,2.2-0.5,3.3-0.7c0.8,0.2,1.6,0.5,2.4,0.8c2.6-0.9,3,2,5.6,1.7
							c0.9,0.4,1.8,0.7,2.6,1.1c0,0.1,0,0.1,0,0.2C147.4,125.9,147,126.4,146.6,126.9z"/>
					</g>
					<g>
						<path class="st22" d="M115.4,111.6c-0.1,0.1-0.2,0.2-0.3,0.2c-0.2,0.3-0.4,0.6-0.6,0.9c0,0.6-0.1,1.1-0.1,1.6
							c0.1,0.1,0.2,0.1,0.3,0.2c0.6,0.1,0.7-0.7,1.4-0.4c0.2,0.2,0.3,0.2-0.6,1.1c-0.2,0.9,1.6,0.8,0.5,1.6
							c-1.1-0.2-2.1-0.4-3.3-0.6c-0.7-0.3-1.4-0.5-2.1-0.7l-1.4,0c-0.1,0.4-0.2,0.8-0.3,1.1c-1.7,0.6-0.9-1.2-2.7-1.2l-0.5,0.4
							c-0.1,0.4,0.4,0.5-0.1,1.4c-0.2,0-0.4,0-0.6,0c-0.3-0.4-0.7-0.9-1-1.4c-0.6,0.2-1.3,0.5-2,0.7c-0.4,0.3-0.8,0.6-1.1,0.9
							c-0.2-0.1-0.3-0.3-0.6-0.5c-0.7-0.1-1.4-0.3-2.2-0.5l-1.3-0.7c-0.5,0.2-1.1,0.3-1.7,0.4l-1.4,1.1c-0.2,0.4-0.5,0.8-0.8,1.1
							c-0.6,0-1.1,0-1.7,0c-1.2-0.2-2.1,0.4-3.8-0.7c-0.3,0-0.7,0-1.1,0c-0.5,0.3-0.2,0.9-0.9,1.1c-0.5-0.2-0.6,0.2-1.9-0.5
							c-0.4,0-0.7,0-1.1,0c-0.6,0-1.1,0-1.6,0c-0.5,0.1-0.9,0.3-1.4,0.5c-0.4,0.2-0.7,0.4-1.1,0.7c0,0.2,0,0.5,0,0.7
							c-0.2,0-0.4,0-0.6,0c-1.3-0.2-2.6-0.4-3.8-0.6c-0.7,0.1-1.5,0.3-2.2,0.5c-0.7,0.3-1.4,0.6-2.2,1c-0.8-0.1-1.6-0.2-2.4-0.4
							c-0.7,0.1-1.5,0.2-2.2,0.3c-0.5-0.2-0.9-0.2-1.4-0.2c-0.2,0.4-0.5,0.8-0.8,1.2c-0.3,0-0.6-0.1-0.8-0.2
							c0.2-0.9-0.3-1.3-0.6-1.8c-0.6,0.1-1.3-0.1-1.6,0.3c-0.3,0.5-0.7,1.1-1,1.6c-0.1,0-0.2,0-0.3,0c-0.2-0.6-0.4-1.2-0.5-1.8
							c-0.2-0.1-0.8-0.6-1.2-1.1c-0.7,0.1-0.1,1.1-1,1.4l-1.4,0.1c0,0.4,0.3,0.9-0.3,1.2c-0.3,0-0.6,0.1-0.8-0.2
							c-0.6-0.2-1.1-0.4-1.7-0.6c-1,0,0,2.2-1.6,1.2c0-0.5,0-1,0-1.4c-0.5,0-1.1-0.1-1.6-0.1c-0.2,1,0.3,1.2,0.3,2.5l-0.5,0
							c0.1-2-2.1,0.5-2-1.3c-1.1,0.1-2.1,0.3-3.2,0.4c-0.2,0.2-0.4,0.3-0.5,0.5c-0.6,0-1.1-0.1-1.7-0.1c-1-0.4-1.2-0.5-1.4-0.6
							c-1.1,0.5-0.5-0.5-1.1-1.1c-0.2,0-0.3,0-0.6,0c-0.6,0.1,0.1,0.9-0.5,1.2c-1.4-0.4-1.6,1.1-3,0.7c-0.4,0.4-1.5,0.4-1,1.2
							l-1.3,0.5c-0.3,0.4-0.1,0.9-1,1.5c-0.4-0.1-0.8-0.2-1.2-0.3c-1.6,0.4-2.9,0.1-2.4,1.1c-0.5,0.7-1-0.1-1.6,0.1
							c-0.2,0.3-0.5,0.7-0.7,1c-0.3-0.3-0.6-0.6-0.9-0.8c-0.9,0-1.6,0-2.5,0c-1,0-2,0-3,0c0-0.5-0.1-0.8-0.1-1.1
							c-0.5-0.3-1-0.7-1.5-1c0-0.4,0.1-0.9,0.1-1.4c0.4-0.1,0.7-0.2,1.1-0.3c0.9-0.3,1.9-0.7,2.9-1l0-0.4c0.9,0,1.7,0,2.5,0
							c0-0.4,0.1-0.9,0.1-1.3c0.6,0.1,1.2,0.2,1.7,0.3c0.5-0.3,0.1-0.8,0.2-1.2c0.2,0,0.3,0,0.6-0.1c0.2,0,0.5,0,0.8-0.1
							c0,0.2,0,0.3,0,0.5c0,0.4,0.1,0.9,0.1,1.4c-0.3,0.2-0.7,0.4-1.1,0.5l0.6,1.8c2-1,3.5-1.3,4-2.4c1.8-0.8,4.5-0.2,5.2-1.5
							c-0.9-0.1-1.2-0.1-1.4-0.1c-0.5-1,0.3-1.7,1.8-1.5c-0.4-0.9,0.3-1.5,0.2-2.1c1.4,0.8,1.4-0.8,2.7-0.7l-0.1-1.1
							c0.2-0.2,0.3-0.3,0.6-0.5c1,0,2,0.1,3,0.1c1.3-0.1,2.6-0.1,3.9-0.2c1,0.1,2,0.2,3,0.3l1.4,0.4c2.4,0.7,1.4-1,2.7-1
							c1,0.2,2,0.4,3.1,0.6c2,0.5,3.1-0.1,3.4,1c0.7-1,1.8-0.5,2.2-1c2.1-0.5,4.1-0.1,6.4-0.6c0.9-0.2,1.8-0.3,2.8-0.5
							c0.2,0,0.5,0,0.8,0c0.2,0.3,0.3,0.6,0.6,0.9c1,0.1,1.3-0.2,1.6-0.4c1.6-0.4,4.4-0.2,6.4-0.3c0.1-0.2,0.2-0.5,0.3-0.7
							c0.5,0.1,0.9,0.3,1.4,0.4c0.5,0,1.1,0,1.6,0c0.6-0.4,1.2-0.9,1.7-1.4c0.5-0.1,0.9-0.1,1.4-0.2c0.1,0.3,0.2,0.6,0.3,0.9
							c2.3-1.4,3.6,0.9,5.8-0.2c-0.4,0.8,1,0.9,1.4,0.5c0.3,0.1,0.5,0.2,0.8,0.2c0.2,0.6,0.3,1.2,0.5,1.9c1,0.2,2,0.3,3,0.5
							c0.7,0,1.3-0.1,1.9-0.2c0.7-0.7,1.4-1.5,2-2.2c-0.3-0.3-0.5-0.6-0.8-1c0.9-0.6,1.6-0.6,2.3-0.6c0.2,0.1,0.5,0.2,0.8,0.3
							c0.5-0.2,0.9-0.4,1.4-0.7c0.3,0.2,0.6,0.4,0.8,0.5c1.2-0.2,2.4-0.4,3.6-0.5c0.6,0.5,1.2,0.9,1.8,1.4
							C113.8,111.5,114.6,111.6,115.4,111.6z"/>
					</g>
					<g>
						<path class="st1" d="M105.6,121.8c1.9,1.7-0.4,1.9-0.6,1.1L105.6,121.8z"/>
					</g>
					<g>
						<path class="st6" d="M177.6,118.8c-0.6-0.1-1.3-0.3-1.9-0.4l1-1.8l1.4,0.1c0.2,0.4,0.4,0.8,0.7,1.2
							C178.4,118.2,177.9,118.5,177.6,118.8z"/>
					</g>
					<g>
						<path class="st6" d="M158.6,125.7c-0.1,0.5-0.8,0.7-1.5,1c-0.4,0.3-0.8,0.6-1.1,0.8c-0.3-0.2-0.7-0.3-1-0.5
							c-0.4,0.1-0.8,0.2-1.1,0.4c-0.2-0.3-0.3-0.6-0.5-0.9c0.3-0.2,0.6-0.4,0.8-0.6c0.1-0.1,0.3-0.3,0.3-0.5
							c0.8,0.3,1.6,0.6,2.4,0.9c0.3-0.7-0.3-1.8,0.8-2.2l1.3,0.5C158.9,125,158.8,125.4,158.6,125.7z"/>
					</g>
					<g>
						<path class="st6" d="M149.6,130.4c-0.9-0.9-2.5,0.5-2.9-0.7c0-0.2,0-0.5,0.1-0.7c0.5-0.3,1.1-0.7,1.7-1
							c0.5-0.1,0.9-0.1,1.4-0.1c0.1,0,0.2,0,0.2,0c0.2,0.4,0.2,0.7,0.2,0.9C150,129.3,149.8,129.9,149.6,130.4z"/>
					</g>
					<g>
						<path class="st6" d="M144,133c-0.2-0.3-0.3-0.6-0.5-0.9c0.1-0.4,0.2-0.7,0.4-1.1c0.3-0.1,0.8-0.2,1.1-0.4
							c0.3,0.4,0.5,0.8,0.7,1.2C145.7,132.6,144.5,132.5,144,133z"/>
					</g>
					<g>
						<path class="st6" d="M143.8,128.4c-0.4-0.2-0.9-0.3-1.3-0.6c-0.9,0.6-1.4,0.3-1.9,0.4c-0.7,0.1-1.4,0.1-2.2,0.1
							c-0.6,0-1.1-0.1-1.6-0.1c-0.4-0.1-0.9-0.2-1.3-0.3c-0.6-0.2-2.3,0.3-2.9-0.6c-0.4-0.4-0.3-1.3-1.3-1c-0.7,0.1-1.7-0.1-1.3-1
							c0.3-0.8,1.7-0.2,2.5-0.3c0.2-0.4,0.4-0.7,0.6-1.1c0.9,0.3,1.8,0.3,2.7,0.4c0.2,0.5,0.3,1.1,0.4,1.6c0.3,0,0.7,0,1.1,0.1
							l2.8-0.5c0.1,0,0.2,0,0.3,0c1,0.5,1.9,0.9,2.9,1.3c0.2,0,0.5,0,0.8,0C143.8,127.5,143.8,127.9,143.8,128.4z"/>
					</g>
					<g>
						<path class="st6" d="M137.5,139.6c0-0.1-0.2-0.2-0.3-0.3c0-0.7,0.1-1.4,0.1-2c0.5-0.1,0.8-0.6,1.4-0.4
							c0.2,0.7,0.5,1.4,0.7,2.1C138.6,138.8,138.3,139.9,137.5,139.6z"/>
					</g>
					<g>
						<path class="st6" d="M108.5,106.1c-0.6,0.3-1.4,0.6-2,0.8c-0.1,0-0.2,0-0.3,0c0,0,0-0.1,0-0.2c0.1-0.4,0.3-0.7,0.3-1.1
							c0.3-0.7,1.7-0.6,2,0.1C108.5,106,108.5,106.1,108.5,106.1z"/>
					</g>
					<g>
						<path class="st6" d="M102.4,113.3c-0.7,0-0.8,0.7-1.1,1.3c-0.1-0.1-0.2-0.1-0.3-0.2c-0.6,0-1.3,0.1-1.9,0.2
							c-1-0.2-2-0.3-3-0.5c-0.2-0.6-0.4-1.2-0.5-1.9c0.3-0.2,0.8-0.4,1.1-0.6l1.4,0c0.7,0.8,1.1,0.1,1.7,0c1.5,0.4,1.2-0.5,1.7-0.4
							c0.3,0,0.5,0,0.8,0c0.3,0.3,0.5,0.6,0.8,1C102.8,112.5,102.6,112.9,102.4,113.3z"/>
					</g>
					<g>
						<path class="st6" d="M84.7,106c0.2-0.4,0.4-0.8,0.6-1.1c1.1-0.7,0.8,0.3,1.7,1.1L84.7,106z"/>
					</g>
					<g>
						<path class="st6" d="M77.2,107c-0.8,0-1.5-0.1-2.3-0.2c-0.1,0-0.2,0-0.3,0c-0.8,0-1.6,0-2.5,0c-0.9,0-1.9-0.1-2.8-0.2
							c-0.4-0.4-1.3,0.1-1.7-0.6c1.8-1.5,3.5-0.5,5.3-1.5c0.8,0,1,1.1,1.9,1.1l1.4-0.4c1.3-0.5,1,0.7,1.4,1.6
							C77.5,106.8,77.4,106.9,77.2,107z"/>
					</g>
					<g>
						<path class="st23" d="M76.6,108.3c-0.6,0-1.1,0-1.7,0c-0.3,0.2-0.5,0.4-0.8,0.7c-1.6-0.4-2-0.4-2.5-0.6
							c-0.4,0.1-0.8,0.2-1.2,0.3c-1,0.2-2,0.3-3,0.5c-1.3-0.4-2-0.5-2,0l-1.4,0c0.1,0.9-1.1,0.4-1.7,0.3c-1.2,0.1-2.4,0.2-3.6,0.4
							c-0.3,0-0.6,0-0.9,0c-0.1,0-0.2,0-0.2,0l-0.9-1.1c-0.6,0.4-1.6,0.2-2.2,0.8c-0.1,0-0.2,0-0.3,0c-0.8,0-1.7,0.1-2.5,0.1
							c-0.2,0-0.4,0-0.6,0c-0.8,0-1.5-0.1-2.2-0.1c-0.3-0.3-0.6-0.5-0.9-0.9c0.1-0.4,0.2-0.8,0.3-1.2c2-0.2,3.9-0.3,5.9-0.5
							c0.6,0,1.1,0,1.7-0.1c1-0.1,2-0.2,3.1-0.3c0.8-0.2,1.6-0.4,2.5-0.6c1,0,2,0,3.1-0.1c1-1.4,1.7,0.6,3-0.1
							c0.4,0.7,1.3,0.2,1.7,0.6c0.9,0.1,1.9,0.1,2.8,0.2c0.9,0,1.7,0,2.5,0c0.1,0,0.2,0,0.3,0c0.8,0.1,1.5,0.2,2.3,0.2
							C77,107.4,76.8,107.9,76.6,108.3z"/>
					</g>
					<g>
						<path class="st6" d="M61.6,106.1c-0.9,0.2-1.7,0.3-2.5,0.6l0-0.7C59.9,106,60.7,106.1,61.6,106.1z"/>
					</g>
					<g>
						<path class="st6" d="M56,107c-0.6,0-1.1,0-1.7,0.1c0.5-1.3,1-0.5,1.7-0.5L56,107z"/>
					</g>
					<g>
						<path class="st6" d="M39.9,108.5c-0.1,0.1-0.2,0.3-0.2,0.4c-1,0.1-2.1,0.3-3.1,0.4c-0.2-0.1-0.4-0.3-0.6-0.4
							c1.3-1.4,2-2,3.8-1.6L39.9,108.5z"/>
					</g>
					<g>
						<path class="st21" d="M178.9,119.6c-0.9,0-1.1-0.1-1.3-0.8c0.4-0.3,0.8-0.6,1.2-0.9c0.2,0.1,0.3,0.2,0.5,0.3
							C179.1,118.7,179,119.1,178.9,119.6z"/>
					</g>
					<g>
						<path class="st21" d="M156,127.6c-0.7,1-1.9,0.9-2.5,0.5c0.1-0.2,0.2-0.5,0.3-0.7c0.4-0.1,0.8-0.2,1.1-0.4
							C155.3,127.3,155.7,127.4,156,127.6z"/>
					</g>
					<g>
						<path class="st21" d="M137.5,139.6c-0.8,1.4-1.9,1.1-2.5,0.8c-0.1-0.4-0.3-0.8-0.5-1.2c0.8-0.4,2.2-0.6,2.7,0.2
							C137.4,139.5,137.5,139.5,137.5,139.6z"/>
					</g>
					<g>
						<path class="st21" d="M59.1,106.7c-1,0.1-2.1,0.2-3.1,0.3l0-0.4c0-1.2,0.6-1,0.8-1.4c1.2-0.1,1.1,0.9,2.3,0.8L59.1,106.7z"/>
					</g>
					<g>
						<path class="st21" d="M48.3,108.7c-0.3,0-0.8,0-1.1,0.1c-0.8-0.2-1.5-0.4-2.2-0.5l0-0.7c1.4-0.2,2.4-1.6,3.6,0
							C48.5,108,48.4,108.3,48.3,108.7z"/>
					</g>
					<g>
						<path class="st21" d="M41.6,108.4c-0.5,0-1.1,0.1-1.7,0.1l-0.1-1.1c0.6,0.1,1.2,0.2,1.7,0.3L41.6,108.4z"/>
					</g>
					<g>
						<path class="st22" d="M179.3,118.2c-0.2-0.1-0.4-0.2-0.5-0.3c-0.2-0.4-0.5-0.8-0.7-1.2c0.1-0.1,0.2-0.3,0.3-0.4
							c0.6,0,1.1,0.1,1.6,0.1C180.8,117.8,180.2,118.2,179.3,118.2z"/>
					</g>
					<g>
						<path class="st22" d="M162.6,115.1c-0.3,0-0.6,0-0.8-0.1c-0.5,0.2-0.9,0.4-1.4,0.6c-0.1,0-0.2,0-0.3,0c-0.3,0-0.7-0.1-1.1-0.1
							c-0.2,0.1-0.4,0.2-0.6,0.2c-0.1-1.6-1.5-1.4-3.1-1.8c-0.4,0.3-1,0.2-1.6,0.1c-0.6-0.3-1.3-0.5-1.9-0.8c0-0.1-0.1-0.3-0.2-0.5
							l2.8-0.2c0-0.3,0.1-0.6,0.1-0.9l2.7,0c0.6,0.6,1.4,0.9,2.4,1.1c0.9,0.1,1.9,0.1,2.7,0.2c0.9,0.1,0.5,0.9,1.2,2.1
							C163.2,115,162.9,115,162.6,115.1z"/>
					</g>
					<g>
						<path class="st22" d="M153.6,128.1c-0.2,0-0.3,0-0.6,0c-0.7,1.2-1.9,0.6-2.8,0.7c0-0.2,0-0.5-0.2-0.9c0.6-0.2,1.2-0.4,1.7-0.6
							c0.2-0.3,0.4-0.5,0.6-0.9c0.3,0,0.7,0.1,1.1,0.1c0.1,0.3,0.3,0.6,0.5,0.9C153.8,127.7,153.6,127.9,153.6,128.1z"/>
					</g>
					<g>
						<path class="st22" d="M149.7,126c-0.6-0.2-1.3-0.4-1.9-0.6c0-0.1,0-0.1,0-0.2c0.9-0.1,0.5-1.6,1.4-1c0.3,0.5,0.5,0.9,0.7,1.4
							C149.9,125.7,149.7,125.9,149.7,126z"/>
					</g>
					<g>
						<path class="st22" d="M145.4,128.5c-0.3,0.1-0.6,0.1-0.9,0.2c-0.2-0.1-0.5-0.2-0.8-0.3c0-0.5,0.1-0.9,0.1-1.6
							c0.6,0.1,1.1,0.3,1.6,0.3C145.5,127.7,145.4,128.1,145.4,128.5z"/>
					</g>
					<g>
						<path class="st22" d="M133.4,117.5c-0.4,0.8-0.2,1.3-0.6,1.1c-1.5,0.4-0.7-1.5-0.5-1.6C132.7,117.2,133.1,117.3,133.4,117.5z"
							/>
					</g>
					<g>
						<path class="st22" d="M130.8,116c0.3-0.9,0.5-1,0.6-1.1c0.9-0.2,0.6,0.7,0.7,1.7C131.7,116.3,131.2,116.2,130.8,116z"/>
					</g>
					<g>
						<path class="st22" d="M129.1,116.6c0.2,1-0.4,1.6-1.4,1.3c0.1-0.2-0.2-0.5-0.5-0.5c-1.2-0.4-1.1,0.7-2.5,0.6
							c0.2,1.1-0.5,0.9-1.2,0.8c-0.5,0-1.1,0-1.6-0.1c-0.5,0.1-0.9,0.1-1.4,0.2c-0.1-0.4-0.2-0.9-0.2-1.4c-0.2-0.1-0.3-0.2-0.6-0.2
							c-0.6,0-1.3,0.1-1.9,0.1c-1.5-1.4,1.9-0.6,0.3-2c0.4,0,2.1-1.4,1.9,0.3c0.3,0.1,0.6,0.2,0.8,0.3c1.1-0.3,0.8-0.8,0.9-1.1
							c1.5-0.1,2,0.4,3.2,0.6C125.2,117.1,127.7,116.2,129.1,116.6z"/>
					</g>
					<g>
						<path class="st22" d="M119.3,112c-0.6-0.1-0.7,0.7-1.4,0.4c-0.2-0.2-0.3-0.3-0.3-0.5c-0.7-0.1-1.4-0.2-2.2-0.3
							c0.8-1.4,2.5-1,3.3-0.8c0.1,0,0.2,0,0.3,0c0.4-0.1,0.8-0.3,1.1-0.4c0.2,0,0.4,0,0.6,0c0.5,0.3,1.1,0.7,1.6,1
							c0.8-0.3,0.7,0.5,1,0.9c-1-0.1-1.4,1.1-2.5,0.6C120.3,112.6,119.7,112.3,119.3,112z"/>
					</g>
					<g>
						<path class="st22" d="M101.4,111.2c-0.6,1.4-1,0.4-1.7,0.4c-0.6,0-0.9,0.8-1.7,0l0.9-1.1l0.5,0c0.3,0,0.6-0.1,0.9-0.2
							C100.7,110.6,101.1,110.9,101.4,111.2z"/>
					</g>
					<g>
						<path class="st22" d="M44.9,108.2c-0.4,0.3-0.9,0.7-1.4,1c-0.4,0-0.8,0-1.1,0.1c-0.3-0.3-0.6-0.6-0.9-0.9l0-0.7
							c1.1-0.1,2.3-0.1,3.4-0.2L44.9,108.2z"/>
					</g>
					<g>
						<path class="st24" d="M39.3,114l0.1,1.1c-1.3-0.1-1.4,1.4-2.7,0.7c0.1,0.5-0.6,1.1-0.2,2.1c-1.5-0.2-2.3,0.5-1.8,1.5
							c0.2,0,0.5,0,1.4,0.1c-0.7,1.3-3.4,0.7-5.2,1.5c-0.4,1.1-2,1.5-4,2.4l-0.6-1.8c0.3-0.2,0.7-0.4,1.1-0.5c0-0.5-0.1-0.9-0.1-1.4
							c0-0.1,0-0.3,0-0.5c-0.3,0-0.6,0.1-0.8,0.1c-0.2,0-0.4,0-0.6,0.1c-0.1,0.4,0.3,0.9-0.2,1.2c-0.5-0.1-1.1-0.2-1.7-0.3
							c0,0.4-0.1,0.9-0.1,1.3c-0.9,0-1.7,0-2.5,0l0,0.4c-0.9,0.3-1.9,0.7-2.9,1c-0.4,0.1-0.7,0.2-1.1,0.3c0,0.5-0.1,1-0.1,1.4
							c-0.9-0.2-1.7-0.4-2.6-0.6c-0.2,0.1-0.3,0.2-0.5,0.3c-0.2,0.5-0.5,1-0.7,1.5l-1.9,0.2c-0.6,0.4-1.2,0.8-1.8,1.1
							c-0.4-0.5-0.8-1-1.2-1.5c0-0.5,0.1-1.1,0.1-1.6c-0.5,0-0.9-0.1-1.4-0.1c-0.1-0.3-0.3-0.6-0.4-0.9c-0.4-0.3-0.8-0.5-1.2-0.8
							c0.2-0.5,0.4-1,0.7-1.4c-0.3-0.8-0.5-1.6-0.8-2.4c0.2,0,0.5-0.1,0.8-0.1c0.4,0.6,0.9,1.1,1.3,1.7l-0.4,0.8l0.6,0.4
							c0.6,0,1.1,0.1,1.7,0.1c0,0.4,0.6,0.6,0.9,1c0.3-0.3,0.5-0.5,0.8-0.8c0.3,0,0.7-0.1,1.1-0.1c0.2-0.6,0.5-1.2,0.7-1.7
							c0.1,0,0.2,0,0.3,0l-0.1-1.1c0.3,0,0.7-0.1,1.1-0.1c0.3,0.6,0.9,0.3,1.9-0.7c0.7-0.1,1.4-0.1,2.2-0.2c0.6-0.1,1.1-0.1,1.7-0.2
							c0.5-0.3,0.1-0.9,0.2-1.4c0.1-0.1,0.2-0.2,0.3-0.3c0.6-0.2,1.2-0.4,1.9-0.6c1-0.1,2-0.3,3-0.5c1,0,2,0,3.1,0
							c0.6,0.1,1.1,0.1,1.7,0.1c0.2,0.2,0.4,0.5,0.6,0.6c0.5,0.1,0.9,0.1,1.4,0.1c0.1,0.3,0.3,0.6,0.6,1.1l1.3-1.2
							c-0.5-0.9,0.8-1.4,0.4-2.3c0.1-0.1,0.2-0.2,0.2-0.3c0.4,0.1,0.8,0.1,1.2,0.2c0.5,0.3,0.9,0.6,1.4,0.8
							C37.8,113.9,38.6,113.9,39.3,114z"/>
					</g>
					<g>
						<path class="st22" d="M8.5,125.7c-0.5,0-0.7,0.6-1.9,0.9c-1.3-0.2-0.6-1-0.7-1.6c0.4-0.3,0.7-0.9,1.3-1c0.5,0,0.9,0,1.4,0.1
							C8.6,124.7,8.5,125.2,8.5,125.7z"/>
					</g>
					<g>
						<path class="st25" d="M151.7,127.3c-0.5,0.2-1.1,0.4-1.7,0.6c-0.1,0-0.2,0-0.2,0c-0.1-0.6-0.1-1.2-0.1-1.9
							c0.1-0.1,0.2-0.3,0.3-0.4c0.3-0.1,0.8-0.2,1.1-0.4l0.5,0l0.7,1.2C152.1,126.8,152,127,151.7,127.3z"/>
					</g>
					<g>
						<path class="st24" d="M154.3,112.4c-0.8,0.2-1.7,0.5-2.5,0.7c0-0.1-0.1-0.3-0.2-0.5l-1.8-0.6c-0.5,0.8-1.4,0.5-2,0.5
							c-0.6-0.1-1.2-0.2-1.9-0.4c-0.4,0.2-0.7,0.3-1.1,0.4c-0.3-0.3-0.5-0.5-0.7-0.8c-0.4-0.1-0.9-0.2-1.3-0.3
							c-0.6-0.1-1.3-0.3-1.9-0.4c0.1-0.3,0.3-0.6,0.4-0.9c0.6,0.2,1,0.5,1.6,0.8c-0.1-1.3-0.9-1.1-1.6-1.2c0-0.2,0-0.5,0.1-0.7
							c0.8-0.3,1.5-0.5,2.2-0.8c0.7,0.3,1.3,0.6,1.9,0.8l2.7,0.6c-0.3,0.5-0.6,0.9-0.9,1.3c0.2,0.2,0.5,0.4,0.8,0.5
							c0.6-0.1,1.1-0.2,1.7-0.4c0.1-0.3,0.2-0.6,0.4-0.9c0.6,0.1,1.2,0.2,1.9,0.4l2.7,0.6C154.4,111.8,154.4,112.1,154.3,112.4z"/>
					</g>
					<g>
						<path class="st25" d="M149.5,111.4c-0.6,0.1-1.1,0.3-1.7,0.4c-0.3-0.2-0.5-0.3-0.8-0.5c0.3-0.4,0.6-0.9,0.9-1.3
							c0.6,0.2,1.3,0.4,1.9,0.6C149.7,110.8,149.6,111.1,149.5,111.4z"/>
					</g>
					<g>
						<path class="st25" d="M142.7,111.2c-0.5-0.3-1-0.5-1.6-0.8c-0.1,0.3-0.2,0.6-0.4,0.9c-0.6,0-1.3-0.1-1.9-0.1
							c-0.9-0.1-1.7-0.1-2.5-0.1c-0.5-0.4-0.9-0.8-1.3-0.8c-0.5,0.1-0.9,0.1-1.4,0.2c-1.9,0.1-3.8,0.1-5.7,0.2c-0.1,0-0.2,0-0.3,0
							c-1.2-0.8-1.5-0.8-2.2-0.8c0,0.2,0,0.5,0,0.7l-0.5,0c-1-0.4-1.5-0.5-1.6-1c-0.6,1.1-1.5,0.7-2,0.6c-0.2,0.1-0.4,0.3-0.5,0.5
							c-0.2,0-0.3,0-0.6,0c-0.4,0.1-0.8,0.3-1.1,0.4c-0.1,0-0.2,0-0.3,0c-0.3-0.4-0.5-0.9-0.7-1.4c0.1,0,0.2-0.1,0.3-0.2l1.4,0.1
							c0-0.3,0-0.6,0.1-0.9c0.5-0.2,1.1-0.4,1.6-0.6c0.2,0.1,0.4,0.2,0.6,0.3c0.1,0,0.2,0,0.3,0c2.1-1,2.5,0.1,3.6,0.2
							c1.2,0,2.4,0,3.6-0.1c0.6,1.7,1.2,0.6,1.9,0.6c0.6-0.1,1.3-0.1,2-0.1c1.8-0.6,3.3,0.5,5.2,0.5l2.7,0.2c0,0.2,0,0.4-0.1,0.7
							C141.7,110.1,142.6,109.8,142.7,111.2z"/>
					</g>
					<g>
						<path class="st25" d="M111.1,109.2c0,0.3,0,0.6,0,0.9c-1.2,0.1-2.4,0.3-3.6,0.5c-0.2-0.1-0.5-0.3-0.8-0.5
							c-0.3-0.4-0.5-0.7-0.8-1.2c-0.6,0.2-1.2,0.3-1.7,0.4c-0.7-0.2-1.5-0.3-2.2-0.5c-0.5,0.7-1.7,0.8-1.7,1.3
							c-0.3,0.1-0.6,0.2-0.9,0.2l-0.5,0c-0.5-0.2-0.9-0.5-1.4-0.7c-0.8,0.5-2-0.1-2.8,0.4c-0.5-0.2-0.9-0.4-1.4-0.7
							c-0.8-0.3-1.3,0.7-2-0.2l-2.8,0c-0.5,0.1-0.9,0.3-1.4,0.5c-0.2-0.1-0.3-0.2-0.5-0.2c-0.7,0.2-1.3,0.4-2,0.7
							c-0.3-0.1-0.7-0.3-1.1-0.4c-0.6,0.3-1.1,0.6-1.7,0.9l-1.4-0.7c-1.3,0.9-3,0.6-4.2,1.4c-0.2,0.3-2.1,0.5-2-0.2
							c-0.7-0.7-2.9,0.6-2.5-1.1c1.7-0.2,1.1-1,2-0.9c2,0.5,2.7,0.4,3.3,0c0.6-0.3,1.2-0.6,1.7-0.9c0.6,0.3,1.1,0.6,1.7,0.9
							c0.9,0,1.7,0,2.5-0.7c-0.9-0.5-1.8-0.9-2.8-1.4c0.3-0.9,0.3-1.1,0.3-1.4c1.4,0.3,2.6,0.4,3.9,0.5l2.3,0
							c0.9,0.1,1.8,0.2,2.8,0.3c0.1,0,0.2,0,0.2,0c1.8-0.8,3.1-0.8,5.8,0.1c1.1,0.2,2.2,0.3,3.3,0.5l-1.4,1.1
							c0.3,0.2,0.7,0.5,1.1,0.7c1,0,1.6-1.2,2.5-1.3c1.1-1.3,3.6-1.4,5-0.6c0.1,0.1,0.2,0.2,0.3,0.2c0.4,0.3,0.7,0.5,1.1,0.7
							c0.6,0,1.2-0.1,1.6,0.5c0.5,0,0.9-0.1,1.4-0.2c0.2,0,0.4,0,0.6,0C111.2,108.6,111.2,108.9,111.1,109.2z"/>
					</g>
					<g>
						<path class="st25" d="M71.1,111.4c-0.6-0.1-1.1-0.3-1.7-0.4c-0.3-0.2-0.5-0.3-0.8-0.5c-0.2,0.1-0.4,0.3-0.6,0.5
							c-1,0-2,0-3.1,0.1c0.1,0.8-1,0.2-1.4,0.7c-1,0.1-0.9-0.8-1.9-0.9c-0.3,0.7-0.3,0.9-0.3,1.1c-0.6,0-1.3,0.1-2.2,0.1
							c-0.7,0.9-1.4,1.1-1.7,0.7c-0.1-0.3-0.2-0.6-0.3-0.9c-1.7-0.3-2.5,0.1-3.3,0.6c-0.6,0-1.3,0.1-1.9,0.1
							c-0.4-0.2-0.8-0.4-1.1-0.7c-0.4,0.5-0.7,0.9-1.1,1.4c-0.4-0.3-0.8-0.6-1.1-0.8c-0.3,0-0.8,0-1.4,0.1c-0.2,0.2-0.3,0.5-0.5,0.7
							c-1.3,0.1-2.6,0.1-3.9,0.2c-0.3-0.8-0.6-1.6-0.9-2.5c0.5,0.1,0.9,0.1,1.4,0.2c1.6,0.8,2,0.1,2.2-0.4c0.8-0.5,1.2,0,1.7,0.6
							c0.5-0.2,0.9-0.3,1.4-0.6c0.6,0.2,1.3,0.4,2,0.6c0.5-0.4,1.1-0.8,1.6-1.2c1.1,0.1,1.4,0.1,2.2-0.8c0.1,0,0.2,0,0.3,0
							c0.6-0.5,1.6-0.3,2.2-0.8l0.9,1.1c0.1,0,0.2,0,0.2,0c0.3,0,0.6,0,0.9,0c1.2-0.1,2.4-0.2,3.6-0.4c0.6,0.1,1.7,0.6,1.7-0.3
							l1.4,0c-0.1-0.5,0.6-0.4,2,0c1-0.2,2-0.3,3-0.5c0,0.3,0,0.6,0,0.9c0.4,0.1,0.8,0.3,1.2,0.4C71.4,110.4,71.2,110.9,71.1,111.4z
							"/>
					</g>
					<g>
						<path class="st26" d="M39.9,113.5c-0.4-0.4-0.8-0.9-1.2-1.3c0.4-1.1,0.7-1.7,0.2-1.9c-0.9-0.3-0.4,0.9-1.4,0.6
							c-0.3-0.1-0.5-0.1-0.8-0.2c0-0.5,0-0.9-0.1-1.4c1-0.1,2-0.3,3.1-0.4c0.7,0.4,1.5,0.9,2.3,1.2c0,0.3,0,0.6,0,0.9
							c0.5,0.1,0.9,0.1,1.4,0.2c-0.1,0.8-0.3,1.5-0.5,2.3C41.9,113.6,40.9,113.6,39.9,113.5z"/>
					</g>
					<g>
						<path class="st25" d="M39.3,114c-0.8-0.1-1.5-0.2-2.2-0.3c0.4-0.5,0.8-1,1.3-1.4c0.1,0,0.2,0,0.2,0c0.4,0.4,0.8,0.9,1.2,1.3
							C39.7,113.7,39.5,113.9,39.3,114z"/>
					</g>
					<g>
						<path class="st25" d="M34.3,113c0.3,0.9-1,1.4-0.4,2.3l-1.3,1.2c-0.4-0.4-0.5-0.8-0.6-1.1c-0.5,0-0.9-0.1-1.4-0.1
							c-0.2-0.2-0.4-0.4-0.6-0.6c0.3-0.3,0.7-0.7,1-1c0.9-0.2,1.8-0.4,2.7-0.7C33.9,113.1,34.1,113,34.3,113z"/>
					</g>
					<g>
						<path class="st25" d="M20.1,116.1c0.6,1.3-0.5,1.8-1.5,2.2c-0.1-0.2-0.2-0.5-0.3-0.7c-0.7,0.1-1.4,0.1-2.2,0.2
							c-1,1-1.6,1.3-1.9,0.7c-0.3,0-0.7,0.1-1.1,0.1l0.1,1.1c-0.1,0-0.2,0-0.3,0c-0.4-0.1-0.8-0.2-1.1-0.4c0-0.4-0.1-0.7-0.1-1.1
							c0.6-0.7,1.8-1.1,3-1.2c0.4-0.3,0.9-0.7,1.3-1c0.8,0.2,1.5,0.5,2.3,0.7C18.8,116.5,19.5,116.3,20.1,116.1z"/>
					</g>
					<g>
						<path class="st25" d="M19.8,119.7c-0.4,0.7-1.2,0.5-1.8,0.6c0-0.5-0.1-0.9-0.1-1.4c0.3,0,0.5,0,0.8-0.1
							C19,119.2,19.4,119.5,19.8,119.7z"/>
					</g>
					<g>
						<path class="st25" d="M11.2,121.6c-0.3,0.2-0.5,0.5-0.8,0.8c-0.3-0.5-0.9-0.7-0.9-1c-0.6,0-1.1,0-1.7-0.1l-0.6-0.4l0.4-0.8
							c-0.4-0.6-0.9-1.1-1.3-1.7c0.5-0.1,0.9-0.3,1.4-0.4c0.2,0.5,0.4,0.9,0.7,1.3c0.5-0.1,1.1-0.1,1.6-0.2l1,1
							C11.1,120.6,11.1,121.1,11.2,121.6z"/>
					</g>
					<g>
						<path class="st24" d="M154.3,125.9c-0.2,0.2-0.5,0.4-0.8,0.6c-0.3,0-0.7-0.1-1.1-0.1l-0.7-1.2c0.9-0.2,1.7-0.3,2.5-0.5
							c0.2,0.2,0.3,0.5,0.4,0.7C154.5,125.6,154.4,125.8,154.3,125.9z"/>
					</g>
					<g>
						<path class="st24" d="M148.4,128c-0.6,0.3-1.2,0.7-1.7,1c-0.4-0.2-0.9-0.4-1.3-0.6c0-0.4,0.1-0.8,0.1-1.4
							c0.3,0,0.7-0.1,1.1-0.2c0.4-0.5,0.8-1,1.2-1.5c0.6,0.2,1.3,0.4,1.9,0.6c0,0.6,0.1,1.2,0.1,1.9
							C149.3,127.9,148.9,127.9,148.4,128z"/>
					</g>
					<g>
						<path class="st24" d="M136.3,111c-0.4,0.6-1.1,0.3-1.9,0.3c-1.7,0.4-4.4-1-5.8,0.4c-1,0.3-0.2-0.8-1-1.2l-2.2-0.1
							c0-0.2,0-0.5,0-0.7c0.8,0.3,1.6,0.6,2.5,0.8c1.9,0,3.8-0.1,5.7-0.2c0.5,0,0.9-0.1,1.4-0.2C135.4,110.3,135.8,110.7,136.3,111z
							"/>
					</g>
					<g>
						<path class="st24" d="M124.2,112.4c-0.3,0-0.5,0-0.8,0c-0.3-0.5-0.3-1.2-1-0.9c-0.6-0.3-1.1-0.7-1.6-1
							c0.2-0.2,0.4-0.3,0.5-0.5c1.2-0.2,1.5-0.6,2-0.6c0.1,0.4,0.6,0.6,1.6,1C124.6,111.3,125.2,112.1,124.2,112.4z"/>
					</g>
					<g>
						<path class="st24" d="M115.4,111.6c-0.1,0.1-0.2,0.2-0.3,0.2c-0.7-0.1-1.5-0.2-2.2-0.3c-0.6-0.5-1.2-0.9-1.8-1.4
							c0-0.3,0-0.6,0-0.9c1.7,0,3.5,0,5.2,0c0.6,0.1,1.1,0.2,1.6,0.3c0.3,0.5,0.5,1,0.7,1.4C118,110.6,116.2,110.2,115.4,111.6z"/>
					</g>
					<g>
						<path class="st24" d="M105.3,110.8c-0.3-0.1-0.6-0.2-0.8-0.3c-0.6,0-1.3,0-2.3,0.6c-0.3,0-0.5,0-0.8,0
							c-0.3-0.3-0.7-0.6-1.1-0.9c0-0.5,1.1-0.6,1.7-1.3c0.7,0.2,1.5,0.4,2.2,0.5c0.5-0.1,1.1-0.3,1.7-0.4c0.2,0.4,0.5,0.8,0.8,1.2
							C106.2,110.4,105.7,110.6,105.3,110.8z"/>
					</g>
					<g>
						<path class="st24" d="M98.1,111.6l-1.4,0c-0.4,0.2-0.8,0.5-1.1,0.6c-0.3-0.1-0.5-0.2-0.8-0.2c-0.4,0.4-1.7,0.3-1.4-0.5
							c-2.2,1.1-3.5-1.2-5.8,0.2c-0.1-0.3-0.2-0.6-0.3-0.9c-0.5,0.1-0.9,0.1-1.4,0.2c-0.4,0.6-0.9,1.1-1.1,1.4c-0.2,0-0.3,0-0.6,0
							c-0.5,0-1.1,0-1.6,0c-0.5-0.1-0.9-0.3-1.4-0.4c-0.1,0.2-0.2,0.4-0.3,0.7c-2,0.1-4.8-0.1-6.4,0.3c-0.3,0.2-0.6,0.6-1.6,0.4
							c-0.2-0.3-0.4-0.6-0.6-0.9c-0.3,0-0.6,0-0.8,0c-0.9,0.2-1.9,0.4-2.8,0.5c-2.3,0.5-4.3,0.1-6.4,0.6c-0.3,0.5-1.5,0-2.2,1
							c-0.2-1.1-1.4-0.5-3.4-1c-1-0.2-2-0.4-3.1-0.6c-1.3,0-0.3,1.7-2.7,1l-1.4-0.4c-1-0.1-2-0.2-3-0.3c0.2-0.2,0.3-0.5,0.5-0.7
							c0.6,0,1-0.1,1.4-0.1c0.4,0.3,0.8,0.6,1.1,0.8c0.4-0.5,0.7-0.9,1.1-1.4c0.4,0.2,0.7,0.4,1.1,0.7c0.6,0,1.3-0.1,1.9-0.1
							c0.8-0.6,1.6-0.9,3.3-0.6c0.1,0.3,0.2,0.6,0.3,0.9c0.3,0.4,0.9,0.2,1.7-0.7c0.9,0,1.6-0.1,2.2-0.1c0-0.2,0-0.5,0.3-1.1
							c1,0.1,0.9,1,1.9,0.9c0.3-0.5,1.4,0.1,1.4-0.7c1,0,2,0,3.1-0.1c0.2-0.2,0.3-0.3,0.6-0.5c0.3,0.1,0.5,0.3,0.8,0.5
							c0.6,0.1,1.1,0.3,1.7,0.4c0.2-0.4,0.3-0.9,0.6-1.4l0.5,0c-0.5,1.7,1.8,0.5,2.5,1.1c-0.2,0.8,1.7,0.5,2,0.2
							c1.2-0.8,2.9-0.5,4.2-1.4l1.4,0.7c0.6-0.3,1.1-0.6,1.7-0.9c0.3,0.1,0.7,0.3,1.1,0.4c0.6-0.2,1.3-0.4,2-0.7
							c0.2,0,0.3,0.1,0.5,0.2c0.5-0.2,0.9-0.3,1.4-0.5l2.8,0c0.6,0.9,1.2-0.1,2,0.2c0.5,0.2,0.9,0.4,1.4,0.7c0.8-0.5,2,0.1,2.8-0.4
							c0.5,0.2,0.9,0.4,1.4,0.7L98.1,111.6z"/>
					</g>
					<g>
						<path class="st24" d="M90,116.5l-1.4,0c0-0.5,0-1.1,0-1.6c0.1,0,0.2,0,0.3,0c0.3,0.1,0.7,0.1,1.1,0.2
							C90,115.8,90,116.2,90,116.5z"/>
					</g>
					<g>
						<path class="st24" d="M87,115.6c-0.7-0.6-1.2-0.7-1.1-1.1c0.6,0,1.1,0,1.7,0.2C87.4,115,87.2,115.3,87,115.6z"/>
					</g>
					<g>
						<path class="st24" d="M75.2,115.9c-0.4,0.7-1.1,0.4-1.7,0.5c-0.3,0-0.7,0-1.1,0c-0.1-0.4-0.2-0.8-0.3-1.1
							c0.6-0.1,1.3-0.2,1.9-0.3C74.6,115,74.9,115.4,75.2,115.9z"/>
					</g>
					<g>
						<path class="st24" d="M71.7,115.2l-2.2,0.5c-0.8-0.4-0.8-0.7-0.8-1.1c1.1,0.1,2-0.1,3-0.3C71.7,114.8,71.7,115,71.7,115.2z"/>
					</g>
					<g>
						<path class="st24" d="M50.8,118.2c-0.3-0.5-0.6-1.1-0.9-1.6c0.6,0,1.3-0.1,1.9-0.1C52.7,117.2,51.7,118.2,50.8,118.2z"/>
					</g>
					<g>
						<path class="st24" d="M47.8,117.5c-0.5-0.1-0.9-0.1-1.4-0.2c-0.2-1.1,1-1.5,1.6-0.3C47.9,117.1,47.8,117.3,47.8,117.5z"/>
					</g>
					<g>
						<path class="st24" d="M40.6,118.1c-0.5,0.1-0.2-0.6-0.3-0.9c0.7-0.6,1.9-0.2,2.3,0.3C43.1,118.9,41.3,117.8,40.6,118.1z"/>
					</g>
					<g>
						<path class="st24" d="M26.4,123.5c-0.2,0.8-1,0.6-1.3,1c-0.9-0.1-1.6-0.3-1.5-1.2c0.4-0.3,0.9-0.6,1.3-0.8L26.4,123.5z"/>
					</g>
					<g>
						<path class="st26" d="M131.3,108.7c-0.7,0-1.2,1.1-1.9-0.6C130,108.3,130.7,108.5,131.3,108.7z"/>
					</g>
					<g>
						<path class="st23" d="M119.7,108.3l-1.4-0.1c-1.2,0.3-1.6,0.5-2,0.9c-1.7,0-3.5,0-5.2,0c0-0.4,0-0.7,0.1-1.1
							c-0.2,0-0.3,0-0.6,0c0-0.3,0-0.6,0-0.9c1.5-0.6,2.3-0.8,2.8-0.3c2.3,0,4.6,0,6.9,0c0.8-0.3,0.7,0.5,1,0.9
							C120.9,108,120.3,108.2,119.7,108.3z"/>
					</g>
					<g>
						<path class="st26" d="M119.7,109.3l-1.4-0.1c-0.1,0-0.2,0.1-0.3,0.2c-0.6-0.1-1.1-0.2-1.6-0.3c0.4-0.3,0.8-0.6,2-0.9l1.4,0.1
							C119.7,108.7,119.7,109,119.7,109.3z"/>
					</g>
					<g>
						<path class="st26" d="M110.6,108c-0.5,0.1-0.9,0.2-1.4,0.2c-0.4-0.5-1-0.5-1.6-0.5c-0.3-0.2-0.7-0.5-1.1-0.7
							c0.6-0.3,1.4-0.6,2-0.8c0.7,0.3,1.4,0.7,2.1,1C110.7,107.4,110.6,107.7,110.6,108z"/>
					</g>
					<g>
						<path class="st26" d="M101.3,107.3c-0.9,0.2-1.5,1.3-2.5,1.3c-0.3-0.2-0.7-0.5-1.1-0.7l1.4-1.1
							C99.8,107,100.5,107.2,101.3,107.3z"/>
					</g>
					<g>
						<path class="st26" d="M83.3,108.3c-0.8,0.7-1.6,0.7-2.5,0.7c-0.6-0.3-1.1-0.6-1.7-0.9c-0.5,0.3-1.1,0.6-1.7,0.9
							c-0.6,0.4-1.3,0.5-3.3,0c0.3-0.2,0.5-0.4,0.8-0.7c0.6,0,1.1,0,1.7,0c0.2-0.5,0.4-0.9,0.6-1.4c0.2,0,0.3-0.1,0.5-0.2
							c0.6,0.1,1.1,0.2,1.7,0.2c0.3,0,0.8,0,1.1,0C81.4,107.4,82.3,107.8,83.3,108.3z"/>
					</g>
					<g>
						<path class="st26" d="M67.5,109.2c-1.3-0.4-2-0.5-2,0C65.5,108.7,66.2,108.8,67.5,109.2z"/>
					</g>
					<g>
						<path class="st26" d="M54.7,109.6c0.6-0.5,1.6-0.3,2.2-0.8l0.9,1.1l-0.9-1.1C56.3,109.2,55.3,109,54.7,109.6z"/>
					</g>
					<g>
						<path class="st26" d="M45.6,110.9c-0.2,0.4-0.6,1.2-2.2,0.4C44.1,111.2,44.8,111.1,45.6,110.9z"/>
					</g>
					<g>
						<path class="st23" d="M38.5,112.3c-0.3-0.2-0.6-0.3-0.9-0.4c-0.6,0.3-1.2,0.7-1.9,1c-0.4,0-0.8-0.1-1.2-0.2
							c-0.1,0.1-0.2,0.2-0.2,0.3c-0.2,0-0.4,0-0.6,0c-0.6-0.4-1.1-0.8-1.8-1.3l-0.5,0c-0.7,0.2-1.3,0.4-1.9,0.6
							c-0.1-0.1-0.2-0.3-0.3-0.5c-0.5-0.2-1.1-0.5-1.7-0.8c0.4-1.1,1.5-0.8,2.2-1.3c0.8-0.1,1.7-0.3,2.5-0.4c0.3,0,0.6,0,0.8-0.1
							c0.1,0.2,0.3,0.5,0.3,0.7c0.4,0.1,0.8,0.2,1.1,0.3c0.2-0.4,0.4-0.7,0.5-1.2c0.3-0.1,0.7-0.2,1.1-0.3c0.2,0.1,0.4,0.3,0.6,0.4
							c0,0.5,0,0.9,0.1,1.4c0.3,0.1,0.5,0.1,0.8,0.2c0.9,0.3,0.4-0.9,1.4-0.6c0.5,0.2,0.2,0.7-0.2,1.9
							C38.6,112.3,38.5,112.3,38.5,112.3z"/>
					</g>
					<g>
						<path class="st26" d="M34.4,110.5c-0.4-0.1-0.8-0.2-1.1-0.3c-0.1-0.2-0.2-0.5-0.3-0.7c0.6,0,1.3-0.1,2-0.1
							C34.8,109.8,34.6,110.1,34.4,110.5z"/>
					</g>
					<g>
						<path class="st26" d="M33.8,113.1c-0.6,0.7-1.6,0.5-2.7,0.7c-0.3,0.3-0.7,0.7-1,1c-0.6,0-1.1-0.1-1.7-0.1c-1,0-2,0-3.1,0
							c0.1-0.9,0.2-1.8,0.4-2.8c0.6-0.2,1.2-0.4,1.9-0.6c0.6,0.3,1.2,0.5,1.7,0.8c0.1,0.2,0.2,0.3,0.3,0.5c0.6-0.2,1.3-0.4,1.9-0.6
							l0.5,0C32.6,112.2,33.2,112.7,33.8,113.1z"/>
					</g>
					<g>
						<path class="st23" d="M25.6,111.9c-0.2,0.9-0.3,1.8-0.4,2.8c-1,0.2-2,0.4-3,0.5c-0.6,0.2-1.2,0.4-1.9,0.6
							c-0.4-0.2-0.8-0.4-1.1-0.6c-0.5-0.2-0.3-1.2-0.4-1.8c0.3-0.5,0.7-0.5,1.1-0.6c0.7,0.6,1.4,1.1,2.1,1.7
							c0.2-0.7,0.4-1.4,0.7-2.1C23.6,112.2,24.6,112,25.6,111.9z"/>
					</g>
					<g>
						<path class="st26" d="M21.9,114.5c-0.7-0.6-1.4-1.1-2.1-1.7l2.8-0.4C22.3,113.1,22.1,113.8,21.9,114.5z"/>
					</g>
					<g>
						<path class="st26" d="M20.1,116.1c-0.6,0.2-1.3,0.4-1.9,0.6c-0.8-0.2-1.5-0.5-2.3-0.7c0.3-0.8,0.6-1.6,0.9-2.4
							c0.6-0.1,1.3-0.1,2-0.2c0.1,0.6-0.1,1.6,0.4,1.8c0.4,0.2,0.7,0.4,1.1,0.6C20.2,115.9,20.1,116,20.1,116.1z"/>
					</g>
					<g>
						<path class="st26" d="M12.2,121.4c-0.3,0-0.7,0.1-1.1,0.1c0-0.5-0.1-0.9-0.1-1.4c0.3-0.3,0.5-0.5,0.7-0.8
							c0.4,0.2,0.8,0.3,1.1,0.4C12.7,120.3,12.5,120.9,12.2,121.4z"/>
					</g>
					<g>
						<path class="st23" d="M15.9,116c-0.2,0.5-0.6,0.4-1,0.8c-0.1,0.1-0.2,0.2-0.3,0.3c-0.8,0.4-1.6,0.8-2.4,1.2
							c-0.2,0-0.4,0-0.6,0.1c0,0.4,0.1,0.8,0.1,1.1c-0.3,0.3-0.5,0.5-0.7,0.8l-1-1c0.1-0.2,0.2-0.5,0.2-0.7c-0.5-0.2-1-0.5-1.5-0.7
							c-0.3,0.1-0.7,0.3-1.1,0.4c-0.5,0.1-0.9,0.3-1.4,0.4c-0.3,0-0.6,0.1-0.8,0.1c-1.2-1-0.9-1.7-1.1-2.2c0.6-0.6,2.1,0,2.2-1.1
							c0.9-0.1,1.8-0.2,2.8-0.3c0.7-0.1,1.4-0.2,2.2-0.2c1-0.6,1.4-0.6,1.9-0.7c1.1-0.1,2.2-0.2,3.3-0.3
							C16.5,114.4,16.2,115.2,15.9,116z"/>
					</g>
					<g>
						<path class="st26" d="M10.1,119.2c-0.5,0.1-1.1,0.1-1.6,0.2c-0.3-0.4-0.5-0.9-0.7-1.3c0.3-0.1,0.7-0.2,1.1-0.4
							c0.5,0.3,1,0.5,1.5,0.7C10.3,118.7,10.2,118.9,10.1,119.2z"/>
					</g>
					<g>
						<path class="st23" d="M47.2,108.8c0.5,2.3-1.7,1.2-1.6,2.1c-0.7,0.1-1.4,0.3-2.2,0.4c-0.5,0-0.9-0.1-1.4-0.2
							c0-0.3,0-0.6,0-0.9c-0.8-0.4-1.5-0.8-2.3-1.2c0.1-0.1,0.2-0.3,0.2-0.4c0.6,0,1.2-0.1,1.7-0.1c0.3,0.3,0.6,0.6,0.9,0.9
							c0.3,0,0.7,0,1.1-0.1c0.4-0.3,0.9-0.7,1.4-1C45.7,108.4,46.4,108.6,47.2,108.8z"/>
					</g>
					<g>
						<path class="st22" d="M151.8,113.2c-1.1,1-3.1,0.5-4.7,0.8c-0.8-0.3-1.6-0.6-2.4-0.9c-1.3,0.7-3.3,0.2-4.5,0.9
							c-1-1.3-3.5-0.3-5.4-0.7c-0.9,1-1.9-0.5-2.9-0.4c-2.1-0.1-4.6-0.5-6.3-0.1c-0.5-0.1-0.9-0.2-1.4-0.3c1-0.3,0.5-1.2,0.7-2
							l0.5,0l2.2,0.1c0.1,0,0.2,0,0.3,0c2.2,0,4.8,1.4,6.5,0.8l1.9-0.3c0.9,0.1,1.7,0.1,2.5,0.1c0.6,0,1.3,0.1,1.9,0.1
							c0.6,0.1,1.3,0.2,1.9,0.4c0.4,0.1,0.9,0.2,1.3,0.3c0.3,0.3,0.5,0.5,0.7,0.8c0.4-0.1,0.8-0.2,1.1-0.4c0.7,0.1,1.3,0.3,1.9,0.4
							c0.6,0,1.5,0.3,2-0.5l1.8,0.6C151.7,112.9,151.8,113,151.8,113.2z"/>
					</g>
					<g>
						<path class="st25" d="M149.5,111.4c0,0.2,0.1,0.5,0.2,0.7C149.6,111.9,149.5,111.6,149.5,111.4z"/>
					</g>
					<g>
						<path class="st24" d="M118,109.4c0.1,0,0.2-0.1,0.3-0.2C118.2,109.3,118.1,109.4,118,109.4z"/>
					</g>
					<g>
						<path class="st24" d="M18.2,117.6c0.1,0.2,0.3,0.5,0.3,0.7C18.5,118,18.4,117.8,18.2,117.6z"/>
					</g>
					<g>
						<path class="st26" d="M97.7,107.9c-2.5,1.2-4.2,0.2-6.1,0.8c-0.3-0.1-0.7-0.3-1.1-0.4c-0.5-0.1-0.9-0.2-1.4-0.2
							c0.2-0.6,0.4-1.2,0.6-1.8c0.1,0,0.2,0,0.2,0c0.8,0.3,1.7,0.6,2.5,0.9c0.5,0,1.1,0,1.6,0c0.7,0.2,1.1-0.4,1.7-0.4
							C96.4,107.1,97,107.5,97.7,107.9z"/>
					</g>
					<g>
						<path class="st26" d="M74.1,109c-0.9-0.1-0.3,0.7-2,0.9l-0.5,0c-0.4-0.1-0.8-0.3-1.2-0.4c0-0.3,0-0.6,0-0.9
							c0.4-0.1,0.7-0.2,1.2-0.3C72.1,108.6,72.5,108.6,74.1,109z"/>
					</g>
					<g>
						<path class="st26" d="M54.4,109.6c-0.8,0.9-1.1,0.9-2.2,0.8c-0.6,0.4-1.1,0.8-1.6,1.2c-0.6-0.2-1.3-0.4-2-0.6
							c-0.5,0.2-0.9,0.4-1.4,0.6c-0.5-0.6-0.9-1.1-1.7-0.6c-0.1-0.9,2.1,0.1,1.6-2.1c0.3,0,0.8,0,1.1-0.1c0.3,0.3,0.6,0.6,0.9,0.9
							c0.8,0,1.5,0.1,2.2,0.1c0.2,0,0.3,0,0.6,0C52.8,109.7,53.6,109.6,54.4,109.6z"/>
					</g>
					<g>
						<path class="st26" d="M54.7,109.6c-0.1,0-0.2,0-0.3,0C54.5,109.6,54.6,109.6,54.7,109.6z"/>
					</g>
					<g>
						<path class="st26" d="M38.5,112.3c-0.5,0.5-0.9,1-1.3,1.4c-0.5-0.2-1-0.5-1.4-0.8c0.6-0.3,1.2-0.7,1.9-1
							C37.9,112,38.2,112.1,38.5,112.3z"/>
					</g>
					<g>
						<path class="st26" d="M38.7,112.3c-0.1,0-0.2,0-0.2,0C38.5,112.3,38.6,112.3,38.7,112.3z"/>
					</g>
					<g>
						<path class="st23" d="M20.4,115.8c-0.1,0.1-0.2,0.2-0.3,0.3C20.1,116,20.2,115.9,20.4,115.8z"/>
					</g>
				</g>
			</g>
		</g>
	</g>
</g>
<g>
	<g>
		<path class="st27" d="M105,89.5c0,0,11.6-3.4,12.2-0.9c0.7,2.5-2.4,3-2.4,3l-60,15.8c0,0-2.6,0.7-3.2-1.5c-0.6-2.2,10-5,10-5
			L105,89.5z"/>
		<path class="st28" d="M51.8,106.6c0,0,8.6-1.6,32.6-7.9s33-9.4,33-9.4s0.5,1.6-2.5,2.4c0,0-27.9,7.4-30.2,8
			c-2.5,0.7-29.9,7.9-29.9,7.9C52.2,108.2,51.8,106.6,51.8,106.6z"/>
	</g>
	<g>
		<g>
			<path class="st29" d="M70.4,67.3c0,0,3.1-2.4,6.3-3.2c3.6-1,5-0.2,5-0.2s2.8,0.6-4.4,2.6C70,68.4,70.4,67.3,70.4,67.3z"/>
			<path class="st30" d="M89.4,72.7c0,0,14.8,14.4,14.8,14.9c0,1.3-1.9,5.3-1.9,5.3l4.1,4.8c0,0,4.1-8.8,4-11
				c-0.1-2.2-15.8-20.3-17.4-20.9c-1.6-0.6-11.4-0.4-11.4-0.4l0.9,6.6L89.4,72.7z"/>
			<path class="st30" d="M73.4,61.9l0.6,3.3l-4.2,2.6c0,0,2.4,3,8,1.5c5.6-1.5,5.8-5.2,5.8-5.2l-4.6-0.3l-1.2-3.1L73.4,61.9z"/>
			<path class="st30" d="M64,72.1c0,0-1.6,3.5-2.3,6.3c-1.8,7.4-3.6,14.7-4.1,16.6C57.2,96.2,42,83.5,42,83.5l-3.1,4
				c0,0,18.4,16.1,21.2,14.6s7.6-18.6,7.6-18.6l7.5-14.2l-1-3.4L64,72.1z"/>
			<path class="st31" d="M92.6,65.1c-1.4-0.6-10.3-1.2-11.4-1.4c0,0,0.9,0.8-4.4,2.2c-5.2,1.4-4.9,0.4-4.9,0.4s-7.4,4.6-8.4,6.2
				c-0.6,1-4.2,13.4-4.5,14.9c-0.3,1.5,7,2.9,7.4,1.8c0.6-1.5,2.1-6.3,2.1-6.3s1.1,2.1,2.8,7.4c1.8,5.5,5,17,5,17l21.1-5.5
				c0,0-3.4-12.3-4.3-16.6c-0.9-4.3-1.8-10.2-1.8-10.2s5.3,5.1,5.8,5.7c0.7,0.8,6.6-2.4,6.3-3.9C103.3,76,95.1,66.1,92.6,65.1z"/>
			<path class="st32" d="M92.4,84.2c1.4,6.6,4.5,17.9,4.5,17.9l0.5-0.1c0,0-3.8-13.7-4.5-17.5c-0.8-4.1-2.1-11.9-2.1-13.9
				C90.8,70.6,91,77.3,92.4,84.2z"/>
			<path class="st32" d="M72,90.4c2,6.4,4.8,16.4,4.8,16.4l-0.6,0.3c0,0-3.9-13.8-5.1-17.5c-1.3-3.9-5-12.7-5.9-14.4
				C65.2,75.1,70,84,72,90.4z"/>
		</g>
		<g>
			<path class="st30" d="M52.8,38.3c-2.6-3.9-7-3.4-8.2-1.8s0.4,4.7,2.6,7.5c2.2,2.8,6.2,4.7,7.9,4.4C56.8,48.1,55.4,42.3,52.8,38.3
				z"/>
			<path class="st30" d="M44,26c0,0,4,11.3,9.1,21.1c4.7,9.2,9,11.7,13.4,14.7c3.4,2.3,6.9,2.8,10.4,1.7c3.6-1.1,5.3-3.3,9-9.3
				c2.6-4.3,3.1-8.6,3.4-17.3c0.4-9.9-2.4-22.6-2.4-22.6s-11-3.7-23.1-0.1S44,26,44,26z"/>
			<path class="st30" d="M85.3,30.1c0.3-4.7,4.4-6.4,6.2-5.6c1.8,0.7,2,4.3,1.4,7.8s-3.1,7.2-4.7,7.7C86.7,40.6,85,34.8,85.3,30.1z"
				/>
			<path class="st33" d="M50.6,42c0,0,2.6,7.1,7.8,13.2c1.3,1.5,2.4,2.4,4.2,3.9c3.7,2.9,8.4,5.9,13.4,4.6
				c4.6-1.2,7.3-4.3,10.9-11.4c2.4-4.9,2.4-19,2.4-19S88.2,44,86.9,47.5c-2,5.6-7.8-0.1-14.3,1.7c-7.4,2-9.5,9.9-13.4,5.4
				C54.5,49,50.6,42,50.6,42z"/>
			<g>
				<path class="st34" d="M69.5,38.5c0.1,0.7,0.1,1.5,0.1,2.2c0,0.7,0,1.4,0.1,2.1c0,0.2,0.1,0.3,0.1,0.5l0.1,0.5
					c0.1,0.3,0.2,0.6,0.3,1c0.1,0.3,0.3,0.6,0.5,0.7c0.2,0.2,0.6,0.2,0.9,0c-0.2,0.3-0.6,0.6-1.1,0.4c-0.5-0.1-0.8-0.5-1-0.8
					c-0.5-0.7-0.7-1.3-0.9-2.2c-0.1-0.8,0-1.5,0.1-2.3C69,39.9,69.2,39.1,69.5,38.5z"/>
			</g>
			<g>
				<path class="st35" d="M70.7,56c0,0,0.7,1.2,3.5,0.1c2.6-0.9,4.3-2.7,0.2-1.2C72.8,55.5,70.7,56,70.7,56z"/>
				<path class="st36" d="M70.7,56c0,0,2.5,0,4.2-0.7c1.7-0.7,1.8-1,1.8-1s-1.1,0.2-2.2,0.5S70.7,56,70.7,56z"/>
			</g>
			<path class="st37" d="M75.8,27.3c0.1-0.7-1.5-1.9-3.9-1.8c-2.4,0.1-4.5,0.2-5.8,0.9c-0.6,0.3,0.1,1.9,0.6,1.8
				c0.5-0.1,1.6-0.4,4.3-0.8C74.1,26.9,75.7,27.8,75.8,27.3z"/>
			<path class="st37" d="M54.2,34c-0.5-0.5,0.3-2.6,2.4-3.8c2-1.2,3.1-1.9,4.6-2.2c0.8-0.2,1.3,1.5,0.9,1.9
				c-0.4,0.3-2.1,0.6-4.4,1.7C54.9,32.9,54.5,34.3,54.2,34z"/>
			<path class="st38" d="M61.3,37.2c-0.7-0.5-0.3-1.2-1.1-1.1c-0.8,0.1-1.4,0.7-1.3,1.5c0.1,0.8,0.9,1.2,1.7,1.1
				C61.4,38.6,62,37.6,61.3,37.2z"/>
			<path class="st38" d="M72.9,33.7c-0.8-0.5-0.2-1.2-1-1.1c-0.8,0.1-1.4,0.7-1.3,1.5c0.1,0.8,0.9,1.2,1.7,1.1S73.6,34,72.9,33.7z"
				/>
		</g>
		<path class="st39" d="M88.2,32.2l0.7,0.1c0.2-3.7-0.3-16.8-3.1-22C79.2-2,74.1,0.2,74.1,0.2l1.1,1.7c0,0-4.3-1.7-6.8-1.9
			s-5.2,0.4-5.2,0.4l4.4,1.2c0,0-7.3-0.6-14.6,3.4S41.7,15.4,41.7,15.4l2-1.1c0,0-2.4,5-2.2,8.1c0.2,3.1,1.1,4.6,0.9,5.8
			c-0.2,1.2,1-3.3,1-3.3s1.7,4.4,3.1,8.2c1.5,3.8,4.2,9,4.2,9l0.5-0.5c0,0-1.1-3.2-2.7-8.8s-1.3-8.6,0-9.6c3.3-2.6,7.8-3.6,8.5-3.5
			c1.3,0.1-1.7,3-1.7,3c2.8-0.9,5.8-3.9,5.5-3.3c-0.9,1.4-2.9,3-2.9,3s5.1-0.6,8.3-2.6c3.2-2,4.3-3.1,5.4-4.1c1.1-1,6.8-2.8,8.7-2.1
			c1.8,0.7,5,1.9,6.2,7C87.6,24.7,88.2,32.2,88.2,32.2z"/>
		<g>
			<g>
				<path class="st40" d="M101.4,40.5c0,0-0.4,4.4-3.2,7.5s-6.8,5.7-6.8,5.7"/>
				<path class="st41" d="M103.4,40.9c0,0,0.3-0.1,0.3-2.1c0-2.1-0.5-2.2-0.5-2.2l-0.8,0l0.1,4.3L103.4,40.9z"/>
				<polygon class="st42" points="99.1,40.7 99.1,36.9 102.4,36.7 102.4,40.9 				"/>
				<path class="st43" d="M87.8,54.2c-0.5,0.3-0.9,0.5-1.2,0.8c-0.1,0,0,0.2-0.1,0.2c-0.1,0-0.2,0-0.2,0.1c-0.7,0.6-1,1.3-0.5,2.1
					c0.4,0.8,1.3,0.7,2.1,0.3c0.2-0.1,0.1-0.2,0.3-0.3c0,0,0.2,0,0.3,0c0.4-0.2,1-0.6,1.3-0.8c1.3-0.8,2.9-1.9,2.3-2.9
					C91.1,52.4,90,53,87.8,54.2z"/>
				<g>
					<path class="st42" d="M86.4,55.2c0.5,0.2,0.8,0.5,1.1,0.9c0.2,0.4,0.4,0.9,0.5,1.3c-0.2-0.4-0.4-0.9-0.7-1.3
						C87.2,55.8,86.8,55.5,86.4,55.2z"/>
				</g>
			</g>
			<polygon class="st44" points="87.8,12.2 89.6,10.4 91.3,12.2 89.4,14.1 			"/>
			<polygon class="st44" points="38.5,26.1 38.8,23.4 41.1,23.9 40.7,26.1 			"/>
			<path class="st45" d="M39,36l-0.3-1.3l2.6-1.5L40,26.1c0,0,1.7-17.5,21.6-22.8s28.6,10.4,28.6,10.4l1.5,5.8l4.2,0.2l0.3,1.2"/>
			<path class="st44" d="M39.9,19.3c0.6-1.8,3.7-12.8,20.3-17.2s25.3,4.7,25.9,5.3c1.1,1.1-1.9,2.4-3.5,1.9
				C81,8.8,73.4,2.9,61.3,6.1S44.5,17.9,44.2,18.9C43.8,20.1,39.5,20.8,39.9,19.3z"/>
			<g>
				<path class="st44" d="M45.8,32.7c0,0,1.2-0.4,1.6,0.2c0.4,0.7,2.7,4.8,4.3,8.6c1.6,3.9,3.6,8.7,3.8,9.8c0.1,0.7-0.7,1.5-0.7,1.5
					L45.8,32.7z"/>
				<polygon class="st46" points="41.7,35 50.1,54 54.8,52.8 45.8,32.7 				"/>
				<polygon class="st36" points="41.3,35.8 49.1,53.6 49.8,53.3 41.9,35.5 				"/>
				<path class="st47" d="M41,35.2l8.4,19.1c0,0-0.5,0.8-2.4,0.8s-4.7-3.1-6.9-8.4s-2.6-8.4-1.5-9.9S41,35.2,41,35.2z"/>
				<polygon class="st32" points="40.6,35.3 49.1,54.6 49.4,54.3 41,35.2 				"/>
				<g>
					<path class="st48" d="M42.8,46.7c0.4,0.2,1.2-0.3,1.3-0.7c0-0.4-1.3-2.8-2.4-5.6c-1-2.5-1.9-4.6-2.1-5.6c-0.1-0.3-1-0.1-1,0.3
						c-0.1,0.6,0.1,2.7,1.5,6C41.3,44,42.2,46.3,42.8,46.7z"/>
					<g>
						<circle class="st49" cx="43.2" cy="45.7" r="0.3"/>
						<path class="st42" d="M43.1,46.1c-0.2-0.1-0.3-0.3-0.2-0.5c0.1-0.2,0.3-0.3,0.5-0.2c0.2,0.1,0.3,0.3,0.2,0.5
							C43.5,46.1,43.2,46.2,43.1,46.1z M43.1,46.1c0.2,0.1,0.4-0.1,0.4-0.2c0.1-0.1,0-0.3-0.1-0.4c-0.1-0.1-0.3,0-0.4,0.2
							C42.8,45.8,42.9,46,43.1,46.1z"/>
					</g>
				</g>
			</g>
			<g>
				<path class="st44" d="M88.8,21.4c0,0-1.3,0.2-1.3,1c0,0.8-0.1,5.5,0.3,9.6s0.9,9.4,1.3,10.4c0.3,0.7,1.3,1,1.3,1L88.8,21.4z"/>
				<polygon class="st46" points="93.5,21.5 95,42.2 90.3,43.4 88.8,21.4 				"/>
				<polygon class="st36" points="94.3,22.1 95.7,41.4 95,41.5 93.6,22.1 				"/>
				<path class="st47" d="M94.2,21.4l1.5,20.8c0,0,0.8,0.5,2.5-0.4c1.7-0.9,2.7-4.9,2.2-10.6c-0.5-5.8-1.6-8.7-3.3-9.5
					C95.5,21,94.2,21.4,94.2,21.4z"/>
				<polygon class="st32" points="94.7,21.3 96.2,42.4 95.8,42.2 94.2,21.4 				"/>
				<g>
					<path class="st48" d="M98,32.4c-0.2,0.3-1.2,0.3-1.5,0c-0.2-0.3-0.2-3.1-0.5-6.1c-0.3-2.7-0.5-5-0.7-5.9
						c-0.1-0.3,0.8-0.5,1-0.3c0.3,0.5,1.1,2.4,1.5,6C98.1,29.3,98.4,31.7,98,32.4z"/>
					<g>
						<circle class="st49" cx="97.2" cy="31.7" r="0.3"/>
						<path class="st42" d="M97.5,32c0.1-0.1,0.1-0.4-0.1-0.5c-0.1-0.1-0.3-0.1-0.4,0.1c-0.1,0.1-0.1,0.3,0,0.4
							C97.2,32.1,97.4,32.1,97.5,32z M97.5,32c-0.1,0.2-0.4,0.2-0.5,0.1c-0.2-0.1-0.2-0.4,0-0.6c0.1-0.2,0.4-0.2,0.6,0
							C97.6,31.6,97.6,31.8,97.5,32z"/>
					</g>
				</g>
			</g>
		</g>
		<path d="M101,84.8c-0.3-1-1.1-0.7-1.1-0.7l-2.4,1c0,0-2,2.1-1.5,3.7c0.4,1.6,3.1,2.3,3.2,2.7c0.1,0.5,2.1,8.4,2.1,8.4
			s0.2,0.6-0.1,0.9c-0.3,0.3-2.7-0.3-5.2-0.4c-2.5-0.1-4.9,0-5.4,0c-0.5,0-0.9-0.4-1-0.9c0-0.1,0-0.2,0-0.2c0.1-0.6,0.1-1.1-0.1-1.7
			c0,0,0-0.1,0-0.1l0,0c0-0.1-0.1-0.3-0.1-0.4c-0.7-2.7-2.7-3.3-4.9-2.7c-2.2,0.6-3.6,2.1-2.9,4.8c0,0.2,0.1,0.3,0.2,0.5l0,0l0,0
			c0.2,0.5,0.4,1,0.7,1.4c0.1,0.3,0.2,0.5,0.2,0.7c0,0.8-0.7,1.1-0.7,1.1s-2.3,1.3-4,2.3c-1.7,1-4.8,3.4-5,3.3
			c-0.3-0.1-0.4-0.8-0.4-0.8s-2-7.9-2.2-8.6c-0.2-0.7,0.9-1.6,0.9-1.6s0.7-1.2,0.5-2c-0.2-0.8-1-1.3-1-1.3s-1.8-1.4-2.3-1.3
			C68,92.8,66.2,93,66.2,93s-1,0-0.8,1.4c0.3,1.4,0.4,2.2,0.6,3.1c0.2,0.9,1.2,1.4,1.2,1.4s2.3,8.5,3,11.1c0.7,2.8,2.9,1.8,4.8,0.5
			c1.9-1.3,4.6-3.6,12.3-5.6s13.2-0.6,15.3-1.2c2.1-0.6,2.2-1.6,1.4-4.7c-0.5-1.9-2.1-7.9-2.3-8.6c-0.2-0.7-0.1-0.9,0.2-1.4
			c0.3-0.5,0.1-1,0.1-1S101.3,85.7,101,84.8z"/>
		<g>
			<path class="st34" d="M57.4,95c0.4,0.4,0.7,0.9,1,1.4c0.2,0.5,0.4,1,0.6,1.5c-0.3-0.5-0.4-1-0.7-1.5C58.1,95.9,57.8,95.5,57.4,95
				z"/>
		</g>
		<g>
			<path class="st34" d="M105,87.3c0.3-0.2,0.7-0.2,1.1-0.3c0.4-0.1,0.7-0.1,1.1-0.2c0.4,0,0.7,0,1.1,0c0.4,0,0.7,0.1,1.1,0.2
				c-0.7-0.2-1.5-0.1-2.2-0.1c-0.4,0-0.7,0.1-1.1,0.1C105.7,87.1,105.3,87.1,105,87.3z"/>
		</g>
		<g>
			<path class="st30" d="M25.6,83.1c-0.2-0.5-0.3-1.4-0.3-1.4l2.6-0.4c0,0,0.3,1.6,0.7,2.2c0,0-0.8,0.1-1.8-0.2
				C25.7,83.2,25.6,83.1,25.6,83.1z"/>
			<g>
				<path class="st34" d="M26.5,81.7c0.1,0.3,0.1,0.6,0.2,0.8c0,0.3,0.2,0.5,0.3,0.8c-0.2-0.2-0.3-0.5-0.4-0.8
					C26.6,82.2,26.6,82,26.5,81.7z"/>
			</g>
			<path class="st30" d="M26.2,84.8c0,0-0.9-0.4-1.6-1.2c-0.4-0.4-0.7-1.2-0.9-1.6c-0.5-0.9-1.4-3.4-0.6-3.9c0.6-0.3,0.9,0.3,1,0.7
				s0.4,1.3,1,2.4c0.6,1.1,2.1,2.1,2.7,2.5c0.5,0.4,0.7,0.4,0.7,0.4L26.2,84.8z"/>
			<g>
				<polygon points="25.1,84.6 21.4,78.5 25.8,74.4 31.7,73.3 34.4,79.8 31.2,84.9 				"/>
				<g>
					<polygon class="st50" points="21.8,78.6 22.9,80.4 24.3,80.3 23.3,78.5 					"/>
					<polygon class="st51" points="23.7,78.5 24.7,80.3 26.3,80.2 25.3,78.3 					"/>
					<polygon class="st50" points="25.7,78.3 26.7,80.2 28.5,80.1 27.5,78.1 					"/>
					<polygon class="st50" points="23.1,80.8 24.1,82.4 25.6,82.4 24.6,80.7 					"/>
					<polygon class="st50" points="24.9,80.7 26.6,80.7 27.5,82.4 25.9,82.4 					"/>
					<polygon class="st50" points="27,80.7 27.9,82.4 29.7,82.5 28.7,80.6 					"/>
					<polygon class="st50" points="24.4,82.8 25.2,84.3 26.7,84.4 25.8,82.8 					"/>
					<polygon class="st50" points="26.1,82.8 27,84.4 28.7,84.5 27.8,82.8 					"/>
					<polygon class="st50" points="28.2,82.9 29,84.5 30.8,84.6 29.9,82.8 					"/>
					<polygon class="st52" points="27.9,78 28.9,79.9 30,78.6 29.1,76.6 					"/>
					<polygon class="st50" points="29.3,76.3 30.3,78.2 31.3,77 30.4,75.1 					"/>
					<polygon class="st51" points="30.6,74.8 31.5,76.7 32.4,75.6 31.6,73.7 					"/>
					<polygon class="st51" points="29.1,80.4 30.1,82.2 31.1,80.9 30.2,79 					"/>
					<polygon class="st51" points="30.5,78.7 31.3,80.5 32.3,79.2 31.5,77.4 					"/>
					<polygon class="st51" points="31.7,77.1 32.5,78.9 33.3,77.7 32.6,76 					"/>
					<polygon class="st51" points="30.3,82.7 31.2,84.4 32.1,82.9 31.3,81.3 					"/>
					<polygon class="st51" points="31.5,80.9 32.4,82.6 33.2,81.2 32.5,79.6 					"/>
					<polygon class="st51" points="32.6,79.3 33.4,81 34.2,79.7 33.5,78.1 					"/>
					<polygon class="st53" points="25.7,77.9 26.9,76.6 28.7,76.4 27.5,77.7 					"/>
					<polygon class="st53" points="27.2,76.4 28.9,76.1 30.1,74.9 28.3,75.1 					"/>
					<polygon class="st53" points="28.5,74.9 30.3,74.6 31.3,73.5 29.5,73.9 					"/>
					<polygon class="st53" points="23.7,78.1 25.4,77.9 26.6,76.7 24.9,76.9 					"/>
					<polygon class="st53" points="25.2,76.6 26.8,76.4 27.9,75.2 26.3,75.5 					"/>
					<polygon class="st53" points="26.6,75.2 28.2,75 29.1,73.9 27.5,74.3 					"/>
					<polygon class="st53" points="21.9,78.3 23.4,78.2 24.6,76.9 23.2,77.1 					"/>
					<polygon class="st53" points="23.5,76.8 24.9,76.6 26.1,75.5 24.6,75.8 					"/>
					<polygon class="st53" points="24.9,75.5 26.3,75.3 27.2,74.4 25.9,74.6 					"/>
				</g>
			</g>
			<path class="st54" d="M30.8,76.3c0,0,0,0.5,1.4,2c0.3,0.3,0.6,0.8,0.8,1.1c0.3,0.5,0.7,1.4,0.7,1.4l1-1.4l-2.1-3.3L30.8,76.3z"/>
			<path class="st55" d="M24.3,80c0,0-0.4,0.6-0.2,2.5c0,0.4,0.3,0.8,0.5,1.1c0.3,0.5,0.6,1,0.6,1l1.9,0.1c0,0-1-1.3-1.3-2.2
				c-0.3-0.9-1-2.5-1-2.5L24.3,80z"/>
			<g>
				<path class="st30" d="M42.4,83.8c0.1,1.3-2.1,3.9-6.7,4.6c-4.1,0.6-4.9,1-6,0.8c-2-0.4-4-2-4.9-3.1c-0.5-0.7,0.3-1.5,1.2-1.4
					c0.6,0.1,4.7,0.2,5.2,0.3c0,0,1.6-2.7,2.2-3.7c0.3-0.4,0.6-0.5,0.4-0.9c-0.4-0.8-1.3-2.2-1.4-2.2c-0.8-0.5-2-1.6-1.5-2.4
					c0.2-0.3,1.2-0.2,2.3,0.6c1.2,0.8,2,2.2,2.5,2.4c0.9,0.5,3.6,2.4,4.1,2.7C40.3,81.6,42.3,82.5,42.4,83.8z"/>
				<g>
					<path class="st34" d="M34.4,87.1c-0.6-0.3-1.1-0.7-1.5-1.2c-0.4-0.5-0.7-1.1-1-1.7c0.4,0.5,0.8,1,1.2,1.5
						C33.4,86.2,33.9,86.6,34.4,87.1z"/>
				</g>
				<g>
					<path class="st34" d="M37.3,79.9c-0.5,0.2-1.1,0.4-1.6,0.5c-0.6,0.1-1.1,0.1-1.7,0.2c0.6-0.1,1.1-0.2,1.7-0.3
						C36.2,80.2,36.7,80,37.3,79.9z"/>
				</g>
				<g>
					<path class="st34" d="M30.1,88.2c0.1-0.5,0.1-1.1,0.1-1.6c0-0.5,0-1.1,0.1-1.6c0.1,0.5,0.2,1.1,0.1,1.6
						C30.4,87.2,30.3,87.7,30.1,88.2z"/>
				</g>
				<path class="st30" d="M25.8,87c0,0-0.8-0.6-1.3-1.5c-0.3-0.5-0.4-1.3-0.6-1.8c-0.3-1-0.7-3.6,0.2-3.9c0.6-0.2,0.8,0.5,0.8,0.9
					c0,0.4,0.1,1.4,0.5,2.6s1.7,2.5,2.1,3c0.4,0.5,0.7,0.5,0.7,0.5L25.8,87z"/>
			</g>
			<path class="st32" d="M26.5,84.7c0,0,4.1,2.4,5.1,2.1c0.9-0.3,1.8-5.5,1.8-5.5l-2.2,3.7L26.5,84.7z"/>
			<g>
				<path class="st34" d="M32.5,78.2c0.3-0.1,0.5-0.2,0.8-0.2C33.1,78.1,32.8,78.2,32.5,78.2z"/>
			</g>
		</g>
		<path class="st56" d="M67.2,93.1c-0.9,0.1-1.4,0.1-1.5,0.5c-0.1,0.4,0.1,1,0.2,1.8c0.2,1,0.5,2.4,0.5,2.4l0,0c0,0-0.1-2.6-0.2-3.5
			C66.1,93.5,67.2,93.1,67.2,93.1z"/>
		<polygon class="st56" points="68.1,99.1 70.5,109.9 67.5,99 		"/>
		<polygon class="st56" points="99.4,91.4 100.1,91.7 101.4,99.4 		"/>
		<path class="st56" d="M97.7,85.6c0,0-1.6,1.8-1.4,3c0.2,1.2,2.4,2,2.4,2s-1.8-1-2.1-2.1S97.7,85.6,97.7,85.6z"/>
		<path class="st57" d="M84.5,99.4c0,0-0.6-2,0.1-2.1c0.6-0.2,0.7-0.2,1.2-0.3s1.1,1.8,1.1,1.8L84.5,99.4z"/>
		<path class="st56" d="M84.6,94.7c0,0-1.6,0.3-2.5,1.7s0.5,3.9,0.5,3.9s-0.7-2,0.2-3.5C83.8,95.2,84.6,94.7,84.6,94.7z"/>
		<path class="st58" d="M101.5,144.1l-7.6,2l-11.9-40.8c0,0-2.2-5.7,3.5-7.2s6.9,4.4,6.9,4.4L101.5,144.1z"/>
		<path class="st36" d="M92.6,140.9c0,0-6.8-23.7-10.2-36.4c-0.8-3.1,1.2-4.9,2.2-5.1c0,0-2.6,0.7-1.6,4.9
			C83.6,106.8,92.6,140.9,92.6,140.9z"/>
		<g>
			<path class="st30" d="M105.5,93.8c0,0,0.2-0.1-0.2-1c-0.3-0.8-1.2-0.7-1.5-0.8c-0.3-0.1-1.9-1.5-2-1.6c0,0,0.4,1.4,0.5,1.8
				c0.1,0.6-0.3,1.4-0.8,1.5c-0.6,0.2-0.9,0.6-1.3,0.4c-0.5-0.1-0.5-2.1-1.1-1.7c-0.9,0.5-2.5,1.1-2.5,2.2c0,1.1,0.9,2.1,1.2,2.6
				c0.4,0.5,1,2.3,1.5,2.9c0.5,0.6,1.8,1.3,2.5,1.2c0.7-0.1,2.5-0.9,4.2-1.9c0.5-0.3,0.8-0.7,0.7-1.2c-0.1-0.5-0.3-0.6-0.3-0.6
				s0.2-0.2,0-0.9s-0.3-0.7-0.3-0.7s0.1-0.3-0.1-1.3C105.9,94.2,105.5,93.8,105.5,93.8z"/>
			<g>
				<path class="st34" d="M102.3,92.8c-0.2,0.3-0.4,0.6-0.7,0.9c-0.3,0.2-0.6,0.4-1,0.5c-0.2,0.1-0.4,0.1-0.6,0.1
					c-0.2-0.1-0.3-0.2-0.5-0.3c-0.3-0.2-0.6-0.4-0.9-0.6c0.3,0.1,0.7,0.2,1,0.4c0.2,0.1,0.3,0.2,0.5,0.2c0.1,0,0.3,0,0.4-0.1
					c0.3-0.1,0.7-0.3,0.9-0.4C101.8,93.4,102,93.1,102.3,92.8z"/>
			</g>
			<g>
				<path class="st34" d="M99.8,94l-0.4-1.5l0,0c-0.5-0.1-1,0.2-1.4,0.6c-0.1,0.1-0.2,0.2-0.4,0.2c-0.1,0-0.2,0.1-0.3,0.2
					c-0.2,0.1-0.4,0.3-0.5,0.5c-0.3,0.4-0.2,1,0.1,1.4c0.3,0.4,0.8,0.7,1.2,0.9c0.5,0.2,1,0.4,1.5,0.4c0.5-0.1,1-0.4,1.4-0.6
					l2.8-1.5l-2.8,1.5c-0.5,0.2-0.9,0.5-1.4,0.7c-0.5,0-1-0.2-1.5-0.4c-0.5-0.2-0.9-0.5-1.3-0.9c-0.4-0.4-0.4-1.1-0.1-1.5
					c0.1-0.2,0.3-0.4,0.6-0.6c0.1-0.1,0.2-0.1,0.4-0.2c0.1,0,0.2-0.1,0.3-0.2c0.4-0.3,0.9-0.7,1.4-0.6l0,0l0,0L99.8,94z"/>
			</g>
			<g>
				<path class="st34" d="M96.7,95.5c0.4,0.6,0.8,1.3,1.2,1.8c0.2,0.3,0.5,0.5,0.8,0.8c0.1,0.1,0.3,0.3,0.4,0.3
					c0.2,0.1,0.3,0.1,0.5,0.1c0.2,0,0.4,0,0.5,0c0.2,0,0.3-0.1,0.5-0.2l1-0.5l2-1l-2,1c-0.3,0.2-0.7,0.3-1,0.5
					c-0.2,0.1-0.3,0.2-0.5,0.2c-0.2,0-0.4,0-0.6,0c-0.2,0-0.4,0-0.5-0.1c-0.2-0.1-0.3-0.2-0.4-0.3c-0.3-0.2-0.5-0.5-0.8-0.8
					C97.4,96.9,97.1,96.2,96.7,95.5z"/>
			</g>
			<g>
				<path class="st34" d="M98.5,98.9c0.2,0.2,0.4,0.4,0.6,0.5c0.1,0.1,0.2,0.2,0.3,0.3c0.1,0.1,0.2,0.1,0.3,0.2
					c0.2,0.1,0.5,0.2,0.8,0.3c0.1,0,0.3,0.1,0.4,0.1c0.1,0,0.2-0.1,0.4-0.1c1-0.5,1.9-1,2.9-1.4c-0.9,0.5-1.9,1-2.9,1.5
					c-0.1,0.1-0.2,0.1-0.4,0.1c-0.1,0-0.3,0-0.4-0.1c-0.3-0.1-0.5-0.2-0.8-0.3c-0.3-0.1-0.5-0.3-0.7-0.5
					C98.9,99.3,98.7,99.1,98.5,98.9z"/>
			</g>
			<g>
				<path class="st34" d="M106.7,98.3c-0.1-0.2-0.1-0.4-0.3-0.6l0,0l0,0c0.2-0.2,0.1-0.5,0-0.8c-0.1-0.3-0.2-0.5-0.3-0.8l0,0l0,0
					c0.1-0.4,0-0.8-0.1-1.2c-0.1-0.4-0.3-0.8-0.5-1.1l0,0l0,0c0.1-0.2,0-0.4-0.1-0.6c-0.1-0.2-0.2-0.4-0.3-0.6
					c-0.2-0.2-0.4-0.3-0.6-0.3c-0.2-0.1-0.5-0.1-0.7-0.1c0.2,0,0.5,0,0.7,0.1c0.2,0,0.5,0.1,0.6,0.3c0.2,0.2,0.3,0.4,0.3,0.6
					c0.1,0.2,0.2,0.4,0.1,0.7l0-0.1c0.3,0.3,0.5,0.7,0.6,1.1c0.1,0.2,0.1,0.4,0.1,0.6c0,0.2,0,0.4,0,0.6l0,0
					c0.1,0.3,0.2,0.5,0.3,0.8c0.1,0.3,0.1,0.6-0.1,0.8l0,0C106.6,97.9,106.7,98.1,106.7,98.3z"/>
			</g>
		</g>
		<g>
			<path class="st34" d="M101.8,90.4c0.4,0.2,0.7,0.5,1,0.7c0.3,0.3,0.7,0.5,1,0.9c-0.4-0.2-0.7-0.5-1-0.7
				C102.4,91,102.1,90.8,101.8,90.4z"/>
		</g>
	</g>
	<g>
		<path class="st59" d="M64.5,169.2l-6.7,1.8c0,0,1.1,4.1,1.5,5.5c0.4,1.5,6.9-0.7,6.7-1.8C65.6,173.6,64.5,169.2,64.5,169.2z"/>
		<path class="st32" d="M58.4,173c0,0,1.3,0.4,3.5-0.2s3.1-1.6,3.1-1.6l-0.3-1.3l-6.7,1.8L58.4,173z"/>
		
			<rect x="55.1" y="151.8" transform="matrix(0.9669 -0.2552 0.2552 0.9669 -37.671 19.8054)" class="st60" width="4.8" height="6.4"/>
		<path class="st27" d="M54,168.9c-0.5-2.1-1.4-12.5,3.5-13.8c4.8-1.3,8.9,8.6,9.4,10.4c0.5,1.8,1.1,4.9-4.9,6.5
			S54.5,170.9,54,168.9z"/>
		<path class="st28" d="M53.6,163.3c0,0,1.8-3.9,5-3.3c3.2,0.6,6.5,4.4,7.4,7.1S66,170,66,170s2.5-1.7-0.2-7.1
			c-2.2-4.6-5-8.7-8.4-7.8C53.4,156.1,53.6,163.3,53.6,163.3z"/>
		<g class="st32">
			<path class="st42" d="M61.3,172.4c0.3,0.6,0.4,1.2,0.6,1.9c0.2,0.6,0.3,1.3,0.4,1.9c-0.3-0.6-0.4-1.2-0.6-1.9
				C61.5,173.7,61.4,173.1,61.3,172.4z"/>
		</g>
		<g class="st32">
			<path class="st42" d="M62.2,172.2c0.3,0.6,0.4,1.2,0.6,1.9c0.2,0.6,0.3,1.3,0.4,1.9c-0.3-0.6-0.4-1.2-0.6-1.9
				C62.5,173.5,62.3,172.9,62.2,172.2z"/>
		</g>
	</g>
	<g>
		<path class="st61" d="M68.3,135.8c0,0-2.3,2.2-3.2,2.4c-0.9,0.2-12.6,2.6-25.4,4s-22.8,1.9-24.5,2.3c-1,0.3-1,4.4,0.3,4.7
			c1.2,0.4,9.2,3.1,25.4,3.7c15.7,0.5,35.3-0.4,35.3-0.4s-1.9-5.8-3.3-8.3C71.3,141.7,68.3,135.8,68.3,135.8z"/>
		<path class="st62" d="M69.3,137.8l2.6,4.9c0,0-8.5,3.3-27.4,4.6c-15.1,1-30,0.2-30,0.2s-0.1-1.1,0.1-2c0.2-0.9,0.6-1,0.8-1
			c0.1,0,10.4-0.9,23.4-2.2c14.8-1.4,26.9-4.3,26.9-4.3l2.7-2.2L69.3,137.8z"/>
		<g class="st32">
			<path class="st36" d="M73.6,145.8c-4.5,1.6-9.2,2.6-13.9,3.4c-4.7,0.8-9.5,1.2-14.2,1.4c-4.8,0.1-9.5,0.1-14.3,0
				c-4.8-0.1-9.5-0.3-14.3-0.7c2.4,0.1,4.8,0.2,7.1,0.2c2.4,0.1,4.8,0.1,7.1,0.1c4.8,0,9.5,0,14.3-0.1c4.7-0.1,9.5-0.5,14.2-1.2
				c2.4-0.3,4.7-0.8,7-1.3C69,147.1,71.3,146.5,73.6,145.8z"/>
		</g>
		<g class="st32">
			<path d="M15.4,149.3c2.5,0.5,5,0.9,7.5,1.3c2.5,0.4,5,0.6,7.5,0.9c2.5,0.2,5,0.4,7.6,0.5c2.5,0.1,5.1,0.1,7.6,0.2
				c5.1,0.2,10.1,0.2,15.2,0.2l15.2,0.1c-5.1,0.4-10.1,0.5-15.2,0.6c-5.1,0.1-10.2,0.1-15.2,0c-5.1-0.1-10.2-0.3-15.2-0.9
				C25.3,151.6,20.3,150.8,15.4,149.3z"/>
		</g>
	</g>
	<g>
		<path class="st59" d="M139.5,149.5l6.7-1.8c0,0,1.1,4.1,1.5,5.5s-6.4,2.8-6.7,1.8C140.7,153.9,139.5,149.5,139.5,149.5z"/>
		<path class="st32" d="M146.7,149.8c0,0-0.9,1-3.1,1.6s-3.5,0.2-3.5,0.2l-0.3-1.3l6.7-1.8L146.7,149.8z"/>
		
			<rect x="136.2" y="130.5" transform="matrix(0.9669 -0.2552 0.2552 0.9669 -29.5504 39.8107)" class="st60" width="4.8" height="6.4"/>
		<path class="st27" d="M148.5,144c-0.5-2.1-5-11.6-9.8-10.3c-4.8,1.3-3.5,11.8-3.1,13.7c0.5,1.8,1.5,4.9,7.5,3.3
			S149.1,146.1,148.5,144z"/>
		<path class="st28" d="M146.9,140.8c-1.5-3.6-5.2-8.4-8.2-7.1c-3,1.3-3.6,4.3-3.5,9.5c0,5.3,2,7,2,7s-1-9.2,2.5-11.7
			C144.6,135,147.5,142.3,146.9,140.8z"/>
		<g class="st32">
			<path class="st42" d="M143.9,150.8c0.3,0.6,0.4,1.2,0.6,1.9c0.2,0.6,0.3,1.3,0.4,1.9c-0.3-0.6-0.4-1.2-0.6-1.9
				C144.1,152.1,144,151.4,143.9,150.8z"/>
		</g>
		<g class="st32">
			<path class="st42" d="M144,154.8c-0.3-0.6-0.4-1.2-0.6-1.9c-0.2-0.6-0.3-1.3-0.4-1.9c0.3,0.6,0.4,1.2,0.6,1.9
				C143.7,153.5,143.9,154.2,144,154.8z"/>
		</g>
	</g>
	<g>
		<path class="st61" d="M119.7,122.4c0,0,3.1,0.8,4,0.5c0.9-0.2,12.3-3.9,24.1-9.1c11.8-5.2,20.7-9.6,22.5-10.1c1-0.3,3,3.3,2.1,4.2
			s-6.5,7.3-20.3,15.7c-13.4,8.2-30.9,17-30.9,17s-1.2-5.9-1.2-8.9C120,129,119.7,122.4,119.7,122.4z"/>
		<path class="st62" d="M119.8,124.6l0.1,5.6c0,0,9-1.4,26.1-9.6c13.6-6.5,26.2-14.6,26.2-14.6s-0.4-1-1-1.7c-0.6-0.6-1-0.5-1.2-0.5
			c-0.1,0-9.5,4.3-21.4,9.6c-13.6,6.1-25.5,9.5-25.5,9.5l-3.5-0.6L119.8,124.6z"/>
		<g class="st32">
			<path class="st36" d="M120.1,133.7c2.3-0.5,4.6-1.2,6.9-1.9c2.3-0.7,4.5-1.5,6.7-2.3c4.4-1.7,8.8-3.7,12.9-5.9
				c4.2-2.2,8.3-4.6,12.5-6.9c2.1-1.2,4.1-2.4,6.2-3.6c2-1.2,4.1-2.4,6.1-3.7c-3.9,2.7-8,5.2-12.1,7.7c-4.1,2.4-8.2,4.8-12.4,7
				c-4.2,2.2-8.6,4.2-13,5.8C129.4,131.4,124.8,132.8,120.1,133.7z"/>
		</g>
		<g class="st32">
			<path d="M172.4,108c-3.5,3.7-7.5,6.9-11.6,9.9c-4.1,3-8.4,5.7-12.8,8.3c-4.4,2.6-8.8,5.1-13.3,7.5c-4.5,2.4-9,4.8-13.6,7
				l13.2-7.6c4.4-2.6,8.8-5.1,13.1-7.7c2.2-1.3,4.4-2.6,6.5-3.9c2.1-1.3,4.2-2.8,6.3-4.2c2.1-1.4,4.1-2.9,6.1-4.5
				C168.5,111.3,170.5,109.7,172.4,108z"/>
		</g>
	</g>
	<path class="st32" d="M119.7,122.4l3.5,0.6c0,0,20.3-5.9,23.2-4.1c2.9,1.9,5.8,4.8,5.8,4.8l-30.9,17L119.7,122.4z"/>
	<path class="st61" d="M72.7,111.7c0,0,2.3-2.3,15.3-5.7s15.5-2.4,15.5-2.4s13.9,8.6,17.6,22.6c3.7,13.9-1.8,29.3-18.8,33.8
		s-29.1-5.5-32.9-20.2C65.5,125.1,72.7,111.7,72.7,111.7z"/>
	<g>
		<path class="st63" d="M71.3,107.8c-0.6,1.5-2.1,4.7-1.1,6.8s8.6-2.3,18.6-4.9s19.7-3.2,19.6-5.2c-0.1-1.9-2.6-3.2-4.4-4.9
			C102.5,98.3,71.9,106.3,71.3,107.8z"/>
		<path class="st64" d="M70.9,112.2c0,0,1-19.8,12.7-22.9s22.5,13.5,22.5,13.5L70.9,112.2z"/>
		<path class="st65" d="M82.4,104.3c0,0-0.1-3.6,0.5-8c0.6-4.5,1.8-7.4,1.9-7.3c0.2,0.1,3.4-0.8,8.7,1.7c5.3,2.5,10.4,9,10.4,9
			s-2.4-0.2-7.4,1.1C91.5,102.1,82.4,104.3,82.4,104.3z"/>
	</g>
	<path class="st66" d="M72.3,147.3c-2-5.4-1.1-10.8-0.7-14.5c0.5-4.6-2-6.8,0.1-9.4c2.1-2.6,4.6-1.2,9.1-4.5
		c4.6-3.3,5.7-7.4,8.6-8.1c2.9-0.8,5.5,2,10.1,2.5c4.6,0.5,6.9-2,10.4,0c3.5,2.1,2.1,4.6,4.8,7.8c2.7,3.2,6.1,7.5,7.2,13.6
		c1.1,6.2-0.7,11.3-0.7,11.3l-42.5,11.2C78.8,157.2,74.2,152.7,72.3,147.3z"/>
	
		<ellipse transform="matrix(0.9669 -0.2552 0.2552 0.9669 -32.8794 29.5346)" class="st66" cx="97.4" cy="141.5" rx="24.7" ry="23.1"/>
	
		<ellipse transform="matrix(0.9669 -0.2552 0.2552 0.9669 -33.0943 29.6222)" class="st67" cx="97.6" cy="142.3" rx="15.9" ry="15"/>
	<g>
		<polygon class="st68" points="96.7,135 94.7,135.5 92.3,128.3 95.1,127.5 		"/>
	</g>
	<g>
		<polygon class="st68" points="90.8,139.4 90.3,141.4 82.4,139.8 83.1,136.9 		"/>
	</g>
	<g>
		<polygon class="st68" points="91.7,146.8 93.1,148.2 87.7,154.4 85.7,152.3 		"/>
	</g>
	<g>
		<polygon class="st68" points="98.5,149.7 100.4,149.2 102.9,156.4 100.1,157.2 		"/>
	</g>
	<g>
		<polygon class="st68" points="104.4,145.2 104.9,143.3 113.1,145 112.4,147.9 		"/>
	</g>
	<g>
		<polygon class="st68" points="103.5,137.9 102.1,136.5 107.5,130.2 109.6,132.3 		"/>
	</g>
	<g>
		<path class="st57" d="M113.1,138.2c1,4,0.4,8.3-1.8,11.9c-1.1,1.8-2.5,3.4-4.2,4.6c-1.7,1.2-3.6,2.1-5.6,2.7
			c-4.1,1-8.4,0.5-12.1-1.4c-3.7-1.9-6.8-5.2-8.1-9.3c-1.4-4.1-0.8-8.9,1.6-12.6c2.3-3.8,6.2-6.6,10.4-7.7c4.3-1.1,9-0.4,12.7,2
			C109.7,130.6,112.2,134.3,113.1,138.2z M112.8,138.3c-0.6-1.9-1.6-3.7-2.9-5.1c-1.4-1.4-3-2.5-4.8-3.2c-3.6-1.4-7.4-1.5-10.9-0.5
			c-3.6,0.9-6.7,3.1-8.8,6.1c-2.1,3-3.1,6.9-2.3,10.6c0.7,3.8,3.3,7.2,6.8,9c3.5,1.9,7.7,2.2,11.5,1.1c3.8-1,7.2-3.4,9.5-6.6
			c1.1-1.6,2-3.5,2.4-5.4C113.5,142.3,113.4,140.2,112.8,138.3z"/>
	</g>
	<path class="st32" d="M73.5,122c1.4-0.6,3.1-0.6,5.7-2.1c6.3-3.6,6.9-8.2,10.1-9c3.1-0.8,6.6,2.6,11.4,2.5c3.3-0.1,5.9-1.5,7.9-0.6
		c1.3,0.6-5.1,1.6-8.6,1.6c-3.6,0-8.4-2.8-10.3-2.3c-1.9,0.5-6.8,7.4-9.9,9C76.8,122.5,71.3,123,73.5,122z"/>
	<path class="st69" d="M74.4,135.4c0,0,1.2-5.3,7.1-10.6c3.9-3.4,5.2-5.3,6.3-7.1c1.6-2.6,0.7-4.1,2.4-4.5c1.2-0.3,3.3,3.3,5.8,4.5
		c1.7,0.8,7.9,2.6,8.1,3c0.2,0.5-2.9-3.1-12.4-0.6C80.3,123.1,74.4,135.4,74.4,135.4z"/>
	<g>
		<g>
			<path d="M99.5,135.1c0,0,4.1-11.6,10-22.7c5.9-11.1,13.4-18.3,13.4-18.3l2.5,1.2c0,0-1.6,9.9-7.3,20.7s-14.7,21.1-14.7,21.1
				L99.5,135.1z"/>
			<path class="st70" d="M117.7,100l5.8,3.1c0,0,0.3-1,1.2-4.3c0.8-2.9,0.8-3.5,0.8-3.5l-2.5-1.2c0,0-0.9,0.8-2.4,2.6
				C118.9,98.4,117.7,100,117.7,100z"/>
			<path class="st62" d="M100,134.7c0,0,5.5-13.9,9.1-20.5s4.4-7.7,6.2-10.2c1.8-2.6,7.5-9.2,7.5-9.2s-7.8,9.5-12.4,17.8
				C106,121,100,134.7,100,134.7z"/>
			<path class="st36" d="M121.5,100.1c0,0,1.7-4.9,2.5-4.6S121.5,100.1,121.5,100.1z"/>
			<path class="st32" d="M102.9,136.8c0,0,9-10.9,14.4-20.6c5.4-9.7,8.1-20.9,8.1-20.9s-1.8,10.4-7.7,21.4
				c-6.3,11.7-14.3,20.4-14.3,20.4L102.9,136.8z"/>
		</g>
		<g>
			<path d="M96.4,149.8c0,0-4.2,11.6-10.1,22.7c-6,11.1-13.5,18.2-13.5,18.2l-2.5-1.2c0,0,1.7-9.9,7.4-20.7
				c5.7-10.8,14.8-21,14.8-21L96.4,149.8z"/>
			<path class="st70" d="M78,184.8l-5.8-3.1c0,0-0.3,1-1.2,4.3c-0.8,2.9-0.8,3.5-0.8,3.5l2.5,1.2c0,0,0.9-0.8,2.4-2.6
				S78,184.8,78,184.8z"/>
			<path class="st62" d="M95.8,150.1c0,0-5.6,13.9-9.2,20.5s-4.4,7.7-6.3,10.2s-7.6,9.1-7.6,9.1s7.9-9.4,12.5-17.8
				C89.8,163.8,95.8,150.1,95.8,150.1z"/>
			<path class="st32" d="M93,148c0,0-9.1,10.9-14.5,20.6c-5.4,9.7-8.2,20.9-8.2,20.9s1.8-10.3,7.8-21.4
				c6.3-11.6,14.3-20.4,14.3-20.4L93,148z"/>
		</g>
	</g>
	<g>
		<circle class="st71" cx="97.7" cy="142.3" r="7.8"/>
		<path class="st32" d="M104.7,145.7c-1,2-2.7,3.5-5,4.1c-4.2,1.1-8.5-1.4-9.6-5.6c-0.7-2.6,0-5.2,1.6-7.1c1-1.2,1.8,1.6,5.7,4.7
			C101.4,145,105.5,144.1,104.7,145.7z"/>
		<path class="st69" d="M99.5,140.6c-0.6-0.2-0.7-4.5,1-4C102.2,137.2,100.1,140.8,99.5,140.6z"/>
	</g>
</g>
</svg>
