<?xml version="1.0" encoding="utf-8"?>
<!-- Generator: Adobe Illustrator 29.1.0, SVG Export Plug-In . SVG Version: 9.03 Build 55587)  -->
<svg version="1.0" id="Layer_1" xmlns="http://www.w3.org/2000/svg" xmlns:xlink="http://www.w3.org/1999/xlink" x="0px" y="0px"
	 viewBox="0 0 1343 1865" style="enable-background:new 0 0 1343 1865;" xml:space="preserve">
<style type="text/css">
	.st0{fill:none;stroke:#757C52;stroke-width:4;stroke-miterlimit:10;}
	.st1{fill:#FCF7F3;}
	.st2{fill:none;stroke:#757C52;stroke-width:2;stroke-miterlimit:10;}
	.st3{fill:none;stroke:#757C52;stroke-width:2;stroke-linecap:round;stroke-linejoin:round;stroke-miterlimit:10;}
	.st4{fill:#FCF7F3;stroke:#757C52;stroke-miterlimit:10;}
	.st5{fill:#FCF7F3;stroke:#757C52;stroke-width:2;stroke-miterlimit:10;}
	.st6{fill:#757C52;}
	.st7{font-family:'GreyhoundBold';}
	.st8{font-size:115px;}
	.st9{font-size:37.5561px;}
	.st10{fill:#FFFFFF;stroke:#757C52;stroke-width:4;stroke-miterlimit:10;}
	.st11{fill:#756B52;}
	.st12{fill:#FCF7F3;stroke:#757C52;stroke-width:4;stroke-miterlimit:10;}
	.st13{font-family:'AmericanTypewriter';}
	.st14{font-size:38px;}
	.st15{font-family:'AmericanTypewriter-Semibold';}
	.st16{font-size:52px;}
</style>
<rect x="2" y="59" class="st0" width="1339" height="1804"/>
<rect x="22" y="78.2" class="st0" width="1299" height="1765.6"/>
<g>
	<rect x="142" class="st1" width="1056" height="138"/>
</g>
<g>
	<g>
		<line class="st2" x1="313" y1="251" x2="291" y2="207"/>
		<line class="st2" x1="312" y1="170" x2="291" y2="207"/>
		<path class="st3" d="M293,207c0,0-40,4-67,4s-45-1-45-1"/>
		<polygon class="st4" points="312.5,254.5 316.5,253.5 316.5,166.5 311.5,167.5 		"/>
	</g>
	<g>
		<g>
			<path class="st5" d="M1020.2,255c-234.1,33.6-468.9-33.4-703,0.5c0-29.5,0-59,0-88.4c233.3-32.8,466.7,34.6,700,3
				c-10.7,15.8-21.4,31.6-32.2,47.3C996.6,230,1008.3,242.6,1020.2,255z"/>
			<g>
				<path class="st6" d="M399.3,190.5c0.1,0.1,0.1,0.1,0.2,0.2c0.1,0.1,0.1,0.2,0.2,0.3c-0.9,0.9-1.3,1.3-2.2,2.2
					c-0.1-0.1-0.1-0.1-0.2-0.2c-0.1,0-0.1-0.1-0.2-0.1c-0.8-0.9-1.9-1.5-3.2-2c-1.3-0.4-2.5-0.6-3.7-0.5c-2.4,0.2-4.3,1.4-5.7,3.6
					c-1.4,2.2-2.2,5.4-2.2,9.4c0,4,0.8,7.2,2.3,9.4c1.4,2,3.4,3,5.8,2.8c0.6,0,1-0.1,1.3-0.1c0.3,0,0.7-0.2,1.2-0.4
					c2.1-0.7,3.7-1.8,4.7-3.1c0-0.1,0.1-0.1,0.1-0.2c0.1-0.1,0.1-0.1,0.2-0.2c0.9,0.8,1.3,1.2,2.2,2c-0.1,0.1-0.1,0.2-0.2,0.3
					c-0.1,0.1-0.1,0.1-0.2,0.2c-1.5,1.6-3.2,2.8-4.9,3.6c-1.6,0.7-3.4,1.2-5.5,1.3c-3.6,0.2-6.7-0.5-9.2-2.3
					c-2.6-1.8-4.3-4.4-5.2-7.7c-0.4-1.5-0.6-3.1-0.6-4.7c0-1.7,0.2-3.3,0.6-4.8c1-3.5,2.8-6.5,5.4-8.7c1.3-1.1,2.7-2,4.3-2.5
					c1.6-0.6,3.3-0.9,5.1-1.1c1.5-0.1,2.9,0,4.1,0.3c1.2,0.3,2.4,0.8,3.4,1.4c0.7,0.4,1.1,0.8,1.4,1
					C398.8,189.8,399,190.1,399.3,190.5z"/>
				<path class="st6" d="M424,213.4c0,1.3,0,2,0,3.3c-8.1,0.3-12.2,0.5-20.3,0.9c0-10.4,0-20.7,0-31.1c8-0.4,11.9-0.6,19.9-0.9
					c0,1.3,0,2,0,3.3c-4.9,0.2-7.3,0.3-12.2,0.5c0,4,0,6.1,0,10.1c4.4-0.2,6.6-0.3,11-0.5c0,1.3,0,2,0,3.3c-4.4,0.2-6.6,0.2-11,0.5
					c0,4.4,0,6.6,0,11C416.5,213.7,419,213.6,424,213.4z"/>
				<path class="st6" d="M446,212.9c0,1.3,0,2,0,3.3c-7.5,0.1-11.3,0.2-18.9,0.4c0-10.4,0-20.7,0-31.1c3.1-0.1,4.6-0.1,7.7-0.2
					c0,11.1,0,16.7,0,27.8C439.2,213,441.5,212.9,446,212.9z"/>
				<path class="st6" d="M468.2,212.7c0,1.3,0,2,0,3.3c-8.1,0-12.2,0-20.3,0.1c0-10.4,0-20.7,0-31.1c8-0.1,11.9-0.1,19.9-0.1
					c0,1.3,0,2,0,3.3c-4.9,0-7.3,0-12.2,0c0,4,0,6.1,0,10.1c4.4,0,6.6,0,11,0c0,1.3,0,2,0,3.3c-4.4,0-6.6,0-11,0c0,4.4,0,6.6,0,11
					C460.6,212.7,463.1,212.7,468.2,212.7z"/>
				<path class="st6" d="M492.7,212.9c-1.7,2.3-4.2,3.4-7.7,3.3c-5.5-0.1-8.2-0.1-13.7-0.1c0-10.4,0-20.7,0-31.1
					c5.5,0,8.2,0,13.7,0.1c3,0,5.4,1.1,6.9,3.1c1.1,1.5,1.7,3.1,1.7,4.9c0,2.5-0.9,4.3-2.8,5.3c-0.6,0.2-0.9,0.4-1.5,0.6
					c-0.8,0.2-1.1,0.3-1.9,0.5c0.7,0.2,1.1,0.3,1.9,0.5c0.2,0.1,0.4,0.2,0.8,0.3c0.4,0.1,0.7,0.3,0.9,0.4c1.1,0.5,1.9,1.5,2.5,2.7
					c0.6,1.2,0.9,2.6,0.9,4C494.4,209.5,493.8,211.3,492.7,212.9z M478.9,188.3c0,3.9,0,5.8,0,9.7c1.5,0,2.3,0,3.8,0
					c0.7,0,1.3-0.3,1.9-0.9c0.5-0.6,0.9-1.4,1.2-2.5c0-0.6,0.1-0.9,0.1-1.5c0-1.4-0.3-2.5-0.9-3.4c-0.6-0.9-1.4-1.4-2.2-1.4
					C481.2,188.4,480.4,188.3,478.9,188.3z M478.9,201.5c0,4.5,0,6.8,0,11.3c1.8,0,2.7,0,4.4,0.1c1.5,0,2.5-1.3,3-4
					c0.1-0.8,0.1-1.2,0.2-1.9c0-1.6-0.3-2.9-0.9-3.9c-0.6-1-1.4-1.5-2.2-1.5C481.6,201.5,480.7,201.5,478.9,201.5z"/>
				<path class="st6" d="M506.1,187.3c0,9.8,0,19.6,0,29.3c-3.1-0.1-4.6-0.1-7.7-0.2c0-10.4,0-20.7,0-31.1c4.9,0.1,7.3,0.2,12.2,0.3
					c3.9,0.1,6.9,1.2,8.9,3.1c1.6,1.6,2.4,3.4,2.4,5.4c0,1.8-0.7,3.4-2,4.9c-0.7,0.8-1.5,1.3-2.3,1.7c-0.8,0.4-1.7,0.6-2.6,0.6
					c3.3,6.3,4.9,9.4,8.2,15.8c-3.1-0.1-4.7-0.2-7.8-0.3c-3.3-6.8-4.9-10.2-8.2-17.1c1.1,0,1.6,0,2.7,0.1c1.6,0,2.9-0.5,3.9-1.6
					c1-1.1,1.6-2.5,1.6-4.3c0-0.7-0.1-1.3-0.3-2c-0.7-3-2.5-4.5-5.3-4.6C508.4,187.4,507.6,187.3,506.1,187.3z"/>
				<path class="st6" d="M529.1,208.1c-1.5,3.7-2.2,5.5-3.6,9.1c-1.2,0-1.8-0.1-2.9-0.1c3.9-10.2,7.8-20.4,11.7-30.6
					c2.3,0.1,3.5,0.2,5.8,0.3c3.9,10.6,7.8,21.1,11.7,31.7c-3.3-0.2-4.9-0.2-8.2-0.4c-1.4-3.8-2-5.7-3.4-9.4
					C535.8,208.4,533.5,208.3,529.1,208.1z M534.6,193.4c-1.8,4.6-2.7,6.8-4.5,11.4c3.5,0.1,5.3,0.2,8.8,0.4
					C537.2,200.5,536.4,198.1,534.6,193.4z"/>
				<path class="st6" d="M557.4,218.8c0-11.1,0-16.7,0-27.8c-2.7-0.1-4-0.2-6.7-0.3c0-1.3,0-2,0-3.3c8.4,0.4,12.6,0.7,21,1.2
					c0,1.3,0,2,0,3.3c-2.7-0.2-4-0.2-6.6-0.4c0,11.1,0,16.7,0,27.8C562,219,560.5,218.9,557.4,218.8z"/>
				<path class="st6" d="M593.9,217.6c0,1.3,0,2,0,3.3c-8.1-0.5-12.2-0.8-20.3-1.3c0-10.4,0-20.7,0-31.1c8,0.5,11.9,0.7,19.9,1.3
					c0,1.3,0,2,0,3.3c-4.9-0.3-7.3-0.5-12.2-0.8c0,4,0,6.1,0,10.1c4.4,0.3,6.6,0.4,11,0.7c0,1.3,0,2,0,3.3c-4.4-0.3-6.6-0.4-11-0.7
					c0,4.4,0,6.6,0,11C586.3,217.1,588.9,217.3,593.9,217.6z"/>
				<path class="st6" d="M611.7,222.2c0-11.1,0-16.7,0-27.8c-2.7-0.2-4-0.3-6.7-0.5c0-1.3,0-2,0-3.3c8.4,0.6,12.6,0.9,21,1.5
					c0,1.3,0,2,0,3.3c-2.7-0.2-4-0.3-6.6-0.5c0,11.1,0,16.7,0,27.8C616.2,222.5,614.7,222.4,611.7,222.2z"/>
				<path class="st6" d="M635.5,209.7c0,5.7,0,8.6,0,14.3c-3.1-0.2-4.6-0.3-7.7-0.6c0-10.4,0-20.7,0-31.1c3.1,0.2,4.6,0.3,7.7,0.6
					c0,5.4,0,8.1,0,13.5c3,0.2,4.5,0.3,7.6,0.6c0-5.4,0-8.1,0-13.5c3.1,0.2,4.6,0.3,7.7,0.6c0,10.4,0,20.7,0,31.1
					c-3.1-0.2-4.6-0.4-7.7-0.6c0-5.7,0-8.6,0-14.3C640.1,210,638.6,209.9,635.5,209.7z"/>
				<path class="st6" d="M676,223.7c0,1.3,0,2,0,3.3c-8.1-0.6-12.2-0.9-20.3-1.6c0-10.4,0-20.7,0-31.1c8,0.6,11.9,0.9,19.9,1.5
					c0,1.3,0,2,0,3.3c-4.9-0.4-7.3-0.6-12.2-0.9c0,4,0,6.1,0,10.1c4.4,0.3,6.6,0.5,11,0.8c0,1.3,0,2,0,3.3c-4.4-0.3-6.6-0.5-11-0.8
					c0,4.4,0,6.6,0,11C668.4,223.1,670.9,223.3,676,223.7z"/>
				<path class="st6" d="M686.7,196.7c0,10.4,0,20.7,0,31.1c-3.1-0.2-4.6-0.4-7.7-0.6c0-10.4,0-20.7,0-31.1
					C682.1,196.4,683.6,196.5,686.7,196.7z"/>
				<path class="st6" d="M699.3,199.5c0,9.8,0,19.6,0,29.3c-3.1-0.2-4.6-0.3-7.7-0.6c0-10.4,0-20.7,0-31.1c4.9,0.4,7.3,0.6,12.2,0.9
					c3.9,0.3,6.9,1.5,8.9,3.5c1.6,1.7,2.4,3.5,2.4,5.5c0,1.8-0.7,3.4-2,4.8c-0.7,0.7-1.5,1.3-2.3,1.6c-0.8,0.4-1.7,0.5-2.6,0.5
					c3.3,6.4,4.9,9.6,8.2,16.1c-3.1-0.2-4.7-0.3-7.8-0.6c-3.3-7-4.9-10.4-8.2-17.4c1.1,0.1,1.6,0.1,2.7,0.2c1.6,0.1,2.9-0.4,3.9-1.4
					c1-1.1,1.6-2.5,1.6-4.3c0-0.7-0.1-1.3-0.3-2c-0.7-3-2.5-4.6-5.3-4.8C701.5,199.6,700.8,199.6,699.3,199.5z"/>
				<path class="st6" d="M745.5,217.2c-2.6,6.1-3.9,9.2-6.6,15.3c-4.1-10.9-8.1-21.8-12.2-32.8c3.1,0.2,4.7,0.3,7.8,0.5
					c2.8,7.5,4.2,11.3,7,18.8c1-2.3,1.5-3.4,2.5-5.7c-1.9-5.1-2.8-7.7-4.7-12.8c3.1,0.2,4.7,0.3,7.8,0.5c2.5,6.8,3.8,10.2,6.3,17
					c2.3-6.5,3.4-9.8,5.7-16.3c1.1,0.1,1.6,0.1,2.7,0.2c-3.5,10.4-7.1,20.8-10.6,31.2C749,226.8,747.8,223.6,745.5,217.2z"/>
				<path class="st6" d="M784.2,231.1c0,1.3,0,2,0,3.3c-8.1-0.4-12.2-0.7-20.3-1.1c0-10.4,0-20.7,0-31.1c8,0.5,11.9,0.7,19.9,1.1
					c0,1.3,0,2,0,3.3c-4.9-0.3-7.3-0.4-12.2-0.7c0,4,0,6.1,0,10.1c4.4,0.3,6.6,0.4,11,0.6c0,1.3,0,2,0,3.3c-4.4-0.2-6.6-0.4-11-0.6
					c0,4.4,0,6.6,0,11C776.6,230.7,779.1,230.8,784.2,231.1z"/>
				<path class="st6" d="M813.1,224.8c-0.9,3.4-2.6,6-5,7.8c-2.4,1.8-5.4,2.7-8.9,2.5c-4.8-0.2-7.2-0.3-12-0.6c0-10.4,0-20.7,0-31.1
					c4.8,0.2,7.2,0.4,12,0.6c4.2,0.2,7.6,1.8,10.4,4.9c2.8,3.1,4.1,6.8,4.1,11c0,0.8-0.1,1.6-0.2,2.4
					C813.5,223.2,813.4,224,813.1,224.8z M794.9,207.2c0,9.8,0,14.7,0,24.4c1.7,0.1,2.6,0.1,4.3,0.2c1.9,0.1,3.5-0.9,4.7-2.8
					c1.4-2.2,2.1-5.2,2.1-9.1c0-3.9-0.7-7-2.1-9.3c-1.2-2-2.8-3.1-4.7-3.2C797.5,207.3,796.6,207.2,794.9,207.2z"/>
				<path class="st6" d="M844,225.7c-0.9,3.4-2.6,6-5,7.9c-2.4,1.9-5.4,2.8-8.9,2.7c-4.8-0.1-7.2-0.2-12-0.4c0-10.4,0-20.7,0-31.1
					c4.8,0.2,7.2,0.3,12,0.4c4.2,0.1,7.6,1.7,10.4,4.7c2.8,3,4.1,6.7,4.1,11c0,0.8-0.1,1.6-0.2,2.4
					C844.4,224.1,844.2,224.9,844,225.7z M825.8,208.4c0,9.8,0,14.7,0,24.4c1.7,0.1,2.6,0.1,4.3,0.1c1.9,0.1,3.5-0.9,4.7-2.9
					c1.4-2.2,2.1-5.3,2.1-9.1c0-3.9-0.7-7-2.1-9.3c-1.2-2-2.8-3.1-4.7-3.1C828.4,208.5,827.5,208.4,825.8,208.4z"/>
				<path class="st6" d="M856.6,205.7c0,10.4,0,20.7,0,31.1c-3.1,0-4.6-0.1-7.7-0.1c0-10.4,0-20.7,0-31.1
					C852,205.7,853.6,205.7,856.6,205.7z"/>
				<path class="st6" d="M864.5,214c0,9.2,0,13.7,0,22.9c-1.2,0-1.8,0-2.9,0c0-10.4,0-20.7,0-31.1c3.1,0,4.7,0,7.8,0
					c4.4,6.6,6.6,9.9,11,16.5c0-6.6,0-9.9,0-16.5c1.2,0,1.8,0,3,0c0,10.4,0,20.7,0,31.1c-1.4,0-2.1,0-3.5,0
					C873.7,227.8,870.6,223.2,864.5,214z"/>
				<path class="st6" d="M887.7,216.6c0.8-3.4,2.5-6.2,5-8.3c2.5-2.1,5.5-3.1,8.9-3.2c5.1-0.1,8.7,1.3,10.8,4.3
					c-0.9,0.9-1.4,1.3-2.3,2.2c-0.9-1.1-2.2-2-3.8-2.6c-1.2-0.5-2.4-0.7-3.5-0.7c-2.3,0.1-4.1,1.2-5.5,3.3c-1.4,2.2-2.1,5.2-2.1,9.2
					c0,4.1,0.7,7.2,2.2,9.4c1.5,2.2,3.4,3.3,5.9,3.2c1.7,0,3.3-0.5,4.8-1.4c0.1-0.1,0.2-0.1,0.3-0.2c0.2-0.1,0.2-0.2,0.4-0.3
					c0-3.5,0-5.2,0-8.6c-2.7,0.1-4.1,0.1-6.8,0.2c0-1.3,0-2,0-3.3c5-0.1,7.5-0.2,12.5-0.4c0,5.2,0,7.8,0,13
					c-0.1,0.1-0.2,0.2-0.3,0.3c-0.1,0.1-0.2,0.1-0.3,0.2c-0.4,0.3-0.9,0.6-1.8,1.1c-0.5,0.3-1,0.6-1.5,0.8c-1.4,0.6-2.9,1.2-4.6,1.6
					c-1.4,0.3-2.7,0.5-3.9,0.5c-5.2,0.1-9.3-1.8-12.2-5.9c-1.9-2.7-2.8-5.8-2.8-9.1C887,220.3,887.3,218.5,887.7,216.6z"/>
			</g>
			<g>
				<path class="st6" d="M362.8,192.5c-4.9-0.9-9.5-2.4-13.9-4.6c-1.7-0.8-3.2,2-1.5,2.8c4.5,2.3,9.5,3.9,14.6,4.8
					C363.8,195.9,364.6,192.8,362.8,192.5L362.8,192.5z"/>
			</g>
			<g>
				<path class="st6" d="M360.7,203.7c-5,0.5-10.1,1-15.1,1.6c-1.9,0.2-1.9,3.3,0,3.1c5-0.6,10.1-1.1,15.1-1.6
					C362.6,206.5,362.7,203.5,360.7,203.7L360.7,203.7z"/>
			</g>
			<g>
				<path class="st6" d="M933.8,208.3c4.8-1.7,9.5-4,13.8-6.9c1.7-1.1,0.2-3.7-1.5-2.6c-4.1,2.8-8.5,4.9-13.1,6.5
					C931.1,206,931.9,209,933.8,208.3L933.8,208.3z"/>
			</g>
			<g>
				<path class="st6" d="M935.9,220.4c5.8-0.2,11.7-1.5,17.2-3.8c1.8-0.8,1-3.7-0.8-2.9c-5.3,2.2-10.8,3.5-16.4,3.7
					C934,217.3,934,220.4,935.9,220.4L935.9,220.4z"/>
			</g>
			<g>
				<path class="st6" d="M935.1,232.4c4.9,0.1,9.5,1.7,13.4,4.4c0.7,0.5,1.7,0,2.1-0.7c0.5-0.8,0.1-1.6-0.5-2.1
					c-4.3-3-9.5-4.6-14.9-4.8c-0.8,0-1.5,0.8-1.5,1.6C933.6,231.8,934.3,232.4,935.1,232.4L935.1,232.4z"/>
			</g>
			<g>
				<path class="st6" d="M349,223.7c4-3.3,8.7-5.4,13.6-6.1c1.9-0.3,1.9-3.3,0-3.1c-5.4,0.7-10.7,3-15.1,6.7c-0.7,0.5-1,1.5-0.5,2.2
					C347.3,224.1,348.3,224.3,349,223.7L349,223.7z"/>
			</g>
		</g>
	</g>
</g>
<g>
	<g>
		<path class="st6" d="M91.1,207.3l-0.1,4.1l-0.1,2c-0.2,1.6,0.7,2.7,2.5,2.7c12.3,0.7,24.5,1.7,36.7,0.7c8.1-0.6,24.6-1.8,32.7-2.5
			c0,0,8.2-0.6,8.2-0.6c2.4-0.1,5.2-0.5,6.9-2.2c3.3-3.3,6.3-20.7,2-23.4c-1.3-0.7-3.3-0.8-4.4,0.5c0,0-14,14.9-14,14.9
			c0,0-0.4,0.5-0.4,0.5l-0.6-0.2c-11.8-3.5-28.3-8.5-40-11.6c-6.8-1.9-7.9,0.4-12,5.3c-0.8,0.8-1.4,1.7-2.4,2.3c0,0-0.1,0-0.1,0
			c-0.1,0,0,0-0.3,0.1l-0.2,0l-0.3,0c-0.6,0-1.4,0-2-0.1c0,0-5.2-0.1-5.2-0.1c-2.1,0-4.2-0.3-6.1,0.1c-0.3,0.1-0.4,0.2-0.4,0.3
			c-0.2,0.3-0.3,1.1-0.3,1.9L91.1,207.3L91.1,207.3z M88.7,207.2l0.2-5.2c0.1-1.1,0.1-2.1,0.7-3.1c0.7-1.1,2.1-1.4,3.2-1.5
			c1.9-0.1,3.6,0,5.3,0.1l5.2,0.2c0.5,0,1.5,0,2,0.1c0,0,0.3,0,0.3,0c0,0,0,0,0.1,0c0,0,0.1,0-0.1,0c-0.2,0-0.1,0-0.2,0l-0.1,0
			l-0.1,0c1.1-0.9,2.3-2.4,3.3-3.6c2.4-3.3,5.6-5.4,9.9-4.5c12.9,2.9,29.8,8.7,42.7,12.4c0,0-1,0.3-1,0.3l0,0l13.9-15l-0.1,0.1
			c0.4-0.4,0.7-0.6,1-0.9c1.8-1.2,4.1-1,6,0c3.4,2.3,3.2,6.9,3.1,10.4c-0.5,5.6-1,11.6-4.6,16.3c-1.8,1.8-3.9,2.3-6.2,2.7
			c-6.3,0.6-20.1,1.6-26.7,2.1c0,0-16.4,1.3-16.4,1.3c-12.3,1-24.7,0-37-0.7c-2.8,0-5.1-2.2-4.8-5.1
			C88.6,212.1,88.7,208.6,88.7,207.2L88.7,207.2z"/>
	</g>
	<path class="st2" d="M89.8,210.6c0,0-9.4-2.5-9.3-3.6c0-1.1,9.5-3.1,9.5-3.1L89.8,210.6z"/>
	<g>
		<path class="st6" d="M83.8,187.7c1.2,6.2,1,12.7-0.5,18.9C82.1,200.3,82.2,193.8,83.8,187.7L83.8,187.7z"/>
	</g>
	<g>
		<path class="st6" d="M83.2,208.2c1.2,6.2,1,12.7-0.5,18.9C81.5,220.8,81.7,214.3,83.2,208.2L83.2,208.2z"/>
	</g>
	<circle class="st2" cx="99.6" cy="227.2" r="4.4"/>
	<line class="st2" x1="101.5" y1="218.4" x2="99.7" y2="223.9"/>
	<path class="st2" d="M99.9,217.5c0,0,16.9-9,20.2-9.4c3.3-0.5,3.9-0.4,6.7-0.4c2.8,0.1,5,1.3,4.4,2.3s-7.3,8.1-7.3,8.1L99.9,217.5z
		"/>
	<path class="st2" d="M111.8,198.8l11.5,0.3l2.4-1.6c0,0-7.6-3.3-9.9-2.4C113.5,196.2,111.8,198.8,111.8,198.8z"/>
</g>
<g>
	<text transform="matrix(0.8988 0 0 1 206.4465 104.8203)" class="st6 st7 st8">JASON</text>
	<text transform="matrix(0.8988 0 0 1 653.1423 106.8203)" class="st6 st7 st8">CLAUDIA</text>
	<text transform="matrix(0.8988 0 0 1 592.9236 78.0742)" class="st6 st7 st9">&amp;</text>
</g>
<g>
	<line class="st10" x1="521.2" y1="736" x2="517.2" y2="710"/>
	<g>
		<g>
			<g>
				<path class="st0" d="M1027.4,735.6c-257.8,0-515.6,0-773.4,0c-18.5,28.6-36.9,57.2-55.4,85.9c294.8,0,589.5,0,884.3,0
					C1064.3,792.8,1045.9,764.2,1027.4,735.6z"/>
				<path class="st0" d="M1011.5,735.6c17.7,28.6,35.4,57.2,53.1,85.9"/>
				<path class="st0" d="M995.4,735.6c16.9,28.6,33.9,57.2,50.8,85.9"/>
				<path class="st0" d="M979.2,735.6c16.2,28.6,32.3,57.2,48.5,85.9"/>
				<path class="st0" d="M963.1,735.6c15.4,28.6,30.8,57.2,46.2,85.9"/>
				<path class="st0" d="M947,735.6c14.6,28.6,29.3,57.2,43.9,85.9"/>
				<path class="st0" d="M930.9,735.6c13.9,28.6,27.7,57.2,41.6,85.9"/>
				<path class="st0" d="M914.8,735.6c13.1,28.6,26.2,57.2,39.3,85.9"/>
				<path class="st0" d="M898.7,735.6c12.3,28.6,24.6,57.2,37,85.9"/>
				<path class="st0" d="M882.6,735.6c11.6,28.6,23.1,57.2,34.7,85.9"/>
				<path class="st0" d="M866.4,735.6c10.8,28.6,21.6,57.2,32.4,85.9"/>
				<path class="st0" d="M850.3,735.6c10,28.6,20,57.2,30,85.9"/>
				<path class="st0" d="M834.2,735.6c9.2,28.6,18.5,57.2,27.7,85.9"/>
				<path class="st0" d="M818.1,735.6c8.5,28.6,16.9,57.2,25.4,85.9"/>
				<path class="st0" d="M802,735.6c7.7,28.6,15.4,57.2,23.1,85.9"/>
				<path class="st0" d="M785.9,735.6c6.9,28.6,13.9,57.2,20.8,85.9"/>
				<path class="st0" d="M769.8,735.6c6.2,28.6,12.3,57.2,18.5,85.9"/>
				<path class="st0" d="M753.7,735.6c5.4,28.6,10.8,57.2,16.2,85.9"/>
				<path class="st0" d="M737.5,735.6c4.6,28.6,9.3,57.2,13.9,85.9"/>
				<path class="st0" d="M721.4,735.6c3.9,28.6,7.7,57.2,11.6,85.9"/>
				<path class="st0" d="M705.3,735.6c3.1,28.6,6.2,57.2,9.3,85.9"/>
				<path class="st0" d="M689.2,735.6c2.3,28.6,4.6,57.2,7,85.9"/>
				<path class="st0" d="M673.1,735.6c1.5,28.6,3.1,57.2,4.6,85.9"/>
				<path class="st0" d="M657,735.6c0.8,28.6,1.6,57.2,2.3,85.9"/>
				<path class="st0" d="M640.9,735.6c0,28.6,0,57.2,0,85.9"/>
				<path class="st0" d="M624.7,735.6c-0.8,28.6-1.5,57.2-2.3,85.9"/>
				<path class="st0" d="M608.6,735.6c-1.5,28.6-3.1,57.2-4.6,85.9"/>
				<path class="st0" d="M592.5,735.6c-2.3,28.6-4.6,57.2-6.9,85.9"/>
				<path class="st0" d="M576.4,735.6c-3.1,28.6-6.1,57.2-9.2,85.9"/>
				<path class="st0" d="M560.3,735.6c-3.8,28.6-7.7,57.2-11.5,85.9"/>
				<path class="st0" d="M544.2,735.6c-4.6,28.6-9.2,57.2-13.8,85.9"/>
				<path class="st0" d="M528.1,735.6c-5.4,28.6-10.8,57.2-16.1,85.9"/>
				<path class="st0" d="M512,735.6c-6.1,28.6-12.3,57.2-18.4,85.9"/>
				<path class="st0" d="M495.8,735.6c-6.9,28.6-13.8,57.2-20.7,85.9"/>
				<path class="st0" d="M479.7,735.6c-7.7,28.6-15.4,57.2-23.1,85.9"/>
				<path class="st0" d="M463.6,735.6c-8.5,28.6-16.9,57.2-25.4,85.9"/>
				<path class="st0" d="M447.5,735.6c-9.2,28.6-18.5,57.2-27.7,85.9"/>
				<path class="st0" d="M431.4,735.6c-10,28.6-20,57.2-30,85.9"/>
				<path class="st0" d="M415.3,735.6c-10.8,28.6-21.5,57.2-32.3,85.9"/>
				<path class="st0" d="M399.2,735.6c-11.5,28.6-23.1,57.2-34.6,85.9"/>
				<path class="st0" d="M383,735.6c-12.3,28.6-24.6,57.2-36.9,85.9"/>
				<path class="st0" d="M366.9,735.6c-13.1,28.6-26.1,57.2-39.2,85.9"/>
				<path class="st0" d="M350.8,735.6c-13.8,28.6-27.7,57.2-41.5,85.9"/>
				<path class="st0" d="M334.7,735.6c-14.6,28.6-29.2,57.2-43.8,85.9"/>
				<path class="st0" d="M318.6,735.6c-15.4,28.6-30.8,57.2-46.1,85.9"/>
				<path class="st0" d="M302.5,735.6c-16.2,28.6-32.3,57.2-48.5,85.9"/>
				<path class="st0" d="M286.4,735.6c-16.9,28.6-33.8,57.2-50.8,85.9"/>
				<path class="st0" d="M270.2,735.6c-17.7,28.6-35.4,57.2-53.1,85.9"/>
			</g>
		</g>
	</g>
	<g>
		<path class="st6" d="M332.5,911.9c-24.4,0.2-48.8,0.2-73.1,0.1l0-1l-2.1-67.5l-0.1-2.5l2.6,0l72.5,0.3l2.2,0
			C334,865,333.2,888.7,332.5,911.9L332.5,911.9z M330.7,910.1c-0.2-22.5-0.6-44.6-0.7-66.6l2.2,2.2l-72.5,0.3l2.5-2.5l-0.9,67.5
			l-1-1C283.9,909.9,307.2,909.9,330.7,910.1C330.7,910.1,307.2,909.9,330.7,910.1z"/>
	</g>
	<g>
		<path class="st11" d="M1050.2,926.9c-212.7-0.1-554.5,1.1-763.9,0.3c0,0-50.9-0.3-50.9-0.3v-2.5l50.9-0.3
			c91.8-0.5,263.1-0.3,356.5,0c0,0,407.4,0.3,407.4,0.3V926.9L1050.2,926.9z"/>
	</g>
	<g>
		<path class="st6" d="M458,912.5c-24.7,0.1-49.4-0.1-73.7-0.5l0-1l-2.1-67.5l-0.1-2.5l2.6,0l72.5,0.3l2.2,0
			C459.2,865.1,458.6,888.9,458,912.5L458,912.5z M455.1,909.5c-0.2-22.2-0.3-44.1-0.1-66.1l2.2,2.2l-72.5,0.3l2.5-2.5l-0.9,67.5
			l-1-1C408.9,909.6,432,909.4,455.1,909.5C455.1,909.5,432,909.4,455.1,909.5z"/>
	</g>
	<g>
		<path class="st6" d="M582.5,911.9c-24.4,0.2-48.8,0.2-73.1,0.1l0-1l-2.2-67.5l-0.1-2.6l2.6,0l72.5,0.4l2.2,0
			C583.9,865.1,583.1,888.7,582.5,911.9L582.5,911.9z M580.7,910.1c-0.2-22.5-0.5-44.6-0.6-66.6l2.1,2.1l-72.5,0.4l2.5-2.6
			l-0.9,67.5l-1-1C533.9,909.9,557.2,909.9,580.7,910.1C580.7,910.1,557.2,909.9,580.7,910.1z"/>
	</g>
	<g>
		<path class="st6" d="M1024.5,911.9c-24.4,0.2-48.8,0.2-73.1,0.1l0-1l-2.2-67.5l-0.1-2.6l2.6,0l72.5,0.4l2.2,0
			C1025.9,865.1,1025.1,888.7,1024.5,911.9L1024.5,911.9z M1022.7,910.1c-0.2-22.5-0.5-44.6-0.6-66.6l2.1,2.1l-72.5,0.4l2.5-2.6
			l-0.9,67.5l-1-1C975.9,909.9,999.2,909.9,1022.7,910.1C1022.7,910.1,999.2,909.9,1022.7,910.1z"/>
	</g>
	<g>
		<path class="st6" d="M237.8,828.5c0.9,63.2,0.8,125.9,0.4,189.5c0,0-1.6-1.6-1.6-1.6l813.3,0l-1.6,1.6l-4.9-193.2l3.9,3.9
			c-67.5-1-135.2-1.4-202.9-1.7c-50.6-0.2-152.4-0.4-203-0.3C511,826.8,367.5,827.2,237.8,828.5L237.8,828.5z M230.2,820.9
			c132.7,1.2,276.8,1.8,409.7,1.9c132.1,0,275.8-0.2,407.4-2.1c0,0,3.9-0.1,3.9-0.1l0,3.9l0.3,193.3l0,1.6l-1.6,0
			c-1.6,0-813.4,0-814.9,0c0,0-0.1-1.6-0.1-1.6C232.8,952.7,231,886.6,230.2,820.9L230.2,820.9z"/>
	</g>
	<polygon class="st12" points="650.2,746 650,712 914.7,712 929.2,746 	"/>
	<polygon class="st12" points="356.2,746 370.3,712 516,712 510.2,746 	"/>
	<g>
		<g>
			<path class="st6" d="M262.6,714.4c0.3,7.1,0.6,13.9,0.6,20.8l-2-2l30-0.3l-2,2l0.7-22l1.3,1.3
				C281.5,714.5,272.1,714.6,262.6,714.4C262.6,714.4,272.1,714.6,262.6,714.4z M259.8,711.6c10.9-0.2,21.9-0.1,32.6,0.2l0,1.2
				l0.7,22l0.1,2l-2,0l-30,0.3l-2,0C259.2,728.7,259.4,720,259.8,711.6L259.8,711.6z"/>
		</g>
		<g>
			<path class="st6" d="M270.1,701.4c0.3,3.7,0.6,7.1,0.6,10.6l-2-2h15.5l-2,2l0.8-12l1.2,1.2C279.3,701.5,274.8,701.6,270.1,701.4
				C270.1,701.4,274.8,701.6,270.1,701.4z M267.3,698.6c6.1-0.2,12.2-0.1,18.1,0.2c0,0.2,0.8,12.6,0.8,13.2c0,0,0.1,2,0.1,2h-2.1
				c-1,0-17.1,0-17.5,0C266.7,708.9,266.9,703.5,267.3,698.6L267.3,698.6z"/>
		</g>
	</g>
	<g>
		<g>
			<path class="st6" d="M992.6,714.4c0.3,7.1,0.6,13.9,0.6,20.8l-2-2l30-0.3l-2,2l0.7-22l1.3,1.3
				C1011.5,714.5,1002.1,714.6,992.6,714.4C992.6,714.4,1002.1,714.6,992.6,714.4z M989.8,711.6c10.9-0.2,21.9-0.1,32.6,0.2l0,1.2
				l0.7,22l0.1,2l-2,0l-30,0.3l-2,0C989.2,728.7,989.4,720,989.8,711.6L989.8,711.6z"/>
		</g>
		<g>
			<path class="st6" d="M1000.1,701.4c0.3,3.7,0.6,7.1,0.6,10.6l-2-2h15.5l-2,2l0.8-12l1.2,1.2
				C1009.3,701.5,1004.8,701.6,1000.1,701.4C1000.1,701.4,1004.8,701.6,1000.1,701.4z M997.3,698.6c6.1-0.2,12.2-0.1,18.1,0.2
				c0,0.2,0.8,12.6,0.8,13.2c0,0,0.1,2,0.1,2h-2.1c-1,0-17.1,0-17.5,0C996.7,708.9,996.9,703.5,997.3,698.6L997.3,698.6z"/>
		</g>
	</g>
	<g>
		<g>
			<polyline class="st1" points="924.4,1018 926.7,861.5 961.8,861.5 763.4,790 578.2,861.5 608.9,861.5 612.3,1018 			"/>
			<path class="st6" d="M923,1018l1-156.6l0-2.7l2.7,0l35.1,0.2l-0.9,4.9l-199.6-68.3l4.1,0l-186.2,68.9l-1.1-6.1
				c1.8,0,32.9,0.2,33.7,0.2c0,0,0,2.9,0,2.9l1.7,156.6l-2.7,0.1l-5-156.5l3,2.9l-30.7,0.1l-16.5,0.1l15.4-6.2l184.2-74l2-0.8
				l2.1,0.8l197.3,74.6l12.7,4.8l-13.6,0.1l-35.1,0.2l2.7-2.7l-3.6,156.5L923,1018L923,1018z"/>
		</g>
		<g>
			<polyline class="st0" points="622.1,857.6 763.7,803.1 914.9,857.5 			"/>
		</g>
		<g>
			<path class="st6" d="M822.8,990c-1.3-27.7-1.1-55.3-1-83c-0.4-27.7-0.7-55.3,0.7-83c0,0,1.8,0,1.8,0c0.7,13.8,0.9,27.7,1.1,41.5
				c-0.2,27.7-0.4,55.3-0.3,83c-0.2,13.8-0.4,27.7-1.1,41.5H822.8L822.8,990z"/>
		</g>
		<g>
			<path class="st6" d="M701.9,990c0.3-48.5-1.5-116.5,0-164.3c0,0,2.5,0,2.5,0c0.5,13.7,0.6,27.4,0.7,41.1
				c-0.2,27.7-0.7,94.7-0.7,123.2C704.5,990,701.9,990,701.9,990L701.9,990z"/>
		</g>
		<g>
			<path class="st6" d="M746.2,904.9c-10.3,0.2-20.6,0.2-30.9,0.1l0-1l-1.8-52l-0.1-2.6l2.6,0l29.5,0.4l2.2,0
				C747.3,868.4,746.7,886.9,746.2,904.9L746.2,904.9z M744.3,903.1c-0.3-17.3-0.8-34.3-0.9-51.1l2.1,2.1l-29.5,0.4l2.5-2.6l-1.3,52
				l-1-1C725.7,902.9,734.9,902.9,744.3,903.1C744.3,903.1,734.9,902.9,744.3,903.1z"/>
		</g>
		<g>
			<path class="st6" d="M812.2,904.9c-10.1,0.3-20.5,0.5-30.9,0.6l0-1.5l-1.2-52l0-1.9l1.9,0l29.5-0.2l2.2,0
				C813.3,868.3,812.7,886.9,812.2,904.9L812.2,904.9z M810.3,903.1c-0.3-17.3-0.8-34.3-0.9-51.1l2.1,2.1l-29.5-0.2l1.9-1.9l-0.6,52
				l-1-1.5C791.6,902.6,800.8,902.8,810.3,903.1C810.3,903.1,800.8,902.8,810.3,903.1z"/>
		</g>
		<g>
			<g>
				<path class="st6" d="M732.5,991l-1.4-50l-0.1-2.5l2.7-0.1c17.6-0.7,35.6-0.5,53.2,0.1c3.2,0.1,6.5,0.3,9.8,0.5c0,0-0.1,2-0.1,2
					l-1.3,50L792,991l0.5-50l2.1,2.2c-20.2,1-40.6,1.2-60.8,0.5c0,0,2.6-2.6,2.6-2.6l-0.6,50L732.5,991L732.5,991z"/>
			</g>
			<g>
				<polygon class="st6" points="761.9,990.2 762.5,941.9 765.3,941.9 765.9,990.2 761.9,990.2 				"/>
			</g>
		</g>
		<rect x="682.2" y="846" class="st12" width="164" height="11"/>
		<rect x="759.2" y="806" class="st12" width="9" height="40"/>
	</g>
	<line class="st0" x1="482.2" y1="1106" x2="612.3" y2="1018"/>
	<line class="st0" x1="1062.2" y1="1100" x2="925.2" y2="1018"/>
	<g>
		<g>
			<g>
				<path class="st6" d="M498.7,1070c-4.7-3.2-9.1-6.8-13.1-10.9c-1.3-1.4-3.5,0.7-2.1,2.1c4.1,4.3,8.7,8.1,13.7,11.4
					c0.7,0.5,1.7,0.1,2.1-0.5C499.6,1071.3,499.3,1070.4,498.7,1070L498.7,1070z"/>
			</g>
		</g>
		<g>
			<g>
				<path class="st6" d="M520.6,1050.9c1.8-4.6,3.6-9.1,5.5-13.7c0.3-0.8-0.3-1.6-1-1.8c-0.9-0.2-1.5,0.3-1.8,1
					c-1.8,4.6-3.6,9.1-5.5,13.7c-0.3,0.8,0.3,1.6,1,1.8C519.6,1052.2,520.3,1051.7,520.6,1050.9L520.6,1050.9z"/>
			</g>
		</g>
		<g>
			<g>
				<path class="st6" d="M549.4,1042.7c0.3-4.8-0.3-9.7-1.9-14.3c-0.3-0.8-1-1.3-1.8-1c-0.7,0.2-1.3,1.1-1,1.8
					c1.5,4.3,2.1,8.9,1.8,13.5c-0.1,0.8,0.7,1.5,1.5,1.5C548.8,1044.2,549.4,1043.6,549.4,1042.7L549.4,1042.7z"/>
			</g>
		</g>
		<g>
			<g>
				<path class="st6" d="M492.1,1037.1c-4.7-3.7-9.8-6.8-15.3-9.3c-0.7-0.3-1.6-0.2-2.1,0.5c-0.4,0.6-0.2,1.7,0.5,2.1
					c5.2,2.4,10.1,5.3,14.6,8.8c0.6,0.5,1.5,0.6,2.1,0C492.6,1038.7,492.7,1037.6,492.1,1037.1L492.1,1037.1z"/>
			</g>
		</g>
		<g>
			<g>
				<path class="st6" d="M457.1,1049.1c-1.6,3.9-3.2,7.9-4.7,11.8c-0.3,0.8,0.3,1.6,1,1.8c0.9,0.2,1.5-0.3,1.8-1
					c1.6-3.9,3.2-7.9,4.7-11.8c0.3-0.8-0.3-1.6-1-1.8C458.1,1047.8,457.4,1048.3,457.1,1049.1L457.1,1049.1z"/>
			</g>
		</g>
		<g>
			<g>
				<path class="st6" d="M1045.2,1068.8c2.5-3,4.7-6.3,6.5-9.8c0.4-0.7,0.2-1.7-0.5-2.1c-0.7-0.4-1.7-0.2-2.1,0.5
					c-1.7,3.2-3.8,6.4-6.1,9.2c-0.5,0.6-0.6,1.5,0,2.1C1043.7,1069.3,1044.7,1069.4,1045.2,1068.8L1045.2,1068.8z"/>
			</g>
		</g>
		<g>
			<g>
				<path class="st6" d="M461.6,1096.8c2.1-4.1,4.1-8.2,6.2-12.3c0.4-0.7,0.2-1.6-0.5-2.1c-0.7-0.4-1.7-0.2-2.1,0.5
					c-2.1,4.1-4.1,8.2-6.2,12.3c-0.4,0.7-0.2,1.6,0.5,2.1C460.2,1097.7,461.3,1097.5,461.6,1096.8L461.6,1096.8z"/>
			</g>
		</g>
		<g>
			<g>
				<path class="st6" d="M1000.1,1040.2c-3-3.7-5.5-7.6-7.7-11.8c-0.4-0.7-1.4-0.9-2.1-0.5c-0.7,0.4-0.9,1.3-0.5,2.1
					c2.3,4.4,5.1,8.5,8.2,12.4c0.5,0.6,1.6,0.5,2.1,0C1000.8,1041.7,1000.6,1040.8,1000.1,1040.2L1000.1,1040.2z"/>
			</g>
		</g>
		<g>
			<g>
				<path class="st6" d="M1120.7,1084.8c-1.6-4.4-3.1-8.7-4.7-13.1c-0.3-0.8-1-1.3-1.8-1c-0.7,0.2-1.3,1.1-1,1.8
					c1.6,4.4,3.1,8.7,4.7,13.1c0.3,0.8,1,1.3,1.8,1C1120.3,1086.5,1120.9,1085.6,1120.7,1084.8L1120.7,1084.8z"/>
			</g>
		</g>
		<g>
			<g>
				<path class="st6" d="M424.9,1107.6c1.2-4.5,4.2-8.3,8.3-10.6c1.7-0.9,0.2-3.5-1.5-2.6c-4.7,2.6-8.3,7.2-9.7,12.4
					C421.5,1108.7,424.3,1109.5,424.9,1107.6L424.9,1107.6z"/>
			</g>
		</g>
		<g>
			<g>
				<path class="st6" d="M438.6,1072.9c-1-5-1.5-10.2-1.5-15.3c0-1.9-3-1.9-3,0c0,5.4,0.6,10.8,1.6,16.1c0.2,0.8,1.1,1.3,1.8,1
					C438.4,1074.5,438.8,1073.7,438.6,1072.9L438.6,1072.9z"/>
			</g>
		</g>
		<g>
			<g>
				<path class="st6" d="M435.1,1037.7c-4.2,0.4-8.4,0.8-12.6,1.2c-0.8,0.1-1.5,0.6-1.5,1.5c0,0.8,0.7,1.6,1.5,1.5
					c4.2-0.4,8.4-0.8,12.6-1.2c0.8-0.1,1.5-0.6,1.5-1.5C436.6,1038.4,435.9,1037.6,435.1,1037.7L435.1,1037.7z"/>
			</g>
		</g>
		<g>
			<g>
				<path class="st6" d="M400,1097.9c-3-3.3-5.4-7-7.2-11.1c-0.3-0.7-1.4-0.9-2.1-0.5c-0.8,0.4-0.9,1.3-0.5,2.1
					c1.9,4.3,4.5,8.2,7.7,11.7c0.5,0.6,1.6,0.6,2.1,0C400.6,1099.4,400.6,1098.5,400,1097.9L400,1097.9z"/>
			</g>
		</g>
		<g>
			<g>
				<path class="st6" d="M356,1089.4c0.3,4.8-0.7,9.5-2.8,13.8c-0.9,1.7,1.7,3.2,2.6,1.5c2.4-4.7,3.6-10,3.2-15.3
					C358.9,1087.5,355.9,1087.5,356,1089.4L356,1089.4z"/>
			</g>
		</g>
		<g>
			<g>
				<path class="st6" d="M365.3,1055.1c4.4-3.9,8.9-7.9,13.3-11.8c0.6-0.5,0.5-1.6,0-2.1c-0.6-0.6-1.5-0.5-2.1,0
					c-4.4,3.9-8.9,7.9-13.3,11.8c-0.6,0.5-0.5,1.6,0,2.1C363.8,1055.7,364.7,1055.6,365.3,1055.1L365.3,1055.1z"/>
			</g>
		</g>
		<g>
			<g>
				<path class="st6" d="M341.8,1071.3c-5-2.7-10.4-4.6-16-5.5c-0.8-0.1-1.6,0.2-1.8,1c-0.2,0.7,0.2,1.7,1,1.8
					c5.3,0.9,10.5,2.6,15.3,5.2C342,1074.8,343.5,1072.2,341.8,1071.3L341.8,1071.3z"/>
			</g>
		</g>
		<g>
			<g>
				<path class="st6" d="M1093.3,1072.9c-3.7,4.7-6.8,9.8-9.2,15.3c-0.3,0.7-0.2,1.6,0.5,2.1c0.6,0.4,1.7,0.2,2.1-0.5
					c2.2-5.3,5.1-10.2,8.7-14.7c0.5-0.6,0.6-1.5,0-2.1C1094.9,1072.4,1093.8,1072.3,1093.3,1072.9L1093.3,1072.9z"/>
			</g>
		</g>
		<g>
			<g>
				<path class="st6" d="M1073.5,1067c0-5,0-10.1,0-15.1c0-1.9-3-1.9-3,0c0,5,0,10.1,0,15.1C1070.5,1069,1073.5,1069,1073.5,1067
					L1073.5,1067z"/>
			</g>
		</g>
		<g>
			<g>
				<path class="st6" d="M1100.6,1051.6c-1.8-0.6-3.3-1.3-5-2.2c-1.7-1-3-2-4.4-3.2c-0.6-0.5-1.5-0.6-2.1,0c-0.6,0.6-0.6,1.6,0,2.1
					c3.1,2.8,6.7,4.9,10.7,6.2c0.7,0.2,1.7-0.3,1.8-1C1101.8,1052.6,1101.4,1051.8,1100.6,1051.6L1100.6,1051.6z"/>
			</g>
		</g>
		<g>
			<g>
				<path class="st6" d="M301.7,1110.4c4.3-4.1,8.6-8.1,13-12.2c1.4-1.3-0.7-3.4-2.1-2.1c-4.3,4.1-8.6,8.1-13,12.2
					C298.2,1109.6,300.3,1111.7,301.7,1110.4L301.7,1110.4z"/>
			</g>
		</g>
		<g>
			<g>
				<path class="st6" d="M1048.6,1027c-1.2,3.9-2.4,7.9-3.6,11.8c-0.6,1.9,2.3,2.6,2.9,0.8c1.2-3.9,2.4-7.9,3.6-11.8
					C1052.1,1026,1049.2,1025.2,1048.6,1027L1048.6,1027z"/>
			</g>
		</g>
		<g>
			<g>
				<path class="st6" d="M285.4,1078.1c-0.3-6.5-0.2-13,0.2-19.5c0.1-1.9-2.9-1.9-3,0c-0.4,6.5-0.5,13-0.2,19.5
					C282.5,1080,285.5,1080,285.4,1078.1L285.4,1078.1z"/>
			</g>
		</g>
		<g>
			<g>
				<path class="st6" d="M329.6,1041.7c-3.7-4-7-8.3-9.8-12.9c-1-1.6-3.6-0.1-2.6,1.5c3,4.8,6.4,9.4,10.3,13.5
					C328.8,1045.2,331,1043.1,329.6,1041.7L329.6,1041.7z"/>
			</g>
		</g>
		<g>
			<g>
				<path class="st6" d="M269.2,1032.7c-1.9,5.6-4.1,11.1-6.9,16.3c-0.9,1.7,1.7,3.2,2.6,1.5c2.8-5.5,5.2-11.2,7.2-17.1
					C272.7,1031.6,269.8,1030.8,269.2,1032.7L269.2,1032.7z"/>
			</g>
		</g>
		<g>
			<g>
				<path class="st6" d="M237.4,1036.9c-4.8,2-9.6,4-14.4,5.9c-0.7,0.3-1.3,1-1,1.8c0.2,0.7,1.1,1.4,1.8,1c4.8-2,9.6-4,14.4-5.9
					c0.7-0.3,1.3-1,1-1.8C239.1,1037.3,238.2,1036.6,237.4,1036.9L237.4,1036.9z"/>
			</g>
		</g>
		<g>
			<g>
				<path class="st6" d="M406.6,1064.2c-2.6-3.2-4.6-6.8-5.8-10.7c-0.2-0.8-1-1.3-1.8-1c-0.8,0.2-1.3,1.1-1,1.8
					c1.4,4.4,3.6,8.5,6.5,12.1c0.5,0.6,1.6,0.5,2.1,0C407.2,1065.7,407.1,1064.8,406.6,1064.2L406.6,1064.2z"/>
			</g>
		</g>
		<g>
			<g>
				<path class="st6" d="M222.1,1081.1c2.6-3.8,4.5-8,5.6-12.4c0.5-1.9-2.4-2.7-2.9-0.8c-1.1,4.2-2.9,8.1-5.3,11.7
					c-0.5,0.7-0.1,1.7,0.5,2.1C220.8,1082.1,221.6,1081.8,222.1,1081.1L222.1,1081.1z"/>
			</g>
		</g>
		<g>
			<g>
				<path class="st6" d="M261,1090.1c-2.5-3.8-5-7.6-7.5-11.4c-0.4-0.7-1.3-1-2.1-0.5c-0.7,0.4-1,1.4-0.5,2.1
					c2.5,3.8,5,7.6,7.5,11.4c0.4,0.7,1.3,1,2.1,0.5C261.1,1091.8,261.4,1090.8,261,1090.1L261,1090.1z"/>
			</g>
		</g>
		<g>
			<g>
				<path class="st6" d="M1031.4,1049.3c-1.5-0.2-3.5-0.8-4.9-1.4c-1.7-0.8-3.2-1.8-4.5-2.9c-0.6-0.5-1.5-0.6-2.1,0
					c-0.5,0.5-0.6,1.6,0,2.1c3.3,2.9,7.3,4.7,11.6,5.2c0.8,0.1,1.5-0.8,1.5-1.5C1032.9,1049.9,1032.2,1049.4,1031.4,1049.3
					L1031.4,1049.3z"/>
			</g>
		</g>
	</g>
	<g>
		<rect x="663.7" y="990.5" class="st1" width="198" height="10.5"/>
		<path class="st6" d="M862.6,1001.9c-66.6,0.2-133.3,0.2-199.9,0.1l0-1l-0.2-10.5l0-1.3l1.3,0l198,0l1.3,0
			C863,993.4,862.9,997.8,862.6,1001.9L862.6,1001.9z M860.8,1000.1c-0.2-3.3-0.4-6.4-0.4-9.6l1.3,1.3l-198,0l1.3-1.3l-0.2,10.5
			l-1-1C729.5,999.9,795.1,999.9,860.8,1000.1C860.8,1000.1,795.1,999.9,860.8,1000.1z"/>
	</g>
	<g>
		<rect x="659.2" y="1001.6" class="st1" width="207" height="10.4"/>
		<path class="st6" d="M867,1012.7c-69.5,0.2-139.2,0.3-208.8,0.4l0-1.1l-0.5-10.4l-0.1-1.6l1.6,0c2.4,0,206,0.3,208.3,0.3
			C867.4,1004.5,867.2,1008.8,867,1012.7L867,1012.7z M865.5,1011.3c-0.2-3.4-0.5-6.5-0.5-9.7l1.3,1.3l-207,0.3l1.6-1.6l-0.5,10.4
			l-1.1-1.1C728,1010.9,796.6,1011.1,865.5,1011.3C865.5,1011.3,796.6,1011.1,865.5,1011.3z"/>
	</g>
	<g>
		<rect x="655.2" y="1012" class="st1" width="215" height="11"/>
		<path class="st6" d="M870.4,1023.1c-57.9,1.8-116.7,1.7-174.7,0.5c-12.5-0.1-27.9,0-40.4,0.2c0,0-0.8,0-0.8,0l0-0.8
			c-0.1-4-0.2-8.1-0.4-12.1c70.7,0.1,145.6-1.2,216.2,0.6c0,0,0.6,0,0.6,0l0,0.5L870.4,1023.1L870.4,1023.1z M870.1,1022.9
			l-0.4-10.9l0.6,0.6c-17.9,0.4-35.8,0.7-53.7,0.8c-30,0.3-77.2,0.1-107.5-0.1c-17.9-0.1-35.8-0.1-53.7-0.1l1.1-1.1
			c-0.1,3.7-0.2,7.3-0.3,11l-0.8-0.8c6.7,0.1,20.1,0.2,26.8,0.2c26.7,0.1,53.4-0.8,80-1C797.6,1021.3,834.3,1021.9,870.1,1022.9
			L870.1,1022.9z"/>
	</g>
	<g>
		<path class="st11" d="M356.4,926l-0.3-50.6c-0.4-16.8-0.7-33.8,0.3-50.6c0,0,2.5,0,2.5,0c0.1,2.1,0.2,4.2,0.3,6.3
			c0.2,6.2,0.4,12.9,0.4,19c-0.3,17.1-0.7,58.3-0.7,76C359.1,926,356.4,926,356.4,926L356.4,926z"/>
	</g>
	<g>
		<path class="st11" d="M482.4,925.5l-0.3-50.6c-0.4-16.8-0.7-33.8,0.3-50.6c0,0,2.5,0,2.5,0c0.1,2.1,0.2,4.2,0.3,6.3
			c0.2,6.2,0.4,12.9,0.4,19c-0.3,17.1-0.7,58.3-0.7,76C485.1,925.5,482.4,925.5,482.4,925.5L482.4,925.5z"/>
	</g>
	<g>
		<g>
			<polygon class="st6" points="1016.6,993.1 1016.4,943.1 1018.1,944.7 957.3,944.5 958.7,943.1 959.5,993.1 956.8,993.1 
				955.9,943.1 955.9,941.7 957.3,941.7 1018.1,941.4 1019.8,941.4 1019.7,943.1 1018.8,993.1 1016.6,993.1 			"/>
		</g>
		<g>
			<path class="st6" d="M986.6,992.3c0.2-14,0.6-34.5,0.7-48.3c0,0,1.2,0,1.2,0c0.1,13.7,0.5,34.4,0.7,48.3
				C989.3,992.3,986.6,992.3,986.6,992.3L986.6,992.3z"/>
		</g>
	</g>
	<g>
		<g>
			<polygon class="st6" points="267.9,991.1 267.1,941.1 267.1,939.9 268.3,939.9 329.1,939.6 330.6,939.6 330.6,941.1 329.2,991.1 
				327.2,991.1 327.6,941.1 329.1,942.6 268.3,942.3 269.5,941.1 269.4,991.1 267.9,991.1 			"/>
		</g>
		<g>
			<polygon class="st6" points="297.2,990.3 297.5,942 299.4,942 299.7,990.3 297.2,990.3 			"/>
		</g>
	</g>
	<g>
		<g>
			<polygon class="st6" points="389.9,991.1 388.8,941.1 388.8,939.6 390.3,939.6 451.1,939.7 452.5,939.7 452.5,941.1 451.7,991.1 
				448.7,991.1 449.7,941.1 451.1,942.5 390.3,942.6 391.8,941.1 391.4,991.1 389.9,991.1 			"/>
		</g>
		<g>
			<polygon class="st6" points="419.2,990.3 419.5,942 421.4,942 421.7,990.3 419.2,990.3 			"/>
		</g>
	</g>
	<g>
		<g>
			<polygon class="st6" points="514.9,991.1 513.4,941.1 513.3,939.2 515.3,939.2 576.1,939.6 577.6,939.6 577.6,941.1 576.2,991.1 
				574.2,991.1 574.6,941.1 576.1,942.6 515.3,943 517.2,941.1 516.4,991.1 514.9,991.1 			"/>
		</g>
		<g>
			<polygon class="st6" points="544.2,990.3 544.5,942 546.4,942 546.7,990.3 544.2,990.3 			"/>
		</g>
	</g>
	<g>
		<rect x="223.2" y="991.5" class="st1" width="388" height="27"/>
		<path class="st6" d="M612.2,1019.5c-126.3,0.8-262.6,0.9-389,0.2c0,0-1.1,0-1.1,0l0-1.2l-0.8-27l-0.1-2l2,0
			c109.7,0.4,276.9-0.1,388-0.1c0,0,2.2,0,2.2,0C613.2,999.5,612.6,1009.8,612.2,1019.5L612.2,1019.5z M610.2,1017.5
			c-0.4-9-0.9-17.6-1.2-26l2.1,2.1c-111.7,0-277.7-0.5-388-0.1c0,0,2-2,2-2l-0.8,27l-1.2-1.2C349,1016.7,484.5,1016.8,610.2,1017.5
			L610.2,1017.5z"/>
	</g>
	<g>
		<rect x="926.2" y="993.5" class="st1" width="139" height="25"/>
		<path class="st6" d="M1066.1,1019.4c-45.6,0.7-94.4,1.1-139.9,0.4c0,0-1.2,0-1.2,0l0-1.3l-0.8-25l-0.1-2.2l2.2,0
			c32.1,0.6,72,0.2,104.2,0.2c0,0,34.7-0.2,34.7-0.2l2.2,0C1067.1,1000.8,1066.6,1010.4,1066.1,1019.4L1066.1,1019.4z
			 M1064.3,1017.6c-0.4-8.3-0.9-16.3-1.2-24.1l2.1,2.1c-17.3-0.1-52.2-0.2-69.5-0.2c-20.4,0-49.3-0.2-69.5,0.2c0,0,2.1-2.1,2.1-2.1
			l-0.8,25l-1.3-1.3l17.2-0.2C982.4,1016.6,1025.3,1016.9,1064.3,1017.6L1064.3,1017.6z"/>
	</g>
</g>
<g>
	<path class="st6" d="M892.9,584.1c3-0.2,6.3-0.1,9.1,0.9c2.8,1,5.3,1.8,8.2,2.3c11.4,1.7,22.7-1.8,34.3-2.3
		c6.1-0.5,13.6,0.7,17.2,6.4c1.7,2.6,2.8,6.4,0.9,9.3c-0.8,1.2-2.3,2-3.4,2.5c-1.2,0.6-3.1,1.3-4.4,1.6c-12.4,3.2-24.9-2-37.1-1.4
		c-8.4,0.4-17.2,4-26,3.4c-4.7-0.2-8.6-1.9-12.9-2.4c-4.2-0.5-8.3-0.2-12.5,0.2c-9.9,1-22.5,2.8-30.7-4.8
		c-7.7-7.1-4.8-17.9,5.8-19.1c6.3-0.4,11.8,1.5,17.7,2.8c4.2,1,8.3,2,12.5,2.4C878.6,586.2,885.5,584.6,892.9,584.1L892.9,584.1z
		 M893.1,587.1c-8.5,0.6-17.6,3.1-26.3,1.5c-5.8-0.9-11.4-2.6-17-3.6c-2.8-0.5-5.6-1-8.1-0.7c-5.1,0.5-8.5,5-5.8,9.7
		c8,12.4,26.5,5.4,38.8,5.8c5.8-0.2,11.7,2.2,17.2,2.6c2.7,0.1,5.4-0.1,8.2-0.6c5.5-0.9,11.2-2.5,17.4-2.8c6.1-0.2,12,0.8,17.7,1.6
		c7.1,1,13.9,1.9,20.5-0.3c1.1-0.4,2.5-1,3.4-1.6c0.3-0.3,0.4-0.4,0.5-0.7c0.3-1.5-0.2-3.3-1.1-4.7c-3-4.6-8.7-5.1-13.9-4.9
		c-5.6,0.2-11.4,1.1-17.2,1.7c-5.8,0.6-11.8,1-17.7,0c-3-0.5-6-1.5-8.6-2.4C898.5,586.9,895.9,586.9,893.1,587.1L893.1,587.1z"/>
</g>
<g>
	<path class="st6" d="M447.2,550.4c9.7,1.1,19.7,3.5,29.4,4.2c2.5,0.2,5.1,0.2,7.6,0.1c5.1-0.2,10.2-1.3,15.4-1.2
		c5.2,0.1,10.1,2.3,15.2,2.6c2.4,0.2,4.7-0.4,7.2-1c5.1-1.2,10.6-1.5,15.9-0.6c4.9,1.1,12.6,2.5,14.7,7.7c2.3,6.1-5.4,9.6-10.1,10.6
		c-2.1,0.3-4.1,0.4-6.2,0.2c-2.7-0.1-8.9-1.7-11.6-2.2c-4.3-1.1-8.1-2-12.2-0.4c-4.5,1.1-9.2,1.7-13.8,1.9
		c-3.4,0.1-7.1,0.2-10.3-1.2c-1.7-0.7-3.6-1.8-5.1-2.4c-1.5-0.6-3.3-0.6-4.9-0.5c-4.3,0.6-8.9,1.5-13.3,1.8
		c-5.2,0.6-10.7-0.1-15.8-1.5c-5.1-1.4-11.5-3.1-13.4-8.7c-1.1-2.8-0.5-6.7,2.4-8.3C441,550.4,444.1,550.6,447.2,550.4L447.2,550.4z
		 M445.1,552.3c-2,0.2-4.4,0.5-6.1,1.3c-1.7,1-1.9,3.7-1.1,5.5c0.8,2.1,2.6,3.6,4.7,4.4c6.9,2.7,14.4,4.2,21.8,3.2
		c3.6-0.4,7.7-1.2,11.3-1.8c2.8-0.5,5.7-0.7,8.5,0.3c1.4,0.5,2.6,1.1,3.7,1.6c3.2,1.8,6.8,1.7,10.4,1.6c3.7-0.1,7.5-0.7,11.1-1.4
		c0.9-0.2,1.8-0.4,2.6-0.7c4.3-1.5,9.3-0.4,13.3,0.7c0,0,7.5,1.7,7.5,1.7c3,0.6,5.9,0.8,8.9,0.4c1.7-0.3,3.2-0.9,4.8-1.8
		c1.7-1,3.3-1.8,2.6-3.8c-1.4-3.4-8.4-4.9-11.9-5.7c-4.8-0.9-9.8-0.8-14.7,0.2c-2.6,0.5-5.3,1.1-8,0.9c-5.3-0.4-10-2.7-15.1-2.9
		c-5-0.2-10.1,0.9-15.3,0.9c-2.6,0-5.2-0.1-7.8-0.3C465.9,555.9,455.6,553.3,445.1,552.3L445.1,552.3z"/>
</g>
<g>
	<path class="st6" d="M344.3,583.6c-1.9,1-4,2.8-3.8,5.1c0.7,4.1,3.2,7.6,7.8,6.2c3.7-0.8,7.7-1.3,11.7-0.9c3.8,0.2,7.5,2.2,11,3
		c3.3,0.7,6.9,0.5,10.5,0l5.6-0.8c3-0.3,6.5-1.1,9.4,0.5c3.8,2.4,8.1,2.3,12.5,1.6c3-0.5,6.1-1.3,9-2.5c0.3-0.1,0.4-0.3,0.5-0.3
		c0-0.1,0.1-0.2,0.1-0.5c0-1.8-0.2-4.2-1.2-5.7c-1.6-2-3.8-1-6.6-0.8c-4,0.2-7.8-0.5-11.5-1c-4-0.6-13-1.6-16.8-2.7
		c-1.9-0.5-3.6-1.1-5.3-1.3c-3.6-0.5-7.5-0.1-11.2-0.5C358.8,582.6,351.1,581,344.3,583.6L344.3,583.6z M343.2,581.2
		c7.4-2.6,15.3-0.8,22.9-0.2c3.8,0.4,7.5,0,11.3,0.5c3.9,0.6,7.1,1.9,11,2.2c6.3,0.6,15.9,2.4,22.1,2c2-0.2,3.9-0.8,6.1-0.3
		c4.3,1.1,5.2,6,5.2,9.8c0,2.3-1.9,3.7-3.8,4.2c-4.6,1.7-9.3,3-14.3,3c-2,0-4.2-0.3-6.2-1.1c-1.8-0.6-2.9-1.7-4.6-1.8
		c-3.5,0-7.2,0.9-10.8,1.3c-3.8,0.5-7.8,0.7-11.8-0.1c-3.8-0.8-6.8-2.8-10.6-3.2c-3.5-0.4-7-0.1-10.7,0.5c-1,0.2-2,0.3-3.2,0.2
		c-4.8-0.3-7.5-5.1-8-9.4C337.4,585.5,340.3,582.6,343.2,581.2L343.2,581.2z"/>
</g>
<g>
	<path class="st6" d="M660.9,592.2c6.4-8.7,19.5-10.2,28.8-5.5c3.3,1.6,6.2,4,8.3,7.1l-3.3,0.1c7.5-12.2,24.2-18.5,37.7-13
		c-14.3-2.2-29.1,4.9-35.9,17.7c0,0-1.7-2.5-1.7-2.5C687.4,585.6,670.7,584,660.9,592.2L660.9,592.2z"/>
</g>
<g>
	<path class="st6" d="M734.7,622.1c6.5-11.8,24.2-14.6,34.7-6.3c0,0-3.1,0.8-3.1,0.8c4.9-12.5,21.5-19.2,33.3-12.6
		c-12.6-3.3-26.8,4-30.6,16.5C759.6,611.7,743.6,612.7,734.7,622.1L734.7,622.1z"/>
</g>
<g>
	<text transform="matrix(1 0 0 1 273.455 1716.7881)" class="st6 st13 st14">RIVERWAY CLUBHOUSE / VANCOUVER, BC</text>
</g>
<text transform="matrix(1 0 0 1 403.8413 1665.4346)" class="st6 st15 st16">SEPTEMBER 5, 2025</text>
<text transform="matrix(1 0 0 1 443.5598 1765.3915)" class="st6 st13 st14">INVITATION TO FOLLOW</text>
</svg>
