<?xml version="1.0" encoding="utf-8"?>
<!-- Generator: Adobe Illustrator 24.2.1, SVG Export Plug-In . SVG Version: 6.00 Build 0)  -->
<svg version="1.1" id="Layer_1" xmlns="http://www.w3.org/2000/svg" xmlns:xlink="http://www.w3.org/1999/xlink" x="0px" y="0px"
	 viewBox="0 0 49 38.8" style="enable-background:new 0 0 49 38.8;" xml:space="preserve">
<style type="text/css">
	.st0{fill:#B7B7B8;}
	.st1{fill:#010101;}
	.st2{fill:#FFFFFF;}
	.st3{opacity:0.15;fill:#FFFFFF;enable-background:new    ;}
	.st4{opacity:5.000000e-02;fill:#010101;enable-background:new    ;}
</style>
<g>
	<g>
		<path class="st0" d="M28.7,7.4c0,0-3.5-5.4-8.5-5.3S8.2,14.5,8.6,16.9c0.4,2.4,0.2,14.8,7.1,13.3s9.4-4.3,9.4-4.3L28.7,7.4z"/>
		<path class="st1" d="M28.6,7.5c-1.4-1.9-3.2-3.6-5.4-4.5c-1.1-0.5-2.3-0.7-3.4-0.6c-1.1,0.2-2.2,0.9-3.1,1.6
			c-1.8,1.5-3.3,3.4-4.6,5.4s-2.5,4.1-3.3,6.3c-0.1,0.3-0.2,0.6-0.2,0.9c0,0.3,0.1,0.6,0.1,0.9l0.1,1.8c0.1,1.2,0.2,2.4,0.4,3.6
			s0.5,2.3,0.9,3.5c0.4,1.1,1,2.2,1.9,3s2.1,1.1,3.2,0.8c1.1-0.2,2.3-0.5,3.4-0.9c2.2-0.8,4.5-1.8,6.1-3.4L24.6,26l0.9-4.6
			c0.3-1.5,0.6-3.1,0.9-4.6C27.3,13.6,27.9,10.5,28.6,7.5z M28.7,7.4c-0.5,3-1.1,6.1-1.6,9.2c-0.3,1.5-0.6,3.1-0.9,4.6l-0.9,4.6v0.1
			l0,0c-1.8,1.7-4.1,2.7-6.4,3.5c-1.2,0.4-2.3,0.7-3.5,0.9c-1.2,0.2-2.6-0.1-3.5-1c-0.9-0.8-1.5-2-1.9-3.1s-0.7-2.3-0.9-3.5
			s-0.3-2.4-0.4-3.6l-0.2-1.8c0-0.3-0.1-0.6-0.1-0.9s0.1-0.6,0.2-0.9c0.7-2.3,1.9-4.4,3.2-6.5c1.3-2,2.8-4,4.7-5.5
			c0.9-0.8,2-1.4,3.3-1.6c1.2-0.1,2.5,0.2,3.6,0.6C25.6,3.7,27.4,5.4,28.7,7.4z"/>
	</g>
	<polygon class="st0" points="29.7,8.4 27.7,6.6 23.5,26.8 27,24.5 	"/>
</g>
<g>
	<g>
		<path class="st0" d="M21,32.4c0,0-0.3,2-0.4,3.8s0.1,2.5,0.1,2.5h8v-1.8L21,32.4z"/>
		<path class="st1" d="M21,32.4l-0.1,1.5c0,0.5-0.1,1-0.1,1.6c0,0.5,0,1,0,1.6c0,0.5,0,1.1,0.2,1.5l-0.2-0.1c0.7,0,1.3,0,2,0
			s1.3,0.1,2,0.1c1.3,0,2.7,0,4-0.1l-0.2,0.2c0-0.6,0-1.2-0.1-1.8l0.1,0.2c-1.3-0.7-2.5-1.4-3.8-2.2L21,32.4z M21,32.3
			c1.3,0.6,2.6,1.3,3.9,2s2.7,1.5,4,2.2l0.1,0.1v0.1c0,0.6,0,1.2-0.1,1.8v0.2h-0.2c-1.3,0-2.7-0.1-4-0.1c-0.7,0-1.3,0.1-2,0.1
			s-1.3,0-2,0h-0.2v-0.1c-0.1-0.6-0.1-1.1-0.1-1.6s0-1.1,0.1-1.6s0.1-1,0.2-1.6C20.8,33.4,20.9,32.9,21,32.3z"/>
	</g>
	<g>
		<path class="st2" d="M21,38.6c0,0,1-1.4,1.7-1.4s0.7,1.3,0.7,1.3L21,38.6z"/>
		<path class="st1" d="M20.9,38.6c0.1-0.3,0.3-0.6,0.5-0.8s0.5-0.5,0.8-0.6c0.2-0.1,0.4-0.1,0.5,0c0.2,0.1,0.3,0.2,0.4,0.4
			c0.2,0.3,0.2,0.6,0.3,1c0,0.1,0,0.1-0.1,0.1l0,0C22.5,38.7,21.6,38.7,20.9,38.6z M21,38.6c0.9-0.1,1.6-0.2,2.3-0.2l-0.1,0.1
			c0-0.3,0-0.6-0.1-0.9c-0.1-0.3-0.4-0.5-0.7-0.3c-0.3,0.2-0.5,0.4-0.7,0.6C21.4,38.2,21.2,38.4,21,38.6z"/>
	</g>
	<g>
		<path class="st2" d="M23.6,38.5c0,0,0.9-1.5,1.3-1.5s1.1,1.4,1.1,1.4L23.6,38.5z"/>
		<path class="st1" d="M23.6,38.5c0.1-0.3,0.3-0.6,0.5-0.9c0.2-0.3,0.4-0.6,0.7-0.7c0.2-0.1,0.4,0.1,0.5,0.2l0.3,0.4
			c0.2,0.3,0.4,0.5,0.6,0.8l0,0c0,0.1,0,0.1-0.1,0.2c0,0,0,0-0.1,0C25.2,38.6,24.3,38.5,23.6,38.5z M23.6,38.5
			c0.9-0.1,1.7-0.2,2.5-0.2L26,38.5l0,0c-0.1-0.3-0.3-0.6-0.4-0.9c-0.1-0.1-0.2-0.3-0.3-0.4C25.2,37.1,25,37,25,37.1
			c-0.2,0.2-0.4,0.4-0.6,0.7C24,38,23.8,38.3,23.6,38.5z"/>
	</g>
	<g>
		<path class="st2" d="M28.6,38.6c0,0-0.7-1.3-1.1-1.3s-1.2,1.2-1.2,1.2L28.6,38.6z"/>
		<path class="st1" d="M28.6,38.6L28.1,38c-0.2-0.2-0.4-0.5-0.6-0.5s-0.5,0.2-0.7,0.4s-0.3,0.5-0.5,0.7l-0.1-0.1
			C27,38.4,27.8,38.5,28.6,38.6z M28.6,38.6c-0.7,0-1.5,0.1-2.3,0l0,0c0,0-0.1,0-0.1-0.1l0,0c0.2-0.2,0.4-0.4,0.6-0.7
			c0.2-0.2,0.3-0.5,0.7-0.5c0.4,0.1,0.5,0.4,0.7,0.6C28.4,38.1,28.5,38.3,28.6,38.6z"/>
	</g>
</g>
<g>
	<g>
		<path class="st0" d="M38.7,32.4c0,0-1.2,2-1.3,3.4s0,2.9,0,2.9h-8l-0.1-1.8L38.7,32.4z"/>
		<path class="st1" d="M38.7,32.3c-0.2,0.5-0.5,1-0.7,1.5s-0.4,1-0.5,1.5s-0.1,1.1-0.1,1.6s0,1.1,0.1,1.6v0.2h-0.2c-0.7,0-1.3,0-2,0
			s-1.3-0.1-2-0.1c-1.3,0-2.7,0-4,0.1h-0.2v-0.2C29,37.9,29,37.3,29,36.7v-0.1l0.1-0.1c1.6-0.8,3.2-1.5,4.9-2.2L38.7,32.3z
			 M38.7,32.4C37,33.2,35.5,34,34,34.8s-3,1.5-4.6,2.2l0.1-0.2c0,0.6,0,1.2,0,1.8l-0.2-0.2c1.3,0,2.7,0.1,4,0.1c0.7,0,1.3-0.1,2-0.1
			s1.3,0,2,0l-0.2,0.2C37,38,37,37.5,37,36.9c0-0.6,0-1.1,0.1-1.7c0.1-0.5,0.4-1.1,0.6-1.6C38.1,33.3,38.4,32.8,38.7,32.4z"/>
	</g>
	<g>
		<path class="st2" d="M37.2,38.6c0,0-0.4-1.3-1.1-1.3c-0.7,0-1.2,1.2-1.2,1.2L37.2,38.6z"/>
		<path class="st1" d="M37.2,38.6c-0.2-0.2-0.3-0.5-0.5-0.7s-0.3-0.5-0.6-0.5s-0.5,0.2-0.7,0.5c-0.2,0.2-0.3,0.5-0.4,0.8l-0.1-0.2
			C35.6,38.4,36.3,38.5,37.2,38.6z M37.2,38.6c-0.7,0.1-1.5,0.1-2.4,0.1l0,0c-0.1,0-0.1-0.1-0.1-0.1l0,0c0.2-0.3,0.3-0.5,0.6-0.7
			c0.2-0.2,0.5-0.4,0.8-0.5c0.4,0,0.7,0.2,0.8,0.5C37.1,38,37.2,38.3,37.2,38.6z"/>
	</g>
	<g>
		<path class="st2" d="M34.6,38.5c0,0-0.9-1.2-1.3-1.2c-0.4,0-1.1,1.1-1.1,1.1L34.6,38.5z"/>
		<path class="st1" d="M34.6,38.5c-0.4-0.3-0.8-0.8-1.2-1.1c-0.2-0.1-0.5,0.2-0.6,0.4c-0.2,0.2-0.4,0.5-0.5,0.7l0,0l-0.1-0.2
			C32.9,38.3,33.7,38.5,34.6,38.5z M34.6,38.5c-0.8,0-1.6,0-2.5,0c-0.1,0-0.1-0.1-0.1-0.1v-0.1l0,0c0.2-0.2,0.4-0.4,0.6-0.7
			c0.1-0.1,0.2-0.2,0.3-0.3s0.3-0.2,0.5-0.2c0.3,0.1,0.5,0.3,0.7,0.6S34.5,38.2,34.6,38.5z"/>
	</g>
	<g>
		<path class="st2" d="M29.6,38.6c0,0,0.8-1.1,1.2-1.1c0.4,0,1.1,1,1.1,1L29.6,38.6z"/>
		<path class="st1" d="M29.5,38.6c0.1-0.2,0.3-0.4,0.5-0.6c0.2-0.2,0.4-0.4,0.7-0.5c0.2-0.1,0.3,0.1,0.4,0.1
			c0.1,0.1,0.2,0.2,0.3,0.3c0.2,0.2,0.4,0.4,0.6,0.6v0.1l0,0l0,0C31.1,38.7,30.2,38.6,29.5,38.6z M29.6,38.6
			c0.9-0.1,1.6-0.2,2.3-0.2l-0.1,0.1c-0.1-0.2-0.3-0.4-0.5-0.6c-0.2-0.2-0.4-0.4-0.6-0.3c-0.2,0.1-0.4,0.3-0.6,0.4L29.6,38.6z"/>
	</g>
</g>
<g>
	<circle class="st0" cx="29.9" cy="18.6" r="18.4"/>
	<path class="st1" d="M48.3,18.6c0,4.8-1.9,9.6-5.3,13.1c-3.4,3.5-8.2,5.5-13.1,5.5s-9.7-2-13.1-5.5c-1.7-1.7-3.1-3.8-4-6
		s-1.4-4.6-1.4-7.1c0-4.8,1.9-9.7,5.4-13.2C20.1,2,25,0,29.9,0c2.4,0,4.9,0.5,7.1,1.4c2.2,1,4.3,2.4,6,4.1
		C46.4,9,48.3,13.8,48.3,18.6z M48.2,18.6c0-2.4-0.5-4.8-1.4-7s-2.3-4.2-4-5.9c-3.4-3.4-8.1-5.2-12.9-5.3c-4.8,0-9.5,1.9-12.9,5.3
		s-5.4,8.1-5.4,12.9s1.9,9.6,5.3,12.9c3.4,3.4,8.2,5.3,12.9,5.3c4.8,0,9.5-2,12.9-5.3c1.7-1.7,3.1-3.7,4-5.9
		C47.7,23.4,48.2,21,48.2,18.6z"/>
</g>
<g>
	<path class="st1" d="M22.8,3.5c-0.5,0.1-1,0.3-1.6,0.5c-0.5,0.2-1.1,0.4-1.4,0.7c-0.1,0.1-0.1,0.2-0.1,0.2c0,0.1,0.1,0.3,0.1,0.4
		c0.1,0.3,0,0.6,0,0.9c-0.2,0.5-0.5,1-0.9,1.4c0.3-0.4,0.6-0.9,0.7-1.4c0-0.3,0.1-0.5,0-0.8c0-0.1-0.1-0.2-0.1-0.4
		c-0.1-0.2,0-0.4,0.1-0.5c0.5-0.4,1-0.6,1.5-0.7C21.8,3.6,22.3,3.5,22.8,3.5z"/>
</g>
<g>
	<path class="st1" d="M23.3,3.8c-0.3,0.1-0.7,0.1-1,0.2c-0.3,0.1-0.6,0.2-0.9,0.4c-0.3,0.2-0.5,0.4-0.5,0.7c0,0.3,0.1,0.6,0.1,1
		c-0.2-0.3-0.4-0.6-0.4-1s0.3-0.8,0.6-0.9C21.9,3.8,22.6,3.7,23.3,3.8z"/>
</g>
<g>
	<g>
		<path class="st2" d="M21.2,10.2c-0.2,1-0.8,1.7-1.4,1.6s-0.7-1-0.5-2c0.2-0.6,0.4-0.9,0.7-1.2c0.2-0.2,0.4-0.5,0.6-0.4
			C21.2,8.3,21.4,9.2,21.2,10.2z"/>
		<path class="st1" d="M21.2,10.2c-0.1,0.4-0.2,0.7-0.4,1.1c-0.2,0.3-0.5,0.7-1,0.6c-0.4-0.1-0.5-0.6-0.6-1c0-0.4,0-0.8,0.1-1.1
			c0.1-0.4,0.2-0.8,0.5-1c0.1-0.1,0.3-0.3,0.4-0.4c0.1-0.1,0.3-0.3,0.6-0.3c0.5,0.2,0.5,0.6,0.6,1C21.4,9.5,21.3,9.9,21.2,10.2z
			 M21.2,10.2c0.1-0.4,0.1-0.7,0-1.1c-0.1-0.3-0.2-0.7-0.5-0.8c-0.1,0-0.3,0.1-0.4,0.2c-0.1,0.1-0.3,0.2-0.4,0.4
			c-0.3,0.3-0.4,0.6-0.5,0.9c-0.1,0.4-0.1,0.7-0.1,1.1c0,0.3,0.2,0.8,0.6,0.8c0.3,0,0.6-0.2,0.8-0.5C20.9,10.9,21.1,10.6,21.2,10.2z
			"/>
	</g>
	<g>
		<path class="st2" d="M21,10c-0.1-0.7,0-1.4,0.2-1.8c0.1-0.2,0.4-0.1,0.6,0c0.5,0.4,0.7,0.5,0.9,1.7s-0.3,2-0.7,2
			C21.6,12,21.1,11.2,21,10z"/>
		<path class="st1" d="M20.9,10c0-0.4-0.1-0.8,0-1.2c0-0.2,0.1-0.4,0.2-0.6c0-0.1,0.1-0.2,0.2-0.2s0.2,0,0.3,0
			c0.4,0.2,0.7,0.5,0.8,0.8c0.1,0.4,0.2,0.7,0.3,1.1c0,0.4,0,0.8,0,1.2c0,0.2-0.1,0.4-0.2,0.6c-0.1,0.2-0.3,0.4-0.6,0.3
			c-0.5-0.1-0.6-0.6-0.7-0.9C21.1,10.8,21,10.4,20.9,10z M21,10c0,0.4,0.1,0.8,0.3,1.1c0.2,0.3,0.4,0.7,0.7,0.8
			c0.3,0,0.5-0.4,0.6-0.7c0.1-0.4,0.1-0.7,0.1-1.1c0-0.4-0.1-0.8-0.2-1.1c-0.2-0.3-0.5-0.5-0.8-0.7S21.2,8.6,21.1,9
			C20.9,9.3,20.9,9.6,21,10z"/>
	</g>
	<circle class="st1" cx="20.5" cy="10.1" r="0.2"/>
	<circle class="st1" cx="22.3" cy="10.1" r="0.2"/>
</g>
<path class="st3" d="M25.4,36.5c0,0-12.7-3.8-13.7-15.5c-1-10.5,6.6-16.3,6.6-16.3s-6.4,7.1-3.7,18.2S25.4,36.5,25.4,36.5z"/>
<g>
	<g>
		<g>
			<path class="st0" d="M17.6,16.4c0,0-2.1,4.2-4.1,5.7c-5.6,4-12.2-5.7-12.2-5.7s-0.5-0.4-0.9,0s-0.3,1-0.3,1s0.9,1.6,1.1,2
				s2.2,5.3,5,7.2s7.4,1.7,10.1,0.8s6.9-4.2,7.8-6.3L17.6,16.4z"/>
			<path class="st1" d="M17.6,16.4c-0.8,1.6-1.7,3.3-2.8,4.7c-0.6,0.7-1.3,1.3-2.2,1.7c-0.9,0.4-1.9,0.5-2.8,0.3
				c-1.9-0.3-3.5-1.4-4.9-2.6s-2.6-2.6-3.6-4.1l0,0c-0.3-0.2-0.6-0.2-0.9,0c-0.2,0.2-0.3,0.6-0.3,0.9l0,0l1,1.7
				c0.3,0.6,0.6,1.2,0.9,1.8c0.6,1.2,1.3,2.3,2.1,3.4c0.8,1,1.7,2,2.9,2.6s2.4,0.8,3.7,0.9c2.6,0.1,5.3-0.2,7.5-1.6
				c1.1-0.6,2.2-1.4,3.2-2.3s2-1.7,2.7-2.8l0,0l0,0L17.6,16.4z M17.6,16.4l6.4,4.7l0,0l0,0c-0.2,0.6-0.6,1.2-1,1.7s-0.9,1-1.4,1.4
				c-1,0.9-2.1,1.7-3.2,2.4c-2.3,1.5-5.1,1.8-7.8,1.6c-1.3-0.1-2.7-0.4-3.9-1.1c-1.2-0.6-2.1-1.7-2.9-2.7c-0.8-1.1-1.4-2.2-2-3.4
				c-0.3-0.6-0.5-1.2-0.8-1.8l-1-1.7l0,0l0,0c-0.1-0.4,0-0.8,0.3-1.1c0.1-0.1,0.3-0.2,0.5-0.2s0.4,0.1,0.6,0.2l0,0l0,0
				c1.1,1.5,2.3,2.8,3.7,4s3,2.2,4.7,2.5c0.9,0.1,1.8,0.1,2.6-0.3c0.8-0.3,1.5-0.9,2.1-1.6C15.8,19.6,16.7,18,17.6,16.4z"/>
		</g>
		<g>
			<path class="st0" d="M13.6,22.1c0,0,0.5,0.1,1,0.8c0.6,0.8,0.9,2,0.9,2"/>
			<path class="st1" d="M13.6,21.9c0.4,0.1,0.6,0.4,0.8,0.6s0.4,0.5,0.5,0.8c0.3,0.5,0.5,1.1,0.6,1.7c-0.2-0.6-0.5-1.1-0.8-1.6
				c-0.2-0.2-0.4-0.5-0.6-0.6c-0.2-0.2-0.5-0.3-0.7-0.4L13.6,21.9z"/>
		</g>
		<g>
			<path class="st0" d="M12.3,22.8c0,0,0.4,0,0.8,0.8c0.7,1.3,0.8,2.6,0.8,2.6"/>
			<path class="st1" d="M12.3,22.5c0.3,0.1,0.4,0.2,0.6,0.3c0.1,0.1,0.2,0.3,0.3,0.4c0.1,0.3,0.3,0.6,0.4,0.9
				c0.2,0.6,0.3,1.3,0.4,1.9c-0.1-0.6-0.3-1.3-0.6-1.9c-0.1-0.3-0.3-0.6-0.5-0.8c-0.1-0.1-0.2-0.2-0.3-0.3c-0.1-0.1-0.3-0.2-0.3-0.1
				L12.3,22.5z"/>
		</g>
		<g>
			<path class="st0" d="M10.5,23c0,0,0.5,0.1,1.1,0.9s0.4,1.9,0.4,1.9"/>
			<path class="st1" d="M10.6,22.8c0.3,0.1,0.5,0.3,0.8,0.6c0.2,0.2,0.4,0.5,0.5,0.7c0.2,0.6,0.3,1.1,0.2,1.7c0-0.6-0.1-1.1-0.4-1.6
				c-0.1-0.2-0.3-0.4-0.5-0.6s-0.4-0.3-0.6-0.4V22.8z"/>
		</g>
	</g>
	<polygon class="st0" points="17.4,17.2 18.9,13.7 24.7,20.2 23.7,21.4 	"/>
</g>
<g>
	<g>
		<path class="st2" d="M21.2,29.1c0,0,0.7,0.1,1.2-0.1c0.7-0.2,1-1.5,1-1.5s-0.6,0.9-1.1,1.2C21.8,29.2,21.2,29.1,21.2,29.1z"/>
		<path class="st1" d="M21.2,29.1c0.2,0,0.5,0,0.7-0.1c0.2,0,0.5,0,0.7-0.2c0.4-0.3,0.5-0.8,0.6-1.3l0.1,0.1
			c-0.3,0.4-0.5,0.8-0.9,1.1c-0.2,0.2-0.4,0.3-0.6,0.4C21.7,29.2,21.4,29.2,21.2,29.1z M21.2,29.1c0.2,0,0.5-0.1,0.7-0.2
			s0.4-0.2,0.5-0.4c0.3-0.3,0.6-0.7,0.9-1l0.2-0.3l-0.1,0.3c-0.2,0.5-0.3,1-0.7,1.4c-0.2,0.2-0.5,0.3-0.7,0.3
			C21.7,29.2,21.5,29.2,21.2,29.1z"/>
	</g>
</g>
<g>
	<path class="st1" d="M19.4,11.9c0.1,0.1,0.1,0.2,0.3,0.2c0.1,0,0.2,0,0.3,0c-0.1,0.1-0.2,0-0.4,0C19.5,12.1,19.4,12,19.4,11.9z"/>
</g>
<g>
	<path class="st1" d="M22.6,12c0,0.1-0.2,0.2-0.3,0.3c-0.1,0-0.3,0.1-0.4,0c0.1,0,0.3,0,0.4-0.1C22.4,12.1,22.5,12.1,22.6,12z"/>
</g>
<g>
	<g>
		<path class="st0" d="M29.8,6.6c0,0,4-5.6,8.9-4.9s10.7,14.9,10.1,17.5c-0.2,0.9-0.5,3.9-1.1,6.4c-0.1,0.3-1,0.2-1,0.2l0.8,0.4
			c-1.1,3.9-3.4,8.2-7.1,6.8c-6.7-2.4-8.9-5.8-8.9-5.8L29.8,6.6z"/>
		<path class="st1" d="M29.8,6.6c1-1.3,2.1-2.5,3.5-3.5c1.4-0.9,2.9-1.6,4.6-1.6c0.8,0,1.7,0.2,2.4,0.6s1.3,1,1.9,1.6
			c1.1,1.2,2,2.6,2.8,4s1.5,2.9,2.1,4.4s1.2,3.1,1.5,4.7c0.2,0.8,0.4,1.6,0.1,2.5c-0.2,0.8-0.3,1.6-0.4,2.4
			c-0.1,0.8-0.2,1.6-0.4,2.4c-0.1,0.4-0.1,0.8-0.2,1.2c0,0.1,0,0.2-0.1,0.3c-0.1,0.1-0.2,0.1-0.3,0.1c-0.2,0-0.4,0-0.6,0v-0.2
			l0.8,0.4h0.1V26c-0.5,1.8-1.2,3.5-2.2,5c-0.5,0.7-1.2,1.4-2.1,1.8c-0.9,0.4-1.9,0.5-2.8,0.2c-1.7-0.6-3.4-1.3-5-2.3
			s-3.1-2.1-4.2-3.6l0,0V27l-0.5-5.2c-0.1-1.7-0.3-3.5-0.4-5.2C30.2,13.5,30,10,29.8,6.6z M29.8,6.6c0.4,3.5,0.7,6.9,1.1,10.3
			c0.2,1.7,0.3,3.4,0.5,5.1l0.4,5.1V27c1.1,1.4,2.5,2.5,4.1,3.5c1.5,0.9,3.2,1.7,4.9,2.3c0.8,0.3,1.7,0.3,2.5-0.1
			c0.8-0.4,1.5-1,2-1.7c1.1-1.5,1.7-3.2,2.2-4.9l0.1,0.1l-0.8-0.4l-0.4-0.2h0.5c0.2,0,0.4,0,0.6,0c0.1,0,0.2,0,0.2-0.1
			c0,0,0-0.1,0.1-0.2c0.1-0.4,0.2-0.8,0.2-1.2c0.1-0.8,0.3-1.6,0.4-2.4c0.1-0.8,0.2-1.6,0.4-2.4s0-1.6-0.2-2.4
			c-0.8-3.2-2.2-6.1-3.8-9C43.9,6.6,43,5.2,42,4c-1.1-1.2-2.4-2.3-4-2.2c-1.6,0-3.2,0.6-4.5,1.5C32.1,4.2,30.8,5.3,29.8,6.6z"/>
	</g>
	<polygon class="st0" points="28.7,7.5 30.9,5.7 33,28.4 29.8,25.6 	"/>
</g>
<path class="st4" d="M31.5,4.7c0.8-1.3,4.6-3.1,6.1-3.2c3-0.2,6.1,3.9,7.5,6.7c0.4,0.9,2.7,5.6,2.9,6.3c0.1,0.1,1.1,3.7,0.8,4.7
	c-0.1,0.5-0.5,4.4-1.1,6.4c-0.7,2.3-1.5,2.8-1.7,3.5c-1,3.5-3.1,4-3.1,4s2.2-2.8,3.2-5.9c1.2-3.7,1.1-9.3,0.3-12
	c-0.1-0.4-1.5-3.2-3.1-6.2c-0.8-1.5-1.8-2.8-2.5-3.5C37.4,1.7,31,5.5,31.5,4.7z"/>
<g>
	<path class="st2" d="M24.1,21l0.6,0.2c0,0-0.1,0.5-0.3,0.8c-0.2,0.2-0.6,0.5-0.7,0.5s0-0.4,0.2-0.7C24,21.6,24.1,21,24.1,21z"/>
	<path class="st1" d="M24.1,21c0.2,0.1,0.4,0.1,0.6,0.2l0,0l0,0c0,0.3-0.1,0.6-0.3,0.8c-0.2,0.3-0.4,0.4-0.7,0.6c0,0-0.1,0-0.2-0.1
		c0-0.1,0-0.1,0-0.2s0-0.1,0.1-0.2s0.1-0.3,0.2-0.4C23.9,21.6,24,21.3,24.1,21z M24.1,21c0,0.3,0,0.6-0.1,0.8
		c-0.1,0.1-0.1,0.3-0.1,0.4c-0.1,0.1-0.1,0.3,0,0.2c0.2-0.1,0.5-0.3,0.6-0.5s0.2-0.5,0.3-0.8v0.1L24.1,21z"/>
</g>
</svg>
