<?xml version="1.0" encoding="utf-8"?>
<!-- Generator: Adobe Illustrator 24.2.1, SVG Export Plug-In . SVG Version: 6.00 Build 0)  -->
<svg version="1.1" id="Layer_1" xmlns="http://www.w3.org/2000/svg" xmlns:xlink="http://www.w3.org/1999/xlink" x="0px" y="0px"
	 viewBox="0 0 119.2 115.3" style="enable-background:new 0 0 119.2 115.3;" xml:space="preserve">
<style type="text/css">
	.st0{opacity:0.25;}
	.st1{fill:#3A6B7C;}
	.st2{fill:#010101;}
	.st3{fill:#FFFFFF;}
	.st4{fill:#EAEAEA;}
</style>
<g>
	<g class="st0">
		<path class="st1" d="M10.9,13.5C9,13.2,8.3,16,8.2,18.1c-0.3,9.5-0.3,19.1,0.1,28.6c0.1,3.3,0.4,6.8,2.5,9.2
			c2.2,2.5,5.8,2.7,9,2.8c10,0.2,20-0.9,30-0.7c1.3,0,2.7,0,4-0.4c2.5-0.9,4.2-3.4,5-6.2c0.8-2.7,0.8-5.6,0.7-8.5
			c-0.1-8.4-0.2-16.8-0.2-25.3c0-3.4-0.3-7.4-2.9-9.4C54.8,7.1,52.8,7,51,6.9C41.7,6.5,32.5,7.4,23.2,7c-5.1-0.2-11.4,0.4-13.3,5.6"
			/>
	</g>
	<g class="st0">
		<path class="st1" d="M118.5,48.9c-0.3,2.1-0.7,4.3-2.2,6c-2.6,3.1-7.4,3.3-11.6,3.3c-8.3,0-16.6,0-24.8,0c-2.4,0-4.9,0-6.9-1.1
			c-4.2-2.3-4-4.3-4.3-12.2s0-21.2-0.2-26.6s0.8-9.2,4.2-10.8c1.5-0.7,3.3-0.7,5-0.7c9.9,0,19.8,0,29.7,0c3.8,0,8.5,0.5,10.1,3.7
			C119,13.7,119.9,39.4,118.5,48.9z"/>
	</g>
	<g class="st0">
		<path class="st1" d="M32.7,66c-3.5-0.4-15.1,0.5-18.5,1.3c-1.7,0.4-3.6,1-4.4,2.6c-0.5,0.9-0.5,2-0.5,3C9.3,83.6,9.2,94.3,9.2,105
			c0,3.1,0.3,6.9,3,8.5c1.3,0.8,2.8,0.8,4.3,0.9c11.2,0.3,22.4,0.6,33.6,0.9c2.3,0.1,4.9,0.1,6.7-1.4c2.4-1.9,2.6-5.4,2.7-8.5
			c0.1-9.6,0-19.3-0.4-28.9c-0.1-3.2-0.5-6.8-3.1-8.5c-1.4-0.9-3-1.1-4.7-1.2c-9.1-0.7-18.3-0.9-27.5-0.8"/>
	</g>
	<g class="st0">
		<path class="st1" d="M118,71.8c0.6,9.6,0.4,23.8,0,33.4c-0.1,2.1-0.3,4.4-1.4,6.1c-1.6,2.4-4.5,2.9-7.1,3.1
			c-10.8,0.9-23.2,0.9-34,0.9c-1.5,0-3.3-0.1-4.1-1.6c-0.5-0.8-0.5-1.8-0.6-2.7c-0.3-5.5-1.2-35.5-0.4-39.3c0.5-2.5,1.2-5.4,3.3-6.4
			c0.8-0.4,1.7-0.4,2.5-0.4c10.7-0.3,23.6,0.3,34.3,0c1.7-0.1,3.5-0.1,4.9,1C117.8,67.8,118,71.8,118,71.8z"/>
	</g>
</g>
<g>
	<g>
		<g>
			<path class="st2" d="M84.9,24.4l1.3,0l2.3,0l1.2,0l0.6,0l0.3,0c0,0,0.1,0,0.1,0l0,0.2l0,2.5l-0.2,19.8c0,0.3,0.1,0.6,0.1,1l0,0
				l-0.1,11.4c0,4.4,0,8.8-0.1,13.2c-0.1,4.4-0.3,8.8-0.7,13.3c0,0.2,0,0.4-0.1,0.6c0,0.1,0,0.2-0.1,0.5l-0.1,0.2l0,0.1
				c-0.1,0.2-0.2,0.3-0.3,0.5c-0.1,0.1-0.1,0.1-0.2,0.2c0,0.1-0.7,0.6-1.5,0.5c-0.4,0-0.7-0.2-0.8-0.3c-0.2-0.2-0.2-0.2-0.2-0.2
				c-0.1-0.1-0.1-0.1-0.2-0.2c-0.1-0.1-0.2-0.3-0.2-0.5l0-0.1l0-0.2l0-0.1l0-0.1c0-0.6,0-1,0.1-1.4c0.1-0.8,0.5-1.4,1.1-1.4
				c0.7,0,1.3,0.4,1.7,1c0.2,0.3,0.4,0.8,0.5,1.1c0,0,0,0.1,0,0.1c0,0,0,0,0,0l-0.2,0l-0.4,0.1c-0.3,0.1-0.4,0.1-0.6,0.1
				c-0.1,0-0.2,0.1-0.2,0.1c-0.1,0-0.1,0-0.1,0.1c0,0,0,0,0,0c0,0,0,0,0,0c0,0-0.1-0.1-0.1-0.1c-0.2-0.1-0.3-0.1-0.5-0.1l-0.8-0.2
				l-0.2,0c-0.1,0,0,0,0,0c0,0,0,0,0,0l0,0l0-0.1c0-0.2,0-0.5,0-0.8c0.4-5.7,0.7-11.6,0.5-17.3c-0.3-8.4,0-16.9-0.1-25.3l0-11.4
				l0-2.4l0-0.3c0,0,0,0,0-0.1l-0.1,0l-0.1,0l-4.7,0c-7.1,0.1-14.2,0.4-21.4,0.4c-6.1,0-12.3-0.4-18.4-0.5c-1.4,0-3-0.1-4.4,0.4l0,0
				C36,28,34,29.2,32.4,28.3l0,0c-0.6,0-1.1-0.1-1.7-0.1c-2.5,0.2-3.2-0.3-2.3-1.8c0.2-0.3,0-0.8,0.6-1l0,0l0,0
				c1.7-1.1,3.8-0.5,5.7-0.6l28.2-0.2c5.8,0,11.5,0,17.3-0.2C81.7,24.5,83.3,24.2,84.9,24.4L84.9,24.4z"/>
		</g>
	</g>
</g>
<g>
	<path class="st3" d="M3.2,7.5C1.3,7.2,0.6,10,0.5,12.1c-0.3,9.5-0.3,19.1,0.1,28.6C0.7,44,1,47.5,3.1,49.9c2.2,2.5,5.8,2.7,9,2.8
		c10,0.2,20-0.9,30-0.7c1.3,0,2.7,0,4-0.4c2.5-0.9,4.2-3.4,5-6.2c0.8-2.7,0.8-5.6,0.7-8.5c-0.1-8.4-0.2-16.8-0.2-25.3
		c0-3.4-0.3-7.4-2.9-9.4c-1.5-1.1-3.4-1.3-5.3-1.3C34.1,0.5,24.8,1.4,15.5,1C10.4,0.8,4.1,1.4,2.2,6.5"/>
</g>
<path class="st4" d="M49.8,24.6c-0.2-3.4,0.2-6.6,0.4-10c0.1-1.9,0-3.6-0.4-5.2c0-0.2,0.1-0.3,0.1-0.5c0.3-2.3-0.3-4.1-2.3-5.4
	c-2.2-1.5-3.8-1.4-6.3-1c-0.1,0-0.2-0.1-0.3-0.1C36.9,2,33.1,2.2,29,2.7C24.4,1,17.2,2.1,13.7,2.1c-1.3,0-2.3,0.4-3.1,1
	c-2.5-0.9-5.5-0.2-6,3.1C4.2,8.3,2.8,10,2.4,12.1c-0.4,2.6,0.1,5.4,0.3,8c0.3,3.8-0.8,5.7-0.5,9.5c-0.5,4.8-0.9,15,1.6,18.3
	c1.4,2.6,1.3,2.4,4.2,3.3c0.7,0.5,29.5,0.6,37.9-0.7c2.6-0.4,5.4-7.6,5-15.9C50.7,31.3,50.1,27.9,49.8,24.6z"/>
<g>
	<g>
		<g>
			<path class="st2" d="M27.3,0.6c2.9,0.1,5.7-0.3,8.5-0.2c2.4,0,4.7,0.1,7.1,0.2c1.2,0.1,2.4,0.1,3.6,0.3c1.2,0.2,2.5,0.7,3.4,1.7
				c1,1,1.6,2.3,2,3.6c0.4,1.3,0.5,2.6,0.5,3.9c0.1,2.6,0,5.1,0,7.7l0,15.4c0,2.9,0.1,5.8-0.1,8.8c-0.2,2.9-1,6-3,8.2
				c-1,1.1-2.4,2-3.9,2.2c-1.5,0.3-3,0.1-4.4,0.2c-2.9,0-5.8,0.2-8.7,0.4c-6.7,0.4-13.5,0.5-20.3,0.4c-2.4-0.1-4.9-0.2-7.1-1.5
				c-1.1-0.6-2-1.6-2.6-2.7c-0.6-1.1-1-2.3-1.3-3.5c-0.5-2.4-0.5-4.8-0.6-7.1l-0.3-7.1c-0.1-3.4-0.1-6.7,0-10l0.1-5l0.1-2.5
				c0-0.8,0-1.7,0.1-2.6c0.1-0.9,0.3-1.8,0.6-2.7c0.3-0.8,1-1.4,1.6-1.5c0.6-0.1,1,0.1,1.1,0.3c0.1,0.2-0.1,0.3-0.3,0.4
				C3,8,2.7,8.2,2.4,8.5c-0.6,0.7-0.9,1.7-1,2.7c-0.1,1-0.1,2-0.2,3c-0.1,2.1-0.1,4.1-0.1,6.2c0,5.3,0.1,10.7,0.3,16
				c0.1,2.7,0.1,5.4,0.5,7.9c0.3,2.6,1.3,5.1,3.4,6.4c2.2,1.4,5,1.5,7.8,1.5c2.8,0.1,5.6,0,8.3-0.1c7-0.3,14-0.9,21.1-0.8
				c1.9,0,3.6-0.1,4.9-1c1.3-0.9,2.3-2.4,2.9-4c1.2-3.3,1-7,1.1-10.7l0-15.3l0-7.6c0-2.5,0-5.1-0.9-7.3c-0.6-1.6-1.7-2.8-3.4-3.3
				c-1.6-0.5-3.4-0.4-5.2-0.5c-3.6-0.1-7.2,0-10.8,0c-4.9,0-9.7,0.2-14.6,0C14,1.6,11.6,1.6,9.3,2.1C7,2.6,4.8,3.7,3.5,5.6
				c-0.6,1-0.9,1-1.3,0.9C2,6.6,2,6.1,2.4,5.3c1.2-2.1,3.3-3.4,5.5-4.1c2.2-0.6,4.4-0.8,6.6-0.8C18.8,0.6,23,0.7,27.3,0.6L27.3,0.6z
				"/>
		</g>
	</g>
</g>
<path class="st3" d="M111.3,43c-0.3,2.1-0.7,4.3-2.2,6c-2.6,3.1-7.4,3.3-11.6,3.3c-8.3,0-16.6,0-24.8,0c-2.4,0-4.9,0-6.9-1.1
	c-4.2-2.3-4-4.3-4.3-12.2c-0.3-7.9,0-21.2-0.2-26.6C61,7.1,62,3.3,65.4,1.7c1.5-0.7,3.3-0.7,5-0.7c9.9,0,19.8,0,29.7,0
	c3.8,0,8.5,0.5,10.1,3.7C111.8,7.8,112.7,33.6,111.3,43z"/>
<path class="st4" d="M110.3,31.6c0.8-1.5,1.1-3.4,0.6-5.6c-2.5-10,2.9-23.1-11.4-25.6C94.4-0.6,89,0.8,83.9,0.7
	c-5.9-0.1-11.5-0.6-17.3,1c-5.4,1.5-6.3,7-4.3,10.8c0,2.8,0.1,5.5,0.3,8.3C62.1,26.1,62,31.5,62.4,37c0,0.4,0.1,0.7,0.2,1
	c-0.1,1.5-0.2,3,0,4.4c-1.5,4.9,2.1,10.3,8.4,9.4c0.2,0.1,0.9,0.2,1.9,0.3c1.3,0.2,2.7,0.4,4,0.4c3.1,0,6.1-0.8,9.3-0.7
	c5.5,0.1,12.4,2.2,17.7,0.4c3.8-1.3,6.5-4.8,6.3-8.8c0-1.3,0.6-2.5,0.4-4.8C111.3,36.7,110.8,33.9,110.3,31.6z"/>
<g>
	<g>
		<g>
			<path class="st2" d="M111,16.4c0-2.8-0.4-5.6-0.8-8.4c-0.1-0.6-0.1-1.2-0.3-1.7c-0.1-0.6-0.2-1.1-0.4-1.5
				c-0.5-0.9-1.3-1.6-2.3-2.1c-2-1-4.4-1.2-6.7-1.2C90.3,1.6,80.1,1.4,69.9,1.3c-1.4,0-2.9,0.1-4.2,0.6c-1.3,0.5-2.4,1.5-3,2.8
				c-0.7,1.2-1,2.7-1.1,4.1c-0.2,1.4-0.1,2.9-0.1,4.3c0.2,5.8,0.2,11.6,0.4,17.5c0.1,3.4,0.1,6.7,0.2,10.1c0,1.7,0,3.4,0.2,5
				c0.1,0.8,0.2,1.6,0.5,2.3c0.3,0.7,0.7,1.3,1.3,1.8c0.9,0.7,1.9,1.3,2.9,1.6c1.1,0.4,2.2,0.5,3.3,0.6c2.3,0.1,4.7,0,7,0
				c4.7,0,9.4-0.1,14.1-0.2c1.7,0,3.3,0,5,0c1.7,0,3.3,0,4.9-0.1c1.6-0.1,3.2-0.4,4.6-1c1.4-0.6,2.6-1.7,3.3-3
				c0.4-0.7,0.6-1.4,0.7-2.2c0.1-1.3,0.6-2,1-2.2c0.5-0.2,0.5,0.7,0.3,1.7c-0.2,1-0.5,2-0.9,3c-0.5,1-1.2,1.8-2,2.5
				c-1.7,1.4-3.8,1.9-5.8,2.2c-2.7,0.4-5.4,0.3-8,0.4l-8,0.1c-5.3,0-10.6,0.1-16,0c-1.4-0.1-2.9-0.2-4.3-0.8
				c-0.7-0.3-1.3-0.7-1.9-1.1c-0.6-0.4-1.2-0.9-1.7-1.5c-1-1.2-1.3-2.8-1.4-4.2c-0.2-1.4-0.2-2.8-0.3-4.2c-0.4-7-0.3-14-0.4-21
				l-0.1-5.5c0-1.8-0.2-3.7,0-5.6c0.2-1.9,0.5-3.9,1.7-5.7c1.2-1.8,3.2-2.9,5.2-3.1c1.4-0.2,2.7-0.1,3.9-0.1l3.8,0l7.6,0.1l15.2,0.1
				c1.8,0,3.6,0,5.5,0.2c1.8,0.2,3.7,0.6,5.4,1.6c0.8,0.5,1.6,1.3,2,2.2c0.4,1,0.5,1.9,0.7,2.8c0.3,1.8,0.4,3.6,0.5,5.4
				c0.3,4.9,0.5,9.7,0.5,14.6c0,4.9,0,9.7-0.7,14.6c-0.2,1.3-0.5,1.3-0.9,1.3c-0.3,0-0.4-0.4-0.3-1.2c0.5-4.2,0.6-8.4,0.6-12.7
				C111.2,24.9,111.2,20.6,111,16.4L111,16.4z"/>
		</g>
	</g>
</g>
<g>
	<path class="st3" d="M25.5,60.2c-3.5-0.4-15.1,0.5-18.5,1.3c-1.7,0.4-3.6,1-4.4,2.6c-0.5,0.9-0.5,2-0.5,3C2,77.8,2,88.5,1.9,99.2
		c0,3.1,0.3,6.9,3,8.5c1.3,0.8,2.8,0.8,4.3,0.9c11.2,0.3,22.4,0.6,33.6,0.9c2.3,0.1,4.9,0.1,6.7-1.4c2.4-1.9,2.6-5.4,2.7-8.5
		c0.1-9.6,0-19.3-0.4-28.9c-0.1-3.2-0.5-6.8-3.1-8.5c-1.4-0.9-3-1.1-4.7-1.2c-9.1-0.7-18.3-0.9-27.5-0.8"/>
	<g>
		<g>
			<path class="st2" d="M17.3,60.6L17.3,60.6c2.8,0.1,5.7,0,8.5,0c6.1,0.1,12.1,0.3,18.1,0.8c1.2,0.1,2.5,0.2,3.6,0.7
				c1.1,0.4,2,1.2,2.5,2.2c1.1,2.1,1.2,4.6,1.3,7.1c0.1,3.4,0.2,6.9,0.2,10.3l0,0l0,0.3l0,0c0.1,1.3,0.1,2.7,0.1,4l0.1,8.4l0,4.2
				c0,1.4,0,2.8-0.2,4.1c-0.2,1.3-0.5,2.7-1.2,3.8c-0.7,1.1-1.8,1.9-3.1,2.2c-1.3,0.3-2.7,0.4-4,0.3l-4.2-0.1
				c-3.6-0.1-7.3-0.2-10.9-0.4l-20.2-0.5l0,0c-0.7-0.1-1.3-0.2-1.9-0.4c-1.3-0.4-2.3-1.5-2.8-2.9c-0.5-1.4-0.6-2.9-0.7-4.5l0-9.5
				c0-4.8,0-9.6,0-14.4l0-8.4c0-1.4-0.1-2.8,0.5-3.8c0.6-1,1.9-1.6,3.2-1.9c1.5-0.4,3.1-0.5,4.6-0.7c1.6-0.2,3.1-0.3,4.7-0.4
				c3.1-0.2,6.3-0.5,9.4-0.5l0,0l0.2,0l0,0c0.7-0.3-0.8-0.6-1.9-0.8c-0.8-0.2-2-0.2-3.5-0.1c-1.2,0.1-2.5,0.2-3.8,0.3
				c-2,0.2-4,0.3-6,0.5c-2,0.2-4.1,0.4-6,1.4C3.1,62.3,2.3,63,1.9,64c-0.4,1-0.4,1.9-0.4,2.8c0,1.8,0,3.5,0,5.3c0,8.4,0,16.7,0,25.1
				c0,2.8-0.2,5.9,1.1,8.7c0.7,1.4,2,2.5,3.5,2.8c1.5,0.4,3,0.3,4.4,0.4c6.4,0.2,12.8,0.3,19.2,0.5c4.9,0.1,9.8,0.4,14.7,0.4
				c1.4,0,2.9-0.2,4.2-0.9c1.3-0.6,2.4-1.9,3-3.2l0,0c0.7-1.8,0.8-3.7,0.9-5.6l0.1-5.5c0-2.9,0-5.9,0.1-8.8l0,0l-0.2-9.3L52.3,72
				c0-1.5-0.1-3.1-0.3-4.7c-0.3-1.5-0.7-3.2-1.8-4.5c-0.5-0.6-1.2-1.2-2-1.5c-0.8-0.4-1.6-0.6-2.4-0.7c-1.6-0.2-3.1-0.3-4.6-0.4
				L36.6,60c-4.8-0.2-9.7-0.3-14.5-0.3c-1.3,0-2.6-0.1-3.9,0.1C15.9,59.9,16.2,60.3,17.3,60.6z"/>
			<path class="st2" d="M51.6,105.8L51.6,105.8C51.6,105.8,51.7,105.8,51.6,105.8L51.6,105.8z"/>
		</g>
	</g>
</g>
<path class="st3" d="M110,70c0.4-3.6,0.5-8-2.1-10c-1.4-1.1-3.2-1.1-4.9-1c-10.7,0.3-23.6-0.3-34.3,0c-0.9,0-1.7,0.1-2.5,0.4
	c-2,1-2.8,3.9-3.3,6.4c-0.8,3.8,0.1,33.8,0.4,39.3c0.1,1,0.1,2,0.6,2.7c0.9,1.5,2.6,1.6,4.1,1.6c10.8,0,23.2,0,34-0.9
	c2.6-0.2,5.5-0.7,7.1-3.1c1.1-1.7,1.3-3.9,1.4-6.1c0.5-9.6,0.7-23.8,0-33.4"/>
<path class="st4" d="M109.9,89.5c-0.5-2.9-0.9-5.9-0.9-8.8c0.6-1.2,0.9-2.5,1.1-3.8c0.4-3.1,1.4-7.2,1.1-10.2
	c-0.5-5.3-5.5-8.3-10.8-7.1c-1.3,0.3-2.4,1.1-3.1,2c-0.7-0.6-1.6-1.1-2.8-1.3c-4-0.8-8.8-0.9-13.4-0.1c-2.2-0.1-4.3-0.2-6.5-0.5
	c-1-0.1-1.8,0-2.5,0.2c-0.8,0.1-1.7,0.1-2.5,0.2c-4.3,0.3-6.1,3.9-5.6,6.9c-0.4,0.6-0.8,1.2-1.1,2c-0.9,2.8,0.9,4.7,1,7.1
	c0.1,1.6-1.2,3.7-1.2,5.4c0,1.2,0.3,2.4,0.6,3.6c0,1.8,0,3.6,0.1,5.3c0,0.2,0,0.4,0,0.6c0,0.2,0,0.4,0,0.7c0,0,0,0,0,0
	c0,0.5,0.1,1,0.2,1.5c0.2,1.2,0.9,2.2,1.7,2.8c-0.1,0.4-0.2,0.8-0.3,1.1c-0.3,1.1-0.2,2.4,0.3,3.6c0,0.6-0.1,1.2-0.1,1.8
	c-0.3,2.8,2.9,5.7,6,5.5c7.8-0.4,15.8-0.5,23.5-1.4c2.8,0,5.7-0.1,8.6-0.4c2.9-0.3,5.7-2.2,6-4.9c1-1,1.7-2.1,2.1-3.4
	C112,95.2,110.4,92.1,109.9,89.5z"/>
<g>
	<g>
		<g>
			<path class="st2" d="M106.9,59.9c-1.4-0.7-3.3-0.5-5.1-0.4c-1.9,0.1-3.8,0.1-5.7,0.1c-3.9,0-8,0-12.1-0.1c-3.4,0-6.8,0-10.2,0
				c-1.7,0-3.4,0.1-5.1,0.1c-0.8,0-1.6,0.1-2.2,0.4c-0.6,0.3-1.1,0.9-1.5,1.5c-0.8,1.4-1.2,3.1-1.5,4.8c-0.2,1.6-0.2,3.4-0.2,5.1
				c0,3.5,0,7,0.1,10.5c0.1,4.4,0.1,8.9,0.3,13.3l0.3,6.9c0.1,1.1,0.1,2.3,0.2,3.4c0.1,1.1,0.3,2.1,1,2.6c1.1,0.8,3,0.6,4.8,0.6
				l5.4,0c3.6,0,7.2,0,10.8-0.1c4.2-0.1,8.4-0.2,12.6-0.5c2.1-0.2,4.2-0.2,6.2-0.6c1-0.2,1.9-0.6,2.6-1.1c0.7-0.6,1.3-1.3,1.7-2.2
				c0.6-1.6,0.7-3.4,0.8-5.3c0.1-1.9,0.2-3.7,0.3-5.6c0.1-3.7,0.2-7.5,0.2-11.2c0-3.9,0-7.9-0.2-11.8c-0.1-1.2-0.2-2.7,0-3.3
				c0.2-0.6,0.5-1.4,0.8-0.9c0.2,0.3,0.3,1.5,0.3,2.5c0.1,3.2,0.2,6.3,0.2,9.5c0,5.2-0.1,10.4-0.3,15.6l-0.3,6.5
				c-0.1,1.1-0.2,2.2-0.5,3.3c-0.3,1.1-0.8,2.2-1.6,3.1c-0.8,0.8-1.7,1.4-2.7,1.7c-1,0.4-2,0.5-3.1,0.7c-2,0.2-4,0.3-6,0.4
				c-5.4,0.2-10.8,0.5-16.2,0.5c-1.1,0-2.3,0-3.4,0c-3.3-0.1-6.7-0.1-10-0.1c-0.8,0-1.7-0.1-2.6-0.5c-0.8-0.4-1.5-1.2-1.7-2
				c-0.3-0.9-0.3-1.7-0.3-2.5l-0.1-2.5c-0.4-8-0.5-16-0.6-24c0-2.2,0-4.5,0-6.7c0-1.1,0-2.2,0.1-3.4c0.1-1.1,0.1-2.3,0.4-3.4
				c0.3-1.1,0.6-2.2,1.1-3.2c0.5-1,1.3-2,2.5-2.5c1.2-0.4,2.3-0.3,3.4-0.4l3.4-0.1c6.3-0.1,12.6,0.1,18.9,0.1c3.7,0,7.4,0,11-0.1
				c0.9,0,1.9,0,2.9,0.1c1,0.2,2,0.6,2.7,1.3c0.8,0.7,1.2,1.6,1.5,2.6c0.3,0.9,0.4,1.9,0.5,2.8c0.1,2.4-0.3,3.9-0.6,4.4
				c-0.4,0.5-0.4-0.1-0.3-1.9c0.1-1.3,0.1-2.7-0.2-4.1C109.3,62.4,108.7,60.7,106.9,59.9z"/>
		</g>
	</g>
</g>
<g>
	<g>
		<g>
			<path class="st2" d="M31.7,31.3c0,0.5,0.1,1.1,0.1,1.6c0,1,0,2.1-0.2,3.3c-0.2,1.1-0.6,2.4-1.4,3.5c-0.1,0.1-0.1,0.3-0.2,0.4l0,0
				c-0.5,0.6-1.2,1.2-2,1.5c-0.8,0.4-1.6,0.5-2.4,0.6c-0.9,0.1-1.9-0.1-2.8-0.4c-0.9-0.3-1.7-0.8-2.4-1.5c-1.3-1.3-2-3-2.1-4.7
				c-0.1-0.5,0-1.4,0.9-1.4c1,0.1,1.6,0.5,1.6,1.1c0.1,0.8,0.3,1.6,0.7,2.2c0.4,0.7,1,1.2,1.7,1.5c1,0.4,2.1,0.4,3.1,0.1
				c0.9-0.3,1.6-1,2-2.1c0.6-1.9,0.5-4.4,0.5-6.9c0-2.3-0.2-4.6-0.2-7c0-2,0.3-4,0.4-6c0-0.5,0.1-1-0.3-1.4l0,0
				c0.4-0.5-0.4-1.2,0.3-1.7l0,0c0-0.2,0.1-0.4,0-0.6c-0.2-0.8,0.2-1,1.3-0.8c0.2,0.1,0.6,0,0.7,0.2l0,0l0,0
				c0.7,0.6,0.4,1.2,0.4,1.9c0.1,3.1,0.1,6.1,0.1,9.2c0,1.9,0,3.8,0.1,5.6C31.6,30.3,31.8,30.8,31.7,31.3L31.7,31.3z"/>
		</g>
	</g>
</g>
<g>
	<g>
		<g>
			<path class="st2" d="M45.6,5.4L45.6,5.4c0.2,0.1,0.4,0.2,0.5,0.3c0.2,0.3,0.3,0.7,0.2,1.1c0,0-0.1,0.1-0.2,0.2
				c-0.3,0.3-0.8,0.6-1.2,0.8c-0.3,0.2-0.7,0.5-1,0.9l0,0l0,0l0,0c-0.1,0.2-0.2,0.4-0.2,0.6c-0.2,0.8,0,1.4,0.3,2.1
				c0.3,0.6,0.8,1.3,1.6,1.5c0.5,0.2,1.2,0,1.5-0.4c0.4-0.3,0.6-0.8,0.7-1.2c0.1-0.5,0-1-0.1-1.4l0,0c0-0.1,0-0.2-0.1-0.3
				c-0.4-0.7-1.1-1.3-1.7-1.6c-0.5-0.2-0.7-0.4-0.9-0.8c-0.2-0.4-0.4-1-0.3-1.4c-0.1-0.2,0.7-0.4,1.3-0.6l0,0l0,0l0,0
				c0.1-0.3-0.1-0.5-0.2-0.7c-0.1-0.1-0.3-0.2-0.4-0.1c-0.1,0.1-0.3,0.1-0.4,0.1c-0.2,0.1-0.5,0.1-0.8,0.4c-0.3,0.3-0.4,0.6-0.4,0.9
				c0,0.5,0.1,0.9,0.3,1.3c0.2,0.5,0.4,0.9,0.9,1.3C45.2,8.9,45.6,9,46,9.3c0.4,0.3,0.8,0.8,0.9,1.3c0.1,0.5-0.1,1.1-0.5,1.4
				c-0.3,0.2-0.7,0.1-1,0c-0.2-0.1-0.4-0.3-0.4-0.6l0,0c-0.2-0.3-0.3-0.6-0.3-1c0-0.3,0-0.6,0.1-0.8l0,0c0-0.5,0.5-0.7,1.2-1
				c0.3-0.2,0.5-0.3,0.8-0.6c0.2-0.2,0.5-0.4,0.6-1c0-0.1,0-0.2,0-0.4c0-0.6-0.2-1.4-0.8-1.8c-0.2-0.1-0.3-0.3-0.5-0.2
				C45.5,4.7,45.6,5.1,45.6,5.4z"/>
			<polygon class="st2" points="44.9,11.4 44.9,11.4 44.9,11.3 			"/>
		</g>
	</g>
</g>
<g>
	<g>
		<g>
			<g>
				<path class="st2" d="M83.2,25.7c-0.1,0.4-0.1,0.7-0.3,1.1c-0.4,1.3-0.9,2.7-1.3,4c0,0.1,0,0.2,0,0.2l0,0
					c-0.3,0.8-0.5,1.6-0.7,2.5c-0.5,1.9-0.9,3.8-1.6,5.7c-0.1,0.3-0.2,0.8-1.2,0.6c-1-0.2-1.5-0.7-1.3-1.2c0.4-1.3,0.9-2.5,1-3.9
					c0.2-1.9,0.9-3.8,1.4-5.6c0.5-1.7,1-3.3,1.6-5c0.5-1.6,0.9-3.2,1.5-4.7c0.5-1.3,1.3-2.5,2-3.8c0.2-0.3,0.3-0.6,0.1-1l0,0
					c0.6-0.2,0-0.9,0.7-1l0,0c0.1-0.1,0.2-0.2,0.2-0.3c0.1-0.6,0.5-0.6,1.4,0.1c0.2,0.1,0.5,0.2,0.6,0.4l0,0l0,0
					c0.5,0.7,0,0.9-0.2,1.3c-0.8,1.9-1.6,3.9-2.4,5.9c-0.5,1.2-0.9,2.4-1.3,3.7C83.4,25,83.4,25.4,83.2,25.7L83.2,25.7z"/>
			</g>
		</g>
	</g>
	<g>
		<g>
			<g>
				<path class="st2" d="M92.5,25c0.2,0.3,0.4,0.6,0.5,1l1.7,3.9c0,0.1,0.1,0.1,0.2,0.2l0,0c0.3,0.8,0.7,1.6,1,2.4
					c0.8,1.8,1.6,3.6,2.2,5.6c0.1,0.3,0.3,0.8-0.6,1.2c-0.9,0.4-1.6,0.3-1.8-0.2c-0.4-1.2-0.8-2.5-1.5-3.6c-1-1.6-1.7-3.4-2.5-5.1
					c-0.7-1.5-1.4-3.1-2.1-4.7c-0.7-1.4-1.6-2.8-2.2-4.3c-0.6-1.3-0.9-2.6-1.4-4c-0.1-0.3-0.2-0.7-0.7-0.9l0,0
					c0.3-0.5-0.6-0.9,0-1.5l0,0c0-0.2,0.1-0.3,0-0.5c-0.1-0.4,0-0.6,0.2-0.7c0.2-0.1,0.6,0,1.1,0.1c0.2,0.1,0.6,0.1,0.7,0.2l0,0l0,0
					c0.7,0.3,0.4,0.6,0.5,1c0.2,0.8,0.7,1.7,1.1,2.7l1.3,2.9c0.5,1.2,1,2.4,1.7,3.5C92.1,24.3,92.4,24.6,92.5,25L92.5,25z"/>
			</g>
		</g>
	</g>
	<g>
		<g>
			<g>
				<path class="st2" d="M86.5,26.4c0.1,0,0.3-0.1,0.4-0.1l1.5,0c0,0,0-0.1,0.1-0.1l0,0c0.3,0,0.6,0,0.9,0c0.7-0.1,1.3-0.2,2.1,0.1
					c0.1,0,0.3,0,0.4,1c0.1,1,0.1,1.6-0.1,1.6c-0.5,0-1-0.2-1.4,0c-0.7,0.3-1.4,0.2-2.1,0.3c-0.6,0.1-1.2,0.1-1.9,0.1
					c-0.6,0.1-1.2,0.3-1.8,0.3c-0.5,0-1-0.3-1.5-0.4c-0.1,0-0.2-0.1-0.4,0.3l0,0c-0.1-0.4-0.3,0.4-0.4-0.3l0,0c0,0-0.1-0.1-0.1-0.1
					c-0.2,0.1-0.2-0.2-0.1-1.3c0-0.2,0-0.6,0.1-0.7l0,0v0c0.2-0.7,0.3-0.4,0.5-0.4c0.7,0,1.5,0,2.2,0c0.4,0,0.9,0,1.3-0.1
					C86.2,26.4,86.4,26.3,86.5,26.4L86.5,26.4z"/>
			</g>
		</g>
	</g>
</g>
<g>
	<g>
		<g>
			<g>
				<path class="st2" d="M87.5,81C87.5,81,87.5,80.9,87.5,81L87.5,81c0.1-0.1,0.1-0.1,0.1-0.1l1.3-1.9c0-0.1,0-0.2,0.1-0.3l0,0
					c0.5-0.8,1.1-1.6,1.6-2.4c1.2-1.9,2.3-3.8,3.6-5.6c0.2-0.3,0.5-0.8,1.3-0.3c0.9,0.5,1.2,1.1,0.9,1.6c-0.8,1.3-1.7,2.5-2.4,3.9
					c-0.9,2-2.2,3.8-3.3,5.6l-3,4.8c-0.8-1.1-1.5-2.2-2.3-3.3c-0.3-0.4-0.4-0.5-0.5-0.7l-0.4-0.5l-0.9-1c-0.6-0.7-1.2-1.4-1.7-2.1
					c-0.9-1.3-1.7-2.7-2.5-4.1c-0.2-0.3-0.4-0.7-0.9-0.8l0,0c0.1-0.6-0.8-0.6-0.5-1.3l0,0c-0.1-0.1-0.1-0.3-0.2-0.4
					c-0.5-0.5-0.3-0.8,0.8-1.2c0.2-0.1,0.5-0.3,0.7-0.2l0,0l0,0c0.9,0,0.8,0.6,1.1,1c1.3,2,2.7,3.9,4.1,5.8c0.9,1.2,1.7,2.4,2.7,3.5
					l0.1,0.1C87.4,81,87.4,80.9,87.5,81C87.4,80.9,87.5,80.9,87.5,81C87.5,80.9,87.5,80.9,87.5,81L87.5,81z"/>
			</g>
		</g>
	</g>
	<g>
		<g>
			<g>
				<path class="st2" d="M86.1,90.9c0-0.2-0.1-0.4-0.1-0.5c0-0.7,0-1.4,0.1-2c0,0-0.1-0.1-0.1-0.1l0,0c0-0.4,0-0.8,0-1.2
					c0-0.9,0-1.9,0.3-2.8c0-0.1,0.1-0.4,1-0.4c1,0,1.6,0.2,1.5,0.4c-0.1,0.6-0.3,1.2-0.1,1.9c0.3,0.9,0.1,1.8,0.2,2.7
					c0,0.8,0,1.6,0.1,2.4c0.1,0.8,0.3,1.5,0.3,2.3c0,0.7-0.3,1.3-0.3,2c0,0.2-0.1,0.3,0.3,0.5l0,0c-0.4,0.2,0.4,0.4-0.3,0.6l0,0
					c0,0.1-0.1,0.1,0,0.2c0.2,0.3-0.2,0.3-1.3,0.3c-0.2,0-0.6,0-0.7-0.1c0,0,0,0,0,0l0,0c-0.7-0.2-0.4-0.4-0.4-0.6
					c-0.1-1-0.1-2-0.1-3c0-0.6,0-1.2-0.1-1.9C86.2,91.2,86.1,91,86.1,90.9L86.1,90.9z"/>
			</g>
		</g>
	</g>
</g>
<g>
	<g>
		<g>
			<g>
				<path class="st2" d="M44.1,70.8c-0.3,0-0.6,0-0.9,0c-0.2,0-0.4,0-0.5,0c-0.2,0,0-0.1,0-0.2c0-0.1,0.1-0.2,0.1-0.2
					c0.1-0.2,0.2-0.5,0.3-0.8c0.1-0.1,0.1-0.2,0.1-0.4c0-0.2,0.1-0.4,0.2-0.5c0-0.1,0.1-0.2,0.1-0.3c0.1-0.2,0.2-0.3,0.2-0.5
					c0-0.2,0.2-0.3,0.3-0.5c0.1-0.2,0.2-0.4,0.3-0.5c0.2-0.3,0.3-0.5,0.4-0.8c0.1-0.3,0.2-0.5,0.4-0.8c0.1-0.1,0.2-0.3,0.3-0.5
					c0.1-0.1,0.2-0.3,0.4-0.5c0.1-0.1,0.3-0.1,0.5,0.1c0.1,0.1,0.3,0.1,0.4,0.2c0.1,0.1,0.1,0.1,0.1,0.2c-0.3,0.5-0.6,1.1-0.8,1.6
					c-0.2,0.4-0.4,0.7-0.5,1.1c-0.2,0.4-0.3,0.7-0.5,1.1l-0.2,0.4l-0.1,0.2c0,0,0,0,0,0c0,0,0,0,0,0c0,0,0,0,0,0l0,0l0.4,0
					c0.5,0,0.9-0.1,1.4-0.1c0.2,0,0.4,0,0.7,0c0.2,0,0.4,0,0.7,0c0.2,0,0.2,0,0.2,0.4c0,0.2,0,0.4,0,0.5c0,0.1,0,0.2-0.1,0.2l-0.5,0
					c-0.4,0-0.7,0-1.1,0.1c-0.1,0-0.3,0-0.4,0c-0.4,0-0.8,0.1-1.2,0.1L44.1,70.8z"/>
			</g>
		</g>
	</g>
	<g>
		<g>
			<g>
				<path class="st2" d="M45.6,71c0-0.1,0.1-0.3,0-0.4c0-0.2,0-0.3,0-0.5c0-0.1,0-0.3,0-0.4c0-0.1,0-0.1,0-0.2c-0.1-0.2,0-0.3,0-0.5
					c0-0.2,0-0.3,0-0.5c0-0.1,0-0.3,0-0.4c0-0.2,0-0.3,0-0.5c0-0.2,0-0.5,0-0.7c0-0.2-0.1-0.5,0-0.7c0-0.1,0-0.3,0-0.4
					c0-0.2,0-0.3,0.1-0.5c0-0.1,0.2-0.2,0.5-0.2c0.2,0,0.3,0,0.5,0c0.1,0,0.2,0,0.2,0.1c0,0.5,0.1,1,0.1,1.5c0,0.3,0,0.7,0.1,1
					c0,0.3,0,0.7,0.1,1c0,0.2,0,0.5,0,0.7c0,0.3,0,0.5,0,0.8c0,0.5,0,1-0.1,1.5c0,0.4,0,0.8,0,1.1c0,0.2,0,0.4,0,0.5
					c0,0.2,0,0.4,0,0.5c0,0.1-0.1,0.2-0.4,0.2c-0.2,0-0.4,0-0.5,0c-0.1,0-0.2,0-0.2-0.1c0-0.1,0-0.3,0-0.4c0-0.3,0.1-0.6,0-0.9
					c0-0.1,0-0.2,0-0.4c0-0.3,0-0.6,0-1C45.6,71.2,45.6,71.1,45.6,71z"/>
			</g>
		</g>
	</g>
</g>
<g>
	<g>
		<g>
			<path class="st2" d="M25.3,74.7c0.1-0.3,0.2-0.6,0.3-0.9l0.1-0.4c0-0.1,0.1-0.2,0.2-0.2c0.2-0.3,0.5-0.3,0.6-0.4l0.5-0.2l0.1-0.1
				l0,0l0,0c0-0.1,0,0,0,0l0,0l0.1,0l0.2,0.1l0.5,0.3c0.2,0.1,0.4,0.2,0.6,0.4c0.2,0.5,0.4,1.1,0.5,1.7l0.5,1.9l1.2,4.9
				c0.6,2.5,1.2,5,1.9,7.5c0.1,0.3,0.2,0.5,0.3,0.7l0,0l0.6,2.2l0.2,0.6c0,0.1,0,0,0,0.1l0,0c0,0,0,0.1,0,0l0-0.1l0.4-2.4l0.9-5.3
				c0.6-3.6,1.1-7.1,1.7-10.7c0.2-1.1,0.4-3,1.3-2.9c1,0.1,1.4,1.5,1.2,3.5c-0.7,4.8-1.5,9.5-2.1,14.2c-0.1,0.9-0.2,1.7-0.4,2.6
				l-0.2,1.3L36.5,94l-0.2,1.1c-0.2,0.7-0.4,1.5-0.6,2.1c-0.2,0.6-0.5,1-0.8,1.2c-0.1,0.1-0.3,0.2-0.4,0.3c-0.1,0-0.2,0.1-0.3,0.1
				c-0.1,0.1-0.3,0-0.3,0c-0.3-0.2-0.6-0.2-0.9-0.5c-0.6-0.6-1.1-2.2-1.6-3.7l-0.5-1.7l-0.4-1.3l-1.4-5.1L27.9,82l-0.7-2.7l-0.1-0.4
				c0,0,0-0.2-0.1-0.2c0,0.1,0,0.1-0.1,0.2l-0.3,1l-2.2,8.5c-0.4,1.4-0.8,2.8-1.2,4.3L23,93.9c-0.2,0.7-0.5,1.4-0.7,2.1
				c-0.3,0.7-0.5,1.3-0.8,1.8c-0.3,0.5-0.6,0.8-0.9,0.9c-0.3,0.1-0.4,0.1-0.7,0.2c-0.4-0.1-0.6-0.2-0.9-0.3c-0.5,0-0.9-0.8-1.3-1.9
				c-0.2-0.5-0.3-1.1-0.4-1.7L17,93.2l-0.3-1.9l-1-7.5c-0.2-1.2-0.3-2.4-0.8-3.5l0,0c0.2-1.4-0.8-2.9-0.4-4.3l0,0
				c-0.1-0.5-0.1-0.9-0.2-1.4c-0.5-2-0.3-2.6,0.9-2.1c0.3,0.1,0.5-0.1,0.8,0.3l0,0l0,0c1,1.3,0.9,3,1.2,4.6L19,88.9l0.5,2.8l0.2,1.1
				l0.1,0.3c0,0.1,0.1,0.2,0.1,0.3c0,0.1,0.1,0.2,0.2,0.2c0.1-0.2,0.2-0.4,0.2-0.6l0.7-2.3l1-3.4c0.6-2.3,1.3-4.6,1.8-6.9l0.2-0.9
				l0.1-0.5l0.2-0.8C24.6,77.1,25,75.8,25.3,74.7L25.3,74.7z"/>
		</g>
	</g>
</g>
<g>
	<g>
		<g>
			<g>
				<path class="st2" d="M103.2,68.9c-0.3,0-0.6,0-0.9,0c-0.2,0-0.4,0-0.5,0c-0.2,0,0-0.1,0-0.2c0-0.1,0.1-0.2,0.1-0.2
					c0.1-0.2,0.2-0.5,0.3-0.8c0.1-0.1,0.1-0.2,0.1-0.4c0-0.2,0.1-0.4,0.2-0.5c0-0.1,0.1-0.2,0.1-0.3c0.1-0.2,0.2-0.3,0.2-0.5
					c0-0.2,0.2-0.3,0.3-0.5c0.1-0.2,0.2-0.4,0.3-0.5c0.2-0.3,0.3-0.5,0.4-0.8c0.1-0.3,0.2-0.5,0.4-0.8c0.1-0.1,0.2-0.3,0.3-0.5
					c0.1-0.1,0.2-0.3,0.4-0.5c0.1-0.1,0.3-0.1,0.5,0.1c0.1,0.1,0.3,0.1,0.4,0.2c0.1,0.1,0.1,0.1,0.1,0.2c-0.3,0.5-0.6,1.1-0.8,1.6
					c-0.2,0.4-0.4,0.7-0.5,1.1c-0.2,0.4-0.3,0.7-0.5,1.1l-0.2,0.4l-0.1,0.2c0,0,0,0,0,0c0,0,0,0,0,0c0,0,0,0,0,0l0,0l0.4,0
					c0.5,0,0.9-0.1,1.4-0.1c0.2,0,0.4,0,0.7,0c0.2,0,0.4,0,0.7,0c0.2,0,0.2,0,0.2,0.4c0,0.2,0,0.4,0,0.5c0,0.1,0,0.2-0.1,0.2l-0.5,0
					c-0.4,0-0.7,0-1.1,0.1c-0.1,0-0.3,0-0.4,0c-0.4,0-0.8,0.1-1.2,0.1L103.2,68.9z"/>
			</g>
		</g>
	</g>
	<g>
		<g>
			<g>
				<path class="st2" d="M104.7,69c0-0.1,0.1-0.3,0-0.4c0-0.2,0-0.3,0-0.5c0-0.1,0-0.3,0-0.4c0-0.1,0-0.1,0-0.2
					c-0.1-0.2,0-0.3,0-0.5c0-0.2,0-0.3,0-0.5c0-0.1,0-0.3,0-0.4c0-0.2,0-0.3,0-0.5c0-0.2,0-0.5,0-0.7c0-0.2-0.1-0.5,0-0.7
					c0-0.1,0-0.3,0-0.4c0-0.2,0-0.3,0.1-0.5c0-0.1,0.2-0.2,0.5-0.2c0.2,0,0.3,0,0.5,0c0.1,0,0.2,0,0.2,0.1c0,0.5,0.1,1,0.1,1.5
					c0,0.3,0,0.7,0.1,1c0,0.3,0,0.7,0.1,1c0,0.2,0,0.5,0,0.7c0,0.3,0,0.5,0,0.8c0,0.5,0,1-0.1,1.5c0,0.4,0,0.8,0,1.1
					c0,0.2,0,0.4,0,0.5c0,0.2,0,0.4,0,0.5c0,0.1-0.1,0.2-0.4,0.2c-0.2,0-0.4,0-0.5,0c-0.1,0-0.2,0-0.2-0.1c0-0.1,0-0.3,0-0.4
					c0-0.3,0.1-0.6,0-0.9c0-0.1,0-0.2,0-0.4c0-0.3,0-0.6,0-1C104.7,69.2,104.7,69.1,104.7,69z"/>
			</g>
		</g>
	</g>
</g>
<g>
	<g>
		<g>
			<path class="st2" d="M105.7,9.3C105.7,9.3,105.7,9.3,105.7,9.3L105.7,9.3z"/>
			<path class="st2" d="M105.7,12.6c0.1,0,0.2-0.1,0.1-0.2c0,0,0-0.1,0-0.1c-0.1-0.2,0-0.5,0-0.7l0-0.8c0-0.4,0-0.7,0-1.1
				c0-0.1,0-0.3,0-0.4l0,0l0,0l0,0l0,0l0,0c0.1,0,0-0.1,0-0.1l0-0.4c0-0.1-0.1-0.3,0-0.4c0.1-0.1-0.1-0.3,0-0.4c0-0.3,0-0.6,0-0.9
				c0-0.1,0-0.3,0-0.4c0-0.2,0-0.2,0-0.6c0-0.3,0-0.6,0-0.9c0-0.4,0-0.8,0-1.1l0-0.2c-0.4,0.5-0.8,0.9-1.2,1.3l-0.5,0.6
				c-0.1,0.1-0.2,0.2-0.3,0.4c-0.1,0.1-0.2,0.2-0.4,0.3c-0.1,0,0,0.1,0,0.1l0,0c0.4,0.4,0.7,0.5,0.9,0.1c0.1-0.1,0.2-0.2,0.3-0.3
				l0.1-0.1l0,0c0,0,0-0.1,0.1-0.1c0,0,0.1-0.2,0.1-0.1l0,0c0,0.1,0,0.1,0,0.1c0-0.1,0,0,0,0c0,0.2,0,0.1,0,0.6c0,0.3,0,0.5,0,0.8
				c0,0,0,0.1,0,0.1c0,0.2,0,0.3,0,0.5c0,0.4-0.1,0.8,0,1.1c0,0.1,0,0.3,0,0.4c0,0.1-0.1,0.1-0.1,0.2c0.1,0.1,0,0.2,0,0.3
				c0,0.2,0,0.4,0,0.6c0,0.2,0,0.4,0,0.6c0,0.4,0,0.7,0,1.1c0,0.1,0,0.1,0.1,0.1C105.1,12.7,105.4,12.6,105.7,12.6z"/>
		</g>
	</g>
</g>
</svg>
