<?xml version="1.0" encoding="utf-8"?>
<!-- Generator: Adobe Illustrator 24.2.1, SVG Export Plug-In . SVG Version: 6.00 Build 0)  -->
<svg version="1.1" id="Layer_1" xmlns="http://www.w3.org/2000/svg" xmlns:xlink="http://www.w3.org/1999/xlink" x="0px" y="0px"
	 viewBox="0 0 106.9 70.1" style="enable-background:new 0 0 106.9 70.1;" xml:space="preserve">
<style type="text/css">
	.st0{opacity:0.25;fill:#3B6B7C;}
	.st1{opacity:0.25;}
	.st2{fill:#3B6B7C;}
	.st3{fill:#221F1F;}
	.st4{fill:#FFFFFF;}
	.st5{fill:#E9E8E7;}
</style>
<polygon class="st0" points="35.6,61.4 22.6,70.1 22.6,51.3 "/>
<g class="st1">
	<path class="st2" d="M66,11.2c-1-0.2-2-0.2-3-0.2c-2.2,0-4.3,0.3-6.3,1.2c-0.9,0.4-1.7,1-2.5,1.5c-0.8,0.6-1.7,1.2-2.3,2
		c-1.8,2.3-1.9,5.5-1.7,8.5c0.2,2.2,0.5,4.5,1.6,6.5c1.1,2,3,3.5,3.9,5.7c0.9,2,0.8,4.3,0.6,6.4l-0.1,0c3.5,1.2,7.3,1.3,10.8,0.1
		c0.2-0.1,0.5-0.2,0.6-0.3C68,42.4,68,42,68,41.6c0.2-2.6,0.5-5.2,1.5-7.5c0.8-1.8,2-3.5,2.8-5.3c1.6-3.2,2.1-7.1,1.1-10.5
		C72.4,14.8,69.5,11.9,66,11.2z"/>
	<path class="st2" d="M77.2,33.9c0.5,0.3,1,0.4,1.6,0.6l-3.1-1.7C76.2,33.2,76.7,33.6,77.2,33.9z"/>
	<path class="st2" d="M75.7,32.9c-0.3-0.2-0.6-0.4-0.9-0.5L75.7,32.9z"/>
	<path class="st2" d="M78.8,34.6l1.5,0.8C79.9,35,79.3,34.8,78.8,34.6z"/>
	<path class="st2" d="M77.7,25.6l7.1,1.1C82.5,25.7,80.1,25.3,77.7,25.6z"/>
	<path class="st2" d="M83.1,14.9c-1.6,0.4-3.2,1.1-4.8,1.8c-0.4,0.2-0.9,0.4-1.3,0.6L83.1,14.9z"/>
	<path class="st2" d="M78.1,5l-5.4,4.8C74.6,8.4,76.4,6.8,78.1,5z"/>
	<path class="st2" d="M66.3,6.9l1-5.9C66.6,2.8,66.2,4.9,66.3,6.9z"/>
	<path class="st2" d="M54.7,1.6l0.6,5.5C55.3,5.3,55.1,3.4,54.7,1.6z"/>
	<path class="st2" d="M43.7,6l5.2,5.1C47.3,9.3,45.6,7.6,43.7,6z"/>
	<path class="st2" d="M44.9,17.9L38.9,16C40.9,16.8,42.9,17.4,44.9,17.9z"/>
	<path class="st2" d="M38.6,27.7l7.1-1.3C43.3,26.7,40.9,27.1,38.6,27.7z"/>
	<path class="st2" d="M48.4,33.7l-1.8,1.4C47.3,34.7,47.9,34.3,48.4,33.7z"/>
	<path class="st2" d="M43.6,37.4l3-2.3C45.4,35.7,44.2,36.2,43.6,37.4z"/>
</g>
<g>
	<g>
		<g>
			<path class="st3" d="M59.4,55.7c1,0,2,0,2.9,0c2.9-0.1,5.8,0,8.7,0c3.1,0,6.1,0,9.2,0c2.3,0,4.6,0,6.9,0.2c0.5,0,0.9,0,1.4,0
				c0.2,0,0.4,0,0.5,0.1c0.1,0.4,0.3,0.8,0.1,1.2c-0.1,0.2-0.3,0.2-0.6,0.2c-2.5,0-5-0.1-7.6-0.1c-1.2,0-2.3-0.1-3.5-0.1
				c-2.1,0.1-4.2,0-6.2,0c-3.3,0-6.6,0.2-9.9,0.1c-2.2,0-4.4-0.1-6.6-0.1c-1.6,0-3.2,0.1-4.8,0.1c-2.5,0-4.9,0-7.4,0.1
				c-2.3,0-4.5,0-6.8,0c-2.2-0.1-4.5-0.1-6.7,0.1c-0.3,0-0.5-0.1-0.8,0c0,0,0,0,0,0c-0.1,0-0.1,0-0.2,0c0,0,0,0,0,0
				c-0.9-0.1-1.8,0-2.7,0c-1.8,0-3.7,0.1-5.6,0c-0.9-0.1-1.9-0.1-2.9,0c-0.8,0-1.7-0.1-2.5,0c-0.9,0.2-0.9-0.2-1.1-0.4
				c-0.1-0.1,0-0.2,0.1-0.3c0.2-0.3,0.6-0.5,0.5-0.8c-0.1-0.2,0.4-0.2,0.7-0.2c4.4-0.2,8.8-0.1,13.2-0.1c3,0,6-0.1,9-0.1
				c2.9,0,5.9,0.1,8.8,0c1.7,0,3.5,0,5.2,0c1.8,0.1,3.6,0.1,5.4,0.1C57.1,55.8,58.3,55.8,59.4,55.7L59.4,55.7z"/>
		</g>
	</g>
</g>
<g>
	<g>
		<g>
			<path class="st3" d="M34.9,59.5c0,0.2,0,0.5,0,0.7c0.1,0.7,0,1.4,0,2.2c0,0.8,0.1,1.5,0,2.3c0,0.6,0,1.1-0.1,1.7
				c0,0.1,0,0.2,0,0.3c0,0,0,0.1-0.1,0.1c-0.4,0-0.8,0.1-1.2,0.1c-0.2,0-0.2-0.1-0.2-0.1c0-0.6,0.1-1.3,0.1-1.9
				c0-0.3,0.1-0.6,0.1-0.9c-0.1-0.5,0-1-0.1-1.6c0-0.8-0.2-1.6-0.2-2.5c0-0.6,0.1-1.1,0-1.7c0-0.4-0.1-0.8-0.1-1.2
				c0-0.6-0.1-1.2-0.1-1.8c0-0.6-0.1-1.1,0-1.7c0.1-0.6,0.1-1.1-0.1-1.7c0-0.1,0.1-0.1,0-0.2l0,0c0,0,0,0,0,0l0,0
				c0.1-0.2,0-0.4-0.1-0.7c0-0.5-0.1-0.9,0-1.4c0.1-0.2,0.1-0.5,0-0.7c-0.1-0.2,0.1-0.4-0.1-0.6c-0.2-0.2,0.2-0.2,0.4-0.3
				c0.1,0,0.2,0,0.3,0c0.3,0,0.5,0.1,0.8,0.1c0.2,0,0.2,0.1,0.2,0.2c0.2,1.1,0.2,2.2,0.2,3.3c0,0.7,0.1,1.5,0.1,2.2
				c0,0.7-0.1,1.5,0,2.2c0.1,0.4,0.1,0.9,0,1.3c0,0.4,0,0.9-0.1,1.3C34.8,59,34.8,59.3,34.9,59.5L34.9,59.5z"/>
		</g>
	</g>
</g>
<g>
	<polygon class="st4" points="34.6,57.2 21.5,65.9 21.6,47.1 	"/>
	<g>
		<g>
			<path class="st3" d="M24.9,62.8c1.8-1,3.3-2.4,5.2-3.3c0.6-0.3,1.5-0.9,2-1.5c0.3-0.3,1.8-1.1,2.2-1.1c0.4,0,0,0.3-0.2,0.6l0,0
				l0,0c-0.5,0.9-1.3,1.8-3,2.8c-0.9,0.6-1.7,1.3-2.7,1.9c-0.7,0.4-1.4,0.9-2.2,1.3c-0.1,0-0.2,0.1-0.2,0.1
				c-0.7,0.7-1.7,1.2-2.5,1.8c-0.2,0.1-0.3,0.2-0.5,0.4c-0.3,0.2-0.6,0.4-0.8,0.6c-0.5,0.3-0.9,0.6-1.3,0.9c0-0.4,0-0.8-0.1-1.2
				c0-0.3,0-0.7-0.1-1c0-0.2,0-0.4,0-0.5l0-0.3c0-0.4,0.1-0.7,0.2-1c0.1-0.2,0.1-0.9,0.1-1.4c-0.1-0.7-0.1-1.4,0-2
				c0-0.1,0-0.2,0-0.2c-0.2-1.4,0.1-3,0-4.3c-0.2-1.6,0-2.8,0.1-4.3c0-0.4,0-0.9,0-1.3c0-0.2,0-0.5,0-0.7l0-0.5l0-0.6
				c0-0.5,0-1.2,0-1.8l0-0.1c0.2,0.1,0.4,0.3,0.5,0.4c0.5,0.3,1.2,0.8,1.8,1.2c0.4,0.3,0.7,0.6,1.1,0.9l0,0l0,0
				c0.7,0.3,1.2,0.8,1.8,1.4l0,0c0,0.1-0.1,0.1,0.1,0.2c0.7,0.5,1.4,1.2,2.1,1.7c0.1,0.1,0.3,0.2,0.4,0.2c0.7,0.3,1.4,0.8,1.9,1.5
				c0,0,0.1,0.1,0.1,0.1c0.7,0.2,1.4,1,2.1,1.4c0.8,0.4,2,1.9,1.8,2c0,0-0.3-0.1-0.4-0.1l0,0c-1-0.4-2.1-1-3.3-1.8
				c-1-0.7-1.8-1.5-2.7-2.1c-0.8-0.5-1.6-1.1-2.3-1.7c-0.9-0.7-2-1.3-2.8-2.2c-0.1-0.1-0.3-0.2-0.4-0.4l-0.2-0.2l-0.1,0
				c-0.1,0-0.1-0.1-0.2-0.1l0,0c0,0.1,0,0.1,0,0.2l0,0l0,0l0,0.1l0,0.6c0,0.8,0,1.6-0.1,2.4c-0.1,0.6-0.1,1.5,0.1,2.1l0,0
				c-0.1,0.9,0.1,1.8,0,2.8c-0.1,1.6,0,3.2-0.2,4.8c0,0.2,0,0.5,0,0.7c0.1,0.6,0.1,1.1,0,1.7c0,0.2-0.1,0.5-0.1,0.7
				c0,0.1,0,0.2,0.1,0.2l0,0c0.1-0.2,0.1-0.2,0.2-0.1c0,0,0.2-0.1,0.2-0.1C23.2,63.8,24.2,63.4,24.9,62.8L24.9,62.8z"/>
		</g>
	</g>
</g>
<g>
	<g>
		<g>
			<path class="st3" d="M9.7,42.3c0,0.2,0,0.4,0,0.6c0.1,0.6,0,1.1,0,1.7c0,0.6,0,1.2,0,1.8c0,0.4,0,0.9-0.2,1.3c0,0.1,0,0.2,0,0.3
				c0,0,0,0.1-0.1,0.1c-0.4,0-0.8,0.1-1.2,0C8,48,7.9,48,7.9,47.9C8,47.4,8,47,8.1,46.5c0-0.2,0.1-0.4,0.1-0.7c-0.1-0.4,0-0.8,0-1.2
				c0-0.6-0.1-1.3-0.1-1.9c0-0.4,0.1-0.9,0.1-1.3c0-0.3-0.1-0.6-0.1-0.9c0-0.5,0-1-0.1-1.4c0-0.4,0-0.9,0.1-1.3
				c0.1-0.4,0.1-0.9-0.1-1.3c0-0.1,0.1-0.1,0-0.2l0,0c0,0,0,0,0,0l0,0c0.1-0.2,0-0.3,0-0.5c0-0.4-0.1-0.7,0-1.1
				c0.1-0.2,0.1-0.4,0-0.6c0-0.2,0.1-0.3,0-0.5c-0.2-0.2,0.2-0.2,0.4-0.2c0.1,0,0.2,0,0.3,0c0.3,0,0.4,0.1,0.8,0.1
				c0.2,0,0.2,0.1,0.2,0.1c0.2,0.8,0.1,1.7,0.1,2.6c0,0.6,0.1,1.2,0,1.7c0,0.6-0.1,1.1,0,1.7c0,0.3,0,0.7,0,1
				c-0.1,0.3-0.1,0.7-0.1,1C9.6,41.9,9.6,42.1,9.7,42.3L9.7,42.3z"/>
		</g>
	</g>
</g>
<g>
	<g>
		<g>
			<path class="st3" d="M10.4,39.8c0.2,0,0.4,0,0.7,0c0.7-0.1,1.3,0,2,0c0.7,0,1.4,0,2.1,0.1c0.5,0,1,0.1,1.6,0.2c0.1,0,0.2,0,0.3,0
				c0,0,0.1,0,0.1,0.1c0,0.4,0,0.8,0,1.2c0,0.2-0.1,0.2-0.1,0.2c-0.6-0.1-1.1-0.1-1.7-0.2c-0.3,0-0.5-0.2-0.8-0.1
				c-0.5,0-0.9,0-1.4,0c-0.7,0-1.5,0.1-2.2,0.1c-0.5,0-1-0.1-1.5-0.1c-0.4,0-0.7,0.1-1.1,0.1c-0.6,0-1.1,0.1-1.7,0.1
				c-0.5,0-1,0-1.5,0c-0.5-0.1-1-0.1-1.5,0.1c-0.1,0-0.1-0.1-0.2,0l0,0l0,0l0,0c-0.2-0.1-0.4,0.1-0.6,0.1c-0.4,0-0.8,0.2-1.3,0
				c-0.2-0.1-0.4-0.1-0.6,0c-0.2,0.1-0.4-0.1-0.6,0.1c-0.2,0.2-0.2-0.2-0.3-0.4c0-0.1,0-0.2,0-0.3c0-0.3,0.1-0.5,0.1-0.8
				c0-0.2,0.1-0.2,0.1-0.2c1-0.3,2-0.2,3-0.3c0.7,0,1.4-0.1,2-0.1c0.7,0,1.3,0.1,2,0c0.4-0.1,0.8,0,1.2,0c0.4,0.1,0.8,0.1,1.2,0.1
				C9.9,39.9,10.2,39.9,10.4,39.8L10.4,39.8z"/>
		</g>
	</g>
</g>
<g>
	<g>
		<g>
			<path class="st3" d="M100.6,40.2c0.2,0,0.4,0,0.6,0c0.6-0.1,1.2,0,1.8,0c0.7,0,1.3,0,2,0c0.5,0,1,0,1.5,0.2c0.1,0,0.2,0,0.3,0
				c0,0,0.1,0,0.1,0.1c0,0.4,0.1,0.8,0,1.2c0,0.2-0.1,0.2-0.1,0.2c-0.5-0.1-1.1-0.1-1.6-0.2c-0.2,0-0.5-0.1-0.7-0.1
				c-0.4,0.1-0.9,0-1.3,0c-0.7,0-1.4,0.1-2.1,0.1c-0.5,0-0.9-0.1-1.4-0.1c-0.3,0-0.7,0.1-1,0.1c-0.5,0-1,0-1.6,0.1
				c-0.5,0-1,0-1.4-0.1c-0.5-0.1-1-0.1-1.4,0.1c-0.1,0-0.1-0.1-0.2,0l0,0c0,0,0,0,0,0l0,0c-0.2-0.1-0.4,0-0.6,0
				c-0.4,0-0.8,0.1-1.2,0c-0.2-0.1-0.4-0.1-0.6,0c-0.2,0-0.4-0.1-0.5,0c-0.2,0.2-0.2-0.2-0.2-0.4c0-0.1,0-0.2,0-0.3
				c0-0.3,0.1-0.4,0.1-0.8c0-0.2,0.1-0.2,0.1-0.2c0.9-0.2,1.9-0.1,2.8-0.1c0.6,0,1.3-0.1,1.9,0c0.6,0,1.2,0.1,1.9,0
				c0.4,0,0.7,0,1.1,0c0.4,0.1,0.8,0.1,1.1,0.1C100.1,40.3,100.4,40.3,100.6,40.2L100.6,40.2z"/>
		</g>
	</g>
</g>
<path class="st5" d="M65.3,12.8c-4.1-2.3-10.3-0.5-13.6,2.5c-4.3,3.9-2.6,9.7-1,14.5c0.4,1.1,1,1.9,1.8,2.4c0.1,0.8,0.3,1.6,0.6,2.3
	c0,0,0.3,0.6,0.5,1c0,0.5,0.1,1.9,0.1,2c0.2,2.9,3,4.7,5.4,4.7c0.2,0.1,0.3,0.1,0.5,0.1c1.6,0.3,3.5,0.1,4.6-1.2
	c1.6-2,1.9-4.1,2.3-6.6c0.5-2.9,1.4-5.1,2.6-7.7C71.4,22,70.3,15.7,65.3,12.8z"/>
<g>
	<g>
		<g>
			<g>
				<polygon points="69.9,13.8 69.9,13.8 69.9,13.8 				"/>
				<polygon points="64.6,9.9 64.6,9.9 64.6,9.9 				"/>
				<path d="M54,41.4c0-0.2,0.2-0.2,0.9,0c1.8,0.5,3.7,0.9,5.7,0.7l0,0l0.1,0l0,0c1.3-0.1,2.5-0.4,3.7-0.7c0.3-0.1,0.4-0.2,0.4-0.2
					c0,0,0.1-0.2,0.1-0.4l0.1-1.7c0.1-1.2,0.3-2.3,0.6-3.5c0.3-1.3,0.8-2.6,1.4-3.8c0.6-1.2,1.3-2.3,1.9-3.4
					c1.5-2.6,2.3-5.7,1.9-8.6c-0.3-2.5-1.4-4.8-3.2-6.5c-1.2-1.2-2.8-2.1-4.4-2.4c-0.6-0.1-1.2-0.2-1.9-0.2c-0.8,0-1.5,0-2.3,0
					c-0.7-0.1-1.7,0.2-2.6,0.4c-1.2,0.3-2.3,0.7-3.3,1.4c-1,0.7-2.2,1.4-2.9,2.3l0,0c-0.5,0.5-0.9,1.1-1.2,1.7
					c-0.6,1.4-0.9,3-0.9,4.6c0,2.2,0.1,4.6,0.8,6.7c0.3,1.1,0.8,2.1,1.5,3c0.7,0.9,1.4,1.8,2.1,2.7c0.5,0.7,1,1.5,1.4,2.4
					c0.3,0.9,0.5,1.8,0.6,2.7l0,0c0.1,1.4-0.3,2.2-0.5,3c-0.3,0.8-0.5,0.4-0.5-0.8c0-2.3-0.3-4.5-1.5-6.3c-1.1-1.7-2.8-3.2-3.6-5.4
					c-0.5-1.1-0.7-2.2-0.9-3.3l0,0c0,0,0-0.1,0-0.1l0,0C47.2,24.1,47,22.5,47,21c0-0.8,0.1-1.7,0.3-2.5c0.1-0.6,0.3-1.4,0.5-2.1
					c0.4-1.1,1.1-2,1.9-2.8c0.8-0.8,1.7-1.4,2.6-2c0.4-0.3,0.9-0.5,1.3-0.8l0,0c0.6-0.2,1.2-0.5,1.8-0.7c0.4-0.1,0.7-0.2,1.1-0.3
					c0.5-0.1,0.9-0.2,1.4-0.3c1-0.2,2-0.2,2.9-0.2c0.1,0,0.2,0,0.3,0l0,0l0.6,0l0,0l0,0c0.9,0.1,1.7,0.2,2.6,0.4l0.3,0.2l0,0l0,0
					l0,0l0,0c0,0,0,0,0,0c1.1,0.4,2.2,1,3,1.8l0,0c0.5,0.5,1,0.9,1.4,1.5l0,0c0.1,0.1,0.1,0.2,0.2,0.3l0,0l0.2,0.2l0.1,0
					c0.3,0.4,0.5,0.8,0.7,1.2l0,0c0.1,0.1,0.2,0.2,0.2,0.3c0,0,0,0,0,0l0,0c0.3,0.5,0.5,1,0.7,1.5l0,0c0.2,0.3,0.3,0.6,0.3,1
					c0,0.3,0.2,0.6,0.2,0.9l0,0c0,0,0,0.1,0,0.1l0,0c0.3,1.5,0.3,3,0,4.5l0,0c-0.4,1.9-1,3.7-1.9,5.4c-1,1.8-2.1,3.5-2.7,5.4
					c-0.3,0.7-0.4,1.5-0.6,2.3l0,0c0,0.1,0,0.2-0.1,0.3l0,0l0,0c-0.1,0.6-0.2,1.4-0.3,1.9c0,0.5-0.1,0.9-0.1,1.4
					c0,0.5,0,0.8-0.1,1.5c-0.1,0.3-0.3,0.7-0.6,1c-0.3,0.2-0.6,0.3-0.8,0.4c-0.5,0.2-1,0.3-1.5,0.4c-1,0.2-2,0.4-3,0.4
					c-0.6,0-1.3,0.1-1.9,0.1c-0.6,0-0.7-0.1-0.8-0.2c-0.1-0.3-0.4-0.4-1.5-0.6c-0.6-0.1-1.6-0.4-1.1-0.6c0.1-0.1-0.2-0.1-0.3-0.2
					C53.6,41.7,54,41.6,54,41.4z M62.2,9.5L62,9.5C62,9.5,62.1,9.5,62.2,9.5C62.1,9.5,62.2,9.5,62.2,9.5z M67.9,11.8L67.9,11.8
					L67.9,11.8L67.9,11.8z M70,14l-0.1-0.2L70,14L70,14z M71.5,17.1l-0.1-0.3L71.5,17.1L71.5,17.1z M66.7,36.4L66.7,36.4L66.7,36.4
					L66.7,36.4z"/>
			</g>
		</g>
	</g>
	<g>
		<g>
			<g>
				<polygon points="59.1,50 59,50 59,50 				"/>
				<polygon points="59.9,50 59.9,50 59.9,50 				"/>
				<path d="M54.1,47.9c0.1-0.1,0.2-0.2,0.2-0.2c0.1,0.1,0.2,0.2,0.4,0.3l0,0l0,0l0,0c0.1,0.1,0.3,0,0.5,0.1
					c0.3,0.1,0.6,0.1,0.9,0.2c0.3,0.1,0.7,0.1,1,0.2c0.4,0.1,0.8,0.1,1.2,0.1c0.4,0,0.7,0,1.1,0c0.2,0,0.5,0.1,0.7,0.1
					c0.1,0,0.2,0,0.3,0c0.1,0,0.2,0,0.3,0.1c0.1,0.1,0.2,0,0.4,0c0.2,0,0.3,0,0.5,0c0.2,0,0.3,0,0.5-0.1l0,0c0.1,0,0.2,0,0.3,0
					c0.2-0.1,0.4,0,0.7,0c0.6,0,1.2-0.2,1.8-0.4c0.2-0.1,0.4-0.2,0.6-0.4l0,0c0.2-0.1,0.4,0.1,0.6,0.3c0.2,0.2,0.3,0.4,0.1,0.5
					c-0.3,0.2-0.5,0.4-0.9,0.5c-0.3,0.1-0.6,0.1-0.9,0.2c-0.2,0-0.3,0.1-0.5,0.1l0,0c0,0,0,0,0,0l0,0c-0.2,0-0.4,0.1-0.6,0.1
					c-0.1,0-0.2,0-0.4,0c-0.1,0-0.2,0.1-0.3,0.1c-0.3,0-0.6,0.1-0.9,0.1l-0.2,0l0,0c-0.1-0.1-0.2,0-0.3,0c-0.1,0-0.1,0-0.2,0
					c-0.1,0-0.1,0-0.2,0c-0.1,0.1-0.3,0-0.4,0c0,0,0,0,0,0l0,0l-0.1,0l0,0l0,0c-0.1,0-0.2,0-0.3,0l0,0l0,0l0,0l0,0l0,0l0,0
					c-0.2,0-0.3,0.1-0.5,0l0,0l-0.3,0l0,0c0,0,0-0.1,0,0l0,0l0,0l0,0c-0.1,0-0.1,0-0.2-0.1l0,0c0,0,0,0,0,0l0,0l0,0l-0.2,0l0,0
					c0,0-0.1,0-0.1-0.1c0-0.1-0.1,0.1-0.1,0l0,0l0,0l0,0l-0.6,0l0,0c-0.2-0.2-0.5-0.1-0.8-0.2c-0.3,0-0.6-0.1-0.8-0.1
					c-0.1,0-0.2,0-0.3,0l0,0c0,0,0,0,0,0l0,0l0,0c-0.1,0-0.2,0-0.3,0c-0.1,0-0.3,0-0.4,0c-0.3,0-0.6-0.1-0.9-0.1c-0.1,0-0.2,0-0.3,0
					c-0.1,0-0.1-0.1-0.1-0.2c0.1-0.2,0.1-0.4-0.1-0.4c-0.1,0-0.2-0.1,0.1-0.4c0.1-0.1,0-0.1,0-0.1C53.8,48.1,54,48,54.1,47.9z
					 M60.3,49.9L60.3,49.9L60.3,49.9L60.3,49.9z M59.4,49.9L59.4,49.9L59.4,49.9L59.4,49.9z M59,49.9L59,49.9L59,49.9L59,49.9z
					 M58.6,49.9L58.6,49.9L58.6,49.9L58.6,49.9z M55.8,49.5L55.8,49.5L55.8,49.5L55.8,49.5z"/>
			</g>
		</g>
	</g>
	<g>
		<g>
			<g>
				<polygon points="59,46.9 59,46.9 59,46.9 				"/>
				<polygon points="59.9,46.9 59.9,46.9 59.9,46.9 				"/>
				<path d="M53.9,44.2c0.1-0.1,0.2-0.2,0.3-0.1c0.2,0.1,0.3,0.4,0.6,0.5l0,0l0,0l0,0c0.1,0.1,0.3,0.1,0.5,0.2
					c0.2,0.2,0.5,0.2,0.8,0.4c0.3,0.2,0.6,0.2,1,0.3c0.4,0.1,0.8,0.1,1.3,0.1c0.4,0,0.7,0,1.1-0.1c0.2,0,0.5,0,0.7,0
					c0.1,0,0.2,0,0.3,0c0.1,0,0.2,0,0.3,0.1c0.1,0.1,0.2,0,0.4,0c0.2,0,0.4,0,0.5,0c0.2,0,0.4,0,0.5-0.1l0,0c0.1,0,0.2,0,0.3,0
					c0.2-0.1,0.5-0.1,0.7-0.1c0.6-0.1,1.2-0.2,1.9-0.5c0.2-0.1,0.5-0.2,0.8-0.3l0,0c0.2-0.1,0.4,0.2,0.5,0.5
					c0.1,0.3,0.1,0.5-0.1,0.5c-0.3,0.1-0.5,0.3-0.8,0.3c-0.3,0.1-0.6,0.1-0.9,0.2c-0.2,0.1-0.3,0.1-0.5,0.1l0,0c0,0,0,0,0,0l0,0
					c-0.2,0-0.4,0.1-0.7,0.1c-0.1,0-0.2,0-0.4,0c-0.1,0-0.2,0.1-0.3,0.1c-0.3,0.1-0.6,0.1-0.9,0.2l-0.2,0l0,0c-0.1-0.1-0.2,0-0.3,0
					c-0.1,0-0.1,0-0.2,0c-0.1,0-0.1,0-0.2,0c-0.1,0.1-0.3,0.1-0.4,0c0,0,0,0,0,0l0,0l-0.1,0l0,0l0,0c-0.1,0-0.2,0-0.4,0l-0.1,0l0,0
					l0,0l0,0l0,0l0,0c-0.2,0-0.3,0.1-0.5,0l0,0l-0.3,0l0,0c0,0,0-0.1,0,0l0,0l0,0l0,0c-0.1,0-0.1,0-0.2-0.1l0,0c0,0,0,0,0,0l0,0l0,0
					l-0.2,0l0,0c-0.1,0-0.1,0.1-0.1,0c0-0.1-0.1,0.1-0.1,0l0,0c0,0,0,0,0,0l0,0l-0.6,0l0,0c-0.3-0.2-0.5-0.1-0.8-0.2
					c-0.3,0-0.6-0.1-0.9-0.1c-0.1,0-0.2,0-0.4-0.1l0,0c0,0,0,0,0,0l0,0l0,0c-0.1,0-0.2-0.1-0.3-0.1c-0.2,0-0.3-0.1-0.4-0.1
					c-0.3-0.1-0.6-0.2-0.8-0.4c-0.1,0-0.2-0.1-0.3-0.1c-0.1,0-0.1-0.1,0-0.2c0.1-0.2,0.2-0.4,0-0.4c-0.1,0-0.2-0.1,0.1-0.4
					c0.1-0.1,0-0.1,0-0.1C53.6,44.5,53.8,44.4,53.9,44.2z M60.2,46.8L60.2,46.8L60.2,46.8L60.2,46.8z M59.4,46.8L59.4,46.8
					L59.4,46.8L59.4,46.8z M58.9,46.8L58.9,46.8L58.9,46.8L58.9,46.8z M58.5,46.8L58.5,46.8L58.5,46.8L58.5,46.8z M55.5,46.4
					L55.5,46.4L55.5,46.4L55.5,46.4z"/>
			</g>
		</g>
	</g>
	<g>
		<g>
			<g>
				<polygon points="59.2,53.1 59.2,53.1 59.2,53.1 				"/>
				<polygon points="60,53.1 60,53.1 60,53.1 				"/>
				<path d="M54.6,50.9c0.1-0.1,0.2-0.2,0.2-0.2c0.2,0.1,0.3,0.3,0.5,0.4l0,0l0,0l0,0c0.1,0.1,0.3,0,0.4,0.1
					c0.2,0.1,0.5,0.1,0.8,0.2c0.3,0.1,0.6,0.1,0.9,0.2c0.4,0.1,0.8,0.1,1.1,0.2c0.3,0,0.6,0,0.9,0c0.2,0,0.4,0.1,0.6,0.1
					c0.1,0,0.2,0,0.2,0c0.1,0,0.2,0,0.3,0.1c0.1,0.1,0.2,0,0.3,0c0.2,0,0.3,0,0.5,0c0.2,0,0.3,0,0.5-0.1l0,0c0.1,0,0.2,0,0.3,0
					c0.2-0.1,0.4,0,0.6,0c0.6,0,1.1-0.1,1.7-0.3c0.2-0.1,0.4-0.2,0.6-0.3l0,0c0.2-0.1,0.3,0.2,0.5,0.4c0.2,0.2,0.2,0.5,0,0.5
					c-0.3,0.1-0.5,0.3-0.8,0.4c-0.3,0.1-0.5,0.1-0.8,0.1c-0.1,0-0.3,0-0.4,0.1l0,0c0,0,0,0,0,0l0,0c-0.2,0-0.4,0.1-0.6,0.1
					c-0.1,0-0.2,0-0.3,0c-0.1,0-0.2,0.1-0.2,0.1l-0.8,0.1l-0.2,0l0,0c-0.1-0.1-0.2,0-0.2,0c0,0-0.1,0-0.1,0c-0.1,0-0.1,0-0.2,0
					c-0.1,0.1-0.2,0.1-0.4,0c0,0,0,0,0,0l0,0l-0.1,0l0,0l0,0c-0.1,0-0.2,0-0.3,0l0,0l0,0l0,0l0,0l0,0l0,0c-0.1,0-0.3,0.1-0.4,0l0,0
					l-0.3,0l0,0c0,0,0-0.1,0,0l0,0l0,0l0,0c-0.1,0-0.1,0-0.2-0.1l0,0c0,0,0,0,0,0l0,0l0,0l-0.2,0l0,0c0,0-0.1,0-0.1-0.1
					c0-0.1-0.1,0.1-0.1,0l0,0l0,0l0,0L58,52.9l0,0c-0.2-0.2-0.5-0.1-0.7-0.2c-0.3,0-0.5-0.1-0.8-0.1c-0.1,0-0.2,0-0.3,0l0,0
					c0,0,0,0,0,0l0,0l0,0c-0.1,0-0.2,0-0.3,0c-0.1,0-0.2,0-0.4,0c-0.3,0-0.5-0.1-0.8-0.2c-0.1,0-0.2,0-0.3,0c-0.1,0-0.1-0.1,0-0.2
					c0.1-0.2,0.1-0.4,0-0.4c-0.1,0-0.2-0.1,0-0.4c0.1-0.1,0-0.1,0-0.1C54.3,51.2,54.5,51,54.6,50.9z M60.3,53L60.3,53L60.3,53
					L60.3,53z M59.6,53L59.6,53L59.6,53L59.6,53z M59.2,53L59.2,53L59.2,53L59.2,53z M58.8,53L58.8,53L58.8,53L58.8,53z M56.2,52.6
					L56.2,52.6L56.2,52.6L56.2,52.6z"/>
			</g>
		</g>
	</g>
	<g>
		<g>
			<g>
				<polygon points="75.6,32.7 75.6,32.7 75.6,32.7 				"/>
				<polygon points="75.2,32.6 75.2,32.6 75.2,32.6 				"/>
				<path d="M77.5,34.9c-0.1,0.1-0.2,0.2-0.2,0.2c-0.1-0.1-0.1-0.2-0.2-0.3l0,0l0,0l0,0c0-0.1-0.1,0-0.2-0.1
					c-0.1-0.1-0.2-0.1-0.3-0.2c-0.1-0.1-0.3-0.1-0.4-0.2c-0.2-0.1-0.4-0.2-0.6-0.2c-0.2,0-0.4-0.1-0.6-0.1c-0.1-0.1-0.2-0.2-0.4-0.2
					c0,0-0.1,0-0.1-0.1c-0.1,0-0.1,0-0.1-0.2c0-0.1-0.1-0.1-0.1-0.1c-0.1-0.1-0.1-0.2-0.2-0.2c-0.1,0-0.1-0.2-0.3-0.1l0,0
					c0,0-0.1-0.1-0.1-0.1c-0.1,0-0.2-0.2-0.2-0.3c-0.2-0.3-0.4-0.4-0.7-0.6c-0.1,0-0.2,0-0.3,0l0,0c-0.1,0,0-0.3,0-0.5
					c0-0.3,0.1-0.5,0.2-0.5c0.2,0,0.4,0,0.6,0.1c0.1,0.1,0.3,0.2,0.4,0.3c0.1,0,0.1,0.1,0.2,0.2l0,0c0,0,0,0,0,0l0,0
					c0,0.1,0.2,0.2,0.2,0.2c0,0,0.1,0.1,0.1,0.2c0,0.1,0.1,0,0.1,0.1l0.3,0.3l0.1,0.1l0,0c0,0.1,0.1,0,0.1,0.1c0,0,0,0,0,0
					c0,0,0,0,0.1,0c0.1,0,0.1,0,0.1,0.1c0,0,0,0,0,0l0,0l0,0l0,0l0,0c0,0.1,0.1,0,0.1,0v0l0,0l0,0l0,0l0,0l0,0c0.1,0,0.2,0,0.2,0.1
					l0,0l0.1,0.1l0,0c0,0,0,0.1,0,0l0,0l0,0l0,0c0,0,0.1,0,0.1,0.1l0,0c0,0,0,0,0,0l0,0l0,0l0.1,0l0,0c0,0,0.1,0,0,0.1
					c0,0.1,0.1-0.1,0.1,0l0,0l0,0l0,0l0.3,0.1l0,0c0.1,0.2,0.2,0.2,0.3,0.2c0.1,0,0.3,0.1,0.4,0.1c0.1,0,0.1,0,0.2,0l0,0
					c0,0,0,0,0,0l0,0l0,0c0,0,0.1,0.1,0.1,0c0.1,0,0.1,0,0.2,0c0.2,0,0.3,0.1,0.4,0.2c0,0,0.1,0,0.2,0c0.1,0,0,0.1,0,0.2
					c-0.1,0.2-0.2,0.3-0.1,0.3c0,0,0.1,0.1-0.2,0.3c-0.1,0.1,0,0.1,0,0.1C77.8,34.6,77.6,34.7,77.5,34.9z M75.1,32.6L75.1,32.6
					L75.1,32.6L75.1,32.6z M75.4,32.7L75.4,32.7L75.4,32.7L75.4,32.7z M75.6,32.7L75.6,32.7L75.6,32.7L75.6,32.7z M75.8,32.8
					L75.8,32.8L75.8,32.8L75.8,32.8z M77.1,33.3L77.1,33.3L77.1,33.3L77.1,33.3z"/>
			</g>
		</g>
	</g>
	<g>
		<g>
			<g>
				<polygon points="79.4,24.2 79.4,24.2 79.4,24.2 				"/>
				<polygon points="78.9,24.1 78.9,24.1 78.9,24.1 				"/>
				<path d="M82.1,26.3c-0.1,0.1-0.1,0.2-0.2,0.2c-0.1-0.1-0.2-0.2-0.4-0.3l0,0l0,0l0,0c-0.1-0.1-0.2,0-0.3-0.1
					c-0.1-0.1-0.3-0.1-0.5-0.2c-0.2-0.1-0.4-0.1-0.5-0.2c-0.2-0.1-0.4-0.1-0.7-0.2c-0.2,0-0.4,0-0.6,0c-0.1,0-0.3-0.1-0.4-0.1
					c0,0-0.1,0-0.1,0c-0.1,0-0.1,0-0.2-0.1c0-0.1-0.1,0-0.2-0.1c-0.1,0-0.2-0.1-0.3-0.1c-0.1,0-0.2-0.1-0.3,0l0,0
					c-0.1,0-0.1,0-0.2,0C77.2,25.2,77.1,25,77,25c-0.3-0.1-0.7-0.1-1,0c-0.1,0-0.3,0.1-0.4,0.1l0,0c-0.1,0-0.2-0.3-0.3-0.5
					c-0.1-0.3-0.1-0.5,0-0.5c0.2-0.1,0.4-0.2,0.6-0.2c0.2,0,0.4,0,0.5,0c0.1,0,0.2,0,0.3,0l0,0c0,0,0,0,0,0l0,0c0.1,0.1,0.2,0,0.4,0
					c0.1,0,0.1,0,0.2,0.1c0,0,0.1,0,0.2,0c0.2,0,0.3,0,0.5,0l0.1,0l0,0c0,0.1,0.1,0,0.1,0c0,0,0.1,0,0.1,0c0,0,0.1,0,0.1,0
					c0.1,0,0.2,0,0.2,0.1c0,0,0,0,0,0l0,0l0.1,0l0,0l0,0c0.1,0,0.1,0,0.2,0l0,0l0,0l0,0h0l0,0l0,0c0.1,0,0.2,0,0.3,0l0,0l0.2,0.1
					l0,0c0,0,0,0.1,0,0l0,0l0,0l0,0c0,0,0.1,0,0.1,0.1l0,0c0,0,0,0,0,0l0,0l0,0l0.1,0l0,0c0,0,0.1,0,0.1,0.1c0,0.1,0.1-0.1,0.1,0
					l0,0l0,0l0,0l0.4,0.1l0,0c0.1,0.2,0.3,0.2,0.4,0.2c0.2,0,0.3,0.1,0.5,0.1c0.1,0,0.1,0,0.2,0l0,0c0,0,0,0,0,0l0,0l0,0
					c0,0,0.1,0,0.2,0c0.1,0,0.2,0,0.2,0c0.2,0,0.3,0.1,0.5,0.1c0,0,0.1,0,0.2,0c0.1,0,0,0.1,0,0.2c-0.1,0.2-0.1,0.4,0,0.4
					c0.1,0,0.1,0,0,0.3c0,0.1,0,0.1,0,0.1C82.3,25.9,82.2,26.1,82.1,26.3z M78.7,24.2L78.7,24.2L78.7,24.2L78.7,24.2z M79.1,24.3
					L79.1,24.3L79.1,24.3L79.1,24.3z M79.4,24.3L79.4,24.3L79.4,24.3L79.4,24.3z M79.6,24.3L79.6,24.3L79.6,24.3L79.6,24.3z
					 M81.2,24.7L81.2,24.7L81.2,24.7L81.2,24.7z"/>
			</g>
		</g>
	</g>
	<g>
		<g>
			<g>
				<polygon points="77.7,14.3 77.7,14.3 77.7,14.3 				"/>
				<polygon points="77.3,14.4 77.3,14.4 77.3,14.4 				"/>
				<path d="M80.8,14.4c0,0.2,0.1,0.3,0,0.3c-0.1,0-0.3,0-0.4,0l0,0l0,0l0,0c-0.1,0-0.2,0.1-0.3,0.1c-0.2,0-0.3,0.1-0.5,0.1
					c-0.2,0-0.3,0.1-0.5,0.1c-0.2,0-0.4,0.1-0.6,0.2c-0.2,0.1-0.3,0.2-0.5,0.3c-0.1,0.1-0.3,0.1-0.4,0.1c0,0-0.1,0-0.1,0.1
					c-0.1,0-0.1,0.1-0.2,0c-0.1-0.1-0.1,0-0.2,0c-0.1,0-0.2,0-0.3,0.1c-0.1,0.1-0.2,0-0.2,0.2l0,0c-0.1,0-0.1,0-0.1,0.1
					c-0.1,0.1-0.2,0.1-0.3,0.1c-0.3,0-0.6,0.2-0.9,0.3c-0.1,0.1-0.2,0.2-0.3,0.3l0,0c-0.1,0.1-0.2-0.2-0.4-0.4
					c-0.2-0.2-0.2-0.4-0.2-0.5c0.1-0.1,0.2-0.3,0.4-0.4c0.1-0.1,0.3-0.1,0.4-0.1c0.1,0,0.1,0,0.2-0.1l0,0c0,0,0,0,0,0l0,0
					c0.1,0,0.2-0.1,0.3-0.1c0.1,0,0.1,0,0.2,0c0,0,0.1-0.1,0.1-0.1l0.4-0.2l0.1,0l0,0c0.1,0,0.1,0,0.1,0c0,0,0.1,0,0.1,0
					c0,0,0.1,0,0.1-0.1c0-0.1,0.1-0.1,0.2-0.1c0,0,0,0,0,0l0,0l0,0l0,0l0,0c0.1,0,0.1-0.1,0.2-0.1l0,0l0,0l0,0l0,0l0,0l0,0
					c0.1,0,0.1-0.1,0.2-0.1l0,0l0.1,0l0,0c0,0,0,0,0,0l0,0l0,0l0,0c0,0,0.1,0,0.1,0l0,0c0,0,0-0.1,0,0l0,0l0,0l0.1-0.1l0,0
					c0,0,0-0.1,0.1,0c0,0.1,0-0.1,0.1,0l0,0l0,0l0,0l0.3-0.1l0,0c0.2,0.1,0.3,0,0.4-0.1c0.1-0.1,0.3-0.1,0.4-0.2
					c0,0,0.1-0.1,0.2-0.1l0,0c0,0,0,0,0,0l0,0l0,0c0,0,0.1,0,0.1-0.1c0-0.1,0.1-0.1,0.2-0.1c0.1-0.1,0.3-0.1,0.4-0.2
					c0,0,0.1-0.1,0.1-0.1c0,0,0.1,0,0.1,0.1c0.1,0.2,0.1,0.4,0.2,0.3c0,0,0.1-0.1,0.2,0.3c0,0.1,0,0.1,0,0.1
					C80.8,14,80.8,14.3,80.8,14.4z M77.2,14.6L77.2,14.6L77.2,14.6L77.2,14.6z M77.6,14.4L77.6,14.4L77.6,14.4L77.6,14.4z
					 M77.8,14.3L77.8,14.3L77.8,14.3L77.8,14.3z M78,14.2L78,14.2L78,14.2L78,14.2z M79.3,13.7L79.3,13.7L79.3,13.7L79.3,13.7z"/>
			</g>
		</g>
	</g>
	<g>
		<g>
			<g>
				<polygon points="73,5.9 73,5.9 73,5.9 				"/>
				<polygon points="72.6,6.2 72.6,6.2 72.6,6.2 				"/>
				<path d="M76.1,4.5c0.1,0.1,0.2,0.2,0.2,0.2c-0.1,0.1-0.3,0.2-0.4,0.3l0,0l0,0l0,0c-0.1,0.1-0.1,0.2-0.2,0.2
					c-0.2,0.1-0.2,0.3-0.4,0.4C75,5.7,74.8,5.8,74.7,6c-0.2,0.1-0.4,0.3-0.5,0.5C74,6.6,73.9,6.8,73.7,7c-0.1,0.1-0.2,0.2-0.4,0.2
					c0,0-0.1,0.1-0.1,0.1c-0.1,0-0.1,0.1-0.2,0c-0.1,0-0.1,0.1-0.2,0.1c-0.1,0.1-0.2,0.1-0.3,0.2c-0.1,0.1-0.2,0.1-0.2,0.2l0,0
					c0,0-0.1,0-0.1,0.1c-0.1,0.1-0.2,0.1-0.3,0.2c-0.3,0.2-0.6,0.4-0.9,0.6c-0.1,0.1-0.2,0.2-0.3,0.3l0,0c-0.1,0.1-0.3-0.1-0.5-0.3
					C70.1,8.7,70,8.5,70,8.4c0.1-0.2,0.2-0.4,0.3-0.5c0.1-0.1,0.3-0.1,0.4-0.3c0.1-0.1,0.1-0.1,0.2-0.1l0,0c0,0,0,0,0,0l0,0
					c0.1,0,0.2-0.1,0.3-0.2c0.1,0,0.1-0.1,0.2-0.1c0.1,0,0.1-0.1,0.1-0.1l0.4-0.3L72,6.8l0,0c0.1,0,0.1-0.1,0.1-0.1c0,0,0.1,0,0.1,0
					c0,0,0.1,0,0.1-0.1c0-0.1,0.1-0.1,0.2-0.1c0,0,0,0,0,0l0,0l0-0.1l0,0l0,0c0.1,0,0.1-0.1,0.1-0.1l0,0l0,0l0,0l0,0l0,0l0,0
					c0.1-0.1,0.1-0.2,0.2-0.2l0,0L73,6l0,0c0,0,0,0,0,0l0,0l0,0l0,0c0,0,0-0.1,0.1,0l0,0c0,0,0,0,0,0l0,0l0,0l0.1-0.1l0,0
					c0,0,0-0.1,0.1,0c0.1,0,0-0.1,0-0.1l0,0l0,0l0,0l0.2-0.2l0,0c0.2,0,0.3-0.1,0.4-0.2c0.1-0.1,0.2-0.2,0.3-0.4
					c0,0,0.1-0.1,0.1-0.2l0,0c0,0,0,0,0,0l0,0l0,0c0,0,0.1-0.1,0.1-0.1c0-0.1,0.1-0.1,0.1-0.2c0.1-0.1,0.2-0.2,0.3-0.4
					c0,0,0-0.1,0-0.2c0-0.1,0.1,0,0.2,0.1C75.2,4,75.3,4.1,75.3,4c0,0,0.1-0.1,0.3,0.2c0.1,0.1,0.1,0,0.1,0
					C75.8,4.2,75.9,4.4,76.1,4.5z M72.5,6.4L72.5,6.4L72.5,6.4L72.5,6.4z M72.9,6.1L72.9,6.1L72.9,6.1L72.9,6.1z M73,5.9L73,5.9
					L73,5.9L73,5.9z M73.2,5.7L73.2,5.7L73.2,5.7L73.2,5.7z M74.3,4.7L74.3,4.7L74.3,4.7L74.3,4.7z"/>
			</g>
		</g>
	</g>
	<g>
		<g>
			<g>
				<polygon points="63.5,2.5 63.5,2.5 63.5,2.5 				"/>
				<polygon points="63.5,2.9 63.5,2.9 63.5,2.9 				"/>
				<path d="M65.3,0.2c0.2,0.1,0.3,0.1,0.2,0.1c0,0.1-0.2,0.2-0.2,0.3l0,0l0,0l0,0c-0.1,0.1,0,0.2-0.1,0.2c-0.1,0.1-0.1,0.3-0.2,0.4
					C65,1.4,65,1.6,64.9,1.8c-0.1,0.2-0.1,0.4-0.1,0.6c0,0.2,0,0.3,0,0.5c0,0.1-0.1,0.2-0.1,0.3c0,0,0,0.1,0,0.1c0,0,0,0.1-0.1,0.1
					c-0.1,0,0,0.1-0.1,0.2c0,0.1-0.1,0.2-0.1,0.2c0,0.1-0.1,0.2,0,0.2l0,0c0,0,0,0.1,0,0.1c0.1,0.1-0.1,0.2-0.1,0.3
					c-0.1,0.3-0.1,0.6-0.1,0.9c0,0.1,0.1,0.2,0.1,0.3l0,0c0,0.1-0.3,0.1-0.5,0.2c-0.3,0.1-0.5,0-0.5,0c-0.1-0.2-0.2-0.3-0.2-0.5
					c0-0.1,0.1-0.3,0.1-0.4c0-0.1,0-0.1,0-0.2l0,0c0,0,0,0,0,0l0,0c0.1-0.1,0-0.2,0.1-0.3c0-0.1,0-0.1,0.1-0.2c0,0,0-0.1,0-0.1
					l0-0.4l0-0.1l0,0c0.1,0,0-0.1,0-0.1c0,0,0,0,0-0.1c0,0,0-0.1,0-0.1c0-0.1,0-0.1,0.1-0.2c0,0,0,0,0,0l0,0l0,0l0,0l0,0
					c0,0,0-0.1,0-0.2l0,0l0,0l0,0l0,0l0,0l0,0c0-0.1,0-0.2,0-0.2l0,0l0-0.1l0,0c0,0,0.1,0,0,0l0,0l0,0l0,0c0,0,0-0.1,0.1-0.1l0,0
					c0,0,0,0,0,0l0,0l0,0l0-0.1l0,0c0,0,0-0.1,0.1-0.1c0.1,0-0.1-0.1,0-0.1l0,0l0,0l0,0l0-0.3l0,0c0.2-0.1,0.1-0.2,0.2-0.3
					c0-0.1,0-0.3,0.1-0.4c0,0,0-0.1,0-0.2l0,0c0,0,0,0,0,0l0,0l0,0c0,0,0-0.1,0-0.1c0-0.1,0-0.1,0-0.2c0-0.1,0.1-0.3,0.1-0.4
					c0,0,0-0.1,0-0.1c0,0,0.1,0,0.2,0c0.2,0.1,0.4,0.1,0.3,0c0,0,0-0.1,0.3,0c0.1,0,0.1,0,0.1,0C65,0,65.2,0.1,65.3,0.2z M63.5,3.1
					L63.5,3.1L63.5,3.1L63.5,3.1z M63.6,2.7L63.6,2.7L63.6,2.7L63.6,2.7z M63.6,2.5L63.6,2.5L63.6,2.5L63.6,2.5z M63.6,2.3L63.6,2.3
					L63.6,2.3L63.6,2.3z M63.9,0.9L63.9,0.9L63.9,0.9L63.9,0.9z"/>
			</g>
		</g>
	</g>
	<g>
		<g>
			<g>
				<polygon points="52.1,3.2 52.1,3.2 52.1,3.2 				"/>
				<polygon points="52.2,3.5 52.2,3.5 52.2,3.5 				"/>
				<path d="M52.8,0.5c0.2,0,0.3-0.1,0.3,0c0,0.1-0.1,0.3,0,0.4l0,0l0,0l0,0c0,0.1,0.1,0.1,0.1,0.2c0,0.1,0.1,0.3,0,0.4
					c-0.1,0.2,0,0.3,0,0.5c0,0.2,0,0.4,0.1,0.6c0,0.2,0.1,0.3,0.1,0.5c0,0.1,0,0.2,0,0.3c0,0,0,0.1,0,0.1c0,0.1,0,0.1-0.1,0.2
					c-0.1,0.1,0,0.1,0,0.2c0,0.1,0,0.2,0,0.2c0,0.1,0,0.2,0.1,0.2l0,0c0,0,0,0.1,0,0.1c0.1,0.1,0,0.2-0.1,0.3
					c-0.1,0.3-0.1,0.6,0,0.8c0,0.1,0.1,0.2,0.1,0.3l0,0c0,0.1-0.3,0.1-0.5,0.2c-0.3,0-0.5,0-0.5-0.1c-0.1-0.1-0.2-0.3-0.2-0.4
					c0-0.1,0.1-0.2,0-0.4c0-0.1,0-0.1,0-0.2l0,0c0,0,0,0,0,0l0,0c0.1-0.1,0-0.2,0-0.3c0,0,0-0.1,0.1-0.1c0,0,0-0.1,0-0.1l0-0.4
					l0-0.1l0,0c0.1,0,0-0.1,0-0.1c0,0,0,0,0-0.1c0,0,0-0.1,0-0.1c-0.1-0.1,0-0.1,0-0.2c0,0,0,0,0,0l0,0l0,0l0,0l0,0
					c0-0.1,0-0.1,0-0.1l0,0l0,0l0,0l0,0l0,0l0,0c0-0.1-0.1-0.1,0-0.2l0,0l0-0.1l0,0c0,0,0.1,0,0,0l0,0l0,0l0,0c0,0,0-0.1,0.1-0.1
					l0,0c0,0-0.1,0,0,0l0,0l0,0l0-0.1l0,0c0,0-0.1,0,0-0.1c0.1,0-0.1,0,0-0.1l0,0l0,0l0,0l0-0.3l0,0c0.1-0.1,0-0.2,0-0.3
					C52,2.2,52,2,52,1.9c0,0,0-0.1-0.1-0.1l0,0c0,0,0,0,0,0l0,0l0,0c0,0,0-0.1,0-0.1c-0.1,0-0.1-0.1-0.1-0.1
					c-0.1-0.1-0.1-0.2-0.1-0.3c0,0-0.1-0.1-0.1-0.1c0,0,0,0,0.1-0.1C51.9,1,52.1,0.9,52,0.9c0,0,0-0.1,0.3-0.1c0.1,0,0.1,0,0.1,0
					C52.4,0.6,52.6,0.6,52.8,0.5z M52.3,3.6L52.3,3.6L52.3,3.6L52.3,3.6z M52.2,3.3L52.2,3.3L52.2,3.3L52.2,3.3z M52.1,3.1L52.1,3.1
					L52.1,3.1L52.1,3.1z M52.1,2.9L52.1,2.9L52.1,2.9L52.1,2.9z M51.9,1.8L51.9,1.8L51.9,1.8L51.9,1.8z"/>
			</g>
		</g>
	</g>
	<g>
		<g>
			<g>
				<polygon points="43.2,7.7 43.2,7.7 43.2,7.7 				"/>
				<polygon points="43.6,8 43.6,8 43.6,8 				"/>
				<path d="M41.6,4.7c0.1-0.1,0.2-0.2,0.2-0.2C42,4.6,42,4.8,42.1,4.9l0,0l0,0l0,0C42.2,5,42.3,5,42.4,5.1c0.1,0.1,0.3,0.2,0.4,0.4
					c0.1,0.2,0.3,0.3,0.4,0.5c0.2,0.2,0.3,0.4,0.6,0.5c0.2,0.1,0.4,0.2,0.5,0.4c0.1,0.1,0.2,0.2,0.3,0.4c0,0,0.1,0.1,0.1,0.1
					c0,0,0.1,0.1,0.1,0.2c0,0.1,0.1,0.1,0.1,0.2c0.1,0.1,0.1,0.2,0.2,0.2c0.1,0.1,0.1,0.2,0.3,0.2l0,0c0,0,0.1,0.1,0.1,0.1
					c0.1,0.1,0.2,0.2,0.2,0.3c0.2,0.3,0.4,0.6,0.7,0.8c0.1,0.1,0.2,0.2,0.4,0.2l0,0c0.1,0.1-0.1,0.3-0.2,0.5
					c-0.2,0.2-0.3,0.3-0.4,0.3c-0.2-0.1-0.4-0.2-0.5-0.3c-0.1-0.1-0.2-0.3-0.3-0.4c-0.1-0.1-0.1-0.1-0.2-0.2l0,0c0,0,0,0,0,0l0,0
					c0-0.1-0.1-0.2-0.2-0.3c0,0-0.1-0.1-0.1-0.2c0-0.1-0.1,0-0.1-0.1l-0.3-0.4l-0.1-0.1l0,0c0-0.1-0.1-0.1-0.1-0.1c0,0,0,0-0.1-0.1
					c0,0,0-0.1-0.1-0.1c-0.1,0-0.1-0.1-0.1-0.2c0,0,0,0,0,0l0,0l-0.1,0l0,0l0,0c0-0.1-0.1-0.1-0.2-0.1l0,0l0,0l0,0l0,0l0,0l0,0
					c-0.1-0.1-0.2-0.1-0.2-0.2l0,0l-0.1-0.1l0,0c0,0,0,0,0,0l0,0l0,0l0,0c0,0-0.1,0,0-0.1l0,0c0,0,0,0,0,0l0,0l0,0l-0.1-0.1l0,0
					c0,0-0.1,0,0-0.1c0-0.1-0.1,0-0.1,0l0,0l0,0l0,0l-0.3-0.2l0,0c0-0.2-0.2-0.3-0.3-0.4c-0.1-0.1-0.3-0.2-0.4-0.3
					c0,0-0.1-0.1-0.2-0.1l0,0c0,0,0,0,0,0l0,0l0,0c0,0-0.1-0.1-0.1-0.1c-0.1,0-0.1-0.1-0.2-0.1C41.4,6.1,41.3,6,41.2,6
					c0,0-0.1,0-0.2,0c-0.1,0,0-0.1,0.1-0.2c0.1-0.2,0.2-0.3,0.1-0.3c0,0-0.1-0.1,0.1-0.3c0.1-0.1,0-0.1,0-0.1
					C41.3,5,41.5,4.8,41.6,4.7z M43.8,8.1L43.8,8.1L43.8,8.1L43.8,8.1z M43.4,7.8L43.4,7.8L43.4,7.8L43.4,7.8z M43.2,7.6L43.2,7.6
					L43.2,7.6L43.2,7.6z M43.1,7.5L43.1,7.5L43.1,7.5L43.1,7.5z M41.9,6.4L41.9,6.4L41.9,6.4L41.9,6.4z"/>
			</g>
		</g>
	</g>
	<g>
		<g>
			<g>
				<polygon points="38.9,16.6 38.9,16.6 38.9,16.6 				"/>
				<polygon points="39.3,16.7 39.3,16.7 39.3,16.7 				"/>
				<path d="M36.7,14.6c0.1-0.1,0.1-0.3,0.2-0.2c0.1,0,0.2,0.2,0.3,0.3l0,0l0,0l0,0c0.1,0.1,0.2,0,0.2,0.1c0.1,0.1,0.3,0.1,0.4,0.2
					c0.1,0.1,0.3,0.1,0.5,0.2c0.2,0.1,0.4,0.2,0.6,0.2c0.2,0,0.4,0,0.5,0.1c0.1,0,0.2,0.1,0.3,0.2c0,0,0.1,0,0.1,0
					c0,0,0.1,0,0.1,0.1c0,0.1,0.1,0.1,0.2,0.1c0.1,0,0.1,0.1,0.2,0.1c0.1,0,0.2,0.1,0.3,0l0,0c0,0,0.1,0.1,0.1,0
					c0.1,0,0.2,0.1,0.3,0.2c0.3,0.2,0.6,0.2,0.9,0.3c0.1,0,0.2,0,0.4,0l0,0c0.1,0,0.1,0.3,0.1,0.5c0,0.3-0.1,0.5-0.2,0.5
					c-0.2,0-0.3,0.1-0.5,0.1c-0.1,0-0.3-0.1-0.4-0.1c-0.1,0-0.1,0-0.2-0.1l0,0c0,0,0,0,0,0l0,0c-0.1-0.1-0.2-0.1-0.3-0.1
					c-0.1,0-0.1-0.1-0.1-0.1c0,0-0.1,0-0.1,0l-0.4-0.1l-0.1,0l0,0c0-0.1-0.1,0-0.1,0c0,0,0,0-0.1,0c0,0-0.1,0-0.1,0
					c-0.1,0-0.1,0-0.2-0.1c0,0,0,0,0,0l0,0l0,0l0,0l0,0c0-0.1-0.1,0-0.2,0l0,0l0,0l0,0l0,0l0,0l0,0c-0.1,0-0.2,0-0.2,0l0,0L39,16.6
					l0,0c0,0,0-0.1,0,0l0,0l0,0l0,0c0,0-0.1,0-0.1-0.1l0,0c0,0,0,0,0,0l0,0l0,0l-0.1,0l0,0c0,0-0.1,0,0-0.1c0-0.1-0.1,0.1-0.1,0l0,0
					l0,0l0,0l-0.3-0.1l0,0c-0.1-0.2-0.2-0.2-0.3-0.2c-0.1,0-0.3-0.1-0.4-0.1c0,0-0.1,0-0.2,0l0,0c0,0,0,0,0,0l0,0l0,0
					c0,0-0.1,0-0.1,0c-0.1,0-0.1,0-0.2,0c-0.1,0-0.3-0.1-0.4-0.1c0,0-0.1,0-0.1,0c0,0,0-0.1,0-0.2c0.1-0.2,0.1-0.4,0-0.3
					c0,0-0.1,0,0-0.3c0-0.1,0-0.1,0-0.1C36.5,15,36.7,14.8,36.7,14.6z M39.5,16.7L39.5,16.7L39.5,16.7L39.5,16.7z M39.1,16.6
					L39.1,16.6L39.1,16.6L39.1,16.6z M38.9,16.6L38.9,16.6L38.9,16.6L38.9,16.6z M38.7,16.5L38.7,16.5L38.7,16.5L38.7,16.5z
					 M37.4,16.1L37.4,16.1L37.4,16.1L37.4,16.1z"/>
			</g>
		</g>
	</g>
	<g>
		<g>
			<g>
				<polygon points="39.4,26.7 39.4,26.7 39.4,26.7 				"/>
				<polygon points="39.9,26.6 39.9,26.6 39.9,26.6 				"/>
				<path d="M36,26.3c0-0.2-0.1-0.3,0-0.3c0.2,0,0.3,0,0.5,0l0,0l0,0l0,0c0.1,0,0.2-0.1,0.3-0.1c0.2,0,0.3-0.1,0.5-0.1
					c0.2,0,0.4-0.1,0.6-0.1c0.2,0,0.5-0.1,0.7-0.2c0.2-0.1,0.4-0.2,0.6-0.2c0.1,0,0.3,0,0.4,0c0.1,0,0.1,0,0.2,0
					c0.1,0,0.1,0,0.2,0.1c0.1,0.1,0.1,0,0.2,0c0.1,0,0.2,0,0.3,0c0.1,0,0.2,0,0.3-0.1l0,0c0.1,0,0.1,0,0.2,0c0.1-0.1,0.3,0,0.4,0
					c0.4,0,0.7,0,1.1-0.1c0.1,0,0.3-0.1,0.4-0.2l0,0c0.1,0,0.2,0.3,0.3,0.5c0.1,0.3,0.1,0.5,0,0.5c-0.2,0.1-0.3,0.2-0.5,0.2
					c-0.2,0-0.3,0-0.5,0c-0.1,0-0.2,0-0.3,0l0,0c0,0,0,0,0,0l0,0c-0.1-0.1-0.2,0-0.4,0c-0.1,0-0.1,0-0.2-0.1c0,0-0.1,0.1-0.1,0.1
					l-0.5,0.1l-0.1,0l0,0c-0.1-0.1-0.1,0-0.1,0c0,0-0.1,0-0.1,0c0,0-0.1,0-0.1,0c-0.1,0.1-0.1,0.1-0.2,0c0,0,0,0,0,0l0,0l0,0l0,0
					l0,0c-0.1,0-0.1,0-0.2,0.1l0,0l0,0l0,0l0,0l0,0l0,0c-0.1,0-0.2,0.1-0.2,0.1l0,0l-0.2,0l0,0c0,0,0,0,0,0l0,0l0,0l0,0
					c0,0-0.1,0-0.1,0l0,0c0,0,0,0.1,0,0l0,0l0,0l-0.1,0.1l0,0c0,0,0,0.1-0.1,0c0-0.1,0,0.1-0.1,0l0,0l0,0l0,0l-0.3,0.1l0,0
					c-0.2-0.1-0.3,0-0.4,0c-0.2,0-0.3,0.1-0.4,0.1c-0.1,0-0.1,0-0.2,0.1l0,0c0,0,0,0,0,0l0,0l0,0c-0.1,0-0.1,0-0.1,0.1
					c-0.1,0.1-0.1,0.1-0.2,0.1c-0.1,0.1-0.3,0.1-0.4,0.2c0,0-0.1,0.1-0.1,0.1c0,0-0.1,0-0.1-0.1c-0.1-0.2-0.1-0.4-0.2-0.3
					c0,0-0.1,0.1-0.2-0.3c0-0.1,0-0.1,0-0.1C36.1,26.7,36.1,26.4,36,26.3z M40,26.5L40,26.5L40,26.5L40,26.5z M39.6,26.6L39.6,26.6
					L39.6,26.6L39.6,26.6z M39.4,26.7L39.4,26.7L39.4,26.7L39.4,26.7z M39.1,26.7L39.1,26.7L39.1,26.7L39.1,26.7z M37.6,27L37.6,27
					L37.6,27L37.6,27z"/>
			</g>
		</g>
	</g>
	<g>
		<g>
			<g>
				<polygon points="43.5,35.2 43.5,35.2 43.5,35.2 				"/>
				<polygon points="43.8,35 43.8,35 43.8,35 				"/>
				<path d="M40.7,36.2c-0.1-0.1-0.2-0.1-0.2-0.2c0.1-0.1,0.3-0.2,0.4-0.3l0,0l0,0l0,0c0.1-0.1,0.1-0.2,0.2-0.3
					c0.2-0.1,0.2-0.3,0.4-0.3c0.2-0.1,0.3-0.2,0.5-0.3c0.2-0.1,0.4-0.2,0.6-0.4c0.1-0.1,0.3-0.3,0.4-0.3c0.1-0.1,0.2-0.1,0.4-0.1
					c0,0,0.1-0.1,0.1-0.1c0.1,0,0.1-0.1,0.2,0c0.1,0.1,0.1,0,0.2-0.1c0.1,0,0.2,0,0.2-0.1c0.1-0.1,0.2,0,0.2-0.2l0,0
					c0,0,0.1,0,0.1-0.1c0.1-0.1,0.2-0.1,0.3-0.1c0.3-0.1,0.5-0.2,0.7-0.5c0.1-0.1,0.1-0.2,0.1-0.3l0,0c0-0.1,0.3,0.1,0.5,0.2
					c0.2,0.1,0.4,0.3,0.4,0.4c0,0.2-0.1,0.4-0.2,0.5c-0.1,0.1-0.3,0.2-0.4,0.3c-0.1,0.1-0.1,0.1-0.2,0.1l0,0c0,0,0,0,0,0l0,0
					c-0.1,0-0.2,0.1-0.3,0.2c-0.1,0-0.1,0-0.2,0c-0.1,0-0.1,0.1-0.1,0.1c-0.1,0.1-0.3,0.1-0.4,0.2l-0.1,0l0,0c-0.1,0-0.1,0-0.1,0.1
					c0,0,0,0-0.1,0c0,0-0.1,0-0.1,0.1c0,0.1-0.1,0.1-0.2,0.1c0,0,0,0,0,0l0,0l0,0l0,0l0,0c-0.1,0-0.1,0.1-0.1,0.1l0,0l0,0l0,0l0,0
					l0,0l0,0c-0.1,0-0.1,0.1-0.2,0.1l0,0l-0.1,0l0,0c0,0,0,0,0,0l0,0l0,0l0,0c0,0,0,0-0.1,0l0,0c0,0,0,0.1,0,0l0,0l0,0l-0.1,0.1l0,0
					c0,0,0,0.1-0.1,0c-0.1-0.1,0,0.1,0,0l0,0l0,0l0,0L43,35.5l0,0c-0.2-0.1-0.2,0.1-0.3,0.1c-0.1,0.1-0.2,0.2-0.3,0.3
					c0,0-0.1,0.1-0.1,0.1l0,0c0,0,0,0,0,0l0,0l0,0c0,0-0.1,0-0.1,0.1c0,0.1,0,0.1-0.1,0.1c-0.1,0.1-0.1,0.2-0.2,0.3c0,0,0,0.1,0,0.1
					c0,0,0,0-0.2-0.1c-0.2-0.1-0.3-0.2-0.3-0.1c0,0,0,0.1-0.3-0.1c-0.1,0-0.1,0-0.1,0C41.1,36.4,40.9,36.2,40.7,36.2z M43.9,34.9
					L43.9,34.9L43.9,34.9L43.9,34.9z M43.6,35.1L43.6,35.1L43.6,35.1L43.6,35.1z M43.4,35.2L43.4,35.2L43.4,35.2L43.4,35.2z
					 M43.3,35.3L43.3,35.3L43.3,35.3L43.3,35.3z M42.3,36L42.3,36L42.3,36L42.3,36z"/>
			</g>
		</g>
	</g>
</g>
<g>
	<g>
		<g>
			<path class="st3" d="M59,55C59,55,59,55.1,59,55c0.1,0.2,0,0.3,0,0.4c0,0.1,0,0.2,0,0.3c0,0.1,0,0.1-0.2,0.2c0,0,0,0,0,0
				c0,0,0,0-0.1,0c-0.4,0-0.8,0-1.2,0c-0.2,0-0.2,0-0.2,0c0.1-0.1,0.1-0.2,0.2-0.2c0,0,0.1-0.1,0.1-0.1c-0.1-0.1,0-0.1,0-0.2
				c0-0.1-0.1-0.2-0.1-0.3c0-0.1,0.1-0.1,0.1-0.2c0,0-0.1-0.1-0.1-0.1c0-0.1,0-0.2-0.1-0.2c0-0.1,0-0.1,0.1-0.2
				c0.1-0.1,0.1-0.1-0.1-0.2c0,0,0.1,0,0,0l0,0c0,0,0,0,0,0l0,0c0.1,0,0-0.1,0-0.1c0-0.1-0.1-0.1,0-0.2c0.1,0,0.1-0.1,0-0.1
				c0,0,0.1-0.1,0-0.1c-0.2,0,0.2,0,0.4,0c0.1,0,0.2,0,0.3,0c0.3,0,0.4,0,0.8,0c0.2,0,0.2,0,0.2,0c0.2,0.1,0.1,0.3,0.1,0.4
				c0,0.1,0.1,0.2,0,0.3c0,0.1-0.1,0.2,0,0.3c0,0.1,0,0.1,0,0.2c-0.1,0.1-0.1,0.1-0.1,0.2C58.9,54.9,58.9,55,59,55L59,55z"/>
		</g>
	</g>
</g>
<g>
	<g>
		<g>
			<path class="st3" d="M63.2,55.4c0,0,0,0.1,0,0.1c0.1,0.1,0,0.2,0,0.3c0,0.1,0,0.2,0,0.3c0,0.1,0,0.2-0.2,0.2c0,0,0,0,0,0
				c0,0,0,0-0.1,0c-0.4,0-0.8,0-1.2,0c-0.2,0-0.2,0-0.2,0c0.1-0.1,0.1-0.2,0.2-0.3c0,0,0.1-0.1,0.1-0.1c-0.1-0.1,0-0.1,0-0.2
				c0-0.1-0.1-0.2-0.1-0.4c0-0.1,0.1-0.2,0.1-0.2c0-0.1-0.1-0.1-0.1-0.2c0-0.1,0-0.2-0.1-0.3c0-0.1,0-0.2,0.1-0.2
				c0.1-0.1,0.1-0.2-0.1-0.2c0,0,0.1,0,0,0l0,0c0,0,0,0,0,0l0,0c0.1,0,0-0.1,0-0.1c0-0.1-0.1-0.1,0-0.2c0.1,0,0.1-0.1,0-0.1
				c0,0,0.1-0.1,0-0.1c-0.2,0,0.2,0,0.4,0c0.1,0,0.2,0,0.3,0c0.3,0,0.4,0,0.8,0c0.2,0,0.2,0,0.2,0c0.2,0.2,0.1,0.3,0.1,0.5
				c0,0.1,0.1,0.2,0,0.3c0,0.1-0.1,0.2,0,0.3c0,0.1,0,0.1,0,0.2c-0.1,0.1-0.1,0.1-0.1,0.2C63.2,55.3,63.1,55.3,63.2,55.4L63.2,55.4z
				"/>
		</g>
	</g>
</g>
</svg>
