<?xml version="1.0" encoding="utf-8"?>
<!-- Generator: Adobe Illustrator 24.2.1, SVG Export Plug-In . SVG Version: 6.00 Build 0)  -->
<svg version="1.1" id="Layer_1" xmlns="http://www.w3.org/2000/svg" xmlns:xlink="http://www.w3.org/1999/xlink" x="0px" y="0px"
	 viewBox="0 0 58.7 23.7" style="enable-background:new 0 0 58.7 23.7;" xml:space="preserve">
<style type="text/css">
	.st0{fill:#4C81C3;}
</style>
<g>
	<polygon class="st0" points="58.7,1.7 49,1.7 49.6,0 58.7,0 	"/>
	<path class="st0" d="M32.7,0l9.1,0l0.6,1.7c0,0-9.7,0-9.7,0C32.7,1.7,32.7,0,32.7,0z"/>
	<path class="st0" d="M25.5,0c1.5,0.1,2.8,0.7,3.9,1.7c0,0-16.5,0-16.5,0c0,0,0-1.7,0-1.7L25.5,0z"/>
	<g>
		<rect x="0" y="0" class="st0" width="11.4" height="1.7"/>
		<path class="st0" d="M5.7,0.8"/>
	</g>
	<polygon class="st0" points="58.7,4.9 47.8,4.9 48.4,3.2 58.7,3.2 	"/>
	<polygon class="st0" points="43.5,4.9 32.7,4.9 32.7,3.2 42.9,3.2 	"/>
	<path class="st0" d="M30.7,3.2c0.2,0.6,0.5,1,0.5,1.7H12.9V3.2H30.7z"/>
	<g>
		<rect x="0" y="3.2" class="st0" width="11.4" height="1.7"/>
		<path class="st0" d="M5.7,4"/>
	</g>
	<polygon class="st0" points="46.7,8 47.3,6.3 55.5,6.3 55.5,8 	"/>
	<polygon class="st0" points="44,6.3 44.6,8 35.9,8 35.9,6.3 	"/>
	<path class="st0" d="M31.3,6.3c0,0.6-0.1,1.2-0.2,1.7h-5V6.3H31.3z"/>
	<g>
		<rect x="3.2" y="6.3" class="st0" width="4.9" height="1.7"/>
		<path class="st0" d="M5.6,7.2"/>
	</g>
	<g>
		<rect x="16.2" y="6.3" class="st0" width="4.9" height="1.7"/>
		<path class="st0" d="M18.7,7.2"/>
	</g>
	<polygon class="st0" points="40.7,9.8 40.7,11.1 35.9,11.1 35.9,9.4 45.1,9.4 45.7,11 46.2,9.4 55.5,9.4 55.5,11.1 50.7,11.1 
		50.7,9.8 50.3,11.1 41.2,11.1 	"/>
	<path class="st0" d="M16.2,9.4h14.1v0c-0.3,0.6-0.9,1.2-1.4,1.7c0,0-12.7,0-12.7,0C16.2,11.1,16.2,9.4,16.2,9.4z"/>
	<g>
		<rect x="3.2" y="9.4" class="st0" width="4.9" height="1.7"/>
		<path class="st0" d="M5.6,10.3"/>
	</g>
	<g>
		<rect x="50.7" y="12.6" class="st0" width="4.8" height="1.7"/>
		<path class="st0" d="M53.1,13.4"/>
	</g>
	<path class="st0" d="M40.7,12.6h-4.8v1.7c0,0,4.8,0,4.8,0C40.7,14.3,40.7,12.6,40.7,12.6z"/>
	<path class="st0" d="M49.7,12.6c0,0-0.6,1.7-0.6,1.7l-6.8,0c0,0-0.6-1.7-0.6-1.7H49.7z"/>
	<path class="st0" d="M16.2,12.6h12.7c0.6,0.5,1.1,1.1,1.5,1.7c0,0-14.2,0-14.2,0C16.2,14.3,16.2,12.6,16.2,12.6z"/>
	<polygon class="st0" points="8.1,14.3 8.1,12.6 3.2,12.6 3.2,14.3 	"/>
	<g>
		<rect x="50.7" y="15.8" class="st0" width="4.8" height="1.7"/>
		<path class="st0" d="M53.1,16.6"/>
	</g>
	<g>
		<rect x="35.9" y="15.8" class="st0" width="4.8" height="1.7"/>
		<path class="st0" d="M38.3,16.6"/>
	</g>
	<path class="st0" d="M48,17.5c0,0,0.6-1.7,0.6-1.7h-5.8c0,0,0.6,1.7,0.6,1.7S48,17.5,48,17.5z"/>
	<path class="st0" d="M16.2,17.4c0,0,0-1.7,0-1.7h5c0,0,0,1.7,0,1.7C21.2,17.4,16.2,17.4,16.2,17.4z"/>
	<path class="st0" d="M31.1,15.8c0.2,0.5,0.3,1.1,0.3,1.7h-5.3v-1.7H31.1z"/>
	<g>
		<rect x="3.2" y="15.8" class="st0" width="4.9" height="1.7"/>
		<path class="st0" d="M5.6,16.6"/>
	</g>
	<g>
		<rect x="50.7" y="18.9" class="st0" width="8" height="1.7"/>
		<path class="st0" d="M54.7,19.7"/>
	</g>
	<g>
		<rect x="32.7" y="18.9" class="st0" width="8.1" height="1.7"/>
		<path class="st0" d="M36.7,19.7"/>
	</g>
	<polygon class="st0" points="46.9,20.5 44.5,20.5 43.9,18.9 47.5,18.9 	"/>
	<path class="st0" d="M0,18.9v1.7h11.4c0,0,0-1.7,0-1.7C11.4,18.9,0,18.9,0,18.9z"/>
	<path class="st0" d="M31.2,18.9c-0.1,0.6-0.2,1.2-0.6,1.7l-0.2,0H12.9v-1.7H31.2z"/>
	<polygon class="st0" points="45.8,23.7 45.6,23.7 45,22 46.4,22 	"/>
	<g>
		<rect x="50.7" y="22" class="st0" width="8" height="1.7"/>
		<path class="st0" d="M54.7,22.9"/>
	</g>
	<path class="st0" d="M12.9,23.7V22c0,0,16.5,0,16.6,0c-1.1,1.1-2.6,1.7-4.3,1.7L12.9,23.7"/>
	<g>
		<rect x="32.7" y="22" class="st0" width="8.1" height="1.7"/>
		<path class="st0" d="M36.7,22.9"/>
	</g>
	<path class="st0" d="M11.4,22c0,0,0,1.7,0,1.7c0,0-11.4,0-11.4,0c0,0,0-1.7,0-1.7S11.4,22,11.4,22z"/>
</g>
</svg>
