<?xml version="1.0" encoding="utf-8"?>
<!-- Generator: Adobe Illustrator 16.0.0, SVG Export Plug-In . SVG Version: 6.00 Build 0)  -->
<!DOCTYPE svg PUBLIC "-//W3C//DTD SVG 1.1//EN" "http://www.w3.org/Graphics/SVG/1.1/DTD/svg11.dtd">
<svg version="1.1" id="Layer_1" xmlns="http://www.w3.org/2000/svg" xmlns:xlink="http://www.w3.org/1999/xlink" x="0px" y="0px"
	 width="163.403px" height="77.898px" viewBox="0 0 163.403 77.898" enable-background="new 0 0 163.403 77.898"
	 xml:space="preserve">
<path opacity="0.05" fill-rule="evenodd" clip-rule="evenodd" d="M0,39.267c0,40.071,55.094,54.992,82.312,14.188
	c28.207,42.305,81.091,24.571,81.091-14.25c0-38.822-52.634-57.487-81.091-14.141C55.344-17.783,0-0.805,0,39.267L0,39.267z
	 M14.467,39.267c0-28.916,40.865-38.043,59.875,0C54.958,75.896,14.467,68.183,14.467,39.267L14.467,39.267z M90.279,39.267
	c17.127-38.793,59.101-28.104,58.976,0.062C149.129,67.496,106.906,76.271,90.279,39.267z"/>
<rect x="29.826" y="35.207" opacity="0.05" fill-rule="evenodd" clip-rule="evenodd" width="24.25" height="8"/>
<polygon opacity="0.05" fill-rule="evenodd" clip-rule="evenodd" points="117.827,43.082 109.827,43.082 109.827,34.582 
	117.827,34.582 117.827,26.581 126.328,26.581 126.328,34.582 134.327,34.582 134.327,43.082 126.328,43.082 126.328,51.082 
	117.827,51.082 "/>
</svg>
