<?xml version="1.0" encoding="utf-8"?>
<!-- Generator: Adobe Illustrator 16.0.0, SVG Export Plug-In . SVG Version: 6.00 Build 0)  -->
<!DOCTYPE svg PUBLIC "-//W3C//DTD SVG 1.1//EN" "http://www.w3.org/Graphics/SVG/1.1/DTD/svg11.dtd">
<svg version="1.1" id="Layer_1" xmlns="http://www.w3.org/2000/svg" xmlns:xlink="http://www.w3.org/1999/xlink" x="0px" y="0px"
	 width="300px" height="300px" viewBox="0 0 300 300" enable-background="new 0 0 300 300" xml:space="preserve">
<g opacity="0.05">
	<path fill-rule="evenodd" clip-rule="evenodd" d="M139.207,240.521c-1.176-0.08-2.373-0.058-3.528-0.256
		c-22.553-3.866-41.197,2.022-57.685,18.846c-8.42,8.593-20.193,15.05-31.629,19.29c-22.629,8.388-42.114-5.563-41.972-29.578
		c0.223-37.508,12.942-70.844,38.097-98.689c18.297-20.253,36.538-22.696,61.11-10.622c9.485,4.661,18.783,10.101,28.778,13.235
		c15.657,4.91,31.126,1.994,46.266-4.074c8.245-3.303,16.935-6.348,25.675-7.377c17.121-2.014,30.262,6.499,39.878,19.776
		c23.048,31.819,31.418,67.765,26.525,106.455c-2.819,22.294-22.923,33.579-43.529,24.599c-9.044-3.939-16.979-10.799-24.749-17.151
		c-4.667-3.815-8.543-8.878-11.895-13.96c-8.727-13.226-21.222-18.797-36.514-19.455c-4.949-0.212-9.888-0.652-14.832-0.987
		C139.205,240.555,139.206,240.537,139.207,240.521z M65.961,201.053c-0.329,4.845-0.646,8.584-0.823,12.33
		c-0.353,7.455,2.755,11.944,8.505,12.43c5.952,0.501,10.07-3.769,10.786-11.338c0.368-3.884,0.548-7.786,0.84-12.087
		c4.397,0.299,7.669,0.556,10.944,0.736c8.424,0.464,13.21-2.562,13.774-8.661c0.591-6.387-3.814-10-12.847-10.713
		c-3.397-0.268-6.771-0.822-10.602-1.3c0.36-5.298,1.006-9.759,0.877-14.194c-0.163-5.616-3.169-9.653-8.976-9.971
		c-5.745-0.314-9.205,3.105-10.051,8.831c-0.652,4.404,0.441,10.752-2.048,12.761c-2.863,2.311-8.812,0.792-13.42,0.946
		c-6.031,0.202-10.214,3.1-10.455,9.233c-0.241,6.158,3.833,9.358,9.737,10.025C56.375,200.553,60.583,200.688,65.961,201.053z
		 M216.995,223.672c0.316-6.588-5.501-12.926-12.049-13.125c-6.414-0.196-12.43,5.151-12.935,11.498
		c-0.532,6.659,4.96,12.935,11.698,13.37C210.561,235.857,216.669,230.461,216.995,223.672z M206.982,186.501
		c6.656,0.422,13.084-5.343,13.341-11.965c0.257-6.609-4.87-12.153-11.694-12.646c-6.805-0.49-12.616,4.362-13.182,11.003
		C194.859,179.793,200.181,186.07,206.982,186.501z M180.97,209.158c7.04,0.372,12.723-4.88,12.973-11.987
		c0.238-6.79-4.7-12.101-11.643-12.522c-6.763-0.412-12.43,4.504-12.923,11.217C168.853,203.01,173.887,208.784,180.97,209.158z
		 M243.068,201.305c0.574-6.533-4.407-12.581-10.967-13.32c-7.12-0.799-13.081,4.062-13.675,11.15
		c-0.572,6.836,4.104,12.569,10.844,13.29C236.328,213.181,242.458,208.238,243.068,201.305z"/>
	<path fill-rule="evenodd" clip-rule="evenodd" d="M137.019,139.619c4.234-29.221,25.9-47.511,53.672-46.427
		c7.546,0.295,15.073,1.017,22.615,1.466c20.922,1.245,37.136-11.302,41.207-31.825c0.413-2.083,0.196-5.021,1.483-6.05
		c2.831-2.269,6.485-5.04,9.714-4.932c5.128,0.174,7.097,4.466,6.888,9.703c-0.877,21.99-16.845,42.834-39.252,48.319
		c-10.063,2.464-20.979,1.445-31.507,2.015c-8.396,0.454-17.011-0.104-25.127,1.647c-9.492,2.047-15.643,9.188-19.601,18.045
		c-1.376,3.08-2.493,8.231-4.534,8.667C147.813,141.263,142.561,139.995,137.019,139.619z"/>
</g>
</svg>
