<?xml version="1.0" encoding="utf-8"?>
<!-- Generator: Adobe Illustrator 16.0.0, SVG Export Plug-In . SVG Version: 6.00 Build 0)  -->
<!DOCTYPE svg PUBLIC "-//W3C//DTD SVG 1.1//EN" "http://www.w3.org/Graphics/SVG/1.1/DTD/svg11.dtd">
<svg version="1.1" id="Layer_1" xmlns="http://www.w3.org/2000/svg" xmlns:xlink="http://www.w3.org/1999/xlink" x="0px" y="0px"
	 width="156.094px" height="116.053px" viewBox="0 0 156.094 116.053" enable-background="new 0 0 156.094 116.053"
	 xml:space="preserve">
<g opacity="0.05">
	<path fill-rule="evenodd" clip-rule="evenodd" d="M20.037,37.79c-0.046-0.428-0.081-0.748-0.115-1.07
		c-0.378-3.512-0.758-7.022-1.132-10.534c-0.183-1.724,0.596-2.685,2.326-2.871c31.781-3.421,63.562-6.841,95.343-10.26
		c1.719-0.185,2.673,0.576,2.869,2.334c0.453,4.08,0.884,8.162,1.323,12.244c1.721,15.995,3.482,31.987,5.129,47.991
		c0.328,3.195,0.448,6.449,0.256,9.652c-0.442,7.361-4.494,12.113-11.291,14.666c-3.322,1.246-6.761,2.025-10.28,2.408
		c-27.034,2.943-54.072,5.859-81.107,8.805c-4.519,0.492-7.934-1.252-10.413-4.951c-1.802-2.689-2.621-5.748-3.012-8.918
		c-0.55-4.461-1.044-8.932-1.539-13.4C7.62,76.896,6.877,69.903,6.1,62.913c-0.764-6.869-1.558-13.732-2.333-20.598
		c-0.217-1.92,0.516-2.828,2.426-3.035c4.261-0.459,8.522-0.918,12.784-1.375C19.299,37.87,19.621,37.835,20.037,37.79z
		 M23.565,27.684c0.049,0.455,0.093,0.864,0.137,1.272c2.464,22.9,4.919,45.8,7.402,68.697c0.294,2.711,0.248,5.355-0.873,7.898
		c-0.018,0.037,0.033,0.107,0.074,0.23c0.311-0.033,0.636-0.068,0.96-0.102c23.379-2.518,46.76-5.031,70.138-7.551
		c3.902-0.42,7.773-0.992,11.491-2.35c5.174-1.887,8.284-5.424,8.628-11.016c0.15-2.455,0.091-4.953-0.166-7.4
		c-2.05-19.514-4.171-39.018-6.27-58.525c-0.035-0.318-0.069-0.638-0.107-0.992C84.472,21.13,54.084,24.4,23.565,27.684z
		 M8.526,43.659c0.039,0.363,0.071,0.684,0.108,1.006c0.251,2.158,0.517,4.312,0.753,6.471c1.194,10.859,2.371,21.725,3.573,32.58
		c0.485,4.379,0.98,8.758,1.544,13.125c0.38,2.941,1.217,5.744,3.346,7.949c3,3.104,7.405,2.002,8.514-2.168
		c0.309-1.162,0.354-2.461,0.228-3.664c-1.958-18.551-3.965-37.094-5.961-55.641c-0.034-0.314-0.067-0.629-0.102-0.949
		C16.472,42.804,12.552,43.226,8.526,43.659z"/>
	<path fill-rule="evenodd" clip-rule="evenodd" d="M41.775,72.37c-0.959-8.914-1.911-17.756-2.869-26.656
		c21.877-2.355,43.711-4.703,65.613-7.061c0.955,8.877,1.909,17.736,2.869,26.656C85.533,67.661,63.702,70.011,41.775,72.37z"/>
	<path fill-rule="evenodd" clip-rule="evenodd" d="M70.768,31.269c10.501-1.13,21.001-2.254,31.5-3.398
		c1.064-0.117,1.923,0.132,2.477,1.078c0.759,1.296,0.082,2.913-1.377,3.324c-0.286,0.081-0.593,0.104-0.893,0.137
		c-20.879,2.248-41.759,4.495-62.64,6.743c-1.494,0.16-2.458-0.283-2.876-1.312c-0.614-1.518,0.315-2.964,2.04-3.15
		c7.739-0.837,15.479-1.668,23.22-2.5C65.069,31.881,67.918,31.575,70.768,31.269z"/>
	<path fill-rule="evenodd" clip-rule="evenodd" d="M57.148,78.851c-4.049,0.436-8.098,0.865-12.146,1.312
		c-0.697,0.076-1.332,0.043-1.78-0.586c-0.687-0.961-0.146-2.203,1.071-2.369c1.344-0.186,2.697-0.301,4.046-0.447
		c6.898-0.742,13.8-1.451,20.691-2.252c1.414-0.164,2.35,0.908,1.922,2.02c-0.276,0.715-0.856,0.938-1.569,1.012
		C65.306,77.966,61.227,78.411,57.148,78.851z"/>
	<path fill-rule="evenodd" clip-rule="evenodd" d="M57.859,85.515c-4.109,0.441-8.216,0.887-12.326,1.322
		c-1.165,0.123-1.803-0.393-1.851-1.438c-0.037-0.783,0.41-1.359,1.249-1.512c0.622-0.111,1.256-0.154,1.886-0.223
		c7.496-0.807,14.994-1.613,22.491-2.42c0.27-0.029,0.539-0.072,0.81-0.08c0.888-0.025,1.567,0.523,1.661,1.332
		c0.098,0.842-0.479,1.559-1.417,1.666c-2.876,0.324-5.755,0.625-8.635,0.934C60.438,85.235,59.148,85.376,57.859,85.515z"/>
	<path fill-rule="evenodd" clip-rule="evenodd" d="M93.943,74.892c-3.958,0.426-7.918,0.852-11.877,1.275
		c-0.3,0.033-0.602,0.082-0.901,0.07c-0.782-0.033-1.374-0.602-1.421-1.373c-0.049-0.791,0.322-1.326,1.084-1.566
		c0.227-0.068,0.474-0.084,0.714-0.109c8.067-0.867,16.136-1.736,24.203-2.604c0.12-0.014,0.24-0.031,0.36-0.037
		c0.991-0.055,1.625,0.432,1.725,1.316c0.099,0.883-0.418,1.543-1.381,1.672c-1.164,0.156-2.338,0.26-3.508,0.387
		C99.943,74.245,96.943,74.567,93.943,74.892z"/>
	<path fill-rule="evenodd" clip-rule="evenodd" d="M94.571,81.563c-4.11,0.441-8.219,0.889-12.328,1.322
		c-0.975,0.104-1.651-0.4-1.775-1.252c-0.131-0.896,0.424-1.576,1.422-1.736c0.239-0.041,0.479-0.059,0.72-0.084
		c5.039-0.543,10.078-1.084,15.119-1.627c2.908-0.312,5.817-0.629,8.729-0.934c0.355-0.035,0.742-0.072,1.072,0.029
		c0.713,0.223,1.081,0.779,1.028,1.523c-0.062,0.828-0.549,1.311-1.389,1.4c-2.34,0.254-4.68,0.506-7.019,0.758
		C98.291,81.163,96.43,81.362,94.571,81.563z"/>
	<path fill-rule="evenodd" clip-rule="evenodd" d="M95.289,88.226c-4.108,0.441-8.215,0.912-12.33,1.289
		c-0.494,0.047-1.219-0.273-1.499-0.664c-0.257-0.357-0.246-1.166-0.001-1.551c0.254-0.4,0.911-0.676,1.429-0.748
		c1.909-0.275,3.833-0.441,5.754-0.648c6.028-0.648,12.058-1.297,18.088-1.945c0.329-0.035,0.66-0.08,0.99-0.08
		c0.911,0.014,1.499,0.562,1.557,1.42c0.057,0.857-0.452,1.461-1.389,1.566c-3.928,0.436-7.857,0.852-11.788,1.273
		C95.83,88.167,95.56,88.196,95.289,88.226z"/>
	<path fill-rule="evenodd" clip-rule="evenodd" d="M58.58,92.177c-4.139,0.445-8.278,0.885-12.417,1.342
		c-0.749,0.082-1.344-0.135-1.636-0.826c-0.275-0.652-0.228-1.328,0.395-1.797c0.251-0.189,0.587-0.334,0.899-0.369
		c8.306-0.908,16.614-1.801,24.922-2.684c0.68-0.074,1.352,0.129,1.54,0.822c0.131,0.488,0.098,1.164-0.158,1.572
		c-0.216,0.346-0.842,0.549-1.312,0.604C66.739,91.313,62.658,91.737,58.58,92.177z"/>
</g>
</svg>
