<?xml version="1.0" encoding="utf-8"?>
<!-- Generator: Adobe Illustrator 16.0.0, SVG Export Plug-In . SVG Version: 6.00 Build 0)  -->
<!DOCTYPE svg PUBLIC "-//W3C//DTD SVG 1.1//EN" "http://www.w3.org/Graphics/SVG/1.1/DTD/svg11.dtd">
<svg version="1.1" id="Layer_1" xmlns="http://www.w3.org/2000/svg" xmlns:xlink="http://www.w3.org/1999/xlink" x="0px" y="0px"
	 width="99.687px" height="100.141px" viewBox="0 0 99.687 100.141" enable-background="new 0 0 99.687 100.141"
	 xml:space="preserve">
<path fill="#176273" d="M90.506,50.476l-0.173-4.066c3.161-1.315,6.279-2.887,9.354-4.701c-0.233-1.92-0.835-3.768-1.271-5.644
	c-3.593-0.52-7.231-0.712-10.702-0.646c-0.453-1.278-1.121-2.469-1.672-3.707c-0.602-1.216-1.359-2.349-2.034-3.521
	c2.225-2.67,4.206-5.482,6.088-8.525c-1.09-1.593-2.486-2.937-3.743-4.392c-3.417,1.213-6.73,2.734-9.771,4.402
	c-1.001-0.911-2.133-1.67-3.195-2.509c-1.106-0.787-2.295-1.452-3.436-2.181c0.723-3.377,1.19-6.807,1.439-10.375
	c-1.709-0.901-3.577-1.448-5.368-2.158c-2.469,2.661-4.694,5.557-6.607,8.451c-1.312-0.365-2.671-0.476-4-0.724
	c-1.338-0.23-2.703-0.206-4.052-0.316C50.428,6.446,49.247,3.277,47.815,0c-1.924,0.02-3.832,0.3-5.738,0.591
	c-0.963,3.435-1.59,7.054-1.936,10.537c-1.333,0.277-2.607,0.748-3.881,1.211c-1.299,0.406-2.512,1.021-3.742,1.6
	c-2.397-2.566-4.969-4.906-7.736-7.092c-1.688,0.942-3.27,2.035-4.801,3.205c0.756,3.498,1.874,6.969,3.197,10.224
	c-1.047,0.867-1.955,1.877-2.873,2.875c-0.961,0.962-1.744,2.075-2.567,3.15c-3.323-1.162-6.667-2.041-10.144-2.698
	c-1.062,1.61-1.946,3.325-2.771,5.072c2.285,2.745,4.897,5.31,7.578,7.574c-0.53,1.254-0.867,2.57-1.204,3.885
	c-0.406,1.297-0.592,2.646-0.804,3.984C6.924,44.64,3.504,45.419,0.16,46.457c-0.15,1.921-0.226,3.839-0.085,5.761
	c3.348,1.362,6.72,2.429,10.22,3.188c0.186,1.344,0.349,2.691,0.729,3.997c0.313,1.321,0.631,2.641,1.133,3.903
	c-2.752,2.04-5.541,4.372-7.987,6.837c0.823,1.74,1.579,3.523,2.62,5.146c3.631-0.367,7.074-0.973,10.528-1.937
	c0.808,1.09,1.566,2.213,2.513,3.192c0.899,1.016,1.789,2.04,2.818,2.925c-1.491,3.089-2.875,6.439-3.902,9.759
	c1.529,1.167,3.029,2.377,4.698,3.344c3.044-2.003,5.825-4.144,8.435-6.599c1.219,0.599,2.418,1.235,3.709,1.665
	c1.266,0.487,2.531,0.977,3.858,1.281c0.119,3.42,0.456,7.04,1.094,10.459c1.901,0.283,3.794,0.714,5.719,0.762
	c1.753-3.236,3.215-6.362,4.385-9.757c1.352-0.085,2.716-0.039,4.058-0.243c1.336-0.224,2.699-0.312,4.013-0.649
	c1.694,2.984,3.636,5.917,5.821,8.764c1.822-0.621,3.666-1.217,5.434-1.983c0.057-3.679-0.145-7.211-0.648-10.68
	c1.154-0.707,2.354-1.354,3.473-2.116c1.078-0.822,2.225-1.56,3.24-2.453c2.891,1.852,5.973,3.542,9.225,5.049
	c1.322-1.394,2.676-2.77,3.883-4.269c-1.66-3.286-3.465-6.313-5.528-9.162c0.695-1.165,1.472-2.28,2.094-3.483
	c0.579-1.23,1.265-2.408,1.738-3.679c3.417,0.301,6.935,0.366,10.518,0.184c0.529-1.85,1.072-3.712,1.456-5.596
	c-2.992-2.138-6.048-3.98-9.155-5.529L90.506,50.476z M49.668,65.563c-8.545-0.074-15.406-7.062-15.332-15.605
	c0.077-8.545,7.062-15.409,15.607-15.334c8.546,0.075,15.408,7.062,15.332,15.606C65.201,58.777,58.213,65.642,49.668,65.563z"/>
<circle fill="#176273" cx="49.843" cy="50.07" r="7.702"/>
</svg>
