<?xml version="1.0" encoding="utf-8"?>
<!-- Generator: Adobe Illustrator 16.0.0, SVG Export Plug-In . SVG Version: 6.00 Build 0)  -->
<!DOCTYPE svg PUBLIC "-//W3C//DTD SVG 1.1//EN" "http://www.w3.org/Graphics/SVG/1.1/DTD/svg11.dtd">
<svg version="1.1" id="Layer_1" xmlns="http://www.w3.org/2000/svg" xmlns:xlink="http://www.w3.org/1999/xlink" x="0px" y="0px"
	 width="133.979px" height="72.927px" viewBox="0 0 133.979 72.927" enable-background="new 0 0 133.979 72.927"
	 xml:space="preserve">
<g>
	<path fill="#448E49" d="M129.912,72.927c-4.98,0-122.141,0-125.927,0S0,67.746,0,67.746h133.897
		C133.897,67.746,134.895,72.927,129.912,72.927z"/>
	<path fill="#448E49" d="M116.165,0H17.752c-1.32,0-2.391,1.07-2.391,2.392v65.354h103.194V2.392C118.556,1.07,117.484,0,116.165,0z
		 M66.949,1.897c0.302,0,0.546,0.243,0.546,0.546c0,0.302-0.244,0.546-0.546,0.546s-0.546-0.244-0.546-0.546
		C66.403,2.141,66.647,1.897,66.949,1.897z M113.374,63.761H20.523V4.98h92.851V63.761z"/>
</g>
</svg>
