<?xml version="1.0" encoding="utf-8"?>
<!-- Generator: Adobe Illustrator 16.0.0, SVG Export Plug-In . SVG Version: 6.00 Build 0)  -->
<!DOCTYPE svg PUBLIC "-//W3C//DTD SVG 1.1//EN" "http://www.w3.org/Graphics/SVG/1.1/DTD/svg11.dtd">
<svg version="1.1" id="Layer_1" xmlns="http://www.w3.org/2000/svg" xmlns:xlink="http://www.w3.org/1999/xlink" x="0px" y="0px"
	 width="13.131px" height="17.975px" viewBox="0 0 13.131 17.975" enable-background="new 0 0 13.131 17.975" xml:space="preserve">
<g>
	<g>
		<g>
			<polygon fill="#176273" points="8.612,450.996 0,447.305 0,439.894 8.612,436.205 			"/>
		</g>
		<g>
			<polygon fill="#176273" points="8.612,430.246 0,426.555 0,419.144 8.612,415.455 			"/>
		</g>
		<g>
			<polygon fill="#176273" points="8.612,409.496 0,405.805 0,398.394 8.612,394.705 			"/>
		</g>
		<g>
			<polygon fill="#176273" points="8.612,388.746 0,385.055 0,377.644 8.612,373.955 			"/>
		</g>
		<g>
			<polygon fill="#176273" points="8.612,367.996 0,364.305 0,356.894 8.612,353.205 			"/>
		</g>
		<g>
			<polygon fill="#176273" points="8.612,347.246 0,343.555 0,336.144 8.612,332.455 			"/>
		</g>
		<g>
			<polygon fill="#176273" points="8.612,326.496 0,322.805 0,315.394 8.612,311.705 			"/>
		</g>
		<g>
			<polygon fill="#176273" points="8.612,305.746 0,302.055 0,294.644 8.612,290.955 			"/>
		</g>
		<g>
			<polygon fill="#176273" points="8.612,284.996 0,281.305 0,273.894 8.612,270.205 			"/>
		</g>
		<g>
			<polygon fill="#176273" points="8.612,264.246 0,260.555 0,253.144 8.612,249.455 			"/>
		</g>
		<g>
			<polygon fill="#176273" points="8.612,243.496 0,239.805 0,232.394 8.612,228.705 			"/>
		</g>
		<g>
			<polygon fill="#176273" points="8.612,222.746 0,219.055 0,211.644 8.612,207.955 			"/>
		</g>
		<g>
			<polygon fill="#176273" points="8.612,201.996 0,198.305 0,190.894 8.612,187.205 			"/>
		</g>
		<g>
			<polygon fill="#176273" points="8.612,181.246 0,177.555 0,170.144 8.612,166.455 			"/>
		</g>
		<g>
			<polygon fill="#176273" points="8.612,160.496 0,156.805 0,149.394 8.612,145.705 			"/>
		</g>
		<g>
			<polygon fill="#176273" points="8.612,139.746 0,136.055 0,128.644 8.612,124.955 			"/>
		</g>
		<g>
			<polygon fill="#176273" points="8.612,118.996 0,115.305 0,107.894 8.612,104.205 			"/>
		</g>
		<g>
			<polygon fill="#176273" points="8.612,98.246 0,94.555 0,87.144 8.612,83.455 			"/>
		</g>
		<g>
			<polygon fill="#176273" points="8.612,77.496 0,73.805 0,66.394 8.612,62.705 			"/>
		</g>
		<g>
			<polygon fill="#176273" points="8.612,56.746 0,53.055 0,45.644 8.612,41.955 			"/>
		</g>
		<g>
			<polygon fill="#176273" points="8.612,35.996 0,32.305 0,24.894 8.612,21.205 			"/>
		</g>
		<g>
			<polygon fill="#176273" points="8.612,15.246 0,11.555 0,4.144 8.612,0.455 			"/>
		</g>
	</g>
	<rect x="7.839" fill="#176273" width="5.292" height="451.517"/>
</g>
</svg>
