<?xml version="1.0" encoding="utf-8"?>
<!-- Generator: Adobe Illustrator 24.2.1, SVG Export Plug-In . SVG Version: 6.00 Build 0)  -->
<svg version="1.1" id="Layer_1" xmlns="http://www.w3.org/2000/svg" xmlns:xlink="http://www.w3.org/1999/xlink" x="0px" y="0px"
	 viewBox="0 0 11.4 11.4" style="enable-background:new 0 0 11.4 11.4;" xml:space="preserve">
<style type="text/css">
	.st0{fill:#4F9141;}
	.st1{fill:none;stroke:#4F9141;stroke-linecap:round;stroke-linejoin:round;stroke-miterlimit:10;}
</style>
<g>
	<g>
		<path class="st0" d="M5.7,0c3.1,0,5.7,2.5,5.7,5.7c0,3.1-2.6,5.7-5.7,5.7C2.5,11.4,0,8.8,0,5.6C0,2.5,2.6,0,5.7,0z M10.5,5.7
			c0-2.6-2.1-4.8-4.8-4.8C3,0.9,0.9,3,0.9,5.7c0,2.6,2.1,4.8,4.8,4.8C8.3,10.5,10.5,8.3,10.5,5.7z"/>
		<g>
			<line class="st1" x1="7.9" y1="4.2" x2="4.9" y2="7.2"/>
			<line class="st1" x1="3.5" y1="5.8" x2="4.9" y2="7.2"/>
		</g>
	</g>
</g>
</svg>
