<?xml version="1.0" encoding="utf-8"?>
<!-- Generator: Adobe Illustrator 24.2.1, SVG Export Plug-In . SVG Version: 6.00 Build 0)  -->
<svg version="1.1" id="Layer_1" xmlns="http://www.w3.org/2000/svg" xmlns:xlink="http://www.w3.org/1999/xlink" x="0px" y="0px"
	 viewBox="0 0 107.6 120.2" style="enable-background:new 0 0 107.6 120.2;" xml:space="preserve">
<style type="text/css">
	.st0{opacity:0.25;}
	.st1{fill:#386A7C;}
	.st2{fill:#D2D2D2;}
	.st3{fill:#FFFFFF;}
	.st4{fill:#221F1F;}
	.st5{fill:#EFEEEE;}
</style>
<g>
	<g class="st0">
		<path class="st1" d="M71.4,35.8c-5-8.7-17.4-31.1-19.8-31.4C50.1,4.2,30.4,32.9,25,39.9c-4.8,6.3-12.8,12.8-15.7,20.2
			c-0.7,1.8,14.5-1.3,32,0.2c13.9,1.2,29.3,7.1,39.3,7.6c3.4,0.2,5.4-3.2,4.8-6.1C86.7,59.7,73,37.4,71.4,35.8z"/>
		<g>
			<path class="st1" d="M51.9,46.4c0,18.6,0,37.2,0,55.8c18.6-0.8,32.2-0.4,55.6,1.7c0-18.2,0-35,0.1-53.2c0-0.6,0-1.3-0.5-1.7
				c-0.4-0.4-1.1-0.4-1.7-0.4C90,48.6,67.3,46.4,51.9,46.4"/>
		</g>
		<g>
			<path class="st1" d="M68.3,66.9C57.2,58.3,38,55.3,26.2,63.8c-7.1,2.4-12.6,7.3-15.4,15.1c-3.1,8.6-0.8,18.7,4.5,26
				c5.7,7.8,14.7,14.2,24.4,15.3c8.4,0.9,17.4-2.4,24.1-7.4c7-5.1,12.4-12,13.8-20.7C79.2,82.4,76,73,68.3,66.9z M54,86.3
				c0,0,0,0.1,0.1,0.1c0,0,0,0.1,0,0.1C54,86.5,54,86.5,54,86.3C54,86.4,54,86.4,54,86.3z M40.3,83.2c0,0,0.1,0,0.1,0
				C40.5,83.2,40.4,83.2,40.3,83.2C40.4,83.2,40.3,83.2,40.3,83.2C40.3,83.2,40.3,83.2,40.3,83.2z M40.6,83.1c0,0,0.1,0,0.1,0
				C40.7,83.1,40.6,83.1,40.6,83.1C40.6,83.1,40.6,83.1,40.6,83.1z M33.7,86.2C33.7,86.2,33.7,86.2,33.7,86.2c0,0.1,0,0.1-0.1,0.2
				C33.7,86.3,33.7,86.3,33.7,86.2C33.7,86.2,33.7,86.2,33.7,86.2z"/>
			<g>
				<path class="st1" d="M24.5,69.4c-5.2,0.5-9.7,4.3-11.8,9.1s-2.1,10.3-0.9,15.3c2.3,9.2,8.6,17.3,17,21.7
					c8.4,4.4,18.6,5.1,27.5,1.7c9.8-3.7,17.7-12.3,19.9-22.6S74.7,73,66.5,66.5c-10.6-8.3-25.8-7.5-38.6-3.2
					c-1.8,0.6-3.8,1.5-4.4,3.3"/>
			</g>
		</g>
	</g>
	<g>
		<path class="st2" d="M63.5,32.2C58.5,23.5,46,1.1,43.7,0.8c-1.4-0.2-21.2,28.5-26.5,35.5C12.3,42.6,4.3,49,1.5,56.5
			c-1.2,3.3-1.1,7.5,2,7.5c0.4,0.1,0.8,0.1,1.2,0.1c22.7-0.9,45.4-0.8,68.1,0.2c3.4,0.2,5.4-3.2,4.8-6.1
			C78.8,56.1,65.2,33.8,63.5,32.2z"/>
		<path class="st3" d="M98.3,42.7c-2,0-10.1-1.5-12.3-1.2c-4.4,0.7-36.5-2.2-41-1.2c-1.8,0.4-2.1,2.6-1.1,3.9
			c-0.2,0.3-0.3,0.7-0.3,1.1c0,1.8-1,29.5,0.2,37.3c0,0.5,0,0.9,0,1.4c-0.1,4-0.5,8,0.1,12c0.1,0.9,1.2,1.6,2,1.7
			c1,0.1,37.4-0.1,51.9,1.3c1.3,0.1,2.4-1.2,2.4-2.4c0.2-17.2,0.4-34.4,0.6-51.6C100.7,43.8,99.5,42.7,98.3,42.7z"/>
		<g>
			<g>
				<g>
					<path class="st4" d="M31.2,61.9c3.4,0.2,6.7-0.3,10.1-0.3c5.6-0.1,11.2-0.1,16.8-0.4c3.8-0.2,7.7-0.4,11.5-0.5l5.7-0.2l2.9-0.1
						l1.8,0c-0.4-0.6-1.9-3.1-3-4.9l-3.6-5.8C66.1,38,58.4,26.4,50.6,15c-1.5-2.1-2.8-4.3-4.2-6.5l-2-3.3l-0.9-1.6l-0.3-0.6
						l-0.5,0.7l-1.2,1.8l-2.4,3.5C32.6,18.3,25.8,27.3,18.7,36c-2.5,3.1-5.2,6.1-7.9,9c-2.7,2.9-5.5,5.7-7.5,9
						c-0.5,0.8-0.9,1.7-1.1,2.6c-0.4,1.5-1,2.1-1.7,2.3c-0.7,0.2-0.7-1-0.3-2.1c0.8-2.4,2.2-4.5,3.7-6.4c1.5-1.9,3.2-3.7,4.8-5.5
						c8.4-9.5,16.3-19.4,23.7-29.7c1.7-2.3,3.4-4.6,5-7C38.4,7,39.2,5.8,40,4.6l1.2-1.8L43.1,0c0.7,1.1,1.4,2.2,2.1,3.3
						c4.6,7,9.1,13.9,13.7,20.9c4.8,7.3,9.7,14.6,14.3,22.2l4.3,7l5.3,8.5l-11.6,0.5l-9.9,0.4c-8.6,0.3-17.2,0.8-25.7,0.8
						c-5.8,0-11.5,0.2-17.3,0.3c-2.9,0.1-5.8,0.1-8.7,0.1c-1.4,0-2.9,0-4.4,0c-1.5-0.1-3-0.3-4.4-1.1c-0.7-0.4-1-0.8-1-1.1
						c0-0.3,0.1-0.5,0.3-0.7c0.3-0.3,0.7-0.2,1.3,0.2c0.9,0.5,2,0.7,3.1,0.8c1.2,0.1,2.4,0.1,3.7,0.1l7.6,0L31.2,61.9L31.2,61.9z"/>
				</g>
			</g>
		</g>
		<g>
			<path class="st3" d="M44.9,40.9c0,18.6,0,37.2,0,55.8c18.6-0.8,32.2-0.4,55.6,1.7c0-18.2,0-35,0.1-53.2c0-0.6,0-1.3-0.5-1.7
				c-0.4-0.4-1.1-0.4-1.7-0.4C83,43.1,60.4,40.9,44.9,40.9"/>
			<g>
				<g>
					<path class="st4" d="M76.4,41.3c3.3,0.5,6.7,0.2,10,0.4c2.8,0.2,5.5,0.3,8.3,0.4c1.4,0.1,2.7,0.1,4.2,0.1
						c0.4,0,0.8,0.1,1.3,0.3c0.5,0.2,0.9,0.7,1,1.2c0.2,0.5,0.2,0.9,0.2,1.3l0,1c0.1,12.1-0.3,24.1-0.4,36.2l0,8.1l0,8.5l-3.6-0.3
						l-3.1-0.2L88.1,98c-4.2-0.2-8.3-0.3-12.5-0.4c-7.9-0.1-15.8-0.7-23.7-0.5l-7.7,0.3l-0.1-13.9c0-4.4-0.1-8.8-0.2-13.2
						c-0.2-7.9,0.2-15.7,0-23.5c0-1-0.1-2-0.2-3c-0.3-1.7,0.3-2.5,0.9-2.9c0.7-0.4,0.8,0.8,0.8,1.9c0,4.8,0,9.6,0.1,14.5
						c0.2,12.6,0.4,25.1,0.4,37.7l0,0.7l3.6-0.1l4.5-0.1c3,0,6-0.1,9-0.1c8.3-0.1,16.5,0.3,24.8,0.8l6.5,0.4l3.2,0.2l1.6,0.1
						c0.2,0,0.2,0,0.2,0l0,0l0,0l0,0l0,0l0,0l0-0.2l0-1.7l0-3.3c0-2.2,0-4.4,0.1-6.6c0.3-11.9,0.3-23.9,0.4-35.9l0-3.2
						c0-0.5,0-1.1,0-1.5c-0.1-0.4-0.1-0.5-0.3-0.6c-0.2-0.1-0.6-0.1-1.2-0.1l-1.6,0l-3.2,0c-4.3-0.1-8.5-0.3-12.7-0.6
						c-11.4-0.8-22.8-1.3-34.2-1.9c-1.5-0.1-1.6-0.6-1.6-1.1c-0.1-0.4,0.4-0.6,1.4-0.6C56.4,39.9,66.4,40.7,76.4,41.3L76.4,41.3z"/>
				</g>
			</g>
		</g>
		<g>
			<g>
				<path class="st4" d="M47.1,97.2c2.6-0.2,5.1-0.2,7.7-0.2c1.2,0,2.4-1.1,2.4-2.4c-0.1-1.3-1-2.4-2.4-2.4c-2.6,0-5.1,0-7.7,0.2
					c-1.2,0.1-2.4,1-2.4,2.4C44.8,96.1,45.8,97.3,47.1,97.2L47.1,97.2z"/>
			</g>
		</g>
		<g>
			<path class="st5" d="M63.3,61.4c-11.1-8.7-28.3-8.1-39.2-4.1c-6.8,2.8-2.9,1.2-5,5.1c-1.4,2.6-10.6,5.1-12,8
				c-0.5,0.9-0.9,1.9-1.3,3c-3.1,8.6-0.8,18.7,4.5,26c5.7,7.8,14.7,14.2,24.4,15.3c8.4,0.9,17.4-2.4,24.1-7.4
				c7-5.1,12.4-12,13.8-20.7C74.1,76.9,71,67.5,63.3,61.4z M48.9,80.8c0,0,0,0.1,0.1,0.1c0,0,0,0.1,0,0.1C49,81,48.9,80.9,48.9,80.8
				C48.9,80.9,48.9,80.9,48.9,80.8z M35.3,77.7c0,0,0.1,0,0.1,0C35.4,77.6,35.4,77.7,35.3,77.7C35.3,77.7,35.3,77.7,35.3,77.7
				C35.3,77.7,35.3,77.7,35.3,77.7z M35.6,77.6c0,0,0.1,0,0.1,0C35.6,77.6,35.6,77.6,35.6,77.6C35.5,77.6,35.5,77.6,35.6,77.6z
				 M28.7,80.7C28.7,80.7,28.7,80.7,28.7,80.7c0,0.1,0,0.1-0.1,0.2C28.7,80.8,28.7,80.8,28.7,80.7C28.7,80.7,28.7,80.7,28.7,80.7z"
				/>
			<g>
				<g>
					<g>
						<path class="st4" d="M9.9,70.3c-2,2.8-3.2,6.5-3.3,10.5c-0.1,4,0.8,8.1,2.4,11.9c2.7,6.4,7.5,11.8,13.3,15.5
							c6,3.7,13.3,5.2,20.4,4.5c4.5-0.4,8.9-1.7,12.8-4.1c4-2.4,7.5-5.7,10.1-9.5c1-1.5,1.9-3.1,2.7-4.7c0.7-1.7,1.3-3.3,1.7-5.1
							c0.8-3.5,0.9-7.2,0.3-10.7c-0.7-4.2-2.3-8.2-4.7-11.7c-1.2-1.7-2.6-3.3-4.2-4.7c-0.4-0.4-0.8-0.7-1.2-1l-1.3-0.9l-1.4-0.8
							l-0.7-0.4l-0.7-0.3c-3.4-1.7-7.1-2.7-10.9-3.1c-3.8-0.4-7.6-0.3-11.4,0.3c-4,0.6-8,1.5-11.7,3c-0.5,0.2-1.1,0.5-1.5,0.8
							c-0.5,0.3-0.8,0.6-1.1,0.6c-0.3,0.1-0.7,0.3-1,0.4c-0.3,0.1-0.5,0.1-0.6-0.3c-0.1-0.3,0.1-0.8,0.5-1.2
							c0.3-0.5,0.9-0.9,1.4-1.2c1.6-1,3.3-1.4,4.8-1.9c1.6-0.5,3.2-0.9,4.9-1.3c2.7-0.6,5.4-1,8.2-1.2c2.8-0.2,5.5-0.1,8.3,0.2
							c4.6,0.6,9.1,1.9,13,4.4c3.7,2.2,6.9,5.3,9,9c3,4.9,4.7,10.6,4.5,16.4c0,0.6,0,1.2-0.1,1.8c-0.1,0.6-0.2,1.2-0.2,1.8
							c-1.3,6.9-4.7,13.4-9.9,18.3c-3.1,2.9-6.8,5.2-10.7,6.7c-4,1.5-8.2,2.1-12.5,2.1c-4.7-0.1-9.4-1.1-13.7-3.1
							c-4.3-2-8.2-4.9-11.3-8.4c-4.4-5-7.4-11.2-8.4-17.8c-0.6-3.9-0.3-8,1.2-11.7c1.5-3.7,4.3-7,7.9-8.8c2.3-1.1,4.1-1.1,4.7-0.7
							c0.3,0.2,0.3,0.4,0,0.5c-0.3,0.2-0.9,0.3-1.8,0.5C14.9,65.7,12.4,67.1,9.9,70.3z"/>
					</g>
				</g>
			</g>
		</g>
	</g>
</g>
</svg>
