<?xml version="1.0" encoding="utf-8"?>
<!-- Generator: Adobe Illustrator 27.8.1, SVG Export Plug-In . SVG Version: 6.00 Build 0)  -->
<svg version="1.0" id="Layer_1" xmlns="http://www.w3.org/2000/svg" xmlns:xlink="http://www.w3.org/1999/xlink" x="0px" y="0px"
	 viewBox="0 0 222.5 554.2" style="enable-background:new 0 0 222.5 554.2;" xml:space="preserve">
<path d="M207.5,15v421.9c0.4,33.3-22.2,67.1-57.7,86.1c-2.1,1.1-4.3,2-6.3,2.9c-1,0.4-1.9,0.8-2.9,1.2
	c-17.6,7.9-36.2,12.1-53.9,12.1c-31.9,0-57-13.3-67-35.7c-7.9-17.7-5.5-38.6,6.8-58.8c11.9-19.6,31.8-36.4,55.9-47.2
	c17.6-7.9,36.2-12.1,53.9-12.1c15.4,0,29.7,3.2,41.2,9.2V15H207.5 M207.5,0h-30c-8.3,0-15,6.7-15,15v358.3
	c-8.3-1.9-17.1-2.9-26.2-2.9c-19.8,0-40.5,4.6-60,13.4c-26.9,12.1-49.1,31-62.6,53.1c-14.9,24.6-17.7,50.5-7.6,72.8
	c12.5,27.9,42.7,44.5,80.7,44.5c19.8,0,40.6-4.6,60.1-13.4c0.8-0.4,1.6-0.7,2.6-1.1c2.3-1,4.9-2.1,7.6-3.5
	c40.3-21.6,66-60.6,65.6-99.4V15C222.5,6.7,215.8,0,207.5,0L207.5,0z"/>
</svg>
