<?xml version="1.0" encoding="utf-8"?>
<!-- Generator: Adobe Illustrator 27.9.0, SVG Export Plug-In . SVG Version: 6.00 Build 0)  -->
<svg version="1.0" id="Layer_1" xmlns="http://www.w3.org/2000/svg" xmlns:xlink="http://www.w3.org/1999/xlink" x="0px" y="0px"
	 viewBox="0 0 222.5 554.2" style="enable-background:new 0 0 222.5 554.2;" xml:space="preserve">
<style type="text/css">
	.st0{fill:#C12344;}
	.st1{fill:#FFFFFF;}
</style>
<path class="st0" d="M86.6,532.2c-29.6,0-52.8-12.1-61.8-32.3c-7.2-15.9-4.9-35,6.4-53.6s30.3-34.6,53.4-45
	c16.8-7.6,34.7-11.6,51.6-11.6c18.5,0,35.1,4.9,46.9,13.8V19.3h18.7v416.2c0.4,31.2-21.1,63.1-54.7,81.1c-1.9,1-3.8,1.8-5.8,2.7
	c-1,0.4-2,0.9-3.1,1.3C121.4,528.2,103.5,532.2,86.6,532.2z"/>
<g>
	<path class="st1" d="M134.3,474.1c1.9-0.3,3.6-0.5,5.4-0.8c0.1,0.2,0.2,0.5,0.3,0.8c1.7,4.5,5.1,7,9.7,7.7c1.6,0.2,3.4-0.1,4.9-0.6
		c5.8-2.1,8.8-7.9,7.6-14.2c-0.8-4.3-3-7.6-6.8-9.7c-3.9-2.1-8.4-1.3-12.1,1.9c-2.1,1.9-3.4,4.3-4.1,7.3c1.9-0.9,3.2-2.3,3.5-4.2
		c0.2-1.3,0.8-2.1,1.8-2.8c1-0.7,2-1.2,3.2-1.9c1,2.2,1.2,4.2,0.6,6.3c-0.9,3.5-3.2,5.7-6.4,7.2c-2.9,1.4-6,1.7-9.2,1.7
		c-5.8-0.1-11.1-1.7-15.8-5c-0.2-0.1-0.4-0.3-0.6-0.4c-0.1-0.1-0.1-0.1-0.3-0.3c1.6-1.3,3.1-2.5,4.7-3.7c3.8,2.9,7.8,4.9,12.7,4.7
		c0.5-4.8,2.4-8.9,5.9-12.4c-0.5-0.3-1-0.5-1.4-0.7c-4.4-1.3-8.8-1.4-13.1,0.5c-1.2,0.5-2.2,1.4-3.2,2.2c-0.5,0.4-0.8,0.5-1.3,0.2
		c-1-0.6-2-1.2-3-1.8c-0.2-0.1-0.4-0.6-0.4-0.9c1.8-5.8,3.7-11.6,5.5-17.4c0.2-0.6,0.5-0.8,1.2-0.8c7.1,0,14.2,0,21.2,0
		c0.3,0,0.6,0,1.1,0.1c-0.5,1.6-1,3.1-1.6,4.6c-0.1,0.2-0.7,0.4-1.1,0.4c-5.2,0-10.4,0.1-15.5,0.1c-0.7,0-1.1,0.2-1.3,0.9
		c-0.9,2.8-1.8,5.5-2.8,8.5c0.5-0.2,0.9-0.3,1.2-0.5c4.7-2,9.5-2.2,14.3-0.8c1.5,0.4,2.8,1.3,4.2,1.9c0.4,0.2,0.9,0.3,1.3,0.1
		c6.5-2.8,16.1-0.9,20.4,7.4c3.1,6,4.1,12.2,0.8,18.3c-6.5,12.1-20.9,11.8-28.3,3.4C135.9,479.2,135,476.7,134.3,474.1z"/>
	<path class="st1" d="M99.3,474.8c0,1.6,0.1,3,0,4.4c0,0.4-0.4,0.8-0.7,1.1c-3.8,4.3-8.6,6.8-14.2,7.6c-7,1-13.5-0.2-19.3-4.4
		c-6.4-4.6-9.3-10.9-8.5-18.7c0.8-8,5.3-13.5,12.5-16.6c8.6-3.7,17.2-3,25.4,1.4c1.4,0.7,2.8,1.6,4.2,2.5c0.3,0.2,0.6,0.7,0.6,1.1
		c0.1,1.2,0,2.3,0,3.8c-0.5-0.5-0.8-0.7-1-1c-5.5-5-11.9-8-19.5-7.5c-6.1,0.3-11.5,2.4-14.7,7.9c-3,5-3.7,10.6-2.1,16.2
		c1.3,4.5,4.6,7.5,8.5,9.7c7.9,4.4,18.2,4.4,26-4.3C97.4,477.1,98.2,476,99.3,474.8z"/>
	<path class="st1" d="M105.5,488.3c-1.5,0-2.9,0-4.4,0c0-1.5,0-2.9,0-4.4c-0.1-11.9-0.1-23.8-0.3-35.6c-0.1-6.3-3.9-10.3-10.6-11.6
		c-4.4-0.9-8.9-0.8-13.3-0.5c-4.1,0.3-8.2,0.9-12.2,1.3c-0.2,0-0.4,0-0.8,0c0-1.2,0-2.4,0-3.6c0-0.1,0.3-0.3,0.5-0.4
		c0.2-0.1,0.5,0,0.7,0c7.8,0,15.5,0,23.3,0c3.7,0,7.1,1.1,10.2,3.1c4.3,2.9,6.5,6.9,6.5,12c0,7.1,0,14.3,0,21.4
		c0,4.5,0.1,8.9,0.1,13.4C105.2,485.1,105.4,486.6,105.5,488.3z"/>
</g>
</svg>
