<?xml version="1.0" encoding="utf-8"?>
<!-- Generator: Adobe Illustrator 24.2.1, SVG Export Plug-In . SVG Version: 6.00 Build 0)  -->
<svg version="1.1" id="Layer_1" xmlns="http://www.w3.org/2000/svg" xmlns:xlink="http://www.w3.org/1999/xlink" x="0px" y="0px"
	 viewBox="0 0 155.1 125.7" style="enable-background:new 0 0 155.1 125.7;" xml:space="preserve">
<style type="text/css">
	.st0{opacity:0.25;}
	.st1{fill:#3B6B7C;}
	.st2{fill:#FFFFFF;}
	.st3{fill:#E8E7E7;}
	.st4{fill:none;}
	.st5{fill:none;stroke:#000000;stroke-width:0.7;stroke-miterlimit:10;}
	.st6{fill:#221F1F;}
	.st7{fill:#328ECD;}
</style>
<g class="st0">
	<g>
		<path class="st1" d="M112.8,77c1.8-2.2,3.4-4.5,4.7-7.1c5.2,0,10.3-0.1,15.5,0c3,0,6.2-0.1,8.5-2c2.8-2.4,3-4.6,2.9-8.3
			c-0.1-3.1-0.1-6.2-0.2-9.3c-0.1-4.3-0.4-9.1-3.5-12.2c-3.1-3-7.9-3.2-12.2-3.2c-2.7,0-5.3,0-8,0c-1.2-4.5-2.6-9.4-4-12
			C111.1,12.2,98.3,4.8,86.3,2.7c-5.5-0.9-11.1-0.4-16.5,0.6C61.3,4.8,53,7.7,45.9,12.6c-7.1,4.9-12.8,12-15.1,20.3
			c-0.2,0.9-0.4,1.7-0.6,2.6c-5,0-10,0.1-15,0.1c-1.9,0-3.9,0.1-5.4,1.1c-2.3,1.6-2.8,4.8-2.9,7.7c-0.1,4.3,0,8.5,0.4,12.8l-1-4.7
			c0.7,3.1,0.3,6.4,0.6,9.6s1.5,6.6,4.4,8.1c1.7,0.9,3.8,1,5.7,1c6.4,0.1,12.9,0.1,19.3,0c1,2.1,2.1,4.2,3.4,6.1
			c2.2,3.2,15.8,19.5,41.2,16.6c9.8-1.1,18.6-4.9,25.7-10.7c11.1,12.5,31.8,33,41.8,42.7c2.3-2.2,4.5-4.5,6.5-6.9
			C141,106.6,122.3,86.1,112.8,77z M60.7,15.2c5.3-2,11.4-4,18.1-4.2l-0.1,0c0.1,0,4.6,0.1,6.8,0.5c13.9,2.2,22.9,11.2,26.5,23.5
			c-7,0-14,0.1-21,0.1c-6.5,0-13,0.1-19.4,0.1c-10.5,0.1-21,0.1-31.4,0.2C43.1,25.9,51.4,18.7,60.7,15.2z M97.6,79.8
			c-0.4,0.3-1.3,0.8-1.1,0.6c4.2-2.9-0.8,0.3-1.1,0.5c-6,3.4-11,3.8-16.8,4.4C72.2,86,65.5,86,59.5,83.6c-6-2.4-10.9-7.1-14.2-12.6
			c20.7-0.2,41.5-0.7,62.2-1C103.9,75.2,99.8,78.4,97.6,79.8z"/>
	</g>
</g>
<g>
	<path class="st2" d="M1,50c-0.4-4.2-0.5-8.5-0.4-12.8c0.1-2.8,0.5-6.1,2.9-7.7C5,28.5,7,28.5,8.9,28.5c18.8-0.1,37.6-0.2,56.3-0.3
		c6.5,0,13-0.1,19.4-0.1c12.5-0.1,25-0.1,37.6-0.2c4.3,0,9.1,0.1,12.2,3.2c3.1,3,3.4,7.8,3.5,12.2c0.1,3.1,0.1,6.2,0.2,9.3
		c0.1,3.7-0.1,5.9-2.9,8.3c-2.3,1.9-5.5,2-8.5,2c-38.7-0.1-77.3,1.6-116,1.2c-2,0-4-0.1-5.7-1c-2.8-1.5-4.1-4.9-4.4-8.1
		s0.1-6.4-0.6-9.6"/>
	<g>
		<g>
			<path d="M33.1,63.3c5,0.1,10.1-0.2,15.1-0.2c8.3,0,16.7-0.1,25-0.3c18.2-0.4,36.4-0.5,54.6-0.3c1.3,0,2.6-0.1,3.8-0.4
				c1.2-0.3,2.4-0.8,3.4-1.6c1-0.8,1.8-1.8,2.2-3c0.5-1.2,0.6-2.4,0.6-3.7c0-2.6-0.1-5.2-0.1-7.7c-0.1-2.6,0-5.2-0.4-7.7
				c-0.3-2.5-1.1-5.1-2.8-6.9c-1.7-1.8-4.2-2.7-6.7-3c-2.5-0.3-5.1-0.2-7.7-0.2l-7.7,0.2c-11.9,0.3-23.9-0.1-35.9,0
				c-16.7,0.1-33.4,0.2-50.1,0.5c-5.9,0.1-11.8,0.1-17.8,0.1c-1.5,0-2.9,0.1-4.1,0.6c-1.2,0.5-2.1,1.6-2.6,2.8
				c-0.5,1.3-0.7,2.7-0.7,4.1c-0.1,1.5-0.1,2.9,0,4.4c0,1.5,0.1,3,0.3,4.4c0.3,2.5,0.1,3.8-0.3,4.4c-0.4,0.6-0.7-1.1-0.8-2.9
				c-0.2-3.6-0.3-7.3-0.1-10.9c0.1-1.8,0.4-3.7,1.5-5.4c0.5-0.8,1.3-1.5,2.2-1.9c0.9-0.4,1.8-0.6,2.8-0.7C8,28,9.2,28.1,10.4,28
				l3.6,0l7.1-0.1l14.2-0.2c9.5-0.1,18.9-0.2,28.4-0.2c9.9-0.1,19.8,0,29.6-0.1c6.2-0.1,12.4-0.1,18.7-0.2l9.3-0.1
				c3.1,0,6.3-0.1,9.5,0.9c1.7,0.5,3.3,1.4,4.5,2.7c1.3,1.3,2.1,2.9,2.6,4.6c1,3.3,0.9,6.7,1,10l0.1,4.9c0,1.6,0.1,3.3,0,5
				c-0.1,0.9-0.2,1.8-0.5,2.6c-0.3,0.9-0.8,1.7-1.4,2.4c-0.6,0.7-1.2,1.3-2,1.8c-0.8,0.5-1.6,0.8-2.5,1.1c-2.4,0.6-4.7,0.5-6.9,0.5
				l-6.8,0l-13.5,0c-9,0.1-18,0.2-27,0.3c-12.8,0.2-25.6,0.6-38.4,0.6c-8.6,0-17.2,0-25.8,0l-3.2,0c-1.1,0-2.2,0-3.3-0.2
				C6.3,64,5.2,63.7,4.2,63c-1-0.6-1.8-1.5-2.3-2.5c-1.2-1.9-1.6-4.2-1.7-6.4c-0.1-2.2,0-4.3-0.1-6.4c-0.2-2.2,0-2.4,0.4-2.6
				c0.2-0.1,0.6,0.6,0.7,2c0.3,3.9-0.3,7.7,1,11.1c0.6,1.7,1.6,3.2,3.1,4c1.5,0.8,3.3,0.9,5.2,0.9C18,63.3,25.6,63.4,33.1,63.3
				L33.1,63.3z"/>
		</g>
	</g>
</g>
<g>
	<g>
		<g>
			<path class="st3" d="M103.6,75.6c7.3-8.8,11.1-20.6,9.8-34c-0.9-4-3.7-15.6-5.9-19.9C101.9,10.8,89,3.4,77.1,1.3
				C71.6,0.4,66,0.9,60.6,1.9c-8.5,1.6-16.8,4.4-23.9,9.3s-12.8,12-15.1,20.3c-2.1,7.6-1.1,15.7,0.6,23.4c1.7,7.4,4.1,14.7,8.4,20.9
				c2.2,3.2,15.8,19.5,41.2,16.6c9.8-1.1,18.6-4.9,25.7-10.7c11.1,12.5,31.8,33,41.8,42.7c2.3-2.2,4.5-4.5,6.5-6.9
				C131.8,105.2,113,84.8,103.6,75.6z M87.3,79.1c4.2-2.9-0.8,0.3-1.1,0.5c-6,3.4-11,3.8-16.8,4.4c-6.4,0.7-13.1,0.7-19.1-1.7
				c-6.6-2.6-11.8-8-15.1-14.2c-3.3-6.2-4.8-13.3-5.3-20.3c-0.3-4.5-0.2-9.2,1.1-13.5c2.8-9.6,11.2-16.8,20.6-20.3
				c5.3-2,11.4-4,18.1-4.2l-0.1,0c0.1,0,4.6,0.1,6.8,0.5c18.6,2.9,28.3,18,28.3,36.8c0,19.1-12,28.7-16.3,31.5
				C87.9,78.7,87,79.2,87.3,79.1z"/>
		</g>
		<g>
			<path class="st4" d="M103.6,75.6c7.3-8.8,11.1-20.6,9.8-34c-0.9-4-3.7-15.6-5.9-19.9C101.9,10.8,89,3.4,77.1,1.3
				C71.6,0.4,66,0.9,60.6,1.9c-8.5,1.6-16.8,4.4-23.9,9.3s-12.8,12-15.1,20.3c-2.1,7.6-1.1,15.7,0.6,23.4c1.7,7.4,4.1,14.7,8.4,20.9
				c2.2,3.2,15.8,19.5,41.2,16.6c9.8-1.1,18.6-4.9,25.7-10.7c11.1,12.5,31.8,33,41.8,42.7c2.3-2.2,4.5-4.5,6.5-6.9
				C131.8,105.2,113,84.8,103.6,75.6z M87.3,79.1c4.2-2.9-0.8,0.3-1.1,0.5c-6,3.4-11,3.8-16.8,4.4c-6.4,0.7-13.1,0.7-19.1-1.7
				c-6.6-2.6-11.8-8-15.1-14.2c-3.3-6.2-4.8-13.3-5.3-20.3c-0.3-4.5-0.2-9.2,1.1-13.5c2.8-9.6,11.2-16.8,20.6-20.3
				c5.3-2,11.4-4,18.1-4.2l-0.1,0c0.1,0,4.6,0.1,6.8,0.5c18.6,2.9,28.3,18,28.3,36.8c0,19.1-12,28.7-16.3,31.5
				C87.9,78.7,87,79.2,87.3,79.1z"/>
			<g>
				<path d="M98.8,26.1c-2.9-5-7.1-9.2-12.3-11.8l-1-0.5c-0.3-0.2-0.7-0.3-1-0.4l-2-0.8l-2.1-0.6c-0.4-0.1-0.7-0.2-1.1-0.3l-1.1-0.2
					L76.2,11c-0.7-0.1-1.4-0.2-2.2-0.3c-1.5-0.1-3-0.2-4.4-0.2l0,0l0,0c0-0.1,0,0.3,0-0.6l0.2-1l0.1,0l6.7,1.5l-6.9,0.2
					c-5.1,0.1-10.1,1.4-15,3.1c-2.5,0.9-4.8,1.8-7.1,3c-2.3,1.2-4.4,2.6-6.4,4.2c-2.9,2.4-5.4,5.2-7.2,8.5c-0.9,1.6-1.6,3.3-2.2,5.1
					c-0.5,1.8-0.9,3.6-1,5.5c-0.4,3.7-0.1,7.6,0.3,11.3c0.5,3.8,1.3,7.5,2.5,11c1.2,3.4,2.9,6.7,5,9.6c2.2,2.9,4.8,5.5,7.8,7.4
					c4.3,2.9,9.5,4.1,14.8,4.2c2.6,0.1,5.3,0,7.9-0.3c2.7-0.3,5.3-0.5,7.9-1c3.8-0.7,7.4-2.2,10.7-4.4c0.3-0.2,0.5-0.3,0.8-0.5
					c0.1,0,0.1-0.1,0.2-0.1l0.1-0.1c0,0,0,0,0.2-0.1l0.1,0c0.1,0,0.3,0,0.5,0.1c0.2,0.1,0.3,0.4,0.3,0.5c0,0.1,0,0.3,0,0.4
					c0,0.1-0.1,0.1-0.1,0.2l0,0c-0.1,0.1-0.1,0.1-0.1,0.1c-0.1,0.1-0.2,0.2-0.3,0.2c-0.3,0.2-0.5,0.3-0.6,0.2c-0.3-0.1-0.9,0-1.4,0
					l0,0c0,0,0-0.1,0-0.1c0.1-0.4,0.2-0.6,0.7-1c0.1-0.1,0.3-0.2,0.5-0.4c0,0,0.1-0.1,0.1-0.1l0,0c0,0,0,0,0.1,0.1l0.2,0.2l0.2,0.2
					c0,0,0.1,0.1,0.1,0.1c0,0,0.1,0,0.1,0c0,0,0,0.1,0,0.1c0,0.1,0.1,0.2,0.2,0.4l0.1,0.3l0,0l0,0c-0.1,0.1-0.2,0.1-0.4,0.2
					c-0.6,0.4-1.3,0.8-2.4,1.5c-2.5,1.4-5.3,2.5-8.1,3.1c-2.8,0.6-5.7,0.9-8.5,1.2c-5.7,0.6-11.5,0.7-17.1-0.9
					c-4.9-1.4-9.3-4.2-12.8-7.9c-3.5-3.7-6.1-8.1-7.8-12.9c-1.8-5-2.8-10.3-3.2-15.6c-0.3-4.2-0.2-8.5,0.9-12.7
					c0.6-2.1,1.4-4.1,2.4-6c1-1.9,2.3-3.6,3.7-5.3c4.1-4.7,9.5-8.2,15.3-10.4c5.7-2.2,11.7-4,18-4.2l0.3,0l-0.2,1.6l-0.1,0l0.2-1.6
					c2,0.1,3.9,0.2,5.8,0.4c1,0.1,1.9,0.3,2.9,0.5l1.4,0.3c0.5,0.1,0.9,0.3,1.4,0.4c3.8,1.1,7.4,2.8,10.5,5.2
					c2.3,1.8,4.5,3.9,6.3,6.3c0.5,0.6,0.8,1.2,1.3,1.8l0.6,0.9l0.5,1c0.3,0.7,0.7,1.3,1,2l0.9,2c0.3,0.7,0.5,1.4,0.8,2.1
					c0.2,0.7,0.5,1.4,0.7,2.1c0.3,1.4,0.8,2.9,1,4.3c0.6,2.9,0.7,5.8,0.8,8.8l-0.1,2.3l-0.1,1.2l-0.1,1.2l0,0
					c-0.5,4.7-1.8,9.3-3.9,13.5c-1.1,2.2-2.5,4.2-4,6.2c-1.5,1.9-3.2,3.7-5,5.3l0,0c-2.1,1.8-4.7,2.8-4.6,2.3c0,0,0-0.1,0-0.1
					c0-0.1-0.4,0-0.5,0c0,0,0,0,0,0c0,0,0-0.1,0,0c0,0.1,0.1,0.2,0.1,0.2c0,0,0.1,0.1,0.1,0.1c0,0-0.1,0.1,0,0c0,0,0.1,0,0.1,0.1
					c0,0.1,0,0.1,0,0.2l0.1,0.2c0,0,0,0,0,0c0,0,0,0,0,0c0,0,0,0,0,0l0,0c0,0,0,0,0,0c-0.1-0.1-0.1-0.1-0.2-0.2c0-0.1,0-0.1,0-0.2
					c0-0.1-0.1,0-0.1,0c0,0,0-0.1,0-0.2c-0.1,0-0.1-0.2-0.2-0.3l0-0.1c0,0,0,0,0.1-0.1c0.1-0.1,0.2-0.1,0.3-0.2
					c1.2-0.8,2.8-2,4.2-3.3c4-3.6,7.3-8,9.4-13.1c1-2.6,1.9-5.4,2.4-8.3l0,0c0.1-0.7,0.2-1.4,0.3-2.2l0.1-1.1l0.1-1.1l0.1-2.2
					c0-0.7,0-1.5-0.1-2.2c0-0.8-0.1-1.6-0.2-2.4c-0.1-0.8-0.2-1.6-0.3-2.4c-0.3-1.6-0.5-3.2-1-4.7c-0.8-3.1-1.9-6.2-3.5-9l0,0
					L98.8,26.1L98.8,26.1z"/>
			</g>
			<g>
				<path d="M114.9,101.1c-3.5-3.6-7-7.2-10.5-10.8c-1.7-1.8-3.4-3.7-5.1-5.5L98,83.4l-0.6-0.6c0,0,0-0.1-0.1,0L97.1,83
					c-0.2,0.2-0.5,0.4-0.8,0.6c-0.5,0.4-1,0.8-1.5,1.1c-8.5,5.9-18.9,8.9-29.3,8.8c-9,0.1-18.1-2.7-25.6-7.8c-0.9-0.6-1.8-1.3-2.7-2
					c-0.9-0.7-1.8-1.4-2.6-2.2C33,80,31.4,78.3,30,76.4c-2.6-3.7-4.5-7.9-6-12.1c-1.1-3.1-1.9-6.3-2.7-9.5c-0.7-3.2-1.3-6.5-1.6-9.8
					c-0.3-3.3-0.3-6.6,0.2-10c0.5-3.3,1.5-6.5,3-9.5c2.9-6,7.6-11.1,13-14.9c5.5-3.8,11.7-6.4,18-8.1c3.1-0.8,6.2-1.5,9.4-2
					C66.6,0.1,69.8-0.1,73,0c3.2,0.2,6.4,0.8,9.5,1.7c3.1,0.9,6.1,2.1,8.9,3.6c2.1,1,4,2.3,5.9,3.6c1.9,1.4,3.6,2.9,5.2,4.5
					c1.6,1.7,3.1,3.5,4.3,5.5c0.3,0.5,0.6,1,0.9,1.5c0.3,0.5,0.6,1,0.8,1.6c0.5,1.1,0.9,2.2,1.2,3.2c1.5,4.3,2.6,8.8,3.6,13.2
					l0.4,1.7L114,41l0.1,0.5l0,0.5c0.1,1.1,0.2,2.3,0.2,3.4c0.1,2.3,0,4.6-0.3,6.9c-0.7,6.8-2.9,13.5-6.6,19.3
					c-0.6,1-1.1,1.7-1.5,2.2c-0.4,0.5-0.6,0.7-0.7,0.8c-0.4,0.1-1.2,0.7-1.8,1l0,0c0-0.1,0-0.1,0-0.2c0.1-0.6,0.2-0.8,0.8-1.7
					c0.6-1,1.9-2.5,3.7-6c2.2-4.2,3.6-8.8,4.4-13.5c0.3-2.3,0.6-4.7,0.6-7.1c0-1.2,0-2.4-0.1-3.6l-0.1-1.7l-0.4-1.7
					c-1.1-4.7-2.3-9.3-3.7-13.9c-1.3-4.6-4-8.5-7.4-11.9c-2.9-2.9-6.3-5.4-10-7.3c-3.7-2-7.6-3.4-11.6-4.4c-4-1-8.2-1.2-12.3-0.8
					C63,2,58.9,2.9,54.9,3.9c-8.5,2.3-16.8,6.2-23,12.3c-5,4.8-8.7,11-9.9,17.8c-1.3,6.8-0.4,13.9,1.2,20.7c1.1,5,2.6,9.9,4.8,14.5
					c1.1,2.3,2.4,4.5,3.8,6.5c1.5,2,3.3,3.8,5.2,5.5c7.7,6.7,17.8,10.4,27.9,10.5c0.8,0,1.6,0,2.4,0l2.4-0.2
					c1.6-0.1,3.3-0.3,4.9-0.6c3.2-0.5,6.4-1.4,9.4-2.6c3-1.2,6-2.6,8.7-4.4c0.7-0.4,1.4-0.9,2-1.4l1-0.7l1.2-1l0.5-0.4l0.1-0.1
					c0,0,0.1-0.1,0.1,0l0.2,0.2l0.8,0.9l0.8,0.9l1.7,1.8c6.6,7.2,13.5,14.3,20.5,21.3l10.5,10.4l5.3,5.2l1.3,1.3l0.6,0.6
					c0,0,0.1,0.1,0.1,0.1l0.9-0.9l1.3-1.3c0.9-0.9,1.8-1.9,2.6-2.8l0.6-0.7l0.1-0.1c0,0,0,0,0-0.1l-1.1-1l0,0
					c-5.9-5.2-11.4-10.8-17-16.3c-5.7-5.8-11.5-11.7-17.1-17.4l0,0c-3.2-3.3-6.1-6.7-5.4-6.7c0.1,0,0.1,0,0.2,0
					c0.2,0-1.4-1.9,0.3-0.3c1.8,1.6,4.4,4.2,6.6,6.5c6.6,6.7,13,13.5,19.8,20.2c3.4,3.4,7,7,10.7,10.4l0,0c0.9,0.9,1.8,1.7,2.8,2.6
					l1.7,1.5l0.3,0.3c0,0,0.1,0.1,0.2,0.1l-0.1,0.2l-0.6,0.7l-0.8,0.9c-0.8,1-1.7,1.9-2.6,2.8l-1.4,1.4l-0.7,0.7l-1,0.9l-0.4,0.3
					l-0.1,0.1c0,0-0.1,0-0.1-0.1l-0.2-0.2l-0.7-0.7l-0.8-0.8l-1.5-1.5l-3-2.9l-6-5.9c-4-3.9-7.9-7.9-11.8-11.9l0,0L114.9,101.1
					L114.9,101.1z"/>
			</g>
		</g>
	</g>
	<g>
		<path class="st3" d="M113.4,41.7"/>
		<g>
			<path class="st5" d="M113.4,41.7"/>
		</g>
	</g>
</g>
<g>
	<g>
		<g>
			<g>
				<path class="st6" d="M63.9,51.7C63.9,51.7,63.9,51.7,63.9,51.7L63.9,51.7z"/>
				<path class="st6" d="M68.9,51.7c-0.1-0.2-0.1-0.2-0.3-0.1c-0.1,0-0.1,0-0.2,0.1c-0.4,0.1-0.8,0-1.3,0l-1.4,0l-0.9,0l-0.5,0
					l-0.2,0c-0.1,0-0.2,0-0.2,0c0,0,0,0-0.1,0l0,0l0,0l0,0l0,0l0,0c0.1-0.1,0.1-0.1,0.1-0.1c0,0,0-0.3,0-0.5c0-0.2-0.1-0.4,0-0.6
					c0.1-0.2-0.1-0.4,0-0.6c-0.1-0.5-0.1-1-0.1-1.5c0-0.5,0-1-0.1-1.5c0-0.3,0-0.6,0-0.9c0-0.4,0-0.8-0.1-1.2c0-0.7-0.1-1.3-0.1-2
					c0-0.5,0-1.1,0-1.6c0-0.3,0-0.6,0.1-0.9c0-0.1,0-0.1-0.1-0.1l-0.1,0c-0.7,0-1.1,0.3-1,0.9c0.1,0.5,0,1,0,1.4c0,0.3,0,0.6,0,0.8
					c0,0.4,0.1,0.8,0,1.2c0,0.2-0.1,0.4,0,0.6c0.1,0.2,0.1,0.3,0,0.5c0,0.7,0.1,1.3,0.1,2c0,0.4,0.1,0.9,0,1.3c0,0.1,0,0.1,0,0.2
					c0,0.3,0,0.6,0.1,0.8c0,0.3,0,0.7,0,1c0,0.2,0,0.3,0,0.5c0,0.3,0,0.6,0.2,0.8c0.2,0.4,0.7,0.4,1.1,0.4c0.1,0,0.2,0.1,0.3,0.1
					c0.2-0.1,0.4,0,0.5,0c0.4,0,0.7,0,1.1,0c0.3,0,0.7,0,1,0c0.6,0,1.2,0,1.8,0c0.1,0,0.1,0,0.2-0.1C69.1,52.5,69.1,52.1,68.9,51.7z
					"/>
			</g>
		</g>
	</g>
	<g>
		<g>
			<g>
				<g>
					<path class="st6" d="M75.2,44.6C75.2,44.6,75.2,44.6,75.2,44.6L75.2,44.6z"/>
					<path class="st6" d="M77.5,52.4c0.1-0.1,0.1-0.2,0-0.4c0-0.1-0.1-0.1-0.1-0.2c-0.2-0.6-0.4-1.1-0.5-1.7l-0.5-1.9
						c-0.2-0.8-0.4-1.7-0.7-2.5c-0.1-0.3-0.2-0.7-0.3-1l0,0l0,0l0,0l0,0l0,0c0.1-0.1,0-0.2,0-0.3l-0.3-0.9c-0.1-0.3-0.2-0.6-0.3-0.9
						c-0.1-0.6-0.4-1-0.5-1.6c-0.3-0.5-0.5-0.7-0.8-0.7c0,0-0.1,0-0.2,0c-0.1,0-0.1,0-0.1,0.1l-0.2,0.1l-0.2,0.1
						c-0.1,0.1-0.1,0.1-0.2,0.2c-0.2,0.4-0.4,1.1-0.5,1.7l-0.2,0.6l-0.1,0.5c-0.1,0.4-0.2,0.8-0.2,1.3c-0.1,0.6-0.2,1.1-0.3,1.7
						c-0.1,0.9-0.3,1.9-0.4,2.8c-0.1,0.8-0.2,1.6-0.3,2.3c0,0.4-0.1,0.8-0.2,1.2c0,0.2,0,0.2,0.1,0.2l0.1,0c0.7,0,1.1-0.4,1.1-1.3
						c0-0.7,0.1-1.3,0.2-2c0-0.4,0.1-0.8,0.2-1.2c0.1-0.6,0.1-1.2,0.3-1.7c0.1-0.3,0.2-0.6,0.1-0.9c0-0.2,0-0.5,0.1-0.7
						c0.1-0.5,0.2-0.9,0.3-1.4l0.1-0.7l0.1-0.3l0-0.1c0-0.1,0-0.2,0.1-0.3c0-0.1,0.1-0.2,0.1,0c0,0.1,0,0.1,0,0.1
						c0,0.1,0.1,0.1,0.1,0.2c0-0.1,0.2,0.5,0.3,1c0.1,0.5,0.2,0.9,0.4,1.3c0.1,0.3,0.2,0.7,0.3,1.1c0,0.2,0,0.3,0,0.4
						c0.1,0.2,0.1,0.5,0.2,0.7c0.2,0.5,0.3,1,0.4,1.5c0.1,0.5,0.3,0.9,0.4,1.4c0.2,0.9,0.4,1.7,0.7,2.5c0,0.1,0.1,0.2,0.2,0.2
						C76.8,52.8,77.2,52.7,77.5,52.4z"/>
				</g>
			</g>
		</g>
		<g>
			<g>
				<g>
					<path class="st6" d="M74.3,46.9C74.3,46.9,74.3,46.9,74.3,46.9L74.3,46.9z"/>
					<path class="st6" d="M75.5,46.9c0-0.2,0-0.2-0.1-0.1C75.4,46.9,75.4,46.9,75.5,46.9c-0.2,0-0.3,0-0.4,0c-0.1,0-0.2,0-0.3,0
						c-0.1,0-0.3,0-0.4,0c-0.1,0-0.1,0-0.2,0.1l0,0l0,0l0,0l0,0l0,0c0-0.1,0-0.1,0-0.1c0,0-0.1,0-0.1,0c0,0-0.1,0.1-0.1,0
						c0-0.1-0.1,0.1-0.1,0c-0.1,0-0.2,0-0.3,0c-0.1,0-0.2,0-0.3,0c-0.1,0-0.1,0-0.2,0c-0.1,0-0.2,0-0.2,0c-0.1,0-0.3,0-0.4,0.1
						c-0.1,0-0.2,0-0.3,0c-0.1,0-0.1,0-0.2,0c0,0,0,0,0,0.1l0,0.1c0,0.7,0.1,1.1,0.2,1c0.1-0.1,0.2,0,0.3,0c0.1,0,0.1,0,0.2,0
						c0.1,0,0.2-0.1,0.3,0c0,0,0.1,0.1,0.1,0c0-0.1,0.1,0,0.1,0c0.1,0.1,0.3,0,0.4,0c0.1,0,0.2,0,0.3,0.1c0,0,0,0,0,0
						c0.1,0,0.1,0,0.2,0c0.1,0,0.3,0.1,0.4,0c0.1,0,0.1,0,0.2,0c0,0,0,0.1,0.1,0.1c0-0.1,0.1,0,0.1,0c0.1,0,0.1,0,0.2,0.1
						c0.1,0,0.1,0,0.2,0c0.1,0,0.2,0,0.4,0c0,0,0,0,0-0.1C75.5,47.7,75.5,47.3,75.5,46.9z"/>
				</g>
			</g>
		</g>
	</g>
	<g>
		<g>
			<g>
				<path class="st6" d="M80.5,49.7C80.5,49.7,80.5,49.7,80.5,49.7L80.5,49.7z"/>
				<path class="st6" d="M84.4,51.3c-0.1-0.1-0.2-0.2-0.3,0c0,0-0.1,0.1-0.1,0.1c-0.3,0.2-0.7,0.2-1,0.2c-0.4,0-0.8-0.1-1.1-0.3
					c-0.4-0.2-0.8-0.6-1.1-1c-0.1-0.2-0.2-0.4-0.3-0.5l0,0l0,0l0,0l0,0l0,0c0.1-0.1,0-0.1,0-0.2c-0.1-0.2-0.1-0.4-0.2-0.6
					c0-0.2-0.1-0.4-0.1-0.6c0.1-0.2-0.2-0.4,0-0.6c-0.1-0.5-0.1-1-0.1-1.4c0-0.5,0.1-0.9,0.1-1.4c0-0.3,0.1-0.5,0.2-0.8
					c0.1-0.4,0.2-0.7,0.3-1c0.2-0.6,0.5-1.1,1-1.4c0.4-0.2,0.8-0.4,1.3-0.4c0.3,0,0.5,0,0.7,0.1c0.1,0,0.1,0,0.2-0.1l0-0.1
					c0.2-0.7-0.1-1.2-0.9-1.1c-0.6,0.1-1.1,0.2-1.7,0.5c-0.3,0.2-0.6,0.4-0.8,0.6c-0.4,0.4-0.5,0.8-0.8,1.2
					c-0.1,0.2-0.3,0.4-0.3,0.6c0,0.2-0.1,0.4-0.1,0.5c-0.3,0.7-0.3,1.4-0.4,2.1c-0.1,0.5,0,0.9-0.1,1.4c0,0.1,0,0.2,0,0.2
					c0,0.3,0,0.6,0.1,0.9c0.1,0.7,0.1,1.4,0.5,2.1c0.1,0.2,0.3,0.6,0.4,0.8c0.1,0.1,0,0.2,0.1,0.3c0.2,0.1,0.3,0.3,0.4,0.5
					c0.3,0.3,0.7,0.6,1.1,0.8c0.4,0.2,0.8,0.3,1.2,0.3c0.7,0.1,1.5,0.1,2.3-0.3c0.1,0,0.1-0.1,0.1-0.2
					C84.9,51.9,84.7,51.6,84.4,51.3z"/>
			</g>
		</g>
	</g>
	<g>
		<g>
			<g>
				<g>
					<path class="st6" d="M88.5,48.6C88.5,48.6,88.5,48.6,88.5,48.6L88.5,48.6z"/>
					<path class="st6" d="M88.7,52.8c0.2-0.1,0.2-0.1,0.1-0.2c0,0,0-0.1-0.1-0.1c-0.1-0.3-0.1-0.6-0.1-0.9l0-1.1
						c0-0.5,0-0.9-0.1-1.4c0-0.2,0-0.4-0.1-0.6l0,0l0,0l0,0l0,0l0,0c0.1-0.1,0.1-0.1,0.1-0.2l0-0.5c0-0.2-0.1-0.3,0-0.5
						c0.1-0.2-0.1-0.3,0-0.5c0-0.4,0-0.7-0.1-1.1c0-0.4,0-0.7-0.1-1.1c0-0.2,0-0.4,0-0.7c0-0.3-0.1-0.6-0.1-0.9
						c-0.1-0.5-0.1-1-0.1-1.5c0-0.4-0.1-0.8-0.1-1.2c0-0.2,0-0.4,0-0.7c0-0.1,0-0.1-0.2-0.1l-0.1,0c-0.8,0-1.1,0.3-1,0.7
						c0.1,0.4,0.1,0.7,0.1,1.1c0,0.2,0,0.4,0,0.6c0,0.3,0.1,0.6,0,0.9c0,0.2,0,0.3,0,0.5c0.1,0.1,0.1,0.3,0,0.4c0,0.5,0.1,1,0.1,1.5
						c0,0.3,0.1,0.7,0,1c0,0.1,0,0.1,0,0.2c0,0.2,0,0.4,0.1,0.6c0.1,0.5-0.1,1,0.1,1.5c0,0.2,0,0.4,0,0.6c0,0.1-0.1,0.1-0.1,0.2
						c0.1,0.1,0,0.3,0,0.4c0,0.3,0,0.6,0,0.8c0,0.2,0,0.5,0,0.7c0,0.5,0,0.9,0.1,1.4c0,0.1,0.1,0.1,0.2,0.1
						C87.9,53,88.3,53,88.7,52.8z"/>
				</g>
			</g>
		</g>
		<g>
			<g>
				<g>
					<path class="st6" d="M90.2,41.5C90.2,41.5,90.2,41.5,90.2,41.5L90.2,41.5z"/>
					<path class="st6" d="M91.4,39.5c-0.2-0.1-0.2-0.1-0.2,0c0,0,0,0.1,0,0.1c0,0.2-0.2,0.3-0.2,0.5c-0.1,0.2-0.2,0.3-0.3,0.5
						c-0.1,0.2-0.3,0.4-0.4,0.6c0,0.1-0.1,0.2-0.1,0.3l0,0l0,0l0,0l0,0l0,0c-0.1,0-0.1,0-0.1,0.1l-0.1,0.2c0,0.1,0,0.2-0.1,0.2
						c-0.1,0,0,0.2-0.1,0.2c-0.1,0.2-0.2,0.4-0.3,0.5c-0.1,0.2-0.2,0.3-0.3,0.5c0,0.1-0.1,0.2-0.2,0.3c0,0.2-0.1,0.3-0.2,0.4
						c-0.1,0.3-0.2,0.5-0.3,0.7c-0.1,0.2-0.2,0.4-0.3,0.6c-0.1,0.1-0.1,0.2-0.2,0.3c0,0,0,0.1,0.1,0.1l0,0c0.6,0.3,0.9,0.3,1,0
						c0-0.2,0.2-0.4,0.2-0.5c0-0.1,0.1-0.2,0.2-0.3c0.1-0.1,0.1-0.3,0.2-0.4c0.1-0.1,0.1-0.1,0.1-0.2c0-0.1,0-0.1,0.1-0.2
						c0.2-0.2,0.2-0.5,0.4-0.7c0.1-0.2,0.1-0.3,0.3-0.4c0,0,0,0,0.1-0.1c0.1-0.1,0.1-0.2,0.1-0.3c0.1-0.3,0.3-0.4,0.4-0.7
						c0-0.1,0.1-0.2,0.2-0.3c0,0,0.1,0,0.1-0.1c0-0.1,0.1-0.1,0.1-0.2c0.1-0.1,0.2-0.2,0.3-0.4c0.1-0.1,0.1-0.2,0.2-0.3
						c0.2-0.2,0.3-0.4,0.4-0.6c0,0,0-0.1-0.1-0.1C92,39.8,91.7,39.6,91.4,39.5z"/>
				</g>
			</g>
		</g>
		<g>
			<g>
				<g>
					<path class="st6" d="M92.1,49.8C92.1,49.8,92.1,49.8,92.1,49.8L92.1,49.8z"/>
					<path class="st6" d="M93.5,52.2c0.2-0.1,0.2-0.1,0-0.2c0,0-0.1,0-0.1-0.1c-0.2-0.2-0.2-0.4-0.3-0.6c-0.1-0.2-0.2-0.4-0.3-0.6
						c-0.2-0.3-0.3-0.5-0.4-0.8c-0.1-0.1-0.1-0.2-0.2-0.3l0,0l0,0l0,0l0,0l0,0c0.1-0.1,0-0.1,0-0.1l-0.2-0.3
						c-0.1-0.1-0.2-0.1-0.2-0.3c0-0.1-0.2-0.1-0.1-0.3c-0.1-0.2-0.3-0.4-0.4-0.6c-0.1-0.2-0.2-0.4-0.4-0.6c-0.1-0.1-0.2-0.3-0.3-0.4
						c-0.1-0.1-0.2-0.3-0.4-0.5c-0.2-0.3-0.4-0.5-0.7-0.7c-0.2-0.2-0.4-0.3-0.5-0.5c-0.1-0.1-0.1-0.2-0.2-0.3c0,0-0.1,0-0.2,0l0,0
						c-0.7,0.4-0.8,0.7-0.5,1c0.2,0.2,0.4,0.4,0.5,0.5c0.1,0.1,0.2,0.2,0.3,0.3c0.1,0.1,0.3,0.2,0.3,0.4c0,0.1,0.1,0.2,0.2,0.2
						c0.1,0,0.1,0.1,0.2,0.2c0.1,0.3,0.4,0.5,0.5,0.8c0.1,0.2,0.3,0.3,0.3,0.6c0,0,0,0.1,0,0.1c0.1,0.1,0.1,0.2,0.2,0.3
						c0.2,0.2,0.2,0.6,0.5,0.8c0.1,0.1,0.1,0.2,0.2,0.3c0,0-0.1,0.1,0,0.2c0.1,0,0.1,0.2,0.1,0.2c0.1,0.1,0.1,0.3,0.2,0.5
						c0.1,0.1,0.2,0.3,0.2,0.4c0.1,0.3,0.2,0.5,0.4,0.7c0,0,0.1,0,0.2,0C92.8,52.6,93.1,52.5,93.5,52.2z"/>
				</g>
			</g>
		</g>
	</g>
	<g>
		<g>
			<g>
				<path class="st6" d="M60.7,50.7C60.7,50.7,60.7,50.7,60.7,50.7L60.7,50.7z"/>
				<path class="st6" d="M53.6,50.8c-0.2,0.1-0.2,0.3,0,0.6c0.1,0.1,0.1,0.2,0.2,0.3c0.4,0.6,1,1.1,1.6,1.4c0.7,0.3,1.5,0.5,2.3,0.3
					c1-0.1,2-0.7,2.5-1.6c0.2-0.3,0.5-0.7,0.5-1.1l0,0l0,0l0,0l0,0l0,0c0.1-0.1,0.1-0.2,0.1-0.4c0.1-0.4,0.1-0.8,0.1-1.1
					c0-0.4-0.2-0.7-0.3-1.1c-0.1-0.4-0.4-0.6-0.6-0.9c-0.6-0.6-1.3-1.1-2.1-1.3c-0.4-0.1-0.9-0.1-1.2-0.1c-0.4,0-0.7,0-0.9,0
					c-0.2,0-0.3-0.2-0.5-0.4C55.1,44.9,55,44.5,55,44c-0.1-0.8,0.2-1.6,0.8-2.1c0.4-0.4,1.1-0.6,1.7-0.5c0.3,0.1,0.6,0.2,0.8,0.4
					c0.1,0.1,0.1,0.1,0.2,0l0,0c0.3-0.3,0.4-0.5,0.3-0.8c-0.1-0.3-0.5-0.6-1.1-0.6c-0.8-0.1-1.7,0.1-2.4,0.5c-0.4,0.3-0.7,0.6-1,1
					c-0.4,0.6-0.5,1.3-0.6,1.9c0,0.3,0,0.7,0.1,1c0.1,0.3,0.2,0.5,0.3,0.8c0.1,0.2,0.2,0.5,0.4,0.8c0.2,0.2,0.5,0.5,0.8,0.5
					c0.6,0.2,1.1,0,1.5,0.1c0.5,0,1,0.1,1.4,0.5c0.1,0.1,0.1,0.1,0.2,0.1c0.3,0.2,0.5,0.4,0.7,0.7c0.5,0.6,0.4,1.4,0.3,2.1
					c-0.1,0.3-0.2,0.6-0.4,0.8c-0.1,0.1-0.2,0.1-0.2,0.2c-0.1,0.2-0.3,0.3-0.5,0.4c-0.3,0.2-0.7,0.3-1.1,0.3c-0.4,0-0.7,0-1.1-0.1
					c-0.6-0.2-1.2-0.8-1.3-1.2c0-0.1-0.1-0.1-0.2-0.1C54.3,50.6,53.9,50.5,53.6,50.8z"/>
			</g>
		</g>
	</g>
	<g>
		<g>
			<g>
				<path class="st6" d="M49,50.5L49,50.5c-0.2,0.7-0.2,1.4-0.5,1.9c-0.2,0.3-0.4,0.5-0.7,0.6c-0.3,0.2-0.6,0.3-1,0.3
					c-0.7,0.1-1.4,0-2-0.4c-1.1-0.5-1.7-1.5-2-2.6c-0.2-0.8-0.4-1.6-0.4-2.5l0,0l0-0.1l0,0c-0.1-0.3-0.1-0.7-0.1-1
					c0-1.4,0.1-2.7,0.8-3.9c0.6-1.2,1.7-2.1,3-2.1c0.8,0,1.6,0.3,2.1,0.8c0.5,0.5,0.7,1.1,0.8,1.9c0.1,0.8,0,1.7,0,2.5l0,0
					c0,0.2,0,0.4-0.1,0.5c-0.1,0.8,0,1.7-0.3,2.1c-0.1,0.1-0.3,0.2-0.4,0.2c-0.1,0,0,0-0.1,0c0,0-0.1-0.1-0.1-0.2
					c0-0.3-0.1-0.8-0.1-1.2l-0.1-1.3l-1.3,0.1c0,0.2,0,0.5-0.1,0.9c-0.2,0.6-0.3,1.4-0.7,1.7C45.6,49,45.5,49,45.4,49
					c-0.1,0-0.3-0.2-0.4-0.4c-0.2-0.4-0.1-1.3,0.1-2c0.1-0.3,0.2-0.6,0.4-0.8c0.2-0.2,0.5-0.3,0.7-0.3l0,0l0,0l0,0
					c0.1-0.2,0.2-0.3,0.1-0.5c-0.1-0.2-0.3-0.3-0.5-0.4c-0.3-0.1-0.8,0-1.2,0.4c-0.3,0.4-0.5,0.7-0.6,1.1c-0.2,0.6-0.3,1.1-0.4,1.7
					c0,0.3,0,0.6,0.1,1c0.1,0.4,0.3,0.7,0.6,1c0.3,0.2,0.6,0.4,1,0.4c0.4,0,0.8-0.1,1.1-0.3c0.6-0.4,0.7-1,0.9-1.4
					c0.1-0.4,0.2-0.7,0.3-1.1c0.1-0.4,0.1-0.8,0-1.3l-1,0.1l0.1,2.1c0,0.3,0,0.8,0.4,1.3c0.2,0.2,0.5,0.4,0.7,0.4
					c0.3,0,0.5,0,0.7-0.1c0.5-0.2,0.8-0.6,1-1c0.2-0.4,0.2-0.8,0.2-1.2l0.1-2.2c0-0.8,0.1-1.7-0.1-2.6c-0.1-0.9-0.6-1.8-1.4-2.4
					c-1.2-0.8-2.8-1-4.1-0.3c-0.7,0.4-1.3,0.9-1.8,1.5l0,0c-0.6,0.9-1,1.8-1.2,2.8C41.1,45.2,41,46,41,46.8l0,0
					c0,0.8,0.1,1.7,0.2,2.5c0.1,0.8,0.3,1.7,0.7,2.5c0.8,1.7,2.6,2.7,4.4,2.6c0.7,0,1.4-0.1,2.1-0.6c0.7-0.4,1.1-1.2,1.3-1.9
					c0.1-0.4,0.2-0.7,0.2-1.1C49.8,50.2,49.3,50.3,49,50.5z"/>
				<polygon class="st6" points="42.5,41.6 42.5,41.6 42.5,41.6 				"/>
			</g>
		</g>
	</g>
</g>
<rect x="96.2" y="37.5" class="st7" width="1.8" height="16.4"/>
</svg>
