<?xml version="1.0" encoding="utf-8"?>
<!-- Generator: Adobe Illustrator 24.2.1, SVG Export Plug-In . SVG Version: 6.00 Build 0)  -->
<svg version="1.1" xmlns="http://www.w3.org/2000/svg" xmlns:xlink="http://www.w3.org/1999/xlink" x="0px" y="0px"
	 viewBox="0 0 116 102.5" style="enable-background:new 0 0 116 102.5;" xml:space="preserve">
<style type="text/css">
	.st0{opacity:0.25;}
	.st1{fill:#396A7C;}
	.st2{fill:#EAEAE9;}
	.st3{fill:#231F20;}
	.st4{fill:#FFFFFF;}
</style>
<g id="Layer_1">
	<g class="st0">
		<path class="st1" d="M13.2,99.9c5.9-2.7,14.7-6.3,20.7-9.1c0.9-0.4,1.8-0.8,2.7-0.9c1-0.1,1.9,0.3,2.8,0.5c6.1,2,12.2,4,18.3,6
			c1.2,0.4,2.5,0.8,3.8,0.7c0.9-0.1,1.8-0.5,2.7-0.9c2.7-1.3,5.3-2.5,8-3.8c5.1-2.4,10.6-4.9,16.2-3.9c2.6,0.5,5,1.7,7.5,2.6
			c6.5,2.4,13.4,3.2,20.3,3.9c-8.5-11.3-12.9-25.1-18-38.4c-0.3-0.8-0.6-1.6-1.3-2.2c-0.7-0.7-1.8-1-2.7-1.2
			c-3.7-0.9-7.3-1.8-11-2.8c-1.1-0.3-2.2-0.6-3.4-0.5c-1.5,0.1-3,0.7-4.4,1.3c-4,1.8-8,3.5-12.1,5.3c-2.3,1-4.7,2-7.3,2
			c-2.1,0-4.2-0.7-6.2-1.5c-4.7-1.7-9.4-3.4-14-5.1c-1.3-0.5-2.6-0.9-3.9-0.8c-1,0.1-2,0.5-3,1c-4.8,2.3-9.7,4.5-14.5,6.8
			c-0.5,0.2-1.1,0.5-1.4,1c-0.3,0.4-0.4,1-0.5,1.5c-1.9,13.6-3,27.2-3.3,40.9c1.6-1.5,20.1-9.9,22.2-10.6"/>
	</g>
	<path class="st2" d="M105,78.7c-2.2-2.6-5.3-4-8.4-5.2c1.7-1.5,2.3-4.3,0.4-6.6c-0.2-0.2-0.4-0.5-0.6-0.7c0.8-1.2,1-2.8-0.1-4.5
		c-1.4-2.1-2.6-4.2-3.7-6.5c-1.1-2.4-1.6-5.1-3.4-7c-1.6-1.8-3.9-2.5-6.1-3.3c-2.6-0.9-5.1-1.7-7.7-2.6c-1.2-0.4-2.3-0.3-3.2,0.2
		c-1.5-0.9-3.6-1-5.4,0.1c-0.6-0.1-1.2-0.2-1.8-0.2c-2.3,0-4.2,2-4.5,4.1c-3.6,1.6-7.5,2.5-11.5,2.5c-0.1,0-0.3,0-0.4,0.1
		c-0.6-0.7-1.3-1.2-2.3-1.5c-3.1-0.8-6.1-1.6-9.3-2.2c-0.1,0-0.2-0.1-0.3-0.1c-3.4-1.5-6.7-2.8-10.5-2.9c-1.9,0-3.4,1.2-4.1,2.7
		c0,0,0,0,0,0c-2.4-1.9-7-1.7-7.6,2c-0.1,0.5-0.1,1-0.2,1.5c-0.8-0.9-1.9-1.7-3.2-2.3c-2.9-1.2-5.7,1.7-5.8,4.4
		C4.8,62.2,3.2,73.6,0.2,84.7c-1.5,5.6,7.1,8,8.7,2.6c1.7,1.6,4.7,1.7,6.6,0.1c2.1-1.8,4.8-2.8,7.6-3c3.6-0.2,5.5-3.7,3.9-6.9
		c-2.9-6-4.4-12.5-4.6-19.2c1,3.4,2,6.8,2.8,10.3c0.4,1.8,0.8,3.7,1.1,5.5c0.4,2.1,0.5,4.1,2.5,5.3c2.8,1.7,6.5,2.7,9.6,3.4
		c1.7,0.4,3.4,0.7,5.1,0.9c0.5,0.4,1,0.7,1.6,1c0.6,0.2,1.1,0.7,1.6,1c1.2,1,2.8,1.3,4.2,1c1.2,0.7,2.7,0.8,4.3-0.2
		c6.1-4.1,12.7-6.7,19.9-7.9c1-0.2,1.9-0.9,2.6-1.9c0.6,0.8,1.4,1.5,2.4,1.7c6.8,1.5,13.1,3.9,19.1,7.3
		C104.1,88.5,108.3,82.5,105,78.7z M77,59.2C77,59.2,77,59.2,77,59.2C77,59.2,77,59.2,77,59.2C77,59.2,77,59.2,77,59.2z"/>
	<g>
		<g>
			<g>
				<path class="st3" d="M13,46l5.1-2.4l2.6-1.2c0.9-0.4,1.9-0.8,2.9-0.8c1.1,0,2.1,0.2,3,0.5l2.7,1l5.3,1.9L40,47
					c1.8,0.6,3.6,1.4,5.4,1.7c1.8,0.4,3.6,0.2,5.3-0.3c1.8-0.5,3.5-1.4,5.2-2.1l9.2-4c1.5-0.6,3-1.4,4.8-1.8c0.9-0.2,1.9-0.2,2.7,0
					c0.9,0.1,1.7,0.4,2.5,0.6l9.7,2.4c0.8,0.2,1.6,0.4,2.5,0.7c0.4,0.2,0.9,0.4,1.2,0.8c0.4,0.3,0.7,0.8,0.9,1.2
					c0.4,0.8,0.7,1.6,1,2.4l0.9,2.3c3.5,9.2,6.7,18.4,11.5,26.9c1.2,2.1,2.5,4.2,3.9,6.2l1.8,2.4l0.3,0.4c0,0,0.1,0.1,0.1,0.1
					l-0.1,0l-0.2,0l-0.9-0.1l-1.8-0.2l-3.7-0.4c-4.9-0.6-9.8-1.4-14.5-3.1c-2.3-0.8-4.4-1.9-6.6-2.5c-2.2-0.6-4.5-0.7-6.8-0.3
					c-4.6,0.8-8.8,3-13.1,5l-4.6,2.2c-0.8,0.4-1.5,0.7-2.4,1.1c-0.9,0.3-1.9,0.4-2.8,0.3c-0.9-0.1-1.8-0.4-2.6-0.7l-2.4-0.8
					l-4.8-1.6l-9.7-3.2c-1.6-0.5-3.2-1.3-4.6-0.8c-0.7,0.2-1.5,0.6-2.3,0.9l-2.3,1c-4.6,2-9.3,4.1-13.9,6.1c-1.6,0.7-2.4,1-2.6,1
					c-0.3-0.1-1,0-1.6,0l0,0c0,0,0-0.1,0.1-0.1c0.5-0.7,0.5-0.7,6.1-3.1c3.3-1.5,6.7-2.9,10-4.4l5-2.2c0.8-0.4,1.9-0.7,2.9-0.6
					c1,0.1,1.9,0.4,2.8,0.7l10.3,3.5l5.2,1.7l2.6,0.9c0.9,0.3,1.7,0.5,2.5,0.6c1.4,0.2,2.8-0.6,4.2-1.3l4.3-2
					c2.9-1.3,5.7-2.8,8.7-3.9c3-1.1,6.2-1.9,9.5-1.6c3.3,0.3,6.2,1.8,9.1,2.9c3.1,1.1,6.4,1.9,9.7,2.4c1.6,0.3,3.3,0.5,5,0.7
					l2.5,0.3l1.1,0.1l0.1,0c0,0,0,0,0,0l-0.2-0.3c-0.4-0.5-0.8-1.1-1.1-1.7c-0.8-1.1-1.4-2.3-2.2-3.4c-1.4-2.3-2.6-4.7-3.8-7.1
					C96.5,68,94.5,63,92.6,58c-1.4-3.6-2.7-7.3-4.1-10.9c-0.4-0.8-0.8-1.4-1.6-1.7c-0.8-0.3-1.7-0.5-2.7-0.8l-5.7-1.4
					c-1.9-0.5-3.8-1-5.6-1.4c-0.9-0.2-1.8-0.2-2.6-0.1c-0.9,0.2-1.7,0.5-2.6,0.9l-10.7,4.6c-2.3,1-4.5,2.1-7.1,2.7
					c-1.3,0.3-2.6,0.3-3.9,0.2c-1.3-0.2-2.5-0.6-3.7-1l-14-5.1c-1.7-0.6-3.5-1.4-5.1-1.1c-0.8,0.1-1.6,0.5-2.4,0.9L18.1,45L8,49.6
					c-0.8,0.4-1.7,0.8-2.5,1.2C5.2,51,5,51.2,4.8,51.5c-0.1,0.3-0.2,0.7-0.3,1.2l-0.7,5.5c-0.5,3.7-0.9,7.3-1.2,11
					c-0.2,2-0.4,3.9-0.5,5.8l0,0c-0.2,2.9-0.4,5.9-0.6,8.8l-0.2,4.4l-0.1,4c0,0.1,0,0.1,0,0.2c0.1-0.1,0.1-0.1,0.2-0.1l0.4-0.2
					l0.5-0.3c0.6-0.4,1.3-0.7,2-1l4-1.9c2.7-1.3,5.3-2.5,7.9-3.7l0,0c3.2-1.4,6.4-2.4,6.2-2c0,0-0.1,0.1-0.1,0.1
					c0,0.1,1.7-0.3,0.2,0.3c-1.7,0.8-4.1,1.9-6.3,2.9c-2.5,1.2-5.1,2.4-7.6,3.6c-1.3,0.6-2.5,1.2-3.8,1.9c-0.6,0.3-1.3,0.6-1.9,1
					l-0.5,0.2l-0.6,0.3c-0.3,0.2-0.6,0.4-0.9,0.6L0,94.7c0-1.8,0.1-3.7,0.1-5.6c0.1-3.6,0.4-7.5,0.6-11.3l0,0
					c0.3-3.8,0.6-7.6,1-11.4c0.4-4.2,0.9-8.3,1.5-12.5l0.2-1.6c0.1-0.5,0.2-1.2,0.6-1.7c0.4-0.6,1-0.8,1.5-1.1l1.4-0.7l5.7-2.7l0,0
					L13,46L13,46z"/>
			</g>
		</g>
	</g>
	<g>
		<g>
			<g>
				<path class="st3" d="M53,88C53,88,53,88,53,88c-0.8,0.2-1,0-1.3-1.2c-0.2-0.7-0.3-1.3-0.5-2c-0.3-1.1-0.5-2.2-0.7-3.2
					c-0.1-0.4-0.2-0.8-0.3-1.2c-0.3-1-0.5-2.1-0.7-3.1c-0.1-0.4-0.2-0.8-0.3-1.2c-0.1-1-0.5-1.9-0.6-2.8c-0.1-1-0.4-1.9-0.5-2.9
					c0-0.7-0.2-1.4-0.4-2.1c-0.1-0.3-0.1-0.7-0.1-1l-0.3-2.5c-0.1-1.1-0.2-2.2-0.2-3.3c0-0.5-0.1-1-0.1-1.5c0-0.4,0-0.9,0-1.3
					C47,58.1,47,57.7,47,57.2c0.1-0.8-0.1-1.7,0-2.5c0-1.1-0.1-2.3,0.1-3.4c0.1-0.6,0.4-0.9,0.7-0.9c0.2,0,0.3,0.2,0.4,0.6
					c0.1,0.6,0,1.2,0,1.8c0,1,0.1,2.1,0.1,3.1c0,1.7,0,3.4,0.2,5.1c0.2,2.7,0.4,5.4,0.9,8c0.3,1.8,0.7,3.6,1,5.4
					c0.4,1.8,0.8,3.6,1.2,5.4c0.5,2.2,1,4.3,1.6,6.5c0.1,0.3,0.2,0.7,0.3,1c0.1,0.2,0.1,0.4-0.1,0.5C53.4,87.9,53.2,87.9,53,88z"/>
			</g>
		</g>
	</g>
	<g>
		<g>
			<g>
				<path class="st3" d="M26.8,81.8C26.8,81.8,26.7,81.8,26.8,81.8c-0.8,0.1-1-0.1-1.2-1.4c-0.1-0.7-0.2-1.4-0.3-2.1
					c-0.2-1.1-0.3-2.3-0.4-3.4c0-0.4-0.1-0.8-0.2-1.3c-0.2-1.1-0.3-2.2-0.4-3.3c-0.1-0.4-0.2-0.8-0.2-1.2c0-1-0.3-2-0.3-3
					c0-1-0.2-2-0.2-3c0-0.7-0.1-1.5-0.2-2.2c-0.1-0.4,0-0.7,0-1l-0.1-2.6c0-1.1-0.1-2.2,0-3.3c0-0.5,0-1,0-1.6c0-0.5,0.1-0.9,0-1.3
					c0-0.5-0.1-0.9,0-1.3c0.1-0.9,0-1.7,0-2.6c0-1.2-0.1-2.3,0.1-3.5c0.1-0.6,0.3-1,0.7-0.9c0.2,0,0.3,0.2,0.4,0.6
					c0.1,0.6,0,1.3,0,1.9c0,1.1,0.1,2.1,0.1,3.2c0,1.8,0,3.5,0,5.3c0.1,2.8,0.1,5.5,0.4,8.3c0.2,1.9,0.3,3.7,0.5,5.6
					c0.2,1.9,0.4,3.8,0.7,5.6c0.3,2.3,0.7,4.5,1.1,6.7c0.1,0.4,0.2,0.7,0.2,1.1c0.1,0.3,0.1,0.4-0.1,0.5
					C27.1,81.7,27,81.8,26.8,81.8z"/>
			</g>
		</g>
	</g>
	<g>
		<g>
			<g>
				<path class="st3" d="M80.1,79.9C80.1,79.9,80.1,79.9,80.1,79.9c-0.8,0.1-1-0.1-1.2-1.5c-0.1-0.7-0.2-1.4-0.2-2.1
					c-0.1-1.1-0.3-2.3-0.4-3.4c0-0.4-0.2-0.8-0.2-1.3c-0.2-1.1-0.3-2.2-0.5-3.3c-0.1-0.4-0.2-0.8-0.2-1.2c-0.1-1-0.5-2-0.6-2.9
					c-0.1-1-0.5-2-0.6-3c-0.1-0.7-0.3-1.5-0.5-2.2c-0.1-0.3-0.1-0.7-0.2-1l-0.6-2.5c-0.3-1.1-0.5-2.2-0.8-3.3
					c-0.1-0.5-0.3-1-0.4-1.5c-0.1-0.4-0.2-0.9-0.3-1.3c-0.2-0.4-0.3-0.9-0.4-1.3c-0.2-0.9-0.5-1.7-0.8-2.5c-0.3-1.1-0.8-2.2-1.1-3.3
					c-0.1-0.6,0-1,0.3-1.1c0.2-0.1,0.4,0,0.6,0.4c0.3,0.6,0.5,1.2,0.7,1.8c0.4,1,0.8,2,1.1,3.1c0.5,1.7,1,3.4,1.5,5.2
					c0.8,2.7,1.4,5.5,2,8.2c0.5,1.9,0.8,3.7,1.2,5.6c0.4,1.9,0.7,3.8,1.1,5.7c0.4,2.3,0.7,4.6,1,6.9c0.1,0.4,0.1,0.7,0.2,1.1
					c0,0.3,0,0.4-0.1,0.5C80.5,79.9,80.3,79.9,80.1,79.9z"/>
			</g>
		</g>
	</g>
	<g>
		<g>
			<path class="st2" d="M67.9,62.4c0,0,1.4-6,3-8.5c0.5-0.8,1-1.5,1.4-2.3c0.8-1.7,0.8-3.7,0-5.4c-0.2-0.4-0.4-0.8-0.7-1.1
				c-1-1.1-2.5-1.7-4-1.6s-2.9,0.9-3.9,1.9c-0.4,0.4-0.7,0.8-1,1.3c-0.3,0.7-0.4,1.4-0.4,2.1c0,1.4,0.6,3.3,2.3,5.4
				C67.1,57.2,67.9,62.4,67.9,62.4z"/>
			<g>
				<g>
					<path class="st3" d="M65.6,56.3c-0.2-0.7-0.7-1.2-1.1-1.7c-0.7-0.9-1.3-2-1.8-3c-0.5-1.2-0.8-2.5-0.6-3.8
						c0.1-0.6,0.4-1.3,0.8-1.8c0.4-0.5,0.9-0.9,1.4-1.3c1.2-0.9,2.6-1.4,4.1-1.3c1.5,0.1,3,0.8,3.8,2.1c1,1.5,1.1,3.4,0.7,5
						c-0.2,1.2-0.9,2.2-1.6,3.2c-0.6,0.9-1.1,2-1.4,3.1c-0.5,1.5-1.1,3.1-1.5,4.7c0,0.2-0.1,0.4-0.1,0.6c0,0.4-0.2,0.5-0.5,0.5
						c-0.2,0-0.2-0.2-0.2-0.5c0.2-1,0.5-2,0.8-2.9c0.4-1.3,0.7-2.5,1.3-3.8c0.2-0.6,0.6-1.2,0.9-1.8c0.4-0.6,0.7-1.1,1-1.6
						c0.6-1.1,1-2.5,0.8-3.8c-0.2-1.6-1.1-3.2-2.6-3.8c-1.6-0.7-3.3-0.4-4.8,0.5c-1,0.6-2,1.4-2.3,2.5c-0.3,1.1-0.2,2.3,0.1,3.5
						c0.3,0.8,0.7,1.6,1.2,2.3c0.5,0.7,1.1,1.4,1.5,2.2c1.1,2.2,1.9,4.5,2.3,6.8c0,0.3-0.1,0.4-0.3,0.4c-0.1,0-0.2,0-0.3-0.2
						C67.1,60.2,66.5,58.2,65.6,56.3L65.6,56.3z"/>
				</g>
			</g>
		</g>
		<g>
			<path class="st4" d="M68.6,45.9c-0.5-0.2-1.1,0-1.6,0.2c-0.4,0.2-0.7,0.3-1,0.6c-0.6,0.5-0.8,1.3-0.9,2c-0.1,1,0.1,2.1,0.9,2.6
				c0.2,0.2,0.5,0.3,0.8,0.4c0.6,0.2,1.2,0.4,1.8,0.3c0.8-0.1,1.5-0.9,1.7-1.7s0.2-1.7,0.2-2.5c0-0.3,0-0.6-0.1-0.8
				c-0.2-0.8-1.8-1.2-2.6-1.3"/>
			<g>
				<g>
					<path class="st3" d="M70,50.4C70,50.4,70,50.5,70,50.4L70,50.4z"/>
					<path class="st3" d="M67.9,46.2c0,0.1,0.1,0.1,0.3,0.1c0.1,0,0.1,0,0.2,0c0.4,0.1,0.9,0.2,1.2,0.4c0.2,0.1,0.4,0.3,0.5,0.4
						c0.1,0.1,0.1,0.4,0.1,0.6c0,0.7,0,1.3,0,1.9c0,0.3-0.1,0.5-0.2,0.7l0,0l0,0l0,0l0,0l0,0c-0.1,0.1-0.1,0.1-0.1,0.2
						c-0.1,0.2-0.2,0.4-0.4,0.6c-0.1,0.2-0.3,0.3-0.5,0.4c-0.2,0.1-0.4,0.2-0.6,0.2c-0.4,0.1-0.9-0.1-1.4-0.2
						c-0.5-0.2-1-0.4-1.2-0.8c-0.2-0.2-0.3-0.5-0.3-0.8c-0.1-0.4-0.1-0.8-0.1-1.2c0-0.7,0.2-1.4,0.7-1.8c0.4-0.4,1-0.6,1.5-0.8
						c0.3-0.1,0.6-0.2,0.8-0.1c0.1,0,0.1,0,0.1,0l0,0c0.1-0.2,0-0.3-0.2-0.4c-0.2-0.1-0.5-0.1-0.9,0c-0.5,0.2-1,0.4-1.5,0.8
						c-0.3,0.2-0.5,0.5-0.7,0.8c-0.2,0.4-0.3,0.9-0.4,1.4c0,0.2-0.1,0.5,0,0.7c0,0.2,0,0.4,0.1,0.6c0.1,0.8,0.6,1.6,1.3,1.9
						c0.5,0.2,0.9,0.4,1.4,0.5c0.1,0,0.2,0,0.3,0c0.3,0,0.7,0,1-0.1c0.8-0.3,1.3-1,1.6-1.7c0.1-0.3,0.2-0.6,0.2-0.9
						c0-0.1,0.1-0.2,0.1-0.3c0-0.2,0-0.4,0-0.6c0-0.4,0-0.8,0-1.2c0-0.2-0.1-0.4-0.2-0.7c-0.1-0.2-0.3-0.4-0.5-0.5
						c-0.6-0.5-1.3-0.6-2-0.8c-0.1,0-0.2,0-0.2,0C67.8,45.8,67.8,46,67.9,46.2z"/>
				</g>
			</g>
		</g>
	</g>
	<g>
		<g>
			<path class="st2" d="M50.5,58.5c0,0,1.4-6,3-8.5c0.5-0.8,1-1.5,1.4-2.3c0.8-1.7,0.8-3.7,0-5.4c-0.2-0.4-0.4-0.8-0.7-1.1
				c-1-1.1-2.5-1.7-4-1.6c-1.5,0.1-2.9,0.9-3.9,1.9c-0.4,0.4-0.7,0.8-1,1.3c-0.3,0.7-0.4,1.4-0.4,2.1c0,1.4,0.6,3.3,2.3,5.4
				C49.7,53.3,50.5,58.5,50.5,58.5z"/>
			<g>
				<g>
					<path class="st3" d="M48.2,52.4c-0.2-0.7-0.7-1.2-1.1-1.7c-0.7-0.9-1.3-2-1.8-3c-0.5-1.2-0.8-2.5-0.6-3.8
						c0.1-0.6,0.4-1.3,0.8-1.8c0.4-0.5,0.9-0.9,1.4-1.3c1.2-0.9,2.6-1.4,4.1-1.3c1.5,0.1,3,0.8,3.8,2.1c1,1.5,1.1,3.4,0.7,5
						c-0.2,1.2-0.9,2.2-1.6,3.2c-0.6,0.9-1.1,2-1.4,3.1c-0.5,1.5-1.1,3.1-1.5,4.7c0,0.2-0.1,0.4-0.1,0.6c0,0.4-0.2,0.5-0.5,0.5
						c-0.2,0-0.2-0.2-0.2-0.5c0.2-1,0.5-2,0.8-2.9c0.4-1.3,0.7-2.5,1.3-3.8c0.2-0.6,0.6-1.2,0.9-1.8c0.4-0.6,0.7-1.1,1-1.6
						c0.6-1.1,1-2.5,0.8-3.8c-0.2-1.6-1.1-3.2-2.6-3.8c-1.6-0.7-3.3-0.4-4.8,0.5c-1,0.6-2,1.4-2.3,2.5c-0.3,1.1-0.2,2.3,0.1,3.5
						c0.3,0.8,0.7,1.6,1.2,2.3c0.5,0.7,1.1,1.4,1.5,2.2c1.1,2.2,1.9,4.5,2.3,6.8c0,0.3-0.1,0.4-0.3,0.4c-0.1,0-0.2,0-0.3-0.2
						C49.7,56.3,49.1,54.3,48.2,52.4L48.2,52.4z"/>
				</g>
			</g>
		</g>
		<g>
			<path class="st4" d="M51.2,42c-0.5-0.2-1.1,0-1.6,0.2c-0.4,0.2-0.7,0.3-1,0.6c-0.6,0.5-0.8,1.3-0.9,2c-0.1,1,0.1,2.1,0.9,2.6
				c0.2,0.2,0.5,0.3,0.8,0.4c0.6,0.2,1.2,0.4,1.8,0.3c0.8-0.1,1.5-0.9,1.7-1.7c0.3-0.8,0.2-1.7,0.2-2.5c0-0.3,0-0.6-0.1-0.8
				c-0.2-0.8-1.8-1.2-2.6-1.3"/>
			<g>
				<g>
					<path class="st3" d="M52.6,46.5C52.6,46.5,52.6,46.6,52.6,46.5L52.6,46.5z"/>
					<path class="st3" d="M50.5,42.3c0,0.1,0.1,0.1,0.3,0.1c0.1,0,0.1,0,0.2,0c0.4,0.1,0.9,0.2,1.2,0.4c0.2,0.1,0.4,0.3,0.5,0.4
						c0.1,0.1,0.1,0.4,0.1,0.6c0,0.7,0,1.3,0,1.9c0,0.3-0.1,0.5-0.2,0.7l0,0l0,0l0,0l0,0l0,0c-0.1,0.1-0.1,0.1-0.1,0.2
						c-0.1,0.2-0.2,0.4-0.4,0.6c-0.1,0.2-0.3,0.3-0.5,0.4c-0.2,0.1-0.4,0.2-0.6,0.2c-0.4,0.1-0.9-0.1-1.4-0.2
						c-0.5-0.2-1-0.4-1.2-0.8c-0.2-0.2-0.3-0.5-0.3-0.8C48,45.8,48,45.4,48,45c0-0.7,0.2-1.4,0.7-1.8c0.4-0.4,1-0.6,1.5-0.8
						c0.3-0.1,0.6-0.2,0.8-0.1c0.1,0,0.1,0,0.1,0l0,0c0.1-0.2,0-0.3-0.2-0.4c-0.2-0.1-0.5-0.1-0.9,0c-0.5,0.2-1,0.4-1.5,0.8
						c-0.3,0.2-0.5,0.5-0.7,0.8c-0.2,0.4-0.3,0.9-0.4,1.4c0,0.2-0.1,0.5,0,0.7c0,0.2,0,0.4,0.1,0.6c0.1,0.8,0.6,1.6,1.3,1.9
						c0.5,0.2,0.9,0.4,1.4,0.5c0.1,0,0.2,0,0.3,0c0.3,0,0.7,0,1-0.1c0.8-0.3,1.3-1,1.6-1.7c0.1-0.3,0.2-0.6,0.2-0.9
						c0-0.1,0.1-0.2,0.1-0.3c0-0.2,0-0.4,0-0.6c0-0.4,0-0.8,0-1.2c0-0.2-0.1-0.4-0.2-0.7c-0.1-0.2-0.3-0.4-0.5-0.5
						c-0.6-0.5-1.3-0.6-2-0.8c-0.1,0-0.2,0-0.2,0C50.4,41.9,50.4,42.1,50.5,42.3z"/>
				</g>
			</g>
		</g>
	</g>
	<g>
		<g>
			<path class="st2" d="M56.5,65.5c0,0,4.8-20.5,10.3-29.4c1.7-2.7,3.6-5.2,4.9-8c2.7-5.8,2.7-12.9,0-18.7c-0.6-1.3-1.4-2.6-2.3-3.7
				c-3.3-3.9-8.6-5.8-13.7-5.4s-9.9,2.9-13.5,6.5C41,8.1,39.8,9.5,39,11.2c-1.1,2.2-1.5,4.8-1.4,7.3c0.1,4.9,2.2,11.4,7.9,18.6
				C53.7,47.6,56.5,65.5,56.5,65.5z"/>
			<g>
				<g>
					<path class="st3" d="M49.2,44.3c-0.9-2.2-2.3-4.1-3.7-6c-0.5-0.8-1.2-1.6-1.7-2.4c-0.6-0.8-1.1-1.7-1.7-2.5
						c-1.1-1.7-2-3.5-2.8-5.3c-0.9-2-1.6-4.1-2-6.3c-0.4-2.2-0.4-4.4,0-6.6c0.4-2.2,1.2-4.3,2.6-6.1c1.4-1.8,3-3.2,4.7-4.5
						c4-2.9,8.9-4.8,14-4.4c2.5,0.2,5,0.9,7.2,2.1c2.2,1.2,4.2,3,5.6,5.1c1.6,2.5,2.5,5.3,2.9,8.2c0.4,2.9,0.1,5.9-0.5,8.7
						c-0.5,2-1.2,3.9-2.2,5.7c-1,1.8-2.1,3.4-3.2,5.1c-2.2,3.3-3.7,6.9-5.1,10.6c-1.9,5.3-3.7,10.6-5,16c-0.2,0.7-0.3,1.4-0.4,2.1
						c-0.1,1.2-0.6,1.7-1.1,1.9c-0.5,0.2-0.4-0.7-0.2-1.5c0.8-3.4,1.8-6.7,2.7-10c1.3-4.3,2.6-8.7,4.4-12.8c0.9-2.1,1.9-4.1,3.1-6.1
						c1.2-1.9,2.5-3.7,3.6-5.7c2.3-4,3.3-8.7,2.7-13.2c-0.4-2.9-1.3-5.6-2.8-8.1c-1.4-2.5-3.6-4.4-6.2-5.5c-2.7-1.2-5.8-1.7-8.7-1.3
						c-3,0.3-5.8,1.4-8.4,2.9c-1.8,1-3.4,2.4-4.9,3.8c-1.4,1.5-2.6,3.2-3.2,5.1c-0.6,1.9-0.8,4.1-0.7,6.1c0.1,2.1,0.6,4.1,1.3,6.1
						c1,2.8,2.4,5.5,4.1,8c0.8,1.3,1.7,2.4,2.6,3.7c0.4,0.6,0.9,1.3,1.3,1.9l1.2,2c2,3.6,3.6,7.5,4.9,11.4c1.3,3.9,2.3,7.9,3,12
						c0.2,1.1-0.2,1.2-0.5,1.3c-0.3,0.1-0.5-0.2-0.6-0.9c-0.6-3.5-1.5-7-2.5-10.4C52,50.9,50.7,47.5,49.2,44.3L49.2,44.3z"/>
				</g>
			</g>
		</g>
		<g>
			<path class="st4" d="M59.1,8.9c-1.7-0.7-3.7,0.1-5.4,0.9c-1.2,0.6-2.5,1.1-3.5,2c-1.9,1.7-2.7,4.4-3,7c-0.3,3.3,0.3,7.1,3,9
				c0.8,0.6,1.7,0.9,2.6,1.3c1.9,0.8,4,1.5,6,1.2c2.8-0.5,5-3,6-5.7c0.9-2.7,0.8-5.7,0.8-8.6c0-0.9-0.1-1.9-0.4-2.8
				c-0.9-2.6-6.1-4-8.9-4.4"/>
			<g>
				<g>
					<path class="st3" d="M64.2,24.6C64.2,24.6,64.2,24.6,64.2,24.6L64.2,24.6z"/>
					<path class="st3" d="M56.7,9.4c0.2,0.2,0.5,0.2,1,0.3c0.2,0,0.4,0,0.6,0.1c1.5,0.3,3,0.8,4.4,1.6c0.7,0.4,1.4,0.9,1.8,1.6
						c0.4,0.6,0.5,1.5,0.5,2.3c0.1,2.3,0.2,4.6-0.1,6.8c-0.1,0.9-0.4,1.8-0.6,2.6l0,0l0,0l0,0l0,0.1l0,0c-0.1,0.2-0.3,0.5-0.4,0.8
						c-0.3,0.7-0.8,1.4-1.3,2c-0.5,0.6-1.1,1.2-1.7,1.5c-0.7,0.4-1.3,0.8-2.1,0.8c-1.7,0.3-3.5-0.2-5.2-0.9
						c-0.9-0.3-1.7-0.7-2.5-1.1c-0.8-0.4-1.4-1-1.9-1.7c-0.6-0.8-1-1.9-1.2-2.9c-0.3-1.4-0.4-2.8-0.3-4.2c0.2-2.4,0.9-4.9,2.5-6.5
						c0.7-0.7,1.5-1.2,2.4-1.7c0.9-0.4,1.9-0.9,2.8-1.2c1-0.3,2-0.6,3-0.3c0.3,0.1,0.5,0.1,0.5,0l0,0c0.1-0.3-0.1-0.6-0.7-0.9
						C57.6,8,56.5,8,55.3,8.5c-0.9,0.3-1.7,0.7-2.5,1.1C52,10,51.1,10.4,50.3,11c-0.9,0.7-1.6,1.6-2.2,2.6c-0.8,1.5-1.1,3.1-1.4,4.7
						c-0.1,0.8-0.2,1.6-0.1,2.5c0.1,0.6,0.1,1.3,0.2,2c0.2,1.3,0.6,2.6,1.3,3.7c0.7,1.1,1.8,2,3,2.6c1.6,0.7,3.1,1.3,4.8,1.7
						c0.3,0.1,0.5,0.1,0.8,0.1c1.1,0.1,2.3,0,3.4-0.4c2.5-1,4.3-3.2,5.1-5.7c0.3-0.9,0.6-2,0.7-3c0.1-0.4,0.2-0.7,0.2-1
						c0-0.7,0.1-1.4,0.1-2.1c0-1.4,0-2.8-0.1-4.2c-0.1-0.7-0.2-1.3-0.6-2c-0.4-0.7-0.9-1.1-1.4-1.5c-1-0.8-2.1-1.3-3.3-1.7
						c-1.1-0.4-2.3-0.7-3.5-0.9c-0.3-0.1-0.5-0.1-0.7,0C56.1,8.6,56.2,9,56.7,9.4z"/>
				</g>
			</g>
		</g>
	</g>
	<g>
		<g>
			<path class="st2" d="M61.1,71.9c0,0,1.4-6,3-8.5c0.5-0.8,1-1.5,1.4-2.3c0.8-1.7,0.8-3.7,0-5.4c-0.2-0.4-0.4-0.8-0.7-1.1
				c-1-1.1-2.5-1.7-4-1.6s-2.9,0.9-3.9,1.9c-0.4,0.4-0.7,0.8-1,1.3c-0.3,0.7-0.4,1.4-0.4,2.1c0,1.4,0.6,3.3,2.3,5.4
				C60.2,66.7,61.1,71.9,61.1,71.9z"/>
			<g>
				<g>
					<path class="st3" d="M58.8,65.8c-0.2-0.7-0.7-1.2-1.1-1.7c-0.7-0.9-1.3-2-1.8-3c-0.5-1.2-0.8-2.5-0.6-3.8
						c0.1-0.6,0.4-1.3,0.8-1.8c0.4-0.5,0.9-0.9,1.4-1.3c1.2-0.9,2.6-1.4,4.1-1.3c1.5,0.1,3,0.8,3.8,2.1c1,1.5,1.1,3.4,0.7,5
						c-0.2,1.2-0.9,2.2-1.6,3.2c-0.6,0.9-1.1,2-1.4,3.1c-0.5,1.5-1.1,3.1-1.5,4.7c0,0.2-0.1,0.4-0.1,0.6c0,0.4-0.2,0.5-0.5,0.5
						c-0.2,0-0.2-0.2-0.2-0.5c0.2-1,0.5-2,0.8-2.9c0.4-1.3,0.7-2.5,1.3-3.8c0.2-0.6,0.6-1.2,0.9-1.8c0.4-0.6,0.7-1.1,1-1.6
						c0.6-1.1,1-2.5,0.8-3.8c-0.2-1.6-1.1-3.2-2.6-3.8c-1.6-0.7-3.3-0.4-4.8,0.5c-1,0.6-2,1.4-2.3,2.5c-0.3,1.1-0.2,2.3,0.1,3.5
						c0.3,0.8,0.7,1.6,1.2,2.3c0.5,0.7,1.1,1.4,1.5,2.2c1.1,2.2,1.9,4.5,2.3,6.8c0,0.3-0.1,0.4-0.3,0.4c-0.1,0-0.2,0-0.3-0.2
						C60.2,69.7,59.7,67.6,58.8,65.8L58.8,65.8z"/>
				</g>
			</g>
		</g>
		<g>
			<path class="st4" d="M61.8,55.4c-0.5-0.2-1.1,0-1.6,0.2c-0.4,0.2-0.7,0.3-1,0.6c-0.6,0.5-0.8,1.3-0.9,2c-0.1,1,0.1,2.1,0.9,2.6
				c0.2,0.2,0.5,0.3,0.8,0.4c0.6,0.2,1.2,0.4,1.8,0.3c0.8-0.1,1.5-0.9,1.7-1.7c0.3-0.8,0.2-1.7,0.2-2.5c0-0.3,0-0.6-0.1-0.8
				c-0.2-0.8-1.8-1.2-2.6-1.3"/>
			<g>
				<g>
					<path class="st3" d="M63.2,59.9C63.2,59.9,63.2,59.9,63.2,59.9L63.2,59.9z"/>
					<path class="st3" d="M61.1,55.7c0,0.1,0.1,0.1,0.3,0.1c0.1,0,0.1,0,0.2,0c0.4,0.1,0.9,0.2,1.2,0.4c0.2,0.1,0.4,0.3,0.5,0.4
						c0.1,0.1,0.1,0.4,0.1,0.6c0,0.7,0,1.3,0,1.9c0,0.3-0.1,0.5-0.2,0.7l0,0l0,0l0,0l0,0l0,0c-0.1,0.1-0.1,0.1-0.1,0.2
						c-0.1,0.2-0.2,0.4-0.4,0.6c-0.1,0.2-0.3,0.3-0.5,0.4c-0.2,0.1-0.4,0.2-0.6,0.2c-0.4,0.1-0.9-0.1-1.4-0.2
						c-0.5-0.2-1-0.4-1.2-0.8c-0.2-0.2-0.3-0.5-0.3-0.8c-0.1-0.4-0.1-0.8-0.1-1.2c0-0.7,0.2-1.4,0.7-1.8c0.4-0.4,1-0.6,1.5-0.8
						c0.3-0.1,0.6-0.2,0.8-0.1c0.1,0,0.1,0,0.1,0l0,0c0.1-0.2,0-0.3-0.2-0.4c-0.2-0.1-0.5-0.1-0.9,0c-0.5,0.2-1,0.4-1.5,0.8
						c-0.3,0.2-0.5,0.5-0.7,0.8c-0.2,0.4-0.3,0.9-0.4,1.4c0,0.2-0.1,0.5,0,0.7c0,0.2,0,0.4,0.1,0.6c0.1,0.8,0.6,1.6,1.3,1.9
						c0.5,0.2,0.9,0.4,1.4,0.5c0.1,0,0.2,0,0.3,0c0.3,0,0.7,0,1-0.1c0.8-0.3,1.3-1,1.6-1.7c0.1-0.3,0.2-0.6,0.2-0.9
						c0-0.1,0.1-0.2,0.1-0.3c0-0.2,0-0.4,0-0.6c0-0.4,0-0.8,0-1.2c0-0.2-0.1-0.4-0.2-0.7c-0.1-0.2-0.3-0.4-0.5-0.5
						c-0.6-0.5-1.3-0.6-2-0.8c-0.1,0-0.2,0-0.2,0C60.9,55.3,61,55.5,61.1,55.7z"/>
				</g>
			</g>
		</g>
	</g>
	<g>
		<g>
			<path class="st2" d="M46.8,68c0,0,1.4-6,3-8.5c0.5-0.8,1-1.5,1.4-2.3c0.8-1.7,0.8-3.7,0-5.4c-0.2-0.4-0.4-0.8-0.7-1.1
				c-1-1.1-2.5-1.7-4-1.6s-2.9,0.9-3.9,1.9c-0.4,0.4-0.7,0.8-1,1.3c-0.3,0.7-0.4,1.4-0.4,2.1c0,1.4,0.6,3.3,2.3,5.4
				C46,62.8,46.8,68,46.8,68z"/>
			<g>
				<g>
					<path class="st3" d="M44.5,61.9c-0.2-0.7-0.7-1.2-1.1-1.7c-0.7-0.9-1.3-2-1.8-3c-0.5-1.2-0.8-2.5-0.6-3.8
						c0.1-0.6,0.4-1.3,0.8-1.8c0.4-0.5,0.9-0.9,1.4-1.3c1.2-0.9,2.6-1.4,4.1-1.3c1.5,0.1,3,0.8,3.8,2.1c1,1.5,1.1,3.4,0.7,5
						c-0.2,1.2-0.9,2.2-1.6,3.2c-0.6,0.9-1.1,2-1.4,3.1c-0.5,1.5-1.1,3.1-1.5,4.7c0,0.2-0.1,0.4-0.1,0.6c0,0.4-0.2,0.5-0.5,0.5
						c-0.2,0-0.2-0.2-0.2-0.5c0.2-1,0.5-2,0.8-2.9c0.4-1.3,0.7-2.5,1.3-3.8c0.2-0.6,0.6-1.2,0.9-1.8c0.4-0.6,0.7-1.1,1-1.6
						c0.6-1.1,1-2.5,0.8-3.8c-0.2-1.6-1.1-3.2-2.6-3.8c-1.6-0.7-3.3-0.4-4.8,0.5c-1,0.6-2,1.4-2.3,2.5c-0.3,1.1-0.2,2.3,0.1,3.5
						c0.3,0.8,0.7,1.6,1.2,2.3c0.5,0.7,1.1,1.4,1.5,2.2c1.1,2.2,1.9,4.5,2.3,6.8c0,0.3-0.1,0.4-0.3,0.4c-0.1,0-0.2,0-0.3-0.2
						C46,65.8,45.4,63.7,44.5,61.9L44.5,61.9z"/>
				</g>
			</g>
		</g>
		<g>
			<path class="st4" d="M47.5,51.5c-0.5-0.2-1.1,0-1.6,0.2c-0.4,0.2-0.7,0.3-1,0.6c-0.6,0.5-0.8,1.3-0.9,2c-0.1,1,0.1,2.1,0.9,2.6
				c0.2,0.2,0.5,0.3,0.8,0.4c0.6,0.2,1.2,0.4,1.8,0.3c0.8-0.1,1.5-0.9,1.7-1.7c0.3-0.8,0.2-1.7,0.2-2.5c0-0.3,0-0.6-0.1-0.8
				c-0.2-0.8-1.8-1.2-2.6-1.3"/>
			<g>
				<g>
					<path class="st3" d="M48.9,56C48.9,56,48.9,56,48.9,56L48.9,56z"/>
					<path class="st3" d="M46.8,51.8c0,0.1,0.1,0.1,0.3,0.1c0.1,0,0.1,0,0.2,0c0.4,0.1,0.9,0.2,1.2,0.4c0.2,0.1,0.4,0.3,0.5,0.4
						c0.1,0.1,0.1,0.4,0.1,0.6c0,0.7,0,1.3,0,1.9c0,0.3-0.1,0.5-0.2,0.7l0,0l0,0l0,0l0,0l0,0c-0.1,0.1-0.1,0.1-0.1,0.2
						c-0.1,0.2-0.2,0.4-0.4,0.6c-0.1,0.2-0.3,0.3-0.5,0.4c-0.2,0.1-0.4,0.2-0.6,0.2c-0.4,0.1-0.9-0.1-1.4-0.2
						c-0.5-0.2-1-0.4-1.2-0.8c-0.2-0.2-0.3-0.5-0.3-0.8c-0.1-0.4-0.1-0.8-0.1-1.2c0-0.7,0.2-1.4,0.7-1.8c0.4-0.4,1-0.6,1.5-0.8
						c0.3-0.1,0.6-0.2,0.8-0.1c0.1,0,0.1,0,0.1,0l0,0c0.1-0.2,0-0.3-0.2-0.4c-0.2-0.1-0.5-0.1-0.9,0c-0.5,0.2-1,0.4-1.5,0.8
						c-0.3,0.2-0.5,0.5-0.7,0.8c-0.2,0.4-0.3,0.9-0.4,1.4c0,0.2-0.1,0.5,0,0.7c0,0.2,0,0.4,0.1,0.6c0.1,0.8,0.6,1.6,1.3,1.9
						c0.5,0.2,0.9,0.4,1.4,0.5c0.1,0,0.2,0,0.3,0c0.3,0,0.7,0,1-0.1c0.8-0.3,1.3-1,1.6-1.7c0.1-0.3,0.2-0.6,0.2-0.9
						c0-0.1,0.1-0.2,0.1-0.3c0-0.2,0-0.4,0-0.6c0-0.4,0-0.8,0-1.2c0-0.2-0.1-0.4-0.2-0.7c-0.1-0.2-0.3-0.4-0.5-0.5
						c-0.6-0.5-1.3-0.6-2-0.8c-0.1,0-0.2,0-0.2,0C46.7,51.4,46.7,51.6,46.8,51.8z"/>
				</g>
			</g>
		</g>
	</g>
</g>
<g id="Layer_2">
</g>
</svg>
