<?xml version="1.0" encoding="utf-8"?>
<!-- Generator: Adobe Illustrator 24.2.1, SVG Export Plug-In . SVG Version: 6.00 Build 0)  -->
<svg version="1.1" id="Layer_1" xmlns="http://www.w3.org/2000/svg" xmlns:xlink="http://www.w3.org/1999/xlink" x="0px" y="0px"
	 viewBox="0 0 88.1 113.4" style="enable-background:new 0 0 88.1 113.4;" xml:space="preserve">
<style type="text/css">
	.st0{opacity:0.25;fill:#386A7C;}
	.st1{fill:#EAEAEA;}
	.st2{fill:#FFFFFF;}
	.st3{fill:#010101;}
	.st4{fill:#231F20;}
</style>
<g>
	<path class="st0" d="M86.8,56.9c0.1-2,0.3-13.1-3.8-16c-4.6-3.2-13.3-2-18.7-3c-5.8-1-40.4-1.9-42.6,1.3c-0.6,0-1.3,0-1.9,0.2
		c-1.3,0.3-2.6,0.6-3.9,0.9c-5.6,1.2-6.4,6.8-4.3,10.7c-0.2,0.4-0.3,0.9-0.5,1.4c-0.5,2.1-0.2,4,0.7,5.5c-0.7,1.2-1.1,2.6-1.2,3.9
		c-0.4,7.6-2.1,38.1,2.4,42.7c1.8,1.8,5.1,6,13,7.7c9,1.9,22.8,1,26.5,1.2c6.2,0.2,11.8-0.7,17.7-2.8c5.6-1.9,13.5-4.9,16.6-10.3
		C89.9,94.9,86.7,58.2,86.8,56.9z"/>
	<path class="st1" d="M77.2,55.5c0.2-1.3,0.3-2.5,0.3-3.8c0.1-2,0.3-12.8-3.6-15.6c-4.4-3.1-10.3-4.1-15.5-5.1
		c-5.6-1-11.2-1.6-16.9-1.6c-5.7,0-12.4,0.2-17.7,2.5c-2.9-1.2-6.4-0.6-8.5,2.5c-0.6,0-1.2,0-1.8,0.2c-1.2,0.3-2.5,0.6-3.7,0.9
		C4.4,36.6,3.5,42,5.6,45.8c-0.2,0.4-0.3,0.9-0.4,1.4c-0.5,2.1-0.2,3.9,0.7,5.4c-0.7,1.2-1.1,2.6-1.1,3.8c-0.4,7.4-2,37.4,2.3,41.9
		c4.2,4.4,12,3,17.5,4.7c6.3,1.9,12.6,3.7,19.2,4c6,0.2,12.2-0.7,17.8-2.7c5.3-1.9,12.9-4.8,15.9-10.1
		C80.5,88.8,77.4,58.6,77.2,55.5z"/>
	<path class="st2" d="M75.1,37.1c-3.7-3.5-8.7-5.6-13.6-6.7c-2.5-0.6-4.7-0.7-6.9-0.6c-6.6-2-13.6-2.6-20.5-1.5
		c-6,0.9-11.5,1.2-17.3,3.2c-4.3,1.5-9.5,2.4-12.2,6.3c-1.6,2.4,1.1,4.8,3.4,4.4c0.1,0,0.3,0,0.4,0c4.3,2.2,27.7,3.4,33.3,3.4
		c10.9,0,32.6-3.6,32.9-3.8C76,40.9,76.4,38.4,75.1,37.1z"/>
	<g>
		<g>
			<g>
				<g>
					<path class="st3" d="M5.7,41.5c0,1.9,0.1,4.2,0.2,6.5c0,1.9,0.1,3.8,0.1,5.8c0,2,0.1,3.9,0.1,5.9c0,1.3-0.1,2.5,0,3.8
						c0,1.3,0.1,2.6,0.1,3.9l0,6.1c0,2.4,0,4.7,0,7.1l-0.1,6.3c0,1.1-0.1,2.2,0,3.3c0,0.3,0.1,0.8-0.2,0.9c-0.3,0.2-0.7,0.4-1.1,0.2
						c-0.2-0.1-0.2-0.4-0.2-0.7l0-2.7c0-1.5,0.1-2.9,0.1-4.4c0.1-1.2,0.1-2.4,0.1-3.7c0-1.1,0-2.3,0.1-3.4c0.1-1.5,0-3,0-4.6
						c0-0.3,0-0.6,0.1-1c0.2-1.9,0.1-3.8,0-5.6c-0.1-2.3,0-4.5,0-6.8c0-2.5,0-5,0-7.5c0-1.8,0-3.5-0.1-5.3c-0.1-2.1-0.1-4.1-0.1-6.2
						c0-0.6,0.2-1.1,0.6-1.3c0.4-0.2,0.6,0,0.6,0.5C5.7,39.6,5.7,40.4,5.7,41.5z"/>
				</g>
			</g>
		</g>
		<g>
			<g>
				<g>
					<path class="st3" d="M78,89.4c0-2,0.1-4.4,0-6.8c0-2-0.1-4,0-6.1c0-2.1-0.1-4.1-0.1-6.2c0-1.3,0.1-2.6,0-4
						c-0.1-1.4-0.1-2.7-0.2-4.1c0-2.1,0-4.3-0.1-6.4l-0.2-7.5c-0.1-2.2-0.1-4.4-0.3-6.6c-0.1-1.1-0.1-2.3-0.4-3.4
						c-0.1-0.3-0.2-0.8,0.1-1c0.3-0.2,0.6-0.5,1.1-0.4c0.3,0.1,0.3,0.4,0.3,0.7l0.2,1.4l0.1,1.4c0.1,1.6,0.2,3.1,0.2,4.7
						c0,1.3,0.1,2.6,0.1,3.9c0,1.2,0,2.4,0,3.6c0,1.6,0.1,3.2,0.1,4.8c0,0.3,0,0.7,0,1c-0.2,2,0,4,0.1,5.9c0.1,2.4,0,4.8,0,7.1
						c0,2.7,0,5.3,0,8c0,1.9,0,3.7,0,5.6c0,2.2,0,4.4-0.2,6.6c-0.1,0.7-0.3,1.2-0.7,1.3c-0.4,0.1-0.6-0.1-0.5-0.7
						C77.9,91.4,77.9,90.6,78,89.4z"/>
				</g>
			</g>
		</g>
		<g>
			<g>
				<g>
					<path class="st3" d="M73.4,40.7c-2.6,0.9-5.8,1.8-9,2.7c-1.3,0.4-2.7,0.7-4,1l-2,0.4l-2,0.3c-2.8,0.5-5.6,0.9-8.5,1.1
						c-0.9,0.1-1.8,0.1-2.7,0.1c-0.9,0-1.8,0.1-2.7,0.1l-2.8,0.1c-0.9,0-1.9,0-2.8,0c-1.5,0-2.9-0.2-4.4-0.2L28,45.8
						c-3.4-0.4-6.8-1-10.1-1.8c-1.5-0.3-2.9-0.8-4.4-1.1c-1.4-0.5-2.9-0.9-4.4-1.4c-1.5-0.5-3-1.1-4.5-1.6c-0.5-0.1-1.1-0.3-1.2-0.7
						c-0.1-0.4-0.3-0.9,0.1-1.1c0.2-0.2,0.6,0,1,0.1c1.2,0.4,2.4,0.9,3.6,1.3c2,0.7,4,1.3,5.9,2c1.7,0.5,3.3,0.9,5,1.3l2.4,0.5
						l2.4,0.5c1.1,0.2,2.1,0.4,3.2,0.5c1.1,0.1,2.1,0.3,3.2,0.4c0.5,0.1,0.9,0.1,1.3,0.2c1.3,0.2,2.7,0.3,4,0.4c1.3,0,2.7,0,4,0
						c3.2-0.1,6.4-0.1,9.6-0.4c1.8-0.1,3.6-0.4,5.3-0.6c1.8-0.3,3.5-0.6,5.3-1c2.5-0.5,4.9-1.1,7.3-1.9c2.8-0.9,5.7-1.8,8.5-2.7
						c0.9-0.3,1.5-0.3,1.9,0c0.3,0.3,0.2,0.6-0.6,0.8C76,39.9,74.9,40.2,73.4,40.7z"/>
				</g>
			</g>
		</g>
		<g>
			<g>
				<g>
					<path class="st3" d="M8.7,35.1c0.6-0.4,1.2-0.7,1.9-1c0.7-0.3,1.5-0.6,2.2-0.8c0.8-0.2,1.5-0.5,2.3-0.7
						c0.8-0.2,1.6-0.4,2.4-0.6c1.3-0.4,2.7-0.6,4-0.9c1.4-0.3,2.7-0.5,4.1-0.7c2.8-0.4,5.6-0.8,8.5-0.9c1.8-0.1,3.6-0.1,5.4-0.2
						c1.9,0,3.7-0.1,5.6,0c1.5,0,2.9,0.2,4.4,0.3l4.3,0.5c3.4,0.4,6.8,1.1,10.1,1.9c2.9,0.8,5.9,1.5,8.8,2.6c1.5,0.6,3,1.3,4.4,2.4
						c0.4,0.3,0.9,0.9,0.8,1.3c-0.2,0.4-0.4,0.8-0.8,0.8c-0.3,0-0.4-0.3-0.6-0.5c-0.7-0.8-1.7-1.4-2.8-1.9c-1.8-0.9-3.8-1.5-5.8-2.1
						c-1.7-0.5-3.3-1-5-1.3l-2.4-0.6l-2.4-0.5c-1.1-0.2-2.1-0.4-3.2-0.5c-1.1-0.2-2.1-0.3-3.2-0.4c-0.4-0.1-0.9-0.1-1.3-0.2
						c-1.3-0.2-2.7-0.3-4-0.4c-1.3,0-2.7-0.1-4-0.1c-3.2,0-6.4,0-9.6,0.2c-3.6,0.3-7.1,0.7-10.6,1.4l-3.7,0.8
						c-1.2,0.3-2.5,0.6-3.6,1l-2.1,0.7c-0.7,0.2-1.3,0.5-2,0.8C9.4,36,8.2,36.8,7,37.6c-0.7,0.5-1.3,0.8-1.7,0.7
						c-0.4-0.1-0.4-0.5,0.2-1C6.4,36.6,7.3,36,8.7,35.1z"/>
				</g>
			</g>
		</g>
		<g>
			<g>
				<g>
					<path class="st3" d="M10.1,58.7c1.3,0.4,2.7,0.8,4.2,1.3c1.5,0.4,3,0.8,4.6,1.2c1.3,0.3,2.6,0.6,3.9,0.9l3.9,0.8
						c1.4,0.2,2.7,0.4,4.1,0.6l4.1,0.4l2.6,0.2l1.3,0.1l1.3,0l2.7-0.1l2.7-0.2l2.1-0.1l2.1-0.2l2.1-0.2c0.7-0.1,1.4-0.2,2.1-0.3
						c1.6-0.3,3.3-0.5,4.9-0.9c1.6-0.3,3.3-0.6,4.9-1c2.9-0.6,5.7-1.4,8.6-2.2c1.5-0.4,3-0.9,4.4-1.4c0.4-0.2,1-0.4,1.3-0.2
						c0.3,0.3,0.8,0.5,0.7,0.9c-0.1,0.3-0.5,0.4-0.9,0.5l-3.6,1.2c-2,0.6-4,1.1-6,1.6c-1.7,0.4-3.4,0.8-5,1.2
						c-1.6,0.4-3.1,0.6-4.7,0.9c-1.1,0.2-2.1,0.4-3.2,0.6c-1.1,0.2-2.1,0.4-3.2,0.5c-0.4,0-0.9,0.1-1.3,0.1c-1.3,0-2.6,0.2-4,0.3
						c-1.3,0.1-2.6,0.2-4,0.3c-1.6,0-3.2,0.1-4.8,0c-1.6-0.1-3.2-0.1-4.8-0.3l-2.7-0.3c-0.9-0.1-1.8-0.3-2.6-0.4
						c-1.8-0.2-3.5-0.6-5.2-0.9c-2.5-0.5-4.9-1.1-7.3-1.8c-1.4-0.3-2.8-0.8-4.2-1.2c-1.4-0.4-2.8-0.9-4.2-1.4
						c-0.9-0.3-1.4-0.7-1.5-1.1c-0.1-0.4,0.2-0.6,0.9-0.3C7.5,57.9,8.5,58.2,10.1,58.7z"/>
				</g>
			</g>
		</g>
		<g>
			<g>
				<g>
					<path class="st3" d="M6.8,76.2c1.1,0.9,2.6,1.5,4.1,2.3c1.5,0.7,3.2,1.4,4.8,1.9c0.7,0.3,1.4,0.5,2.1,0.7l2.1,0.6
						c1.4,0.3,2.9,0.7,4.3,0.9c3,0.6,6,0.8,9,0.9c1.9,0.1,3.9,0.2,5.8,0.1c2-0.1,4-0.3,6-0.4c3.1-0.2,6.2-0.6,9.3-1.1l5.5-0.8
						c1.8-0.3,3.6-0.5,5.4-0.9c3.1-0.6,6.2-1.6,9-3.1c1.4-0.8,2.6-1.9,3.4-3.4c0.2-0.4,0.5-1,0.9-1.1c0.4-0.1,0.9-0.2,1.1,0.2
						c0.2,0.2-0.1,0.7-0.3,1.1c-0.7,1.3-1.6,2.5-2.8,3.4c-0.9,0.8-2.1,1.4-3.1,1.8c-1.1,0.5-2.1,0.9-3.3,1.2c-1.8,0.6-3.7,1-5.6,1.4
						c-1.8,0.3-3.5,0.5-5.2,0.8c-2.3,0.3-4.7,0.8-7,1c-0.5,0.1-1,0.1-1.5,0.1c-2.9,0.1-5.8,0.6-8.7,0.8c-3.5,0.2-7,0.2-10.6,0
						c-3.9-0.2-7.8-0.8-11.7-1.7c-2.7-0.7-5.3-1.6-7.9-2.6c-1.5-0.6-3-1.4-4.4-2.1c-0.7-0.4-1.5-0.9-2.1-1.5
						c-0.6-0.7-1.1-1.6-1.2-2.5c-0.2-1.1,0.1-1.8,0.4-2c0.4-0.3,0.6,0,0.6,0.8C5.4,74,5.5,75.1,6.8,76.2z"/>
				</g>
			</g>
		</g>
		<g>
			<g>
				<g>
					<path class="st3" d="M77.4,95.6c-1.1,1.3-2.6,2.3-4.2,3.2c-1.6,0.9-3.4,1.7-5.1,2.4c-3,1.2-6.1,2.1-9.2,2.8
						c-3.2,0.7-6.4,1.4-9.6,1.8c-2.1,0.2-4.2,0.3-6.3,0.4c-2.2,0.1-4.3,0.1-6.5-0.1c-3.4-0.2-6.7-0.7-10-1.4
						c-3.9-0.8-7.7-1.9-11.4-3.3c-1.6-0.6-3.3-1.3-4.9-2.1c-0.8-0.4-1.6-0.8-2.4-1.2L7.2,98c-0.2-0.1-0.4-0.3-0.6-0.4
						c-0.4-0.3-0.7-0.7-1-1.2c-1-1.8-1.2-3.7-1.4-5.6c-0.1-0.6-0.1-1.3,0.2-1.6c0.3-0.3,0.7-0.7,1.1-0.4c0.2,0.2,0.3,0.7,0.3,1.1
						c0.1,1.4,0.2,2.8,0.6,4.1c0.3,1.1,0.8,2,1.5,2.5C8,96.7,8.3,96.8,8.5,97l0.8,0.4c0.5,0.3,1.1,0.6,1.6,0.8
						c0.9,0.4,1.8,0.9,2.7,1.2c0.9,0.4,1.8,0.7,2.8,1.1c0.9,0.3,1.7,0.6,2.6,0.9c0.9,0.3,1.8,0.6,2.7,0.8c2.4,0.8,4.8,1.1,7.3,1.7
						c0.5,0.1,1,0.2,1.5,0.3c3,0.7,6.1,0.8,9.2,0.8c3.7,0,7.4-0.1,11.1-0.6c4.1-0.6,8.2-1.4,12.1-2.6c2.8-0.8,5.6-1.7,8.1-3.1
						c1.5-0.8,2.9-1.7,4.2-2.7c0.6-0.5,1.2-1,1.6-1.7c0.4-0.6,0.6-1.4,0.8-2.2c0.2-1,0.4-1.7,0.8-1.9c0.4-0.2,0.6,0.1,0.5,0.9
						c-0.1,0.6-0.2,1.3-0.4,2C78.4,94,78.1,94.8,77.4,95.6z"/>
				</g>
			</g>
		</g>
	</g>
	<g>
		<g>
			<g>
				<g>
					<path class="st4" d="M40,34.3C40,34.3,40,34.3,40,34.3L40,34.3z"/>
					<path class="st4" d="M39.7,32.8c-0.2,0.1-0.2,0.1-0.1,0.1c0,0,0,0,0.1,0c0.1,0.1,0.1,0.2,0.1,0.3c0,0.1,0,0.3,0,0.4
						c0,0.2,0,0.3,0.1,0.5c0,0.1,0,0.1,0.1,0.2l0,0l0,0l0,0l0,0l0,0c-0.1,0-0.1,0-0.1,0.1l0,0.2c0,0.1,0.1,0.1,0,0.2
						c-0.1,0.1,0.1,0.1,0,0.2c0,0.1,0,0.3,0.1,0.4c0,0.1,0,0.3,0,0.4c0,0.1,0,0.2,0,0.2c0,0.1,0,0.2,0,0.3c0,0.2,0,0.4,0,0.5
						c0,0.1,0,0.3,0,0.4c0,0.1,0,0.2-0.1,0.2c0,0,0,0,0.1,0.1l0.1,0c0.8,0.1,1.1,0.1,1.1-0.1c-0.1-0.1,0-0.3,0-0.4
						c0-0.1,0-0.2,0-0.2c0-0.1-0.1-0.2,0-0.4c0-0.1,0.1-0.1,0-0.2c-0.1,0,0-0.1,0-0.1c0.1-0.2,0-0.4,0-0.6c0-0.1-0.1-0.3,0-0.4
						c0,0,0,0,0-0.1c0-0.1,0-0.2,0-0.2c-0.1-0.2,0.1-0.4,0-0.6c0-0.1,0-0.2,0-0.2c0,0,0.1-0.1,0.1-0.1c-0.1,0,0-0.1,0-0.2
						c0-0.1,0-0.2,0-0.3c0-0.1-0.1-0.2-0.1-0.3c0-0.2,0-0.4-0.1-0.5c0,0-0.1,0-0.2,0C40.5,32.6,40.1,32.7,39.7,32.8z"/>
				</g>
			</g>
		</g>
		<g>
			<g>
				<g>
					<path class="st4" d="M39.2,26C39.2,26,39.2,26,39.2,26L39.2,26z"/>
					<path class="st4" d="M39.2,24.5c-0.2,0-0.2,0-0.1,0.1c0,0,0,0,0.1,0c0.1,0.1,0,0.2,0,0.4c0,0.1,0,0.3,0,0.4c0,0.2,0,0.3,0,0.5
						c0,0.1,0,0.1,0.1,0.2c0,0,0,0,0,0c0,0,0,0,0,0c0,0,0,0,0,0c0,0,0,0,0,0c0,0,0,0,0,0c-0.1,0-0.1,0-0.1,0.1c0,0.1,0,0.1,0,0.2
						c0,0.1,0.1,0.1,0,0.2c-0.1,0.1,0.1,0.1,0,0.2c0,0.1,0,0.3,0,0.4c0,0.1,0,0.3,0,0.4c0,0.1,0,0.2,0,0.2c0,0.1,0,0.2,0.1,0.3
						c0,0.2,0.1,0.4,0.1,0.5c0,0.2,0,0.3,0,0.5c0,0.1,0,0.2,0,0.2c0,0,0,0,0.2,0c0,0,0,0,0.1,0c0.8,0,1.1-0.1,1-0.3
						c-0.1-0.1,0-0.3,0-0.4c0-0.1,0-0.2,0-0.2c0-0.1-0.1-0.2,0-0.3c0-0.1,0.1-0.1,0-0.2c-0.1,0,0-0.1,0-0.1c0.1-0.2,0-0.4,0-0.5
						c0-0.1,0-0.2,0.1-0.4c0,0,0,0,0-0.1c0-0.1,0-0.2,0-0.2c0-0.2,0.1-0.4,0-0.5c0-0.1,0-0.1,0-0.2c0,0,0.1,0,0.1-0.1
						c-0.1-0.1,0-0.1,0-0.1c0-0.1,0-0.2,0.1-0.3c0-0.1,0-0.2,0-0.3c0-0.2,0-0.3,0-0.5c0,0-0.1,0-0.2,0C40,24.4,39.6,24.4,39.2,24.5z
						"/>
				</g>
			</g>
		</g>
		<g>
			<g>
				<g>
					<path class="st4" d="M39.2,17.3C39.2,17.3,39.2,17.3,39.2,17.3L39.2,17.3z"/>
					<path class="st4" d="M39.2,15.8c-0.2,0-0.2,0-0.1,0.1c0,0,0,0,0.1,0c0.1,0.1,0,0.2,0,0.3c0,0.1,0,0.2,0,0.4c0,0.2,0,0.3,0,0.5
						c0,0.1,0,0.1,0.1,0.2c0,0,0,0,0,0c0,0,0,0,0,0c0,0,0,0,0,0c0,0,0,0,0,0c0,0,0,0,0,0c-0.1,0-0.1,0-0.1,0.1c0,0.1,0,0.1,0,0.2
						c0,0.1,0.1,0.1,0,0.2c-0.1,0.1,0.1,0.1,0,0.2c0,0.1,0,0.3,0,0.4c0,0.1,0,0.3,0,0.4c0,0.1,0,0.2,0,0.2c0,0.1,0,0.2,0.1,0.3
						c0,0.2,0.1,0.3,0.1,0.5c0,0.1,0,0.3,0,0.4c0,0.1,0,0.1,0,0.2c0,0,0,0,0.2,0c0,0,0,0,0.1,0c0.8,0,1.1-0.1,1-0.2
						c-0.1-0.1,0-0.2,0-0.4c0-0.1,0-0.1,0-0.2c0-0.1-0.1-0.2,0-0.3c0-0.1,0.1-0.1,0-0.2c-0.1,0,0-0.1,0-0.1c0.1-0.2,0-0.3,0-0.5
						c0-0.1,0-0.2,0.1-0.3c0,0,0,0,0-0.1c0-0.1,0-0.1,0-0.2c0-0.2,0.1-0.3,0-0.5c0-0.1,0-0.1,0-0.2c0,0,0.1,0,0.1-0.1
						c-0.1,0,0-0.1,0-0.1c0-0.1,0-0.2,0.1-0.3c0-0.1,0-0.2,0-0.3c0-0.2,0-0.3,0-0.5c0,0-0.1,0-0.2,0C40,15.8,39.6,15.8,39.2,15.8z"
						/>
				</g>
			</g>
		</g>
		<g>
			<g>
				<g>
					<path class="st4" d="M27.8,17.4C27.8,17.4,27.8,17.4,27.8,17.4L27.8,17.4z"/>
					<path class="st4" d="M25.9,17.1c0,0.2,0,0.2,0.1,0.1c0,0,0,0,0.1,0c0.2-0.1,0.3,0,0.4,0c0.2,0,0.3,0.1,0.5,0.1
						c0.2,0,0.4,0.1,0.6,0.1c0.1,0,0.2,0.1,0.3,0l0,0l0,0l0,0l0,0l0,0c0,0.1,0,0.1,0.1,0.1c0.1,0,0.2,0,0.2,0c0.1,0,0.2-0.1,0.2,0
						c0.1,0.1,0.2-0.1,0.2,0c0.2,0,0.3,0,0.5,0c0.2,0,0.3,0,0.5,0c0.1,0,0.2,0,0.3,0c0.1,0,0.3,0,0.4,0c0.2,0,0.5,0,0.7-0.1
						c0.2,0,0.4,0,0.6,0c0.1,0,0.2,0,0.3,0c0,0,0,0,0-0.2l0-0.1c0-0.8-0.1-1.1-0.4-1c-0.2,0.1-0.3,0-0.5,0.1c-0.1,0-0.2,0-0.3,0
						c-0.1,0-0.3,0.1-0.4,0c-0.1,0-0.1-0.1-0.2,0c-0.1,0.1-0.1,0-0.2,0c-0.2-0.1-0.4,0-0.7,0c-0.1,0-0.3,0-0.4-0.1c0,0,0,0-0.1,0
						c-0.1,0-0.2,0-0.3,0c-0.2,0-0.4-0.1-0.6-0.1c-0.1,0-0.2,0-0.3,0c0,0,0-0.1-0.1-0.1c-0.1,0.1-0.1,0-0.2,0
						c-0.1,0-0.2-0.1-0.4-0.1c-0.1,0-0.2,0-0.3,0c-0.2-0.1-0.4-0.1-0.6-0.1c0,0-0.1,0-0.1,0.1C26,16.3,25.9,16.7,25.9,17.1z"/>
				</g>
			</g>
		</g>
		<g>
			<g>
				<g>
					<path class="st4" d="M15.4,17.5C15.4,17.5,15.4,17.5,15.4,17.5L15.4,17.5z"/>
					<path class="st4" d="M13.6,17.5c0,0.2,0,0.2,0.1,0.1c0,0,0,0,0-0.1c0.1-0.1,0.3,0,0.4,0c0.1,0,0.3,0,0.4,0c0.2,0,0.4,0,0.6,0
						c0.1,0,0.2,0,0.2-0.1c0,0,0,0,0,0c0,0,0,0,0,0c0,0,0,0,0,0c0,0,0,0,0,0c0,0,0,0,0,0c0,0.1,0,0.1,0.1,0.1c0.1,0,0.1,0,0.2,0
						c0.1,0,0.1-0.1,0.2,0c0.1,0.1,0.1-0.1,0.2,0c0.2,0,0.3,0,0.5,0c0.2,0,0.3,0,0.5,0c0.1,0,0.2,0,0.3,0c0.1,0,0.2,0,0.4-0.1
						c0.2,0,0.4-0.1,0.6-0.1c0.2,0,0.3,0,0.5,0c0.1,0,0.2,0,0.3,0c0,0,0,0,0-0.2c0,0,0,0,0-0.1c0-0.8-0.1-1.1-0.3-1
						c-0.2,0.1-0.3,0-0.5,0c-0.1,0-0.2,0-0.3,0c-0.1,0-0.3,0.1-0.4,0c-0.1,0-0.1-0.1-0.2,0c-0.1,0.1-0.1,0-0.2,0
						c-0.2-0.1-0.4,0-0.6,0c-0.1,0-0.3,0-0.4-0.1c0,0,0,0-0.1,0c-0.1,0-0.2,0-0.3,0c-0.2,0-0.4-0.1-0.6,0c-0.1,0-0.2,0-0.2,0
						c0,0-0.1-0.1-0.1-0.1c-0.1,0.1-0.1,0-0.2,0c-0.1,0-0.2,0-0.4-0.1c-0.1,0-0.2,0-0.3,0c-0.2,0-0.4,0-0.6,0c0,0,0,0.1-0.1,0.2
						C13.5,16.7,13.5,17.1,13.6,17.5z"/>
				</g>
			</g>
		</g>
		<g>
			<g>
				<g>
					<path class="st4" d="M5,14.6C5,14.6,5,14.6,5,14.6L5,14.6z"/>
					<path class="st4" d="M5,13.2c-0.2,0-0.2,0-0.1,0.1c0,0,0,0,0.1,0c0.1,0.1,0,0.2,0,0.3c0,0.1,0,0.2,0,0.4c0,0.2,0,0.3,0,0.5
						c0,0.1,0,0.1,0.1,0.2c0,0,0,0,0,0c0,0,0,0,0,0c0,0,0,0,0,0c0,0,0,0,0,0c0,0,0,0,0,0c-0.1,0-0.1,0-0.1,0.1c0,0.1,0,0.1,0,0.2
						c0,0.1,0.1,0.1,0,0.2c-0.1,0.1,0.1,0.1,0,0.2c0,0.1,0,0.3,0,0.4c0,0.1,0,0.3,0,0.4c0,0.1,0,0.2,0,0.2c0,0.1,0,0.2,0.1,0.3
						c0,0.2,0.1,0.3,0.1,0.5c0,0.1,0,0.3,0,0.4c0,0.1,0,0.1,0,0.2c0,0,0,0,0.2,0c0,0,0,0,0.1,0c0.8,0,1.1-0.1,1-0.2
						c-0.1-0.1,0-0.2,0-0.4c0-0.1,0-0.1,0-0.2c0-0.1-0.1-0.2,0-0.3c0-0.1,0.1-0.1,0-0.2c-0.1,0,0-0.1,0-0.1c0.1-0.2,0-0.3,0-0.5
						c0-0.1,0-0.2,0.1-0.3c0,0,0,0,0-0.1c0-0.1,0-0.1,0-0.2c0-0.2,0.1-0.3,0-0.5c0-0.1,0-0.1,0-0.2c0,0,0.1,0,0.1-0.1
						c-0.1,0,0-0.1,0-0.1c0-0.1,0-0.2,0.1-0.3c0-0.1,0-0.2,0-0.3c0-0.2,0-0.3,0-0.5c0,0-0.1,0-0.2,0C5.8,13.1,5.4,13.1,5,13.2z"/>
				</g>
			</g>
		</g>
		<g>
			<g>
				<g>
					<path class="st4" d="M4.6,3.7C4.6,3.7,4.6,3.7,4.6,3.7L4.6,3.7z"/>
					<path class="st4" d="M4.6,1.2c-0.2,0-0.2,0.1-0.1,0.1c0,0,0,0,0.1,0.1c0.1,0.2,0,0.4,0,0.6c0,0.2,0,0.4,0,0.6
						c0,0.3,0,0.5,0,0.8c0,0.1,0,0.2,0.1,0.3c0,0,0,0,0,0c0,0,0,0,0,0c0,0,0,0,0,0c0,0,0,0,0,0c0,0,0,0,0,0c-0.1,0-0.1,0.1-0.1,0.1
						c0,0.1,0,0.2,0,0.3c0,0.1,0.1,0.2,0,0.3c-0.1,0.1,0.1,0.2,0,0.3c0,0.2,0,0.4,0,0.6c0,0.2,0,0.4,0,0.7c0,0.1,0,0.3,0,0.4
						c0,0.2,0,0.3,0.1,0.5c0,0.3,0.1,0.6,0.1,0.9c0,0.2,0,0.5,0,0.7c0,0.1,0,0.3,0,0.4c0,0,0,0.1,0.2,0.1c0,0,0,0,0.1,0
						c0.8,0,1.1-0.1,1-0.4c-0.1-0.2,0-0.4,0-0.6c0-0.1,0-0.2,0-0.4c0-0.2-0.1-0.4,0-0.5c0-0.1,0.1-0.2,0-0.3c-0.1-0.1,0-0.1,0-0.2
						c0.1-0.3,0-0.6,0-0.9c0-0.2,0-0.4,0.1-0.6c0,0,0-0.1,0-0.1c0-0.1,0-0.2,0-0.4c0-0.3,0.1-0.6,0-0.9c0-0.1,0-0.2,0-0.3
						c0,0,0.1-0.1,0.1-0.1C5.9,3.1,6,3,6,2.9C6,2.8,6,2.6,6,2.5C6,2.3,6,2.2,6,2c0-0.3,0-0.5,0-0.8c0,0-0.1-0.1-0.2-0.1
						C5.4,1.1,5,1.1,4.6,1.2z"/>
				</g>
			</g>
		</g>
		<g>
			<g>
				<g>
					<path class="st4" d="M51.2,17C51.2,17,51.2,17,51.2,17L51.2,17z"/>
					<path class="st4" d="M53.1,17c0-0.2,0-0.2-0.1-0.1c0,0,0,0-0.1,0.1c-0.1,0.1-0.3,0-0.4,0c-0.2,0-0.3,0-0.5,0
						c-0.2,0-0.4,0-0.6,0c-0.1,0-0.2,0-0.3,0.1c0,0,0,0,0,0c0,0,0,0,0,0c0,0,0,0,0,0c0,0,0,0,0,0c0,0,0,0,0,0c0-0.1-0.1-0.1-0.1-0.1
						c-0.1,0-0.2,0-0.2,0c-0.1,0-0.2,0.1-0.2,0c-0.1-0.1-0.2,0.1-0.2,0c-0.2,0-0.3,0-0.5,0c-0.2,0-0.3,0-0.5,0c-0.1,0-0.2,0-0.3,0
						c-0.1,0-0.3,0-0.4,0.1c-0.2,0-0.4,0.1-0.7,0.1c-0.2,0-0.4,0-0.6,0c-0.1,0-0.2,0-0.3,0c0,0,0,0,0,0.2c0,0,0,0,0,0.1
						c0,0.8,0.1,1.1,0.3,1c0.2-0.1,0.3,0,0.5,0c0.1,0,0.2,0,0.3,0c0.1,0,0.3-0.1,0.4,0c0.1,0,0.1,0.1,0.2,0c0.1-0.1,0.1,0,0.2,0
						c0.2,0.1,0.4,0,0.7,0c0.2,0,0.3,0,0.5,0.1c0,0,0,0,0.1,0c0.1,0,0.2,0,0.3,0c0.2,0,0.4,0.1,0.7,0c0.1,0,0.2,0,0.3,0
						c0,0,0.1,0.1,0.1,0.1c0.1-0.1,0.1,0,0.2,0c0.1,0,0.2,0,0.4,0.1c0.1,0,0.2,0,0.3,0c0.2,0,0.4,0,0.6,0c0,0,0-0.1,0.1-0.2
						C53.2,17.8,53.1,17.4,53.1,17z"/>
				</g>
			</g>
		</g>
		<g>
			<g>
				<g>
					<path class="st4" d="M63.9,16.6C63.9,16.6,63.9,16.6,63.9,16.6L63.9,16.6z"/>
					<path class="st4" d="M65.8,16.6c0-0.2,0-0.2-0.1-0.1c0,0,0,0,0,0.1c-0.1,0.1-0.3,0-0.4,0c-0.1,0-0.3,0-0.4,0
						c-0.2,0-0.4,0-0.6,0c-0.1,0-0.2,0-0.2,0.1c0,0,0,0,0,0c0,0,0,0,0,0c0,0,0,0,0,0c0,0,0,0,0,0c0,0,0,0,0,0c0-0.1,0-0.1-0.1-0.1
						c-0.1,0-0.1,0-0.2,0c-0.1,0-0.1,0.1-0.2,0c-0.1-0.1-0.1,0.1-0.2,0c-0.2,0-0.3,0-0.5,0c-0.2,0-0.3,0-0.5,0c-0.1,0-0.2,0-0.3,0
						c-0.1,0-0.2,0-0.4,0.1c-0.2,0-0.4,0.1-0.6,0.1c-0.2,0-0.3,0-0.5,0c-0.1,0-0.2,0-0.3,0c0,0,0,0,0,0.2c0,0,0,0,0,0.1
						c0,0.8,0.1,1.1,0.3,1c0.2-0.1,0.3,0,0.5,0c0.1,0,0.2,0,0.3,0c0.1,0,0.3-0.1,0.4,0c0.1,0,0.1,0.1,0.2,0c0.1-0.1,0.1,0,0.2,0
						c0.2,0.1,0.4,0,0.6,0c0.1,0,0.3,0,0.4,0.1c0,0,0,0,0.1,0c0.1,0,0.2,0,0.3,0c0.2,0,0.4,0.1,0.6,0c0.1,0,0.2,0,0.2,0
						c0,0,0.1,0.1,0.1,0.1c0.1-0.1,0.1,0,0.2,0c0.1,0,0.2,0,0.4,0.1c0.1,0,0.2,0,0.3,0c0.2,0,0.4,0,0.6,0c0,0,0-0.1,0.1-0.2
						C65.8,17.5,65.8,17.1,65.8,16.6z"/>
				</g>
			</g>
		</g>
		<g>
			<g>
				<g>
					<path class="st4" d="M72.2,14.4C72.2,14.4,72.2,14.4,72.2,14.4L72.2,14.4z"/>
					<path class="st4" d="M72.2,12.3c-0.2,0-0.2,0-0.1,0.1c0,0,0,0,0.1,0.1c0.1,0.2,0,0.3,0,0.5c0,0.2,0,0.3,0,0.5
						c0,0.2,0,0.4,0,0.7c0,0.1,0,0.2,0.1,0.3l0,0l0,0l0,0l0,0l0,0c-0.1,0-0.1,0.1-0.1,0.1l0,0.3c0,0.1,0.1,0.2,0,0.2
						c-0.1,0.1,0.1,0.2,0,0.2c0,0.2,0,0.4,0.1,0.5c0,0.2,0,0.4,0,0.5c0,0.1,0,0.2,0.1,0.3c0.1,0.1,0.1,0.3,0.1,0.4
						c0.1,0.2,0.1,0.5,0.2,0.7c0,0.2,0.1,0.4,0.1,0.6c0,0.1,0,0.2,0,0.3c0,0,0,0,0.2,0l0.1,0c0.8-0.1,1.1-0.3,1-0.5
						c-0.1-0.2-0.1-0.3-0.1-0.5c0-0.1-0.1-0.2-0.1-0.3c0-0.1-0.1-0.3-0.1-0.4c0-0.1,0-0.2,0-0.2c-0.1-0.1-0.1-0.1-0.1-0.2
						c0-0.2-0.1-0.5-0.1-0.7c0-0.2-0.1-0.3,0-0.5c0,0,0-0.1,0-0.1c0-0.1,0-0.2,0-0.3c-0.1-0.2,0.1-0.5,0-0.7c0-0.1,0-0.2,0-0.3
						c0,0,0.1-0.1,0.1-0.1c-0.1-0.1,0-0.1,0-0.2c0-0.1,0-0.3,0-0.4c0-0.1,0-0.2,0-0.4c0-0.2,0.1-0.4,0-0.7c0,0-0.1-0.1-0.2-0.1
						C73,12.2,72.6,12.3,72.2,12.3z"/>
				</g>
			</g>
		</g>
		<g>
			<g>
				<g>
					<path class="st4" d="M71.4,4.1C71.4,4.1,71.4,4.1,71.4,4.1L71.4,4.1z"/>
					<path class="st4" d="M71.4,1.8c-0.2,0-0.2,0-0.1,0.1c0,0,0,0,0.1,0.1c0.1,0.2,0,0.3,0,0.5c0,0.2,0,0.4,0,0.6c0,0.2,0,0.5,0,0.8
						c0,0.1,0,0.2,0.1,0.3l0,0l0,0l0,0l0,0l0,0c-0.1,0-0.1,0.1-0.1,0.1l0,0.3c0,0.1,0.1,0.2,0,0.3c-0.1,0.1,0.1,0.2,0,0.3
						c0,0.2,0,0.4,0.1,0.6c0,0.2,0,0.4,0,0.6c0,0.1,0,0.2,0.1,0.4c0.1,0.2,0.1,0.3,0.1,0.5c0.1,0.3,0.1,0.5,0.2,0.8
						c0,0.2,0.1,0.4,0.1,0.7c0,0.1,0,0.2,0,0.4c0,0,0,0.1,0.2,0l0.1,0c0.8-0.1,1.1-0.3,1-0.5C73,8.2,73,8,73,7.8
						c0-0.1-0.1-0.2-0.1-0.3c0-0.2-0.1-0.3-0.1-0.5c0-0.1,0-0.2,0-0.2c-0.1-0.1-0.1-0.1-0.1-0.2c0-0.3-0.1-0.5-0.1-0.8
						c0-0.2-0.1-0.3,0-0.5c0,0,0-0.1,0-0.1c0-0.1,0-0.2,0-0.3c-0.1-0.3,0.1-0.5,0-0.8c0-0.1,0-0.2,0-0.3c0,0,0.1-0.1,0.1-0.1
						c-0.1-0.1,0-0.1,0-0.2c0-0.1,0-0.3,0.1-0.4c0-0.1,0-0.3,0-0.4c0-0.2,0.1-0.5,0-0.7c0,0-0.1-0.1-0.2-0.1
						C72.2,1.7,71.8,1.7,71.4,1.8z"/>
				</g>
			</g>
		</g>
	</g>
	<g>
		<g>
			<g>
				<path class="st4" d="M7.5,2.5C7.5,2.5,7.5,2.5,7.5,2.5L7.5,2.5z"/>
				<path class="st4" d="M10.6,5.1c0-0.2,0-0.2-0.1-0.2c0,0-0.1,0-0.1,0c-0.3-0.1-0.6-0.2-0.8-0.4C9.3,4.3,9,4.1,8.8,3.8
					c-0.3-0.3-0.6-0.6-0.9-1C7.7,2.8,7.7,2.6,7.5,2.5l0,0l0,0l0,0l0,0l0,0c0-0.1,0-0.1,0-0.2L7.2,1.9c0-0.1-0.1-0.1-0.1-0.2
					C7,1.6,7,1.6,7,1.4C6.9,1,6.6,0.9,6.5,0.6C6.3,0.5,6.1,0.4,5.8,0.4C5.4,0.4,5.1,0.6,4.8,1C4.4,1.3,4.1,1.5,3.8,1.8
					C3.7,1.9,3.5,2.1,3.3,2.3C3.1,2.5,2.9,2.7,2.7,2.9C2.3,3.3,1.9,3.6,1.5,4c-0.3,0.3-0.6,0.6-1,0.9C0.4,5,0.2,5.2,0,5.3
					C0,5.3,0,5.4,0.1,5.5l0,0C0.6,6.1,1,6.2,1.4,5.8C1.6,5.5,1.9,5.3,2.2,5c0.2-0.2,0.3-0.3,0.5-0.4c0.3-0.2,0.4-0.5,0.7-0.7
					c0.1-0.1,0.3-0.2,0.4-0.3C3.8,3.4,3.9,3.4,4,3.3c0.4-0.3,0.8-0.7,1.2-1l0.2-0.2L5.5,2c0,0,0.1-0.1,0.1,0c0,0,0,0,0,0l0,0
					c0,0,0.1,0,0.1,0.1c0,0,0,0,0.1,0.1L6,2.5C6.1,2.8,6.3,3,6.5,3.2c0.2,0.2,0.2,0.4,0.4,0.5C6.9,3.8,6.9,3.9,7,4
					C7.1,4,7.1,4.2,7.3,4.3C7.5,4.5,7.7,4.8,7.9,5c0.2,0.2,0.5,0.3,0.7,0.5C9,5.9,9.5,6.2,10,6.3c0.1,0,0.1,0,0.2-0.1
					C10.5,5.9,10.6,5.5,10.6,5.1z"/>
			</g>
		</g>
	</g>
	<g>
		<g>
			<g>
				<path class="st4" d="M74.2,2.5C74.2,2.5,74.2,2.5,74.2,2.5L74.2,2.5z"/>
				<path class="st4" d="M77.5,5.1c0-0.2,0-0.2-0.1-0.2c0,0-0.1,0-0.1,0c-0.3-0.1-0.6-0.3-0.8-0.4c-0.3-0.2-0.6-0.4-0.8-0.6
					c-0.4-0.3-0.7-0.6-1-0.9c-0.1-0.1-0.2-0.3-0.4-0.4l0,0l0,0l0,0l0,0l0,0c0-0.1,0-0.1-0.1-0.2l-0.3-0.4c-0.1-0.1-0.3-0.2-0.3-0.4
					c0-0.1-0.2-0.3-0.3-0.4C73.1,1,73,0.9,73,0.7c-0.1-0.2-0.3-0.5-0.4-0.7l-1,0.9l-0.4,0.4L71,1.5c-0.1,0.1-0.3,0.3-0.4,0.4
					c-0.2,0.2-0.4,0.3-0.5,0.5c-0.2,0.2-0.4,0.4-0.7,0.6c-0.4,0.4-0.8,0.7-1.2,1c-0.3,0.3-0.7,0.6-1,0.8C67,4.9,66.9,5,66.6,5.1
					c-0.1,0-0.1,0.1,0,0.2l0,0c0.5,0.6,0.8,0.8,1.2,0.4c0.3-0.3,0.6-0.5,0.9-0.7c0.2-0.1,0.3-0.3,0.5-0.4c0.3-0.2,0.5-0.5,0.8-0.6
					c0.1-0.1,0.3-0.2,0.4-0.3c0.1-0.1,0.2-0.2,0.3-0.3c0.4-0.3,0.8-0.7,1.2-1.1c0.2-0.2,0.2-0.2,0.2-0.2c0,0,0.1-0.1,0.1,0
					c0,0,0,0,0,0l0,0c0,0,0,0.1,0.1,0.1c0,0,0.2,0.3,0.3,0.5C72.9,3,73,3.2,73.2,3.4c0.2,0.1,0.3,0.3,0.4,0.5c0.1,0.1,0,0.2,0.1,0.2
					c0.2,0.1,0.2,0.2,0.3,0.3c0.2,0.2,0.4,0.4,0.7,0.6c0.2,0.2,0.5,0.3,0.7,0.5c0.4,0.3,0.9,0.6,1.3,0.8c0.1,0,0.1,0,0.2-0.1
					C77.3,5.9,77.4,5.5,77.5,5.1z"/>
			</g>
		</g>
	</g>
</g>
</svg>
