<?xml version="1.0" encoding="utf-8"?>
<!-- Generator: Adobe Illustrator 24.2.1, SVG Export Plug-In . SVG Version: 6.00 Build 0)  -->
<svg version="1.1" id="Layer_1" xmlns="http://www.w3.org/2000/svg" xmlns:xlink="http://www.w3.org/1999/xlink" x="0px" y="0px"
	 viewBox="0 0 107.6 119.8" style="enable-background:new 0 0 107.6 119.8;" xml:space="preserve">
<style type="text/css">
	.st0{opacity:0.25;}
	.st1{fill:#386A7C;}
	.st2{fill:#D3D3D3;}
	.st3{fill:#FFFFFF;}
	.st4{fill:#231F20;}
	.st5{fill:#F0EFEF;}
</style>
<g>
	<g class="st0">
		<path class="st1" d="M71.4,35.3c-5-8.7-17.4-31.1-19.8-31.4C50.1,3.7,30.4,32.4,25,39.4c-4.8,6.3-12.8,12.8-15.7,20.2
			c-0.7,1.8,14.5-1.3,32,0.2c13.9,1.2,29.3,7.1,39.3,7.6c3.4,0.2,5.4-3.2,4.8-6.1C86.7,59.2,73,37,71.4,35.3z"/>
		<g>
			<path class="st1" d="M51.9,46c0,18.6,0,37.2,0,55.8c18.6-0.8,32.2-0.4,55.6,1.7c0-18.2,0-35,0.1-53.2c0-0.6,0-1.3-0.5-1.7
				c-0.4-0.4-1.1-0.4-1.7-0.4C90,48.1,67.3,46,51.9,46"/>
		</g>
		<g>
			<path class="st1" d="M68.3,66.5C57.2,57.8,38,54.8,26.2,63.3c-7.1,2.4-12.6,7.3-15.4,15.1c-3.1,8.6-0.8,18.7,4.5,26
				c5.7,7.8,14.7,14.2,24.4,15.3c8.4,0.9,17.4-2.4,24.1-7.4c7-5.1,12.4-12,13.8-20.7C79.2,81.9,76,72.5,68.3,66.5z M54,85.9
				c0,0,0,0.1,0.1,0.1c0,0,0,0.1,0,0.1C54,86,54,86,54,85.9C54,85.9,54,85.9,54,85.9z M40.3,82.7c0,0,0.1,0,0.1,0
				C40.5,82.7,40.4,82.7,40.3,82.7C40.4,82.8,40.3,82.8,40.3,82.7C40.3,82.8,40.3,82.7,40.3,82.7z M40.6,82.6c0,0,0.1,0,0.1,0
				C40.7,82.6,40.6,82.7,40.6,82.6C40.6,82.7,40.6,82.7,40.6,82.6z M33.7,85.8C33.7,85.8,33.7,85.8,33.7,85.8c0,0.1,0,0.1-0.1,0.2
				C33.7,85.9,33.7,85.8,33.7,85.8C33.7,85.8,33.7,85.8,33.7,85.8z"/>
			<g>
				<path class="st1" d="M24.5,69c-5.2,0.5-9.7,4.3-11.8,9.1s-2.1,10.3-0.9,15.3c2.3,9.2,8.6,17.3,17,21.7
					c8.4,4.4,18.6,5.1,27.5,1.7c9.8-3.7,17.7-12.3,19.9-22.6S74.7,72.5,66.5,66c-10.6-8.3-25.8-7.5-38.6-3.2
					c-1.8,0.6-3.8,1.5-4.4,3.3"/>
			</g>
		</g>
	</g>
	<g>
		<path class="st2" d="M63.5,31.7C58.5,23,46,0.6,43.7,0.3c-1.4-0.2-21.2,28.5-26.5,35.5C12.3,42.1,4.3,48.6,1.5,56
			c-1.2,3.3-1.1,7.5,2,7.5c0.4,0.1,0.8,0.1,1.2,0.1c22.7-0.9,45.4-0.8,68.1,0.2c3.4,0.2,5.4-3.2,4.8-6.1
			C78.8,55.6,65.2,33.3,63.5,31.7z"/>
		<path class="st3" d="M98.3,42.3c-2,0-10.1-1.5-12.3-1.2c-4.4,0.7-36.5-2.2-41-1.2c-1.8,0.4-2.1,2.6-1.1,3.9
			c-0.2,0.3-0.3,0.7-0.3,1.1c0,1.8-1,29.5,0.2,37.3c0,0.5,0,0.9,0,1.4c-0.1,4-0.5,8,0.1,12c0.1,0.9,1.2,1.6,2,1.7
			c1,0.1,37.4-0.1,51.9,1.3c1.3,0.1,2.4-1.2,2.4-2.4c0.2-17.2,0.4-34.4,0.6-51.6C100.7,43.3,99.5,42.3,98.3,42.3z"/>
		<g>
			<g>
				<g>
					<path class="st4" d="M31.2,61.8c3.4,0.1,6.7-0.3,10.1-0.3c5.6-0.1,11.2-0.2,16.8-0.4c3.8-0.2,7.7-0.3,11.5-0.5l10.7-0.4
						l-6.8-10.9c-7.4-11.7-15-23.3-22.7-34.8c-1.4-2.1-2.8-4.3-4.2-6.5l-2-3.3l-1-1.6l-0.3-0.4l-0.1-0.2l-0.2-0.3
						c-0.1,0.1-1.2,1.7-1.9,2.8l-2.4,3.6c-6.3,9.3-13.1,18.2-20.2,26.9c-2.5,3.1-5.2,6-7.9,9c-2.7,2.9-5.5,5.7-7.5,9
						c-0.5,0.9-0.9,1.7-1.2,2.6c-0.5,1.5-0.9,2.2-1.4,2.5c-0.5,0.3-0.4-0.9,0-2C1.3,54,2.7,51.9,4.2,50c1.5-1.9,3.2-3.7,4.8-5.5
						c8.4-9.5,16.3-19.4,23.8-29.6c1.7-2.3,3.4-4.6,5-7l2.4-3.5c0.9-1.3,1.4-2.1,2.9-4.3L45,2.9c4.5,7,9.1,14,13.6,20.9
						c4.8,7.4,9.6,14.7,14.3,22.2l4.4,7l5.1,8l-11.1,0.5L61.4,62c-8.6,0.3-17.2,0.7-25.7,0.8l-17.3,0.3l-8.7,0.1c-1.4,0-2.9,0-4.3,0
						c-1.5-0.1-3-0.3-4.3-1c-0.7-0.4-1-0.8-1-1C0,61,0,60.8,0.1,60.7c0.2-0.2,0.6,0,1.2,0.4c0.9,0.5,2.1,0.8,3.3,0.9
						C5.9,62.1,7.1,62,8.4,62L16,62L31.2,61.8L31.2,61.8z"/>
				</g>
			</g>
		</g>
		<g>
			<path class="st3" d="M44.9,40.5c0,18.6,0,37.2,0,55.8c18.6-0.8,32.2-0.4,55.6,1.7c0-18.2,0-35,0.1-53.2c0-0.6,0-1.3-0.5-1.7
				c-0.4-0.4-1.1-0.4-1.7-0.4C83,42.6,60.4,40.5,44.9,40.5"/>
			<g>
				<g>
					<path class="st4" d="M76.4,41c3.3,0.4,6.7,0.2,10,0.4c2.8,0.2,5.5,0.3,8.3,0.4c1.4,0.1,2.7,0.1,4.2,0.1c0.4,0,0.8,0.1,1.3,0.3
						c0.5,0.2,0.8,0.7,1,1.1c0.3,0.9,0.1,1.6,0.2,2.3c0.1,12.1-0.2,24.1-0.3,36.2l0,8.1l0,8.4l-6.6-0.5l-6.2-0.4
						c-4.2-0.2-8.3-0.4-12.5-0.4c-7.9-0.1-15.8-0.7-23.7-0.4l-7.5,0.3l-0.1-13.8c-0.1-4.4-0.1-8.8-0.2-13.2
						c-0.1-7.9,0.2-15.7,0-23.5c0-1-0.1-2-0.2-3c-0.2-1.7,0.2-2.5,0.7-2.9c0.5-0.4,0.7,0.8,0.7,1.9c0,4.8,0.1,9.6,0.1,14.5
						c0.2,12.6,0.3,25.1,0.3,37.7l0,0.8l3.7-0.1l4.5-0.1c3,0,6-0.1,9-0.1c8.3-0.1,16.5,0.3,24.8,0.8l6.5,0.4l5.3,0.4l0,0
						c0,0,0,0.1,0-0.1l0-0.4l0-1.7l0-3.3c0-2.2,0-4.4,0.1-6.6c0.2-11.9,0.3-23.9,0.3-35.9l0-3.2c0-0.5,0-1.1,0-1.5
						c-0.1-0.4-0.2-0.6-0.4-0.7c-0.2-0.1-0.7-0.1-1.3-0.1l-1.6,0l-3.2,0c-4.3-0.1-8.5-0.3-12.7-0.6c-11.4-0.8-22.8-1.3-34.2-1.8
						c-1.5-0.1-1.6-0.5-1.6-0.9c-0.1-0.3,0.4-0.5,1.4-0.5C56.4,39.7,66.4,40.4,76.4,41L76.4,41z"/>
				</g>
			</g>
		</g>
		<g>
			<g>
				<path class="st4" d="M47.1,96.8c2.6-0.2,5.1-0.2,7.7-0.2c1.2,0,2.4-1.1,2.4-2.4c-0.1-1.3-1-2.4-2.4-2.4c-2.6,0-5.1,0-7.7,0.2
					c-1.2,0.1-2.4,1-2.4,2.4C44.8,95.6,45.8,96.8,47.1,96.8L47.1,96.8z"/>
			</g>
		</g>
		<g>
			<path class="st5" d="M63.3,61c-11.1-8.7-28.3-8.1-39.2-4.1c-6.8,2.8-2.9,1.2-5,5.1c-1.4,2.6-10.6,5.1-12,8
				c-0.5,0.9-0.9,1.9-1.3,3c-3.1,8.6-0.8,18.7,4.5,26c5.7,7.8,14.7,14.2,24.4,15.3c8.4,0.9,17.4-2.4,24.1-7.4
				c7-5.1,12.4-12,13.8-20.7C74.1,76.4,71,67,63.3,61z M48.9,80.4c0,0,0,0.1,0.1,0.1c0,0,0,0.1,0,0.1C49,80.5,48.9,80.5,48.9,80.4
				C48.9,80.4,48.9,80.4,48.9,80.4z M35.3,77.2c0,0,0.1,0,0.1,0C35.4,77.2,35.4,77.2,35.3,77.2C35.3,77.2,35.3,77.2,35.3,77.2
				C35.3,77.2,35.3,77.2,35.3,77.2z M35.6,77.1c0,0,0.1,0,0.1,0C35.6,77.1,35.6,77.1,35.6,77.1C35.5,77.2,35.5,77.1,35.6,77.1z
				 M28.7,80.2C28.7,80.3,28.7,80.3,28.7,80.2c0,0.1,0,0.1-0.1,0.2C28.7,80.4,28.7,80.3,28.7,80.2C28.7,80.2,28.7,80.2,28.7,80.2z"
				/>
			<g>
				<g>
					<g>
						<path class="st4" d="M9.8,69.8c-2.1,2.8-3.2,6.6-3.3,10.6c-0.1,4,0.8,8.2,2.4,12c2.7,6.4,7.5,11.9,13.4,15.6
							c6.1,3.8,13.4,5.2,20.5,4.5c4.5-0.4,9-1.8,12.9-4.1c4-2.4,7.5-5.7,10.2-9.6c1-1.5,1.9-3.1,2.7-4.7c0.7-1.7,1.4-3.4,1.8-5.2
							c0.8-3.5,0.9-7.2,0.3-10.8c-0.7-4.2-2.3-8.3-4.8-11.7c-1.2-1.8-2.7-3.3-4.3-4.7c-0.4-0.4-0.8-0.7-1.3-1L59,59.7l-1.4-0.8
							l-0.7-0.4l-0.7-0.3c-3.4-1.7-7.1-2.7-10.9-3.1c-3.8-0.4-7.7-0.3-11.5,0.3c-4,0.6-8,1.5-11.8,3c-0.5,0.2-1.1,0.5-1.6,0.9
							c-0.5,0.3-0.8,0.6-1.1,0.7c-0.6,0.2-1.2,1-1.3,0.3c0-0.2,0.1-0.7,0.5-1.2c0.3-0.5,0.8-0.9,1.3-1.2c1.6-1,3.2-1.4,4.8-1.9
							c1.6-0.5,3.2-0.9,4.8-1.3c2.7-0.6,5.4-1,8.2-1.2c2.7-0.2,5.5-0.1,8.2,0.2c4.5,0.6,9.1,1.9,13,4.3c3.7,2.2,6.8,5.3,9,8.9
							c3,4.9,4.6,10.6,4.5,16.3c0,0.6,0,1.2-0.1,1.8c-0.1,0.6-0.1,1.2-0.2,1.8c-1.2,6.9-4.7,13.4-9.9,18.2
							c-3.1,2.9-6.7,5.2-10.7,6.7c-4,1.5-8.2,2.1-12.4,2.1c-4.7-0.1-9.4-1.1-13.7-3.1c-4.3-1.9-8.1-4.8-11.3-8.3
							c-4.4-5-7.4-11.2-8.3-17.8C5.1,80.7,5.3,76.6,6.8,73c1.5-3.7,4.2-6.9,7.8-8.7c2.3-1.1,4-1.1,4.6-0.9c0.3,0.1,0.3,0.3,0,0.4
							c-0.3,0.1-0.9,0.3-1.8,0.5C14.8,65.1,12.3,66.5,9.8,69.8z"/>
					</g>
				</g>
			</g>
		</g>
	</g>
</g>
</svg>
