<?xml version="1.0" encoding="utf-8"?>
<!-- Generator: Adobe Illustrator 24.2.1, SVG Export Plug-In . SVG Version: 6.00 Build 0)  -->
<svg version="1.1" id="Layer_1" xmlns="http://www.w3.org/2000/svg" xmlns:xlink="http://www.w3.org/1999/xlink" x="0px" y="0px"
	 viewBox="0 0 40.4 46.6" style="enable-background:new 0 0 40.4 46.6;" xml:space="preserve">
<style type="text/css">
	.st0{fill:#DB1F26;}
</style>
<path id="XMLID_1_" class="st0" d="M28.4,0h2.2c4,0,10.5,1.1,9.8,6.5c-2.8,0.8-1.9,4.4-3,6.5c0.1,3.8,2.3,7.5,1.4,11.4
	c-1.4,4.3-3.4,8.4-4.3,12.8c-0.7,1.7,1.1,2.8,1.5,4.2c-0.7,1.7-4.2,1.5-4.3-0.5c-0.3-4.2,1.8-8.5,1-12.7c-1.9,0.1-3.7,0.6-5.6,0.6
	C25.3,34,23.9,40,26.5,45.1c0,2.3-4.7,1.9-4.1-0.5c0.6-5.6-0.7-11.1-1.8-16.5c-1.3,0.5-2,1.8-2.9,2.8c-0.4,2.5,2.6,2.6,3.1,4.6
	c-3,1.5-4.5-1.6-4.9-4.1c-1.2-1.9,0.7-3.8,0.3-5.8c-0.8-1-2-2.1-3.4-1.8C8.4,26.7,5,31,3.4,36.1c-0.2,1.6-1.9,2.6-3.4,2.3
	c0-0.7,0-1.3,0.1-2c2.4-2,3.7-5,4-8.1c1.1-4.6,2-9.6,5.5-13.1C7.4,12.8,5.9,9.2,7.1,6c0.6,2.8,1.5,6.9,4.8,7.4
	c3.7-1.3,7.7-1.4,11.6-2c0.1-1.8,1-5-1.8-4.8c0-0.8,0.1-2.3,0.1-3.1C22.4,0.6,26.1,1,28.4,0z"/>
</svg>
